M48
;Layer_Color=9474304
;FILE_FORMAT=4:4
METRIC,LZ
;TYPE=PLATED
T1F00S00C0.2000
T2F00S00C0.3000
T3F00S00C0.7000
T5F00S00C1.0160
T6F00S00C1.3200
;TYPE=NON_PLATED
T7F00S00C1.6000
T8F00S00C1.6500
T9F00S00C3.0000
%
T01
X0001375Y0007275
X00031Y00106
X000795Y00126465
X00076Y00136
X0009262Y00148387
X0009038Y00194014
X00107Y001865
X00113674Y001765
X0007275Y001865
X0006325Y0023075
X00031Y00226
X000945Y0008775
X001Y00090997
X00105Y0008775
X00122
X001275Y00090875
X001325Y0008775
X0014225Y0009175
X00138007Y00100005
X0012975Y00101625
X0011925Y0010175
X00113
X0011825Y0010825
X00122375Y00112375
X00122Y0006725
X001275Y0006425
X001325Y0006725
X00138Y0006425
X0013875Y0005025
X0011275
X0008675
X0008Y0006575
X0008675Y0001975
X0009525
X0011275
X0012125
X0013875
X0014725
X0016475
X00191Y0002125
X002005Y0002125
X00196Y00016
X00226
X002305Y00058
X00237Y00058
X002435Y00058
X0025Y00058
X0027Y00057
X00280014Y00089255
X00289Y000935
X002925Y00097
X0032825Y0009725
Y000925
X0034975Y0009125
X0034625Y0008525
X003675Y0008925
X003755Y0008975
X003755Y001035
Y001115
X003675Y001035
X003505Y0011425
X003445Y00116137
X00337125Y00122006
X003245Y00147
X00316Y00143
X00303Y0014625
X0029575
X00281Y001555
X0026575Y0014625
X00264Y0016525
X0024925Y0015825
X00241Y001585
X00229Y0013775
X002235Y00140996
X002175Y0010775
X0020301Y00108255
X0019375Y0010825
X0019225Y001265
X0018025
X00176Y0011025
X00176Y0008275
X001655Y0008775
X00160258Y0009075
X00155Y0008775
X00155758Y00098255
X001495Y00097
X001495Y0006725
X00155Y0006425
X0016Y0006725
X0016475Y0005025
X001935Y000755
X0021125Y00074
X002295Y0006575
X00241Y00106
X00252Y00123278
X0025975Y0012625
X0025875Y0018325
X0027425Y001805
X002825Y0018825
X00292014Y00188259
X00298Y00189
X00308Y0018875
X0033425Y00177
X0034725Y001745
X003515Y0019275
X003425
X00363Y001975
X0037575
X003835Y0018075
X003675Y00159959
X0036475Y00140996
X0041975Y001445
Y0012925
X004233Y0010685
X00436502Y0009125
X00432272Y00074
X0045175Y00076
X0045639Y0010988
X004875Y000685
X0040025Y0008475
X003925Y001
X0038125Y000765
X00334Y0007125
X0034275Y0006165
X00322Y0002675
X002915Y0003525
X00364Y000095
X00393Y00019
X00432Y00203361
Y00209442
X00338Y0021375
X0033225Y00219
X0029325Y0021675
X002665Y0022075
X0025575Y0022525
X002285Y0022775
X002265Y0019575
X0021475Y0019575
X002055Y002035
X001845Y002135
X0018875Y0021975
X001935Y00227
X0015925Y002135
X00144Y00216
X00148Y0014175
X0016775Y0014
X0018875Y00155
X002035Y0016525
X0022875Y0018025
X00237Y0019075
X0023825Y0024375
X002435Y0025125
Y002605
X0025675Y002555
X002595Y002675
X00258Y002765
X00258Y0028575
X00271Y00286
X002795Y002565
X003155Y002395
X0036675Y0024075
X0036675Y0025375
X0036025Y002475
X00384019Y0024075
X00406Y00256
X0044475Y0024475
X0045639Y0024489
X0045175Y00272
X0044475Y00272
X0044425Y0032775
Y003365
X0046975Y003365
X0046475Y00331
X0045649Y0037189
X0045729Y0039729
X00451Y00406
X0045575Y0042225
X0043875Y004165
X00432Y0040825
X003975Y0040775
X003815Y003915
X0036555Y003815
X00354517Y00382269
X00354256Y00390146
X00352299Y00375
Y00368284
X00343946Y00365715
X00337Y00357786
X00328714Y00357146
X00324077Y00353007
X0031725Y00354
X00316122Y00347921
X00304857Y00356441
X00300316Y00361566
X00292Y0036225
X00297015Y00349
X002705
X002625
X0024875Y00312
X002395Y0030975
X002465Y003
X00219Y002995
X002115Y0029175
X0021075Y0027725
X0022075Y0028125
X002055Y00304
X001845
X001885Y0031525
X001885Y0034
X0019575
X001785Y00339
X001785Y00333
X00169Y00333
X001625
X001585Y00314
X001565Y0030675
X0015Y0031125
X001495Y0030225
X00151Y00286
X001505Y0027925
X0016125Y002795
X001615Y002955
X0016825Y0030375
X0016175Y002615
X0016675Y0025425
X001635Y0024225
X00156Y002435
X001515Y00248
X001735Y0024225
X001785Y00245751
X001855Y0025425
X0020525
X002035Y00244
X0021Y0033125
X002105Y0034825
X0019475Y00375
X00188Y003835
X0019Y0042225
X00194125Y00432209
X002005Y0043225
X00204375Y00427625
X002045Y004215
X00223261Y00421521
X00229011Y00421021
X002275Y0040975
X0023325Y0040975
X0024125Y0041925
X0025925Y0041725
X00263513Y0041327
X002775Y0041425
X00283014Y0041727
X00282764Y00423021
X00291264Y0041952
X00293762Y00406511
X002945Y003945
X00272013Y0040327
X002525Y00401
X002525Y0040675
X0024675Y003995
X0025425Y003945
X00269013Y00424771
X0026Y0043875
X00255Y004625
X00245
X0024025Y0046775
X0025
X0025Y0047425
X0026Y0046775
X00265Y004625
X00274763Y00462523
X0027025Y0046725
X0028225Y00466
X0028825Y0046475
X0029725Y00465
X00295Y0047075
X0029775Y00479
X00292Y00485
X0029275Y0049175
X00292014Y00501775
X00297764Y00499774
X002975Y0051
X0029525Y0051575
X0029625Y0052625
X00297Y005325
X00297015Y00539026
X002975Y00545
X002855Y005455
X00288Y005525
X00285Y005575
X0028Y0055375
X00275Y005575
X0027Y0055375
X00265Y005575
X0026Y0055375
X00255Y005575
X0025Y0055375
Y0054575
X0024Y0055375
X002145Y005455
X00208Y0054325
X0020275Y0054025
X00203989Y00548761
X00208Y00533
X0021425Y00533
X0020275Y0053
Y0052
X00208Y005225
X0020775Y005125
X00205Y0050725
X0020825Y0050225
X0020275Y005
Y0049075
X0020276Y00480774
X00208Y004775
X0020851Y00469773
X0020275Y004715
X00204Y0046275
X0021Y004625
X00215Y0046625
X002145Y004745
X0021425Y00487
X00208Y00486
X0018575Y0048875
X0018375Y0049825
X00179009Y00494024
X001675Y004985
X0016575Y0050675
X001675Y0051275
X00175509Y00517525
X00164508Y00526276
X00159008Y00523526
X00153507Y00520775
X00146Y0050675
X001525Y0048325
X0015675Y00479
X001565Y0045575
X0017675Y00456
X0017775Y004485
X0018275Y0046125
X001775Y0046775
X0018175Y0047525
X0019726Y00459272
X00200238Y0044425
X002075Y00443
X002325Y00442
X00235Y004625
X00225
X0022175Y0046825
X0023Y0046775
X00227Y0047425
X0023825Y0048225
Y0049825
X0022225
X0021425Y0051
X0022225Y0052175
X0023825
X0026175Y0049825
X0027775
X0028575Y00487
X002855Y004745
X003155Y00479
X00315Y0046075
X00313515Y00454286
X00314Y004485
X00307409Y004465
X00307Y004405
Y004315
X0031175Y0042575
X0032475Y0042275
X0032525Y0043075
X003315Y0044175
X003445Y0043475
X00344501Y0042675
Y0041775
X00344905Y00400916
X0032325Y0040575
X0031675Y004105
X003265Y004655
X0033125Y0048575
Y00491
X00323266Y00498274
X0032525Y0050375
X00315015Y00507525
X00318Y005125
X0031475Y0049925
X00315015Y00528276
X00316765Y00534026
X00317015Y00539776
X0033025Y0053625
X003305Y00546
X0033975Y0056275
X00334516Y00571028
X00339767Y00577528
X00319958Y00578792
X0031925Y00584625
X003115Y00583
X003005Y00583
X0030695Y00572213
X002995Y00563
X0029675Y00557
X0031675Y0056025
X00327266Y00599279
X0033175Y00603
X00338266Y00603279
X00347017
X003575Y0061425
X00335Y0062175
X00316Y006105
X003085Y006105
X002995Y0061025
X0029225
X0028475Y00606467
X0026075Y0060025
X0025025Y0060025
X0024525Y006105
X002475Y0061625
X002505Y00626
X0026Y0062625
X0026Y00619
X002685Y0062225
X0023525Y0062075
X00233Y0060575
X0023275Y005965
X00233Y00582
X00217
X0020525Y005815
X00192Y0058425
X00191Y005915
X0019975Y005975
X002Y0061475
X002045Y006185
X0020475Y00611
X002165Y00611272
X00217Y0060575
X0021725Y005965
X0018875Y00607
X001775Y0061125
X0017775Y0062075
X00178Y0062925
X0018925Y0062275
X00197375Y0062625
X00166Y00616
X001615Y00607
X00151Y0061175
X001435Y0061275
X00152Y0058325
X001585Y0058325
X001585Y0057475
Y00566
X001585Y0055925
X001555Y0055475
X001495Y0055675
X0014375
X0017975Y00546
X0018225Y0053375
X0019025Y005735
X00177Y006
X00246Y005855
X00254083Y0058075
X0026Y00585
X00273Y0054575
X0028575Y0051
X0033925Y0052125
X003395Y00527
X0035875Y005205
X0036775Y0051975
X0037Y0052775
X0036825Y0053525
X003615
X0036825Y0055925
X0039575Y005625
X00391Y00551
X004Y00532
X004025Y005725
X0040075Y00587
X0039175Y0058725
X0038Y0058
X003845Y0060375
X0039425Y0060375
X00415Y0060425
X004245Y0062175
X0043Y0059125
X0041952Y00575278
X004455Y0056675
X00454Y0056475
X0046975Y0057725
Y005865
X00481Y00586
X004845Y005725
X00495Y0058
Y00595
Y0061
Y00625
X0049525Y0055725
X00475Y0052275
X00477Y0049675
X00454Y0049525
X00457757Y00474757
X00454Y00466
X0046975Y00447286
X00457Y0053699
X003495Y00507025
X0035775Y0047925
Y0047375
X0035775Y004675
X003515Y0046125
X0035125Y00453
X00362Y0045525
X0036775Y004645
X00368Y00478
X00374
X00376Y004705
X004045Y003675
X0040449Y0034649
Y003385
X0040134Y0032109
X00384Y003
X003625Y00325
X00352327Y00326911
X00340465Y00329375
X00331Y00286
X0023225Y0032525
X00170359Y00413607
X00153507Y0041952
X0014Y0042
X00115Y004175
X00121Y00406
X001375Y0039425
X00136Y00376
X00104638Y00371712
X00107449Y00362687
X00105125Y00355875
X00105577Y0034825
X0005575Y003465
X000445Y00334881
X0005691Y0032109
Y0029569
X000435Y00284299
X00043Y0024525
X00063253Y00255513
X001195Y0025475
X0012225Y002435
X0013275Y0026375
X0013075Y0031075
X00126Y00307
X0011975Y00307
X0005425Y0037125
X0004625Y0042775
X0003Y0044575
X0003525Y0047275
X00043Y004862
X0005519Y0048619
X0005846Y0046079
X00043Y005116
X000435Y005325
Y005725
X00047Y0058275
X00061Y00586
X0006675Y005765
X0008725
X0009825Y005885
X00104Y0059325
X0010925Y0059925
X00096Y006005
X00085Y0061075
X00076Y00616
X0008525Y006265
X00106Y00616
X00136
X00135Y00626
X0012675Y0057575
X00106Y00556
X0011725Y0054225
X00123Y00537
X0009557Y0053699
Y0051159
X00118Y00492
X0012625Y0049325
X00057Y005624
X00031Y00586
X0001725Y0058325
X00005Y0058
Y00595
Y0061
Y00625
X0001375Y00419
X00013791Y00413603
X00005Y0064
Y00655
X0000625Y0067
X00016Y00676
X000125Y006825
X000225Y006925
X000325Y007025
X000425Y007125
X000525Y00705
X0005725Y0069525
X000535Y0068425
X00055Y0067425
X00046Y00676
X000635Y0067825
X00063Y006645
X00072898Y0067081
X00076Y00676
X000825Y006825
X00095Y0068
X00106Y00676
X00103Y00670746
X0010668Y00659638
X0010541Y00648462
X00114804
X00121Y00646
X00121408Y00655066
X0013375Y00655
X001385Y0064925
X0014Y0066775
X00136Y00676
X001295Y00665
X00117598Y0066802
X00092964Y00661416
X00088138Y0067081
X00077978Y00661416
X00091Y00646
X0009575Y0063575
X00124Y0063625
X00061Y00646
X0002975Y00665
X000725Y00693
X00105Y0069
X00115Y007
X00125Y0071
X00135Y0072
X001375Y008
X001425Y008125
X001525Y008225
X001625Y008325
X00175Y00842
X0019Y00845
X00205
X0022
X00235
X0025
X00265
X0028
X00295
X0031
X00325Y00842
X003375Y008325
X00331Y00826
X003475Y008225
X003575Y008125
X003625Y008
X003525Y0079
X00346Y00796
X003425Y0078
X003325Y0077
X00325Y0076
X00335Y0075
X00345Y0074
X00355Y0073
X00365Y0072
X00361Y00706
X00375Y0071
X00385Y007
X00395Y0069
X00405Y0068
X00400304Y00670052
X00398526Y00660658
X00415544
Y00670052
X004175Y006825
X004275Y006925
X00445
X0044325Y0070125
X00451Y00706
X00454Y007115
X004675Y007025
X004775Y006925
X004875Y006825
X0049375Y0067
X00495Y00655
Y0064
X00481Y00646
X00451Y0065425
X00445516Y00670052
X004318Y0067056
X00436Y00676
X0043875Y00683
X004485Y00682
X00466Y00676
X0043434Y0066142
X00421Y00646
X004145Y0063075
X0039925Y0063425
X00394712Y0064643
X00385318Y00646938
X00378714Y00654308
X00365Y0065425
X0036675Y0066375
X003485
Y0065425
X00332666Y00654314
X00333Y0066375
X00331Y00646
X00321592Y00643896
X00312092
X003035Y0064975
X0029775Y006555
X003015Y006645
X00289Y006625
X002935Y006715
X00279Y006705
X002835Y0067925
X0026875Y006805
X0026175Y006855
X00246
X002345Y0068025
X00234Y006705
X0023125Y0065925
X002395Y0066
X002385Y0065025
X002295Y0065
X002335Y0064375
X0024025Y0063475
X002485Y0063275
X002625Y0063725
X00259544Y00648474
X002625Y00655
X00256Y0065975
X00255352Y0066998
X0026425Y0067
X00271Y00646
X00279Y006315
X002925Y00632
X003075
X0032225
X0033725
X0035225Y0063175
X00361Y0063375
X0036775Y00631
X0038075Y0063425
X00361Y00646
X00346Y00676
X00321592Y00674396
X00312092
X00301Y00706
X00331
X00316Y00736
X00286
X00256
X00226
X00196
X00166
X00155Y0074
X00145Y0073
X00151Y00706
X00181
X0018875Y006855
X0020475
X00216Y0068075
X002105Y006705
X0020375Y006595
X00205Y006485
X00196Y0065125
X00198Y006335
X001895Y00632
X001775Y0063625
X001745Y0064525
X001785Y00655
X0017875Y0066375
X0017145Y00669798
X00162Y006685
X00166Y00676
X0015575Y00675
X0014625
Y0064425
X0015575
X00162Y00651
X0016975Y0065575
X00185398Y0067048
X0017925Y00678
X002115Y0069675
X002205
X0022975
X0023875
X00241Y00706
X00271
Y00766
X00301
X00316Y00796
X00286
X00256
X00226
X00196
X00166
X001475Y0079
X001575Y0078
X001675Y0077
X00175Y0076
X00181Y00766
X00211
X00241
Y00826
X00211
X00181
X00271
X00301
X00211Y00706
X00218Y006595
X002185Y006495
X00215Y006385
X00216Y0063125
X00227Y0063325
X00165Y0075
X00376Y00676
X0038354Y00668528
T02
X00371Y0002625
X00398Y00029
T03
X0022575Y000465
X0027425
T05
X00037808Y00092744
X00063208
X00063208Y00130844
X00037808
X00037808Y00168944
X00063208
X00063208Y00207044
X00037808
T06
X0046Y0019625
T07
X00435Y00117
X00475
T08
X004505Y0025759
Y0038459
X0045057Y0044809
Y0054969
X0005057
Y0044809
X0005Y0038459
Y0025759
T09
X0004Y0004
X0046
Y0062
X0004
M30
