M48
;Layer_Color=9474304
;FILE_FORMAT=2:5
INCH,LZ
;TYPE=PLATED
T1F00S00C0.00787
T2F00S00C0.02756
T4F00S00C0.03150
%
T01
X0071693Y0006299
X006815Y0016732
X0070866Y0027559
X0074055Y0033071
X0066181Y0033071
X0080709Y0031496
X0079567Y002126
X0081509Y0014081
X0095039Y0023779
X0099331
X0114016Y002252
X0114173Y0029528
X0122283Y0027598
X0114173Y0041339
X0112835Y0044725
X0122972Y0056632
X0121378Y0067913
X0118431Y0069882
X0117283Y0064055
X0141575Y0059213
X0146492Y0054849
X0146614Y0068465
X015374Y0071378
X0159449Y0074803
Y0064961
X0153819Y0062047
X0163376Y0042953
X0159232Y0028514
X0145669Y0029528
X0138582Y0033386
X0135079Y0048031
X0132323Y0014567
X0146575Y0014567
X0149606Y0005906
X0163386
X0124803Y0005472
X0091063Y0048071
X0080709Y0043307
X0078189Y0063977
X0065945Y0065905
X0065787Y0073622
X0059055Y0066929
Y0055118
X0058701Y0090551
X0063425
X0064961Y0096457
X0066181Y0103543
X0074055
X0100787Y0102756
X0096609Y0097874
X0096772Y0091535
X0097441Y008811
X0090158Y0088583
X0109252Y0099094
X0114587Y0099173
X0120394Y0095512
X0132756Y0100433
X0138622Y0102362
X0142953Y0090551
X0143386Y0080669
X0151575Y0098425
X0161417
Y0110236
X0151575
X0146457Y0123307
X0152599Y0132402
X0165354Y013189
X0161417Y0122047
X0134016Y0128268
X0127087Y0128386
X0102008Y0127165
X0104724Y0133858
X009252
X0082677
X0070866
X0059055
X009689Y0115945
X0045276Y0112205
X003937Y0106299
X0033465Y0112205
Y0096457
X0045276
X0045315Y0090551
Y0080709
X0047244Y0066929
Y0055118
X005315Y0061024
X0041339Y0041339
X0045276Y0031496
X0035433
X0045551Y0021575
X0045748Y0011535
X0055354Y002815
X0047244Y0133858
X0035433
T02
X0088917Y0018347
X0108012
T04
X0172205Y0006461
X0182205
Y0016461
Y0026461
Y0036461
X0172205
Y0026461
Y0016461
Y0046461
Y0056461
Y0066461
X0182205
Y0056461
Y0046461
Y0081457
X0172205
Y0091457
X0182205
Y0101457
X0172205
Y0111457
Y0121457
Y0131457
X0182205
Y0121457
Y0111457
X0024724
Y0101457
X0014724
Y0091457
X0024724
Y0081457
X0014724
Y0066461
Y0056461
Y0046461
X0024724
Y0036461
Y0026461
X0014724
Y0016461
X0024724
Y0006461
X0014724
Y0036461
X0024724Y0056461
Y0066461
X0014724Y0111457
Y0121457
X0024724
Y0131457
X0014724
M30
