G04*
G04 #@! TF.GenerationSoftware,Altium Limited,Altium Designer,20.1.14 (287)*
G04*
G04 Layer_Physical_Order=1*
G04 Layer_Color=255*
%FSLAX44Y44*%
%MOMM*%
G71*
G04*
G04 #@! TF.SameCoordinates,978DA6D5-38BD-4FD5-9912-D6258095FBE2*
G04*
G04*
G04 #@! TF.FilePolarity,Positive*
G04*
G01*
G75*
%ADD16C,0.2500*%
%ADD18R,1.3000X0.7000*%
%ADD19R,1.3462X0.4064*%
%ADD21R,2.5400X0.6350*%
G04:AMPARAMS|DCode=22|XSize=2.54mm|YSize=0.635mm|CornerRadius=0.1588mm|HoleSize=0mm|Usage=FLASHONLY|Rotation=180.000|XOffset=0mm|YOffset=0mm|HoleType=Round|Shape=RoundedRectangle|*
%AMROUNDEDRECTD22*
21,1,2.5400,0.3175,0,0,180.0*
21,1,2.2225,0.6350,0,0,180.0*
1,1,0.3175,-1.1113,0.1588*
1,1,0.3175,1.1113,0.1588*
1,1,0.3175,1.1113,-0.1588*
1,1,0.3175,-1.1113,-0.1588*
%
%ADD22ROUNDEDRECTD22*%
%ADD23R,1.5494X1.2954*%
G04:AMPARAMS|DCode=24|XSize=1.6mm|YSize=0.8mm|CornerRadius=0.4mm|HoleSize=0mm|Usage=FLASHONLY|Rotation=0.000|XOffset=0mm|YOffset=0mm|HoleType=Round|Shape=RoundedRectangle|*
%AMROUNDEDRECTD24*
21,1,1.6000,0.0000,0,0,0.0*
21,1,0.8000,0.8000,0,0,0.0*
1,1,0.8000,0.4000,0.0000*
1,1,0.8000,-0.4000,0.0000*
1,1,0.8000,-0.4000,0.0000*
1,1,0.8000,0.4000,0.0000*
%
%ADD24ROUNDEDRECTD24*%
G04:AMPARAMS|DCode=25|XSize=0.8mm|YSize=1.6mm|CornerRadius=0.4mm|HoleSize=0mm|Usage=FLASHONLY|Rotation=0.000|XOffset=0mm|YOffset=0mm|HoleType=Round|Shape=RoundedRectangle|*
%AMROUNDEDRECTD25*
21,1,0.8000,0.8000,0,0,0.0*
21,1,0.0000,1.6000,0,0,0.0*
1,1,0.8000,0.0000,-0.4000*
1,1,0.8000,0.0000,-0.4000*
1,1,0.8000,0.0000,0.4000*
1,1,0.8000,0.0000,0.4000*
%
%ADD25ROUNDEDRECTD25*%
%ADD27R,0.8128X0.9144*%
%ADD28R,0.9144X0.8128*%
%ADD29R,0.9000X0.8000*%
%ADD30R,0.9652X0.8636*%
%ADD31R,0.9500X0.5500*%
%ADD32R,0.6500X0.8500*%
%ADD34R,0.8500X0.6500*%
G04:AMPARAMS|DCode=35|XSize=0.95mm|YSize=0.8mm|CornerRadius=0.08mm|HoleSize=0mm|Usage=FLASHONLY|Rotation=0.000|XOffset=0mm|YOffset=0mm|HoleType=Round|Shape=RoundedRectangle|*
%AMROUNDEDRECTD35*
21,1,0.9500,0.6400,0,0,0.0*
21,1,0.7900,0.8000,0,0,0.0*
1,1,0.1600,0.3950,-0.3200*
1,1,0.1600,-0.3950,-0.3200*
1,1,0.1600,-0.3950,0.3200*
1,1,0.1600,0.3950,0.3200*
%
%ADD35ROUNDEDRECTD35*%
G04:AMPARAMS|DCode=36|XSize=0.95mm|YSize=0.8mm|CornerRadius=0.1mm|HoleSize=0mm|Usage=FLASHONLY|Rotation=0.000|XOffset=0mm|YOffset=0mm|HoleType=Round|Shape=RoundedRectangle|*
%AMROUNDEDRECTD36*
21,1,0.9500,0.6000,0,0,0.0*
21,1,0.7500,0.8000,0,0,0.0*
1,1,0.2000,0.3750,-0.3000*
1,1,0.2000,-0.3750,-0.3000*
1,1,0.2000,-0.3750,0.3000*
1,1,0.2000,0.3750,0.3000*
%
%ADD36ROUNDEDRECTD36*%
%ADD37R,1.5500X0.6000*%
%ADD38R,1.8000X1.2000*%
%ADD39R,0.8000X2.7000*%
%ADD40R,1.0668X0.5588*%
%ADD41R,0.5080X0.6990*%
%ADD42R,1.1684X0.3556*%
%ADD43R,0.7620X0.8128*%
%ADD44R,0.8000X0.8000*%
%ADD45R,0.8128X0.7620*%
%ADD46R,0.8000X0.8000*%
%ADD47R,0.4500X0.8500*%
%ADD48R,3.2000X1.0000*%
%ADD49R,1.2954X1.5494*%
%ADD50R,1.4732X0.5080*%
%ADD51R,0.5080X1.4732*%
%ADD52R,0.6500X1.0600*%
%ADD53R,0.6000X1.0600*%
%ADD55R,0.7000X0.2500*%
%ADD56R,1.3208X1.7018*%
%ADD57R,0.8500X0.4500*%
%ADD104R,1.9050X1.4986*%
%ADD105C,1.0000*%
%ADD106R,5.0000X5.0000*%
%ADD107C,1.2700*%
%ADD108R,0.6400X1.3700*%
%ADD109C,0.5000*%
%ADD110C,0.4500*%
%ADD111C,0.7000*%
%ADD112C,0.3600*%
%ADD113C,0.8000*%
%ADD114C,0.3000*%
%ADD115C,0.6000*%
%ADD116C,0.3500*%
%ADD117C,1.4500*%
%ADD118O,1.9050X0.9910*%
%ADD119R,1.5240X1.5240*%
%ADD120C,1.5240*%
%ADD121R,1.5240X1.5240*%
%ADD122C,0.4500*%
G36*
X8000Y794902D02*
X149742Y794902D01*
Y730000D01*
X150130Y728049D01*
X151235Y726395D01*
X152889Y725290D01*
X154840Y724902D01*
X324840D01*
X326791Y725290D01*
X328445Y726395D01*
Y726395D01*
X329550Y728049D01*
X329938Y730000D01*
Y794902D01*
X492000Y794902D01*
X492286D01*
X492847Y794791D01*
X493375Y794572D01*
X493850Y794254D01*
X494254Y793850D01*
X494572Y793375D01*
X494791Y792847D01*
X494902Y792286D01*
X494902Y792001D01*
X494902Y792000D01*
X494902Y792000D01*
X494902Y8000D01*
X494902Y7714D01*
X494791Y7153D01*
X494572Y6625D01*
X494254Y6150D01*
X493850Y5746D01*
X493375Y5428D01*
X492846Y5209D01*
X492286Y5098D01*
X8000D01*
X8000Y5098D01*
X8000Y5098D01*
X7714D01*
X7153Y5209D01*
X6625Y5428D01*
X6150Y5746D01*
X5746Y6150D01*
X5428Y6625D01*
X5209Y7153D01*
X5098Y7714D01*
X5098Y8000D01*
X5098Y8000D01*
X5098Y8000D01*
Y236120D01*
X13680D01*
X14077Y234995D01*
X14082Y234850D01*
X8116Y228884D01*
X7232Y227561D01*
X6922Y226000D01*
X6922Y226000D01*
Y207000D01*
X6922Y207000D01*
X7232Y205439D01*
X8116Y204116D01*
X12581Y199652D01*
X12581Y199652D01*
X13800Y198837D01*
Y190207D01*
X10296Y186704D01*
X9468Y185463D01*
X9177Y184000D01*
Y168929D01*
X9468Y167466D01*
X10296Y166225D01*
X13225Y163296D01*
X14466Y162468D01*
X15929Y162177D01*
X16500D01*
Y160424D01*
X18177D01*
Y158000D01*
X18468Y156537D01*
X19296Y155296D01*
X20537Y154468D01*
X22000Y154177D01*
X23463Y154468D01*
X24704Y155296D01*
X25532Y156537D01*
X25823Y158000D01*
Y160424D01*
X27500D01*
Y171423D01*
X27500D01*
Y172500D01*
X27500D01*
Y177732D01*
X30784Y181016D01*
X30784Y181016D01*
X31230Y181684D01*
X32500Y181299D01*
X32500Y173019D01*
X31460Y172464D01*
X31460Y171945D01*
X31460Y171945D01*
Y167194D01*
X38000D01*
X44540D01*
Y171945D01*
X44540Y171945D01*
X44540Y172463D01*
X43500Y173019D01*
X43500Y173734D01*
Y183500D01*
X41844D01*
Y189115D01*
X42080D01*
Y199105D01*
X41823D01*
Y206071D01*
X41532Y207534D01*
X40704Y208775D01*
X38373Y211105D01*
X38899Y212375D01*
X42080D01*
Y213228D01*
X46562D01*
X46692Y213098D01*
X46685Y211740D01*
X46420Y211599D01*
X46420Y211251D01*
X46420D01*
Y206329D01*
X52960D01*
X59500D01*
Y211251D01*
X59500Y211251D01*
Y211599D01*
X58460Y212154D01*
X58460Y212869D01*
Y222806D01*
X47460D01*
Y221385D01*
X42080D01*
Y222365D01*
X34000D01*
X33020Y223065D01*
Y223405D01*
X29210D01*
Y217370D01*
X26670D01*
Y223405D01*
X22860D01*
Y223065D01*
X21880Y222365D01*
X15078D01*
Y224311D01*
X18689Y227922D01*
X27000D01*
X27000Y227922D01*
X28561Y228232D01*
X29884Y229116D01*
X35884Y235116D01*
X36768Y236439D01*
X37078Y238000D01*
X37078Y238000D01*
Y245098D01*
Y261382D01*
X38238Y262542D01*
X40668D01*
X41780Y262160D01*
Y257890D01*
X52070D01*
X62360D01*
Y261632D01*
D01*
Y262160D01*
X63451Y262592D01*
X67909D01*
Y261490D01*
X76291D01*
Y258950D01*
X67909D01*
Y255902D01*
X68949D01*
Y250442D01*
X74502D01*
X74850Y250210D01*
X76313Y249919D01*
X83742D01*
X85205Y250210D01*
X86446Y251038D01*
X87334Y251926D01*
X88507Y251441D01*
Y250442D01*
X103191D01*
Y256942D01*
Y263442D01*
Y269998D01*
X101078D01*
Y296266D01*
X103071D01*
X103071Y296266D01*
X104632Y296576D01*
X105955Y297460D01*
X108884Y300389D01*
X108884Y300389D01*
X109768Y301712D01*
X110078Y303273D01*
Y381872D01*
X144361D01*
X156402Y369831D01*
Y355220D01*
X156440Y355027D01*
Y350225D01*
X164520D01*
Y355027D01*
X164558Y355220D01*
Y371520D01*
X164558Y371520D01*
X164248Y373081D01*
X163364Y374404D01*
X148934Y388834D01*
X147611Y389718D01*
X146050Y390028D01*
X146050Y390028D01*
X105000D01*
X105000Y390028D01*
X105000Y390028D01*
X93172D01*
X91611Y389718D01*
X90878Y389228D01*
X85829D01*
Y387757D01*
X84656Y387270D01*
X83273Y388654D01*
X82033Y389482D01*
X80569Y389773D01*
X77015D01*
Y401573D01*
X76666Y403329D01*
X75671Y404818D01*
X34077Y446411D01*
X32589Y447406D01*
X30833Y447755D01*
X28608D01*
X28220Y448691D01*
X26758Y450597D01*
X24853Y452058D01*
X22635Y452977D01*
X20254Y453291D01*
X17873Y452977D01*
X15655Y452058D01*
X13750Y450597D01*
X12288Y448691D01*
X11369Y446473D01*
X11055Y444092D01*
X11369Y441711D01*
X12288Y439493D01*
X13750Y437588D01*
X15655Y436126D01*
X17873Y435207D01*
X20254Y434893D01*
X22635Y435207D01*
X24853Y436126D01*
X26758Y437588D01*
X27519Y438579D01*
X28933D01*
X67838Y399673D01*
Y390063D01*
X53421D01*
X52990Y391333D01*
X53526Y391744D01*
X54928Y393572D01*
X55810Y395701D01*
X56111Y397985D01*
X55810Y400269D01*
X54928Y402398D01*
X53526Y404226D01*
X51698Y405628D01*
X49569Y406510D01*
X47285Y406810D01*
X45001Y406510D01*
X44412Y406266D01*
X39989Y410689D01*
X38748Y411517D01*
X37285Y411808D01*
X30064D01*
X29509Y412639D01*
X27374Y414066D01*
X24855Y414566D01*
X15715D01*
X13196Y414066D01*
X11061Y412639D01*
X9635Y410504D01*
X9133Y407985D01*
X9635Y405466D01*
X11061Y403331D01*
X13196Y401905D01*
X15715Y401404D01*
X16461D01*
Y391978D01*
X9260D01*
Y373992D01*
X16461D01*
Y371978D01*
X9260D01*
Y353992D01*
X16461D01*
Y344566D01*
X15715D01*
X13196Y344066D01*
X11061Y342639D01*
X9635Y340504D01*
X9133Y337985D01*
X9635Y335466D01*
X11061Y333331D01*
X13196Y331904D01*
X15715Y331404D01*
X24855D01*
X27374Y331904D01*
X29442Y333287D01*
X30130Y333143D01*
X30712Y332966D01*
Y323572D01*
X27662D01*
Y311428D01*
X28853D01*
Y307652D01*
X26816D01*
Y296523D01*
X37436D01*
Y307652D01*
X36500D01*
Y310530D01*
X37397Y311428D01*
X38790Y311428D01*
X39576Y310484D01*
Y310388D01*
X44910D01*
Y317500D01*
Y324612D01*
X39629D01*
X39577Y324612D01*
X39576D01*
D01*
D01*
X38359Y324741D01*
Y343177D01*
X39945D01*
X41044Y341744D01*
X42872Y340342D01*
X45001Y339460D01*
X47285Y339160D01*
X49569Y339460D01*
X51698Y340342D01*
X53526Y341744D01*
X54928Y343572D01*
X55810Y345701D01*
X56111Y347985D01*
X55810Y350269D01*
X54928Y352398D01*
X53589Y354143D01*
X53690Y354711D01*
X53929Y355413D01*
X56306D01*
Y358715D01*
X47035D01*
X37764D01*
Y355413D01*
X40641D01*
X40880Y354711D01*
X40981Y354143D01*
X39642Y352398D01*
X39209Y351352D01*
X39096Y351312D01*
X37820Y351319D01*
X37239Y352188D01*
X31310Y358117D01*
Y371978D01*
X24108D01*
Y373992D01*
X31310D01*
Y391978D01*
X24108D01*
Y401404D01*
X24855D01*
X27374Y401905D01*
X29509Y403331D01*
X30064Y404162D01*
X35701D01*
X39004Y400858D01*
X38760Y400269D01*
X38459Y397985D01*
X38760Y395701D01*
X39642Y393572D01*
X41044Y391744D01*
X42292Y390787D01*
X41861Y389517D01*
X38804D01*
Y382453D01*
Y375953D01*
Y364557D01*
X37764D01*
Y361255D01*
X47035D01*
X56306D01*
Y364557D01*
X55266D01*
Y369453D01*
Y381907D01*
X65231D01*
Y380720D01*
X73614D01*
Y378180D01*
X65231D01*
Y375132D01*
X66272D01*
Y369672D01*
X68922D01*
Y358689D01*
X65156Y354924D01*
X64272Y353601D01*
X63962Y352040D01*
X63962Y352040D01*
Y320397D01*
X62476D01*
Y309777D01*
X72113D01*
Y304903D01*
X62476D01*
Y294283D01*
X63962D01*
Y288729D01*
X50744Y275512D01*
X49860Y274189D01*
X49549Y272628D01*
X49549Y272628D01*
Y271120D01*
X42820D01*
Y270698D01*
X36549D01*
X36549Y270698D01*
X34988Y270388D01*
X33665Y269504D01*
X33665Y269504D01*
X30116Y265955D01*
X29232Y264632D01*
X28922Y263071D01*
X28922Y263071D01*
Y239689D01*
X25311Y236078D01*
X25073D01*
X23820Y236120D01*
X23820Y237348D01*
Y251120D01*
X5098D01*
Y272120D01*
X23820D01*
Y287120D01*
X5098D01*
X5098Y792000D01*
X5098Y792000D01*
X5098Y792001D01*
X5098Y792286D01*
X5209Y792847D01*
X5428Y793375D01*
X5746Y793850D01*
X6150Y794254D01*
X6625Y794572D01*
X7153Y794791D01*
X7714Y794902D01*
X7999Y794902D01*
X8000Y794902D01*
X8000Y794902D01*
D02*
G37*
G36*
X101922Y304963D02*
X101382Y304423D01*
X96000D01*
Y305500D01*
X80000D01*
X79760Y306670D01*
Y306821D01*
Y311460D01*
X86730D01*
Y317500D01*
Y323540D01*
X79760D01*
Y337120D01*
Y346353D01*
X85909Y352502D01*
X86738Y353742D01*
X87029Y355205D01*
Y369672D01*
X100513D01*
Y381872D01*
X101922D01*
Y304963D01*
D02*
G37*
G36*
X82177Y281690D02*
Y269998D01*
X78585D01*
X77852Y270488D01*
X76291Y270798D01*
X76039Y270748D01*
X61320D01*
Y271120D01*
X59547D01*
X59061Y272293D01*
X70924Y284156D01*
X71808Y285479D01*
X72118Y287040D01*
X72118Y287040D01*
Y290016D01*
X72755Y290369D01*
X73388Y290479D01*
X82177Y281690D01*
D02*
G37*
%LPC*%
G36*
X353840Y790596D02*
X351110D01*
Y785270D01*
X360269D01*
X360212Y785707D01*
X359553Y787298D01*
X358504Y788664D01*
X357138Y789713D01*
X355547Y790372D01*
X353840Y790596D01*
D02*
G37*
G36*
X348570D02*
X345840D01*
X344133Y790372D01*
X342542Y789713D01*
X341176Y788664D01*
X340127Y787298D01*
X339468Y785707D01*
X339411Y785270D01*
X348570D01*
Y790596D01*
D02*
G37*
G36*
X133840D02*
X131110D01*
Y785270D01*
X140269D01*
X140212Y785707D01*
X139553Y787298D01*
X138504Y788664D01*
X137138Y789713D01*
X135547Y790372D01*
X133840Y790596D01*
D02*
G37*
G36*
X128570D02*
X125840D01*
X124133Y790372D01*
X122542Y789713D01*
X121176Y788664D01*
X120127Y787298D01*
X119468Y785707D01*
X119411Y785270D01*
X128570D01*
Y790596D01*
D02*
G37*
G36*
X71000Y782000D02*
X53000D01*
Y780328D01*
X45250D01*
X45250Y780328D01*
X43689Y780018D01*
X42366Y779134D01*
X34466Y771233D01*
X33582Y769910D01*
X33271Y768350D01*
X33271Y768350D01*
Y734470D01*
X31786D01*
Y723850D01*
X42914D01*
Y734470D01*
X41428D01*
Y766660D01*
X46939Y772172D01*
X53000D01*
Y770500D01*
X71000D01*
Y771922D01*
X76569D01*
X78129Y772232D01*
X79452Y773116D01*
X80337Y774439D01*
X80647Y776000D01*
X80337Y777561D01*
X79452Y778884D01*
X78129Y779768D01*
X76569Y780078D01*
X71000D01*
Y782000D01*
D02*
G37*
G36*
X360269Y782730D02*
X339411D01*
X339468Y782293D01*
X340127Y780702D01*
X341176Y779336D01*
X341923Y778762D01*
Y777238D01*
X341176Y776664D01*
X340127Y775298D01*
X339468Y773707D01*
X339411Y773270D01*
X360269D01*
X360212Y773707D01*
X359553Y775298D01*
X358504Y776664D01*
X357757Y777238D01*
Y778762D01*
X358504Y779336D01*
X359553Y780702D01*
X360212Y782293D01*
X360269Y782730D01*
D02*
G37*
G36*
X140269D02*
X119411D01*
X119468Y782293D01*
X120127Y780702D01*
X121176Y779336D01*
X121924Y778762D01*
Y777238D01*
X121176Y776664D01*
X120127Y775298D01*
X119468Y773707D01*
X119411Y773270D01*
X140269D01*
X140212Y773707D01*
X139553Y775298D01*
X138504Y776664D01*
X137757Y777238D01*
Y778762D01*
X138504Y779336D01*
X139553Y780702D01*
X140212Y782293D01*
X140269Y782730D01*
D02*
G37*
G36*
X20000Y790086D02*
X17390Y789743D01*
X14957Y788735D01*
X12868Y787132D01*
X11265Y785043D01*
X10257Y782610D01*
X9914Y780000D01*
X10257Y777390D01*
X11265Y774957D01*
X12868Y772868D01*
X14957Y771265D01*
X17390Y770257D01*
X20000Y769914D01*
X22610Y770257D01*
X25043Y771265D01*
X27132Y772868D01*
X28735Y774957D01*
X29743Y777390D01*
X30086Y780000D01*
X29743Y782610D01*
X28735Y785043D01*
X27132Y787132D01*
X25043Y788735D01*
X22610Y789743D01*
X20000Y790086D01*
D02*
G37*
G36*
X140269Y770730D02*
X119411D01*
X119468Y770293D01*
X120127Y768702D01*
X121176Y767336D01*
X121924Y766762D01*
Y765238D01*
X121176Y764664D01*
X120127Y763298D01*
X119468Y761707D01*
X119411Y761270D01*
X140269D01*
X140212Y761707D01*
X139553Y763298D01*
X138504Y764664D01*
X137757Y765238D01*
Y766762D01*
X138504Y767336D01*
X139553Y768702D01*
X140212Y770293D01*
X140269Y770730D01*
D02*
G37*
G36*
Y758730D02*
X131110D01*
Y753404D01*
X133840D01*
X135547Y753628D01*
X137138Y754287D01*
X138504Y755336D01*
X139553Y756702D01*
X140212Y758293D01*
X140269Y758730D01*
D02*
G37*
G36*
X128570D02*
X119411D01*
X119468Y758293D01*
X120127Y756702D01*
X121176Y755336D01*
X122542Y754287D01*
X124133Y753628D01*
X125840Y753404D01*
X128570D01*
Y758730D01*
D02*
G37*
G36*
X459097Y760881D02*
Y752070D01*
X467907D01*
X467725Y753452D01*
X466702Y755924D01*
X465073Y758046D01*
X462951Y759675D01*
X460479Y760698D01*
X459097Y760881D01*
D02*
G37*
G36*
X456557Y760881D02*
X455175Y760698D01*
X452703Y759675D01*
X450581Y758046D01*
X448952Y755924D01*
X447929Y753452D01*
X447747Y752070D01*
X456557D01*
Y760881D01*
D02*
G37*
G36*
X440000Y792918D02*
X437951Y792648D01*
X436041Y791857D01*
X434401Y790599D01*
X433143Y788959D01*
X433087Y788823D01*
X395000D01*
X393537Y788532D01*
X392296Y787704D01*
X387296Y782704D01*
X386468Y781463D01*
X386177Y780000D01*
Y767584D01*
X370416Y751824D01*
X357900D01*
X357805Y751965D01*
X355986Y753181D01*
X355123Y753353D01*
Y754648D01*
X355986Y754819D01*
X357805Y756035D01*
X357900Y756177D01*
X368000D01*
X369463Y756468D01*
X370704Y757296D01*
X377704Y764296D01*
X378532Y765537D01*
X378823Y767000D01*
Y778087D01*
X378959Y778143D01*
X380599Y779401D01*
X381857Y781041D01*
X382648Y782951D01*
X382918Y785000D01*
X382648Y787049D01*
X381857Y788959D01*
X380599Y790599D01*
X378959Y791857D01*
X377049Y792648D01*
X375000Y792918D01*
X372951Y792648D01*
X371041Y791857D01*
X369401Y790599D01*
X368143Y788959D01*
X367352Y787049D01*
X367082Y785000D01*
X367352Y782951D01*
X368143Y781041D01*
X369401Y779401D01*
X371041Y778143D01*
X371177Y778087D01*
Y768584D01*
X366416Y763823D01*
X357900D01*
X357805Y763965D01*
X356675Y764721D01*
X356816Y766154D01*
X357138Y766287D01*
X358504Y767336D01*
X359553Y768702D01*
X360212Y770293D01*
X360269Y770730D01*
X339411D01*
X339468Y770293D01*
X340127Y768702D01*
X341176Y767336D01*
X342542Y766287D01*
X342864Y766154D01*
X343005Y764721D01*
X341875Y763965D01*
X340659Y762146D01*
X340232Y760000D01*
X340659Y757854D01*
X341875Y756035D01*
X343694Y754819D01*
X344557Y754648D01*
Y753353D01*
X343694Y753181D01*
X341875Y751965D01*
X340659Y750146D01*
X340232Y748000D01*
X340659Y745854D01*
X341875Y744035D01*
X343694Y742819D01*
X344557Y742647D01*
Y741353D01*
X343694Y741181D01*
X341875Y739965D01*
X340659Y738146D01*
X340232Y736000D01*
X340659Y733854D01*
X341875Y732035D01*
X343694Y730819D01*
X344557Y730647D01*
Y729353D01*
X343694Y729181D01*
X341875Y727965D01*
X340659Y726146D01*
X340232Y724000D01*
X340659Y721854D01*
X341875Y720035D01*
X343694Y718819D01*
X344557Y718647D01*
Y717353D01*
X343694Y717181D01*
X341875Y715965D01*
X340659Y714146D01*
X340232Y712000D01*
X340659Y709854D01*
X341875Y708035D01*
X343694Y706819D01*
X344557Y706647D01*
Y705353D01*
X343694Y705181D01*
X341875Y703965D01*
X340659Y702146D01*
X340232Y700000D01*
X340659Y697854D01*
X341875Y696035D01*
X343694Y694819D01*
X344557Y694647D01*
Y693353D01*
X343694Y693181D01*
X341875Y691965D01*
X340659Y690146D01*
X340232Y688000D01*
X340659Y685854D01*
X341875Y684035D01*
X343694Y682819D01*
X344557Y682647D01*
Y681353D01*
X343694Y681181D01*
X341875Y679965D01*
X340659Y678146D01*
X340232Y676000D01*
X340659Y673854D01*
X341875Y672035D01*
X343694Y670819D01*
X344557Y670648D01*
Y669353D01*
X343694Y669181D01*
X341875Y667965D01*
X340659Y666146D01*
X340232Y664000D01*
X340659Y661854D01*
X341875Y660035D01*
X343694Y658819D01*
X344557Y658647D01*
Y657353D01*
X343694Y657181D01*
X341875Y655965D01*
X340659Y654146D01*
X340232Y652000D01*
X340659Y649854D01*
X341875Y648035D01*
X343694Y646819D01*
X344557Y646647D01*
Y645353D01*
X343694Y645181D01*
X341875Y643965D01*
X340659Y642146D01*
X340232Y640000D01*
X340659Y637854D01*
X341875Y636035D01*
X343694Y634819D01*
X344557Y634647D01*
Y633353D01*
X343694Y633181D01*
X341875Y631965D01*
X340659Y630146D01*
X340232Y628000D01*
X340659Y625854D01*
X341875Y624035D01*
X343694Y622819D01*
X344557Y622647D01*
Y621353D01*
X343694Y621181D01*
X341875Y619965D01*
X340659Y618146D01*
X340232Y616000D01*
X340659Y613854D01*
X341875Y612035D01*
X343694Y610819D01*
X344557Y610647D01*
Y609353D01*
X343694Y609181D01*
X341875Y607965D01*
X340659Y606146D01*
X340232Y604000D01*
X340659Y601854D01*
X341875Y600035D01*
X343694Y598819D01*
X344557Y598647D01*
Y597353D01*
X343694Y597181D01*
X341875Y595965D01*
X340659Y594146D01*
X340232Y592000D01*
X340659Y589854D01*
X341875Y588035D01*
X343694Y586819D01*
X344557Y586647D01*
Y585353D01*
X343694Y585181D01*
X341875Y583965D01*
X340659Y582146D01*
X340232Y580000D01*
X340659Y577854D01*
X341875Y576035D01*
X343694Y574819D01*
X344557Y574647D01*
Y573353D01*
X343694Y573181D01*
X341875Y571965D01*
X340659Y570146D01*
X340232Y568000D01*
X340659Y565854D01*
X341875Y564035D01*
X343694Y562819D01*
X344557Y562647D01*
Y561353D01*
X343694Y561181D01*
X341875Y559965D01*
X340659Y558146D01*
X340232Y556000D01*
X340659Y553854D01*
X341875Y552035D01*
X343694Y550819D01*
X344557Y550647D01*
Y549353D01*
X343694Y549181D01*
X341875Y547965D01*
X340659Y546146D01*
X340232Y544000D01*
X340659Y541854D01*
X341875Y540035D01*
X343694Y538819D01*
X344557Y538647D01*
Y537353D01*
X343694Y537181D01*
X341875Y535965D01*
X340659Y534146D01*
X340232Y532000D01*
X340659Y529854D01*
X341875Y528035D01*
X343005Y527279D01*
X342864Y525846D01*
X342542Y525713D01*
X341176Y524664D01*
X340127Y523298D01*
X339468Y521707D01*
X339411Y521270D01*
X360269D01*
X360212Y521707D01*
X360046Y522106D01*
X360895Y523376D01*
X388341Y523376D01*
X388639Y523500D01*
X388962D01*
X389190Y523728D01*
X389489Y523852D01*
X389612Y524150D01*
X389841Y524379D01*
X390327Y525552D01*
Y525875D01*
X390450Y526173D01*
X390327Y526472D01*
Y526795D01*
X390098Y527023D01*
X389975Y527321D01*
X366390Y550907D01*
X366694Y552038D01*
X366779Y552177D01*
X369463D01*
X418613Y503026D01*
X419853Y502198D01*
X421316Y501907D01*
X430353D01*
X430436Y500637D01*
X430046Y500585D01*
X427828Y499666D01*
X425923Y498204D01*
X424461Y496299D01*
X423542Y494081D01*
X423228Y491700D01*
X423334Y490896D01*
X422131Y490303D01*
X399954Y512481D01*
X398713Y513309D01*
X397250Y513600D01*
X395787Y513309D01*
X394546Y512481D01*
X393718Y511240D01*
X393427Y509777D01*
X393718Y508314D01*
X394400Y507293D01*
X393484Y506377D01*
X392463Y507059D01*
X391000Y507350D01*
X389537Y507059D01*
X388296Y506231D01*
X387468Y504990D01*
X387177Y503527D01*
X387230Y503259D01*
X386962Y502943D01*
X386072Y502041D01*
X380220D01*
X380000Y502085D01*
X379492D01*
X379272Y502041D01*
X373928D01*
Y501961D01*
X358799D01*
X358368Y503231D01*
X358504Y503336D01*
X359553Y504702D01*
X360212Y506293D01*
X360269Y506730D01*
X339411D01*
X339468Y506293D01*
X340127Y504702D01*
X341176Y503336D01*
X342542Y502287D01*
X342864Y502154D01*
X343005Y500721D01*
X341875Y499965D01*
X340659Y498146D01*
X340232Y496000D01*
X340659Y493854D01*
X341875Y492035D01*
X343005Y491279D01*
X342864Y489846D01*
X342542Y489713D01*
X341176Y488664D01*
X340127Y487298D01*
X339468Y485707D01*
X339411Y485270D01*
X360269D01*
X360212Y485707D01*
X359553Y487298D01*
X358504Y488664D01*
X357448Y489475D01*
X357819Y490745D01*
X371874D01*
X372888Y490127D01*
Y484793D01*
X380000D01*
X387112D01*
Y486865D01*
X388285Y487351D01*
X390392Y485244D01*
Y452078D01*
X334500D01*
Y453500D01*
X325073D01*
Y460638D01*
X325986Y460819D01*
X327805Y462035D01*
X328561Y463165D01*
X329994Y463024D01*
X330127Y462702D01*
X331176Y461336D01*
X332542Y460287D01*
X334133Y459628D01*
X334570Y459571D01*
Y470000D01*
Y480429D01*
X334133Y480372D01*
X332542Y479713D01*
X331176Y478664D01*
X330127Y477298D01*
X329994Y476976D01*
X328561Y476835D01*
X327805Y477965D01*
X325986Y479181D01*
X323840Y479608D01*
X321694Y479181D01*
X319875Y477965D01*
X318659Y476146D01*
X318487Y475283D01*
X317193D01*
X317021Y476146D01*
X315805Y477965D01*
X313986Y479181D01*
X311840Y479608D01*
X309694Y479181D01*
X307875Y477965D01*
X306659Y476146D01*
X306487Y475283D01*
X305193D01*
X305021Y476146D01*
X303805Y477965D01*
X301986Y479181D01*
X299840Y479608D01*
X297694Y479181D01*
X295875Y477965D01*
X294659Y476146D01*
X294487Y475283D01*
X293193D01*
X293021Y476146D01*
X291805Y477965D01*
X289986Y479181D01*
X287840Y479608D01*
X285694Y479181D01*
X283875Y477965D01*
X282659Y476146D01*
X282487Y475283D01*
X281193D01*
X281021Y476146D01*
X279805Y477965D01*
X277986Y479181D01*
X275840Y479608D01*
X273694Y479181D01*
X271875Y477965D01*
X270659Y476146D01*
X270487Y475283D01*
X269193D01*
X269021Y476146D01*
X267805Y477965D01*
X265986Y479181D01*
X263840Y479608D01*
X261694Y479181D01*
X259875Y477965D01*
X258659Y476146D01*
X258487Y475283D01*
X257193D01*
X257021Y476146D01*
X255805Y477965D01*
X253986Y479181D01*
X251840Y479608D01*
X249694Y479181D01*
X247875Y477965D01*
X246659Y476146D01*
X246487Y475283D01*
X245193D01*
X245021Y476146D01*
X243805Y477965D01*
X241986Y479181D01*
X239840Y479608D01*
X237694Y479181D01*
X235875Y477965D01*
X234659Y476146D01*
X234487Y475283D01*
X233193D01*
X233021Y476146D01*
X231805Y477965D01*
X229986Y479181D01*
X227840Y479608D01*
X225694Y479181D01*
X223875Y477965D01*
X222659Y476146D01*
X222487Y475283D01*
X221193D01*
X221021Y476146D01*
X219805Y477965D01*
X217986Y479181D01*
X215840Y479608D01*
X213694Y479181D01*
X211875Y477965D01*
X210659Y476146D01*
X210487Y475283D01*
X209193D01*
X209021Y476146D01*
X207805Y477965D01*
X205986Y479181D01*
X203840Y479608D01*
X201694Y479181D01*
X199875Y477965D01*
X198659Y476146D01*
X198487Y475283D01*
X197193D01*
X197021Y476146D01*
X195805Y477965D01*
X193986Y479181D01*
X191840Y479608D01*
X189694Y479181D01*
X187875Y477965D01*
X186659Y476146D01*
X186487Y475283D01*
X185193D01*
X185021Y476146D01*
X183805Y477965D01*
X181986Y479181D01*
X179840Y479608D01*
X177694Y479181D01*
X175875Y477965D01*
X174659Y476146D01*
X174487Y475283D01*
X173193D01*
X173021Y476146D01*
X171805Y477965D01*
X169986Y479181D01*
X167840Y479608D01*
X165694Y479181D01*
X163875Y477965D01*
X162659Y476146D01*
X162487Y475283D01*
X161193D01*
X161021Y476146D01*
X159805Y477965D01*
X157986Y479181D01*
X155840Y479608D01*
X153694Y479181D01*
X151875Y477965D01*
X150659Y476146D01*
X150487Y475283D01*
X149193D01*
X149021Y476146D01*
X147805Y477965D01*
X145986Y479181D01*
X143840Y479608D01*
X141694Y479181D01*
X139875Y477965D01*
X138659Y476146D01*
X138232Y474000D01*
Y466000D01*
X138659Y463854D01*
X139875Y462035D01*
X140902Y461348D01*
X140517Y460078D01*
X79089D01*
X74884Y464284D01*
X73561Y465168D01*
X72000Y465478D01*
X70440Y465168D01*
X69116Y464284D01*
X68232Y462961D01*
X67922Y461400D01*
X68232Y459839D01*
X69116Y458516D01*
X74516Y453116D01*
X75839Y452232D01*
X77400Y451922D01*
X77400Y451922D01*
X237000D01*
X237000Y451922D01*
X238561Y452232D01*
X239884Y453116D01*
X242884Y456116D01*
X242884Y456116D01*
X243768Y457439D01*
X244078Y459000D01*
X244078Y459000D01*
Y462443D01*
X245021Y463854D01*
X245193Y464717D01*
X246487D01*
X246659Y463854D01*
X247875Y462035D01*
X249694Y460819D01*
X251840Y460392D01*
X253986Y460819D01*
X255805Y462035D01*
X257021Y463854D01*
X257193Y464717D01*
X258487D01*
X258659Y463854D01*
X259875Y462035D01*
X261694Y460819D01*
X263840Y460392D01*
X265986Y460819D01*
X267805Y462035D01*
X269021Y463854D01*
X269122Y464364D01*
X270392Y464239D01*
Y461000D01*
X270819Y458854D01*
X272035Y457035D01*
X275035Y454035D01*
X276854Y452819D01*
X279000Y452392D01*
X285000D01*
X287146Y452819D01*
X288965Y454035D01*
X291965Y457035D01*
X293181Y458854D01*
X293608Y461000D01*
Y463142D01*
X294878Y463527D01*
X295762Y462204D01*
Y432120D01*
X287880D01*
Y413880D01*
X306120D01*
Y432120D01*
X303918D01*
Y462204D01*
X305021Y463854D01*
X305193Y464717D01*
X306487D01*
X306659Y463854D01*
X307875Y462035D01*
X308336Y461727D01*
Y453500D01*
X307500D01*
Y442500D01*
X308922D01*
Y435000D01*
X309232Y433439D01*
X310116Y432116D01*
X311439Y431232D01*
X313000Y430922D01*
X314561Y431232D01*
X315884Y432116D01*
X316768Y433439D01*
X317078Y435000D01*
Y439654D01*
X318348Y440039D01*
X318546Y439743D01*
X325231Y433059D01*
X324956Y432343D01*
X324582Y431911D01*
X322400Y432199D01*
X320019Y431885D01*
X317801Y430966D01*
X315896Y429504D01*
X314434Y427599D01*
X313515Y425381D01*
X313201Y423000D01*
X313515Y420619D01*
X314434Y418401D01*
X315896Y416496D01*
X317801Y415034D01*
X318322Y414818D01*
Y407600D01*
X318322Y407600D01*
X318632Y406039D01*
X319516Y404716D01*
X327116Y397116D01*
X328439Y396232D01*
X330000Y395922D01*
X330000Y395922D01*
X333943D01*
Y394436D01*
X344563D01*
Y405564D01*
X333943D01*
Y404078D01*
X331689D01*
X326478Y409289D01*
Y414818D01*
X326999Y415034D01*
X328904Y416496D01*
X330366Y418401D01*
X331285Y420619D01*
X331599Y423000D01*
X331311Y425182D01*
X331743Y425556D01*
X332459Y425831D01*
X350415Y407874D01*
X350275Y407162D01*
X349942Y406604D01*
X348397D01*
Y401270D01*
X354747D01*
X361097D01*
Y406577D01*
X369712D01*
X370034Y405801D01*
X371496Y403895D01*
X373401Y402434D01*
X375619Y401515D01*
X378000Y401201D01*
X380381Y401515D01*
X382599Y402434D01*
X384505Y403895D01*
X385966Y405801D01*
X386885Y408019D01*
X387199Y410400D01*
X386885Y412781D01*
X385966Y414999D01*
X384505Y416904D01*
X382599Y418366D01*
X380381Y419285D01*
X378000Y419599D01*
X375619Y419285D01*
X373401Y418366D01*
X371496Y416904D01*
X370034Y414999D01*
X369712Y414223D01*
X354880D01*
X327777Y441327D01*
X328263Y442500D01*
X334500D01*
Y443922D01*
X390392D01*
Y327000D01*
X390819Y324854D01*
X392035Y323035D01*
X414142Y300928D01*
X413732Y300394D01*
X412813Y298176D01*
X412500Y295795D01*
X412813Y293414D01*
X413732Y291195D01*
X415194Y289290D01*
X417099Y287828D01*
X419318Y286910D01*
X421699Y286596D01*
X424080Y286910D01*
X426298Y287828D01*
X428203Y289290D01*
X429665Y291195D01*
X430584Y293414D01*
X430897Y295795D01*
X430584Y298176D01*
X429665Y300394D01*
X428203Y302299D01*
X426971Y303245D01*
X426783Y304804D01*
X426824Y304894D01*
X436073Y314143D01*
X439099D01*
X439641Y314251D01*
X444599D01*
Y319209D01*
X444706Y319751D01*
X444599Y320292D01*
Y325251D01*
X442922D01*
Y327501D01*
X442631Y328964D01*
X441802Y330204D01*
X436473Y335534D01*
X435232Y336363D01*
X433769Y336654D01*
X427838D01*
X427782Y336790D01*
X426523Y338429D01*
X424883Y339688D01*
X422974Y340479D01*
X420925Y340748D01*
X418875Y340479D01*
X416966Y339688D01*
X415326Y338429D01*
X414068Y336790D01*
X413277Y334880D01*
X413007Y332831D01*
X413277Y330781D01*
X414068Y328872D01*
X415326Y327232D01*
X416966Y325974D01*
X418875Y325183D01*
X420925Y324913D01*
X422974Y325183D01*
X424883Y325974D01*
X426523Y327232D01*
X427782Y328872D01*
X427838Y329007D01*
X432185D01*
X434564Y326628D01*
X434038Y325359D01*
X433751D01*
X431605Y324932D01*
X429785Y323716D01*
X418500Y312430D01*
X401608Y329323D01*
Y385614D01*
X402878Y386140D01*
X413261Y375756D01*
X414502Y374928D01*
X415965Y374637D01*
X417600D01*
Y373785D01*
X446000D01*
Y379405D01*
X447270Y379530D01*
X447468Y378537D01*
X448296Y377296D01*
X480045Y345547D01*
Y337640D01*
X478775Y337209D01*
X477839Y338429D01*
X476199Y339688D01*
X474289Y340479D01*
X472240Y340748D01*
X470191Y340479D01*
X468281Y339688D01*
X466641Y338429D01*
X465383Y336790D01*
X465327Y336654D01*
X460655D01*
X459192Y336363D01*
X457951Y335534D01*
X452395Y329978D01*
X451566Y328738D01*
X451275Y327275D01*
Y325251D01*
X449599D01*
Y320292D01*
X449491Y319751D01*
X449599Y319209D01*
Y314251D01*
X454557D01*
X455099Y314143D01*
X464980D01*
X466891Y312232D01*
Y304915D01*
X463379D01*
Y286675D01*
X480045D01*
Y280238D01*
X457439Y280238D01*
X456291Y279763D01*
X455815Y278615D01*
Y260863D01*
X454545Y260432D01*
X453603Y261659D01*
X451698Y263121D01*
X451294Y263288D01*
Y266314D01*
X450867Y268460D01*
X449651Y270279D01*
X439965Y279965D01*
X438146Y281181D01*
X436000Y281608D01*
X397323D01*
X388608Y290323D01*
Y315744D01*
X388181Y317890D01*
X386965Y319709D01*
X370709Y335965D01*
X368890Y337181D01*
X366744Y337608D01*
X347579D01*
X333608Y351579D01*
Y366789D01*
X333181Y368935D01*
X331965Y370754D01*
X327279Y375440D01*
X325460Y376656D01*
X323314Y377083D01*
X301720D01*
X299896Y376720D01*
X293720D01*
Y376573D01*
X283981D01*
X282985Y376375D01*
X281710D01*
X281218Y376277D01*
X275836D01*
Y376192D01*
X269946D01*
Y377039D01*
X268718D01*
Y397100D01*
X268330Y399051D01*
X267225Y400705D01*
X260465Y407465D01*
X258811Y408570D01*
X256860Y408958D01*
X250500D01*
Y419000D01*
X239500D01*
Y389000D01*
X250500D01*
Y398762D01*
X254748D01*
X258522Y394988D01*
Y377039D01*
X257294D01*
Y365403D01*
X269946D01*
Y365996D01*
X275836D01*
Y365657D01*
X286964D01*
Y366377D01*
X299450D01*
X299574Y366294D01*
X301720Y365867D01*
X320991D01*
X322392Y364466D01*
Y349257D01*
X322819Y347111D01*
X324035Y345291D01*
X341291Y328035D01*
X343111Y326819D01*
X345257Y326392D01*
X364421D01*
X377392Y313421D01*
Y288000D01*
X377819Y285854D01*
X379035Y284035D01*
X391035Y272035D01*
X392854Y270819D01*
X395000Y270392D01*
X433677D01*
X440078Y263991D01*
Y261687D01*
X440106Y261549D01*
Y261022D01*
X439132Y259754D01*
X438214Y257535D01*
X437900Y255155D01*
X438214Y252774D01*
X439132Y250555D01*
X440594Y248650D01*
X442499Y247188D01*
X444718Y246269D01*
X447099Y245956D01*
X449479Y246269D01*
X451698Y247188D01*
X453603Y248650D01*
X454545Y249878D01*
X455815Y249447D01*
Y238615D01*
X456291Y237467D01*
X457439Y236991D01*
X463561D01*
X464188Y235721D01*
X463807Y235222D01*
X460599D01*
Y235255D01*
X449599D01*
Y224255D01*
X451275D01*
Y218079D01*
X451566Y216616D01*
X452395Y215376D01*
X453860Y213911D01*
X455100Y213082D01*
X456563Y212791D01*
X465562D01*
X466659Y211361D01*
X468299Y210103D01*
X470208Y209312D01*
X471518Y209139D01*
X471973Y207799D01*
X471088Y206913D01*
X372531D01*
Y209162D01*
X371552D01*
Y212590D01*
X373990D01*
Y223590D01*
X362990D01*
Y212590D01*
X363905D01*
Y210060D01*
X363007Y209162D01*
X361403Y209162D01*
X360617Y210106D01*
Y210202D01*
X355283D01*
Y203090D01*
Y195978D01*
X360617D01*
Y196073D01*
X361403Y197018D01*
X361874Y197018D01*
X363144Y196985D01*
Y191018D01*
X363435Y189555D01*
X364263Y188314D01*
X375177Y177401D01*
Y173500D01*
X361500D01*
Y170823D01*
X336500D01*
Y173500D01*
X301500D01*
Y160500D01*
X336500D01*
Y163177D01*
X361500D01*
Y160500D01*
X396500D01*
Y173500D01*
X382823D01*
Y178985D01*
X382532Y180448D01*
X381704Y181688D01*
X370790Y192602D01*
Y197018D01*
X372531D01*
Y199266D01*
X472671D01*
X474134Y199557D01*
X475375Y200386D01*
X486572Y211584D01*
X487401Y212824D01*
X487692Y214287D01*
Y347131D01*
X487401Y348594D01*
X486572Y349835D01*
X454823Y381584D01*
Y426676D01*
X462050Y433903D01*
X463320Y433377D01*
X463320Y432896D01*
Y424585D01*
X491720D01*
Y433935D01*
X464421D01*
X463878Y433935D01*
X463352Y435205D01*
X480954Y452807D01*
X481782Y454047D01*
X482073Y455510D01*
Y704977D01*
X481782Y706440D01*
X480954Y707681D01*
X466391Y722243D01*
X466712Y723019D01*
X467026Y725400D01*
X466712Y727781D01*
X465793Y729999D01*
X464332Y731905D01*
X462426Y733366D01*
X460208Y734285D01*
X457827Y734599D01*
X455446Y734285D01*
X453228Y733366D01*
X451323Y731905D01*
X449861Y729999D01*
X448942Y727781D01*
X448890Y727391D01*
X447620Y727474D01*
Y730110D01*
X447329Y731573D01*
X446501Y732813D01*
X439840Y739474D01*
X439199Y739902D01*
X439584Y741172D01*
X441293D01*
Y759412D01*
X423053D01*
Y741863D01*
X423053Y741172D01*
X422023Y740593D01*
X356865D01*
X355986Y741181D01*
X355123Y741353D01*
Y742647D01*
X355986Y742819D01*
X357805Y744035D01*
X357900Y744177D01*
X372000D01*
X373463Y744468D01*
X374704Y745296D01*
X392704Y763296D01*
X393532Y764537D01*
X393823Y766000D01*
Y778416D01*
X396584Y781177D01*
X433087D01*
X433143Y781041D01*
X434401Y779401D01*
X436041Y778143D01*
X437951Y777352D01*
X440000Y777082D01*
X442049Y777352D01*
X443959Y778143D01*
X445599Y779401D01*
X446857Y781041D01*
X447648Y782951D01*
X447918Y785000D01*
X447648Y787049D01*
X446857Y788959D01*
X445599Y790599D01*
X443959Y791857D01*
X442049Y792648D01*
X440000Y792918D01*
D02*
G37*
G36*
X456557Y749530D02*
X447747D01*
X447929Y748148D01*
X448952Y745676D01*
X450581Y743554D01*
X452703Y741925D01*
X455175Y740901D01*
X456557Y740720D01*
Y749530D01*
D02*
G37*
G36*
X467907D02*
X459097D01*
Y740720D01*
X460479Y740901D01*
X462951Y741925D01*
X465073Y743554D01*
X466702Y745676D01*
X467725Y748148D01*
X467907Y749530D01*
D02*
G37*
G36*
X96752Y734798D02*
X90910D01*
Y729464D01*
X96752D01*
Y734798D01*
D02*
G37*
G36*
X88370D02*
X82528D01*
Y729464D01*
X88370D01*
Y734798D01*
D02*
G37*
G36*
X71000Y767500D02*
X53000D01*
Y761394D01*
X52922Y761000D01*
X52922Y761000D01*
Y750689D01*
X51872Y749640D01*
X50988Y748317D01*
X50678Y746756D01*
X50678Y746756D01*
Y734774D01*
X49192D01*
Y724154D01*
X60320D01*
Y734774D01*
X58834D01*
Y745067D01*
X59884Y746116D01*
X59884Y746116D01*
X60768Y747439D01*
X60953Y748368D01*
X62248Y748368D01*
X62482Y747189D01*
X63366Y745866D01*
X68118Y741115D01*
Y734774D01*
X66632D01*
Y724154D01*
X77760D01*
Y734774D01*
X76274D01*
Y742804D01*
X76274Y742804D01*
X75964Y744365D01*
X75080Y745688D01*
X70328Y750439D01*
Y756000D01*
X71000D01*
Y767500D01*
D02*
G37*
G36*
X133840Y718596D02*
X131110D01*
Y713270D01*
X140269D01*
X140212Y713707D01*
X139553Y715298D01*
X138504Y716664D01*
X137138Y717713D01*
X135547Y718372D01*
X133840Y718596D01*
D02*
G37*
G36*
X128570D02*
X125840D01*
X124133Y718372D01*
X122542Y717713D01*
X121176Y716664D01*
X120127Y715298D01*
X119468Y713707D01*
X119411Y713270D01*
X128570D01*
Y718596D01*
D02*
G37*
G36*
X96752Y726924D02*
X89640D01*
X82528D01*
Y721590D01*
X82624D01*
X83568Y720804D01*
Y711202D01*
X82753Y710136D01*
X82525Y709908D01*
X82227Y709784D01*
X81476Y709495D01*
X80708Y709507D01*
X78333Y711881D01*
Y711910D01*
X78042Y713373D01*
X77760Y713796D01*
Y719280D01*
X66632D01*
Y713435D01*
X65459Y712949D01*
X63044Y715364D01*
X61803Y716192D01*
X60340Y716484D01*
X60320D01*
Y719280D01*
X49192D01*
Y709280D01*
X47922Y708755D01*
X42914Y713763D01*
Y718976D01*
X31786D01*
Y708356D01*
X37506D01*
X44566Y701296D01*
X45806Y700468D01*
X47269Y700177D01*
X57416D01*
X70423Y687170D01*
X69936Y685997D01*
X57523D01*
Y667503D01*
X73477D01*
Y670177D01*
X76416D01*
X98871Y647722D01*
Y636862D01*
X99025D01*
Y633483D01*
X98421Y632879D01*
X96999Y632927D01*
X96498Y633529D01*
Y633624D01*
X91164D01*
Y626512D01*
Y619400D01*
X96498D01*
Y619496D01*
X97284Y620440D01*
X97754Y620440D01*
X99025Y620408D01*
Y610432D01*
X87416Y598823D01*
X73477D01*
Y606497D01*
X57523D01*
Y588003D01*
X73477D01*
Y591177D01*
X89000D01*
X90463Y591468D01*
X91704Y592296D01*
X105552Y606144D01*
X106380Y607385D01*
X106671Y608848D01*
Y620440D01*
X108412D01*
Y623602D01*
X122522D01*
X123694Y622819D01*
X124557Y622647D01*
Y621353D01*
X123694Y621181D01*
X121875Y619965D01*
X120659Y618146D01*
X120232Y616000D01*
X120659Y613854D01*
X121875Y612035D01*
X123694Y610819D01*
X124557Y610647D01*
Y609353D01*
X123694Y609181D01*
X121875Y607965D01*
X120659Y606146D01*
X120232Y604000D01*
X120659Y601854D01*
X121875Y600035D01*
X123694Y598819D01*
X124557Y598647D01*
Y597353D01*
X123694Y597181D01*
X121875Y595965D01*
X120659Y594146D01*
X120232Y592000D01*
X120659Y589854D01*
X121875Y588035D01*
X123694Y586819D01*
X124557Y586647D01*
Y585353D01*
X123694Y585181D01*
X121875Y583965D01*
X121780Y583823D01*
X79000D01*
X77537Y583532D01*
X76296Y582704D01*
X31416Y537823D01*
X28542D01*
X28220Y538601D01*
X26758Y540507D01*
X24853Y541968D01*
X22635Y542887D01*
X20254Y543201D01*
X17873Y542887D01*
X15655Y541968D01*
X13750Y540507D01*
X12288Y538601D01*
X11369Y536383D01*
X11055Y534002D01*
X11369Y531621D01*
X12288Y529403D01*
X13750Y527497D01*
X15655Y526036D01*
X17873Y525117D01*
X20254Y524803D01*
X22635Y525117D01*
X24853Y526036D01*
X26758Y527497D01*
X28220Y529403D01*
X28541Y530177D01*
X33000D01*
X34463Y530468D01*
X35704Y531296D01*
X80584Y576177D01*
X121780D01*
X121875Y576035D01*
X123694Y574819D01*
X124557Y574647D01*
Y573353D01*
X123694Y573181D01*
X121875Y571965D01*
X120659Y570146D01*
X120232Y568000D01*
X120659Y565854D01*
X121875Y564035D01*
X123694Y562819D01*
X124557Y562647D01*
Y561353D01*
X123694Y561181D01*
X121875Y559965D01*
X120659Y558146D01*
X120232Y556000D01*
X120659Y553854D01*
X121875Y552035D01*
X123694Y550819D01*
X124557Y550647D01*
Y549353D01*
X123694Y549181D01*
X122044Y548078D01*
X118000D01*
X116439Y547768D01*
X115116Y546884D01*
X114232Y545561D01*
X113922Y544000D01*
X114232Y542439D01*
X115116Y541116D01*
X116439Y540232D01*
X118000Y539922D01*
X122044D01*
X123694Y538819D01*
X124557Y538647D01*
Y537353D01*
X123694Y537181D01*
X122044Y536078D01*
X118689D01*
X116409Y538359D01*
X115086Y539243D01*
X113525Y539553D01*
X113525Y539553D01*
X107519D01*
X107408Y539695D01*
X107406Y539723D01*
X107958Y541052D01*
X108865Y541232D01*
X110188Y542116D01*
X111072Y543439D01*
X111382Y545000D01*
X111072Y546561D01*
X110188Y547884D01*
X108865Y548768D01*
X108434Y548853D01*
X107304Y549191D01*
X107304Y550348D01*
Y553255D01*
X99430D01*
X91556D01*
X91556Y549191D01*
X90333Y549078D01*
X83404D01*
Y549294D01*
X69736D01*
Y540706D01*
X83404D01*
Y540922D01*
X92313D01*
X92596Y539769D01*
X92596Y539652D01*
Y531181D01*
X106264D01*
Y531397D01*
X111836D01*
X114116Y529116D01*
X115439Y528232D01*
X117000Y527922D01*
X117000Y527922D01*
X122044D01*
X123694Y526819D01*
X124557Y526647D01*
Y525353D01*
X123694Y525181D01*
X122044Y524078D01*
X105500D01*
Y525500D01*
X94500D01*
Y514500D01*
X94922D01*
Y514250D01*
X95152Y513093D01*
X94399Y511823D01*
X86000D01*
X84537Y511532D01*
X83296Y510704D01*
X78296Y505704D01*
X77468Y504463D01*
X77177Y503000D01*
Y500622D01*
X74630D01*
Y495162D01*
X73590D01*
Y491642D01*
X80380D01*
Y489102D01*
X73590D01*
Y485582D01*
X74630D01*
Y480122D01*
X76301D01*
Y476620D01*
X76612Y475060D01*
X77496Y473736D01*
X78819Y472852D01*
X80380Y472542D01*
X81940Y472852D01*
X83264Y473736D01*
X84148Y475060D01*
X84458Y476620D01*
Y480122D01*
X86130D01*
X86177Y478871D01*
Y472000D01*
X86468Y470537D01*
X87296Y469296D01*
X88537Y468468D01*
X90000Y468177D01*
X91463Y468468D01*
X92704Y469296D01*
X93532Y470537D01*
X93823Y472000D01*
Y485369D01*
X94360Y485840D01*
X95630Y485265D01*
Y480122D01*
X101397D01*
X101444Y480112D01*
X121823D01*
X121875Y480035D01*
X123694Y478819D01*
X125840Y478392D01*
X133840D01*
X135986Y478819D01*
X137805Y480035D01*
X139021Y481854D01*
X139448Y484000D01*
X139021Y486146D01*
X137805Y487965D01*
X135986Y489181D01*
X135123Y489353D01*
Y490647D01*
X135986Y490819D01*
X137805Y492035D01*
X139021Y493854D01*
X139448Y496000D01*
X139021Y498146D01*
X137805Y499965D01*
X135986Y501181D01*
X135123Y501353D01*
Y502647D01*
X135986Y502819D01*
X137805Y504035D01*
X139021Y505854D01*
X139448Y508000D01*
X139021Y510146D01*
X137805Y511965D01*
X135986Y513181D01*
X135123Y513353D01*
Y514647D01*
X135986Y514819D01*
X137805Y516035D01*
X139021Y517854D01*
X139448Y520000D01*
X139021Y522146D01*
X137805Y523965D01*
X135986Y525181D01*
X135123Y525353D01*
Y526647D01*
X135986Y526819D01*
X137805Y528035D01*
X139021Y529854D01*
X139448Y532000D01*
X139021Y534146D01*
X137805Y535965D01*
X135986Y537181D01*
X135123Y537353D01*
Y538647D01*
X135986Y538819D01*
X137805Y540035D01*
X139021Y541854D01*
X139448Y544000D01*
X139021Y546146D01*
X137805Y547965D01*
X135986Y549181D01*
X135123Y549353D01*
Y550647D01*
X135986Y550819D01*
X137805Y552035D01*
X139021Y553854D01*
X139448Y556000D01*
X139021Y558146D01*
X137805Y559965D01*
X135986Y561181D01*
X135123Y561353D01*
Y562647D01*
X135986Y562819D01*
X137805Y564035D01*
X139021Y565854D01*
X139448Y568000D01*
X139021Y570146D01*
X137805Y571965D01*
X135986Y573181D01*
X135123Y573353D01*
Y574647D01*
X135986Y574819D01*
X137805Y576035D01*
X139021Y577854D01*
X139448Y580000D01*
X139021Y582146D01*
X137805Y583965D01*
X135986Y585181D01*
X135123Y585353D01*
Y586647D01*
X135986Y586819D01*
X137805Y588035D01*
X139021Y589854D01*
X139448Y592000D01*
X139021Y594146D01*
X137805Y595965D01*
X135986Y597181D01*
X135123Y597353D01*
Y598647D01*
X135986Y598819D01*
X137805Y600035D01*
X139021Y601854D01*
X139448Y604000D01*
X139021Y606146D01*
X137805Y607965D01*
X135986Y609181D01*
X135123Y609353D01*
Y610647D01*
X135986Y610819D01*
X137805Y612035D01*
X139021Y613854D01*
X139448Y616000D01*
X139021Y618146D01*
X137805Y619965D01*
X135986Y621181D01*
X135123Y621353D01*
Y622647D01*
X135986Y622819D01*
X137805Y624035D01*
X139021Y625854D01*
X139448Y628000D01*
X139021Y630146D01*
X137805Y631965D01*
X135986Y633181D01*
X135123Y633353D01*
Y634647D01*
X135986Y634819D01*
X137805Y636035D01*
X139021Y637854D01*
X139448Y640000D01*
X139021Y642146D01*
X137805Y643965D01*
X135986Y645181D01*
X135123Y645353D01*
Y646647D01*
X135986Y646819D01*
X137805Y648035D01*
X139021Y649854D01*
X139448Y652000D01*
X139021Y654146D01*
X137805Y655965D01*
X135986Y657181D01*
X135123Y657353D01*
Y658647D01*
X135986Y658819D01*
X137805Y660035D01*
X139021Y661854D01*
X139448Y664000D01*
X139021Y666146D01*
X137805Y667965D01*
X136675Y668721D01*
X136816Y670154D01*
X137138Y670287D01*
X138504Y671336D01*
X139553Y672702D01*
X140212Y674293D01*
X140269Y674730D01*
X129840D01*
Y677270D01*
X140269D01*
X140212Y677707D01*
X139553Y679298D01*
X138504Y680664D01*
X137138Y681713D01*
X136816Y681846D01*
X136675Y683279D01*
X137805Y684035D01*
X139021Y685854D01*
X139448Y688000D01*
X139021Y690146D01*
X137805Y691965D01*
X135986Y693181D01*
X135123Y693353D01*
Y694647D01*
X135986Y694819D01*
X137805Y696035D01*
X139021Y697854D01*
X139448Y700000D01*
X139021Y702146D01*
X137805Y703965D01*
X136675Y704721D01*
X136816Y706154D01*
X137138Y706287D01*
X138504Y707336D01*
X139553Y708702D01*
X140212Y710293D01*
X140269Y710730D01*
X119411D01*
X119468Y710293D01*
X120048Y708894D01*
X119782Y708220D01*
X119354Y707624D01*
X117527D01*
X102304Y722846D01*
X101731Y723083D01*
X101158Y723321D01*
X97652Y723324D01*
X97649Y723327D01*
X96752Y724327D01*
Y726924D01*
D02*
G37*
G36*
X29517Y687037D02*
X21770D01*
Y678020D01*
X29517D01*
Y687037D01*
D02*
G37*
G36*
X19230D02*
X11483D01*
Y678020D01*
X19230D01*
Y687037D01*
D02*
G37*
G36*
X29517Y675480D02*
X21770D01*
Y666463D01*
X29517D01*
Y675480D01*
D02*
G37*
G36*
X19230D02*
X11483D01*
Y666463D01*
X19230D01*
Y675480D01*
D02*
G37*
G36*
X88000Y655078D02*
X86439Y654768D01*
X85116Y653884D01*
X84232Y652561D01*
X83922Y651000D01*
Y647862D01*
X82871D01*
Y636862D01*
X93871D01*
Y647862D01*
X92078D01*
Y651000D01*
X91768Y652561D01*
X90884Y653884D01*
X89561Y654768D01*
X88000Y655078D01*
D02*
G37*
G36*
X88624Y633624D02*
X83290D01*
Y627782D01*
X88624D01*
Y633624D01*
D02*
G37*
G36*
Y625242D02*
X83290D01*
Y619400D01*
X88624D01*
Y625242D01*
D02*
G37*
G36*
X29517Y607537D02*
X21770D01*
Y598520D01*
X29517D01*
Y607537D01*
D02*
G37*
G36*
X19230D02*
X11483D01*
Y598520D01*
X19230D01*
Y607537D01*
D02*
G37*
G36*
X29517Y595980D02*
X21770D01*
Y586963D01*
X29517D01*
Y595980D01*
D02*
G37*
G36*
X19230D02*
X11483D01*
Y586963D01*
X19230D01*
Y595980D01*
D02*
G37*
G36*
X259380Y604540D02*
X233110D01*
Y578270D01*
X259380D01*
Y604540D01*
D02*
G37*
G36*
X230570D02*
X204300D01*
Y578270D01*
X230570D01*
Y604540D01*
D02*
G37*
G36*
X30414Y569562D02*
X21524D01*
Y560672D01*
X30414D01*
Y569562D01*
D02*
G37*
G36*
X18984D02*
X10094D01*
Y560672D01*
X18984D01*
Y569562D01*
D02*
G37*
G36*
X107304Y559859D02*
X100700D01*
Y555795D01*
X107304D01*
Y559859D01*
D02*
G37*
G36*
X98160D02*
X91556D01*
Y555795D01*
X98160D01*
Y559859D01*
D02*
G37*
G36*
X259380Y575730D02*
X233110D01*
Y549460D01*
X259380D01*
Y575730D01*
D02*
G37*
G36*
X230570D02*
X204300D01*
Y549460D01*
X230570D01*
Y575730D01*
D02*
G37*
G36*
X30414Y558132D02*
X21524D01*
Y549242D01*
X30414D01*
Y558132D01*
D02*
G37*
G36*
X18984D02*
X10094D01*
Y549242D01*
X18984D01*
Y558132D01*
D02*
G37*
G36*
X90540Y526540D02*
X85270D01*
Y521270D01*
X90540D01*
Y526540D01*
D02*
G37*
G36*
X82730D02*
X77460D01*
Y521270D01*
X82730D01*
Y526540D01*
D02*
G37*
G36*
X90540Y518730D02*
X85270D01*
Y513460D01*
X90540D01*
Y518730D01*
D02*
G37*
G36*
X82730D02*
X77460D01*
Y513460D01*
X82730D01*
Y518730D01*
D02*
G37*
G36*
X360269Y518730D02*
X339411D01*
X339468Y518293D01*
X340127Y516702D01*
X341176Y515336D01*
X341923Y514762D01*
Y513238D01*
X341176Y512664D01*
X340127Y511298D01*
X339468Y509707D01*
X339411Y509270D01*
X360269D01*
X360212Y509707D01*
X359553Y511298D01*
X358504Y512664D01*
X357757Y513238D01*
Y514762D01*
X358504Y515336D01*
X359553Y516702D01*
X360212Y518293D01*
X360269Y518730D01*
D02*
G37*
G36*
X20254Y517801D02*
X17873Y517487D01*
X15655Y516568D01*
X13750Y515107D01*
X12288Y513201D01*
X11369Y510983D01*
X11055Y508602D01*
X11369Y506221D01*
X12288Y504003D01*
X13750Y502098D01*
X15655Y500636D01*
X17873Y499717D01*
X20254Y499403D01*
X22635Y499717D01*
X24853Y500636D01*
X26758Y502098D01*
X28220Y504003D01*
X29139Y506221D01*
X29453Y508602D01*
X29139Y510983D01*
X28220Y513201D01*
X26758Y515107D01*
X24853Y516568D01*
X22635Y517487D01*
X20254Y517801D01*
D02*
G37*
G36*
X348570Y482730D02*
X339411D01*
X339468Y482293D01*
X340127Y480702D01*
X340402Y480344D01*
X339496Y479438D01*
X339138Y479713D01*
X337547Y480372D01*
X337110Y480429D01*
Y471270D01*
X342436D01*
Y474000D01*
X342212Y475707D01*
X341553Y477298D01*
X341278Y477656D01*
X342184Y478562D01*
X342542Y478287D01*
X344133Y477628D01*
X345840Y477404D01*
X348570D01*
Y482730D01*
D02*
G37*
G36*
X360269D02*
X351110D01*
Y477404D01*
X353840D01*
X355547Y477628D01*
X357138Y478287D01*
X358504Y479336D01*
X359553Y480702D01*
X360212Y482293D01*
X360269Y482730D01*
D02*
G37*
G36*
X387112Y482253D02*
X381270D01*
Y476919D01*
X387112D01*
Y482253D01*
D02*
G37*
G36*
X378730D02*
X372888D01*
Y476919D01*
X378730D01*
Y482253D01*
D02*
G37*
G36*
X30414Y479652D02*
X21524D01*
Y470762D01*
X30414D01*
Y479652D01*
D02*
G37*
G36*
X18984D02*
X10094D01*
Y470762D01*
X18984D01*
D01*
D01*
Y471270D01*
Y474000D01*
D01*
Y475060D01*
Y475283D01*
D01*
Y476146D01*
Y476919D01*
D01*
Y476976D01*
Y477298D01*
D01*
Y477404D01*
Y479652D01*
D02*
G37*
G36*
X342436Y468730D02*
X337110D01*
Y459571D01*
X337547Y459628D01*
X339138Y460287D01*
X340504Y461336D01*
X341553Y462702D01*
X342212Y464293D01*
X342436Y466000D01*
Y468730D01*
D02*
G37*
G36*
X30414Y468222D02*
X21524D01*
Y459332D01*
X30414D01*
Y468222D01*
D02*
G37*
G36*
X18984D02*
X10094D01*
Y459332D01*
X18984D01*
Y468222D01*
D02*
G37*
G36*
X491720Y421235D02*
X463320D01*
Y411885D01*
X491720D01*
Y421235D01*
D02*
G37*
G36*
X492760Y409575D02*
X478790D01*
Y405130D01*
X492760D01*
Y409575D01*
D02*
G37*
G36*
X476250D02*
X462280D01*
Y405130D01*
X476250D01*
Y409575D01*
D02*
G37*
G36*
X492760Y402590D02*
X478790D01*
Y398145D01*
X492760D01*
Y402590D01*
D02*
G37*
G36*
X476250D02*
X462280D01*
Y398145D01*
X476250D01*
Y402590D01*
D02*
G37*
G36*
X361097Y398730D02*
X356017D01*
Y393396D01*
X361097D01*
Y398730D01*
D02*
G37*
G36*
X353477D02*
X348397D01*
Y393396D01*
X353477D01*
Y398730D01*
D02*
G37*
G36*
X492760Y396875D02*
X478790D01*
Y392430D01*
X492760D01*
Y396875D01*
D02*
G37*
G36*
X476250D02*
X462280D01*
Y392430D01*
X476250D01*
Y396875D01*
D02*
G37*
G36*
X492760Y389890D02*
X478790D01*
Y385445D01*
X492760D01*
Y389890D01*
D02*
G37*
G36*
X476250D02*
X462280D01*
Y385445D01*
X476250D01*
Y389890D01*
D02*
G37*
G36*
X378000Y394199D02*
X375619Y393885D01*
X373401Y392966D01*
X371496Y391504D01*
X370034Y389599D01*
X369115Y387381D01*
X368801Y385000D01*
X369115Y382619D01*
X370034Y380401D01*
X371496Y378495D01*
X373401Y377034D01*
X375619Y376115D01*
X378000Y375801D01*
X380381Y376115D01*
X382599Y377034D01*
X384505Y378495D01*
X385966Y380401D01*
X386885Y382619D01*
X387199Y385000D01*
X386885Y387381D01*
X385966Y389599D01*
X384505Y391504D01*
X382599Y392966D01*
X380381Y393885D01*
X378000Y394199D01*
D02*
G37*
G36*
X488633Y383195D02*
X466408D01*
X465203Y382956D01*
X464182Y382273D01*
X463499Y381252D01*
X463260Y380047D01*
Y376872D01*
X463499Y375668D01*
X464182Y374646D01*
X465203Y373964D01*
X466408Y373725D01*
X488633D01*
X489837Y373964D01*
X490858Y374646D01*
X491541Y375668D01*
X491780Y376872D01*
Y380047D01*
X491541Y381252D01*
X490858Y382273D01*
X489837Y382956D01*
X488633Y383195D01*
D02*
G37*
G36*
X355000Y383078D02*
X346000D01*
X345893Y383057D01*
X339436D01*
Y372437D01*
X350564D01*
Y374922D01*
X355000D01*
X356561Y375232D01*
X357884Y376116D01*
X358768Y377439D01*
X359078Y379000D01*
X358768Y380561D01*
X357884Y381884D01*
X356561Y382768D01*
X355000Y383078D01*
D02*
G37*
G36*
X228500Y419000D02*
X217500D01*
Y389000D01*
X219052D01*
Y376760D01*
X219140Y376317D01*
Y369960D01*
X227350D01*
Y368920D01*
X231870D01*
Y376760D01*
Y384600D01*
X228228D01*
Y389000D01*
X228500D01*
Y419000D01*
D02*
G37*
G36*
X387120Y368720D02*
X368880D01*
Y366331D01*
X350564D01*
Y367563D01*
X339436D01*
Y356943D01*
X350564D01*
Y358175D01*
X368880D01*
Y350480D01*
X387120D01*
Y368720D01*
D02*
G37*
G36*
X238930Y384600D02*
X234410D01*
Y376760D01*
Y368920D01*
X238922D01*
Y368000D01*
X239232Y366439D01*
X240116Y365116D01*
X241439Y364232D01*
X243000Y363922D01*
X244561Y364232D01*
X245884Y365116D01*
X246768Y366439D01*
X247078Y368000D01*
Y369960D01*
X247390D01*
Y383560D01*
X238930D01*
Y384600D01*
D02*
G37*
G36*
X310760Y360760D02*
X302990D01*
Y355990D01*
X310760D01*
Y360760D01*
D02*
G37*
G36*
X300450D02*
X292680D01*
Y355990D01*
X300450D01*
Y360760D01*
D02*
G37*
G36*
X310760Y353450D02*
X302990D01*
Y348680D01*
X310760D01*
Y353450D01*
D02*
G37*
G36*
X300450D02*
X292680D01*
Y348680D01*
X300450D01*
Y353450D01*
D02*
G37*
G36*
X247390Y361560D02*
X218890D01*
Y359348D01*
X205760D01*
X204004Y358999D01*
X202516Y358004D01*
X189750Y345239D01*
X189250Y345338D01*
X158675D01*
X155008Y349005D01*
Y355180D01*
X154659Y356936D01*
X154420Y357293D01*
Y360215D01*
X146340D01*
Y357174D01*
X146181Y356936D01*
X145832Y355180D01*
Y347105D01*
X146016Y346178D01*
X145064Y344908D01*
X143670D01*
X142109Y344598D01*
X140786Y343714D01*
X139902Y342391D01*
X139592Y340830D01*
X139902Y339269D01*
X140600Y338225D01*
X140260Y337250D01*
X140037Y336955D01*
X136240D01*
Y334846D01*
X134636D01*
X133173Y334556D01*
X131932Y333727D01*
X129296Y331091D01*
X128468Y329850D01*
X128348Y329251D01*
X127078Y329376D01*
Y350311D01*
X127909Y351142D01*
X136240D01*
Y350225D01*
X144320D01*
Y355027D01*
X144358Y355220D01*
X144320Y355413D01*
Y360215D01*
X136240D01*
Y359298D01*
X126220D01*
X124659Y358988D01*
X123336Y358104D01*
X123336Y358104D01*
X120116Y354884D01*
X119232Y353561D01*
X118922Y352000D01*
X118922Y352000D01*
Y323057D01*
X117436D01*
Y312437D01*
X119220D01*
X119232Y312376D01*
X120116Y311053D01*
X122433Y308736D01*
X121947Y307563D01*
X117436D01*
Y296943D01*
X123916D01*
X124310Y296865D01*
X124310Y296865D01*
X129503D01*
X129629Y296840D01*
X129629Y296840D01*
X136417D01*
X136556Y296632D01*
X137879Y295748D01*
X139440Y295437D01*
X141001Y295748D01*
X142324Y296632D01*
X143208Y297955D01*
X143518Y299515D01*
Y300918D01*
X143391Y301560D01*
X144253Y302830D01*
X144440D01*
Y302940D01*
X147420D01*
Y312330D01*
X149960D01*
Y302940D01*
X151900D01*
Y301790D01*
X156670D01*
Y305580D01*
X159210D01*
Y301790D01*
X163980D01*
Y304044D01*
X165250Y305058D01*
X165751Y304959D01*
X167214Y305250D01*
X168455Y306078D01*
X169284Y307319D01*
X169575Y308782D01*
X169343Y309945D01*
X170047Y311215D01*
X182750D01*
Y309750D01*
X187300D01*
X189000Y309412D01*
X198100D01*
X202912Y304600D01*
Y260500D01*
X203261Y258744D01*
X204256Y257256D01*
X208756Y252756D01*
X210244Y251761D01*
X212000Y251412D01*
X219430D01*
Y249740D01*
X247930D01*
Y252656D01*
X255964D01*
Y251111D01*
X268616D01*
Y252978D01*
X274226D01*
Y251873D01*
X275943D01*
Y245564D01*
X274943D01*
Y234436D01*
X285563D01*
Y245564D01*
X284100D01*
Y251873D01*
X285354D01*
Y262493D01*
X274226D01*
Y261134D01*
X268616D01*
Y262747D01*
X255964D01*
Y260813D01*
X247930D01*
Y263340D01*
X245105D01*
X245009Y263544D01*
X244710Y264610D01*
X245256Y265427D01*
X245489Y266597D01*
X245489Y266597D01*
Y271740D01*
X247930D01*
Y285340D01*
X239470D01*
Y286380D01*
X234950D01*
Y278540D01*
Y270700D01*
X239371D01*
Y267899D01*
X228558D01*
X227388Y267666D01*
X226395Y267003D01*
X226395Y267003D01*
X223767Y264375D01*
X223104Y263382D01*
X223096Y263340D01*
X219430D01*
Y260588D01*
X213901D01*
X212088Y262400D01*
Y306500D01*
X211739Y308256D01*
X210744Y309744D01*
X203244Y317244D01*
X201756Y318239D01*
X200000Y318588D01*
X199999Y318588D01*
X193588D01*
Y336100D01*
X207661Y350172D01*
X218890D01*
Y347960D01*
X247390D01*
Y350911D01*
X257294D01*
Y349401D01*
X269946D01*
Y351268D01*
X275836D01*
Y350163D01*
X277195D01*
Y343384D01*
X275836D01*
Y332256D01*
X286456D01*
Y343384D01*
X285351D01*
Y350163D01*
X286964D01*
Y360783D01*
X275836D01*
Y359424D01*
X269946D01*
Y361037D01*
X257294D01*
Y359068D01*
X247390D01*
Y361560D01*
D02*
G37*
G36*
X454000Y350885D02*
X452537Y350594D01*
X451296Y349765D01*
X450468Y348525D01*
X450177Y347062D01*
X450468Y345598D01*
X451296Y344358D01*
X452537Y343529D01*
X454000Y343238D01*
X455463Y343529D01*
X456704Y344358D01*
X457532Y345598D01*
X457823Y347062D01*
X457532Y348525D01*
X456704Y349765D01*
X455463Y350594D01*
X454000Y350885D01*
D02*
G37*
G36*
X302990Y344424D02*
X297910D01*
Y339090D01*
X302990D01*
Y344424D01*
D02*
G37*
G36*
X295370D02*
X290290D01*
Y339090D01*
X295370D01*
Y344424D01*
D02*
G37*
G36*
X302990Y336550D02*
X297910D01*
Y331216D01*
X302990D01*
Y336550D01*
D02*
G37*
G36*
X295370D02*
X290290D01*
Y331216D01*
X295370D01*
Y336550D01*
D02*
G37*
G36*
X47450Y324612D02*
Y318770D01*
X52784D01*
Y324612D01*
X47450D01*
D02*
G37*
G36*
X52784Y316230D02*
X47450D01*
Y310388D01*
X52784D01*
Y316230D01*
D02*
G37*
G36*
X53970Y308692D02*
X48890D01*
Y303358D01*
X53970D01*
Y308692D01*
D02*
G37*
G36*
X46350D02*
X41270D01*
Y303358D01*
X46350D01*
Y308692D01*
D02*
G37*
G36*
X196290Y303290D02*
X190270D01*
Y299270D01*
X196290D01*
Y303290D01*
D02*
G37*
G36*
X187730D02*
X181710D01*
Y299270D01*
X187730D01*
Y303290D01*
D02*
G37*
G36*
X53970Y300818D02*
X48890D01*
Y295483D01*
X53970D01*
Y300818D01*
D02*
G37*
G36*
X46350D02*
X41270D01*
Y295483D01*
X46350D01*
Y300818D01*
D02*
G37*
G36*
X196290Y296730D02*
X190270D01*
Y292710D01*
X196290D01*
Y296730D01*
D02*
G37*
G36*
X187730D02*
X181710D01*
Y292710D01*
X187730D01*
Y296730D01*
D02*
G37*
G36*
X447099Y304993D02*
X444718Y304680D01*
X442499Y303761D01*
X440594Y302299D01*
X439132Y300394D01*
X438214Y298176D01*
X437900Y295795D01*
X438214Y293414D01*
X439132Y291195D01*
X440594Y289290D01*
X442499Y287828D01*
X444718Y286910D01*
X447099Y286596D01*
X449479Y286910D01*
X451698Y287828D01*
X453603Y289290D01*
X455065Y291195D01*
X455984Y293414D01*
X456297Y295795D01*
X455984Y298176D01*
X455065Y300394D01*
X453603Y302299D01*
X451698Y303761D01*
X449479Y304680D01*
X447099Y304993D01*
D02*
G37*
G36*
X229500Y322000D02*
X218500D01*
Y292000D01*
X219574D01*
Y280858D01*
X219592Y280768D01*
Y278540D01*
X219680Y278097D01*
Y271740D01*
X227890D01*
Y270700D01*
X232410D01*
Y278540D01*
Y286380D01*
X228750D01*
Y292000D01*
X229500D01*
Y322000D01*
D02*
G37*
G36*
X251500D02*
X240500D01*
Y292000D01*
X251500D01*
Y295503D01*
X254288D01*
X257192Y292599D01*
Y278749D01*
X255964D01*
Y267113D01*
X268616D01*
Y267706D01*
X274226D01*
Y267367D01*
X285354D01*
Y267833D01*
X299536D01*
X300813Y268087D01*
X312755D01*
Y267435D01*
X320255D01*
Y272693D01*
X320353Y273185D01*
X320329Y273308D01*
Y285882D01*
X320959Y286143D01*
X322599Y287401D01*
X323857Y289041D01*
X324648Y290951D01*
X324918Y293000D01*
X324648Y295049D01*
X323857Y296959D01*
X322599Y298599D01*
X320959Y299857D01*
X319049Y300648D01*
X317000Y300918D01*
X314951Y300648D01*
X313041Y299857D01*
X311401Y298599D01*
X310143Y296959D01*
X309352Y295049D01*
X309082Y293000D01*
X309352Y290951D01*
X310143Y289041D01*
X311401Y287401D01*
X312682Y286419D01*
Y278283D01*
X307790D01*
Y278430D01*
X291790D01*
Y278029D01*
X280044D01*
X279833Y277987D01*
X274226D01*
Y277902D01*
X268616D01*
Y278749D01*
X267388D01*
Y294710D01*
X267000Y296661D01*
X265895Y298315D01*
X260004Y304205D01*
X258350Y305311D01*
X256399Y305699D01*
X251500D01*
Y322000D01*
D02*
G37*
G36*
X142162Y271378D02*
X136392D01*
Y266108D01*
X142162D01*
Y271378D01*
D02*
G37*
G36*
X133852D02*
X128082D01*
Y266108D01*
X133852D01*
Y271378D01*
D02*
G37*
G36*
X173226Y271152D02*
X167456D01*
Y265882D01*
X173226D01*
Y271152D01*
D02*
G37*
G36*
X164916D02*
X159146D01*
Y265882D01*
X164916D01*
Y271152D01*
D02*
G37*
G36*
X367471Y311624D02*
X331000Y311623D01*
X329852Y311148D01*
X329376Y310000D01*
X329376Y296869D01*
X329528Y296503D01*
X329565Y296109D01*
X329757Y295951D01*
X329852Y295721D01*
X330218Y295570D01*
X330523Y295317D01*
X331392Y295050D01*
X331975Y294443D01*
X332301Y293887D01*
X332302Y293672D01*
X332082Y292000D01*
X332352Y289951D01*
X331562Y289002D01*
X330523Y288683D01*
X330218Y288430D01*
X329852Y288279D01*
X329757Y288049D01*
X329565Y287891D01*
X329528Y287496D01*
X329376Y287131D01*
Y286647D01*
X328823Y285819D01*
X328532Y284356D01*
Y278935D01*
X327755D01*
Y276572D01*
X326796Y275136D01*
X326407Y273185D01*
X326796Y271234D01*
X327755Y269798D01*
Y267435D01*
X328681D01*
X329376Y266395D01*
Y260000D01*
X329852Y258852D01*
X331000Y258376D01*
X367471Y258376D01*
X368619Y258852D01*
X369094Y260000D01*
X369094Y310000D01*
X368619Y311148D01*
X367471Y311624D01*
D02*
G37*
G36*
X142162Y263568D02*
X136392D01*
Y258298D01*
X142162D01*
Y263568D01*
D02*
G37*
G36*
X133852D02*
X128082D01*
Y258298D01*
X133852D01*
Y263568D01*
D02*
G37*
G36*
X173226Y263342D02*
X167456D01*
Y258072D01*
X173226D01*
Y263342D01*
D02*
G37*
G36*
X164916D02*
X159146D01*
Y258072D01*
X164916D01*
Y263342D01*
D02*
G37*
G36*
X308830Y262470D02*
X301060D01*
Y257700D01*
X308830D01*
Y262470D01*
D02*
G37*
G36*
X298520D02*
X290750D01*
Y257700D01*
X298520D01*
Y262470D01*
D02*
G37*
G36*
X62360Y255350D02*
X53340D01*
Y251080D01*
X62360D01*
Y255350D01*
D02*
G37*
G36*
X50800D02*
X41780D01*
Y251080D01*
X50800D01*
Y255350D01*
D02*
G37*
G36*
X308830Y255160D02*
X301060D01*
Y250390D01*
X308830D01*
Y255160D01*
D02*
G37*
G36*
X298520D02*
X290750D01*
Y250390D01*
X298520D01*
Y255160D01*
D02*
G37*
G36*
X302097Y246604D02*
X297017D01*
Y241270D01*
X302097D01*
Y246604D01*
D02*
G37*
G36*
X294477D02*
X289397D01*
Y241270D01*
X294477D01*
Y246604D01*
D02*
G37*
G36*
X101750Y241299D02*
X94250D01*
X93275Y241105D01*
X92448Y240552D01*
X91964Y239828D01*
X87784D01*
X87739Y239837D01*
X86178Y239527D01*
X84855Y238643D01*
X83971Y237320D01*
X83661Y235759D01*
X83971Y234198D01*
X84855Y232875D01*
X84864Y232866D01*
X84864Y232866D01*
X86187Y231982D01*
X87748Y231672D01*
X91964D01*
X92448Y230948D01*
X93275Y230395D01*
X94250Y230201D01*
X101750D01*
X102725Y230395D01*
X103552Y230948D01*
X104036Y231672D01*
X111750D01*
X113311Y231982D01*
X114634Y232866D01*
X115518Y234189D01*
X115828Y235750D01*
X115518Y237311D01*
X114634Y238634D01*
X113311Y239518D01*
X111750Y239828D01*
X104036D01*
X103552Y240552D01*
X102725Y241105D01*
X101750Y241299D01*
D02*
G37*
G36*
X302097Y238730D02*
X297017D01*
Y233396D01*
X302097D01*
Y238730D01*
D02*
G37*
G36*
X294477D02*
X289397D01*
Y233396D01*
X294477D01*
Y238730D01*
D02*
G37*
G36*
X430819Y264275D02*
X412579D01*
Y246035D01*
X416951D01*
Y234875D01*
X417378Y232729D01*
X418593Y230909D01*
X423853Y225649D01*
X423936Y225594D01*
X423335Y224469D01*
X422999Y224608D01*
X420950Y224878D01*
X418900Y224608D01*
X416991Y223817D01*
X415351Y222558D01*
X414093Y220919D01*
X413302Y219009D01*
X413032Y216960D01*
X413302Y214911D01*
X414093Y213001D01*
X415351Y211361D01*
X416991Y210103D01*
X418900Y209312D01*
X420950Y209042D01*
X422999Y209312D01*
X424908Y210103D01*
X426548Y211361D01*
X427807Y213001D01*
X427863Y213136D01*
X437634D01*
X439097Y213427D01*
X440338Y214256D01*
X441802Y215721D01*
X442631Y216961D01*
X442922Y218424D01*
Y224255D01*
X444599D01*
Y235255D01*
X433599D01*
Y235222D01*
X430142D01*
X428167Y237197D01*
Y246035D01*
X430819D01*
Y264275D01*
D02*
G37*
G36*
X141122Y254338D02*
X129122D01*
Y243338D01*
X131144D01*
Y238559D01*
X127218D01*
Y219785D01*
X127218Y219340D01*
X126121Y218370D01*
X125826Y218383D01*
X118355Y225855D01*
X116701Y226960D01*
X114750Y227348D01*
X103249D01*
X102847Y227617D01*
X101950Y227795D01*
X94050D01*
X93153Y227617D01*
X92392Y227108D01*
X91883Y226347D01*
X91705Y225450D01*
Y219050D01*
X91883Y218153D01*
X92392Y217392D01*
X93153Y216884D01*
X94050Y216705D01*
X101950D01*
X102847Y216884D01*
X103249Y217152D01*
X112638D01*
X115808Y213983D01*
X115533Y213076D01*
X115312Y212683D01*
X114116Y211884D01*
X113232Y210561D01*
X112922Y209000D01*
X113232Y207439D01*
X114116Y206116D01*
X115495Y204737D01*
X115009Y203564D01*
X109848D01*
Y205230D01*
X109538Y206791D01*
X108654Y208114D01*
X108654Y208114D01*
X104134Y212634D01*
X102811Y213518D01*
X101250Y213828D01*
X101250Y213828D01*
X80250D01*
X78689Y213518D01*
X77366Y212634D01*
X76482Y211311D01*
X76172Y209750D01*
X76482Y208189D01*
X77366Y206866D01*
X78689Y205982D01*
X80250Y205672D01*
X99561D01*
X101692Y203541D01*
Y194738D01*
X101692Y194738D01*
X101770Y194344D01*
X101770Y186937D01*
X101770Y186833D01*
X101766Y186742D01*
X101569Y185791D01*
X100618Y185594D01*
X100527Y185590D01*
X100423Y185590D01*
X99078D01*
Y188000D01*
X98768Y189561D01*
X97884Y190884D01*
X96561Y191768D01*
X95000Y192078D01*
X93439Y191768D01*
X92116Y190884D01*
X91232Y189561D01*
X90922Y188000D01*
Y185590D01*
X83796D01*
Y177510D01*
Y169628D01*
X77139D01*
X73038Y173729D01*
Y199559D01*
X74460D01*
Y210559D01*
X74460D01*
Y211807D01*
X74460D01*
Y222806D01*
X63460D01*
Y211807D01*
X63460D01*
Y210559D01*
X63460D01*
Y199559D01*
X64882D01*
Y172040D01*
X64882Y172040D01*
X65192Y170479D01*
X66076Y169156D01*
X72566Y162666D01*
X72566Y162666D01*
X73889Y161782D01*
X75450Y161472D01*
X75450Y161472D01*
X83796D01*
Y153373D01*
X47550D01*
X46087Y153082D01*
X44847Y152254D01*
X36296Y143704D01*
X35468Y142463D01*
X35177Y141000D01*
Y108513D01*
X34487Y107823D01*
X28580D01*
X28220Y108691D01*
X26758Y110597D01*
X24853Y112058D01*
X22635Y112977D01*
X20254Y113291D01*
X17873Y112977D01*
X15655Y112058D01*
X13750Y110597D01*
X12288Y108691D01*
X11369Y106473D01*
X11055Y104092D01*
X11369Y101711D01*
X12288Y99493D01*
X13750Y97587D01*
X15655Y96126D01*
X17873Y95207D01*
X20254Y94893D01*
X22635Y95207D01*
X24853Y96126D01*
X26758Y97587D01*
X28220Y99493D01*
X28504Y100177D01*
X34020D01*
X34506Y99003D01*
X22950Y87447D01*
X22635Y87577D01*
X20254Y87891D01*
X17873Y87577D01*
X15655Y86658D01*
X13750Y85197D01*
X12288Y83291D01*
X11369Y81073D01*
X11055Y78692D01*
X11369Y76311D01*
X12288Y74093D01*
X13750Y72188D01*
X15655Y70726D01*
X17873Y69807D01*
X20254Y69493D01*
X22635Y69807D01*
X24853Y70726D01*
X26758Y72188D01*
X28220Y74093D01*
X29139Y76311D01*
X29453Y78692D01*
X29139Y81073D01*
X28627Y82310D01*
X32003Y85686D01*
X33177Y85200D01*
Y70584D01*
X24145Y61552D01*
X22635Y62177D01*
X20254Y62491D01*
X17873Y62177D01*
X15655Y61258D01*
X13750Y59797D01*
X12288Y57891D01*
X11369Y55673D01*
X11055Y53292D01*
X11369Y50911D01*
X12288Y48693D01*
X13750Y46788D01*
X15655Y45326D01*
X17873Y44407D01*
X20254Y44093D01*
X22635Y44407D01*
X24853Y45326D01*
X26758Y46788D01*
X28220Y48693D01*
X29139Y50911D01*
X29453Y53292D01*
X29139Y55673D01*
X29122Y55715D01*
X39704Y66296D01*
X40532Y67537D01*
X40823Y69000D01*
Y85668D01*
X43625Y88469D01*
X44895Y87943D01*
Y83930D01*
X50737D01*
Y89264D01*
X46216D01*
X45690Y90534D01*
X54204Y99048D01*
X55032Y100288D01*
X55323Y101751D01*
Y128416D01*
X56634Y129727D01*
X82756D01*
Y126820D01*
X92662D01*
X102568D01*
Y130630D01*
X101528D01*
Y137510D01*
Y145510D01*
Y153510D01*
Y161510D01*
Y169510D01*
Y177510D01*
X101528Y184485D01*
X101528Y184589D01*
X101532Y184681D01*
X101728Y185632D01*
X102679Y185828D01*
X102771Y185832D01*
X102875Y185832D01*
X164910D01*
X165052Y185832D01*
X165052Y185691D01*
Y182820D01*
X173688D01*
Y186630D01*
X165991D01*
X165850Y186630D01*
X165850Y186772D01*
Y189600D01*
X169431D01*
X169786Y189671D01*
X170140Y189600D01*
X172091Y189988D01*
X173745Y191093D01*
X180754Y198102D01*
X195521D01*
X195942Y197251D01*
X195318Y196000D01*
X194780D01*
Y195078D01*
X191000D01*
X189439Y194768D01*
X188116Y193884D01*
X188116Y193884D01*
X186116Y191884D01*
X185232Y190561D01*
X184922Y189000D01*
X184922Y189000D01*
Y187876D01*
X184864Y186630D01*
X176228D01*
Y181550D01*
X174958D01*
Y180280D01*
X165052D01*
Y176470D01*
X166092D01*
Y169510D01*
Y161510D01*
Y153510D01*
Y145510D01*
Y137510D01*
Y129510D01*
X166092Y122615D01*
X166092Y122511D01*
X166088Y122420D01*
X165891Y121469D01*
X164940Y121272D01*
X164848Y121268D01*
X164745Y121268D01*
X102709D01*
X102568Y121268D01*
X102568Y121410D01*
Y124280D01*
X93932D01*
Y120470D01*
X101628D01*
X101770Y120470D01*
X101770Y120329D01*
Y117098D01*
X92000D01*
X90049Y116710D01*
X88395Y115605D01*
X87290Y113951D01*
X86902Y112000D01*
X87290Y110049D01*
X88395Y108395D01*
X90049Y107290D01*
X92000Y106902D01*
X101770D01*
Y103536D01*
X109732D01*
Y95199D01*
X90729Y76197D01*
X78003D01*
Y72288D01*
X74080D01*
Y73700D01*
X63080D01*
Y73031D01*
X58977D01*
X58078Y73929D01*
X58079Y75270D01*
X59023Y76056D01*
X59119D01*
Y81390D01*
X52007D01*
X44895D01*
Y76056D01*
X44990D01*
X45935Y75270D01*
X45935Y74786D01*
Y64142D01*
X58078D01*
Y64875D01*
X63080D01*
Y62700D01*
X74080D01*
Y64132D01*
X78003D01*
Y60243D01*
X96497D01*
Y64142D01*
X157503D01*
Y60243D01*
X175997D01*
Y76197D01*
X157503D01*
Y72298D01*
X100025D01*
X99539Y73472D01*
X112905Y86837D01*
X114117Y86572D01*
X114261Y86397D01*
X115116Y85116D01*
X116439Y84232D01*
X118000Y83922D01*
X119561Y84232D01*
X120884Y85116D01*
X124694Y88926D01*
X124694Y88926D01*
X125578Y90249D01*
X125888Y91810D01*
Y103536D01*
X133731D01*
Y90190D01*
X133731Y90190D01*
X134042Y88629D01*
X134926Y87306D01*
X142439Y79793D01*
X143762Y78909D01*
X145323Y78599D01*
X145323Y78599D01*
X183530D01*
X183939Y78190D01*
X183881Y76657D01*
X183484Y76327D01*
X183388D01*
Y70993D01*
X190500D01*
X197612D01*
Y76327D01*
X197516D01*
X196572Y77113D01*
Y77329D01*
X197220Y78599D01*
X204217D01*
X204217Y78599D01*
X204727Y78700D01*
X206846D01*
X207240Y78622D01*
X207240Y78622D01*
X220611D01*
X221654Y77579D01*
Y76197D01*
X217703D01*
Y60243D01*
X236197D01*
Y64142D01*
X297203D01*
Y60243D01*
X315697D01*
Y76197D01*
X297203D01*
Y72298D01*
X236197D01*
Y76197D01*
X229810D01*
Y79268D01*
X229500Y80829D01*
X228616Y82152D01*
X228616Y82152D01*
X225184Y85584D01*
X223861Y86468D01*
X222300Y86778D01*
X222300Y86778D01*
X211240D01*
Y89700D01*
X200240D01*
Y86755D01*
X196572D01*
Y88241D01*
X184428D01*
Y86755D01*
X147012D01*
X141888Y91879D01*
Y103536D01*
X148766D01*
X149771Y102929D01*
X150082Y101368D01*
X150966Y100045D01*
X153895Y97116D01*
X153895Y97116D01*
X155218Y96232D01*
X156779Y95922D01*
X422000D01*
X422000Y95922D01*
X423561Y96232D01*
X424884Y97116D01*
X433884Y106116D01*
X433884Y106116D01*
X434768Y107439D01*
X435078Y109000D01*
X435078Y109000D01*
Y117245D01*
X446000D01*
Y126595D01*
X417600D01*
Y117245D01*
X426922D01*
Y110689D01*
X420311Y104078D01*
X406601D01*
X406351Y104441D01*
X406116Y105348D01*
X414884Y114116D01*
X414884Y114116D01*
X415768Y115439D01*
X416078Y117000D01*
Y127311D01*
X418634Y129867D01*
X431125D01*
X431125Y129867D01*
X431519Y129945D01*
X446000D01*
Y139295D01*
X417600D01*
Y138997D01*
X416945Y138023D01*
X415384Y137713D01*
X414061Y136829D01*
X414061Y136829D01*
X409116Y131884D01*
X408232Y130561D01*
X407922Y129000D01*
X407922Y129000D01*
Y118689D01*
X401311Y112078D01*
X166906D01*
X165850Y113333D01*
X165850Y120163D01*
X165850Y120267D01*
X165854Y120358D01*
X166050Y121309D01*
X167001Y121506D01*
X167093Y121510D01*
X167197Y121510D01*
X183824D01*
Y129432D01*
X186024D01*
X186339Y129116D01*
X187662Y128232D01*
X189223Y127922D01*
X189223Y127922D01*
X195223D01*
Y126516D01*
X205843D01*
Y137644D01*
X195223D01*
Y136078D01*
X192602D01*
X192307Y136504D01*
X192039Y137348D01*
X192768Y138439D01*
X193078Y140000D01*
X192768Y141561D01*
X192707Y141652D01*
X193386Y142922D01*
X195223D01*
Y141756D01*
X205843D01*
Y152884D01*
X198280D01*
X197894Y154154D01*
X198661Y154666D01*
X200991Y156996D01*
X205843D01*
Y168124D01*
X199825D01*
X199339Y169297D01*
X201980Y171938D01*
X201980Y171938D01*
X202179Y172236D01*
X205716D01*
Y183364D01*
X195096D01*
Y176884D01*
X195031Y176556D01*
X194255Y176036D01*
X193499Y176346D01*
X193078Y176630D01*
Y186922D01*
X194780D01*
Y185000D01*
X205780D01*
Y196000D01*
X205780D01*
X206123Y197128D01*
X207367Y197128D01*
X208153Y196184D01*
Y196088D01*
X209740D01*
Y191770D01*
X216280D01*
X222820D01*
Y197040D01*
X221361D01*
Y201930D01*
X214757D01*
Y203200D01*
X213487D01*
Y210312D01*
X208153D01*
Y210216D01*
X207367Y209272D01*
X206883Y209272D01*
X196239D01*
Y208298D01*
X178643D01*
X176692Y207910D01*
X175038Y206805D01*
X168029Y199796D01*
X165850D01*
Y203564D01*
X157928D01*
Y214161D01*
X162236Y218469D01*
X162600Y218541D01*
X174414D01*
Y238559D01*
X170326D01*
Y243112D01*
X172186D01*
Y254112D01*
X160186D01*
Y243112D01*
X162170D01*
Y238559D01*
X158206D01*
Y225791D01*
X157657Y225425D01*
X157657Y225425D01*
X150966Y218734D01*
X150662Y218279D01*
X149169Y218330D01*
X148694Y219041D01*
X148694Y219041D01*
X143426Y224309D01*
Y238559D01*
X139300D01*
Y243338D01*
X141122D01*
Y254338D01*
D02*
G37*
G36*
X353000Y230078D02*
X351439Y229768D01*
X350116Y228884D01*
X349232Y227561D01*
X348922Y226000D01*
Y223590D01*
X346990D01*
Y212590D01*
X357990D01*
Y223590D01*
X357078D01*
Y226000D01*
X356768Y227561D01*
X355884Y228884D01*
X354561Y229768D01*
X353000Y230078D01*
D02*
G37*
G36*
X221361Y210312D02*
X216027D01*
Y204470D01*
X221361D01*
Y210312D01*
D02*
G37*
G36*
X352743Y210202D02*
X347409D01*
Y204360D01*
X352743D01*
Y210202D01*
D02*
G37*
G36*
X59500Y203789D02*
X54230D01*
Y198519D01*
X59500D01*
Y203789D01*
D02*
G37*
G36*
X51690D02*
X46420D01*
Y198519D01*
X51690D01*
Y203789D01*
D02*
G37*
G36*
X352743Y201820D02*
X347409D01*
Y195978D01*
X352743D01*
Y201820D01*
D02*
G37*
G36*
X492760Y178435D02*
X478790D01*
Y173990D01*
X492760D01*
Y178435D01*
D02*
G37*
G36*
X476250D02*
X462280D01*
Y173990D01*
X476250D01*
Y178435D01*
D02*
G37*
G36*
X492760Y171450D02*
X478790D01*
Y167005D01*
X492760D01*
Y171450D01*
D02*
G37*
G36*
X476250D02*
X462280D01*
Y167005D01*
X476250D01*
Y171450D01*
D02*
G37*
G36*
X44540Y164653D02*
X39270D01*
Y159383D01*
X44540D01*
Y164653D01*
D02*
G37*
G36*
X36730D02*
X31460D01*
Y159383D01*
X36730D01*
Y164653D01*
D02*
G37*
G36*
X491720Y164695D02*
X463320D01*
Y155345D01*
X491720D01*
Y164695D01*
D02*
G37*
G36*
X446000D02*
X417600D01*
Y155345D01*
X446000D01*
Y164695D01*
D02*
G37*
G36*
X222820Y189230D02*
X216280D01*
X209740D01*
Y184282D01*
X209740Y183960D01*
X210590Y183042D01*
X210590Y182690D01*
Y172236D01*
X221210D01*
Y173922D01*
X228000D01*
X228000Y173922D01*
X229561Y174232D01*
X229885Y174449D01*
X230695Y173462D01*
X223871Y166638D01*
X221337D01*
Y168124D01*
X210717D01*
Y156996D01*
X221337D01*
Y158482D01*
X225560D01*
X225560Y158482D01*
X227121Y158792D01*
X228444Y159676D01*
X240677Y171909D01*
X241345Y171813D01*
X241636Y171154D01*
X241709Y170477D01*
X222719Y151486D01*
X221337D01*
Y152884D01*
X210717D01*
Y141756D01*
X221337D01*
Y143330D01*
X224408D01*
X224408Y143330D01*
X225969Y143640D01*
X227292Y144524D01*
X246439Y163672D01*
X252000D01*
Y163000D01*
X263500D01*
Y171500D01*
Y179922D01*
X266500D01*
Y171500D01*
Y163000D01*
X267922D01*
Y159000D01*
X268232Y157439D01*
X269116Y156116D01*
X270439Y155232D01*
X272000Y154922D01*
X273561Y155232D01*
X274884Y156116D01*
X275768Y157439D01*
X276078Y159000D01*
Y163000D01*
X278000D01*
Y171500D01*
Y181000D01*
X277078D01*
X276768Y182561D01*
X275884Y183884D01*
X275884Y183884D01*
X272884Y186884D01*
X271561Y187768D01*
X270000Y188078D01*
X270000Y188078D01*
X234000D01*
X234000Y188078D01*
X232439Y187768D01*
X231116Y186884D01*
X231116Y186884D01*
X226311Y182078D01*
X222108D01*
X221894Y182292D01*
X222095Y183880D01*
X222233Y183960D01*
X222820D01*
Y189230D01*
D02*
G37*
G36*
X262250Y152500D02*
X251250D01*
Y151078D01*
X240000D01*
X240000Y151078D01*
X238439Y150768D01*
X237116Y149884D01*
X223391Y136158D01*
X221337D01*
Y137644D01*
X210717D01*
Y126516D01*
X221337D01*
Y128002D01*
X225080D01*
X225080Y128002D01*
X226641Y128312D01*
X227964Y129196D01*
X241689Y142922D01*
X251250D01*
Y141500D01*
X262250D01*
Y152500D01*
D02*
G37*
G36*
X492760Y153035D02*
X478790D01*
Y148590D01*
X492760D01*
Y153035D01*
D02*
G37*
G36*
X476250D02*
X462280D01*
Y148590D01*
X476250D01*
Y153035D01*
D02*
G37*
G36*
X279790Y153540D02*
X274520D01*
Y148270D01*
X279790D01*
Y153540D01*
D02*
G37*
G36*
X271980D02*
X266710D01*
Y148270D01*
X271980D01*
Y153540D01*
D02*
G37*
G36*
X446000Y151995D02*
X417600D01*
Y142645D01*
X446000D01*
Y151995D01*
D02*
G37*
G36*
X492760Y146050D02*
X478790D01*
Y141605D01*
X492760D01*
Y146050D01*
D02*
G37*
G36*
X476250D02*
X462280D01*
Y141605D01*
X476250D01*
Y146050D01*
D02*
G37*
G36*
X279790Y145730D02*
X274520D01*
Y140460D01*
X279790D01*
Y145730D01*
D02*
G37*
G36*
X271980D02*
X266710D01*
Y140460D01*
X271980D01*
Y145730D01*
D02*
G37*
G36*
X492760Y140335D02*
X478790D01*
Y135890D01*
X492760D01*
Y140335D01*
D02*
G37*
G36*
X476250D02*
X462280D01*
Y135890D01*
X476250D01*
Y140335D01*
D02*
G37*
G36*
X30414Y139652D02*
X21524D01*
Y130762D01*
X30414D01*
Y139652D01*
D02*
G37*
G36*
X18984D02*
X10094D01*
Y130762D01*
X18984D01*
Y139652D01*
D02*
G37*
G36*
X492760Y133350D02*
X478790D01*
Y128905D01*
X492760D01*
Y133350D01*
D02*
G37*
G36*
X476250D02*
X462280D01*
Y128905D01*
X476250D01*
Y133350D01*
D02*
G37*
G36*
X397540Y134540D02*
X380270D01*
Y128270D01*
X397540D01*
Y134540D01*
D02*
G37*
G36*
X377730D02*
X360460D01*
Y128270D01*
X377730D01*
Y134540D01*
D02*
G37*
G36*
X337540D02*
X320270D01*
Y128270D01*
X337540D01*
Y134540D01*
D02*
G37*
G36*
X317730D02*
X300460D01*
Y128270D01*
X317730D01*
Y134540D01*
D02*
G37*
G36*
X91392Y124280D02*
X82756D01*
Y122285D01*
Y120470D01*
X91392D01*
Y124280D01*
D02*
G37*
G36*
X397540Y125730D02*
X380270D01*
Y119460D01*
X397540D01*
Y125730D01*
D02*
G37*
G36*
X377730D02*
X360460D01*
Y119460D01*
X377730D01*
Y125730D01*
D02*
G37*
G36*
X337540D02*
X320270D01*
Y119460D01*
X337540D01*
Y125730D01*
D02*
G37*
G36*
X317730D02*
X300460D01*
Y119460D01*
X317730D01*
Y125730D01*
D02*
G37*
G36*
X30414Y128222D02*
X21524D01*
Y119332D01*
X30414D01*
Y128222D01*
D02*
G37*
G36*
X18984D02*
X10094D01*
Y119332D01*
X18984D01*
Y128222D01*
D02*
G37*
G36*
X446000Y177395D02*
X417600D01*
Y168045D01*
X446000D01*
Y168586D01*
X447382D01*
X447922Y168046D01*
Y106689D01*
X430976Y89744D01*
X430092Y88421D01*
X429782Y86860D01*
X429782Y86860D01*
Y72220D01*
X416360D01*
Y69798D01*
X391360D01*
Y72220D01*
X370078D01*
Y78000D01*
X370078Y78000D01*
X369768Y79561D01*
X368884Y80884D01*
X362684Y87084D01*
X361361Y87968D01*
X359800Y88278D01*
X359800Y88278D01*
X350940D01*
Y89700D01*
X339940D01*
Y88278D01*
X331723D01*
X331723Y88278D01*
X331535Y88241D01*
X324128D01*
Y88078D01*
X322000D01*
X320439Y87768D01*
X319116Y86884D01*
X318232Y85561D01*
X317922Y84000D01*
X318232Y82439D01*
X319116Y81116D01*
X320439Y80232D01*
X322000Y79922D01*
X323230D01*
X324128Y79024D01*
X324128Y77113D01*
X323184Y76327D01*
X323088D01*
Y70993D01*
X330200D01*
X337312D01*
Y76327D01*
X337216D01*
X336272Y77113D01*
X336272Y77597D01*
Y80122D01*
X339940D01*
Y78700D01*
X350940D01*
Y80122D01*
X358111D01*
X361922Y76311D01*
Y72220D01*
X356360D01*
Y59220D01*
X391360D01*
Y61642D01*
X416360D01*
Y59220D01*
X451360D01*
Y72220D01*
X437938D01*
Y85171D01*
X454884Y102116D01*
X454884Y102116D01*
X455768Y103439D01*
X456078Y105000D01*
X456078Y105000D01*
Y118398D01*
X456545Y118721D01*
X457348Y118934D01*
X458519Y118152D01*
X460080Y117842D01*
X460080Y117842D01*
X464578D01*
X465203Y117424D01*
X466408Y117184D01*
X488633D01*
X489837Y117424D01*
X490858Y118106D01*
X491541Y119128D01*
X491781Y120332D01*
Y123507D01*
X491541Y124712D01*
X490858Y125733D01*
X489837Y126416D01*
X488633Y126656D01*
X466408D01*
X465203Y126416D01*
X464578Y125998D01*
X460402D01*
X460000Y126078D01*
X458439Y125768D01*
X457348Y125039D01*
X456504Y125308D01*
X456078Y125602D01*
Y169735D01*
X455768Y171296D01*
X454884Y172619D01*
X454884Y172619D01*
X451955Y175548D01*
X450632Y176432D01*
X449071Y176743D01*
X449071Y176743D01*
X446000D01*
Y177395D01*
D02*
G37*
G36*
X59119Y89264D02*
X53277D01*
Y83930D01*
X59119D01*
Y89264D01*
D02*
G37*
G36*
X77000Y106529D02*
X75049Y106141D01*
X73395Y105036D01*
X64994Y96635D01*
X63889Y94981D01*
X63501Y93030D01*
Y89700D01*
X63080D01*
Y78700D01*
X74080D01*
Y89700D01*
X73821D01*
X73748Y90970D01*
X80605Y97827D01*
X81710Y99480D01*
X82098Y101431D01*
X81710Y103382D01*
X80605Y105036D01*
X78951Y106141D01*
X77000Y106529D01*
D02*
G37*
G36*
X481270Y80080D02*
Y71270D01*
X490080D01*
X489898Y72652D01*
X488875Y75124D01*
X487246Y77246D01*
X485124Y78875D01*
X482652Y79899D01*
X481270Y80080D01*
D02*
G37*
G36*
X478730D02*
X477348Y79899D01*
X474876Y78875D01*
X472754Y77246D01*
X471125Y75124D01*
X470102Y72652D01*
X469920Y71270D01*
X478730D01*
Y80080D01*
D02*
G37*
G36*
X337312Y68453D02*
X331470D01*
Y63119D01*
X337312D01*
Y68453D01*
D02*
G37*
G36*
X328930D02*
X323088D01*
Y63119D01*
X328930D01*
Y68453D01*
D02*
G37*
G36*
X197612D02*
X191770D01*
Y63119D01*
X197612D01*
Y68453D01*
D02*
G37*
G36*
X189230D02*
X183388D01*
Y63119D01*
X189230D01*
Y68453D01*
D02*
G37*
G36*
X490080Y68730D02*
X481270D01*
Y59920D01*
X482652Y60101D01*
X485124Y61125D01*
X487246Y62754D01*
X488875Y64876D01*
X489898Y67348D01*
X490080Y68730D01*
D02*
G37*
G36*
X478730D02*
X469920D01*
X470102Y67348D01*
X471125Y64876D01*
X472754Y62754D01*
X474876Y61125D01*
X477348Y60101D01*
X478730Y59920D01*
Y68730D01*
D02*
G37*
G36*
X350940Y73700D02*
X339940D01*
Y62700D01*
X340922D01*
Y60000D01*
X341232Y58439D01*
X342116Y57116D01*
X343439Y56232D01*
X345000Y55922D01*
X346561Y56232D01*
X347884Y57116D01*
X348768Y58439D01*
X349078Y60000D01*
Y62700D01*
X350940D01*
Y73700D01*
D02*
G37*
G36*
X211240D02*
X200240D01*
Y62700D01*
X200922D01*
Y60000D01*
X201232Y58439D01*
X202116Y57116D01*
X203439Y56232D01*
X205000Y55922D01*
X206561Y56232D01*
X207884Y57116D01*
X208768Y58439D01*
X209078Y60000D01*
Y62700D01*
X211240D01*
Y73700D01*
D02*
G37*
G36*
X481270Y55080D02*
Y46270D01*
X490080D01*
X489898Y47652D01*
X488875Y50124D01*
X487246Y52246D01*
X485124Y53875D01*
X482652Y54899D01*
X481270Y55080D01*
D02*
G37*
G36*
X478730D02*
X477348Y54899D01*
X474876Y53875D01*
X472754Y52246D01*
X471125Y50124D01*
X470102Y47652D01*
X469920Y46270D01*
X478730D01*
Y55080D01*
D02*
G37*
G36*
X490080Y43730D02*
X481270D01*
Y34920D01*
X482652Y35101D01*
X485124Y36125D01*
X487246Y37754D01*
X488875Y39876D01*
X489898Y42348D01*
X490080Y43730D01*
D02*
G37*
G36*
X478730D02*
X469920D01*
X470102Y42348D01*
X471125Y39876D01*
X472754Y37754D01*
X474876Y36125D01*
X477348Y35101D01*
X478730Y34920D01*
Y43730D01*
D02*
G37*
G36*
X452400Y33260D02*
X435130D01*
Y26990D01*
X452400D01*
Y33260D01*
D02*
G37*
G36*
X392400D02*
X375130D01*
Y26990D01*
X392400D01*
Y33260D01*
D02*
G37*
G36*
X372590D02*
X355320D01*
Y26990D01*
X372590D01*
Y33260D01*
D02*
G37*
G36*
X432590D02*
X415320D01*
Y26990D01*
X432590D01*
Y33260D01*
D02*
G37*
G36*
X177037Y32237D02*
X168020D01*
Y24490D01*
X177037D01*
Y32237D01*
D02*
G37*
G36*
X97537D02*
X88520D01*
Y24490D01*
X97537D01*
Y32237D01*
D02*
G37*
G36*
X237237D02*
X228220D01*
Y24490D01*
X237237D01*
Y32237D01*
D02*
G37*
G36*
X316737D02*
X307720D01*
Y24490D01*
X316737D01*
Y32237D01*
D02*
G37*
G36*
X85980D02*
X76963D01*
Y24490D01*
X85980D01*
Y32237D01*
D02*
G37*
G36*
X165480D02*
X156463D01*
Y24490D01*
X165480D01*
Y32237D01*
D02*
G37*
G36*
X305180D02*
X296163D01*
Y24490D01*
X305180D01*
Y32237D01*
D02*
G37*
G36*
X225680D02*
X216663D01*
Y24490D01*
X225680D01*
Y32237D01*
D02*
G37*
G36*
X166750Y23220D02*
D01*
D01*
D01*
D02*
G37*
G36*
X452400Y24450D02*
X435130D01*
Y18180D01*
X452400D01*
Y24450D01*
D02*
G37*
G36*
X432590D02*
X415320D01*
Y18180D01*
X432590D01*
Y24450D01*
D02*
G37*
G36*
X392400D02*
X375130D01*
Y18180D01*
X392400D01*
Y24450D01*
D02*
G37*
G36*
X372590D02*
X355320D01*
Y18180D01*
X372590D01*
Y24450D01*
D02*
G37*
G36*
X316737Y21950D02*
X307720D01*
Y14203D01*
X316737D01*
Y21950D01*
D02*
G37*
G36*
X305180D02*
X296163D01*
Y14203D01*
X305180D01*
Y21950D01*
D02*
G37*
G36*
X237237D02*
X228220D01*
Y14203D01*
X237237D01*
Y21950D01*
D02*
G37*
G36*
X225680D02*
X216663D01*
Y14203D01*
X225680D01*
Y21950D01*
D02*
G37*
G36*
X177037D02*
X168020D01*
Y14203D01*
X177037D01*
Y21950D01*
D02*
G37*
G36*
X165480D02*
X156463D01*
Y14203D01*
X165480D01*
Y21950D01*
D02*
G37*
G36*
X97537D02*
X88520D01*
Y14203D01*
X97537D01*
Y21950D01*
D02*
G37*
G36*
X85980D02*
X76963D01*
Y14203D01*
X85980D01*
Y21950D01*
D02*
G37*
G36*
X480000Y30086D02*
X477389Y29743D01*
X474957Y28735D01*
X472868Y27132D01*
X471265Y25043D01*
X470257Y22610D01*
X469914Y20000D01*
X470257Y17390D01*
X471265Y14957D01*
X472868Y12868D01*
X474957Y11265D01*
X477389Y10257D01*
X480000Y9914D01*
X482611Y10257D01*
X485043Y11265D01*
X487132Y12868D01*
X488735Y14957D01*
X489743Y17390D01*
X490086Y20000D01*
X489743Y22610D01*
X488735Y25043D01*
X487132Y27132D01*
X485043Y28735D01*
X482611Y29743D01*
X480000Y30086D01*
D02*
G37*
G36*
X20000D02*
X17390Y29743D01*
X14957Y28735D01*
X12868Y27132D01*
X11265Y25043D01*
X10257Y22610D01*
X9914Y20000D01*
X10257Y17390D01*
X11265Y14957D01*
X12868Y12868D01*
X14957Y11265D01*
X17390Y10257D01*
X20000Y9914D01*
X22610Y10257D01*
X25043Y11265D01*
X27132Y12868D01*
X28735Y14957D01*
X29743Y17390D01*
X30086Y20000D01*
X29743Y22610D01*
X28735Y25043D01*
X27132Y27132D01*
X25043Y28735D01*
X22610Y29743D01*
X20000Y30086D01*
D02*
G37*
%LPD*%
G36*
X425748Y731677D02*
X424461Y729999D01*
X423542Y727781D01*
X423303Y725971D01*
X421990Y725488D01*
X420775Y726704D01*
X419534Y727532D01*
X418071Y727823D01*
X357900D01*
X357805Y727965D01*
X355986Y729181D01*
X355123Y729353D01*
Y730647D01*
X355986Y730819D01*
X357805Y732035D01*
X358414Y732947D01*
X425381D01*
X425748Y731677D01*
D02*
G37*
G36*
X448942Y723019D02*
X449861Y720801D01*
X451323Y718895D01*
X453228Y717434D01*
X455446Y716515D01*
X457827Y716201D01*
X460208Y716515D01*
X460984Y716836D01*
X474427Y703393D01*
Y457094D01*
X450416Y433083D01*
X446000D01*
Y433935D01*
X417600D01*
Y424585D01*
X446000D01*
Y424585D01*
X447177Y424360D01*
Y421460D01*
X446000Y421235D01*
X445907Y421235D01*
X417600D01*
Y411885D01*
X445907D01*
X446000Y411885D01*
X447177Y411660D01*
Y408760D01*
X446000Y408535D01*
X445907Y408535D01*
X417600D01*
Y399185D01*
X445907D01*
X446000Y399185D01*
X447177Y398960D01*
Y396060D01*
X446000Y395835D01*
X445907Y395835D01*
X417600D01*
Y395835D01*
X416330Y395577D01*
X415704Y396204D01*
X414463Y397033D01*
X413000Y397323D01*
X411537Y397033D01*
X410296Y396204D01*
X409468Y394963D01*
X409177Y393500D01*
X409200Y393382D01*
X408187Y391963D01*
X407908Y391924D01*
X407704Y392128D01*
X406463Y392957D01*
X405000Y393248D01*
X403537Y392957D01*
X402878Y392517D01*
X401608Y393196D01*
Y448000D01*
X401608Y448000D01*
Y485853D01*
X402781Y486339D01*
X417743Y471376D01*
X418984Y470548D01*
X420447Y470257D01*
X442565D01*
X444028Y470548D01*
X445269Y471376D01*
X456561Y482668D01*
X457827Y482501D01*
X460208Y482815D01*
X462426Y483734D01*
X464332Y485196D01*
X465793Y487101D01*
X466712Y489319D01*
X467026Y491700D01*
X466712Y494081D01*
X465793Y496299D01*
X464332Y498204D01*
X462426Y499666D01*
X460208Y500585D01*
X457827Y500899D01*
X455446Y500585D01*
X453228Y499666D01*
X451323Y498204D01*
X450682Y497370D01*
X449412Y497801D01*
Y503835D01*
X454276Y508699D01*
X455446Y508215D01*
X457827Y507901D01*
X460208Y508215D01*
X462426Y509134D01*
X464332Y510596D01*
X465793Y512501D01*
X466712Y514719D01*
X467026Y517100D01*
X466712Y519481D01*
X465793Y521699D01*
X464332Y523605D01*
X462763Y524808D01*
X462747Y524851D01*
X462735Y525967D01*
X462839Y526270D01*
X463578Y526764D01*
X471901Y535087D01*
X472729Y536327D01*
X473020Y537790D01*
Y556530D01*
X472729Y557993D01*
X471901Y559234D01*
X466391Y564743D01*
X466712Y565519D01*
X467026Y567900D01*
X466712Y570281D01*
X465793Y572499D01*
X464332Y574404D01*
X462426Y575866D01*
X460208Y576785D01*
X457827Y577099D01*
X455446Y576785D01*
X453228Y575866D01*
X451323Y574404D01*
X449861Y572499D01*
X448942Y570281D01*
X448628Y567900D01*
X448942Y565519D01*
X449861Y563301D01*
X451323Y561395D01*
X453228Y559934D01*
X455446Y559015D01*
X457827Y558701D01*
X460208Y559015D01*
X460984Y559336D01*
X465374Y554946D01*
Y549546D01*
X464104Y549179D01*
X462426Y550466D01*
X460208Y551385D01*
X457827Y551699D01*
X455446Y551385D01*
X453228Y550466D01*
X451323Y549005D01*
X449861Y547099D01*
X448942Y544881D01*
X448628Y542500D01*
X448942Y540119D01*
X449263Y539343D01*
X444873Y534953D01*
X439473D01*
X439106Y536223D01*
X440393Y537901D01*
X441312Y540119D01*
X441626Y542500D01*
X441312Y544881D01*
X440393Y547099D01*
X438932Y549005D01*
X437026Y550466D01*
X434808Y551385D01*
X432427Y551699D01*
X430046Y551385D01*
X429270Y551064D01*
X423823Y556511D01*
Y562045D01*
X425093Y562476D01*
X425923Y561395D01*
X427828Y559934D01*
X430046Y559015D01*
X432427Y558701D01*
X434808Y559015D01*
X437026Y559934D01*
X438932Y561395D01*
X440393Y563301D01*
X441312Y565519D01*
X441626Y567900D01*
X441312Y570281D01*
X440991Y571057D01*
X446247Y576312D01*
X447075Y577553D01*
X447366Y579016D01*
Y588686D01*
X448636Y588938D01*
X448952Y588176D01*
X450581Y586054D01*
X452703Y584425D01*
X455175Y583401D01*
X456557Y583219D01*
Y593300D01*
Y603381D01*
X455175Y603199D01*
X452703Y602175D01*
X450581Y600546D01*
X448952Y598424D01*
X448636Y597662D01*
X447366Y597914D01*
Y619296D01*
X447075Y620759D01*
X446247Y621999D01*
X428782Y639464D01*
X429502Y640540D01*
X430046Y640315D01*
X432427Y640001D01*
X434808Y640315D01*
X437026Y641234D01*
X438932Y642695D01*
X440393Y644601D01*
X441312Y646819D01*
X441626Y649200D01*
X441312Y651581D01*
X440393Y653799D01*
X438932Y655704D01*
X437026Y657166D01*
X434808Y658085D01*
X432427Y658399D01*
X430046Y658085D01*
X428827Y657580D01*
X424823Y661584D01*
Y667653D01*
X426093Y667964D01*
X427828Y666634D01*
X430046Y665715D01*
X432427Y665401D01*
X434808Y665715D01*
X437026Y666634D01*
X438932Y668095D01*
X440393Y670001D01*
X441312Y672219D01*
X441626Y674600D01*
X441312Y676981D01*
X440991Y677757D01*
X446501Y683266D01*
X447329Y684507D01*
X447620Y685970D01*
Y697926D01*
X448890Y698009D01*
X448942Y697619D01*
X449861Y695401D01*
X451323Y693495D01*
X453228Y692034D01*
X455446Y691115D01*
X457827Y690801D01*
X460208Y691115D01*
X462426Y692034D01*
X464332Y693495D01*
X465793Y695401D01*
X466712Y697619D01*
X467026Y700000D01*
X466712Y702381D01*
X465793Y704599D01*
X464332Y706505D01*
X462426Y707966D01*
X460208Y708885D01*
X457827Y709199D01*
X455446Y708885D01*
X453228Y707966D01*
X451323Y706505D01*
X449861Y704599D01*
X448942Y702381D01*
X448890Y701991D01*
X447620Y702074D01*
Y723326D01*
X448890Y723409D01*
X448942Y723019D01*
D02*
G37*
G36*
X417177Y719487D02*
Y660000D01*
X417468Y658537D01*
X418296Y657296D01*
X423680Y651913D01*
X423542Y651581D01*
X423228Y649200D01*
X423542Y646819D01*
X423767Y646275D01*
X422691Y645555D01*
X401542Y666704D01*
X400302Y667532D01*
X398839Y667823D01*
X357900D01*
X357805Y667965D01*
X355986Y669181D01*
X355123Y669353D01*
Y670648D01*
X355986Y670819D01*
X357805Y672035D01*
X357900Y672177D01*
X409718D01*
X411000Y671922D01*
X412561Y672232D01*
X413884Y673116D01*
X414768Y674439D01*
X415078Y676000D01*
X414768Y677561D01*
X413884Y678884D01*
Y678884D01*
X412561Y679768D01*
X411000Y680078D01*
X409718Y679824D01*
X357900D01*
X357805Y679965D01*
X355986Y681181D01*
X355123Y681353D01*
Y682647D01*
X355986Y682819D01*
X357805Y684035D01*
X357900Y684177D01*
X408000D01*
X409463Y684468D01*
X410704Y685296D01*
X411532Y686537D01*
X411823Y688000D01*
X411532Y689463D01*
X410704Y690704D01*
X409463Y691532D01*
X408000Y691823D01*
X357900D01*
X357805Y691965D01*
X355986Y693181D01*
X355123Y693353D01*
Y694647D01*
X355986Y694819D01*
X357805Y696035D01*
X357900Y696177D01*
X381000D01*
X382463Y696468D01*
X383704Y697296D01*
X398704Y712296D01*
X399532Y713537D01*
X399823Y715000D01*
X399532Y716463D01*
X398704Y717704D01*
X397463Y718532D01*
X396000Y718823D01*
X394537Y718532D01*
X393296Y717704D01*
X381629Y706036D01*
X381327Y706174D01*
X380582Y706785D01*
X380823Y708000D01*
X380532Y709463D01*
X379704Y710704D01*
X375704Y714704D01*
X374463Y715532D01*
X373000Y715823D01*
X357900D01*
X357805Y715965D01*
X355986Y717181D01*
X355123Y717353D01*
Y718647D01*
X355986Y718819D01*
X357805Y720035D01*
X357900Y720177D01*
X416487D01*
X417177Y719487D01*
D02*
G37*
G36*
X400435Y656997D02*
X399949Y655823D01*
X357900D01*
X357805Y655965D01*
X355986Y657181D01*
X355123Y657353D01*
Y658647D01*
X355986Y658819D01*
X357805Y660035D01*
X357900Y660177D01*
X397255D01*
X400435Y656997D01*
D02*
G37*
G36*
X439720Y617712D02*
Y601912D01*
X423823D01*
Y631949D01*
X424997Y632435D01*
X439720Y617712D01*
D02*
G37*
G36*
X416177Y632416D02*
Y602027D01*
X414907Y601501D01*
X397704Y618704D01*
X396463Y619532D01*
X395000Y619823D01*
X357900D01*
X357805Y619965D01*
X355986Y621181D01*
X355123Y621353D01*
Y622647D01*
X355986Y622819D01*
X357805Y624035D01*
X359021Y625854D01*
X359448Y628000D01*
X359021Y630146D01*
X357805Y631965D01*
X355986Y633181D01*
X355123Y633353D01*
Y634647D01*
X355986Y634819D01*
X357805Y636035D01*
X357900Y636177D01*
X365000D01*
X366463Y636468D01*
X367704Y637296D01*
X368532Y638537D01*
X368823Y640000D01*
X368532Y641463D01*
X367704Y642704D01*
X366463Y643532D01*
X365000Y643823D01*
X357900D01*
X357805Y643965D01*
X355986Y645181D01*
X355123Y645353D01*
Y646647D01*
X355986Y646819D01*
X357805Y648035D01*
X357900Y648177D01*
X400416D01*
X416177Y632416D01*
D02*
G37*
G36*
X409177Y596416D02*
Y594785D01*
X407907Y594400D01*
X407704Y594704D01*
X395704Y606704D01*
X394463Y607532D01*
X393000Y607823D01*
X357900D01*
X357805Y607965D01*
X355986Y609181D01*
X355123Y609353D01*
Y610647D01*
X355986Y610819D01*
X357805Y612035D01*
X357900Y612177D01*
X393416D01*
X409177Y596416D01*
D02*
G37*
G36*
X401177Y590416D02*
Y587785D01*
X399907Y587400D01*
X399704Y587704D01*
X392704Y594704D01*
X391463Y595532D01*
X390000Y595823D01*
X357900D01*
X357805Y595965D01*
X355986Y597181D01*
X355123Y597353D01*
Y598647D01*
X355986Y598819D01*
X357805Y600035D01*
X357900Y600177D01*
X391416D01*
X401177Y590416D01*
D02*
G37*
G36*
X424166Y528426D02*
X425407Y527598D01*
X426870Y527307D01*
X430353D01*
X430436Y526037D01*
X430046Y525985D01*
X427828Y525066D01*
X425923Y523605D01*
X424461Y521699D01*
X423542Y519481D01*
X423228Y517100D01*
X423542Y514719D01*
X424461Y512501D01*
X425748Y510823D01*
X425381Y509553D01*
X422900D01*
X373750Y558704D01*
X372509Y559532D01*
X371046Y559823D01*
X357900D01*
X357805Y559965D01*
X355986Y561181D01*
X355123Y561353D01*
Y562647D01*
X355986Y562819D01*
X357636Y563922D01*
X375311D01*
X388116Y551116D01*
X389439Y550232D01*
X391000Y549922D01*
X392561Y550232D01*
X393884Y551116D01*
X394768Y552439D01*
X395078Y554000D01*
X394768Y555561D01*
X393884Y556884D01*
X379884Y570884D01*
X378561Y571768D01*
X377000Y572078D01*
X377000Y572078D01*
X357636D01*
X355986Y573181D01*
X355123Y573353D01*
Y574647D01*
X355986Y574819D01*
X357805Y576035D01*
X357900Y576177D01*
X376416D01*
X424166Y528426D01*
D02*
G37*
G36*
X394296Y582296D02*
X395537Y581468D01*
X397000Y581177D01*
X398463Y581468D01*
X399704Y582296D01*
X399907Y582600D01*
X401177Y582215D01*
Y569000D01*
X401468Y567537D01*
X402296Y566296D01*
X403537Y565468D01*
X405000Y565177D01*
X406463Y565468D01*
X407704Y566296D01*
X407907Y566600D01*
X409177Y566215D01*
Y559000D01*
X409468Y557537D01*
X410296Y556296D01*
X411537Y555468D01*
X413000Y555177D01*
X414463Y555468D01*
X414907Y555764D01*
X416177Y555085D01*
Y554927D01*
X416468Y553464D01*
X417296Y552223D01*
X423863Y545657D01*
X423542Y544881D01*
X423228Y542500D01*
X423308Y541895D01*
X422105Y541302D01*
X380704Y582704D01*
X379463Y583532D01*
X378000Y583823D01*
X357900D01*
X357805Y583965D01*
X355986Y585181D01*
X355123Y585353D01*
Y586647D01*
X355986Y586819D01*
X357805Y588035D01*
X357900Y588177D01*
X388416D01*
X394296Y582296D01*
D02*
G37*
G36*
X388827Y526173D02*
X388341Y525000D01*
X357349Y525000D01*
X357096Y526270D01*
X357138Y526287D01*
X358504Y527336D01*
X359553Y528702D01*
X360212Y530293D01*
X360269Y530730D01*
X349840D01*
Y533270D01*
X360269D01*
X360212Y533707D01*
X359553Y535298D01*
X358504Y536664D01*
X357757Y537238D01*
Y538762D01*
X358504Y539336D01*
X359553Y540702D01*
X360212Y542293D01*
X360269Y542730D01*
X349840D01*
Y545270D01*
X360269D01*
X360212Y545707D01*
X359553Y547298D01*
X358504Y548664D01*
X358419Y548730D01*
X358850Y550000D01*
X365000D01*
X388827Y526173D01*
D02*
G37*
G36*
X480045Y263771D02*
X478775Y263145D01*
X477623Y264030D01*
X475151Y265053D01*
X473769Y265235D01*
Y255155D01*
Y245074D01*
X475151Y245256D01*
X477623Y246280D01*
X478775Y247164D01*
X480045Y246538D01*
Y238615D01*
X457439Y238615D01*
X457439Y278615D01*
X480045Y278615D01*
Y263771D01*
D02*
G37*
%LPC*%
G36*
X457827Y683799D02*
X455446Y683485D01*
X453228Y682566D01*
X451323Y681105D01*
X449861Y679199D01*
X448942Y676981D01*
X448628Y674600D01*
X448942Y672219D01*
X449861Y670001D01*
X451323Y668095D01*
X453228Y666634D01*
X455446Y665715D01*
X457827Y665401D01*
X460208Y665715D01*
X462426Y666634D01*
X464332Y668095D01*
X465793Y670001D01*
X466712Y672219D01*
X467026Y674600D01*
X466712Y676981D01*
X465793Y679199D01*
X464332Y681105D01*
X462426Y682566D01*
X460208Y683485D01*
X457827Y683799D01*
D02*
G37*
G36*
Y658399D02*
X455446Y658085D01*
X453228Y657166D01*
X451323Y655704D01*
X449861Y653799D01*
X448942Y651581D01*
X448628Y649200D01*
X448942Y646819D01*
X449861Y644601D01*
X451323Y642695D01*
X453228Y641234D01*
X455446Y640315D01*
X457827Y640001D01*
X460208Y640315D01*
X462426Y641234D01*
X464332Y642695D01*
X465793Y644601D01*
X466712Y646819D01*
X467026Y649200D01*
X466712Y651581D01*
X465793Y653799D01*
X464332Y655704D01*
X462426Y657166D01*
X460208Y658085D01*
X457827Y658399D01*
D02*
G37*
G36*
X459097Y603381D02*
Y594570D01*
X467907D01*
X467725Y595952D01*
X466702Y598424D01*
X465073Y600546D01*
X462951Y602175D01*
X460479Y603199D01*
X459097Y603381D01*
D02*
G37*
G36*
X467907Y592030D02*
X459097D01*
Y583219D01*
X460479Y583401D01*
X462951Y584425D01*
X465073Y586054D01*
X466702Y588176D01*
X467725Y590648D01*
X467907Y592030D01*
D02*
G37*
G36*
X471229Y265235D02*
X469846Y265053D01*
X467375Y264030D01*
X465252Y262401D01*
X463624Y260278D01*
X462600Y257807D01*
X462418Y256425D01*
X471229D01*
Y265235D01*
D02*
G37*
G36*
Y253885D02*
X462418D01*
X462600Y252502D01*
X463624Y250031D01*
X465252Y247908D01*
X467375Y246280D01*
X469846Y245256D01*
X471229Y245074D01*
Y253885D01*
D02*
G37*
%LPD*%
G36*
X101156Y721698D02*
X116854Y706000D01*
X120830D01*
X121261Y704730D01*
X121176Y704664D01*
X120127Y703298D01*
X119468Y701707D01*
X119411Y701270D01*
X129840D01*
Y698730D01*
X119411D01*
X119468Y698293D01*
X120127Y696702D01*
X121176Y695336D01*
X121924Y694762D01*
Y693238D01*
X121176Y692664D01*
X120127Y691298D01*
X119468Y689707D01*
X119411Y689270D01*
X129840D01*
Y686730D01*
X119411D01*
X119468Y686293D01*
X120127Y684702D01*
X121176Y683336D01*
X121261Y683270D01*
X120830Y682000D01*
X108215D01*
X99700Y690514D01*
X99700Y690514D01*
X82849Y707366D01*
X83375Y708636D01*
X88370D01*
Y715240D01*
X89640D01*
Y716510D01*
X96752D01*
Y720803D01*
X97650Y721701D01*
X101156Y721698D01*
D02*
G37*
G36*
X121875Y504035D02*
X123694Y502819D01*
X124557Y502647D01*
Y501353D01*
X123694Y501181D01*
X121875Y499965D01*
X120659Y498146D01*
X120232Y496000D01*
X120659Y493854D01*
X121875Y492035D01*
X123694Y490819D01*
X124557Y490647D01*
Y489353D01*
X123694Y489181D01*
X121875Y487965D01*
X121737Y487759D01*
X107130D01*
Y500622D01*
X102967D01*
X102940Y500639D01*
X101380Y500950D01*
X99928Y500661D01*
X91849D01*
X90386Y500370D01*
X89145Y499541D01*
X88316Y498301D01*
X88025Y496838D01*
X88155Y496188D01*
X87003Y495467D01*
X86130Y495911D01*
Y500622D01*
X85825D01*
X85299Y501892D01*
X87584Y504177D01*
X121780D01*
X121875Y504035D01*
D02*
G37*
%LPC*%
G36*
X96752Y713970D02*
X90910D01*
Y708636D01*
X96752D01*
Y713970D01*
D02*
G37*
%LPD*%
G36*
X184412Y318250D02*
X182750D01*
Y317945D01*
X166048D01*
X165797Y317995D01*
X165797Y317995D01*
X163980D01*
Y322253D01*
X164316Y322477D01*
X165145Y323718D01*
X165436Y325181D01*
X165145Y326644D01*
X164593Y327470D01*
Y331670D01*
X164520Y332039D01*
Y336162D01*
X184412D01*
Y318250D01*
D02*
G37*
G36*
X367471Y260000D02*
X331000Y260000D01*
Y266395D01*
X336295D01*
Y271915D01*
X331505D01*
Y274455D01*
X336295D01*
Y279975D01*
X331000D01*
Y287131D01*
X332144Y287482D01*
X332270Y287470D01*
X333660Y285660D01*
X335517Y284235D01*
X337679Y283339D01*
X338730Y283200D01*
Y292000D01*
Y300800D01*
X337679Y300661D01*
X335517Y299765D01*
X333660Y298340D01*
X332270Y296530D01*
X332144Y296518D01*
X331000Y296869D01*
X331000Y310000D01*
X367471Y310000D01*
X367471Y260000D01*
D02*
G37*
%LPC*%
G36*
X341270Y300800D02*
Y293270D01*
X348800D01*
X348661Y294321D01*
X347765Y296483D01*
X346340Y298340D01*
X344483Y299765D01*
X342321Y300661D01*
X341270Y300800D01*
D02*
G37*
G36*
X348800Y290730D02*
X341270D01*
Y283200D01*
X342321Y283339D01*
X344483Y284235D01*
X346340Y285660D01*
X347765Y287517D01*
X348661Y289679D01*
X348800Y290730D01*
D02*
G37*
G36*
X97040Y323540D02*
X89270D01*
Y318770D01*
X97040D01*
Y323540D01*
D02*
G37*
G36*
Y316230D02*
X89270D01*
Y311460D01*
X97040D01*
Y316230D01*
D02*
G37*
%LPD*%
D16*
X157940Y319080D02*
X160190D01*
X160438Y319328D01*
X165911D01*
X163912Y310080D02*
X165210Y308782D01*
X157940Y310080D02*
X163912D01*
D18*
X88000Y317500D02*
D03*
Y300500D02*
D03*
X301720Y354720D02*
D03*
Y371720D02*
D03*
X299790Y256430D02*
D03*
Y273430D02*
D03*
D19*
X47035Y385985D02*
D03*
Y379485D02*
D03*
Y372985D02*
D03*
Y366485D02*
D03*
Y359985D02*
D03*
D21*
X431800Y172720D02*
D03*
X477520D02*
D03*
X431800Y160020D02*
D03*
X477520D02*
D03*
X431800Y147320D02*
D03*
X477520D02*
D03*
X431800Y134620D02*
D03*
X477520D02*
D03*
X431800Y121920D02*
D03*
X431800Y378460D02*
D03*
X477520Y391160D02*
D03*
X431800D02*
D03*
X477520Y403860D02*
D03*
X431800D02*
D03*
X477520Y416560D02*
D03*
X431800D02*
D03*
X477520Y429260D02*
D03*
X431800D02*
D03*
D22*
X477520Y121920D02*
D03*
X477520Y378460D02*
D03*
D23*
X166750Y23220D02*
D03*
Y68220D02*
D03*
X87250D02*
D03*
Y23220D02*
D03*
X226950D02*
D03*
Y68220D02*
D03*
X306450D02*
D03*
Y23220D02*
D03*
D24*
X129840Y784000D02*
D03*
Y772000D02*
D03*
Y760000D02*
D03*
X349840Y484000D02*
D03*
Y496000D02*
D03*
Y520000D02*
D03*
Y544000D02*
D03*
Y580000D02*
D03*
Y604000D02*
D03*
Y640000D02*
D03*
Y664000D02*
D03*
Y688000D02*
D03*
Y700000D02*
D03*
Y724000D02*
D03*
Y748000D02*
D03*
Y760000D02*
D03*
Y784000D02*
D03*
Y508000D02*
D03*
Y532000D02*
D03*
Y592000D02*
D03*
Y568000D02*
D03*
Y556000D02*
D03*
Y616000D02*
D03*
Y676000D02*
D03*
Y628000D02*
D03*
Y652000D02*
D03*
Y712000D02*
D03*
Y736000D02*
D03*
Y772000D02*
D03*
X129840Y484000D02*
D03*
Y496000D02*
D03*
Y520000D02*
D03*
Y544000D02*
D03*
Y580000D02*
D03*
Y604000D02*
D03*
Y640000D02*
D03*
Y664000D02*
D03*
Y688000D02*
D03*
Y700000D02*
D03*
Y532000D02*
D03*
Y508000D02*
D03*
Y616000D02*
D03*
Y556000D02*
D03*
Y568000D02*
D03*
Y592000D02*
D03*
Y652000D02*
D03*
Y628000D02*
D03*
Y676000D02*
D03*
Y712000D02*
D03*
D25*
X143840Y470000D02*
D03*
X155840D02*
D03*
X179840D02*
D03*
X203840D02*
D03*
X239840D02*
D03*
X263840D02*
D03*
X299840D02*
D03*
X323840D02*
D03*
X191840D02*
D03*
X167840D02*
D03*
X227840D02*
D03*
X215840D02*
D03*
X251840D02*
D03*
X275840D02*
D03*
X335840D02*
D03*
X311840D02*
D03*
X287840D02*
D03*
D27*
X46180Y317500D02*
D03*
X33226D02*
D03*
X354013Y203090D02*
D03*
X366967D02*
D03*
X89894Y626512D02*
D03*
X102848D02*
D03*
X201803Y203200D02*
D03*
X214757D02*
D03*
D28*
X89640Y728194D02*
D03*
Y715240D02*
D03*
X380000Y483523D02*
D03*
Y496477D02*
D03*
X330200Y82677D02*
D03*
Y69723D02*
D03*
X190500Y82677D02*
D03*
Y69723D02*
D03*
X52007Y69706D02*
D03*
Y82660D02*
D03*
D29*
X166186Y264612D02*
D03*
Y248612D02*
D03*
X135122Y264838D02*
D03*
Y248838D02*
D03*
D30*
X262290Y272931D02*
D03*
Y256929D02*
D03*
X263620Y371221D02*
D03*
Y355219D02*
D03*
D31*
X189000Y314000D02*
D03*
Y298000D02*
D03*
D32*
X57750Y761750D02*
D03*
Y776250D02*
D03*
X66250D02*
D03*
Y761750D02*
D03*
D34*
X257750Y176250D02*
D03*
X272250D02*
D03*
Y167750D02*
D03*
X257750D02*
D03*
D35*
X98000Y222250D02*
D03*
D36*
Y235750D02*
D03*
D37*
X52070Y266620D02*
D03*
Y256620D02*
D03*
D38*
X13320Y279620D02*
D03*
Y243620D02*
D03*
D39*
X224000Y307000D02*
D03*
X246000D02*
D03*
X223000Y404000D02*
D03*
X245000D02*
D03*
D40*
X76570Y545000D02*
D03*
X99430Y554525D02*
D03*
Y535475D02*
D03*
D41*
X17840Y194110D02*
D03*
Y217370D02*
D03*
X38040D02*
D03*
Y194110D02*
D03*
X27940D02*
D03*
Y217370D02*
D03*
X150380Y355220D02*
D03*
Y331960D02*
D03*
X160480D02*
D03*
Y355220D02*
D03*
X140280D02*
D03*
Y331960D02*
D03*
D42*
X73614Y385950D02*
D03*
Y379450D02*
D03*
Y372950D02*
D03*
X93172D02*
D03*
Y379450D02*
D03*
Y385950D02*
D03*
X95849Y266720D02*
D03*
Y260220D02*
D03*
Y253720D02*
D03*
X76291D02*
D03*
Y260220D02*
D03*
Y266720D02*
D03*
D43*
X47620Y302087D02*
D03*
X32126D02*
D03*
X354747Y400000D02*
D03*
X339253D02*
D03*
X200533Y132080D02*
D03*
X216027D02*
D03*
Y147320D02*
D03*
X200533D02*
D03*
X216027Y162560D02*
D03*
X200533D02*
D03*
X200406Y177800D02*
D03*
X215900D02*
D03*
X280253Y240000D02*
D03*
X295747D02*
D03*
X281146Y337820D02*
D03*
X296640D02*
D03*
D44*
X368490Y218090D02*
D03*
X352490D02*
D03*
X439099Y319751D02*
D03*
X455099D02*
D03*
X104371Y642362D02*
D03*
X88371D02*
D03*
X313000Y448000D02*
D03*
X329000D02*
D03*
X84000Y520000D02*
D03*
X100000D02*
D03*
X200280Y190500D02*
D03*
X216280D02*
D03*
X38000Y178000D02*
D03*
X22000D02*
D03*
X68960Y217306D02*
D03*
X52960D02*
D03*
Y205059D02*
D03*
X68960D02*
D03*
X38000Y165924D02*
D03*
X22000D02*
D03*
X439099Y229755D02*
D03*
X455099D02*
D03*
D45*
X72196Y729464D02*
D03*
Y713970D02*
D03*
X37350Y713666D02*
D03*
Y729160D02*
D03*
X54756Y729464D02*
D03*
Y713970D02*
D03*
X279790Y272677D02*
D03*
Y257183D02*
D03*
X123000Y302253D02*
D03*
Y317747D02*
D03*
X345000Y362253D02*
D03*
Y377747D02*
D03*
X281400Y370967D02*
D03*
Y355473D02*
D03*
X68040Y315087D02*
D03*
Y299593D02*
D03*
D46*
X256750Y147000D02*
D03*
X273250D02*
D03*
X345440Y68200D02*
D03*
Y84200D02*
D03*
X205740Y68200D02*
D03*
Y84200D02*
D03*
X68580Y84200D02*
D03*
Y68200D02*
D03*
D47*
X331505Y273185D02*
D03*
X316505D02*
D03*
D48*
X379000Y167000D02*
D03*
Y127000D02*
D03*
X319000D02*
D03*
Y167000D02*
D03*
X373860Y25720D02*
D03*
Y65720D02*
D03*
X433860D02*
D03*
Y25720D02*
D03*
D49*
X65500Y676750D02*
D03*
X20500D02*
D03*
Y597250D02*
D03*
X65500D02*
D03*
D50*
X174958Y181550D02*
D03*
Y173550D02*
D03*
Y165550D02*
D03*
Y157550D02*
D03*
Y149550D02*
D03*
Y141550D02*
D03*
Y133550D02*
D03*
Y125550D02*
D03*
X92662D02*
D03*
Y133550D02*
D03*
Y141550D02*
D03*
Y149550D02*
D03*
Y157550D02*
D03*
Y165550D02*
D03*
Y173550D02*
D03*
Y181550D02*
D03*
D51*
X161810Y112402D02*
D03*
X153810D02*
D03*
X145810D02*
D03*
X137810D02*
D03*
X129810D02*
D03*
X121810D02*
D03*
X113810D02*
D03*
X105810D02*
D03*
Y194698D02*
D03*
X113810D02*
D03*
X121810D02*
D03*
X129810D02*
D03*
X137810D02*
D03*
X145810D02*
D03*
X153810D02*
D03*
X161810D02*
D03*
D52*
X224180Y256540D02*
D03*
X243180D02*
D03*
Y278540D02*
D03*
X233680D02*
D03*
Y256540D02*
D03*
X223640Y354760D02*
D03*
X242640D02*
D03*
Y376760D02*
D03*
X233140D02*
D03*
Y354760D02*
D03*
D53*
X224180Y278540D02*
D03*
X223640Y376760D02*
D03*
D55*
X139440Y314580D02*
D03*
Y319080D02*
D03*
Y310080D02*
D03*
Y305580D02*
D03*
X157940D02*
D03*
Y310080D02*
D03*
Y314580D02*
D03*
Y319080D02*
D03*
D56*
X166310Y228550D02*
D03*
X135322D02*
D03*
D57*
X80380Y496872D02*
D03*
Y490372D02*
D03*
Y483872D02*
D03*
X101380Y496872D02*
D03*
Y490372D02*
D03*
Y483872D02*
D03*
D104*
X20285Y382985D02*
D03*
Y362985D02*
D03*
D105*
X20000Y20000D02*
D03*
X480000D02*
D03*
X20000Y780000D02*
D03*
D106*
X231840Y577000D02*
D03*
D107*
X375000Y785000D02*
D03*
X440000D02*
D03*
X317000Y293000D02*
D03*
X472240Y332831D02*
D03*
X420925D02*
D03*
X340000Y292000D02*
D03*
X420950Y216960D02*
D03*
X472258D02*
D03*
D108*
X148690Y312330D02*
D03*
D109*
X88000Y317500D02*
Y328000D01*
X90000Y330000D01*
X88000Y300500D02*
X88156Y300344D01*
X97000D01*
X93172Y385950D02*
X105000D01*
X98000Y235750D02*
X111750D01*
X87739Y235759D02*
X87748Y235750D01*
X98000D01*
X192000Y147000D02*
X200213D01*
X189450Y149550D02*
X192000Y147000D01*
X200213D02*
X200533Y147320D01*
X105000Y385950D02*
X146050D01*
X105000D02*
X106000Y384950D01*
Y303273D02*
Y384950D01*
X129629Y300918D02*
X139440D01*
X97000Y300344D02*
X103071D01*
X95849Y266720D02*
X96278D01*
X97000Y267442D01*
Y300344D01*
X103071D02*
X106000Y303273D01*
X123000Y313937D02*
X126857Y310080D01*
X123000Y313937D02*
Y317747D01*
X233651Y276872D02*
X234344Y276180D01*
X234000Y271000D02*
Y275835D01*
X234344Y276180D01*
X233651Y276872D02*
X234000Y277221D01*
X233680Y277540D02*
X234000Y277221D01*
X233680Y277540D02*
X234000Y277860D01*
X233820Y278040D02*
X234000Y277860D01*
X233820Y278040D02*
X234000Y278220D01*
X66500Y776000D02*
X76569D01*
X54756Y746756D02*
X57000Y749000D01*
X54756Y729464D02*
Y746756D01*
X143670Y340830D02*
X146790D01*
X150340Y332000D02*
Y337280D01*
X146790Y340830D02*
X150340Y337280D01*
Y332000D02*
X150380Y331960D01*
X329000Y448000D02*
X396000D01*
X396000Y448000D01*
X354727Y390228D02*
Y399474D01*
X355000Y399747D01*
X346000Y379000D02*
X355000D01*
X345000Y378000D02*
X346000Y379000D01*
X349840Y568000D02*
X377000D01*
X391000Y554000D01*
X459824Y391160D02*
X477520D01*
X459809Y391175D02*
X459824Y391160D01*
X459849Y404473D02*
X476907D01*
X477520Y403860D01*
X411000Y676000D02*
X411000Y676000D01*
X180000Y186000D02*
Y189000D01*
X179824Y185824D02*
X180000Y186000D01*
X72000Y461400D02*
X77400Y456000D01*
X47035Y385985D02*
X73614D01*
X375347Y362253D02*
X378000Y359600D01*
X345000Y362253D02*
X375347D01*
X87250Y23220D02*
X166750D01*
X88520Y68220D02*
X166750D01*
X101806Y728194D02*
X117426Y712574D01*
X239840Y470000D02*
X240000Y469840D01*
X349840Y532000D02*
X358999D01*
X77400Y456000D02*
X237000D01*
X349840Y474286D02*
Y484000D01*
Y784000D02*
X359000D01*
X118000Y676000D02*
X129840D01*
X113000Y764000D02*
Y772000D01*
X129266Y700574D02*
X129840Y700000D01*
X129840Y676000D02*
X129840Y676000D01*
X362000Y775000D02*
Y781000D01*
X113000Y772000D02*
X129840D01*
X358999Y532000D02*
X360269Y533270D01*
X113000Y772000D02*
Y780000D01*
X359000Y784000D02*
X362000Y781000D01*
X349840Y544000D02*
X350414Y543426D01*
X359000Y772000D02*
X362000Y775000D01*
X349840Y772000D02*
X359000D01*
X117000Y784000D02*
X129840D01*
X118000Y544000D02*
X129840D01*
X237000Y456000D02*
X240000Y459000D01*
X362574Y543426D02*
X364000Y542000D01*
X116378Y700574D02*
X129266D01*
X113000Y780000D02*
X117000Y784000D01*
X109000Y688000D02*
X129840D01*
X240000Y459000D02*
Y469840D01*
X350414Y543426D02*
X362574D01*
X335840Y470000D02*
X346782D01*
X117000Y760000D02*
X129840D01*
X113000Y764000D02*
X117000Y760000D01*
X322400Y407600D02*
X330000Y400000D01*
X339253D01*
X322400Y407600D02*
Y423000D01*
X174958Y181550D02*
X176188D01*
X176228Y181590D01*
Y186630D01*
X243180Y256540D02*
X243375Y256735D01*
X262290Y256929D02*
X262417Y257056D01*
X262095Y256735D02*
X262290Y256929D01*
X280021Y240231D02*
X280253Y240000D01*
X279790Y257183D02*
X280021Y256952D01*
X279663Y257056D02*
X279790Y257183D01*
X280021Y240231D02*
Y256952D01*
X233680Y278540D02*
X234000Y278220D01*
X233680Y278540D02*
X234430Y279290D01*
X262417Y257056D02*
X279663D01*
X234430Y286430D02*
X237000Y289000D01*
X234430Y279290D02*
Y286430D01*
X243375Y256735D02*
X262095D01*
X103500Y112000D02*
X105770Y114270D01*
X105810Y112402D02*
Y114230D01*
X105770Y114270D02*
X105810Y114230D01*
X330200Y82677D02*
X331723Y84200D01*
X359800D01*
X73000Y357000D02*
Y371923D01*
X412000Y117000D02*
Y129000D01*
X431125Y133945D02*
X431800Y134620D01*
X416945Y133945D02*
X431125D01*
X412000Y129000D02*
X416945Y133945D01*
X161850Y108000D02*
X403000D01*
X412000Y117000D01*
X161810Y108040D02*
Y112402D01*
Y108040D02*
X161850Y108000D01*
X68040Y287040D02*
Y299593D01*
X53628Y272628D02*
X68040Y287040D01*
X52070Y266620D02*
X53128D01*
X53628Y267120D01*
Y272628D01*
X73614Y385950D02*
Y385985D01*
X163119Y298000D02*
X189000D01*
X158940Y302179D02*
X163119Y298000D01*
X158940Y302179D02*
Y304330D01*
X273000Y146750D02*
X273088Y146662D01*
X20500Y597250D02*
Y676750D01*
X190500Y59938D02*
Y69723D01*
X79860Y125528D02*
X92640D01*
X68254D02*
X79860D01*
X56870Y266670D02*
X76241D01*
X52120D02*
X56870D01*
X52070Y266620D02*
X52120Y266670D01*
X76241D02*
X76291Y266720D01*
X160480Y355220D02*
Y371520D01*
X146050Y385950D02*
X160480Y371520D01*
X76570Y545000D02*
X107304D01*
X313000Y448000D02*
X313000Y448000D01*
X312414Y448586D02*
X313000Y448000D01*
X313000Y435000D02*
Y448000D01*
X174958Y141550D02*
X187450D01*
X189000Y140000D01*
X174958Y149550D02*
X189450D01*
X272000Y159000D02*
Y167500D01*
X281273Y355346D02*
X281400Y355473D01*
X281273Y337947D02*
Y355346D01*
X281146Y337820D02*
X281273Y337947D01*
X263620Y355219D02*
X263747Y355346D01*
X281273D01*
X242640Y354760D02*
X242869Y354990D01*
X263391D01*
X263620Y355219D01*
X242640Y376760D02*
X243000Y376400D01*
Y368000D02*
Y376400D01*
X230000Y365000D02*
X236000D01*
X233140Y376760D02*
X233890Y376010D01*
Y367110D02*
Y376010D01*
Y367110D02*
X236000Y365000D01*
X33000Y238000D02*
Y263071D01*
X36549Y266620D02*
X52070D01*
X33000Y263071D02*
X36549Y266620D01*
X27000Y232000D02*
X33000Y238000D01*
X11000Y226000D02*
X17000Y232000D01*
X27000D01*
X11000Y207000D02*
Y226000D01*
X27900Y194150D02*
Y198071D01*
X23435Y202535D02*
X27900Y198071D01*
X15465Y202535D02*
X23435D01*
X11000Y207000D02*
X15465Y202535D01*
X27900Y194150D02*
X27940Y194110D01*
X22000Y178000D02*
X27900Y183900D01*
Y194070D01*
X27940Y194110D01*
X92640Y125528D02*
X92662Y125550D01*
X79860Y125528D02*
X79951Y125619D01*
X373860Y25720D02*
X433860D01*
X319000Y127000D02*
X379000D01*
X226950Y23220D02*
X306450D01*
X135235Y264725D02*
X166073D01*
X189000Y176519D02*
Y189000D01*
X191000Y191000D01*
X174998Y173590D02*
X186071D01*
X189000Y176519D01*
X189824Y165550D02*
X199096Y174822D01*
Y176490D02*
X200406Y177800D01*
X199096Y174822D02*
Y176490D01*
X174958Y165550D02*
X189824D01*
X174958Y173550D02*
X174998Y173590D01*
X191000Y191000D02*
X198780D01*
X199780Y190000D01*
X117000Y209000D02*
X121770Y204230D01*
X137797Y194711D02*
Y208841D01*
X80250Y209750D02*
X101250D01*
X137797Y194711D02*
X137810Y194698D01*
X121770Y194738D02*
Y204230D01*
X105770Y194738D02*
Y205230D01*
X92662Y181550D02*
X94960D01*
X95000Y181590D02*
Y188000D01*
X121770Y194738D02*
X121810Y194698D01*
X101250Y209750D02*
X105770Y205230D01*
Y194738D02*
X105810Y194698D01*
X121810Y91810D02*
Y112402D01*
X94960Y181550D02*
X95000Y181590D01*
X118000Y88000D02*
X121810Y91810D01*
X99000Y519000D02*
X100000Y520000D01*
X99000Y514250D02*
Y519000D01*
X139440Y299515D02*
Y300918D01*
X123000Y302253D02*
X124310Y300943D01*
X129604D01*
X129629Y300918D01*
X126220Y355220D02*
X140280D01*
X123000Y352000D02*
X126220Y355220D01*
X123000Y317747D02*
Y352000D01*
X101346Y496838D02*
X101380Y496872D01*
X150380Y355220D02*
X150420Y355180D01*
X207240Y82700D02*
X222300D01*
X228000Y68220D02*
X306450D01*
X225732Y69438D02*
X226950Y68220D01*
X225732Y69438D02*
Y79268D01*
X222300Y82700D02*
X225732Y79268D01*
X205740Y84200D02*
X207240Y82700D01*
X80380Y476620D02*
Y483872D01*
X80357Y490394D02*
X80380Y490372D01*
X71674Y490394D02*
X80357D01*
X354747Y400000D02*
X355000Y399747D01*
X322000Y84000D02*
X328877D01*
X27940Y217370D02*
X27980Y217410D01*
X174958Y157550D02*
X195777D01*
X200533Y162306D01*
Y162560D01*
X37000Y159000D02*
Y164923D01*
X38000Y165924D01*
X52000Y198000D02*
Y204099D01*
X52960Y205059D01*
X135122Y264838D02*
X135235Y264725D01*
X166073D02*
X166186Y264612D01*
X345000Y67760D02*
X345440Y68200D01*
X345000Y60000D02*
Y67760D01*
X330000Y69523D02*
X330200Y69723D01*
X330000Y61000D02*
Y69523D01*
X51347Y82000D02*
X52007Y82660D01*
X43250Y82000D02*
X51347D01*
X205000Y67460D02*
X205740Y68200D01*
X205000Y60000D02*
Y67460D01*
X190478Y59916D02*
X190500Y59938D01*
X174998Y133510D02*
X187713D01*
X174958Y133550D02*
X174998Y133510D01*
X199303Y132080D02*
X200533D01*
X199223Y132000D02*
X199303Y132080D01*
X225080D02*
X240000Y147000D01*
X256750D01*
X477240Y173000D02*
X477520Y172720D01*
X460000Y173000D02*
X477240D01*
X460080Y121920D02*
X477520D01*
X460000Y122000D02*
X460080Y121920D01*
X476900Y134000D02*
X477520Y134620D01*
X460000Y134000D02*
X476900D01*
X476845Y147995D02*
X477520Y147320D01*
X460005Y147995D02*
X476845D01*
X460000Y148000D02*
X460005Y147995D01*
X433860Y86860D02*
X452000Y105000D01*
X431856Y172664D02*
X449071D01*
X452000Y169735D01*
Y105000D02*
Y169735D01*
X431800Y172720D02*
X431856Y172664D01*
X433860Y65720D02*
Y86860D01*
X99430Y554525D02*
X109409D01*
X109446Y554562D01*
X84000Y520000D02*
X84000Y520000D01*
X354000Y203077D02*
X354013Y203090D01*
X354000Y194000D02*
Y203077D01*
X352490Y218090D02*
X353000Y218600D01*
Y226000D01*
X273088Y139504D02*
Y146662D01*
X273000Y146750D02*
X273250Y147000D01*
X272000Y167500D02*
X272250Y167750D01*
X216115Y147408D02*
X224408D01*
X216027Y147320D02*
X216115Y147408D01*
X224408D02*
X244750Y167750D01*
X216027Y132080D02*
X225080D01*
X129840Y520000D02*
X129840Y520000D01*
X100000Y520000D02*
X129840D01*
X99430Y535475D02*
X113525D01*
X117000Y532000D02*
X129840D01*
X113525Y535475D02*
X117000Y532000D01*
X431675Y121920D02*
X431800D01*
X431000Y121245D02*
X431675Y121920D01*
X431000Y109000D02*
Y121245D01*
X153850Y102929D02*
Y112362D01*
Y102929D02*
X156779Y100000D01*
X422000D01*
X431000Y109000D01*
X153810Y112402D02*
X153850Y112362D01*
X88000Y642733D02*
X88371Y642362D01*
X88000Y642733D02*
Y651000D01*
X89640Y715240D02*
X90321Y714559D01*
Y706679D02*
Y714559D01*
X66250Y776250D02*
X66500Y776000D01*
X244750Y167750D02*
X257750D01*
X239250Y176250D02*
X257750D01*
X225560Y162560D02*
X239250Y176250D01*
X216027Y162560D02*
X225560D01*
X215900Y177800D02*
X216100Y178000D01*
X228000D01*
X234000Y184000D02*
X270000D01*
X228000Y178000D02*
X234000Y184000D01*
X273000Y177000D02*
Y181000D01*
X270000Y184000D02*
X273000Y181000D01*
X272250Y176250D02*
X273000Y177000D01*
X299840Y425840D02*
Y470000D01*
X297000Y423000D02*
X299840Y425840D01*
X89640Y728194D02*
X101806D01*
X38080Y217306D02*
X52960D01*
X38040Y217346D02*
X38080Y217306D01*
X38040Y217346D02*
Y217370D01*
X68960Y203200D02*
Y215900D01*
X68960Y215900D01*
X373860Y65720D02*
X433860D01*
X368500D02*
X373860D01*
X366000Y68220D02*
X368500Y65720D01*
X366000Y68220D02*
Y78000D01*
X359800Y84200D02*
X366000Y78000D01*
X328877Y84000D02*
X330200Y82677D01*
X190500D02*
X204217D01*
X205740Y84200D01*
X137810Y90190D02*
X145323Y82677D01*
X190500D01*
X137810Y90190D02*
Y112402D01*
X88520Y68220D02*
X113810Y93510D01*
X88510Y68210D02*
X88520Y68220D01*
X68590Y68210D02*
X88510D01*
X113810Y93510D02*
Y112402D01*
X67827Y68953D02*
X68580Y68200D01*
X52759Y68953D02*
X67827D01*
X52007Y69706D02*
X52759Y68953D01*
X68580Y68200D02*
X68590Y68210D01*
X75450Y165550D02*
X92662D01*
X68960Y172040D02*
X75450Y165550D01*
X68960Y172040D02*
Y203200D01*
X68960Y203200D01*
X189223Y132000D02*
X199223D01*
X187713Y133510D02*
X189223Y132000D01*
X160541Y222541D02*
X162206D01*
X153850Y194738D02*
Y215850D01*
X162206Y222541D02*
X166310Y226645D01*
X153850Y215850D02*
X160541Y222541D01*
X166310Y226645D02*
Y228550D01*
X153810Y194698D02*
X153850Y194738D01*
X166248Y228612D02*
X166310Y228550D01*
X166248Y228612D02*
Y248550D01*
X166186Y248612D02*
X166248Y248550D01*
X135222Y228650D02*
X135322Y228550D01*
X135222Y228650D02*
Y248738D01*
X135122Y248838D02*
X135222Y248738D01*
X145810Y194698D02*
Y216157D01*
X135322Y226645D02*
X145810Y216157D01*
X135322Y226645D02*
Y228550D01*
X311840Y470000D02*
X312414Y469426D01*
Y448586D02*
Y469426D01*
X45250Y776250D02*
X57750D01*
X37350Y768350D02*
X45250Y776250D01*
X37350Y729160D02*
Y768350D01*
X66250Y748750D02*
Y761750D01*
X72196Y729464D02*
Y742804D01*
X66250Y748750D02*
X72196Y742804D01*
X57000Y761000D02*
X57750Y761750D01*
X57000Y749000D02*
Y761000D01*
X129266Y712574D02*
X129840Y712000D01*
X117426Y712574D02*
X129266D01*
X68040Y315087D02*
Y352040D01*
X73000Y357000D01*
X47000Y386020D02*
X47035Y385985D01*
D110*
X86000Y256000D02*
Y283274D01*
X75936Y293338D02*
Y347936D01*
Y293338D02*
X86000Y283274D01*
X90000Y472000D02*
Y487465D01*
X34536Y347000D02*
Y349484D01*
Y319358D02*
Y347000D01*
X46300D02*
X47285Y347985D01*
X34536Y347000D02*
X46300D01*
X20285Y407985D02*
X37285D01*
X47285Y397985D01*
X20285Y382985D02*
Y407985D01*
Y337985D02*
Y362985D01*
Y382985D01*
X21250Y362770D02*
X34536Y349484D01*
X33750Y318572D02*
X34536Y319358D01*
X132000Y316515D02*
X132219Y316296D01*
X140280Y331313D02*
Y331960D01*
X139990Y331023D02*
X140280Y331313D01*
X132000Y328387D02*
X134636Y331023D01*
X139990D01*
X132000Y316515D02*
Y328387D01*
X332356Y274035D02*
Y284356D01*
X340000Y292000D01*
X442565Y474080D02*
X457827Y489342D01*
X445588Y485588D02*
Y505419D01*
X426697Y480330D02*
X440330D01*
X445588Y485588D01*
X457827Y489342D02*
Y491700D01*
X420447Y474080D02*
X442565D01*
X391000Y503527D02*
X420447Y474080D01*
X445588Y505419D02*
X457270Y517100D01*
X397250Y509777D02*
X426697Y480330D01*
X457270Y517100D02*
X457827D01*
X160480Y331960D02*
X160770Y331670D01*
Y326024D02*
Y331670D01*
Y326024D02*
X161613Y325181D01*
X75936Y347936D02*
X83205Y355205D01*
X73614Y385950D02*
X80569D01*
X83205Y383314D01*
Y355205D02*
Y383314D01*
X96997Y687811D02*
Y687811D01*
X72450Y713970D02*
X74510Y711910D01*
Y710298D02*
Y711910D01*
X72196Y713970D02*
X72450D01*
X74510Y710298D02*
X96997Y687811D01*
X349840Y592000D02*
X390000D01*
X397000Y585000D01*
X405000Y569000D02*
Y592000D01*
X393000Y604000D02*
X405000Y592000D01*
X349840Y604000D02*
X393000D01*
X415500Y391000D02*
X431640D01*
X413000Y393500D02*
X415500Y391000D01*
X413000Y559000D02*
Y598000D01*
X395000Y616000D02*
X413000Y598000D01*
X349840Y616000D02*
X395000D01*
X483869Y214287D02*
Y347131D01*
X451000Y380000D02*
Y427260D01*
Y380000D02*
X483869Y347131D01*
X450500Y427760D02*
X451000Y427260D01*
X452000Y429260D02*
X478250Y455510D01*
X379000Y167000D02*
Y178985D01*
X457827Y725400D02*
X478250Y704977D01*
X472671Y203090D02*
X483869Y214287D01*
X431800Y429260D02*
X449000D01*
X366967Y191018D02*
X379000Y178985D01*
X366967Y203090D02*
X472671D01*
X478250Y455510D02*
Y704977D01*
X367729Y217328D02*
X368490Y218090D01*
X367729Y203852D02*
Y217328D01*
X366967Y203090D02*
X367729Y203852D01*
X319000Y167000D02*
X379000D01*
X449000Y429260D02*
X452000D01*
X366967Y191018D02*
Y203090D01*
X373000Y712000D02*
X377000Y708000D01*
X381000Y700000D02*
X396000Y715000D01*
X349840Y640000D02*
X365000D01*
X349840Y676000D02*
X411000D01*
X349840Y688000D02*
X408000D01*
X421000Y660000D02*
X431800Y649200D01*
X421000Y660000D02*
Y721071D01*
X349840Y724000D02*
X418071D01*
X421000Y721071D01*
X349840Y736000D02*
X350414Y736574D01*
X356535D01*
X356731Y736770D01*
X437137D01*
X432427Y674600D02*
X443797Y685970D01*
X437137Y736770D02*
X443797Y730110D01*
Y685970D02*
Y730110D01*
X420000Y554927D02*
X432427Y542500D01*
X402000Y652000D02*
X420000Y634000D01*
Y554927D02*
Y634000D01*
X432427Y567900D02*
X443543Y579016D01*
X349840Y664000D02*
X398839D01*
X443543Y619296D01*
X454115Y529468D02*
X460874D01*
X457827Y567900D02*
X469197Y556530D01*
X437137Y505730D02*
X445792Y514385D01*
X460874Y529468D02*
X469197Y537790D01*
Y556530D01*
X445792Y521145D02*
X454115Y529468D01*
X371046Y556000D02*
X421316Y505730D01*
X437137D01*
X349840Y556000D02*
X371046D01*
X445792Y514385D02*
Y521145D01*
X378000Y580000D02*
X426870Y531130D01*
X446457D01*
X457827Y542500D01*
X349840Y580000D02*
X378000D01*
X349840Y652000D02*
X402000D01*
X443543Y579016D02*
Y619296D01*
X349840Y712000D02*
X373000D01*
X349840Y700000D02*
X381000D01*
X431800Y649200D02*
X432427D01*
X321250Y442447D02*
X353297Y410400D01*
X321250Y462598D02*
X323840Y465188D01*
X321250Y442447D02*
Y462598D01*
X433769Y332831D02*
X439099Y327501D01*
X420925Y332831D02*
X433769D01*
X37000Y69000D02*
Y87251D01*
X20254Y53292D02*
X21292D01*
X37000Y69000D01*
X36071Y104000D02*
X39000Y106929D01*
X20254Y104092D02*
X20346Y104000D01*
X37000Y87251D02*
X51500Y101751D01*
Y130000D01*
X39000Y106929D02*
Y141000D01*
X20346Y104000D02*
X36071D01*
X20254Y79344D02*
X45250Y104340D01*
Y136871D01*
X20254Y78692D02*
Y79344D01*
X33000Y534000D02*
X79000Y580000D01*
X22000Y534000D02*
X33000D01*
X79000Y580000D02*
X129840D01*
X45250Y136871D02*
X49929Y141550D01*
X92662D01*
X353297Y410400D02*
X378000D01*
X349840Y604000D02*
X350414Y603426D01*
X431640Y391000D02*
X431800Y391160D01*
X415965Y378460D02*
X431800D01*
X405000Y389425D02*
X415965Y378460D01*
X316505Y273185D02*
Y292510D01*
X56066Y712660D02*
X60340D01*
X64382Y708618D01*
Y708607D02*
Y708618D01*
X120415Y652574D02*
X129266D01*
X64382Y708607D02*
X120415Y652574D01*
X129266D02*
X129840Y652000D01*
X59000Y704000D02*
X122426Y640574D01*
X78000Y674000D02*
X103000Y649000D01*
X122426Y640574D02*
X129266D01*
X103000Y643733D02*
Y649000D01*
X66430Y674000D02*
X78000D01*
X129266Y640574D02*
X129840Y640000D01*
X103000Y643733D02*
X104371Y642362D01*
X47269Y704000D02*
X59000D01*
X37604Y713666D02*
X47269Y704000D01*
X390000Y780000D02*
X395000Y785000D01*
X440000D01*
X368000Y760000D02*
X375000Y767000D01*
Y785000D01*
X460655Y332831D02*
X472240D01*
X455099Y327275D02*
X460655Y332831D01*
X455099Y319751D02*
Y327275D01*
X439099Y319751D02*
Y327501D01*
X456563Y216615D02*
X471912D01*
X455099Y218079D02*
Y229755D01*
Y218079D02*
X456563Y216615D01*
X420950Y216960D02*
X437634D01*
X439099Y218424D02*
Y229755D01*
X437634Y216960D02*
X439099Y218424D01*
X20809Y209000D02*
X35071D01*
X17880Y211929D02*
Y217330D01*
Y211929D02*
X20809Y209000D01*
X17840Y217370D02*
X17880Y217330D01*
X17800Y188800D02*
Y194070D01*
X17840Y194110D01*
X13000Y184000D02*
X17800Y188800D01*
X13000Y168929D02*
Y184000D01*
X101357Y490394D02*
X101380Y490372D01*
X92929Y490394D02*
X101357D01*
X90000Y487465D02*
X92929Y490394D01*
X101444Y483936D02*
X129776D01*
X148887Y312527D02*
Y323276D01*
X139440Y300918D02*
Y304252D01*
X91849Y496838D02*
X101346D01*
X76313Y253742D02*
X83742D01*
X86000Y256000D01*
X38000Y194150D02*
Y206071D01*
X35071Y209000D02*
X38000Y206071D01*
X81000Y503000D02*
X86000Y508000D01*
X80750Y496872D02*
X81000Y497122D01*
X80380Y496872D02*
X80750D01*
X81000Y497122D02*
Y503000D01*
X86000Y508000D02*
X129840D01*
X323840Y465188D02*
Y470000D01*
X38000Y194150D02*
X38040Y194110D01*
X22000Y158000D02*
Y164424D01*
X22000Y164424D02*
Y165924D01*
X22000Y164424D02*
X22000Y164424D01*
X47550Y149550D02*
X92662D01*
X55050Y133550D02*
X92662D01*
X51500Y130000D02*
X55050Y133550D01*
X39000Y141000D02*
X47550Y149550D01*
X15929Y166000D02*
X21924D01*
X13000Y168929D02*
X15929Y166000D01*
X21924D02*
X22000Y165924D01*
X38000Y178000D02*
X38020Y178020D01*
Y194090D01*
X38040Y194110D01*
X65680Y595250D02*
X65930Y595000D01*
X89000D01*
X102848Y608848D02*
Y626512D01*
X89000Y595000D02*
X102848Y608848D01*
X65680Y674750D02*
X66430Y674000D01*
X102848Y626512D02*
Y640839D01*
X104371Y642362D01*
X129266Y627426D02*
X129840Y628000D01*
X103762Y627426D02*
X129266D01*
X102848Y626512D02*
X103762Y627426D01*
X390000Y766000D02*
Y780000D01*
X372000Y748000D02*
X390000Y766000D01*
X349840Y748000D02*
X372000D01*
X349840Y760000D02*
X368000D01*
X54756Y713970D02*
X56066Y712660D01*
X120234Y664574D02*
X129266D01*
X129840Y664000D01*
X96997Y687811D02*
X120234Y664574D01*
X37350Y713666D02*
X37604D01*
X32126Y302087D02*
X32676Y302637D01*
Y316950D01*
X33226Y317500D01*
D111*
X246500Y300601D02*
X256399D01*
X262290Y272931D02*
Y294710D01*
X256399Y300601D02*
X262290Y294710D01*
X331505Y273185D02*
X342246D01*
Y272845D02*
X342587Y273185D01*
X170140Y194698D02*
X178643Y203200D01*
X201803D01*
X342587Y273185D02*
X359815D01*
X360000Y273000D01*
X164404Y194698D02*
X169431D01*
X246000Y301101D02*
X246500Y300601D01*
X246000Y301101D02*
Y307000D01*
X299790Y273185D02*
X315255D01*
X262290Y272931D02*
X262417Y272804D01*
X279790Y272677D02*
X280044Y272931D01*
X299536D01*
X299790Y273185D01*
X262417Y272804D02*
X279663D01*
X279790Y272677D01*
X68580Y84200D02*
X68599Y84219D01*
Y93030D01*
X77000Y101431D01*
X92000Y112000D02*
X103500D01*
X245000Y403860D02*
X256860D01*
X281400Y370967D02*
X281710Y371277D01*
X283783D01*
X283981Y371475D01*
X301720D01*
X263620Y371221D02*
X263747Y371094D01*
X281273D01*
X281400Y370967D01*
X263620Y371221D02*
Y397100D01*
X256860Y403860D02*
X263620Y397100D01*
X129810Y202000D02*
Y207190D01*
X114750Y222250D02*
X129810Y207190D01*
X98000Y222250D02*
X114750D01*
D112*
X188420Y314580D02*
X189000Y314000D01*
X165847Y314580D02*
X188420D01*
X165797Y314630D02*
X165847Y314580D01*
X162246Y314630D02*
X165797D01*
D113*
X420313Y297180D02*
X421699Y295795D01*
X420313Y297180D02*
Y306313D01*
X418500Y304500D02*
X433751Y319751D01*
X439099D01*
X396000Y327000D02*
X420313Y302687D01*
X396000Y327000D02*
Y448000D01*
X366744Y332000D02*
X383000Y315744D01*
Y288000D02*
X395000Y276000D01*
X383000Y288000D02*
Y315744D01*
X328000Y349257D02*
X345257Y332000D01*
X301720Y371475D02*
X323314D01*
X328000Y366789D01*
Y349257D02*
Y366789D01*
X379492Y496477D02*
X380000D01*
X380064Y496413D02*
X387154D01*
X380000Y496477D02*
X380064Y496413D01*
X396000Y448000D02*
Y487567D01*
X387154Y496413D02*
X396000Y487567D01*
X379368Y496353D02*
X379492Y496477D01*
X349840Y496000D02*
X353840D01*
X354193Y496353D01*
X379368D01*
X276000Y461000D02*
Y469840D01*
X288000Y461000D02*
Y469840D01*
X275840Y470000D02*
X276000Y469840D01*
X285000Y458000D02*
X288000Y461000D01*
X279000Y458000D02*
X285000D01*
X276000Y461000D02*
X279000Y458000D01*
X287840Y470000D02*
X288000Y469840D01*
X395000Y276000D02*
X436000D01*
X445686Y261687D02*
Y266314D01*
X436000Y276000D02*
X445686Y266314D01*
Y261687D02*
X445714Y261659D01*
X345257Y332000D02*
X366744D01*
X422559Y234875D02*
Y254295D01*
Y234875D02*
X427819Y229615D01*
X438099D01*
X472499Y295795D02*
Y314555D01*
X467303Y319751D02*
X472499Y314555D01*
X455099Y319751D02*
X467303D01*
X445714Y256540D02*
X447099Y255155D01*
X445714Y256540D02*
Y261659D01*
X472499Y235515D02*
Y255155D01*
X466599Y229615D02*
X472499Y235515D01*
X456599Y229615D02*
X466599D01*
D114*
X133785Y314730D02*
X139440D01*
X132219Y316296D02*
X133785Y314730D01*
X126857Y310080D02*
X139440D01*
X228558Y264840D02*
X240673D01*
X225930Y262212D02*
X228558Y264840D01*
X242430Y266597D02*
Y277790D01*
X240673Y264840D02*
X242430Y266597D01*
X224180Y256540D02*
X225930Y258290D01*
Y262212D01*
X242430Y277790D02*
X243180Y278540D01*
D115*
X190500Y339500D02*
X205760Y354760D01*
X189000Y338000D02*
X190500Y339500D01*
X150420Y347105D02*
Y355180D01*
X156775Y340750D02*
X189250D01*
X150420Y347105D02*
X156775Y340750D01*
X189250D02*
X190500Y339500D01*
X189000Y314000D02*
X200000D01*
X189000D02*
Y338000D01*
X72427Y387172D02*
Y401573D01*
X20254Y444092D02*
X21179Y443167D01*
X30833D01*
X72427Y401573D01*
X224180Y256250D02*
Y256540D01*
X223930Y256000D02*
X224180Y256250D01*
X224162Y280858D02*
X224180Y280840D01*
Y278540D02*
Y280840D01*
X224000Y307000D02*
X224162Y306838D01*
Y280858D02*
Y306838D01*
X200000Y314000D02*
X200000Y314000D01*
Y314000D01*
X207500Y260500D02*
Y306500D01*
X200000Y314000D02*
X207500Y306500D01*
X223640Y376760D02*
Y402360D01*
X222140Y403860D02*
X223640Y402360D01*
X207500Y260500D02*
X212000Y256000D01*
X205760Y354760D02*
X223640D01*
X212000Y256000D02*
X223930D01*
X438099Y229615D02*
X438239Y229755D01*
X421699Y255155D02*
X422559Y254295D01*
X456459Y229755D02*
X456599Y229615D01*
D116*
X155690Y319080D02*
Y322330D01*
X153013Y325007D02*
X155690Y322330D01*
X149052Y325007D02*
X153013D01*
D117*
X47285Y397985D02*
D03*
Y347985D02*
D03*
D118*
X20285Y337985D02*
D03*
Y407985D02*
D03*
D119*
X378000Y359600D02*
D03*
X432173Y592792D02*
D03*
Y750292D02*
D03*
X20254Y129492D02*
D03*
Y469492D02*
D03*
Y559402D02*
D03*
D120*
X378000Y385000D02*
D03*
Y410400D02*
D03*
X432427Y517100D02*
D03*
Y491700D02*
D03*
X457827D02*
D03*
Y517100D02*
D03*
Y542500D02*
D03*
X432427D02*
D03*
X457827Y567900D02*
D03*
X432427D02*
D03*
X457827Y593300D02*
D03*
Y750800D02*
D03*
X432427Y725400D02*
D03*
X457827D02*
D03*
X432427Y700000D02*
D03*
X457827D02*
D03*
Y674600D02*
D03*
Y649200D02*
D03*
X432427D02*
D03*
Y674600D02*
D03*
X20254Y53292D02*
D03*
Y78692D02*
D03*
Y104092D02*
D03*
Y444092D02*
D03*
X421699Y295795D02*
D03*
X447099D02*
D03*
X322400Y423000D02*
D03*
X20254Y508602D02*
D03*
Y534002D02*
D03*
X447099Y255155D02*
D03*
X472499D02*
D03*
X480000Y45000D02*
D03*
Y70000D02*
D03*
D121*
X472499Y295795D02*
D03*
X297000Y423000D02*
D03*
X421699Y255155D02*
D03*
D122*
X90000Y330000D02*
D03*
Y472000D02*
D03*
X87739Y235759D02*
D03*
X88000Y348000D02*
D03*
X10000Y312000D02*
D03*
X33000Y397000D02*
D03*
X472500Y750000D02*
D03*
X487500Y720000D02*
D03*
Y660000D02*
D03*
Y600000D02*
D03*
Y540000D02*
D03*
Y480000D02*
D03*
Y360000D02*
D03*
X472500Y90000D02*
D03*
X487500Y60000D02*
D03*
X472500Y30000D02*
D03*
X457500Y480000D02*
D03*
X442500Y450000D02*
D03*
X457500Y420000D02*
D03*
Y360000D02*
D03*
X442500Y210000D02*
D03*
X457500Y180000D02*
D03*
Y60000D02*
D03*
X412500Y750000D02*
D03*
Y630000D02*
D03*
X427500Y360000D02*
D03*
X412500Y210000D02*
D03*
X427500Y180000D02*
D03*
X412500Y150000D02*
D03*
Y90000D02*
D03*
Y30000D02*
D03*
X382500Y750000D02*
D03*
Y630000D02*
D03*
Y510000D02*
D03*
Y270000D02*
D03*
Y210000D02*
D03*
X397500Y180000D02*
D03*
X382500Y150000D02*
D03*
Y90000D02*
D03*
X367500Y480000D02*
D03*
Y420000D02*
D03*
Y180000D02*
D03*
X352500Y150000D02*
D03*
Y30000D02*
D03*
X337500Y720000D02*
D03*
X322500Y690000D02*
D03*
X337500Y660000D02*
D03*
X322500Y630000D02*
D03*
X337500Y600000D02*
D03*
X322500Y570000D02*
D03*
X337500Y540000D02*
D03*
X322500Y510000D02*
D03*
Y390000D02*
D03*
Y330000D02*
D03*
X337500Y240000D02*
D03*
X322500Y210000D02*
D03*
X337500Y180000D02*
D03*
X322500Y150000D02*
D03*
X337500Y60000D02*
D03*
X322500Y30000D02*
D03*
X307500Y720000D02*
D03*
X292500Y690000D02*
D03*
X307500Y660000D02*
D03*
X292500Y630000D02*
D03*
X307500Y600000D02*
D03*
X292500Y570000D02*
D03*
X307500Y540000D02*
D03*
X292500Y510000D02*
D03*
Y450000D02*
D03*
Y390000D02*
D03*
X307500Y300000D02*
D03*
Y240000D02*
D03*
X292500Y210000D02*
D03*
X307500Y180000D02*
D03*
X292500Y150000D02*
D03*
Y90000D02*
D03*
Y30000D02*
D03*
X277500Y720000D02*
D03*
X262500Y690000D02*
D03*
X277500Y660000D02*
D03*
X262500Y630000D02*
D03*
X277500Y600000D02*
D03*
X262500Y570000D02*
D03*
X277500Y540000D02*
D03*
X262500Y510000D02*
D03*
Y450000D02*
D03*
X277500Y420000D02*
D03*
X262500Y330000D02*
D03*
X277500Y300000D02*
D03*
X262500Y210000D02*
D03*
X277500Y120000D02*
D03*
X262500Y90000D02*
D03*
X277500Y60000D02*
D03*
X262500Y30000D02*
D03*
X247500Y720000D02*
D03*
X232500Y690000D02*
D03*
X247500Y660000D02*
D03*
X232500Y630000D02*
D03*
X247500Y540000D02*
D03*
X232500Y510000D02*
D03*
Y390000D02*
D03*
Y330000D02*
D03*
X247500Y240000D02*
D03*
X232500Y210000D02*
D03*
X247500Y120000D02*
D03*
X232500Y90000D02*
D03*
X247500Y60000D02*
D03*
X217500Y720000D02*
D03*
X202500Y690000D02*
D03*
X217500Y660000D02*
D03*
X202500Y630000D02*
D03*
Y570000D02*
D03*
X217500Y540000D02*
D03*
X202500Y510000D02*
D03*
X217500Y240000D02*
D03*
Y120000D02*
D03*
X202500Y30000D02*
D03*
X187500Y720000D02*
D03*
X172500Y690000D02*
D03*
X187500Y660000D02*
D03*
X172500Y630000D02*
D03*
X187500Y600000D02*
D03*
X172500Y570000D02*
D03*
X187500Y540000D02*
D03*
X172500Y510000D02*
D03*
X187500Y420000D02*
D03*
X172500Y390000D02*
D03*
X187500Y360000D02*
D03*
Y240000D02*
D03*
Y120000D02*
D03*
X172500Y90000D02*
D03*
X187500Y60000D02*
D03*
X142500Y750000D02*
D03*
X157500Y720000D02*
D03*
X142500Y690000D02*
D03*
X157500Y660000D02*
D03*
X142500Y630000D02*
D03*
X157500Y600000D02*
D03*
X142500Y570000D02*
D03*
X157500Y540000D02*
D03*
X142500Y510000D02*
D03*
X157500Y420000D02*
D03*
Y300000D02*
D03*
Y180000D02*
D03*
X142500Y30000D02*
D03*
X112500Y750000D02*
D03*
Y570000D02*
D03*
X127500Y420000D02*
D03*
Y180000D02*
D03*
X112500Y150000D02*
D03*
X127500Y60000D02*
D03*
X112500Y30000D02*
D03*
X82500Y750000D02*
D03*
Y570000D02*
D03*
X52500Y690000D02*
D03*
X67500Y660000D02*
D03*
X52500Y630000D02*
D03*
Y570000D02*
D03*
X67500Y540000D02*
D03*
X52500Y510000D02*
D03*
Y450000D02*
D03*
X67500Y420000D02*
D03*
X52500Y330000D02*
D03*
X67500Y240000D02*
D03*
Y120000D02*
D03*
Y60000D02*
D03*
X52500Y30000D02*
D03*
X22500Y750000D02*
D03*
Y690000D02*
D03*
X37500Y660000D02*
D03*
X22500Y630000D02*
D03*
X37500Y600000D02*
D03*
Y480000D02*
D03*
Y420000D02*
D03*
Y60000D02*
D03*
X165751Y308782D02*
D03*
X161613Y325181D02*
D03*
X234000Y271000D02*
D03*
X76569Y776000D02*
D03*
X143670Y340830D02*
D03*
X391000Y503527D02*
D03*
X354727Y390228D02*
D03*
X355000Y379000D02*
D03*
X397250Y509777D02*
D03*
X391000Y554000D02*
D03*
X397000Y585000D02*
D03*
X405000Y569000D02*
D03*
X413000Y393500D02*
D03*
Y559000D02*
D03*
X377000Y708000D02*
D03*
X396000Y715000D02*
D03*
X365000Y640000D02*
D03*
X411000Y676000D02*
D03*
X408000Y688000D02*
D03*
X88000Y651000D02*
D03*
X383000Y467000D02*
D03*
X180000Y189000D02*
D03*
X170140Y194698D02*
D03*
X118000Y544000D02*
D03*
Y676000D02*
D03*
X72000Y461400D02*
D03*
X461722Y275278D02*
D03*
X466859Y270141D02*
D03*
X193001Y203200D02*
D03*
X405000Y389425D02*
D03*
X396000Y296000D02*
D03*
X360201Y300730D02*
D03*
X349000Y459000D02*
D03*
X359000Y468000D02*
D03*
X342246Y272845D02*
D03*
X233680Y290830D02*
D03*
X191103Y190991D02*
D03*
X377000Y343000D02*
D03*
X77000Y101431D02*
D03*
X92000Y112000D02*
D03*
X111750Y235750D02*
D03*
X90000Y485000D02*
D03*
X375000Y529000D02*
D03*
X367000Y537000D02*
D03*
X105000Y704000D02*
D03*
X111000Y691000D02*
D03*
X173000Y327000D02*
D03*
X223000Y366000D02*
D03*
X235240Y365760D02*
D03*
X454000Y347062D02*
D03*
X148670Y324624D02*
D03*
X205000Y60000D02*
D03*
X345000D02*
D03*
X460080Y121920D02*
D03*
X272000Y159000D02*
D03*
X62000Y108000D02*
D03*
Y123000D02*
D03*
X360000Y273000D02*
D03*
X312000Y339000D02*
D03*
X353000Y226000D02*
D03*
X107304Y545000D02*
D03*
X313000Y435000D02*
D03*
X189000Y140000D02*
D03*
X243000Y368000D02*
D03*
X117000Y209000D02*
D03*
X137797Y208841D02*
D03*
X80250Y209750D02*
D03*
X95000Y188000D02*
D03*
X118000Y88000D02*
D03*
X99000Y514250D02*
D03*
X139440Y299515D02*
D03*
X91849Y496838D02*
D03*
X80380Y476620D02*
D03*
X322000Y84000D02*
D03*
X22000Y158000D02*
D03*
M02*
