G04*
G04 #@! TF.GenerationSoftware,Altium Limited,Altium Designer,20.1.14 (287)*
G04*
G04 Layer_Physical_Order=2*
G04 Layer_Color=32768*
%FSLAX44Y44*%
%MOMM*%
G71*
G04*
G04 #@! TF.SameCoordinates,978DA6D5-38BD-4FD5-9912-D6258095FBE2*
G04*
G04*
G04 #@! TF.FilePolarity,Negative*
G04*
G01*
G75*
%ADD117C,1.4500*%
%ADD123C,1.0160*%
%ADD124O,1.9000X1.2500*%
%ADD125C,1.6160*%
G04:AMPARAMS|DCode=126|XSize=2.54mm|YSize=2.54mm|CornerRadius=0mm|HoleSize=0mm|Usage=FLASHONLY|Rotation=0.000|XOffset=0mm|YOffset=0mm|HoleType=Round|Shape=Relief|Width=0.254mm|Gap=0.254mm|Entries=4|*
%AMTHD126*
7,0,0,2.5400,2.0320,0.2540,45*
%
%ADD126THD126*%
%ADD127C,1.5000*%
G04:AMPARAMS|DCode=128|XSize=2.286mm|YSize=2.286mm|CornerRadius=0mm|HoleSize=0mm|Usage=FLASHONLY|Rotation=0.000|XOffset=0mm|YOffset=0mm|HoleType=Round|Shape=Relief|Width=0.254mm|Gap=0.254mm|Entries=4|*
%AMTHD128*
7,0,0,2.2860,1.7780,0.2540,45*
%
%ADD128THD128*%
%ADD129C,0.9000*%
G36*
X324840Y730000D02*
X324840Y730000D01*
X154840D01*
Y800000D01*
X154840Y800000D01*
X324840D01*
Y730000D01*
D02*
G37*
D117*
X47285Y397985D02*
D03*
Y347985D02*
D03*
D123*
X324840Y800000D02*
X492000Y800000D01*
X324840Y730000D02*
Y800000D01*
X324840Y730000D02*
X324840Y730000D01*
X154840Y730000D02*
X324840D01*
X154840D02*
Y800000D01*
X8000Y800000D02*
X154840Y800000D01*
X7212Y800000D02*
X8000Y800000D01*
X5666Y799693D02*
X7212Y800000D01*
X4210Y799090D02*
X5666Y799693D01*
X2900Y798214D02*
X4210Y799090D01*
X1786Y797100D02*
X2900Y798214D01*
X910Y795789D02*
X1786Y797100D01*
X307Y794333D02*
X910Y795789D01*
X-0Y792788D02*
X307Y794333D01*
X-0Y792788D02*
X-0Y792000D01*
X0Y8000D01*
X-0Y7212D02*
X0Y8000D01*
X-0Y7212D02*
X307Y5666D01*
X910Y4211D01*
X1786Y2900D01*
X2900Y1786D01*
X4211Y910D01*
X5666Y307D01*
X7212Y-0D01*
X8000Y0D01*
X492788D01*
X494333Y307D01*
X495789Y910D01*
X497100Y1786D01*
X498214Y2900D01*
X499089Y4211D01*
X499692Y5666D01*
X500000Y7212D01*
X500000Y8000D01*
X500000Y792000D01*
X500000Y792788D01*
X499693Y794334D02*
X500000Y792788D01*
X499090Y795789D02*
X499693Y794334D01*
X498214Y797100D02*
X499090Y795789D01*
X497100Y798214D02*
X498214Y797100D01*
X495789Y799090D02*
X497100Y798214D01*
X494333Y799693D02*
X495789Y799090D01*
X492788Y800000D02*
X494333Y799693D01*
X492000Y800000D02*
X492788D01*
D124*
X20285Y337985D02*
D03*
Y407985D02*
D03*
D125*
X378000Y359600D02*
D03*
Y385000D02*
D03*
Y410400D02*
D03*
X432427Y517100D02*
D03*
Y491700D02*
D03*
X457827D02*
D03*
Y517100D02*
D03*
Y542500D02*
D03*
X432427D02*
D03*
X457827Y567900D02*
D03*
X432427D02*
D03*
X432173Y592792D02*
D03*
Y750292D02*
D03*
X432427Y725400D02*
D03*
X457827D02*
D03*
X432427Y700000D02*
D03*
X457827D02*
D03*
Y674600D02*
D03*
Y649200D02*
D03*
X432427D02*
D03*
Y674600D02*
D03*
X20254Y53292D02*
D03*
Y78692D02*
D03*
Y104092D02*
D03*
Y444092D02*
D03*
X421699Y295795D02*
D03*
X447099D02*
D03*
X472499D02*
D03*
X322400Y423000D02*
D03*
X297000D02*
D03*
X20254Y508602D02*
D03*
Y534002D02*
D03*
X421699Y255155D02*
D03*
X447099D02*
D03*
X472499D02*
D03*
D126*
X457827Y593300D02*
D03*
Y750800D02*
D03*
X20254Y129492D02*
D03*
Y469492D02*
D03*
Y559402D02*
D03*
D127*
X317000Y293000D02*
D03*
X472240Y332831D02*
D03*
X420925D02*
D03*
X340000Y292000D02*
D03*
X420950Y216960D02*
D03*
X472258D02*
D03*
D128*
X480000Y45000D02*
D03*
Y70000D02*
D03*
D129*
X90000Y472000D02*
D03*
X87739Y235759D02*
D03*
X165751Y308782D02*
D03*
X161613Y325181D02*
D03*
X76569Y776000D02*
D03*
X143670Y340830D02*
D03*
X391000Y503527D02*
D03*
X355000Y379000D02*
D03*
X397250Y509777D02*
D03*
X391000Y554000D02*
D03*
X397000Y585000D02*
D03*
X405000Y569000D02*
D03*
X413000Y393500D02*
D03*
Y559000D02*
D03*
X377000Y708000D02*
D03*
X396000Y715000D02*
D03*
X365000Y640000D02*
D03*
X411000Y676000D02*
D03*
X408000Y688000D02*
D03*
X88000Y651000D02*
D03*
X170140Y194698D02*
D03*
X118000Y544000D02*
D03*
X72000Y461400D02*
D03*
X461722Y275278D02*
D03*
X466859Y270141D02*
D03*
X193001Y203200D02*
D03*
X405000Y389425D02*
D03*
X360201Y300730D02*
D03*
X342246Y272845D02*
D03*
X191103Y190991D02*
D03*
X77000Y101431D02*
D03*
X92000Y112000D02*
D03*
X111750Y235750D02*
D03*
X90000Y485000D02*
D03*
X375000Y529000D02*
D03*
X367000Y537000D02*
D03*
X105000Y704000D02*
D03*
X111000Y691000D02*
D03*
X454000Y347062D02*
D03*
X205000Y60000D02*
D03*
X345000D02*
D03*
X460080Y121920D02*
D03*
X272000Y159000D02*
D03*
X360000Y273000D02*
D03*
X353000Y226000D02*
D03*
X107304Y545000D02*
D03*
X313000Y435000D02*
D03*
X189000Y140000D02*
D03*
X243000Y368000D02*
D03*
X117000Y209000D02*
D03*
X137797Y208841D02*
D03*
X80250Y209750D02*
D03*
X95000Y188000D02*
D03*
X118000Y88000D02*
D03*
X99000Y514250D02*
D03*
X139440Y299515D02*
D03*
X91849Y496838D02*
D03*
X80380Y476620D02*
D03*
X322000Y84000D02*
D03*
X22000Y158000D02*
D03*
M02*
