G04*
G04 #@! TF.GenerationSoftware,Altium Limited,Altium Designer,20.1.14 (287)*
G04*
G04 Layer_Color=16711935*
%FSLAX44Y44*%
%MOMM*%
G71*
G04*
G04 #@! TF.SameCoordinates,978DA6D5-38BD-4FD5-9912-D6258095FBE2*
G04*
G04*
G04 #@! TF.FilePolarity,Negative*
G04*
G01*
G75*
%ADD90C,1.4732*%
%ADD99C,1.6532*%
%ADD100O,2.1082X1.1942*%
%ADD101R,1.7272X1.7272*%
%ADD102C,1.7272*%
%ADD103R,1.7272X1.7272*%
G36*
X54587Y347985D02*
X54338Y349875D01*
X53608Y351636D01*
X52448Y353148D01*
X50936Y354308D01*
X49175Y355038D01*
X47285Y355286D01*
X45395Y355038D01*
X43634Y354308D01*
X42122Y353148D01*
X40962Y351636D01*
X40232Y349875D01*
X39983Y347985D01*
D01*
X40232Y346095D01*
X40962Y344334D01*
X42122Y342822D01*
X43634Y341662D01*
X45395Y340932D01*
X47285Y340684D01*
X49175Y340932D01*
X50936Y341662D01*
X52448Y342822D01*
X53608Y344334D01*
X54338Y346095D01*
X54587Y347985D01*
D01*
D02*
G37*
G36*
Y397985D02*
X54338Y399875D01*
X53608Y401636D01*
X52448Y403148D01*
X50936Y404308D01*
X49175Y405038D01*
X47285Y405286D01*
X45395Y405038D01*
X43634Y404308D01*
X42122Y403148D01*
X40962Y401636D01*
X40232Y399875D01*
X39983Y397985D01*
D01*
X40232Y396095D01*
X40962Y394334D01*
X42122Y392822D01*
X43634Y391662D01*
X45395Y390932D01*
X47285Y390684D01*
X49175Y390932D01*
X50936Y391662D01*
X52448Y392822D01*
X53608Y394334D01*
X54338Y396095D01*
X54587Y397985D01*
D01*
D02*
G37*
D90*
X317000Y293000D02*
D03*
X472240Y332831D02*
D03*
X420925D02*
D03*
X340000Y292000D02*
D03*
X420950Y216960D02*
D03*
X472258D02*
D03*
D99*
X47285Y397985D02*
D03*
Y347985D02*
D03*
D100*
X20285Y337985D02*
D03*
Y407985D02*
D03*
D101*
X378000Y359600D02*
D03*
X432173Y592792D02*
D03*
Y750292D02*
D03*
X20254Y129492D02*
D03*
Y469492D02*
D03*
Y559402D02*
D03*
D102*
X378000Y385000D02*
D03*
Y410400D02*
D03*
X432427Y517100D02*
D03*
Y491700D02*
D03*
X457827D02*
D03*
Y517100D02*
D03*
Y542500D02*
D03*
X432427D02*
D03*
X457827Y567900D02*
D03*
X432427D02*
D03*
X457827Y593300D02*
D03*
Y750800D02*
D03*
X432427Y725400D02*
D03*
X457827D02*
D03*
X432427Y700000D02*
D03*
X457827D02*
D03*
Y674600D02*
D03*
Y649200D02*
D03*
X432427D02*
D03*
Y674600D02*
D03*
X20254Y53292D02*
D03*
Y78692D02*
D03*
Y104092D02*
D03*
Y444092D02*
D03*
X421699Y295795D02*
D03*
X447099D02*
D03*
X322400Y423000D02*
D03*
X20254Y508602D02*
D03*
Y534002D02*
D03*
X447099Y255155D02*
D03*
X472499D02*
D03*
X480000Y45000D02*
D03*
Y70000D02*
D03*
D103*
X472499Y295795D02*
D03*
X297000Y423000D02*
D03*
X421699Y255155D02*
D03*
M02*
