G04*
G04 #@! TF.GenerationSoftware,Altium Limited,Altium Designer,20.1.14 (287)*
G04*
G04 Layer_Color=32768*
%FSLAX44Y44*%
%MOMM*%
G71*
G04*
G04 #@! TF.SameCoordinates,978DA6D5-38BD-4FD5-9912-D6258095FBE2*
G04*
G04*
G04 #@! TF.FilePolarity,Positive*
G04*
G01*
G75*
%ADD13C,0.2000*%
%ADD14C,0.1000*%
%ADD133C,0.0500*%
D13*
X239840Y635000D02*
Y660000D01*
Y610000D02*
Y635000D01*
X264840D01*
X214840D02*
X239840D01*
X129840Y800000D02*
X349840D01*
Y470000D02*
Y800000D01*
X129840Y470000D02*
X349840D01*
X129840D02*
Y800000D01*
D14*
X166186Y251612D02*
Y261612D01*
X161186Y256612D02*
X171186D01*
X135122Y251838D02*
Y261838D01*
X130122Y256838D02*
X140122D01*
X184500Y306000D02*
X193500D01*
X189000Y301500D02*
Y310500D01*
X278750Y141500D02*
Y152500D01*
X251250D02*
X278750D01*
X251250Y141500D02*
Y152500D01*
Y141500D02*
X278750D01*
X93250Y229000D02*
X102750D01*
X98000Y224250D02*
Y233750D01*
X356490Y218090D02*
X364490D01*
X360490Y214090D02*
Y222090D01*
X447099Y315751D02*
Y323751D01*
X443099Y319751D02*
X451099D01*
X92371Y642362D02*
X100371D01*
X96371Y638362D02*
Y646362D01*
X317000Y448000D02*
X325000D01*
X321000Y444000D02*
Y452000D01*
X88000Y520000D02*
X96000D01*
X92000Y516000D02*
Y524000D01*
X341440Y76200D02*
X349440D01*
X345440Y72200D02*
Y80200D01*
X201740Y76200D02*
X209740D01*
X205740Y72200D02*
Y80200D01*
X208280Y186500D02*
Y194500D01*
X204280Y190500D02*
X212280D01*
X64580Y76200D02*
X72580D01*
X68580Y72200D02*
Y80200D01*
X26000Y178000D02*
X34000D01*
X30000Y174000D02*
Y182000D01*
X56960Y217306D02*
X64960D01*
X60960Y213307D02*
Y221306D01*
X324005Y268685D02*
Y277685D01*
X319505Y273185D02*
X328505D01*
X56960Y205059D02*
X64960D01*
X60960Y201059D02*
Y209059D01*
X26000Y165924D02*
X34000D01*
X30000Y161924D02*
Y169923D01*
X443099Y229755D02*
X451099D01*
X447099Y225755D02*
Y233755D01*
X134690Y302330D02*
Y322330D01*
X162690D01*
Y302330D02*
Y322330D01*
X134690Y302330D02*
X162690D01*
X148690Y307330D02*
Y317330D01*
X143690Y312330D02*
X153690D01*
D133*
X445816Y787400D02*
G03*
X445816Y787400I-6350J0D01*
G01*
X382270D02*
G03*
X382270Y787400I-6350J0D01*
G01*
X378000Y374840D02*
Y395160D01*
X367840Y385000D02*
X388160D01*
X367840D02*
X378000D01*
X363014Y345122D02*
Y425132D01*
Y345122D02*
X393494D01*
X363014Y425132D02*
X393494D01*
Y345122D02*
Y425132D01*
X494660Y122320D02*
Y204820D01*
X414660D02*
X494660D01*
X414660Y92320D02*
Y204820D01*
Y92320D02*
X494660D01*
Y122320D01*
X494660Y348860D02*
Y378860D01*
X414660Y348860D02*
X494660D01*
X414660D02*
Y461360D01*
X494660D01*
Y378860D02*
Y461360D01*
X160186Y269612D02*
X172186D01*
X160186Y243612D02*
X172186D01*
Y269612D01*
X160186Y243612D02*
Y269612D01*
X129122Y269838D02*
X141122D01*
X129122Y243838D02*
X141122D01*
Y269838D01*
X129122Y243838D02*
Y269838D01*
X196500Y292500D02*
Y319500D01*
X181500Y292500D02*
Y319500D01*
X196500D01*
X181500Y292500D02*
X196500D01*
X261000Y147000D02*
X265000D01*
Y151000D01*
Y147000D02*
X269000D01*
X265000Y143000D02*
Y147000D01*
X90500Y215500D02*
Y242500D01*
X105500Y215500D02*
Y242500D01*
X90500Y215500D02*
X105500D01*
X90500Y242500D02*
X105500D01*
X406967Y311289D02*
X486977D01*
X406967Y280809D02*
Y311289D01*
X486977Y280809D02*
Y311289D01*
X406967Y280809D02*
X486977D01*
X447099Y285635D02*
Y295795D01*
Y285635D02*
Y305955D01*
X436939Y295795D02*
X457259D01*
X4760Y493870D02*
Y573880D01*
Y493870D02*
X35240D01*
X4760Y573880D02*
X35240D01*
Y493870D02*
Y573880D01*
X20254Y534002D02*
X30414D01*
X10094D02*
X30414D01*
X20254Y523842D02*
Y544162D01*
X436939Y255155D02*
X457259D01*
X447099Y244995D02*
Y265315D01*
Y255155D02*
Y265315D01*
X407221Y270141D02*
X487231D01*
X407221Y239661D02*
Y270141D01*
X487231Y239661D02*
Y270141D01*
X407221Y239661D02*
X487231D01*
X230000Y307000D02*
X240000D01*
X235000Y302000D02*
Y307000D01*
Y312000D01*
X218490Y290490D02*
X251510D01*
Y323510D01*
X218490D02*
X251510D01*
X218490Y290490D02*
Y323510D01*
X229000Y404000D02*
X239000D01*
X234000Y399000D02*
Y404000D01*
Y409000D01*
X217490Y387490D02*
X250510D01*
Y420510D01*
X217490D02*
X250510D01*
X217490Y387490D02*
Y420510D01*
X15240Y190500D02*
Y220980D01*
X27940Y199390D02*
Y212090D01*
X21590Y205740D02*
X34290D01*
X15240Y220980D02*
X40640D01*
Y190500D02*
Y220980D01*
X15240Y190500D02*
X40640D01*
X137680Y328350D02*
X163080D01*
Y358830D01*
X137680D02*
X163080D01*
X144030Y343590D02*
X156730D01*
X150380Y337240D02*
Y349940D01*
X137680Y328350D02*
Y358830D01*
X373190Y213010D02*
Y223170D01*
X347790Y213010D02*
Y223170D01*
Y213010D02*
X373190D01*
X347790Y223170D02*
X373190D01*
X434399Y324831D02*
X459799D01*
X434399Y314671D02*
X459799D01*
X434399D02*
Y324831D01*
X459799Y314671D02*
Y324831D01*
X109071Y637282D02*
Y647442D01*
X83671Y637282D02*
Y647442D01*
Y637282D02*
X109071D01*
X83671Y647442D02*
X109071D01*
X308300Y442920D02*
Y453080D01*
X333700Y442920D02*
Y453080D01*
X308300D02*
X333700D01*
X308300Y442920D02*
X333700D01*
X79300Y514920D02*
Y525080D01*
X104700Y514920D02*
Y525080D01*
X79300D02*
X104700D01*
X79300Y514920D02*
X104700D01*
X340360Y63500D02*
Y88900D01*
X350520Y63500D02*
Y88900D01*
X340360Y63500D02*
X350520D01*
X340360Y88900D02*
X350520D01*
X200660Y63500D02*
Y88900D01*
X210820Y63500D02*
Y88900D01*
X200660Y63500D02*
X210820D01*
X200660Y88900D02*
X210820D01*
X195580Y195580D02*
X220980D01*
X195580Y185420D02*
X220980D01*
X195580D02*
Y195580D01*
X220980Y185420D02*
Y195580D01*
X73660Y63500D02*
Y88900D01*
X63500Y63500D02*
Y88900D01*
X73660D01*
X63500Y63500D02*
X73660D01*
X42700Y172920D02*
Y183080D01*
X17300Y172920D02*
Y183080D01*
Y172920D02*
X42700D01*
X17300Y183080D02*
X42700D01*
X73660Y212227D02*
Y222386D01*
X48260Y212227D02*
Y222386D01*
Y212227D02*
X73660D01*
X48260Y222386D02*
X73660D01*
X313005Y267685D02*
X335005D01*
X313005Y278685D02*
X335005D01*
Y267685D02*
Y278685D01*
X313005Y267685D02*
Y278685D01*
X48260Y199979D02*
Y210139D01*
X73660Y199979D02*
Y210139D01*
X48260D02*
X73660D01*
X48260Y199979D02*
X73660D01*
X42700Y160844D02*
Y171003D01*
X17300Y160844D02*
Y171003D01*
Y160844D02*
X42700D01*
X17300Y171003D02*
X42700D01*
X434399Y224675D02*
Y234835D01*
X459799Y224675D02*
Y234835D01*
X434399D02*
X459799D01*
X434399Y224675D02*
X459799D01*
X349000Y142000D02*
Y152000D01*
X344000Y147000D02*
X354000D01*
X301000Y115000D02*
Y179000D01*
X397000D01*
Y115000D02*
Y179000D01*
X301000Y115000D02*
X397000D01*
X403860Y40720D02*
Y50720D01*
X398860Y45720D02*
X408860D01*
X451860Y13720D02*
Y77720D01*
X355860Y13720D02*
X451860D01*
X355860D02*
Y77720D01*
X451860D01*
X218180Y285040D02*
X249180D01*
X218180Y250040D02*
Y285040D01*
Y250040D02*
X249180D01*
Y285040D01*
X228680Y267540D02*
X238680D01*
X233680Y262540D02*
Y272540D01*
X217640Y383260D02*
X248640D01*
X217640Y348260D02*
Y383260D01*
Y348260D02*
X248640D01*
Y383260D01*
X228140Y365760D02*
X238140D01*
X233140Y360760D02*
Y370760D01*
M02*
