M48
;Layer_Color=9474304
;FILE_FORMAT=4:4
METRIC,TZ
;TYPE=PLATED
T1F00S00C0.3000
T3F00S00C0.7620
T4F00S00C0.8500
T5F00S00C0.9000
T6F00S00C1.0160
%
T01
X57000Y22000
X40000Y50000
X57912Y91186
X62000Y108000
Y123000
X74000Y126000
X92000Y112000
X80000Y90000
X121158Y98044
X120000Y150000
X150000
X189397Y141548
X190823Y193491
X180000Y189000
X170140Y194698
X193722Y211000
X191000Y232000
X210000Y230000
X216967Y221017
X225000Y202000
X250000Y200000
X255000Y210000
X270000
X250000Y235000
X233680Y271426
X157000Y265000
X144000
X136398Y213868
X112813Y210566
X111750Y235750
X87739Y235759
X61000Y240000
X66000Y259000
X80250Y209750
X95000Y188000
X60000Y180000
X52000Y198000
X37000Y159000
X22000Y158000
X102000Y23000
X153618Y23220
X210000Y30000
X205000Y60000
X190509Y56379
X270000Y60000
X242000Y23000
X260000Y130000
X273088Y137088
X272000Y159000
X340000Y140000
Y127000
X357000
X354000Y194000
X353990Y227022
X335538Y223662
X307000Y240000
X314000Y261000
X350000Y260000
X342246Y272845
X360000Y273000
X390000Y210000
X450000Y190000
X460000Y173000
Y148000
Y134000
X460080Y121920
X460000Y80000
X480000Y90000
X460000Y30000
X413000Y26000
X395000
X330000Y30000
X330031Y54464
X345000Y60000
X322000Y84000
X290882Y23220
X295000Y310000
X296000Y324000
X312000Y347000
X340000Y310000
X360201Y300730
X360000Y290000
X355000Y379000
X365000Y400000
X417000
X410098Y385000
X414994Y350426
X435648Y350359
X454725Y350396
X470012Y350357
X460000Y395000
Y410000
X450000Y450000
X445983Y488967
X455750Y503000
X428500Y512696
X390000Y510000
X380000Y530000
Y540000
X366000Y542000
Y532000
X374000Y568000
X385826Y595884
X405000Y587000
X415000
X463000Y584000
X455750Y630000
X480000
X445000Y650000
X433566Y649566
X397000Y624000
X369000Y471000
X354838Y473456
X346202Y465328
X313500Y439068
X396098Y443099
X480000Y480000
X492000Y537000
X118000Y544000
X107304Y545000
X109409Y554525
X99347Y512460
X90424Y498348
X90000Y485000
Y472000
X80380Y476620
X71674Y490394
X60000Y480000
X72000Y461400
X40574Y461872
X60000Y440000
X61976Y376936
X61000Y360000
X90000Y330000
X143670Y340830
X148887Y323276
X168910Y331724
X177800Y323596
X168148Y307086
X167000Y298000
X179000
X197000Y284000
X237000Y289000
X270000Y310000
Y330000
X245000Y335000
X220000
X233172Y365760
X243226Y366178
X185000Y365000
X180000Y390000
X150000Y420000
X130000Y410000
X135000Y370000
X139440Y300918
X32000Y290000
X21000Y323000
X33000Y397000
X77500Y520696
X79488Y626512
X60000Y630000
X87884Y651764
X20000Y661000
Y613000
X40000Y700000
X20000Y720000
Y760000
X75230Y776000
X83961
X95000Y780000
X113000Y780000
Y772000
Y764000
X100000Y760000
X110000Y740000
X102108Y727964
X113000Y719000
X105000Y710000
X92845Y704155
X100000Y695000
X109000Y688000
X117348Y678434
X116378Y700574
X404000Y700000
X405000Y690000
X404000Y712000
X410000Y760000
X450000Y750000
X480000Y780000
X456000Y694843
X456184Y679958
X360269Y773270
X362000Y781000
T03
X480000Y45000
Y70000
T04
X47285Y347985
Y397985
T05
X420950Y216960
X472258
X472240Y332831
X420925
X340000Y292000
X317000Y293000
T06
X20254Y53292
Y78692
Y104092
Y129492
X421699Y255155
X447099
X472499
Y295795
X447099
X421699
X378000Y359600
Y385000
Y410400
X322400Y423000
X297000
X20254Y444092
Y469492
Y508602
Y534002
Y559402
M30
