G04*
G04 #@! TF.GenerationSoftware,Altium Limited,Altium Designer,19.1.5 (86)*
G04*
G04 Layer_Color=128*
%FSLAX44Y44*%
%MOMM*%
G71*
G01*
G75*
%ADD23R,0.5500X0.5500*%
%ADD25R,0.5500X0.5500*%
%ADD51R,0.9500X0.5500*%
%ADD113R,0.8000X0.8000*%
%ADD144R,0.5600X0.6500*%
%ADD145R,0.7000X0.2500*%
%ADD147R,3.6000X3.0000*%
%ADD148R,3.0000X2.6000*%
%ADD149R,0.6500X1.0600*%
%ADD150R,1.0600X0.6500*%
%ADD151R,1.0600X0.6000*%
%ADD153R,0.6200X1.2200*%
%ADD158R,2.7000X0.8000*%
%ADD159R,0.6000X1.0500*%
%ADD160R,0.5000X0.4000*%
%ADD161O,0.2500X0.8500*%
%ADD162O,0.8500X0.2500*%
%ADD164R,1.0000X0.9000*%
%ADD165R,1.3000X0.7000*%
%ADD166R,0.6990X0.5080*%
%ADD167R,1.4000X1.0000*%
%ADD168R,0.2400X0.9000*%
%ADD169R,0.9000X0.2400*%
%ADD170R,0.8000X0.5500*%
%ADD199R,0.4000X1.1300*%
%ADD200R,0.3800X0.6400*%
%ADD201R,0.2400X0.5400*%
%ADD202R,0.2400X0.9400*%
%ADD203R,0.3400X0.9400*%
%ADD204R,3.3500X3.3500*%
D23*
X148000Y150750D02*
D03*
Y159750D02*
D03*
X126000Y263750D02*
D03*
Y254750D02*
D03*
X138250Y150750D02*
D03*
Y159750D02*
D03*
X214750Y203750D02*
D03*
Y212750D02*
D03*
X167250Y210250D02*
D03*
Y219250D02*
D03*
X281500Y171500D02*
D03*
Y180500D02*
D03*
X205500Y219000D02*
D03*
Y210000D02*
D03*
X226500Y212750D02*
D03*
Y203750D02*
D03*
X266500Y203750D02*
D03*
Y212750D02*
D03*
X427750Y96250D02*
D03*
Y87250D02*
D03*
X182250Y101250D02*
D03*
Y110250D02*
D03*
X182250Y82750D02*
D03*
Y91750D02*
D03*
X399000Y118000D02*
D03*
Y127000D02*
D03*
X408500Y118000D02*
D03*
Y127000D02*
D03*
X242250Y316250D02*
D03*
Y325250D02*
D03*
X177000Y210250D02*
D03*
Y219250D02*
D03*
X138250Y178250D02*
D03*
Y169250D02*
D03*
X126000Y272750D02*
D03*
Y281750D02*
D03*
X126000Y290750D02*
D03*
Y299750D02*
D03*
X125250Y325250D02*
D03*
Y316250D02*
D03*
X320750Y199750D02*
D03*
Y190750D02*
D03*
X458250Y156750D02*
D03*
Y165750D02*
D03*
D25*
X205750Y151000D02*
D03*
X196750D02*
D03*
X272000Y162750D02*
D03*
X281000D02*
D03*
X198750Y101500D02*
D03*
X207750D02*
D03*
X199000Y333750D02*
D03*
X190000D02*
D03*
X380250Y125750D02*
D03*
X389250D02*
D03*
X273000Y146250D02*
D03*
X282000D02*
D03*
X242000Y267500D02*
D03*
X251000D02*
D03*
X242000Y285750D02*
D03*
X251000D02*
D03*
X251000Y276500D02*
D03*
X242000D02*
D03*
X146500Y335000D02*
D03*
X155500D02*
D03*
X144000Y222500D02*
D03*
X153000D02*
D03*
X269000Y103250D02*
D03*
X278000D02*
D03*
X269000Y112750D02*
D03*
X278000D02*
D03*
Y122250D02*
D03*
X269000D02*
D03*
X194250Y48750D02*
D03*
X203250D02*
D03*
X396750Y187000D02*
D03*
X405750D02*
D03*
X378500Y187000D02*
D03*
X387500D02*
D03*
X228750Y188500D02*
D03*
X219750D02*
D03*
X344500Y165000D02*
D03*
X335500D02*
D03*
X291500Y139250D02*
D03*
X300500D02*
D03*
X311250Y196000D02*
D03*
X302250D02*
D03*
X334000Y41500D02*
D03*
X343000D02*
D03*
X334000Y51000D02*
D03*
X343000D02*
D03*
X311000Y35250D02*
D03*
X302000D02*
D03*
Y26250D02*
D03*
X311000D02*
D03*
X364000Y20250D02*
D03*
X355000D02*
D03*
X341750Y21250D02*
D03*
X332750D02*
D03*
D51*
X328250Y120750D02*
D03*
Y104750D02*
D03*
D113*
X371000Y80500D02*
D03*
X355000D02*
D03*
D144*
X431800Y146750D02*
D03*
X444200D02*
D03*
X438000Y165750D02*
D03*
D145*
X341250Y110250D02*
D03*
Y105750D02*
D03*
Y101250D02*
D03*
Y96750D02*
D03*
X359750D02*
D03*
Y101250D02*
D03*
Y110250D02*
D03*
Y105750D02*
D03*
D147*
X378000Y435251D02*
D03*
D148*
Y221251D02*
D03*
D149*
X169500Y178500D02*
D03*
X160000Y156500D02*
D03*
X179000D02*
D03*
D150*
X292500Y112750D02*
D03*
X314500D02*
D03*
Y122250D02*
D03*
X292500D02*
D03*
Y103250D02*
D03*
D151*
X314500D02*
D03*
D153*
X213250Y62150D02*
D03*
Y88350D02*
D03*
X194250D02*
D03*
Y62150D02*
D03*
X203750Y88350D02*
D03*
Y62150D02*
D03*
D158*
X310750Y79500D02*
D03*
Y57500D02*
D03*
D159*
X389500Y138250D02*
D03*
X399000D02*
D03*
X408500D02*
D03*
Y166750D02*
D03*
X399000D02*
D03*
X389500D02*
D03*
D160*
X217500Y120000D02*
D03*
Y113500D02*
D03*
Y126500D02*
D03*
X198500D02*
D03*
Y113500D02*
D03*
D161*
X223500Y234500D02*
D03*
X218500D02*
D03*
X213500D02*
D03*
X208500D02*
D03*
X203500D02*
D03*
X198500D02*
D03*
X193500D02*
D03*
X188500D02*
D03*
X183500D02*
D03*
X178500D02*
D03*
X173500D02*
D03*
X168500D02*
D03*
X163500D02*
D03*
X158500D02*
D03*
X153500D02*
D03*
X148500D02*
D03*
Y323000D02*
D03*
X153500D02*
D03*
X158500D02*
D03*
X163500D02*
D03*
X168500D02*
D03*
X173500D02*
D03*
X178500D02*
D03*
X183500D02*
D03*
X188500D02*
D03*
X193500D02*
D03*
X198500D02*
D03*
X203500D02*
D03*
X208500D02*
D03*
X213500D02*
D03*
X218500D02*
D03*
X223500D02*
D03*
D162*
X141750Y241250D02*
D03*
Y246250D02*
D03*
Y251250D02*
D03*
Y256250D02*
D03*
Y261250D02*
D03*
Y266250D02*
D03*
Y271250D02*
D03*
Y276250D02*
D03*
Y281250D02*
D03*
Y286250D02*
D03*
Y291250D02*
D03*
Y296250D02*
D03*
Y301250D02*
D03*
Y306250D02*
D03*
Y311250D02*
D03*
Y316250D02*
D03*
X230250D02*
D03*
Y311250D02*
D03*
Y306250D02*
D03*
Y301250D02*
D03*
Y296250D02*
D03*
Y291250D02*
D03*
Y286250D02*
D03*
Y281250D02*
D03*
Y276250D02*
D03*
Y271250D02*
D03*
Y266250D02*
D03*
Y261250D02*
D03*
Y256250D02*
D03*
Y251250D02*
D03*
Y246250D02*
D03*
Y241250D02*
D03*
D164*
X255750Y216000D02*
D03*
X237250D02*
D03*
X255750Y200500D02*
D03*
X237250D02*
D03*
D165*
X278750Y64750D02*
D03*
Y81750D02*
D03*
D166*
X384870Y86650D02*
D03*
X408130D02*
D03*
Y106850D02*
D03*
X384870D02*
D03*
Y96750D02*
D03*
X408130D02*
D03*
D167*
X308000Y167500D02*
D03*
D168*
Y154500D02*
D03*
Y180500D02*
D03*
X303000D02*
D03*
X298000D02*
D03*
X313000D02*
D03*
X318000D02*
D03*
Y154500D02*
D03*
X313000D02*
D03*
X303000D02*
D03*
X298000D02*
D03*
D169*
X292500Y165000D02*
D03*
Y170000D02*
D03*
X323500Y165000D02*
D03*
Y170000D02*
D03*
D170*
X379000Y41500D02*
D03*
Y51000D02*
D03*
Y32000D02*
D03*
X355000D02*
D03*
Y41500D02*
D03*
Y51000D02*
D03*
D199*
X350500Y103500D02*
D03*
D200*
X235450Y80000D02*
D03*
D201*
X234250Y71500D02*
D03*
X239250D02*
D03*
X234250Y88500D02*
D03*
X239250D02*
D03*
D202*
X244250Y73500D02*
D03*
X249250Y86500D02*
D03*
X244250D02*
D03*
D203*
X249750Y73500D02*
D03*
D204*
X186000Y278750D02*
D03*
M02*
