G04*
G04 #@! TF.GenerationSoftware,Altium Limited,Altium Designer,19.1.5 (86)*
G04*
G04 Layer_Color=16711935*
%FSLAX44Y44*%
%MOMM*%
G71*
G01*
G75*
%ADD67R,0.7532X0.7532*%
%ADD69R,0.7532X0.7532*%
%ADD77C,2.0000*%
%ADD83R,1.0032X1.0032*%
%ADD95R,1.1532X0.7532*%
%ADD104C,1.7272*%
%ADD105R,1.7272X1.7272*%
%ADD106C,1.8532*%
%ADD107C,1.4032*%
G04:AMPARAMS|DCode=108|XSize=1.4032mm|YSize=1.8032mm|CornerRadius=0.7016mm|HoleSize=0mm|Usage=FLASHONLY|Rotation=180.000|XOffset=0mm|YOffset=0mm|HoleType=Round|Shape=RoundedRectangle|*
%AMROUNDEDRECTD108*
21,1,1.4032,0.4000,0,0,180.0*
21,1,0.0000,1.8032,0,0,180.0*
1,1,1.4032,0.0000,0.2000*
1,1,1.4032,0.0000,0.2000*
1,1,1.4032,0.0000,-0.2000*
1,1,1.4032,0.0000,-0.2000*
%
%ADD108ROUNDEDRECTD108*%
%ADD109C,3.2032*%
%ADD110C,3.0032*%
%ADD111C,1.8032*%
%ADD172R,0.7632X0.8532*%
%ADD173R,0.9032X0.4532*%
%ADD174R,0.8432X1.5732*%
%ADD175R,3.8032X3.2032*%
%ADD176R,3.2032X2.8032*%
%ADD177R,0.8532X1.2632*%
%ADD178R,1.2632X0.8532*%
%ADD179R,1.2632X0.8032*%
%ADD180C,1.4732*%
%ADD181R,0.8232X1.4232*%
%ADD182R,0.7432X1.0032*%
%ADD183R,0.5032X0.8032*%
%ADD184R,0.5032X1.2032*%
%ADD185R,0.6032X1.2032*%
%ADD186R,2.9032X1.0032*%
%ADD187R,0.8032X1.2532*%
%ADD188R,0.7032X0.6032*%
%ADD189O,0.4532X1.0532*%
%ADD190O,1.0532X0.4532*%
%ADD191R,4.5532X4.5532*%
%ADD192R,1.2032X1.1032*%
%ADD193R,1.5032X0.9032*%
%ADD194R,0.9022X0.7112*%
%ADD195R,1.6032X1.2032*%
%ADD196R,0.4432X1.1032*%
%ADD197R,1.1032X0.4432*%
%ADD198R,1.0032X0.7532*%
D67*
X148000Y150750D02*
D03*
Y159750D02*
D03*
X126000Y263750D02*
D03*
Y254750D02*
D03*
X138250Y150750D02*
D03*
Y159750D02*
D03*
X214750Y203750D02*
D03*
Y212750D02*
D03*
X167250Y210250D02*
D03*
Y219250D02*
D03*
X281500Y171500D02*
D03*
Y180500D02*
D03*
X205500Y219000D02*
D03*
Y210000D02*
D03*
X226500Y212750D02*
D03*
Y203750D02*
D03*
X266500Y203750D02*
D03*
Y212750D02*
D03*
X427750Y96250D02*
D03*
Y87250D02*
D03*
X182250Y101250D02*
D03*
Y110250D02*
D03*
X182250Y82750D02*
D03*
Y91750D02*
D03*
X399000Y118000D02*
D03*
Y127000D02*
D03*
X408500Y118000D02*
D03*
Y127000D02*
D03*
X242250Y316250D02*
D03*
Y325250D02*
D03*
X177000Y210250D02*
D03*
Y219250D02*
D03*
X138250Y178250D02*
D03*
Y169250D02*
D03*
X126000Y272750D02*
D03*
Y281750D02*
D03*
X126000Y290750D02*
D03*
Y299750D02*
D03*
X125250Y325250D02*
D03*
Y316250D02*
D03*
X320750Y199750D02*
D03*
Y190750D02*
D03*
X458250Y156750D02*
D03*
Y165750D02*
D03*
D69*
X205750Y151000D02*
D03*
X196750D02*
D03*
X272000Y162750D02*
D03*
X281000D02*
D03*
X198750Y101500D02*
D03*
X207750D02*
D03*
X199000Y333750D02*
D03*
X190000D02*
D03*
X380250Y125750D02*
D03*
X389250D02*
D03*
X273000Y146250D02*
D03*
X282000D02*
D03*
X242000Y267500D02*
D03*
X251000D02*
D03*
X242000Y285750D02*
D03*
X251000D02*
D03*
X251000Y276500D02*
D03*
X242000D02*
D03*
X146500Y335000D02*
D03*
X155500D02*
D03*
X144000Y222500D02*
D03*
X153000D02*
D03*
X269000Y103250D02*
D03*
X278000D02*
D03*
X269000Y112750D02*
D03*
X278000D02*
D03*
Y122250D02*
D03*
X269000D02*
D03*
X194250Y48750D02*
D03*
X203250D02*
D03*
X396750Y187000D02*
D03*
X405750D02*
D03*
X378500Y187000D02*
D03*
X387500D02*
D03*
X228750Y188500D02*
D03*
X219750D02*
D03*
X342000Y131500D02*
D03*
X333000Y131500D02*
D03*
X324000D02*
D03*
X344500Y165000D02*
D03*
X335500D02*
D03*
X291500Y139250D02*
D03*
X300500D02*
D03*
X311250Y196000D02*
D03*
X302250D02*
D03*
X334000Y41500D02*
D03*
X343000D02*
D03*
X334000Y51000D02*
D03*
X343000D02*
D03*
X311000Y35250D02*
D03*
X302000D02*
D03*
Y26250D02*
D03*
X311000D02*
D03*
X364000Y20250D02*
D03*
X355000D02*
D03*
X341750Y21250D02*
D03*
X332750D02*
D03*
D77*
X480000Y215000D02*
D03*
X50000Y85000D02*
D03*
X80000Y590000D02*
D03*
D83*
X371000Y80500D02*
D03*
X355000D02*
D03*
D95*
X328250Y120750D02*
D03*
Y104750D02*
D03*
D104*
X63208Y168944D02*
D03*
X88608Y130844D02*
D03*
X63208D02*
D03*
Y207044D02*
D03*
D105*
X37808Y168944D02*
D03*
X37808Y130844D02*
D03*
Y207044D02*
D03*
D106*
X50570Y448090D02*
D03*
Y549690D02*
D03*
X50000Y257590D02*
D03*
Y384590D02*
D03*
X450570Y448090D02*
D03*
Y549690D02*
D03*
X450500Y257590D02*
D03*
Y384590D02*
D03*
D107*
X274250Y46500D02*
D03*
X225750D02*
D03*
D108*
X213750Y20000D02*
D03*
X286250D02*
D03*
D109*
X40000Y40000D02*
D03*
X460000D02*
D03*
X40000Y620000D02*
D03*
X460000D02*
D03*
D110*
X450000Y196250D02*
D03*
D111*
X435000Y117000D02*
D03*
X475000D02*
D03*
D172*
X431800Y146750D02*
D03*
X444200D02*
D03*
X438000Y165750D02*
D03*
D173*
X341250Y110250D02*
D03*
Y105750D02*
D03*
Y101250D02*
D03*
Y96750D02*
D03*
X359750D02*
D03*
Y101250D02*
D03*
Y110250D02*
D03*
Y105750D02*
D03*
D174*
X350500Y103500D02*
D03*
D175*
X378000Y435251D02*
D03*
D176*
Y221251D02*
D03*
D177*
X169500Y178500D02*
D03*
X160000Y156500D02*
D03*
X179000D02*
D03*
D178*
X292500Y112750D02*
D03*
X314500D02*
D03*
Y122250D02*
D03*
X292500D02*
D03*
Y103250D02*
D03*
D179*
X314500D02*
D03*
D180*
X320000Y620000D02*
D03*
X430000Y580000D02*
D03*
X130000Y360000D02*
D03*
X150000D02*
D03*
X170000D02*
D03*
X190000D02*
D03*
X410000Y580000D02*
D03*
X420000Y560000D02*
D03*
Y540000D02*
D03*
Y520000D02*
D03*
X380000Y530000D02*
D03*
Y510000D02*
D03*
X400000Y520000D02*
D03*
Y500000D02*
D03*
X180000Y140000D02*
D03*
X140000Y570000D02*
D03*
X120000Y560000D02*
D03*
X300000Y210000D02*
D03*
X270000Y250000D02*
D03*
X260000Y300000D02*
D03*
X240000Y170000D02*
D03*
X80000Y150000D02*
D03*
X150000Y200000D02*
D03*
X230000Y110000D02*
D03*
X260000Y540000D02*
D03*
X250000Y490000D02*
D03*
X270000Y610000D02*
D03*
X270000Y270000D02*
D03*
X270000Y480000D02*
D03*
X370000Y550000D02*
D03*
X390000Y470000D02*
D03*
X360000Y510000D02*
D03*
X280000Y530000D02*
D03*
X130000Y400000D02*
D03*
X140000Y430000D02*
D03*
X160000Y430000D02*
D03*
X180000Y420000D02*
D03*
X230000Y510000D02*
D03*
X400000Y40000D02*
D03*
X280000Y220000D02*
D03*
D181*
X213250Y62150D02*
D03*
Y88350D02*
D03*
X194250D02*
D03*
Y62150D02*
D03*
X203750Y88350D02*
D03*
Y62150D02*
D03*
D182*
X235450Y80000D02*
D03*
D183*
X234250Y71500D02*
D03*
X239250D02*
D03*
X234250Y88500D02*
D03*
X239250D02*
D03*
D184*
X244250Y73500D02*
D03*
X249250Y86500D02*
D03*
X244250D02*
D03*
D185*
X249750Y73500D02*
D03*
D186*
X310750Y79500D02*
D03*
Y57500D02*
D03*
D187*
X389500Y138250D02*
D03*
X399000D02*
D03*
X408500D02*
D03*
Y166750D02*
D03*
X399000D02*
D03*
X389500D02*
D03*
D188*
X217500Y120000D02*
D03*
Y113500D02*
D03*
Y126500D02*
D03*
X198500D02*
D03*
Y113500D02*
D03*
D189*
X223500Y234500D02*
D03*
X218500D02*
D03*
X213500D02*
D03*
X208500D02*
D03*
X203500D02*
D03*
X198500D02*
D03*
X193500D02*
D03*
X188500D02*
D03*
X183500D02*
D03*
X178500D02*
D03*
X173500D02*
D03*
X168500D02*
D03*
X163500D02*
D03*
X158500D02*
D03*
X153500D02*
D03*
X148500D02*
D03*
Y323000D02*
D03*
X153500D02*
D03*
X158500D02*
D03*
X163500D02*
D03*
X168500D02*
D03*
X173500D02*
D03*
X178500D02*
D03*
X183500D02*
D03*
X188500D02*
D03*
X193500D02*
D03*
X198500D02*
D03*
X203500D02*
D03*
X208500D02*
D03*
X213500D02*
D03*
X218500D02*
D03*
X223500D02*
D03*
D190*
X141750Y241250D02*
D03*
Y246250D02*
D03*
Y251250D02*
D03*
Y256250D02*
D03*
Y261250D02*
D03*
Y266250D02*
D03*
Y271250D02*
D03*
Y276250D02*
D03*
Y281250D02*
D03*
Y286250D02*
D03*
Y291250D02*
D03*
Y296250D02*
D03*
Y301250D02*
D03*
Y306250D02*
D03*
Y311250D02*
D03*
Y316250D02*
D03*
X230250D02*
D03*
Y311250D02*
D03*
Y306250D02*
D03*
Y301250D02*
D03*
Y296250D02*
D03*
Y291250D02*
D03*
Y286250D02*
D03*
Y281250D02*
D03*
Y276250D02*
D03*
Y271250D02*
D03*
Y266250D02*
D03*
Y261250D02*
D03*
Y256250D02*
D03*
Y251250D02*
D03*
Y246250D02*
D03*
Y241250D02*
D03*
D191*
X186000Y278750D02*
D03*
D192*
X255750Y216000D02*
D03*
X237250D02*
D03*
X255750Y200500D02*
D03*
X237250D02*
D03*
D193*
X278750Y64750D02*
D03*
Y81750D02*
D03*
D194*
X384870Y86650D02*
D03*
X408130D02*
D03*
Y106850D02*
D03*
X384870D02*
D03*
Y96750D02*
D03*
X408130D02*
D03*
D195*
X308000Y167500D02*
D03*
D196*
Y154500D02*
D03*
Y180500D02*
D03*
X303000D02*
D03*
X298000D02*
D03*
X313000D02*
D03*
X318000D02*
D03*
Y154500D02*
D03*
X313000D02*
D03*
X303000D02*
D03*
X298000D02*
D03*
D197*
X292500Y165000D02*
D03*
Y170000D02*
D03*
X323500Y165000D02*
D03*
Y170000D02*
D03*
D198*
X379000Y41500D02*
D03*
Y51000D02*
D03*
Y32000D02*
D03*
X355000D02*
D03*
Y41500D02*
D03*
Y51000D02*
D03*
M02*
