G04*
G04 #@! TF.GenerationSoftware,Altium Limited,Altium Designer,19.1.5 (86)*
G04*
G04 Layer_Color=32896*
%FSLAX44Y44*%
%MOMM*%
G71*
G01*
G75*
%ADD10C,0.1500*%
%ADD11C,0.2500*%
%ADD12C,0.2540*%
%ADD15C,0.2000*%
%ADD16C,0.1000*%
%ADD18C,0.1200*%
%ADD205C,0.2400*%
%ADD206R,11.0000X7.7500*%
D10*
X388500Y112750D02*
X404500D01*
X388500Y80750D02*
X404500D01*
D11*
X382250Y166750D02*
G03*
X382250Y166750I-1250J0D01*
G01*
X232650Y225350D02*
G03*
X232650Y225350I-1250J0D01*
G01*
D12*
X337500Y90500D02*
G03*
X337500Y90500I-1000J0D01*
G01*
X300000Y230251D02*
G03*
X455751Y230011I78006J84502D01*
G01*
X300000Y368251D02*
G03*
X300000Y242751I78477J-62750D01*
G01*
X456000Y242751D02*
G03*
X456000Y368251I-78477J62750D01*
G01*
X187559Y155000D02*
G03*
X187559Y155000I-559J0D01*
G01*
X316559Y130250D02*
G03*
X316559Y130250I-559J0D01*
G01*
X222800Y61280D02*
G03*
X222800Y61280I-1270J0D01*
G01*
X257050Y65000D02*
G03*
X257050Y65000I-1300J0D01*
G01*
X224000Y133000D02*
G03*
X224000Y133000I-1000J0D01*
G01*
X443032Y401288D02*
X456000Y390012D01*
Y230251D02*
Y390012D01*
X443032Y401288D02*
Y437251D01*
X443000D02*
X443032D01*
X443000D02*
Y437251D01*
X416500D02*
X443000D01*
X416500Y428251D02*
Y437251D01*
X399000Y428251D02*
X416500D01*
X339500D02*
X357000D01*
X339500D02*
Y437251D01*
X313000Y437251D02*
X339500D01*
X313000Y437251D02*
Y437251D01*
X312968Y437251D02*
X313000D01*
X312968Y401288D02*
Y437251D01*
X300000Y230251D02*
Y390012D01*
X312968Y401288D01*
D15*
X452000Y144250D02*
G03*
X452000Y144250I-1000J0D01*
G01*
X70000Y40000D02*
G03*
X70000Y40000I-30000J0D01*
G01*
X490000D02*
G03*
X490000Y40000I-30000J0D01*
G01*
X70000Y620000D02*
G03*
X70000Y620000I-30000J0D01*
G01*
X490000D02*
G03*
X490000Y620000I-30000J0D01*
G01*
X379720Y81510D02*
G03*
X379720Y81510I-1000J0D01*
G01*
X350000Y25000D02*
G03*
X350000Y25000I-1000J0D01*
G01*
X218990Y66360D02*
Y84140D01*
X188510Y66360D02*
Y84140D01*
X253750Y70000D02*
Y90000D01*
X229750Y70000D02*
Y90000D01*
X324500Y111250D02*
Y114250D01*
X332000Y111250D02*
Y114250D01*
X383500Y147500D02*
X414500D01*
X383500Y157500D02*
X414500D01*
Y147500D02*
Y157500D01*
X383500Y147500D02*
Y157500D01*
X198000Y109000D02*
X218000D01*
X198000Y131000D02*
X218000D01*
X228750Y231850D02*
X232900D01*
Y236000D01*
Y321500D02*
Y325650D01*
X228750D02*
X232900D01*
X139100D02*
X143250D01*
X139100Y321500D02*
Y325650D01*
Y231850D02*
X143250D01*
X139100D02*
Y236000D01*
X244500Y198250D02*
X248500D01*
X258500Y207250D02*
Y209250D01*
X244500Y218250D02*
X248500D01*
X234000Y207250D02*
Y209250D01*
D16*
X449000Y150250D02*
Y163250D01*
X427000Y150250D02*
Y163250D01*
X433000D01*
X443000Y163250D02*
X449000Y163250D01*
X337500Y93500D02*
X363500D01*
X337500Y113500D02*
X363500D01*
X184500Y157500D02*
Y177500D01*
X154500Y157500D02*
Y177500D01*
X293500Y97750D02*
X313500D01*
X293500Y127750D02*
X313500D01*
X190750Y104750D02*
X193750Y101750D01*
X187500Y191500D02*
X206250D01*
X212000Y197250D01*
X229250D01*
X429500Y103750D02*
X440250D01*
X416750Y122500D02*
X419750Y119500D01*
X422500Y110750D02*
X429500Y103750D01*
X440250Y83500D02*
Y106750D01*
Y92000D02*
Y106750D01*
X422500Y110750D02*
Y116750D01*
X419750Y119500D02*
X422500Y116750D01*
X185125Y118625D02*
X190750Y113000D01*
Y104750D02*
Y113000D01*
X327260Y53260D02*
Y83740D01*
X294240Y53260D02*
Y83740D01*
X413750Y122500D02*
X416750D01*
X292500Y154500D02*
Y160500D01*
Y154500D02*
X294000D01*
X322000Y180500D02*
X323500D01*
Y174500D02*
Y180500D01*
Y154500D02*
Y160500D01*
X322000Y154500D02*
X323500D01*
X292500Y180500D02*
X294000D01*
X292500Y174500D02*
Y180500D01*
X357000Y57500D02*
X377000D01*
X357000Y25500D02*
X377000D01*
D18*
X228335Y154081D02*
X229751Y155497D01*
X232584D01*
X234000Y154081D01*
Y148416D01*
X232584Y147000D01*
X229751D01*
X228335Y148416D01*
X225503D02*
X224086Y147000D01*
X221254D01*
X219838Y148416D01*
Y154081D01*
X221254Y155497D01*
X224086D01*
X225503Y154081D01*
Y152665D01*
X224086Y151249D01*
X219838D01*
X217006Y155497D02*
X211341D01*
Y154081D01*
X217006Y148416D01*
Y147000D01*
X144000Y122143D02*
X152497D01*
Y126392D01*
X151081Y127808D01*
X148248D01*
X146832Y126392D01*
Y122143D01*
Y124976D02*
X144000Y127808D01*
X152497Y136306D02*
X151081Y133473D01*
X148248Y130641D01*
X145416D01*
X144000Y132057D01*
Y134889D01*
X145416Y136306D01*
X146832D01*
X148248Y134889D01*
Y130641D01*
X151081Y139138D02*
X152497Y140554D01*
Y143387D01*
X151081Y144803D01*
X149665D01*
X148248Y143387D01*
Y141970D01*
Y143387D01*
X146832Y144803D01*
X145416D01*
X144000Y143387D01*
Y140554D01*
X145416Y139138D01*
X161750Y187997D02*
Y179500D01*
X157501D01*
X156085Y180916D01*
Y186581D01*
X157501Y187997D01*
X161750D01*
X153253Y180916D02*
X151837Y179500D01*
X149004D01*
X147588Y180916D01*
Y186581D01*
X149004Y187997D01*
X151837D01*
X153253Y186581D01*
Y185165D01*
X151837Y183749D01*
X147588D01*
X289000Y96997D02*
Y89916D01*
X287584Y88500D01*
X284751D01*
X283335Y89916D01*
Y96997D01*
X280503Y89916D02*
X279086Y88500D01*
X276254D01*
X274838Y89916D01*
Y95581D01*
X276254Y96997D01*
X279086D01*
X280503Y95581D01*
Y94165D01*
X279086Y92749D01*
X274838D01*
X349750Y57250D02*
Y65747D01*
X345501D01*
X344085Y64331D01*
Y61499D01*
X345501Y60082D01*
X349750D01*
X346918D02*
X344085Y57250D01*
X335588Y65747D02*
X341253D01*
Y61499D01*
X338420Y62915D01*
X337004D01*
X335588Y61499D01*
Y58666D01*
X337004Y57250D01*
X339837D01*
X341253Y58666D01*
X332756Y65747D02*
X327091D01*
Y64331D01*
X332756Y58666D01*
Y57250D01*
X345000Y26500D02*
Y34997D01*
X340751D01*
X339335Y33581D01*
Y30749D01*
X340751Y29332D01*
X345000D01*
X342168D02*
X339335Y26500D01*
X330838Y34997D02*
X336503D01*
Y30749D01*
X333670Y32165D01*
X332254D01*
X330838Y30749D01*
Y27916D01*
X332254Y26500D01*
X335087D01*
X336503Y27916D01*
X322341Y34997D02*
X325173Y33581D01*
X328005Y30749D01*
Y27916D01*
X326589Y26500D01*
X323757D01*
X322341Y27916D01*
Y29332D01*
X323757Y30749D01*
X328005D01*
X380835Y61166D02*
Y66831D01*
X382251Y68247D01*
X385084D01*
X386500Y66831D01*
Y61166D01*
X385084Y59750D01*
X382251D01*
X383668Y62583D02*
X380835Y59750D01*
X382251D02*
X380835Y61166D01*
X378003Y66831D02*
X376586Y68247D01*
X373754D01*
X372338Y66831D01*
Y65415D01*
X373754Y63999D01*
X375170D01*
X373754D01*
X372338Y62583D01*
Y61166D01*
X373754Y59750D01*
X376586D01*
X378003Y61166D01*
X433335Y174166D02*
Y179831D01*
X434751Y181247D01*
X437584D01*
X439000Y179831D01*
Y174166D01*
X437584Y172750D01*
X434751D01*
X436168Y175582D02*
X433335Y172750D01*
X434751D02*
X433335Y174166D01*
X424838Y172750D02*
X430503D01*
X424838Y178415D01*
Y179831D01*
X426254Y181247D01*
X429086D01*
X430503Y179831D01*
X340251Y616250D02*
Y624747D01*
X344500Y620499D01*
X338835D01*
X336003Y623331D02*
X334586Y624747D01*
X331754D01*
X330338Y623331D01*
Y617666D01*
X331754Y616250D01*
X334586D01*
X336003Y617666D01*
Y623331D01*
X454500Y583081D02*
X453084Y584497D01*
X450251D01*
X448835Y583081D01*
Y581665D01*
X450251Y580249D01*
X451668D01*
X450251D01*
X448835Y578832D01*
Y577416D01*
X450251Y576000D01*
X453084D01*
X454500Y577416D01*
X446003D02*
X444586Y576000D01*
X441754D01*
X440338Y577416D01*
Y583081D01*
X441754Y584497D01*
X444586D01*
X446003Y583081D01*
Y581665D01*
X444586Y580249D01*
X440338D01*
X171250Y142831D02*
X169834Y144247D01*
X167001D01*
X165585Y142831D01*
Y141415D01*
X167001Y139999D01*
X168418D01*
X167001D01*
X165585Y138582D01*
Y137166D01*
X167001Y135750D01*
X169834D01*
X171250Y137166D01*
X157088Y144247D02*
X159920Y142831D01*
X162753Y139999D01*
Y137166D01*
X161336Y135750D01*
X158504D01*
X157088Y137166D01*
Y138582D01*
X158504Y139999D01*
X162753D01*
X292500Y247081D02*
X291084Y248497D01*
X288251D01*
X286835Y247081D01*
Y245665D01*
X288251Y244249D01*
X289668D01*
X288251D01*
X286835Y242832D01*
Y241416D01*
X288251Y240000D01*
X291084D01*
X292500Y241416D01*
X278338Y248497D02*
X284003D01*
Y244249D01*
X281170Y245665D01*
X279754D01*
X278338Y244249D01*
Y241416D01*
X279754Y240000D01*
X282586D01*
X284003Y241416D01*
X291000Y209331D02*
X289584Y210747D01*
X286751D01*
X285335Y209331D01*
Y207915D01*
X286751Y206499D01*
X288168D01*
X286751D01*
X285335Y205082D01*
Y203666D01*
X286751Y202250D01*
X289584D01*
X291000Y203666D01*
X282503Y209331D02*
X281087Y210747D01*
X278254D01*
X276838Y209331D01*
Y207915D01*
X278254Y206499D01*
X279670D01*
X278254D01*
X276838Y205082D01*
Y203666D01*
X278254Y202250D01*
X281087D01*
X282503Y203666D01*
X408000Y536581D02*
X406584Y537997D01*
X403751D01*
X402335Y536581D01*
Y535165D01*
X403751Y533749D01*
X405168D01*
X403751D01*
X402335Y532332D01*
Y530916D01*
X403751Y529500D01*
X406584D01*
X408000Y530916D01*
X393838Y529500D02*
X399503D01*
X393838Y535165D01*
Y536581D01*
X395254Y537997D01*
X398087D01*
X399503Y536581D01*
X420750Y503081D02*
X419334Y504497D01*
X416501D01*
X415085Y503081D01*
Y501665D01*
X416501Y500249D01*
X417918D01*
X416501D01*
X415085Y498832D01*
Y497416D01*
X416501Y496000D01*
X419334D01*
X420750Y497416D01*
X412253Y496000D02*
X409420D01*
X410836D01*
Y504497D01*
X412253Y503081D01*
X369750Y533081D02*
X368334Y534497D01*
X365501D01*
X364085Y533081D01*
Y531665D01*
X365501Y530249D01*
X366918D01*
X365501D01*
X364085Y528832D01*
Y527416D01*
X365501Y526000D01*
X368334D01*
X369750Y527416D01*
X361253Y533081D02*
X359837Y534497D01*
X357004D01*
X355588Y533081D01*
Y527416D01*
X357004Y526000D01*
X359837D01*
X361253Y527416D01*
Y533081D01*
X381335Y492500D02*
X387000D01*
X381335Y498165D01*
Y499581D01*
X382751Y500997D01*
X385584D01*
X387000Y499581D01*
X378503Y493916D02*
X377086Y492500D01*
X374254D01*
X372838Y493916D01*
Y499581D01*
X374254Y500997D01*
X377086D01*
X378503Y499581D01*
Y498165D01*
X377086Y496749D01*
X372838D01*
X394085Y575750D02*
X399750D01*
X394085Y581415D01*
Y582831D01*
X395501Y584247D01*
X398334D01*
X399750Y582831D01*
X391253D02*
X389837Y584247D01*
X387004D01*
X385588Y582831D01*
Y581415D01*
X387004Y579999D01*
X385588Y578582D01*
Y577166D01*
X387004Y575750D01*
X389837D01*
X391253Y577166D01*
Y578582D01*
X389837Y579999D01*
X391253Y581415D01*
Y582831D01*
X389837Y579999D02*
X387004D01*
X437585Y534000D02*
X443250D01*
X437585Y539665D01*
Y541081D01*
X439001Y542497D01*
X441834D01*
X443250Y541081D01*
X434753Y542497D02*
X429088D01*
Y541081D01*
X434753Y535416D01*
Y534000D01*
X405085Y555500D02*
X410750D01*
X405085Y561165D01*
Y562581D01*
X406501Y563997D01*
X409334D01*
X410750Y562581D01*
X396588Y563997D02*
X399420Y562581D01*
X402253Y559749D01*
Y556916D01*
X400836Y555500D01*
X398004D01*
X396588Y556916D01*
Y558332D01*
X398004Y559749D01*
X402253D01*
X438335Y516500D02*
X444000D01*
X438335Y522165D01*
Y523581D01*
X439751Y524997D01*
X442584D01*
X444000Y523581D01*
X429838Y524997D02*
X435503D01*
Y520749D01*
X432670Y522165D01*
X431254D01*
X429838Y520749D01*
Y517916D01*
X431254Y516500D01*
X434086D01*
X435503Y517916D01*
X155500Y369500D02*
X152668D01*
X154084D01*
Y377997D01*
X155500Y376581D01*
X142754Y377997D02*
X148419D01*
Y373749D01*
X145587Y375165D01*
X144170D01*
X142754Y373749D01*
Y370916D01*
X144170Y369500D01*
X147003D01*
X148419Y370916D01*
X196000Y369500D02*
X193168D01*
X194584D01*
Y377997D01*
X196000Y376581D01*
X184670Y369500D02*
Y377997D01*
X188919Y373749D01*
X183254D01*
X135500Y369250D02*
X132668D01*
X134084D01*
Y377747D01*
X135500Y376331D01*
X128419D02*
X127003Y377747D01*
X124170D01*
X122754Y376331D01*
Y374915D01*
X124170Y373499D01*
X125587D01*
X124170D01*
X122754Y372082D01*
Y370666D01*
X124170Y369250D01*
X127003D01*
X128419Y370666D01*
X176750Y369500D02*
X173918D01*
X175334D01*
Y377997D01*
X176750Y376581D01*
X164004Y369500D02*
X169669D01*
X164004Y375165D01*
Y376581D01*
X165420Y377997D01*
X168253D01*
X169669Y376581D01*
X158500Y566000D02*
X155668D01*
X157084D01*
Y574498D01*
X158500Y573081D01*
X151419Y566000D02*
X148587D01*
X150003D01*
Y574498D01*
X151419Y573081D01*
X111000Y555750D02*
X108168D01*
X109584D01*
Y564247D01*
X111000Y562831D01*
X103919D02*
X102503Y564247D01*
X99670D01*
X98254Y562831D01*
Y557166D01*
X99670Y555750D01*
X102503D01*
X103919Y557166D01*
Y562831D01*
X263000Y316081D02*
X261584Y317497D01*
X258751D01*
X257335Y316081D01*
Y314665D01*
X258751Y313249D01*
X260168D01*
X258751D01*
X257335Y311832D01*
Y310416D01*
X258751Y309000D01*
X261584D01*
X263000Y310416D01*
X98585Y145500D02*
X104250D01*
X98585Y151165D01*
Y152581D01*
X100001Y153997D01*
X102834D01*
X104250Y152581D01*
X91504Y145500D02*
Y153997D01*
X95753Y149749D01*
X90088D01*
X225085Y160500D02*
X230750D01*
X225085Y166165D01*
Y167581D01*
X226501Y168997D01*
X229334D01*
X230750Y167581D01*
X222253D02*
X220837Y168997D01*
X218004D01*
X216588Y167581D01*
Y166165D01*
X218004Y164749D01*
X219420D01*
X218004D01*
X216588Y163332D01*
Y161916D01*
X218004Y160500D01*
X220837D01*
X222253Y161916D01*
X265750Y141750D02*
Y150247D01*
X261501D01*
X260085Y148831D01*
Y145999D01*
X261501Y144582D01*
X265750D01*
X262918D02*
X260085Y141750D01*
X257253Y148831D02*
X255837Y150247D01*
X253004D01*
X251588Y148831D01*
Y147415D01*
X253004Y145999D01*
X254420D01*
X253004D01*
X251588Y144582D01*
Y143166D01*
X253004Y141750D01*
X255837D01*
X257253Y143166D01*
X244507Y141750D02*
Y150247D01*
X248755Y145999D01*
X243091D01*
X333750Y454748D02*
Y446250D01*
X329501D01*
X328085Y447667D01*
Y449083D01*
X329501Y450499D01*
X333750D01*
X329501D01*
X328085Y451915D01*
Y453332D01*
X329501Y454748D01*
X333750D01*
X325253Y446250D02*
X322420D01*
X323837D01*
Y454748D01*
X325253Y453332D01*
X284000Y476000D02*
X281168D01*
X282584D01*
Y484497D01*
X284000Y483081D01*
X266835Y279000D02*
X272500D01*
X266835Y284665D01*
Y286081D01*
X268251Y287497D01*
X271084D01*
X272500Y286081D01*
X282751Y605750D02*
Y614247D01*
X287000Y609999D01*
X281335D01*
X291085Y533997D02*
X296750D01*
Y529749D01*
X293918Y531165D01*
X292501D01*
X291085Y529749D01*
Y526916D01*
X292501Y525500D01*
X295334D01*
X296750Y526916D01*
X233835Y494497D02*
X236668Y493081D01*
X239500Y490249D01*
Y487416D01*
X238084Y486000D01*
X235251D01*
X233835Y487416D01*
Y488833D01*
X235251Y490249D01*
X239500D01*
X348250Y514497D02*
X342585D01*
Y513081D01*
X348250Y507416D01*
Y506000D01*
X378000Y472581D02*
X376584Y473997D01*
X373751D01*
X372335Y472581D01*
Y471165D01*
X373751Y469749D01*
X372335Y468332D01*
Y466916D01*
X373751Y465500D01*
X376584D01*
X378000Y466916D01*
Y468332D01*
X376584Y469749D01*
X378000Y471165D01*
Y472581D01*
X376584Y469749D02*
X373751D01*
X248750Y537166D02*
X247334Y535750D01*
X244501D01*
X243085Y537166D01*
Y542831D01*
X244501Y544247D01*
X247334D01*
X248750Y542831D01*
Y541415D01*
X247334Y539999D01*
X243085D01*
X203250Y416250D02*
X200418D01*
X201834D01*
Y424747D01*
X203250Y423331D01*
X190504Y424747D02*
X193337Y423331D01*
X196169Y420499D01*
Y417666D01*
X194753Y416250D01*
X191920D01*
X190504Y417666D01*
Y419083D01*
X191920Y420499D01*
X196169D01*
X166000Y440750D02*
X163168D01*
X164584D01*
Y449247D01*
X166000Y447831D01*
X158919Y449247D02*
X153254D01*
Y447831D01*
X158919Y442166D01*
Y440750D01*
X119750Y395250D02*
X116917D01*
X118334D01*
Y403747D01*
X119750Y402331D01*
X112669D02*
X111253Y403747D01*
X108420D01*
X107004Y402331D01*
Y400915D01*
X108420Y399499D01*
X107004Y398082D01*
Y396666D01*
X108420Y395250D01*
X111253D01*
X112669Y396666D01*
Y398082D01*
X111253Y399499D01*
X112669Y400915D01*
Y402331D01*
X111253Y399499D02*
X108420D01*
X360000Y545000D02*
X357168D01*
X358584D01*
Y553497D01*
X360000Y552081D01*
X352919Y546416D02*
X351503Y545000D01*
X348670D01*
X347254Y546416D01*
Y552081D01*
X348670Y553497D01*
X351503D01*
X352919Y552081D01*
Y550665D01*
X351503Y549249D01*
X347254D01*
X233335Y119250D02*
X239000D01*
X233335Y124915D01*
Y126331D01*
X234751Y127747D01*
X237584D01*
X239000Y126331D01*
X230503D02*
X229087Y127747D01*
X226254D01*
X224838Y126331D01*
Y120666D01*
X226254Y119250D01*
X229087D01*
X230503Y120666D01*
Y126331D01*
X140085Y440750D02*
X145750D01*
X140085Y446415D01*
Y447831D01*
X141501Y449247D01*
X144334D01*
X145750Y447831D01*
X137253Y440750D02*
X134420D01*
X135837D01*
Y449247D01*
X137253Y447831D01*
X433335Y79581D02*
X434751Y80997D01*
X437584D01*
X439000Y79581D01*
Y73916D01*
X437584Y72500D01*
X434751D01*
X433335Y73916D01*
X424838Y72500D02*
X430503D01*
X424838Y78165D01*
Y79581D01*
X426254Y80997D01*
X429086D01*
X430503Y79581D01*
X417757Y72500D02*
Y80997D01*
X422006Y76749D01*
X416341D01*
X352835Y123831D02*
X354251Y125247D01*
X357084D01*
X358500Y123831D01*
Y118166D01*
X357084Y116750D01*
X354251D01*
X352835Y118166D01*
X344338Y116750D02*
X350003D01*
X344338Y122415D01*
Y123831D01*
X345754Y125247D01*
X348587D01*
X350003Y123831D01*
X335841Y125247D02*
X341506D01*
Y120999D01*
X338673Y122415D01*
X337257D01*
X335841Y120999D01*
Y118166D01*
X337257Y116750D01*
X340089D01*
X341506Y118166D01*
X256835Y103581D02*
X258251Y104997D01*
X261084D01*
X262500Y103581D01*
Y97916D01*
X261084Y96500D01*
X258251D01*
X256835Y97916D01*
X248338Y96500D02*
X254003D01*
X248338Y102165D01*
Y103581D01*
X249754Y104997D01*
X252586D01*
X254003Y103581D01*
X239841Y104997D02*
X242673Y103581D01*
X245506Y100749D01*
Y97916D01*
X244089Y96500D01*
X241257D01*
X239841Y97916D01*
Y99333D01*
X241257Y100749D01*
X245506D01*
X267581Y67665D02*
X268997Y66249D01*
Y63416D01*
X267581Y62000D01*
X261916D01*
X260500Y63416D01*
Y66249D01*
X261916Y67665D01*
X260500Y76162D02*
Y70497D01*
X266165Y76162D01*
X267581D01*
X268997Y74746D01*
Y71914D01*
X267581Y70497D01*
X268997Y78995D02*
Y84660D01*
X267581D01*
X261916Y78995D01*
X260500D01*
X367169Y120665D02*
X365753Y119249D01*
Y116416D01*
X367169Y115000D01*
X372834D01*
X374250Y116416D01*
Y119249D01*
X372834Y120665D01*
X367169Y123497D02*
X365753Y124914D01*
Y127746D01*
X367169Y129162D01*
X368585D01*
X370001Y127746D01*
Y126330D01*
Y127746D01*
X371418Y129162D01*
X372834D01*
X374250Y127746D01*
Y124914D01*
X372834Y123497D01*
X367169Y131994D02*
X365753Y133411D01*
Y136243D01*
X367169Y137659D01*
X368585D01*
X370001Y136243D01*
Y134827D01*
Y136243D01*
X371418Y137659D01*
X372834D01*
X374250Y136243D01*
Y133411D01*
X372834Y131994D01*
X269831Y225165D02*
X271247Y223749D01*
Y220916D01*
X269831Y219500D01*
X264166D01*
X262750Y220916D01*
Y223749D01*
X264166Y225165D01*
X269831Y227997D02*
X271247Y229414D01*
Y232246D01*
X269831Y233662D01*
X268415D01*
X266999Y232246D01*
Y230830D01*
Y232246D01*
X265582Y233662D01*
X264166D01*
X262750Y232246D01*
Y229414D01*
X264166Y227997D01*
X262750Y240743D02*
X271247D01*
X266999Y236495D01*
Y242159D01*
X205581Y171915D02*
X206997Y170499D01*
Y167666D01*
X205581Y166250D01*
X199916D01*
X198500Y167666D01*
Y170499D01*
X199916Y171915D01*
X205581Y174747D02*
X206997Y176164D01*
Y178996D01*
X205581Y180412D01*
X204165D01*
X202749Y178996D01*
Y177580D01*
Y178996D01*
X201332Y180412D01*
X199916D01*
X198500Y178996D01*
Y176164D01*
X199916Y174747D01*
X206997Y188909D02*
Y183244D01*
X202749D01*
X204165Y186077D01*
Y187493D01*
X202749Y188909D01*
X199916D01*
X198500Y187493D01*
Y184661D01*
X199916Y183244D01*
X155335Y215581D02*
X156751Y216997D01*
X159584D01*
X161000Y215581D01*
Y209916D01*
X159584Y208500D01*
X156751D01*
X155335Y209916D01*
X152503Y215581D02*
X151087Y216997D01*
X148254D01*
X146838Y215581D01*
Y214165D01*
X148254Y212749D01*
X149670D01*
X148254D01*
X146838Y211332D01*
Y209916D01*
X148254Y208500D01*
X151087D01*
X152503Y209916D01*
X138341Y216997D02*
X141173Y215581D01*
X144005Y212749D01*
Y209916D01*
X142589Y208500D01*
X139757D01*
X138341Y209916D01*
Y211332D01*
X139757Y212749D01*
X144005D01*
X126835Y157831D02*
X128252Y159247D01*
X131084D01*
X132500Y157831D01*
Y152166D01*
X131084Y150750D01*
X128252D01*
X126835Y152166D01*
X124003Y157831D02*
X122587Y159247D01*
X119754D01*
X118338Y157831D01*
Y156415D01*
X119754Y154999D01*
X121171D01*
X119754D01*
X118338Y153582D01*
Y152166D01*
X119754Y150750D01*
X122587D01*
X124003Y152166D01*
X115506Y159247D02*
X109841D01*
Y157831D01*
X115506Y152166D01*
Y150750D01*
X245581Y336915D02*
X246997Y335499D01*
Y332666D01*
X245581Y331250D01*
X239916D01*
X238500Y332666D01*
Y335499D01*
X239916Y336915D01*
X238500Y343996D02*
X246997D01*
X242749Y339747D01*
Y345412D01*
X238500Y353909D02*
Y348245D01*
X244165Y353909D01*
X245581D01*
X246997Y352493D01*
Y349661D01*
X245581Y348245D01*
X194331Y171915D02*
X195747Y170499D01*
Y167666D01*
X194331Y166250D01*
X188666D01*
X187250Y167666D01*
Y170499D01*
X188666Y171915D01*
X187250Y178996D02*
X195747D01*
X191499Y174747D01*
Y180412D01*
X187250Y187493D02*
X195747D01*
X191499Y183244D01*
Y188909D01*
X113835Y261831D02*
X115251Y263247D01*
X118084D01*
X119500Y261831D01*
Y256166D01*
X118084Y254750D01*
X115251D01*
X113835Y256166D01*
X106754Y254750D02*
Y263247D01*
X111003Y258999D01*
X105338D01*
X96841Y263247D02*
X102506D01*
Y258999D01*
X99673Y260415D01*
X98257D01*
X96841Y258999D01*
Y256166D01*
X98257Y254750D01*
X101089D01*
X102506Y256166D01*
X197585Y346831D02*
X199001Y348247D01*
X201834D01*
X203250Y346831D01*
Y341166D01*
X201834Y339750D01*
X199001D01*
X197585Y341166D01*
X190504Y339750D02*
Y348247D01*
X194753Y343999D01*
X189088D01*
X180591Y348247D02*
X183423Y346831D01*
X186255Y343999D01*
Y341166D01*
X184839Y339750D01*
X182007D01*
X180591Y341166D01*
Y342582D01*
X182007Y343999D01*
X186255D01*
X178835Y126581D02*
X180251Y127997D01*
X183084D01*
X184500Y126581D01*
Y120916D01*
X183084Y119500D01*
X180251D01*
X178835Y120916D01*
X171754Y119500D02*
Y127997D01*
X176003Y123749D01*
X170338D01*
X167505Y126581D02*
X166089Y127997D01*
X163257D01*
X161841Y126581D01*
Y125165D01*
X163257Y123749D01*
X161841Y122332D01*
Y120916D01*
X163257Y119500D01*
X166089D01*
X167505Y120916D01*
Y122332D01*
X166089Y123749D01*
X167505Y125165D01*
Y126581D01*
X166089Y123749D02*
X163257D01*
X260085Y160831D02*
X261501Y162247D01*
X264334D01*
X265750Y160831D01*
Y155166D01*
X264334Y153750D01*
X261501D01*
X260085Y155166D01*
X257253Y160831D02*
X255837Y162247D01*
X253004D01*
X251588Y160831D01*
Y159415D01*
X253004Y157999D01*
X251588Y156582D01*
Y155166D01*
X253004Y153750D01*
X255837D01*
X257253Y155166D01*
Y156582D01*
X255837Y157999D01*
X257253Y159415D01*
Y160831D01*
X255837Y157999D02*
X253004D01*
X243091Y162247D02*
X245923Y160831D01*
X248755Y157999D01*
Y155166D01*
X247339Y153750D01*
X244507D01*
X243091Y155166D01*
Y156582D01*
X244507Y157999D01*
X248755D01*
X317500Y49997D02*
Y41500D01*
X311835D01*
X309003Y42916D02*
X307587Y41500D01*
X304754D01*
X303338Y42916D01*
Y48581D01*
X304754Y49997D01*
X307587D01*
X309003Y48581D01*
Y47165D01*
X307587Y45749D01*
X303338D01*
X231750Y182997D02*
Y174500D01*
X226085D01*
X223253D02*
X220420D01*
X221836D01*
Y182997D01*
X223253Y181581D01*
X216172Y174500D02*
X213339D01*
X214755D01*
Y182997D01*
X216172Y181581D01*
X184747Y183500D02*
X176250D01*
Y189165D01*
Y191997D02*
Y194830D01*
Y193414D01*
X184747D01*
X183331Y191997D01*
X176250Y204743D02*
Y199078D01*
X181915Y204743D01*
X183331D01*
X184747Y203327D01*
Y200494D01*
X183331Y199078D01*
X396835Y70166D02*
Y75831D01*
X398251Y77247D01*
X401084D01*
X402500Y75831D01*
Y70166D01*
X401084Y68750D01*
X398251D01*
X399668Y71582D02*
X396835Y68750D01*
X398251D02*
X396835Y70166D01*
X394003Y68750D02*
X391170D01*
X392587D01*
Y77247D01*
X394003Y75831D01*
X369500Y64750D02*
Y73247D01*
X365251D01*
X363835Y71831D01*
Y68999D01*
X365251Y67583D01*
X369500D01*
X366668D02*
X363835Y64750D01*
X361003Y71831D02*
X359587Y73247D01*
X356754D01*
X355338Y71831D01*
Y70415D01*
X356754Y68999D01*
X358170D01*
X356754D01*
X355338Y67583D01*
Y66166D01*
X356754Y64750D01*
X359587D01*
X361003Y66166D01*
X262500Y108250D02*
Y116747D01*
X258251D01*
X256835Y115331D01*
Y112499D01*
X258251Y111083D01*
X262500D01*
X259668D02*
X256835Y108250D01*
X249754D02*
Y116747D01*
X254003Y112499D01*
X248338D01*
X262500Y120500D02*
Y128997D01*
X258251D01*
X256835Y127581D01*
Y124749D01*
X258251Y123333D01*
X262500D01*
X259668D02*
X256835Y120500D01*
X248338Y128997D02*
X254003D01*
Y124749D01*
X251170Y126165D01*
X249754D01*
X248338Y124749D01*
Y121916D01*
X249754Y120500D01*
X252586D01*
X254003Y121916D01*
X252000Y231500D02*
Y239997D01*
X247751D01*
X246335Y238581D01*
Y235749D01*
X247751Y234332D01*
X252000D01*
X249168D02*
X246335Y231500D01*
X243503Y239997D02*
X237838D01*
Y238581D01*
X243503Y232916D01*
Y231500D01*
X132500Y169750D02*
Y178247D01*
X128251D01*
X126835Y176831D01*
Y173999D01*
X128251Y172582D01*
X132500D01*
X129668D02*
X126835Y169750D01*
X124003Y176831D02*
X122586Y178247D01*
X119754D01*
X118338Y176831D01*
Y175415D01*
X119754Y173999D01*
X118338Y172582D01*
Y171166D01*
X119754Y169750D01*
X122586D01*
X124003Y171166D01*
Y172582D01*
X122586Y173999D01*
X124003Y175415D01*
Y176831D01*
X122586Y173999D02*
X119754D01*
X175750Y101250D02*
Y109747D01*
X171501D01*
X170085Y108331D01*
Y105499D01*
X171501Y104082D01*
X175750D01*
X172917D02*
X170085Y101250D01*
X167253D02*
X164420D01*
X165837D01*
Y109747D01*
X167253Y108331D01*
X160172D02*
X158755Y109747D01*
X155923D01*
X154507Y108331D01*
Y102666D01*
X155923Y101250D01*
X158755D01*
X160172Y102666D01*
Y108331D01*
X207000Y33750D02*
Y42247D01*
X202751D01*
X201335Y40831D01*
Y37999D01*
X202751Y36583D01*
X207000D01*
X204168D02*
X201335Y33750D01*
X198503D02*
X195670D01*
X197087D01*
Y42247D01*
X198503Y40831D01*
X191422Y33750D02*
X188589D01*
X190005D01*
Y42247D01*
X191422Y40831D01*
X175500Y83250D02*
Y91747D01*
X171251D01*
X169835Y90331D01*
Y87499D01*
X171251Y86082D01*
X175500D01*
X172668D02*
X169835Y83250D01*
X167003D02*
X164170D01*
X165586D01*
Y91747D01*
X167003Y90331D01*
X154257Y83250D02*
X159922D01*
X154257Y88915D01*
Y90331D01*
X155673Y91747D01*
X158505D01*
X159922Y90331D01*
X430500Y192000D02*
Y200497D01*
X426251D01*
X424835Y199081D01*
Y196249D01*
X426251Y194832D01*
X430500D01*
X427668D02*
X424835Y192000D01*
X416338D02*
X422003D01*
X416338Y197665D01*
Y199081D01*
X417754Y200497D01*
X420587D01*
X422003Y199081D01*
X407841Y200497D02*
X410673Y199081D01*
X413506Y196249D01*
Y193416D01*
X412089Y192000D01*
X409257D01*
X407841Y193416D01*
Y194832D01*
X409257Y196249D01*
X413506D01*
X363750Y172500D02*
X372247D01*
Y176749D01*
X370831Y178165D01*
X367999D01*
X366582Y176749D01*
Y172500D01*
Y175332D02*
X363750Y178165D01*
Y186662D02*
Y180997D01*
X369415Y186662D01*
X370831D01*
X372247Y185246D01*
Y182414D01*
X370831Y180997D01*
X372247Y189494D02*
Y195159D01*
X370831D01*
X365166Y189494D01*
X363750D01*
X443750Y84000D02*
X452247D01*
Y88249D01*
X450831Y89665D01*
X447999D01*
X446582Y88249D01*
Y84000D01*
Y86832D02*
X443750Y89665D01*
Y98162D02*
Y92497D01*
X449415Y98162D01*
X450831D01*
X452247Y96746D01*
Y93913D01*
X450831Y92497D01*
Y100995D02*
X452247Y102411D01*
Y105243D01*
X450831Y106659D01*
X449415D01*
X447999Y105243D01*
X446582Y106659D01*
X445166D01*
X443750Y105243D01*
Y102411D01*
X445166Y100995D01*
X446582D01*
X447999Y102411D01*
X449415Y100995D01*
X450831D01*
X447999Y102411D02*
Y105243D01*
X455750Y84000D02*
X464247D01*
Y88249D01*
X462831Y89665D01*
X459999D01*
X458582Y88249D01*
Y84000D01*
Y86832D02*
X455750Y89665D01*
Y98162D02*
Y92497D01*
X461415Y98162D01*
X462831D01*
X464247Y96746D01*
Y93913D01*
X462831Y92497D01*
X457166Y100995D02*
X455750Y102411D01*
Y105243D01*
X457166Y106659D01*
X462831D01*
X464247Y105243D01*
Y102411D01*
X462831Y100995D01*
X461415D01*
X459999Y102411D01*
Y106659D01*
X190500Y199500D02*
X198997D01*
Y203749D01*
X197581Y205165D01*
X194749D01*
X193332Y203749D01*
Y199500D01*
Y202332D02*
X190500Y205165D01*
X197581Y207997D02*
X198997Y209414D01*
Y212246D01*
X197581Y213662D01*
X196165D01*
X194749Y212246D01*
Y210830D01*
Y212246D01*
X193332Y213662D01*
X191916D01*
X190500Y212246D01*
Y209414D01*
X191916Y207997D01*
X197581Y216495D02*
X198997Y217911D01*
Y220743D01*
X197581Y222159D01*
X191916D01*
X190500Y220743D01*
Y217911D01*
X191916Y216495D01*
X197581D01*
X138500Y219000D02*
Y227497D01*
X134251D01*
X132835Y226081D01*
Y223249D01*
X134251Y221832D01*
X138500D01*
X135668D02*
X132835Y219000D01*
X130003Y226081D02*
X128587Y227497D01*
X125754D01*
X124338Y226081D01*
Y224665D01*
X125754Y223249D01*
X127170D01*
X125754D01*
X124338Y221832D01*
Y220416D01*
X125754Y219000D01*
X128587D01*
X130003Y220416D01*
X121505Y219000D02*
X118673D01*
X120089D01*
Y227497D01*
X121505Y226081D01*
X275250Y172250D02*
Y180747D01*
X271001D01*
X269585Y179331D01*
Y176499D01*
X271001Y175082D01*
X275250D01*
X272418D02*
X269585Y172250D01*
X266753Y179331D02*
X265336Y180747D01*
X262504D01*
X261088Y179331D01*
Y177915D01*
X262504Y176499D01*
X263920D01*
X262504D01*
X261088Y175082D01*
Y173666D01*
X262504Y172250D01*
X265336D01*
X266753Y173666D01*
X252591Y172250D02*
X258256D01*
X252591Y177915D01*
Y179331D01*
X254007Y180747D01*
X256839D01*
X258256Y179331D01*
X346976Y86497D02*
Y79416D01*
X345560Y78000D01*
X342727D01*
X341311Y79416D01*
Y86497D01*
X338479Y85081D02*
X337062Y86497D01*
X334230D01*
X332814Y85081D01*
Y83665D01*
X334230Y82249D01*
X332814Y80832D01*
Y79416D01*
X334230Y78000D01*
X337062D01*
X338479Y79416D01*
Y80832D01*
X337062Y82249D01*
X338479Y83665D01*
Y85081D01*
X337062Y82249D02*
X334230D01*
X250250Y65497D02*
Y58416D01*
X248834Y57000D01*
X246001D01*
X244585Y58416D01*
Y65497D01*
X241753Y57000D02*
X238920D01*
X240336D01*
Y65497D01*
X241753Y64081D01*
X229007Y57000D02*
X234672D01*
X229007Y62665D01*
Y64081D01*
X230423Y65497D01*
X233256D01*
X234672Y64081D01*
X184750Y71497D02*
Y64416D01*
X183334Y63000D01*
X180501D01*
X179085Y64416D01*
Y71497D01*
X176253Y63000D02*
X173420D01*
X174837D01*
Y71497D01*
X176253Y70081D01*
X169172D02*
X167756Y71497D01*
X164923D01*
X163507Y70081D01*
Y68665D01*
X164923Y67249D01*
X166339D01*
X164923D01*
X163507Y65832D01*
Y64416D01*
X164923Y63000D01*
X167756D01*
X169172Y64416D01*
X378500Y157497D02*
Y150416D01*
X377084Y149000D01*
X374251D01*
X372835Y150416D01*
Y157497D01*
X370003Y149000D02*
X367170D01*
X368587D01*
Y157497D01*
X370003Y156081D01*
X358673Y149000D02*
Y157497D01*
X362922Y153249D01*
X357257D01*
X229250Y338997D02*
Y331916D01*
X227834Y330500D01*
X225001D01*
X223585Y331916D01*
Y338997D01*
X220753Y330500D02*
X217920D01*
X219336D01*
Y338997D01*
X220753Y337581D01*
X208007Y338997D02*
X210839Y337581D01*
X213672Y334749D01*
Y331916D01*
X212255Y330500D01*
X209423D01*
X208007Y331916D01*
Y333332D01*
X209423Y334749D01*
X213672D01*
X216750Y143247D02*
Y136166D01*
X215334Y134750D01*
X212501D01*
X211085Y136166D01*
Y143247D01*
X208253Y134750D02*
X205420D01*
X206837D01*
Y143247D01*
X208253Y141831D01*
X201172Y143247D02*
X195507D01*
Y141831D01*
X201172Y136166D01*
Y134750D01*
X347500Y158247D02*
Y151166D01*
X346084Y149750D01*
X343251D01*
X341835Y151166D01*
Y158247D01*
X339003Y149750D02*
X336170D01*
X337587D01*
Y158247D01*
X339003Y156831D01*
X331922D02*
X330505Y158247D01*
X327673D01*
X326257Y156831D01*
Y155415D01*
X327673Y153999D01*
X326257Y152582D01*
Y151166D01*
X327673Y149750D01*
X330505D01*
X331922Y151166D01*
Y152582D01*
X330505Y153999D01*
X331922Y155415D01*
Y156831D01*
X330505Y153999D02*
X327673D01*
X253500Y192747D02*
X247835Y184250D01*
Y192747D02*
X253500Y184250D01*
X245003Y191331D02*
X243587Y192747D01*
X240754D01*
X239338Y191331D01*
Y189915D01*
X240754Y188499D01*
X242170D01*
X240754D01*
X239338Y187083D01*
Y185666D01*
X240754Y184250D01*
X243587D01*
X245003Y185666D01*
X161250Y340750D02*
Y349248D01*
X157001D01*
X155585Y347831D01*
Y344999D01*
X157001Y343583D01*
X161250D01*
X158418D02*
X155585Y340750D01*
X152753Y347831D02*
X151337Y349248D01*
X148504D01*
X147088Y347831D01*
Y346415D01*
X148504Y344999D01*
X149920D01*
X148504D01*
X147088Y343583D01*
Y342166D01*
X148504Y340750D01*
X151337D01*
X152753Y342166D01*
X138591Y349248D02*
X141423Y347831D01*
X144256Y344999D01*
Y342166D01*
X142839Y340750D01*
X140007D01*
X138591Y342166D01*
Y343583D01*
X140007Y344999D01*
X144256D01*
X134835Y195500D02*
X140500D01*
X134835Y201165D01*
Y202581D01*
X136251Y203997D01*
X139084D01*
X140500Y202581D01*
X126338Y195500D02*
X132003D01*
X126338Y201165D01*
Y202581D01*
X127754Y203997D01*
X130587D01*
X132003Y202581D01*
X260500Y242250D02*
Y250747D01*
X256251D01*
X254835Y249331D01*
Y246499D01*
X256251Y245082D01*
X260500D01*
X257668D02*
X254835Y242250D01*
X252003Y249331D02*
X250586Y250747D01*
X247754D01*
X246338Y249331D01*
Y247915D01*
X247754Y246499D01*
X249170D01*
X247754D01*
X246338Y245082D01*
Y243666D01*
X247754Y242250D01*
X250586D01*
X252003Y243666D01*
X237841Y250747D02*
X243505D01*
Y246499D01*
X240673Y247915D01*
X239257D01*
X237841Y246499D01*
Y243666D01*
X239257Y242250D01*
X242089D01*
X243505Y243666D01*
X260500Y252750D02*
Y261247D01*
X256251D01*
X254835Y259831D01*
Y256999D01*
X256251Y255582D01*
X260500D01*
X257668D02*
X254835Y252750D01*
X252003Y259831D02*
X250586Y261247D01*
X247754D01*
X246338Y259831D01*
Y258415D01*
X247754Y256999D01*
X249170D01*
X247754D01*
X246338Y255582D01*
Y254166D01*
X247754Y252750D01*
X250586D01*
X252003Y254166D01*
X243505Y259831D02*
X242089Y261247D01*
X239257D01*
X237841Y259831D01*
Y258415D01*
X239257Y256999D01*
X237841Y255582D01*
Y254166D01*
X239257Y252750D01*
X242089D01*
X243505Y254166D01*
Y255582D01*
X242089Y256999D01*
X243505Y258415D01*
Y259831D01*
X242089Y256999D02*
X239257D01*
X343869Y137500D02*
Y145997D01*
X339621D01*
X338204Y144581D01*
Y141749D01*
X339621Y140332D01*
X343869D01*
X341037D02*
X338204Y137500D01*
X331123D02*
Y145997D01*
X335372Y141749D01*
X329707D01*
X326875Y144581D02*
X325458Y145997D01*
X322626D01*
X321210Y144581D01*
Y138916D01*
X322626Y137500D01*
X325458D01*
X326875Y138916D01*
Y144581D01*
X406213Y60732D02*
X404797Y62148D01*
X401964D01*
X400548Y60732D01*
Y59316D01*
X401964Y57899D01*
X403380D01*
X401964D01*
X400548Y56483D01*
Y55067D01*
X401964Y53651D01*
X404797D01*
X406213Y55067D01*
X397715Y62148D02*
X392051D01*
Y60732D01*
X397715Y55067D01*
Y53651D01*
X236254Y530732D02*
X234838Y532148D01*
X232006D01*
X230589Y530732D01*
Y529316D01*
X232006Y527900D01*
X233422D01*
X232006D01*
X230589Y526483D01*
Y525067D01*
X232006Y523651D01*
X234838D01*
X236254Y525067D01*
X227757Y530732D02*
X226341Y532148D01*
X223508D01*
X222092Y530732D01*
Y529316D01*
X223508Y527900D01*
X222092Y526483D01*
Y525067D01*
X223508Y523651D01*
X226341D01*
X227757Y525067D01*
Y526483D01*
X226341Y527900D01*
X227757Y529316D01*
Y530732D01*
X226341Y527900D02*
X223508D01*
X288000Y235081D02*
X286584Y236497D01*
X283751D01*
X282335Y235081D01*
Y233665D01*
X283751Y232249D01*
X285168D01*
X283751D01*
X282335Y230832D01*
Y229416D01*
X283751Y228000D01*
X286584D01*
X288000Y229416D01*
X275254Y228000D02*
Y236497D01*
X279503Y232249D01*
X273838D01*
X296500Y191500D02*
Y199997D01*
X292251D01*
X290835Y198581D01*
Y195749D01*
X292251Y194332D01*
X296500D01*
X293668D02*
X290835Y191500D01*
X283754D02*
Y199997D01*
X288003Y195749D01*
X282338D01*
X275257Y191500D02*
Y199997D01*
X279506Y195749D01*
X273841D01*
X350000Y190750D02*
Y199247D01*
X345751D01*
X344335Y197831D01*
Y194999D01*
X345751Y193582D01*
X350000D01*
X347168D02*
X344335Y190750D01*
X337254D02*
Y199247D01*
X341503Y194999D01*
X335838D01*
X327341Y199247D02*
X333005D01*
Y194999D01*
X330173Y196415D01*
X328757D01*
X327341Y194999D01*
Y192166D01*
X328757Y190750D01*
X331589D01*
X333005Y192166D01*
X357000Y170750D02*
Y179247D01*
X352752D01*
X351335Y177831D01*
Y174999D01*
X352752Y173582D01*
X357000D01*
X354168D02*
X351335Y170750D01*
X344254D02*
Y179247D01*
X348503Y174999D01*
X342838D01*
X334341Y179247D02*
X337173Y177831D01*
X340006Y174999D01*
Y172166D01*
X338589Y170750D01*
X335757D01*
X334341Y172166D01*
Y173582D01*
X335757Y174999D01*
X340006D01*
X286000Y130750D02*
Y139247D01*
X281751D01*
X280335Y137831D01*
Y134999D01*
X281751Y133582D01*
X286000D01*
X283168D02*
X280335Y130750D01*
X273254D02*
Y139247D01*
X277503Y134999D01*
X271838D01*
X269006Y139247D02*
X263341D01*
Y137831D01*
X269006Y132166D01*
Y130750D01*
X119750Y272750D02*
Y281247D01*
X115501D01*
X114085Y279831D01*
Y276999D01*
X115501Y275583D01*
X119750D01*
X116918D02*
X114085Y272750D01*
X107004D02*
Y281247D01*
X111253Y276999D01*
X105588D01*
X102755Y279831D02*
X101339Y281247D01*
X98507D01*
X97091Y279831D01*
Y278415D01*
X98507Y276999D01*
X97091Y275583D01*
Y274166D01*
X98507Y272750D01*
X101339D01*
X102755Y274166D01*
Y275583D01*
X101339Y276999D01*
X102755Y278415D01*
Y279831D01*
X101339Y276999D02*
X98507D01*
X119750Y290500D02*
Y298997D01*
X115501D01*
X114085Y297581D01*
Y294749D01*
X115501Y293333D01*
X119750D01*
X116918D02*
X114085Y290500D01*
X107004D02*
Y298997D01*
X111253Y294749D01*
X105588D01*
X102755Y291916D02*
X101339Y290500D01*
X98507D01*
X97091Y291916D01*
Y297581D01*
X98507Y298997D01*
X101339D01*
X102755Y297581D01*
Y296165D01*
X101339Y294749D01*
X97091D01*
X118750Y315500D02*
Y323997D01*
X114501D01*
X113085Y322581D01*
Y319749D01*
X114501Y318332D01*
X118750D01*
X115918D02*
X113085Y315500D01*
X104588Y323997D02*
X110253D01*
Y319749D01*
X107420Y321165D01*
X106004D01*
X104588Y319749D01*
Y316916D01*
X106004Y315500D01*
X108836D01*
X110253Y316916D01*
X101756Y322581D02*
X100339Y323997D01*
X97507D01*
X96091Y322581D01*
Y316916D01*
X97507Y315500D01*
X100339D01*
X101756Y316916D01*
Y322581D01*
X290585Y37081D02*
X292001Y38497D01*
X294834D01*
X296250Y37081D01*
Y31416D01*
X294834Y30000D01*
X292001D01*
X290585Y31416D01*
X287753D02*
X286336Y30000D01*
X283504D01*
X282088Y31416D01*
Y37081D01*
X283504Y38497D01*
X286336D01*
X287753Y37081D01*
Y35665D01*
X286336Y34249D01*
X282088D01*
X273591Y38497D02*
X279256D01*
Y34249D01*
X276423Y35665D01*
X275007D01*
X273591Y34249D01*
Y31416D01*
X275007Y30000D01*
X277839D01*
X279256Y31416D01*
X341085Y14581D02*
X342501Y15997D01*
X345334D01*
X346750Y14581D01*
Y8916D01*
X345334Y7500D01*
X342501D01*
X341085Y8916D01*
X338253D02*
X336837Y7500D01*
X334004D01*
X332588Y8916D01*
Y14581D01*
X334004Y15997D01*
X336837D01*
X338253Y14581D01*
Y13165D01*
X336837Y11749D01*
X332588D01*
X324091Y15997D02*
X326923Y14581D01*
X329756Y11749D01*
Y8916D01*
X328339Y7500D01*
X325507D01*
X324091Y8916D01*
Y10332D01*
X325507Y11749D01*
X329756D01*
X465250Y149750D02*
X473747D01*
Y153999D01*
X472331Y155415D01*
X469499D01*
X468083Y153999D01*
Y149750D01*
Y152582D02*
X465250Y155415D01*
X473747Y163912D02*
X472331Y161080D01*
X469499Y158247D01*
X466666D01*
X465250Y159663D01*
Y162496D01*
X466666Y163912D01*
X468083D01*
X469499Y162496D01*
Y158247D01*
X472331Y166744D02*
X473747Y168161D01*
Y170993D01*
X472331Y172409D01*
X466666D01*
X465250Y170993D01*
Y168161D01*
X466666Y166744D01*
X472331D01*
X314750Y12000D02*
Y20497D01*
X310501D01*
X309085Y19081D01*
Y16249D01*
X310501Y14832D01*
X314750D01*
X311918D02*
X309085Y12000D01*
X300588Y20497D02*
X303420Y19081D01*
X306253Y16249D01*
Y13416D01*
X304837Y12000D01*
X302004D01*
X300588Y13416D01*
Y14832D01*
X302004Y16249D01*
X306253D01*
X297756Y12000D02*
X294923D01*
X296339D01*
Y20497D01*
X297756Y19081D01*
X392500Y14000D02*
Y22497D01*
X388251D01*
X386835Y21081D01*
Y18249D01*
X388251Y16832D01*
X392500D01*
X389668D02*
X386835Y14000D01*
X378338Y22497D02*
X381170Y21081D01*
X384003Y18249D01*
Y15416D01*
X382587Y14000D01*
X379754D01*
X378338Y15416D01*
Y16832D01*
X379754Y18249D01*
X384003D01*
X369841Y14000D02*
X375505D01*
X369841Y19665D01*
Y21081D01*
X371257Y22497D01*
X374089D01*
X375505Y21081D01*
D205*
X289200Y177500D02*
G03*
X289200Y177500I-1200J0D01*
G01*
D206*
X122000Y500750D02*
D03*
M02*
