G04 Layer_Color=255*
%FSLAX44Y44*%
%MOMM*%
G71*
G01*
G75*
%ADD12R,0.5500X0.5500*%
%ADD13R,0.5500X0.5500*%
%ADD21C,1.0000*%
%ADD27R,0.8000X0.8000*%
%ADD40R,0.9500X0.5500*%
%ADD61C,1.5240*%
%ADD62R,1.5240X1.5240*%
%ADD63C,1.6500*%
%ADD64C,1.2000*%
G04:AMPARAMS|DCode=65|XSize=1.2mm|YSize=1.6mm|CornerRadius=0.6mm|HoleSize=0mm|Usage=FLASHONLY|Rotation=180.000|XOffset=0mm|YOffset=0mm|HoleType=Round|Shape=RoundedRectangle|*
%AMROUNDEDRECTD65*
21,1,1.2000,0.4000,0,0,180.0*
21,1,0.0000,1.6000,0,0,180.0*
1,1,1.2000,0.0000,0.2000*
1,1,1.2000,0.0000,0.2000*
1,1,1.2000,0.0000,-0.2000*
1,1,1.2000,0.0000,-0.2000*
%
%ADD65ROUNDEDRECTD65*%
%ADD66C,3.0000*%
%ADD67C,2.8000*%
%ADD68C,1.6000*%
%ADD82C,1.2700*%
%ADD83R,0.7500X0.3000*%
%ADD84R,0.6800X1.2300*%
%ADD85R,0.6200X1.2200*%
%ADD86R,0.5400X0.8000*%
%ADD87R,0.3000X0.6000*%
%ADD88R,0.3000X1.0000*%
%ADD89R,0.4000X1.0000*%
%ADD90R,3.6000X3.0000*%
%ADD91R,3.0000X2.6000*%
%ADD92R,0.7000X0.2500*%
%ADD93R,0.6400X1.3700*%
%ADD94R,2.7000X0.8000*%
%ADD95R,0.6000X1.0500*%
%ADD96R,0.5000X0.4000*%
%ADD97O,0.2500X0.8500*%
%ADD98O,0.8500X0.2500*%
%ADD99R,4.3500X4.3500*%
%ADD100R,1.0000X0.9000*%
%ADD101R,1.3000X0.7000*%
%ADD102R,0.6990X0.5080*%
%ADD103R,1.4000X1.0000*%
%ADD104R,0.2400X0.9000*%
%ADD105R,0.9000X0.2400*%
%ADD106R,0.8000X0.5500*%
%ADD107R,0.5600X0.6500*%
D12*
X272000Y162750D02*
D03*
X281000D02*
D03*
X198750Y101500D02*
D03*
X207750D02*
D03*
X199000Y333750D02*
D03*
X190000D02*
D03*
X145500Y175000D02*
D03*
X154500D02*
D03*
X380250Y125750D02*
D03*
X389250D02*
D03*
X273000Y146250D02*
D03*
X282000D02*
D03*
X242000Y267500D02*
D03*
X251000D02*
D03*
X242000Y285750D02*
D03*
X251000D02*
D03*
X251000Y276500D02*
D03*
X242000D02*
D03*
X146500Y335000D02*
D03*
X155500D02*
D03*
X144000Y222500D02*
D03*
X153000D02*
D03*
X272000Y103250D02*
D03*
X281000D02*
D03*
X272000Y112750D02*
D03*
X281000D02*
D03*
Y122250D02*
D03*
X272000D02*
D03*
X194250Y48750D02*
D03*
X203250D02*
D03*
X396750Y187000D02*
D03*
X405750D02*
D03*
X378500Y187000D02*
D03*
X387500D02*
D03*
X228750Y188500D02*
D03*
X219750D02*
D03*
X329501Y131500D02*
D03*
X320500Y131500D02*
D03*
X311500D02*
D03*
X145500Y184250D02*
D03*
X154500D02*
D03*
X344500Y165000D02*
D03*
X335500D02*
D03*
X291500Y139250D02*
D03*
X300500D02*
D03*
X311250Y196000D02*
D03*
X302250D02*
D03*
X334000Y41500D02*
D03*
X343000D02*
D03*
X334000Y51000D02*
D03*
X343000D02*
D03*
X311000Y35250D02*
D03*
X302000D02*
D03*
Y26250D02*
D03*
X311000D02*
D03*
X364000Y20250D02*
D03*
X355000D02*
D03*
X341750Y21250D02*
D03*
X332750D02*
D03*
D13*
X126000Y263750D02*
D03*
Y254750D02*
D03*
X214750Y203750D02*
D03*
Y212750D02*
D03*
X167250Y210250D02*
D03*
Y219250D02*
D03*
X281500Y171500D02*
D03*
Y180500D02*
D03*
X205500Y219000D02*
D03*
Y210000D02*
D03*
X226500Y212750D02*
D03*
Y203750D02*
D03*
X266500Y203750D02*
D03*
Y212750D02*
D03*
X427750Y96250D02*
D03*
Y87250D02*
D03*
X182250Y101250D02*
D03*
Y110250D02*
D03*
X182250Y82750D02*
D03*
Y91750D02*
D03*
X399000Y118000D02*
D03*
Y127000D02*
D03*
X408500Y118000D02*
D03*
Y127000D02*
D03*
X242250Y316250D02*
D03*
Y325250D02*
D03*
X177000Y210250D02*
D03*
Y219250D02*
D03*
X126000Y272750D02*
D03*
Y281750D02*
D03*
X126000Y290750D02*
D03*
Y299750D02*
D03*
X125250Y325250D02*
D03*
Y316250D02*
D03*
X320750Y199750D02*
D03*
Y190750D02*
D03*
X458250Y156750D02*
D03*
Y165750D02*
D03*
D21*
X480000Y215000D02*
D03*
X50000Y85000D02*
D03*
X80000Y590000D02*
D03*
D27*
X371000Y80500D02*
D03*
X355000D02*
D03*
D40*
X328250Y120750D02*
D03*
Y104750D02*
D03*
D61*
X63208Y168944D02*
D03*
X88608Y130844D02*
D03*
X63208D02*
D03*
Y207044D02*
D03*
D62*
X37808Y168944D02*
D03*
X37808Y130844D02*
D03*
Y207044D02*
D03*
D63*
X50570Y448090D02*
D03*
Y549690D02*
D03*
X450570Y448090D02*
D03*
Y549690D02*
D03*
X50500Y257640D02*
D03*
Y384640D02*
D03*
X450500Y257640D02*
D03*
Y384640D02*
D03*
D64*
X274250Y46500D02*
D03*
X225750D02*
D03*
D65*
X213750Y20000D02*
D03*
X286250D02*
D03*
D66*
X40000Y40000D02*
D03*
X460000D02*
D03*
X40000Y620000D02*
D03*
X460000D02*
D03*
D67*
X450000Y196250D02*
D03*
D68*
X435000Y117000D02*
D03*
X475000D02*
D03*
D82*
X320000Y620000D02*
D03*
X430000Y580000D02*
D03*
X130000Y360000D02*
D03*
X150000D02*
D03*
X170000D02*
D03*
X190000D02*
D03*
X410000Y580000D02*
D03*
X420000Y560000D02*
D03*
Y540000D02*
D03*
Y520000D02*
D03*
X380000Y530000D02*
D03*
Y510000D02*
D03*
X400000Y520000D02*
D03*
Y500000D02*
D03*
X180000Y140000D02*
D03*
X140000Y570000D02*
D03*
X120000Y560000D02*
D03*
X300000Y210000D02*
D03*
X270000Y250000D02*
D03*
X260000Y300000D02*
D03*
X240000Y170000D02*
D03*
X80000Y150000D02*
D03*
X150000Y200000D02*
D03*
X230000Y110000D02*
D03*
X260000Y540000D02*
D03*
X250000Y490000D02*
D03*
X270000Y610000D02*
D03*
X270000Y270000D02*
D03*
X270000Y480000D02*
D03*
X370000Y550000D02*
D03*
X390000Y470000D02*
D03*
X360000Y510000D02*
D03*
X280000Y530000D02*
D03*
X130000Y400000D02*
D03*
X140000Y430000D02*
D03*
X160000Y430000D02*
D03*
X180000Y420000D02*
D03*
X230000Y510000D02*
D03*
X400000Y40000D02*
D03*
X280000Y220000D02*
D03*
D83*
X313400Y112500D02*
D03*
Y106000D02*
D03*
Y99500D02*
D03*
X294600Y112500D02*
D03*
Y106000D02*
D03*
Y99500D02*
D03*
D84*
X304000Y106000D02*
D03*
D85*
X213250Y62150D02*
D03*
Y88350D02*
D03*
X194250D02*
D03*
Y62150D02*
D03*
X203750Y88350D02*
D03*
Y62150D02*
D03*
D86*
X235450Y80000D02*
D03*
D87*
X234250Y71500D02*
D03*
X239250D02*
D03*
X234250Y88500D02*
D03*
X239250D02*
D03*
D88*
X244250Y73500D02*
D03*
X249250Y86500D02*
D03*
X244250D02*
D03*
D89*
X249750Y73500D02*
D03*
D90*
X378000Y435251D02*
D03*
D91*
Y221251D02*
D03*
D92*
X341250Y110250D02*
D03*
Y105750D02*
D03*
Y101250D02*
D03*
Y96750D02*
D03*
X359750D02*
D03*
Y101250D02*
D03*
Y110250D02*
D03*
Y105750D02*
D03*
D93*
X350500Y103500D02*
D03*
D94*
X304250Y86750D02*
D03*
Y64750D02*
D03*
D95*
X389500Y138250D02*
D03*
X399000D02*
D03*
X408500D02*
D03*
Y166750D02*
D03*
X399000D02*
D03*
X389500D02*
D03*
D96*
X217500Y120000D02*
D03*
Y113500D02*
D03*
Y126500D02*
D03*
X198500D02*
D03*
Y113500D02*
D03*
D97*
X223500Y234500D02*
D03*
X218500D02*
D03*
X213500D02*
D03*
X208500D02*
D03*
X203500D02*
D03*
X198500D02*
D03*
X193500D02*
D03*
X188500D02*
D03*
X183500D02*
D03*
X178500D02*
D03*
X173500D02*
D03*
X168500D02*
D03*
X163500D02*
D03*
X158500D02*
D03*
X153500D02*
D03*
X148500D02*
D03*
Y323000D02*
D03*
X153500D02*
D03*
X158500D02*
D03*
X163500D02*
D03*
X168500D02*
D03*
X173500D02*
D03*
X178500D02*
D03*
X183500D02*
D03*
X188500D02*
D03*
X193500D02*
D03*
X198500D02*
D03*
X203500D02*
D03*
X208500D02*
D03*
X213500D02*
D03*
X218500D02*
D03*
X223500D02*
D03*
D98*
X141750Y241250D02*
D03*
Y246250D02*
D03*
Y251250D02*
D03*
Y256250D02*
D03*
Y261250D02*
D03*
Y266250D02*
D03*
Y271250D02*
D03*
Y276250D02*
D03*
Y281250D02*
D03*
Y286250D02*
D03*
Y291250D02*
D03*
Y296250D02*
D03*
Y301250D02*
D03*
Y306250D02*
D03*
Y311250D02*
D03*
Y316250D02*
D03*
X230250D02*
D03*
Y311250D02*
D03*
Y306250D02*
D03*
Y301250D02*
D03*
Y296250D02*
D03*
Y291250D02*
D03*
Y286250D02*
D03*
Y281250D02*
D03*
Y276250D02*
D03*
Y271250D02*
D03*
Y266250D02*
D03*
Y261250D02*
D03*
Y256250D02*
D03*
Y251250D02*
D03*
Y246250D02*
D03*
Y241250D02*
D03*
D99*
X186000Y278750D02*
D03*
D100*
X255750Y216000D02*
D03*
X237250D02*
D03*
X255750Y200500D02*
D03*
X237250D02*
D03*
D101*
X278750Y64750D02*
D03*
Y81750D02*
D03*
D102*
X384870Y86650D02*
D03*
X408130D02*
D03*
Y106850D02*
D03*
X384870D02*
D03*
Y96750D02*
D03*
X408130D02*
D03*
D103*
X308000Y167500D02*
D03*
D104*
Y154500D02*
D03*
Y180500D02*
D03*
X303000D02*
D03*
X298000D02*
D03*
X313000D02*
D03*
X318000D02*
D03*
Y154500D02*
D03*
X313000D02*
D03*
X303000D02*
D03*
X298000D02*
D03*
D105*
X292500Y165000D02*
D03*
Y170000D02*
D03*
X323500Y165000D02*
D03*
Y170000D02*
D03*
D106*
X379000Y41500D02*
D03*
Y51000D02*
D03*
Y32000D02*
D03*
X355000D02*
D03*
Y41500D02*
D03*
Y51000D02*
D03*
D107*
X431800Y146750D02*
D03*
X444200D02*
D03*
X438000Y165750D02*
D03*
M02*
