G04 Layer_Color=8421504*
%FSLAX44Y44*%
%MOMM*%
G71*
G01*
G75*
%ADD11R,0.2500X0.3000*%
%ADD12R,0.5500X0.5500*%
%ADD13R,0.5500X0.5500*%
%ADD14R,0.3000X0.5000*%
%ADD15R,0.5000X0.3000*%
%ADD16R,0.4000X0.5000*%
%ADD17R,1.1000X0.4700*%
%ADD18R,3.0000X1.4000*%
%ADD19R,3.2000X1.0000*%
%ADD20R,2.2500X1.0500*%
%ADD22R,0.6500X0.8500*%
%ADD23R,0.4000X1.3500*%
%ADD24R,3.4000X1.3500*%
%ADD25R,0.2500X0.4500*%
%ADD26R,0.3500X0.4500*%
G04:AMPARAMS|DCode=28|XSize=1.7mm|YSize=2.8mm|CornerRadius=0mm|HoleSize=0mm|Usage=FLASHONLY|Rotation=225.000|XOffset=0mm|YOffset=0mm|HoleType=Round|Shape=Rectangle|*
%AMROTATEDRECTD28*
4,1,4,-0.3889,1.5910,1.5910,-0.3889,0.3889,-1.5910,-1.5910,0.3889,-0.3889,1.5910,0.0*
%
%ADD28ROTATEDRECTD28*%

G04:AMPARAMS|DCode=29|XSize=1.7mm|YSize=2.8mm|CornerRadius=0mm|HoleSize=0mm|Usage=FLASHONLY|Rotation=315.000|XOffset=0mm|YOffset=0mm|HoleType=Round|Shape=Rectangle|*
%AMROTATEDRECTD29*
4,1,4,-1.5910,-0.3889,0.3889,1.5910,1.5910,0.3889,-0.3889,-1.5910,-1.5910,-0.3889,0.0*
%
%ADD29ROTATEDRECTD29*%

%ADD30R,0.3000X0.2500*%
%ADD31R,0.5500X0.2500*%
%ADD32R,0.3500X0.2500*%
%ADD33R,0.2000X0.2000*%
G04:AMPARAMS|DCode=34|XSize=0.25mm|YSize=0.3mm|CornerRadius=0mm|HoleSize=0mm|Usage=FLASHONLY|Rotation=45.000|XOffset=0mm|YOffset=0mm|HoleType=Round|Shape=Rectangle|*
%AMROTATEDRECTD34*
4,1,4,0.0177,-0.1945,-0.1945,0.0177,-0.0177,0.1945,0.1945,-0.0177,0.0177,-0.1945,0.0*
%
%ADD34ROTATEDRECTD34*%

G04:AMPARAMS|DCode=35|XSize=0.25mm|YSize=0.3mm|CornerRadius=0mm|HoleSize=0mm|Usage=FLASHONLY|Rotation=135.000|XOffset=0mm|YOffset=0mm|HoleType=Round|Shape=Rectangle|*
%AMROTATEDRECTD35*
4,1,4,0.1945,0.0177,-0.0177,-0.1945,-0.1945,-0.0177,0.0177,0.1945,0.1945,0.0177,0.0*
%
%ADD35ROTATEDRECTD35*%

%ADD36R,1.0500X2.2000*%
%ADD37R,1.0000X1.0500*%
%ADD38R,0.9500X0.8500*%
%ADD39P,0.7778X4X360.0*%
%ADD40R,0.9500X0.5500*%
%ADD41R,1.0000X1.8000*%
%ADD42R,2.0000X2.5000*%
%ADD43R,2.0000X2.0000*%
%ADD44R,0.8000X2.0000*%
%ADD46R,0.2200X0.4500*%
%ADD47R,0.4500X0.2200*%
%ADD48R,0.1900X0.4500*%
%ADD49R,0.4500X0.1900*%
%ADD59C,0.2500*%
%ADD114R,0.4000X0.3250*%
%ADD115R,0.4000X0.3250*%
%ADD116R,1.4000X1.4000*%
%ADD117R,0.7000X0.7000*%
D11*
X260750Y614250D02*
D03*
X255250D02*
D03*
X232750Y586750D02*
D03*
X227250D02*
D03*
X222750D02*
D03*
X217250D02*
D03*
X222500Y602750D02*
D03*
X217000D02*
D03*
X233000D02*
D03*
X227500D02*
D03*
X189500Y601750D02*
D03*
X195000D02*
D03*
X188250Y596250D02*
D03*
X182750D02*
D03*
X188250Y612250D02*
D03*
X182750D02*
D03*
X261000Y592000D02*
D03*
X255500D02*
D03*
X260750Y608500D02*
D03*
X255250D02*
D03*
X254750Y655000D02*
D03*
X249250D02*
D03*
X184250D02*
D03*
X189750D02*
D03*
X251000Y675500D02*
D03*
X256500D02*
D03*
X199501D02*
D03*
X194000D02*
D03*
X189250Y617750D02*
D03*
X194750D02*
D03*
X205500Y670500D02*
D03*
X200000D02*
D03*
X203250Y665500D02*
D03*
X208750D02*
D03*
X240250D02*
D03*
X234750D02*
D03*
X239000Y670500D02*
D03*
X244500D02*
D03*
D12*
X154500Y446000D02*
D03*
X163500D02*
D03*
X154500Y437250D02*
D03*
X163500D02*
D03*
X371500Y408750D02*
D03*
X380500D02*
D03*
X129250Y568500D02*
D03*
X138250D02*
D03*
X164000Y574750D02*
D03*
X173000D02*
D03*
X171000Y455750D02*
D03*
X162000D02*
D03*
X395250Y570750D02*
D03*
X386250D02*
D03*
X386250Y580250D02*
D03*
X395250D02*
D03*
X163500Y535250D02*
D03*
X172500D02*
D03*
X151500Y497750D02*
D03*
X160500D02*
D03*
X151500Y506750D02*
D03*
X160500D02*
D03*
X164000Y583250D02*
D03*
X173000D02*
D03*
X164000Y566250D02*
D03*
X173000D02*
D03*
X164000Y549250D02*
D03*
X173000D02*
D03*
X323500Y527500D02*
D03*
X332500D02*
D03*
X323500Y518750D02*
D03*
X332500D02*
D03*
X324250Y560000D02*
D03*
X333250D02*
D03*
X335250Y453000D02*
D03*
X344250D02*
D03*
X229000Y379500D02*
D03*
X220000D02*
D03*
X173000Y591750D02*
D03*
X164000D02*
D03*
X173000Y557750D02*
D03*
X164000D02*
D03*
X220500Y688750D02*
D03*
X211500D02*
D03*
X229750D02*
D03*
X238750D02*
D03*
D13*
X299750Y431500D02*
D03*
Y440500D02*
D03*
X350750Y417750D02*
D03*
Y426750D02*
D03*
X315750Y432500D02*
D03*
Y441500D02*
D03*
X283250Y437500D02*
D03*
Y428500D02*
D03*
X260000Y432750D02*
D03*
Y423750D02*
D03*
X307500Y419500D02*
D03*
Y410500D02*
D03*
X325250Y446250D02*
D03*
Y437250D02*
D03*
X320500Y388250D02*
D03*
Y397250D02*
D03*
X228750Y435750D02*
D03*
Y426750D02*
D03*
X242500Y435750D02*
D03*
Y426750D02*
D03*
X273000Y396250D02*
D03*
Y387250D02*
D03*
X352500Y585750D02*
D03*
Y594750D02*
D03*
X333000Y585750D02*
D03*
Y594750D02*
D03*
X311250Y35250D02*
D03*
Y26250D02*
D03*
X301750Y35250D02*
D03*
Y26250D02*
D03*
X332000Y63250D02*
D03*
Y54250D02*
D03*
X358000Y63250D02*
D03*
Y54250D02*
D03*
X369500Y63250D02*
D03*
Y54250D02*
D03*
X379000D02*
D03*
Y63250D02*
D03*
X388500Y54250D02*
D03*
Y63250D02*
D03*
X398000Y63250D02*
D03*
Y54250D02*
D03*
X407500Y54250D02*
D03*
Y63250D02*
D03*
X417000Y54250D02*
D03*
Y63250D02*
D03*
X210250Y596500D02*
D03*
Y587500D02*
D03*
X239750Y596500D02*
D03*
Y587500D02*
D03*
X210250Y631000D02*
D03*
Y622000D02*
D03*
X239750Y605500D02*
D03*
Y614500D02*
D03*
X332750Y471250D02*
D03*
Y462250D02*
D03*
X323500Y545000D02*
D03*
Y536000D02*
D03*
X351500Y467500D02*
D03*
Y476500D02*
D03*
X297750Y419500D02*
D03*
Y410500D02*
D03*
X268750Y439000D02*
D03*
Y430000D02*
D03*
X290500Y591000D02*
D03*
Y600000D02*
D03*
X299500Y591000D02*
D03*
Y600000D02*
D03*
X308500Y591000D02*
D03*
Y600000D02*
D03*
X317500Y591000D02*
D03*
Y600000D02*
D03*
X210250Y614500D02*
D03*
Y605500D02*
D03*
X342250Y467500D02*
D03*
Y476500D02*
D03*
X322000Y474000D02*
D03*
Y483000D02*
D03*
X342750Y585750D02*
D03*
Y594750D02*
D03*
X391000Y534500D02*
D03*
Y543500D02*
D03*
D14*
X189750Y647500D02*
D03*
Y638500D02*
D03*
X248500Y647500D02*
D03*
Y638500D02*
D03*
D15*
X181250Y643000D02*
D03*
X198250D02*
D03*
X240000Y643000D02*
D03*
X257000D02*
D03*
D16*
X307500Y659000D02*
D03*
X326500D02*
D03*
X160500Y659750D02*
D03*
X141500D02*
D03*
D17*
X317000Y668000D02*
D03*
Y650000D02*
D03*
X151000Y650750D02*
D03*
Y668750D02*
D03*
D18*
X76570Y435390D02*
D03*
Y460790D02*
D03*
Y486190D02*
D03*
Y511590D02*
D03*
Y536990D02*
D03*
Y562390D02*
D03*
X24570D02*
D03*
Y536990D02*
D03*
Y511590D02*
D03*
Y486190D02*
D03*
Y460790D02*
D03*
Y435390D02*
D03*
X476570D02*
D03*
Y460790D02*
D03*
Y486190D02*
D03*
Y511590D02*
D03*
Y536990D02*
D03*
Y562390D02*
D03*
X424570D02*
D03*
Y536990D02*
D03*
Y511590D02*
D03*
Y486190D02*
D03*
Y460790D02*
D03*
Y435390D02*
D03*
X76500Y244940D02*
D03*
Y270340D02*
D03*
Y295740D02*
D03*
Y321140D02*
D03*
Y346540D02*
D03*
Y371940D02*
D03*
Y397340D02*
D03*
X24500D02*
D03*
Y371940D02*
D03*
Y346540D02*
D03*
Y321140D02*
D03*
Y295740D02*
D03*
Y270340D02*
D03*
Y244940D02*
D03*
X476500D02*
D03*
Y270340D02*
D03*
Y295740D02*
D03*
Y321140D02*
D03*
Y346540D02*
D03*
Y371940D02*
D03*
Y397340D02*
D03*
X424500D02*
D03*
Y371940D02*
D03*
Y346540D02*
D03*
Y321140D02*
D03*
Y295740D02*
D03*
Y270340D02*
D03*
Y244940D02*
D03*
D19*
X328000Y205000D02*
D03*
Y165000D02*
D03*
X388000D02*
D03*
Y205000D02*
D03*
X112000D02*
D03*
Y165000D02*
D03*
X172000D02*
D03*
Y205000D02*
D03*
D20*
X278750Y204750D02*
D03*
Y165250D02*
D03*
X221250D02*
D03*
Y204750D02*
D03*
D22*
X164750Y27750D02*
D03*
Y42250D02*
D03*
X173250Y27750D02*
D03*
Y42250D02*
D03*
X138750Y27750D02*
D03*
Y42250D02*
D03*
X147250Y27750D02*
D03*
Y42250D02*
D03*
X112750Y27750D02*
D03*
Y42250D02*
D03*
X121250Y27750D02*
D03*
Y42250D02*
D03*
X414250D02*
D03*
Y27750D02*
D03*
X405750D02*
D03*
Y42250D02*
D03*
X388250D02*
D03*
Y27750D02*
D03*
X379750D02*
D03*
Y42250D02*
D03*
X86750Y27750D02*
D03*
Y42250D02*
D03*
X95250Y27750D02*
D03*
Y42250D02*
D03*
D23*
X250000Y45750D02*
D03*
X243500D02*
D03*
X237000D02*
D03*
X256500D02*
D03*
X263000D02*
D03*
D24*
X250000Y20000D02*
D03*
D25*
X105000Y82250D02*
D03*
Y72750D02*
D03*
X100000D02*
D03*
Y82250D02*
D03*
X160000Y82250D02*
D03*
Y72750D02*
D03*
X155000D02*
D03*
Y82250D02*
D03*
X132500D02*
D03*
Y72750D02*
D03*
X127500D02*
D03*
Y82250D02*
D03*
D26*
X110500Y82250D02*
D03*
Y72750D02*
D03*
X94500Y82250D02*
D03*
Y72750D02*
D03*
X165500Y82250D02*
D03*
Y72750D02*
D03*
X149500Y82250D02*
D03*
Y72750D02*
D03*
X138000Y82250D02*
D03*
Y72750D02*
D03*
X122000Y82250D02*
D03*
Y72750D02*
D03*
D28*
X66077Y715077D02*
D03*
X130423Y779424D02*
D03*
D29*
X434173Y715077D02*
D03*
X369827Y779424D02*
D03*
D30*
X227500Y597500D02*
D03*
Y592000D02*
D03*
X222500Y597500D02*
D03*
Y592000D02*
D03*
X220750Y638250D02*
D03*
Y643750D02*
D03*
X212500Y649250D02*
D03*
Y643750D02*
D03*
X182750Y601500D02*
D03*
Y607000D02*
D03*
X194500D02*
D03*
Y612500D02*
D03*
X255500Y597500D02*
D03*
Y603000D02*
D03*
X250000Y665750D02*
D03*
Y660250D02*
D03*
X244750Y660250D02*
D03*
Y665750D02*
D03*
X190000Y665500D02*
D03*
Y660000D02*
D03*
X246000Y681000D02*
D03*
Y675500D02*
D03*
X261750Y681000D02*
D03*
Y675500D02*
D03*
X188750Y681000D02*
D03*
Y675500D02*
D03*
X204750Y681000D02*
D03*
Y675500D02*
D03*
X197500Y660000D02*
D03*
X197500Y665500D02*
D03*
D31*
X229250Y616001D02*
D03*
X220750D02*
D03*
X229250Y626001D02*
D03*
Y621000D02*
D03*
X220750D02*
D03*
Y626001D02*
D03*
D32*
X215000Y665500D02*
D03*
Y675500D02*
D03*
Y670500D02*
D03*
X229500Y665500D02*
D03*
Y670500D02*
D03*
Y675500D02*
D03*
D33*
X222250Y668000D02*
D03*
D34*
X433806Y688806D02*
D03*
X437694Y692695D02*
D03*
D35*
X66945Y689305D02*
D03*
X63056Y693195D02*
D03*
D36*
X95250Y617000D02*
D03*
X124750D02*
D03*
X375250Y617000D02*
D03*
X404750D02*
D03*
D37*
X110000Y632250D02*
D03*
X390000Y632250D02*
D03*
D38*
X131250Y529000D02*
D03*
Y544500D02*
D03*
X150750Y529000D02*
D03*
Y544500D02*
D03*
D39*
X110068Y653318D02*
D03*
X116432Y659682D02*
D03*
X110068Y666046D02*
D03*
X389932Y665432D02*
D03*
X383568Y659068D02*
D03*
X389932Y652704D02*
D03*
D40*
X371000Y500250D02*
D03*
Y484250D02*
D03*
D41*
X309250Y392750D02*
D03*
X284250D02*
D03*
D42*
X475000Y158500D02*
D03*
Y86500D02*
D03*
D43*
X405000Y137000D02*
D03*
Y114000D02*
D03*
X417000Y89000D02*
D03*
D44*
X338000Y493500D02*
D03*
X358000D02*
D03*
D46*
X205000Y563000D02*
D03*
X210000D02*
D03*
X215000D02*
D03*
X220000D02*
D03*
X225000D02*
D03*
X230000D02*
D03*
X235000D02*
D03*
X240000D02*
D03*
X245000D02*
D03*
X250000D02*
D03*
X255000D02*
D03*
X260000D02*
D03*
X265000D02*
D03*
X270000D02*
D03*
X275000D02*
D03*
X280000D02*
D03*
X285000D02*
D03*
X290000D02*
D03*
X295000D02*
D03*
Y457000D02*
D03*
X290000D02*
D03*
X285000D02*
D03*
X280000D02*
D03*
X275000D02*
D03*
X270000D02*
D03*
X265000D02*
D03*
X260000D02*
D03*
X255000D02*
D03*
X250000D02*
D03*
X245000D02*
D03*
X240000D02*
D03*
X235000D02*
D03*
X230000D02*
D03*
X225000D02*
D03*
X220000D02*
D03*
X215000D02*
D03*
X210000D02*
D03*
X205000D02*
D03*
D47*
X303000Y555000D02*
D03*
Y550000D02*
D03*
Y545000D02*
D03*
Y540000D02*
D03*
Y535000D02*
D03*
Y530000D02*
D03*
Y525000D02*
D03*
Y520000D02*
D03*
Y515000D02*
D03*
Y510000D02*
D03*
Y505000D02*
D03*
Y500000D02*
D03*
Y495000D02*
D03*
Y490000D02*
D03*
Y485000D02*
D03*
Y480000D02*
D03*
Y475000D02*
D03*
Y470000D02*
D03*
Y465000D02*
D03*
X197000D02*
D03*
Y470000D02*
D03*
Y475000D02*
D03*
Y480000D02*
D03*
Y485000D02*
D03*
Y490000D02*
D03*
Y495000D02*
D03*
Y500000D02*
D03*
Y505000D02*
D03*
Y510000D02*
D03*
Y515000D02*
D03*
Y520000D02*
D03*
Y525000D02*
D03*
Y530000D02*
D03*
Y535000D02*
D03*
Y540000D02*
D03*
Y545000D02*
D03*
Y550000D02*
D03*
Y555000D02*
D03*
D48*
X197500Y569250D02*
D03*
X202500D02*
D03*
X207500D02*
D03*
X212500D02*
D03*
X217500D02*
D03*
X222500D02*
D03*
X227500D02*
D03*
X232500D02*
D03*
X237500D02*
D03*
X242500D02*
D03*
X247500D02*
D03*
X252500D02*
D03*
X257500D02*
D03*
X262500D02*
D03*
X267500D02*
D03*
X272500D02*
D03*
X277500D02*
D03*
X282500D02*
D03*
X287500D02*
D03*
X292500D02*
D03*
X297500D02*
D03*
X302500D02*
D03*
Y450750D02*
D03*
X297500D02*
D03*
X292500D02*
D03*
X287500D02*
D03*
X282500D02*
D03*
X277500D02*
D03*
X272500D02*
D03*
X267500D02*
D03*
X262500D02*
D03*
X257500D02*
D03*
X252500D02*
D03*
X247500D02*
D03*
X242500D02*
D03*
X237500D02*
D03*
X232500D02*
D03*
X227500D02*
D03*
X222500D02*
D03*
X217500D02*
D03*
X212500D02*
D03*
X207500D02*
D03*
X202500D02*
D03*
X197500D02*
D03*
D49*
X309250Y562500D02*
D03*
Y557500D02*
D03*
Y552500D02*
D03*
Y547500D02*
D03*
Y542500D02*
D03*
Y537500D02*
D03*
Y532500D02*
D03*
Y527500D02*
D03*
Y522500D02*
D03*
Y517500D02*
D03*
Y512500D02*
D03*
Y507500D02*
D03*
Y502500D02*
D03*
Y497500D02*
D03*
Y492500D02*
D03*
Y487500D02*
D03*
Y482500D02*
D03*
Y477500D02*
D03*
Y472500D02*
D03*
Y467500D02*
D03*
Y462500D02*
D03*
Y457500D02*
D03*
X190750D02*
D03*
Y462500D02*
D03*
Y467500D02*
D03*
Y472500D02*
D03*
Y477500D02*
D03*
Y482500D02*
D03*
Y487500D02*
D03*
Y492500D02*
D03*
Y497500D02*
D03*
Y502500D02*
D03*
Y507500D02*
D03*
Y512500D02*
D03*
Y517500D02*
D03*
Y522500D02*
D03*
Y527500D02*
D03*
Y532500D02*
D03*
Y537500D02*
D03*
Y542500D02*
D03*
Y547500D02*
D03*
Y552500D02*
D03*
Y557500D02*
D03*
Y562500D02*
D03*
D59*
X230160Y48264D02*
G03*
X221340Y48264I-4410J-1764D01*
G01*
Y44736D02*
G03*
X230160Y44736I4410J1764D01*
G01*
X278660Y48264D02*
G03*
X269840Y48264I-4410J-1764D01*
G01*
Y44736D02*
G03*
X278660Y44736I4410J1764D01*
G01*
X218160Y23764D02*
G03*
X209340Y23764I-4410J-1764D01*
G01*
Y16286D02*
G03*
X218160Y16286I4410J1764D01*
G01*
X281840D02*
G03*
X290660Y16286I4410J1764D01*
G01*
Y23764D02*
G03*
X281840Y23764I-4410J-1764D01*
G01*
D114*
X222250Y667875D02*
D03*
D115*
Y673125D02*
D03*
D116*
X250000Y510000D02*
D03*
X226500D02*
D03*
Y486500D02*
D03*
X250000D02*
D03*
X226500Y533500D02*
D03*
X250250Y533500D02*
D03*
X273500D02*
D03*
Y510000D02*
D03*
Y486500D02*
D03*
D117*
X358000Y43250D02*
D03*
Y26750D02*
D03*
X332000Y43250D02*
D03*
Y26750D02*
D03*
M02*
