G04*
G04 #@! TF.GenerationSoftware,Altium Limited,Altium Designer,19.1.6 (110)*
G04*
G04 Layer_Color=65535*
%FSLAX25Y25*%
%MOIN*%
G70*
G01*
G75*
%ADD10C,0.00787*%
%ADD11C,0.02362*%
%ADD12C,0.00984*%
%ADD13C,0.01000*%
%ADD14C,0.00394*%
%ADD15C,0.00472*%
%ADD16R,0.13386X0.10138*%
%ADD17R,0.34252X0.25984*%
G36*
X178247Y235392D02*
X178296D01*
X178352Y235388D01*
X178412Y235381D01*
X178479Y235377D01*
X178550Y235366D01*
X178625Y235358D01*
X178782Y235328D01*
X178936Y235287D01*
X179010Y235265D01*
X179081Y235235D01*
Y234741D01*
X179078Y234745D01*
X179063Y234752D01*
X179040Y234764D01*
X179007Y234778D01*
X178969Y234797D01*
X178921Y234816D01*
X178868Y234838D01*
X178808Y234861D01*
X178741Y234883D01*
X178670Y234906D01*
X178592Y234924D01*
X178509Y234943D01*
X178427Y234958D01*
X178337Y234969D01*
X178244Y234977D01*
X178150Y234980D01*
X178120D01*
X178083Y234977D01*
X178038Y234973D01*
X177978Y234965D01*
X177911Y234958D01*
X177840Y234943D01*
X177758Y234924D01*
X177672Y234898D01*
X177582Y234868D01*
X177492Y234831D01*
X177399Y234790D01*
X177305Y234737D01*
X177215Y234674D01*
X177129Y234606D01*
X177047Y234524D01*
X177043Y234520D01*
X177028Y234502D01*
X177009Y234479D01*
X176983Y234442D01*
X176950Y234397D01*
X176916Y234341D01*
X176875Y234277D01*
X176838Y234203D01*
X176800Y234120D01*
X176759Y234031D01*
X176725Y233929D01*
X176695Y233825D01*
X176665Y233709D01*
X176647Y233585D01*
X176632Y233454D01*
X176628Y233316D01*
Y233312D01*
Y233309D01*
Y233297D01*
Y233286D01*
X176632Y233245D01*
X176636Y233196D01*
X176639Y233137D01*
X176651Y233066D01*
X176662Y232987D01*
X176677Y232901D01*
X176699Y232811D01*
X176725Y232718D01*
X176755Y232624D01*
X176793Y232527D01*
X176838Y232434D01*
X176890Y232340D01*
X176953Y232250D01*
X177021Y232168D01*
X177024Y232164D01*
X177039Y232149D01*
X177062Y232131D01*
X177092Y232101D01*
X177133Y232071D01*
X177182Y232033D01*
X177234Y231996D01*
X177297Y231955D01*
X177369Y231914D01*
X177447Y231876D01*
X177533Y231839D01*
X177627Y231809D01*
X177724Y231783D01*
X177829Y231760D01*
X177941Y231745D01*
X178057Y231742D01*
X178113D01*
X178158Y231745D01*
X178206Y231749D01*
X178266Y231756D01*
X178333Y231764D01*
X178408Y231775D01*
X178483Y231786D01*
X178565Y231805D01*
X178651Y231828D01*
X178737Y231854D01*
X178827Y231884D01*
X178913Y231917D01*
X178999Y231959D01*
X179081Y232003D01*
Y231558D01*
X179078Y231555D01*
X179063Y231547D01*
X179037Y231536D01*
X179003Y231525D01*
X178962Y231506D01*
X178909Y231487D01*
X178850Y231465D01*
X178782Y231446D01*
X178708Y231424D01*
X178625Y231401D01*
X178535Y231382D01*
X178442Y231368D01*
X178337Y231353D01*
X178229Y231341D01*
X178117Y231334D01*
X177997Y231330D01*
X177960D01*
X177941Y231334D01*
X177915D01*
X177858Y231338D01*
X177787Y231345D01*
X177705Y231360D01*
X177612Y231375D01*
X177514Y231398D01*
X177410Y231427D01*
X177297Y231461D01*
X177185Y231506D01*
X177073Y231558D01*
X176961Y231618D01*
X176852Y231693D01*
X176748Y231775D01*
X176651Y231869D01*
X176647Y231876D01*
X176628Y231895D01*
X176606Y231925D01*
X176572Y231966D01*
X176534Y232022D01*
X176490Y232086D01*
X176445Y232160D01*
X176400Y232246D01*
X176351Y232344D01*
X176306Y232452D01*
X176261Y232568D01*
X176224Y232695D01*
X176190Y232830D01*
X176168Y232972D01*
X176153Y233125D01*
X176146Y233286D01*
Y233290D01*
Y233297D01*
Y233309D01*
Y233327D01*
X176149Y233350D01*
Y233376D01*
X176153Y233410D01*
Y233443D01*
X176164Y233522D01*
X176175Y233615D01*
X176194Y233720D01*
X176217Y233832D01*
X176247Y233952D01*
X176284Y234075D01*
X176329Y234203D01*
X176385Y234330D01*
X176452Y234457D01*
X176527Y234580D01*
X176613Y234700D01*
X176714Y234812D01*
X176722Y234820D01*
X176740Y234838D01*
X176774Y234864D01*
X176815Y234902D01*
X176871Y234947D01*
X176938Y234995D01*
X177017Y235048D01*
X177107Y235104D01*
X177208Y235160D01*
X177316Y235212D01*
X177432Y235261D01*
X177563Y235306D01*
X177698Y235343D01*
X177843Y235369D01*
X177993Y235388D01*
X178154Y235396D01*
X178210D01*
X178247Y235392D01*
D02*
G37*
G36*
X174766D02*
X174814D01*
X174870Y235388D01*
X174930Y235381D01*
X174997Y235377D01*
X175068Y235366D01*
X175143Y235358D01*
X175300Y235328D01*
X175454Y235287D01*
X175529Y235265D01*
X175600Y235235D01*
Y234741D01*
X175596Y234745D01*
X175581Y234752D01*
X175558Y234764D01*
X175525Y234778D01*
X175487Y234797D01*
X175439Y234816D01*
X175386Y234838D01*
X175327Y234861D01*
X175259Y234883D01*
X175188Y234906D01*
X175110Y234924D01*
X175027Y234943D01*
X174945Y234958D01*
X174855Y234969D01*
X174762Y234977D01*
X174668Y234980D01*
X174638D01*
X174601Y234977D01*
X174556Y234973D01*
X174496Y234965D01*
X174429Y234958D01*
X174358Y234943D01*
X174276Y234924D01*
X174190Y234898D01*
X174100Y234868D01*
X174010Y234831D01*
X173916Y234790D01*
X173823Y234737D01*
X173733Y234674D01*
X173647Y234606D01*
X173565Y234524D01*
X173561Y234520D01*
X173546Y234502D01*
X173528Y234479D01*
X173501Y234442D01*
X173468Y234397D01*
X173434Y234341D01*
X173393Y234277D01*
X173355Y234203D01*
X173318Y234120D01*
X173277Y234031D01*
X173243Y233929D01*
X173213Y233825D01*
X173184Y233709D01*
X173165Y233585D01*
X173150Y233454D01*
X173146Y233316D01*
Y233312D01*
Y233309D01*
Y233297D01*
Y233286D01*
X173150Y233245D01*
X173154Y233196D01*
X173157Y233137D01*
X173169Y233066D01*
X173180Y232987D01*
X173195Y232901D01*
X173217Y232811D01*
X173243Y232718D01*
X173273Y232624D01*
X173311Y232527D01*
X173355Y232434D01*
X173408Y232340D01*
X173471Y232250D01*
X173539Y232168D01*
X173542Y232164D01*
X173557Y232149D01*
X173580Y232131D01*
X173610Y232101D01*
X173651Y232071D01*
X173700Y232033D01*
X173752Y231996D01*
X173816Y231955D01*
X173887Y231914D01*
X173965Y231876D01*
X174051Y231839D01*
X174145Y231809D01*
X174242Y231783D01*
X174347Y231760D01*
X174459Y231745D01*
X174575Y231742D01*
X174631D01*
X174676Y231745D01*
X174724Y231749D01*
X174784Y231756D01*
X174852Y231764D01*
X174926Y231775D01*
X175001Y231786D01*
X175083Y231805D01*
X175169Y231828D01*
X175256Y231854D01*
X175345Y231884D01*
X175431Y231917D01*
X175517Y231959D01*
X175600Y232003D01*
Y231558D01*
X175596Y231555D01*
X175581Y231547D01*
X175555Y231536D01*
X175521Y231525D01*
X175480Y231506D01*
X175427Y231487D01*
X175368Y231465D01*
X175300Y231446D01*
X175225Y231424D01*
X175143Y231401D01*
X175054Y231382D01*
X174960Y231368D01*
X174855Y231353D01*
X174747Y231341D01*
X174635Y231334D01*
X174515Y231330D01*
X174478D01*
X174459Y231334D01*
X174433D01*
X174377Y231338D01*
X174305Y231345D01*
X174223Y231360D01*
X174130Y231375D01*
X174032Y231398D01*
X173928Y231427D01*
X173816Y231461D01*
X173703Y231506D01*
X173591Y231558D01*
X173479Y231618D01*
X173371Y231693D01*
X173266Y231775D01*
X173169Y231869D01*
X173165Y231876D01*
X173146Y231895D01*
X173124Y231925D01*
X173090Y231966D01*
X173053Y232022D01*
X173008Y232086D01*
X172963Y232160D01*
X172918Y232246D01*
X172869Y232344D01*
X172825Y232452D01*
X172780Y232568D01*
X172742Y232695D01*
X172708Y232830D01*
X172686Y232972D01*
X172671Y233125D01*
X172664Y233286D01*
Y233290D01*
Y233297D01*
Y233309D01*
Y233327D01*
X172667Y233350D01*
Y233376D01*
X172671Y233410D01*
Y233443D01*
X172682Y233522D01*
X172694Y233615D01*
X172712Y233720D01*
X172735Y233832D01*
X172765Y233952D01*
X172802Y234075D01*
X172847Y234203D01*
X172903Y234330D01*
X172970Y234457D01*
X173045Y234580D01*
X173131Y234700D01*
X173232Y234812D01*
X173240Y234820D01*
X173258Y234838D01*
X173292Y234864D01*
X173333Y234902D01*
X173389Y234947D01*
X173457Y234995D01*
X173535Y235048D01*
X173625Y235104D01*
X173726Y235160D01*
X173834Y235212D01*
X173950Y235261D01*
X174081Y235306D01*
X174216Y235343D01*
X174362Y235369D01*
X174511Y235388D01*
X174672Y235396D01*
X174728D01*
X174766Y235392D01*
D02*
G37*
G36*
X170895Y231394D02*
X170390D01*
X168961Y235332D01*
X169473D01*
X170565Y232209D01*
X170569Y232202D01*
X170573Y232183D01*
X170584Y232149D01*
X170595Y232108D01*
X170607Y232056D01*
X170622Y231996D01*
X170633Y231929D01*
X170644Y231857D01*
X170655D01*
Y231861D01*
Y231865D01*
X170659Y231887D01*
X170667Y231921D01*
X170674Y231962D01*
X170689Y232018D01*
X170704Y232078D01*
X170723Y232142D01*
X170745Y232213D01*
X171856Y235332D01*
X172353D01*
X170895Y231394D01*
D02*
G37*
G36*
X181327Y242122D02*
X181376D01*
X181432Y242118D01*
X181491Y242114D01*
X181555Y242107D01*
X181693Y242092D01*
X181835Y242065D01*
X181903Y242051D01*
X181966Y242032D01*
X182026Y242013D01*
X182079Y241987D01*
Y241467D01*
X182075Y241471D01*
X182064Y241478D01*
X182041Y241489D01*
X182015Y241504D01*
X181981Y241523D01*
X181940Y241546D01*
X181892Y241564D01*
X181835Y241590D01*
X181776Y241613D01*
X181708Y241632D01*
X181633Y241654D01*
X181555Y241673D01*
X181469Y241688D01*
X181379Y241699D01*
X181286Y241706D01*
X181185Y241710D01*
X181129D01*
X181091Y241706D01*
X181046Y241703D01*
X180994Y241695D01*
X180938Y241688D01*
X180882Y241676D01*
X180874D01*
X180856Y241669D01*
X180829Y241662D01*
X180792Y241654D01*
X180751Y241639D01*
X180706Y241620D01*
X180657Y241602D01*
X180613Y241576D01*
X180609Y241572D01*
X180594Y241564D01*
X180571Y241546D01*
X180545Y241527D01*
X180515Y241497D01*
X180482Y241467D01*
X180452Y241430D01*
X180422Y241389D01*
X180418Y241385D01*
X180411Y241370D01*
X180399Y241344D01*
X180384Y241314D01*
X180369Y241272D01*
X180358Y241228D01*
X180351Y241175D01*
X180347Y241115D01*
Y241108D01*
Y241089D01*
X180351Y241063D01*
X180354Y241026D01*
X180362Y240985D01*
X180369Y240943D01*
X180384Y240898D01*
X180403Y240854D01*
X180407Y240850D01*
X180414Y240835D01*
X180426Y240816D01*
X180444Y240786D01*
X180467Y240756D01*
X180497Y240723D01*
X180530Y240689D01*
X180568Y240652D01*
X180571Y240648D01*
X180586Y240637D01*
X180613Y240618D01*
X180642Y240596D01*
X180684Y240569D01*
X180728Y240540D01*
X180781Y240510D01*
X180837Y240476D01*
X180844Y240472D01*
X180863Y240461D01*
X180897Y240446D01*
X180942Y240423D01*
X180994Y240394D01*
X181058Y240364D01*
X181125Y240330D01*
X181200Y240293D01*
X181203D01*
X181211Y240289D01*
X181222Y240281D01*
X181237Y240274D01*
X181278Y240255D01*
X181331Y240225D01*
X181390Y240192D01*
X181458Y240154D01*
X181600Y240072D01*
X181604D01*
X181607Y240068D01*
X181619Y240061D01*
X181633Y240053D01*
X181667Y240027D01*
X181712Y239997D01*
X181764Y239960D01*
X181820Y239915D01*
X181877Y239866D01*
X181933Y239814D01*
X181940Y239806D01*
X181955Y239791D01*
X181985Y239762D01*
X182015Y239724D01*
X182052Y239679D01*
X182090Y239623D01*
X182127Y239567D01*
X182161Y239504D01*
X182165Y239496D01*
X182176Y239474D01*
X182187Y239440D01*
X182206Y239391D01*
X182221Y239335D01*
X182232Y239268D01*
X182243Y239193D01*
X182247Y239115D01*
Y239111D01*
Y239103D01*
Y239088D01*
Y239066D01*
X182243Y239043D01*
X182239Y239014D01*
X182232Y238946D01*
X182217Y238868D01*
X182198Y238785D01*
X182168Y238703D01*
X182131Y238625D01*
Y238621D01*
X182127Y238617D01*
X182120Y238606D01*
X182112Y238591D01*
X182086Y238554D01*
X182052Y238509D01*
X182008Y238456D01*
X181955Y238400D01*
X181892Y238348D01*
X181824Y238296D01*
X181820D01*
X181817Y238292D01*
X181806Y238284D01*
X181791Y238277D01*
X181772Y238266D01*
X181749Y238254D01*
X181697Y238224D01*
X181630Y238194D01*
X181551Y238165D01*
X181469Y238138D01*
X181376Y238116D01*
X181372D01*
X181364Y238112D01*
X181349D01*
X181331Y238108D01*
X181308Y238105D01*
X181282Y238097D01*
X181248Y238093D01*
X181215Y238090D01*
X181136Y238079D01*
X181046Y238067D01*
X180949Y238064D01*
X180844Y238060D01*
X180807D01*
X180781Y238064D01*
X180747D01*
X180706Y238067D01*
X180661Y238071D01*
X180613Y238075D01*
X180605D01*
X180590Y238079D01*
X180564Y238082D01*
X180526Y238086D01*
X180485Y238090D01*
X180437Y238097D01*
X180384Y238108D01*
X180332Y238116D01*
X180324D01*
X180310Y238120D01*
X180280Y238127D01*
X180246Y238135D01*
X180205Y238146D01*
X180160Y238157D01*
X180063Y238183D01*
X180059Y238187D01*
X180040Y238191D01*
X180018Y238202D01*
X179988Y238213D01*
X179921Y238243D01*
X179887Y238262D01*
X179857Y238281D01*
Y238827D01*
X179861Y238823D01*
X179872Y238812D01*
X179894Y238797D01*
X179921Y238774D01*
X179954Y238752D01*
X179992Y238726D01*
X180033Y238699D01*
X180081Y238673D01*
X180089Y238669D01*
X180104Y238662D01*
X180130Y238651D01*
X180164Y238636D01*
X180205Y238617D01*
X180254Y238602D01*
X180302Y238583D01*
X180354Y238565D01*
X180362D01*
X180381Y238557D01*
X180407Y238550D01*
X180444Y238539D01*
X180489Y238527D01*
X180538Y238516D01*
X180646Y238494D01*
X180654D01*
X180672Y238490D01*
X180699Y238486D01*
X180736Y238482D01*
X180777Y238479D01*
X180822Y238475D01*
X180915Y238471D01*
X180957D01*
X180986Y238475D01*
X181020D01*
X181061Y238479D01*
X181106Y238486D01*
X181155Y238490D01*
X181260Y238509D01*
X181364Y238539D01*
X181465Y238576D01*
X181510Y238602D01*
X181551Y238628D01*
X181555Y238632D01*
X181559Y238636D01*
X181585Y238658D01*
X181619Y238696D01*
X181656Y238744D01*
X181693Y238808D01*
X181727Y238886D01*
X181753Y238980D01*
X181757Y239029D01*
X181761Y239085D01*
Y239092D01*
Y239111D01*
X181757Y239141D01*
X181753Y239178D01*
X181742Y239219D01*
X181731Y239268D01*
X181712Y239313D01*
X181690Y239358D01*
X181686Y239361D01*
X181678Y239376D01*
X181663Y239403D01*
X181641Y239429D01*
X181615Y239462D01*
X181581Y239500D01*
X181544Y239537D01*
X181499Y239575D01*
X181495Y239578D01*
X181476Y239590D01*
X181450Y239612D01*
X181417Y239634D01*
X181372Y239664D01*
X181323Y239694D01*
X181267Y239728D01*
X181203Y239762D01*
X181196Y239765D01*
X181174Y239776D01*
X181140Y239795D01*
X181095Y239818D01*
X181043Y239848D01*
X180979Y239881D01*
X180912Y239915D01*
X180841Y239952D01*
X180837D01*
X180833Y239956D01*
X180822Y239964D01*
X180807Y239971D01*
X180766Y239990D01*
X180717Y240020D01*
X180657Y240050D01*
X180590Y240083D01*
X180455Y240162D01*
X180452D01*
X180448Y240165D01*
X180426Y240180D01*
X180392Y240203D01*
X180351Y240233D01*
X180302Y240266D01*
X180250Y240308D01*
X180197Y240353D01*
X180145Y240397D01*
X180138Y240405D01*
X180123Y240420D01*
X180100Y240446D01*
X180070Y240483D01*
X180036Y240525D01*
X180003Y240577D01*
X179969Y240629D01*
X179939Y240689D01*
Y240693D01*
X179936Y240697D01*
X179928Y240719D01*
X179917Y240753D01*
X179902Y240798D01*
X179887Y240857D01*
X179876Y240921D01*
X179868Y240996D01*
X179865Y241074D01*
Y241078D01*
Y241086D01*
Y241101D01*
X179868Y241119D01*
Y241142D01*
X179872Y241172D01*
X179879Y241235D01*
X179894Y241306D01*
X179913Y241385D01*
X179943Y241463D01*
X179980Y241542D01*
Y241546D01*
X179988Y241549D01*
X179992Y241561D01*
X180003Y241576D01*
X180029Y241613D01*
X180063Y241658D01*
X180108Y241710D01*
X180164Y241762D01*
X180224Y241819D01*
X180291Y241867D01*
X180295D01*
X180298Y241875D01*
X180310Y241878D01*
X180324Y241890D01*
X180366Y241912D01*
X180418Y241942D01*
X180482Y241972D01*
X180556Y242006D01*
X180639Y242036D01*
X180728Y242062D01*
X180732D01*
X180740Y242065D01*
X180755Y242069D01*
X180770Y242073D01*
X180792Y242077D01*
X180822Y242080D01*
X180886Y242095D01*
X180960Y242107D01*
X181046Y242114D01*
X181136Y242122D01*
X181233Y242125D01*
X181289D01*
X181327Y242122D01*
D02*
G37*
G36*
X170930Y238123D02*
X170425D01*
X168996Y242062D01*
X169508D01*
X170600Y238939D01*
X170604Y238931D01*
X170608Y238913D01*
X170619Y238879D01*
X170630Y238838D01*
X170642Y238785D01*
X170657Y238726D01*
X170668Y238658D01*
X170679Y238587D01*
X170690D01*
Y238591D01*
Y238595D01*
X170694Y238617D01*
X170702Y238651D01*
X170709Y238692D01*
X170724Y238748D01*
X170739Y238808D01*
X170758Y238872D01*
X170780Y238943D01*
X171891Y242062D01*
X172388D01*
X170930Y238123D01*
D02*
G37*
G36*
X179060Y239713D02*
Y239709D01*
Y239694D01*
Y239672D01*
X179057Y239642D01*
Y239604D01*
X179049Y239560D01*
X179045Y239511D01*
X179038Y239455D01*
X179027Y239395D01*
X179016Y239332D01*
X178982Y239189D01*
X178959Y239115D01*
X178937Y239040D01*
X178907Y238965D01*
X178873Y238886D01*
X178836Y238808D01*
X178795Y238733D01*
X178746Y238658D01*
X178694Y238583D01*
X178638Y238512D01*
X178574Y238445D01*
X178507Y238378D01*
X178428Y238318D01*
X178346Y238262D01*
X178256Y238213D01*
X178163Y238168D01*
X178058Y238131D01*
X177946Y238101D01*
X177826Y238079D01*
X177699Y238064D01*
X177564Y238060D01*
X177531D01*
X177505Y238064D01*
X177471Y238067D01*
X177434Y238071D01*
X177389Y238075D01*
X177340Y238086D01*
X177288Y238097D01*
X177232Y238108D01*
X177112Y238142D01*
X177044Y238168D01*
X176981Y238194D01*
X176914Y238224D01*
X176846Y238258D01*
X176779Y238299D01*
X176712Y238344D01*
X176648Y238393D01*
X176584Y238449D01*
X176521Y238509D01*
X176461Y238576D01*
X176405Y238651D01*
X176353Y238733D01*
X176304Y238819D01*
X176259Y238916D01*
X176222Y239017D01*
X176192Y239126D01*
X176166Y239245D01*
X176143Y239373D01*
X176132Y239507D01*
X176128Y239653D01*
Y242062D01*
X176592D01*
Y239683D01*
Y239679D01*
Y239668D01*
Y239653D01*
X176596Y239631D01*
Y239604D01*
X176600Y239571D01*
X176603Y239533D01*
X176607Y239492D01*
X176622Y239403D01*
X176644Y239301D01*
X176678Y239189D01*
X176719Y239077D01*
X176775Y238965D01*
X176805Y238909D01*
X176843Y238857D01*
X176880Y238804D01*
X176925Y238752D01*
X176970Y238707D01*
X177022Y238662D01*
X177078Y238621D01*
X177138Y238583D01*
X177205Y238550D01*
X177276Y238524D01*
X177351Y238501D01*
X177434Y238486D01*
X177520Y238475D01*
X177613Y238471D01*
X177639D01*
X177654Y238475D01*
X177677D01*
X177703Y238479D01*
X177766Y238490D01*
X177841Y238509D01*
X177927Y238535D01*
X178013Y238568D01*
X178107Y238617D01*
X178152Y238647D01*
X178200Y238681D01*
X178245Y238718D01*
X178290Y238755D01*
X178331Y238800D01*
X178372Y238853D01*
X178410Y238905D01*
X178447Y238965D01*
X178481Y239029D01*
X178511Y239100D01*
X178537Y239174D01*
X178559Y239257D01*
X178578Y239343D01*
X178589Y239436D01*
X178597Y239537D01*
X178600Y239642D01*
Y242062D01*
X179060D01*
Y239713D01*
D02*
G37*
G36*
X174161Y242058D02*
X174202Y242054D01*
X174255Y242047D01*
X174307Y242039D01*
X174370Y242032D01*
X174498Y242002D01*
X174565Y241979D01*
X174632Y241957D01*
X174700Y241927D01*
X174767Y241893D01*
X174827Y241856D01*
X174887Y241811D01*
X174890Y241807D01*
X174898Y241800D01*
X174913Y241785D01*
X174935Y241766D01*
X174958Y241740D01*
X174980Y241710D01*
X175010Y241676D01*
X175036Y241635D01*
X175062Y241590D01*
X175092Y241542D01*
X175115Y241489D01*
X175141Y241430D01*
X175160Y241370D01*
X175174Y241302D01*
X175182Y241235D01*
X175186Y241160D01*
Y241157D01*
Y241145D01*
Y241127D01*
X175182Y241104D01*
Y241074D01*
X175174Y241041D01*
X175171Y241003D01*
X175163Y240962D01*
X175141Y240869D01*
X175107Y240771D01*
X175089Y240723D01*
X175062Y240674D01*
X175036Y240626D01*
X175003Y240577D01*
X174999Y240573D01*
X174995Y240566D01*
X174984Y240554D01*
X174969Y240536D01*
X174950Y240517D01*
X174928Y240495D01*
X174901Y240468D01*
X174872Y240442D01*
X174801Y240382D01*
X174718Y240326D01*
X174617Y240270D01*
X174505Y240225D01*
Y240214D01*
X174509D01*
X174524Y240210D01*
X174542Y240207D01*
X174572Y240203D01*
X174606Y240195D01*
X174644Y240188D01*
X174688Y240173D01*
X174733Y240162D01*
X174834Y240121D01*
X174887Y240098D01*
X174939Y240068D01*
X174995Y240038D01*
X175044Y240001D01*
X175096Y239960D01*
X175141Y239915D01*
X175145Y239911D01*
X175152Y239904D01*
X175163Y239889D01*
X175178Y239870D01*
X175197Y239844D01*
X175216Y239814D01*
X175238Y239776D01*
X175261Y239735D01*
X175283Y239690D01*
X175305Y239642D01*
X175324Y239586D01*
X175343Y239530D01*
X175358Y239466D01*
X175369Y239399D01*
X175376Y239328D01*
X175380Y239253D01*
Y239245D01*
Y239230D01*
X175376Y239204D01*
Y239171D01*
X175369Y239126D01*
X175362Y239077D01*
X175350Y239021D01*
X175335Y238961D01*
X175317Y238898D01*
X175291Y238830D01*
X175264Y238763D01*
X175227Y238696D01*
X175186Y238625D01*
X175137Y238561D01*
X175081Y238494D01*
X175017Y238434D01*
X175014Y238430D01*
X175003Y238419D01*
X174980Y238404D01*
X174954Y238385D01*
X174917Y238363D01*
X174875Y238337D01*
X174823Y238307D01*
X174767Y238281D01*
X174703Y238251D01*
X174636Y238221D01*
X174561Y238194D01*
X174479Y238172D01*
X174393Y238153D01*
X174303Y238138D01*
X174206Y238127D01*
X174105Y238123D01*
X172957D01*
Y242062D01*
X174124D01*
X174161Y242058D01*
D02*
G37*
G36*
X101260Y28650D02*
X100643D01*
Y29361D01*
X101260D01*
Y28650D01*
D02*
G37*
G36*
X88079Y29444D02*
X88130D01*
X88185Y29440D01*
X88248Y29432D01*
X88319Y29424D01*
X88393Y29416D01*
X88472Y29405D01*
X88641Y29373D01*
X88810Y29326D01*
X88893Y29298D01*
X88975Y29267D01*
X88979Y29263D01*
X88995Y29259D01*
X89014Y29247D01*
X89046Y29232D01*
X89081Y29216D01*
X89124Y29192D01*
X89168Y29165D01*
X89219Y29133D01*
X89270Y29098D01*
X89325Y29059D01*
X89380Y29011D01*
X89431Y28964D01*
X89486Y28913D01*
X89537Y28858D01*
X89588Y28795D01*
X89631Y28732D01*
X89635Y28729D01*
X89643Y28717D01*
X89655Y28697D01*
X89667Y28670D01*
X89686Y28638D01*
X89706Y28599D01*
X89726Y28552D01*
X89749Y28504D01*
X89773Y28446D01*
X89796Y28387D01*
X89816Y28320D01*
X89836Y28253D01*
X89867Y28104D01*
X89875Y28025D01*
X89883Y27942D01*
X89242Y27895D01*
Y27899D01*
X89238Y27915D01*
X89234Y27942D01*
X89231Y27974D01*
X89219Y28013D01*
X89211Y28060D01*
X89195Y28108D01*
X89179Y28163D01*
X89156Y28222D01*
X89132Y28280D01*
X89105Y28339D01*
X89069Y28398D01*
X89034Y28457D01*
X88991Y28512D01*
X88944Y28567D01*
X88889Y28615D01*
X88885Y28618D01*
X88877Y28626D01*
X88857Y28638D01*
X88834Y28654D01*
X88802Y28673D01*
X88763Y28693D01*
X88720Y28717D01*
X88669Y28740D01*
X88610Y28760D01*
X88547Y28784D01*
X88472Y28803D01*
X88393Y28823D01*
X88311Y28839D01*
X88217Y28850D01*
X88118Y28858D01*
X88012Y28862D01*
X87953D01*
X87914Y28858D01*
X87863Y28854D01*
X87808Y28850D01*
X87741Y28842D01*
X87674Y28835D01*
X87529Y28807D01*
X87458Y28791D01*
X87383Y28768D01*
X87313Y28740D01*
X87246Y28713D01*
X87183Y28677D01*
X87128Y28638D01*
X87124Y28634D01*
X87116Y28626D01*
X87104Y28615D01*
X87085Y28599D01*
X87065Y28575D01*
X87041Y28552D01*
X87018Y28520D01*
X86990Y28489D01*
X86939Y28410D01*
X86896Y28320D01*
X86876Y28269D01*
X86865Y28218D01*
X86857Y28163D01*
X86853Y28104D01*
Y28100D01*
Y28092D01*
Y28076D01*
X86857Y28060D01*
X86861Y28037D01*
X86865Y28009D01*
X86876Y27946D01*
X86900Y27876D01*
X86935Y27801D01*
X86955Y27762D01*
X86983Y27726D01*
X87010Y27691D01*
X87045Y27656D01*
X87049D01*
X87057Y27648D01*
X87069Y27640D01*
X87089Y27624D01*
X87116Y27608D01*
X87151Y27589D01*
X87195Y27569D01*
X87246Y27546D01*
X87309Y27518D01*
X87379Y27491D01*
X87462Y27459D01*
X87556Y27428D01*
X87659Y27396D01*
X87780Y27361D01*
X87910Y27329D01*
X88055Y27294D01*
X88059D01*
X88063Y27290D01*
X88075D01*
X88091Y27286D01*
X88134Y27274D01*
X88189Y27263D01*
X88252Y27247D01*
X88331Y27227D01*
X88413Y27208D01*
X88499Y27184D01*
X88684Y27133D01*
X88779Y27109D01*
X88869Y27082D01*
X88955Y27054D01*
X89038Y27027D01*
X89109Y26999D01*
X89172Y26972D01*
X89175Y26968D01*
X89191Y26964D01*
X89215Y26952D01*
X89242Y26936D01*
X89282Y26917D01*
X89321Y26893D01*
X89368Y26866D01*
X89419Y26834D01*
X89525Y26760D01*
X89631Y26673D01*
X89733Y26571D01*
X89777Y26520D01*
X89820Y26461D01*
X89824Y26457D01*
X89828Y26445D01*
X89840Y26430D01*
X89851Y26406D01*
X89871Y26378D01*
X89887Y26343D01*
X89907Y26300D01*
X89926Y26256D01*
X89946Y26206D01*
X89965Y26150D01*
X89985Y26092D01*
X90001Y26029D01*
X90024Y25891D01*
X90028Y25816D01*
X90032Y25742D01*
Y25738D01*
Y25722D01*
Y25702D01*
X90028Y25675D01*
X90024Y25640D01*
X90020Y25596D01*
X90013Y25549D01*
X90005Y25498D01*
X89993Y25439D01*
X89977Y25380D01*
X89958Y25317D01*
X89934Y25254D01*
X89907Y25188D01*
X89879Y25117D01*
X89840Y25050D01*
X89800Y24983D01*
X89796Y24979D01*
X89789Y24968D01*
X89777Y24948D01*
X89757Y24924D01*
X89733Y24897D01*
X89706Y24861D01*
X89671Y24822D01*
X89631Y24783D01*
X89584Y24740D01*
X89537Y24692D01*
X89482Y24649D01*
X89423Y24602D01*
X89356Y24559D01*
X89289Y24512D01*
X89215Y24472D01*
X89136Y24433D01*
X89132Y24429D01*
X89117Y24425D01*
X89093Y24413D01*
X89061Y24402D01*
X89022Y24386D01*
X88971Y24370D01*
X88916Y24354D01*
X88853Y24335D01*
X88786Y24315D01*
X88712Y24299D01*
X88633Y24284D01*
X88547Y24268D01*
X88460Y24256D01*
X88366Y24244D01*
X88268Y24240D01*
X88169Y24237D01*
X88103D01*
X88055Y24240D01*
X87997Y24244D01*
X87930Y24248D01*
X87851Y24252D01*
X87769Y24260D01*
X87682Y24272D01*
X87588Y24284D01*
X87395Y24319D01*
X87301Y24343D01*
X87203Y24370D01*
X87112Y24398D01*
X87022Y24433D01*
X87018Y24437D01*
X87002Y24441D01*
X86979Y24453D01*
X86947Y24472D01*
X86908Y24492D01*
X86861Y24520D01*
X86813Y24547D01*
X86759Y24582D01*
X86703Y24622D01*
X86645Y24669D01*
X86582Y24716D01*
X86523Y24771D01*
X86464Y24830D01*
X86405Y24893D01*
X86350Y24964D01*
X86299Y25034D01*
X86295Y25038D01*
X86287Y25054D01*
X86275Y25074D01*
X86259Y25105D01*
X86236Y25144D01*
X86216Y25188D01*
X86193Y25239D01*
X86165Y25298D01*
X86142Y25364D01*
X86114Y25431D01*
X86094Y25506D01*
X86071Y25589D01*
X86055Y25671D01*
X86039Y25757D01*
X86027Y25848D01*
X86024Y25942D01*
X86652Y25997D01*
Y25993D01*
X86656Y25982D01*
Y25962D01*
X86660Y25934D01*
X86668Y25903D01*
X86676Y25864D01*
X86684Y25820D01*
X86696Y25777D01*
X86723Y25679D01*
X86759Y25573D01*
X86802Y25471D01*
X86857Y25372D01*
X86861Y25368D01*
X86865Y25361D01*
X86873Y25349D01*
X86888Y25333D01*
X86904Y25309D01*
X86927Y25286D01*
X86951Y25262D01*
X86983Y25231D01*
X87014Y25199D01*
X87053Y25168D01*
X87097Y25137D01*
X87140Y25105D01*
X87191Y25070D01*
X87246Y25038D01*
X87301Y25007D01*
X87364Y24979D01*
X87368D01*
X87379Y24971D01*
X87399Y24968D01*
X87423Y24956D01*
X87458Y24944D01*
X87497Y24932D01*
X87541Y24920D01*
X87592Y24905D01*
X87647Y24889D01*
X87706Y24877D01*
X87769Y24865D01*
X87835Y24854D01*
X87981Y24838D01*
X88138Y24830D01*
X88201D01*
X88236Y24834D01*
X88275Y24838D01*
X88319D01*
X88366Y24846D01*
X88468Y24858D01*
X88582Y24877D01*
X88696Y24905D01*
X88810Y24944D01*
X88814D01*
X88822Y24948D01*
X88837Y24956D01*
X88857Y24964D01*
X88885Y24975D01*
X88912Y24991D01*
X88975Y25027D01*
X89046Y25070D01*
X89121Y25125D01*
X89187Y25184D01*
X89246Y25254D01*
Y25258D01*
X89254Y25262D01*
X89258Y25274D01*
X89270Y25290D01*
X89293Y25329D01*
X89321Y25384D01*
X89345Y25447D01*
X89368Y25522D01*
X89384Y25600D01*
X89392Y25687D01*
Y25691D01*
Y25699D01*
Y25710D01*
X89388Y25726D01*
X89384Y25769D01*
X89376Y25828D01*
X89356Y25891D01*
X89333Y25962D01*
X89297Y26033D01*
X89250Y26099D01*
Y26103D01*
X89242Y26107D01*
X89223Y26131D01*
X89191Y26162D01*
X89140Y26202D01*
X89077Y26249D01*
X89042Y26276D01*
X88999Y26300D01*
X88955Y26327D01*
X88904Y26351D01*
X88853Y26375D01*
X88794Y26398D01*
X88790D01*
X88783Y26402D01*
X88771Y26406D01*
X88751Y26414D01*
X88727Y26422D01*
X88696Y26433D01*
X88653Y26445D01*
X88606Y26457D01*
X88551Y26473D01*
X88488Y26492D01*
X88413Y26512D01*
X88331Y26536D01*
X88240Y26559D01*
X88138Y26583D01*
X88024Y26610D01*
X87898Y26642D01*
X87890Y26646D01*
X87867Y26649D01*
X87831Y26657D01*
X87784Y26669D01*
X87729Y26685D01*
X87662Y26705D01*
X87592Y26724D01*
X87517Y26744D01*
X87356Y26795D01*
X87195Y26846D01*
X87116Y26874D01*
X87045Y26905D01*
X86983Y26932D01*
X86924Y26960D01*
X86920Y26964D01*
X86908Y26968D01*
X86888Y26980D01*
X86865Y26995D01*
X86833Y27011D01*
X86802Y27035D01*
X86719Y27090D01*
X86633Y27156D01*
X86542Y27235D01*
X86460Y27329D01*
X86421Y27377D01*
X86385Y27428D01*
Y27432D01*
X86377Y27439D01*
X86370Y27455D01*
X86358Y27479D01*
X86346Y27502D01*
X86330Y27534D01*
X86314Y27573D01*
X86299Y27612D01*
X86283Y27656D01*
X86267Y27707D01*
X86240Y27813D01*
X86220Y27931D01*
X86216Y27994D01*
X86212Y28056D01*
Y28060D01*
Y28072D01*
Y28096D01*
X86216Y28123D01*
X86220Y28155D01*
X86224Y28194D01*
X86232Y28241D01*
X86240Y28288D01*
X86263Y28398D01*
X86303Y28516D01*
X86330Y28579D01*
X86358Y28642D01*
X86389Y28705D01*
X86428Y28768D01*
X86432Y28772D01*
X86440Y28784D01*
X86452Y28799D01*
X86468Y28823D01*
X86491Y28850D01*
X86519Y28882D01*
X86550Y28917D01*
X86589Y28956D01*
X86633Y28996D01*
X86680Y29039D01*
X86731Y29082D01*
X86786Y29122D01*
X86849Y29165D01*
X86916Y29204D01*
X86987Y29239D01*
X87061Y29275D01*
X87065Y29279D01*
X87081Y29283D01*
X87104Y29291D01*
X87136Y29302D01*
X87175Y29314D01*
X87218Y29330D01*
X87273Y29346D01*
X87332Y29361D01*
X87399Y29377D01*
X87470Y29393D01*
X87545Y29408D01*
X87627Y29420D01*
X87710Y29432D01*
X87800Y29440D01*
X87890Y29448D01*
X88040D01*
X88079Y29444D01*
D02*
G37*
G36*
X96171Y28053D02*
X96198Y28049D01*
X96230Y28045D01*
X96269Y28041D01*
X96312Y28033D01*
X96407Y28009D01*
X96517Y27974D01*
X96572Y27950D01*
X96631Y27923D01*
X96694Y27891D01*
X96753Y27856D01*
X96532Y27282D01*
X96529D01*
X96521Y27286D01*
X96509Y27294D01*
X96493Y27302D01*
X96473Y27314D01*
X96450Y27325D01*
X96391Y27349D01*
X96324Y27373D01*
X96246Y27396D01*
X96167Y27412D01*
X96080Y27416D01*
X96045D01*
X96010Y27408D01*
X95959Y27400D01*
X95904Y27384D01*
X95845Y27365D01*
X95782Y27333D01*
X95719Y27290D01*
X95711Y27286D01*
X95691Y27267D01*
X95664Y27239D01*
X95628Y27204D01*
X95593Y27153D01*
X95554Y27098D01*
X95518Y27031D01*
X95491Y26952D01*
Y26948D01*
X95487Y26936D01*
X95483Y26921D01*
X95475Y26893D01*
X95467Y26866D01*
X95460Y26826D01*
X95448Y26787D01*
X95440Y26740D01*
X95432Y26689D01*
X95420Y26630D01*
X95404Y26508D01*
X95393Y26375D01*
X95389Y26233D01*
Y24323D01*
X94772D01*
Y27974D01*
X95326D01*
Y27416D01*
X95330Y27420D01*
X95334Y27432D01*
X95346Y27451D01*
X95361Y27479D01*
X95381Y27510D01*
X95404Y27546D01*
X95456Y27628D01*
X95515Y27715D01*
X95581Y27797D01*
X95617Y27836D01*
X95652Y27872D01*
X95684Y27903D01*
X95719Y27931D01*
X95723D01*
X95727Y27935D01*
X95750Y27950D01*
X95786Y27970D01*
X95837Y27994D01*
X95896Y28017D01*
X95963Y28037D01*
X96037Y28053D01*
X96116Y28056D01*
X96147D01*
X96171Y28053D01*
D02*
G37*
G36*
X103771D02*
X103823Y28049D01*
X103882Y28041D01*
X103944Y28033D01*
X104019Y28017D01*
X104094Y28001D01*
X104172Y27982D01*
X104251Y27958D01*
X104333Y27931D01*
X104416Y27895D01*
X104495Y27852D01*
X104569Y27809D01*
X104644Y27754D01*
X104648Y27750D01*
X104660Y27738D01*
X104679Y27722D01*
X104703Y27699D01*
X104734Y27667D01*
X104770Y27628D01*
X104805Y27585D01*
X104848Y27534D01*
X104888Y27475D01*
X104927Y27412D01*
X104970Y27341D01*
X105009Y27267D01*
X105045Y27184D01*
X105080Y27098D01*
X105108Y27003D01*
X105131Y26901D01*
X104530Y26807D01*
Y26811D01*
X104526Y26823D01*
X104522Y26842D01*
X104514Y26866D01*
X104502Y26897D01*
X104491Y26932D01*
X104459Y27015D01*
X104416Y27105D01*
X104365Y27196D01*
X104298Y27282D01*
X104263Y27325D01*
X104224Y27361D01*
X104219Y27365D01*
X104216Y27369D01*
X104200Y27377D01*
X104184Y27392D01*
X104165Y27404D01*
X104137Y27420D01*
X104110Y27439D01*
X104078Y27455D01*
X103999Y27491D01*
X103909Y27522D01*
X103807Y27542D01*
X103756Y27546D01*
X103697Y27549D01*
X103677D01*
X103654Y27546D01*
X103618D01*
X103579Y27538D01*
X103536Y27530D01*
X103485Y27522D01*
X103430Y27506D01*
X103371Y27491D01*
X103308Y27467D01*
X103245Y27439D01*
X103182Y27408D01*
X103119Y27369D01*
X103060Y27322D01*
X102997Y27270D01*
X102942Y27211D01*
X102938Y27208D01*
X102930Y27196D01*
X102915Y27176D01*
X102895Y27149D01*
X102875Y27113D01*
X102852Y27066D01*
X102824Y27015D01*
X102797Y26952D01*
X102769Y26885D01*
X102742Y26807D01*
X102718Y26720D01*
X102699Y26622D01*
X102679Y26520D01*
X102663Y26406D01*
X102655Y26284D01*
X102651Y26150D01*
Y26147D01*
Y26143D01*
Y26119D01*
Y26080D01*
X102655Y26029D01*
X102659Y25970D01*
X102667Y25899D01*
X102675Y25820D01*
X102687Y25738D01*
X102702Y25651D01*
X102718Y25565D01*
X102742Y25475D01*
X102769Y25388D01*
X102801Y25302D01*
X102840Y25219D01*
X102883Y25144D01*
X102930Y25078D01*
X102934Y25074D01*
X102942Y25062D01*
X102958Y25046D01*
X102982Y25027D01*
X103009Y25003D01*
X103044Y24971D01*
X103084Y24944D01*
X103127Y24913D01*
X103178Y24881D01*
X103233Y24854D01*
X103296Y24826D01*
X103359Y24799D01*
X103430Y24779D01*
X103504Y24763D01*
X103583Y24751D01*
X103665Y24747D01*
X103701D01*
X103724Y24751D01*
X103756Y24755D01*
X103791Y24759D01*
X103834Y24767D01*
X103878Y24775D01*
X103972Y24802D01*
X104074Y24842D01*
X104125Y24865D01*
X104176Y24897D01*
X104224Y24928D01*
X104271Y24968D01*
X104274Y24971D01*
X104282Y24979D01*
X104294Y24991D01*
X104310Y25011D01*
X104330Y25034D01*
X104353Y25062D01*
X104377Y25097D01*
X104400Y25137D01*
X104428Y25184D01*
X104455Y25235D01*
X104479Y25290D01*
X104506Y25353D01*
X104526Y25423D01*
X104550Y25494D01*
X104565Y25573D01*
X104581Y25659D01*
X105190Y25577D01*
Y25569D01*
X105186Y25549D01*
X105178Y25518D01*
X105167Y25475D01*
X105155Y25420D01*
X105135Y25361D01*
X105116Y25290D01*
X105088Y25219D01*
X105057Y25140D01*
X105021Y25062D01*
X104978Y24979D01*
X104931Y24897D01*
X104876Y24818D01*
X104817Y24740D01*
X104750Y24665D01*
X104675Y24594D01*
X104672Y24590D01*
X104656Y24578D01*
X104632Y24563D01*
X104601Y24539D01*
X104561Y24512D01*
X104514Y24484D01*
X104459Y24449D01*
X104396Y24417D01*
X104326Y24386D01*
X104251Y24354D01*
X104168Y24323D01*
X104078Y24295D01*
X103984Y24272D01*
X103885Y24256D01*
X103779Y24244D01*
X103669Y24240D01*
X103638D01*
X103599Y24244D01*
X103548Y24248D01*
X103481Y24256D01*
X103410Y24268D01*
X103327Y24280D01*
X103241Y24303D01*
X103147Y24327D01*
X103048Y24358D01*
X102946Y24398D01*
X102848Y24445D01*
X102746Y24504D01*
X102647Y24567D01*
X102557Y24641D01*
X102467Y24728D01*
X102463Y24732D01*
X102447Y24751D01*
X102424Y24779D01*
X102396Y24818D01*
X102361Y24869D01*
X102325Y24932D01*
X102282Y25003D01*
X102243Y25089D01*
X102199Y25184D01*
X102156Y25286D01*
X102121Y25404D01*
X102085Y25530D01*
X102058Y25663D01*
X102034Y25813D01*
X102019Y25970D01*
X102015Y26135D01*
Y26143D01*
Y26162D01*
Y26194D01*
X102019Y26233D01*
X102023Y26284D01*
X102027Y26343D01*
X102031Y26414D01*
X102038Y26485D01*
X102050Y26563D01*
X102062Y26646D01*
X102097Y26818D01*
X102117Y26909D01*
X102145Y26995D01*
X102172Y27082D01*
X102207Y27168D01*
X102211Y27172D01*
X102215Y27188D01*
X102227Y27211D01*
X102243Y27243D01*
X102266Y27278D01*
X102290Y27322D01*
X102321Y27369D01*
X102357Y27420D01*
X102396Y27471D01*
X102439Y27526D01*
X102490Y27581D01*
X102541Y27636D01*
X102600Y27691D01*
X102663Y27742D01*
X102734Y27789D01*
X102805Y27832D01*
X102809Y27836D01*
X102824Y27840D01*
X102844Y27852D01*
X102875Y27868D01*
X102911Y27884D01*
X102958Y27903D01*
X103005Y27923D01*
X103064Y27946D01*
X103127Y27966D01*
X103194Y27986D01*
X103264Y28005D01*
X103339Y28021D01*
X103418Y28037D01*
X103500Y28049D01*
X103587Y28053D01*
X103673Y28056D01*
X103732D01*
X103771Y28053D01*
D02*
G37*
G36*
X98710Y24323D02*
X98132D01*
X96749Y27974D01*
X97401D01*
X98183Y25785D01*
Y25781D01*
X98187Y25769D01*
X98195Y25750D01*
X98203Y25722D01*
X98215Y25691D01*
X98230Y25651D01*
X98242Y25608D01*
X98258Y25561D01*
X98277Y25506D01*
X98293Y25451D01*
X98332Y25325D01*
X98376Y25192D01*
X98415Y25050D01*
Y25054D01*
X98419Y25062D01*
X98423Y25078D01*
X98431Y25101D01*
X98439Y25129D01*
X98450Y25164D01*
X98462Y25199D01*
X98474Y25247D01*
X98490Y25294D01*
X98509Y25345D01*
X98529Y25404D01*
X98549Y25467D01*
X98596Y25600D01*
X98647Y25746D01*
X99456Y27974D01*
X100093D01*
X98710Y24323D01*
D02*
G37*
G36*
X101260D02*
X100643D01*
Y27974D01*
X101260D01*
Y24323D01*
D02*
G37*
G36*
X107289Y28053D02*
X107340Y28049D01*
X107403Y28041D01*
X107474Y28029D01*
X107556Y28013D01*
X107643Y27994D01*
X107733Y27966D01*
X107831Y27935D01*
X107929Y27895D01*
X108032Y27844D01*
X108130Y27789D01*
X108228Y27722D01*
X108322Y27644D01*
X108413Y27557D01*
X108417Y27553D01*
X108432Y27534D01*
X108456Y27506D01*
X108487Y27467D01*
X108523Y27416D01*
X108562Y27353D01*
X108601Y27278D01*
X108649Y27196D01*
X108692Y27101D01*
X108731Y26995D01*
X108771Y26881D01*
X108806Y26756D01*
X108837Y26618D01*
X108861Y26473D01*
X108877Y26319D01*
X108880Y26154D01*
Y26150D01*
Y26143D01*
Y26131D01*
Y26115D01*
Y26092D01*
Y26060D01*
X108877Y26029D01*
Y25989D01*
X106153D01*
Y25982D01*
X106157Y25962D01*
Y25930D01*
X106165Y25891D01*
X106169Y25840D01*
X106181Y25781D01*
X106192Y25718D01*
X106208Y25647D01*
X106228Y25573D01*
X106251Y25498D01*
X106279Y25420D01*
X106310Y25345D01*
X106346Y25270D01*
X106389Y25195D01*
X106436Y25129D01*
X106491Y25066D01*
X106495Y25062D01*
X106507Y25054D01*
X106523Y25038D01*
X106546Y25015D01*
X106578Y24991D01*
X106613Y24964D01*
X106656Y24936D01*
X106703Y24909D01*
X106754Y24877D01*
X106813Y24850D01*
X106876Y24822D01*
X106943Y24799D01*
X107018Y24779D01*
X107092Y24763D01*
X107175Y24751D01*
X107257Y24747D01*
X107289D01*
X107312Y24751D01*
X107344D01*
X107375Y24755D01*
X107415Y24763D01*
X107458Y24771D01*
X107548Y24791D01*
X107643Y24822D01*
X107741Y24865D01*
X107788Y24893D01*
X107835Y24924D01*
X107839Y24928D01*
X107847Y24932D01*
X107859Y24944D01*
X107874Y24960D01*
X107898Y24979D01*
X107922Y25003D01*
X107945Y25030D01*
X107977Y25066D01*
X108004Y25101D01*
X108036Y25144D01*
X108067Y25192D01*
X108102Y25243D01*
X108134Y25302D01*
X108161Y25364D01*
X108193Y25431D01*
X108220Y25502D01*
X108857Y25420D01*
Y25412D01*
X108849Y25396D01*
X108841Y25364D01*
X108826Y25325D01*
X108810Y25278D01*
X108790Y25227D01*
X108763Y25164D01*
X108731Y25101D01*
X108696Y25030D01*
X108657Y24960D01*
X108609Y24889D01*
X108558Y24814D01*
X108503Y24744D01*
X108440Y24673D01*
X108373Y24610D01*
X108299Y24547D01*
X108295Y24543D01*
X108279Y24535D01*
X108256Y24520D01*
X108224Y24500D01*
X108185Y24476D01*
X108138Y24449D01*
X108079Y24421D01*
X108016Y24394D01*
X107941Y24366D01*
X107863Y24339D01*
X107780Y24311D01*
X107686Y24288D01*
X107588Y24268D01*
X107481Y24252D01*
X107371Y24244D01*
X107254Y24240D01*
X107218D01*
X107175Y24244D01*
X107120Y24248D01*
X107053Y24256D01*
X106974Y24268D01*
X106888Y24280D01*
X106794Y24303D01*
X106695Y24327D01*
X106593Y24362D01*
X106487Y24402D01*
X106381Y24449D01*
X106275Y24504D01*
X106173Y24571D01*
X106075Y24645D01*
X105984Y24732D01*
X105980Y24740D01*
X105964Y24755D01*
X105941Y24783D01*
X105909Y24822D01*
X105874Y24873D01*
X105835Y24936D01*
X105796Y25007D01*
X105752Y25089D01*
X105705Y25184D01*
X105666Y25286D01*
X105626Y25400D01*
X105591Y25526D01*
X105560Y25659D01*
X105536Y25801D01*
X105520Y25954D01*
X105516Y26115D01*
Y26119D01*
Y26127D01*
Y26139D01*
Y26154D01*
Y26178D01*
X105520Y26206D01*
Y26233D01*
X105524Y26268D01*
X105532Y26343D01*
X105540Y26433D01*
X105556Y26532D01*
X105575Y26642D01*
X105599Y26752D01*
X105630Y26870D01*
X105670Y26987D01*
X105717Y27109D01*
X105768Y27227D01*
X105831Y27337D01*
X105905Y27447D01*
X105988Y27546D01*
X105992Y27549D01*
X106012Y27569D01*
X106035Y27593D01*
X106075Y27624D01*
X106122Y27663D01*
X106177Y27707D01*
X106244Y27754D01*
X106322Y27801D01*
X106405Y27848D01*
X106499Y27895D01*
X106597Y27939D01*
X106707Y27978D01*
X106825Y28009D01*
X106947Y28033D01*
X107081Y28053D01*
X107218Y28056D01*
X107249D01*
X107289Y28053D01*
D02*
G37*
G36*
X92434D02*
X92484Y28049D01*
X92547Y28041D01*
X92618Y28029D01*
X92701Y28013D01*
X92787Y27994D01*
X92878Y27966D01*
X92976Y27935D01*
X93074Y27895D01*
X93176Y27844D01*
X93274Y27789D01*
X93373Y27722D01*
X93467Y27644D01*
X93557Y27557D01*
X93561Y27553D01*
X93577Y27534D01*
X93601Y27506D01*
X93632Y27467D01*
X93668Y27416D01*
X93707Y27353D01*
X93746Y27278D01*
X93793Y27196D01*
X93836Y27101D01*
X93876Y26995D01*
X93915Y26881D01*
X93950Y26756D01*
X93982Y26618D01*
X94005Y26473D01*
X94021Y26319D01*
X94025Y26154D01*
Y26150D01*
Y26143D01*
Y26131D01*
Y26115D01*
Y26092D01*
Y26060D01*
X94021Y26029D01*
Y25989D01*
X91298D01*
Y25982D01*
X91302Y25962D01*
Y25930D01*
X91309Y25891D01*
X91313Y25840D01*
X91325Y25781D01*
X91337Y25718D01*
X91353Y25647D01*
X91372Y25573D01*
X91396Y25498D01*
X91423Y25420D01*
X91455Y25345D01*
X91490Y25270D01*
X91533Y25195D01*
X91581Y25129D01*
X91636Y25066D01*
X91640Y25062D01*
X91651Y25054D01*
X91667Y25038D01*
X91691Y25015D01*
X91722Y24991D01*
X91758Y24964D01*
X91801Y24936D01*
X91848Y24909D01*
X91899Y24877D01*
X91958Y24850D01*
X92021Y24822D01*
X92088Y24799D01*
X92162Y24779D01*
X92237Y24763D01*
X92320Y24751D01*
X92402Y24747D01*
X92434D01*
X92457Y24751D01*
X92488D01*
X92520Y24755D01*
X92559Y24763D01*
X92602Y24771D01*
X92693Y24791D01*
X92787Y24822D01*
X92885Y24865D01*
X92933Y24893D01*
X92980Y24924D01*
X92984Y24928D01*
X92992Y24932D01*
X93003Y24944D01*
X93019Y24960D01*
X93043Y24979D01*
X93066Y25003D01*
X93090Y25030D01*
X93121Y25066D01*
X93149Y25101D01*
X93180Y25144D01*
X93212Y25192D01*
X93247Y25243D01*
X93278Y25302D01*
X93306Y25364D01*
X93337Y25431D01*
X93365Y25502D01*
X94002Y25420D01*
Y25412D01*
X93994Y25396D01*
X93986Y25364D01*
X93970Y25325D01*
X93954Y25278D01*
X93935Y25227D01*
X93907Y25164D01*
X93876Y25101D01*
X93840Y25030D01*
X93801Y24960D01*
X93754Y24889D01*
X93703Y24814D01*
X93648Y24744D01*
X93585Y24673D01*
X93518Y24610D01*
X93444Y24547D01*
X93440Y24543D01*
X93424Y24535D01*
X93400Y24520D01*
X93369Y24500D01*
X93330Y24476D01*
X93282Y24449D01*
X93223Y24421D01*
X93160Y24394D01*
X93086Y24366D01*
X93007Y24339D01*
X92925Y24311D01*
X92830Y24288D01*
X92732Y24268D01*
X92626Y24252D01*
X92516Y24244D01*
X92398Y24240D01*
X92363D01*
X92320Y24244D01*
X92264Y24248D01*
X92198Y24256D01*
X92119Y24268D01*
X92033Y24280D01*
X91938Y24303D01*
X91840Y24327D01*
X91738Y24362D01*
X91632Y24402D01*
X91526Y24449D01*
X91420Y24504D01*
X91317Y24571D01*
X91219Y24645D01*
X91129Y24732D01*
X91125Y24740D01*
X91109Y24755D01*
X91085Y24783D01*
X91054Y24822D01*
X91019Y24873D01*
X90979Y24936D01*
X90940Y25007D01*
X90897Y25089D01*
X90850Y25184D01*
X90810Y25286D01*
X90771Y25400D01*
X90736Y25526D01*
X90704Y25659D01*
X90681Y25801D01*
X90665Y25954D01*
X90661Y26115D01*
Y26119D01*
Y26127D01*
Y26139D01*
Y26154D01*
Y26178D01*
X90665Y26206D01*
Y26233D01*
X90669Y26268D01*
X90677Y26343D01*
X90685Y26433D01*
X90700Y26532D01*
X90720Y26642D01*
X90744Y26752D01*
X90775Y26870D01*
X90814Y26987D01*
X90861Y27109D01*
X90912Y27227D01*
X90975Y27337D01*
X91050Y27447D01*
X91133Y27546D01*
X91136Y27549D01*
X91156Y27569D01*
X91180Y27593D01*
X91219Y27624D01*
X91266Y27663D01*
X91321Y27707D01*
X91388Y27754D01*
X91467Y27801D01*
X91549Y27848D01*
X91644Y27895D01*
X91742Y27939D01*
X91852Y27978D01*
X91970Y28009D01*
X92092Y28033D01*
X92225Y28053D01*
X92363Y28056D01*
X92394D01*
X92434Y28053D01*
D02*
G37*
G36*
X31681Y33549D02*
X31732D01*
X31787Y33544D01*
X31850Y33537D01*
X31921Y33529D01*
X31996Y33521D01*
X32074Y33509D01*
X32243Y33478D01*
X32412Y33431D01*
X32495Y33403D01*
X32577Y33372D01*
X32581Y33368D01*
X32597Y33364D01*
X32617Y33352D01*
X32648Y33336D01*
X32684Y33321D01*
X32727Y33297D01*
X32770Y33269D01*
X32821Y33238D01*
X32872Y33203D01*
X32927Y33163D01*
X32982Y33116D01*
X33033Y33069D01*
X33088Y33018D01*
X33139Y32963D01*
X33191Y32900D01*
X33234Y32837D01*
X33238Y32833D01*
X33246Y32821D01*
X33257Y32802D01*
X33269Y32774D01*
X33289Y32743D01*
X33308Y32704D01*
X33328Y32656D01*
X33352Y32609D01*
X33375Y32550D01*
X33399Y32491D01*
X33418Y32425D01*
X33438Y32358D01*
X33470Y32208D01*
X33477Y32130D01*
X33485Y32047D01*
X32845Y32000D01*
Y32004D01*
X32841Y32020D01*
X32837Y32047D01*
X32833Y32079D01*
X32821Y32118D01*
X32813Y32165D01*
X32798Y32212D01*
X32782Y32267D01*
X32758Y32326D01*
X32735Y32385D01*
X32707Y32444D01*
X32672Y32503D01*
X32636Y32562D01*
X32593Y32617D01*
X32546Y32672D01*
X32491Y32719D01*
X32487Y32723D01*
X32479Y32731D01*
X32460Y32743D01*
X32436Y32759D01*
X32405Y32778D01*
X32365Y32798D01*
X32322Y32821D01*
X32271Y32845D01*
X32212Y32865D01*
X32149Y32888D01*
X32074Y32908D01*
X31996Y32928D01*
X31913Y32943D01*
X31819Y32955D01*
X31721Y32963D01*
X31615Y32967D01*
X31556D01*
X31516Y32963D01*
X31465Y32959D01*
X31410Y32955D01*
X31343Y32947D01*
X31277Y32939D01*
X31131Y32912D01*
X31060Y32896D01*
X30986Y32873D01*
X30915Y32845D01*
X30848Y32818D01*
X30785Y32782D01*
X30730Y32743D01*
X30726Y32739D01*
X30718Y32731D01*
X30707Y32719D01*
X30687Y32704D01*
X30667Y32680D01*
X30644Y32656D01*
X30620Y32625D01*
X30593Y32594D01*
X30542Y32515D01*
X30498Y32425D01*
X30479Y32373D01*
X30467Y32322D01*
X30459Y32267D01*
X30455Y32208D01*
Y32204D01*
Y32197D01*
Y32181D01*
X30459Y32165D01*
X30463Y32142D01*
X30467Y32114D01*
X30479Y32051D01*
X30502Y31980D01*
X30538Y31906D01*
X30557Y31866D01*
X30585Y31831D01*
X30612Y31796D01*
X30648Y31760D01*
X30652D01*
X30660Y31752D01*
X30671Y31745D01*
X30691Y31729D01*
X30718Y31713D01*
X30754Y31694D01*
X30797Y31674D01*
X30848Y31650D01*
X30911Y31623D01*
X30982Y31595D01*
X31064Y31564D01*
X31159Y31532D01*
X31261Y31501D01*
X31383Y31466D01*
X31512Y31434D01*
X31658Y31399D01*
X31662D01*
X31666Y31395D01*
X31677D01*
X31693Y31391D01*
X31736Y31379D01*
X31791Y31367D01*
X31854Y31352D01*
X31933Y31332D01*
X32015Y31312D01*
X32102Y31289D01*
X32287Y31238D01*
X32381Y31214D01*
X32471Y31187D01*
X32558Y31159D01*
X32640Y31132D01*
X32711Y31104D01*
X32774Y31076D01*
X32778Y31073D01*
X32794Y31069D01*
X32817Y31057D01*
X32845Y31041D01*
X32884Y31021D01*
X32923Y30998D01*
X32970Y30970D01*
X33022Y30939D01*
X33128Y30864D01*
X33234Y30778D01*
X33336Y30676D01*
X33379Y30624D01*
X33422Y30566D01*
X33426Y30562D01*
X33430Y30550D01*
X33442Y30534D01*
X33454Y30511D01*
X33474Y30483D01*
X33489Y30448D01*
X33509Y30404D01*
X33529Y30361D01*
X33548Y30310D01*
X33568Y30255D01*
X33587Y30196D01*
X33603Y30133D01*
X33627Y29996D01*
X33631Y29921D01*
X33635Y29846D01*
Y29842D01*
Y29827D01*
Y29807D01*
X33631Y29780D01*
X33627Y29744D01*
X33623Y29701D01*
X33615Y29654D01*
X33607Y29603D01*
X33595Y29544D01*
X33580Y29485D01*
X33560Y29422D01*
X33536Y29359D01*
X33509Y29292D01*
X33481Y29221D01*
X33442Y29155D01*
X33403Y29088D01*
X33399Y29084D01*
X33391Y29072D01*
X33379Y29053D01*
X33360Y29029D01*
X33336Y29002D01*
X33308Y28966D01*
X33273Y28927D01*
X33234Y28888D01*
X33187Y28844D01*
X33139Y28797D01*
X33084Y28754D01*
X33025Y28707D01*
X32959Y28664D01*
X32892Y28616D01*
X32817Y28577D01*
X32739Y28538D01*
X32735Y28534D01*
X32719Y28530D01*
X32695Y28518D01*
X32664Y28506D01*
X32625Y28491D01*
X32574Y28475D01*
X32519Y28459D01*
X32456Y28440D01*
X32389Y28420D01*
X32314Y28404D01*
X32236Y28388D01*
X32149Y28373D01*
X32063Y28361D01*
X31968Y28349D01*
X31870Y28345D01*
X31772Y28341D01*
X31705D01*
X31658Y28345D01*
X31599Y28349D01*
X31532Y28353D01*
X31453Y28357D01*
X31371Y28365D01*
X31284Y28377D01*
X31190Y28388D01*
X30998Y28424D01*
X30903Y28447D01*
X30805Y28475D01*
X30715Y28502D01*
X30624Y28538D01*
X30620Y28542D01*
X30605Y28546D01*
X30581Y28557D01*
X30549Y28577D01*
X30510Y28597D01*
X30463Y28624D01*
X30416Y28652D01*
X30361Y28687D01*
X30306Y28726D01*
X30247Y28773D01*
X30184Y28821D01*
X30125Y28876D01*
X30066Y28935D01*
X30007Y28997D01*
X29952Y29068D01*
X29901Y29139D01*
X29897Y29143D01*
X29889Y29159D01*
X29877Y29178D01*
X29862Y29210D01*
X29838Y29249D01*
X29818Y29292D01*
X29795Y29343D01*
X29768Y29402D01*
X29744Y29469D01*
X29716Y29536D01*
X29697Y29611D01*
X29673Y29693D01*
X29657Y29776D01*
X29642Y29862D01*
X29630Y29952D01*
X29626Y30047D01*
X30255Y30102D01*
Y30098D01*
X30259Y30086D01*
Y30066D01*
X30263Y30039D01*
X30270Y30007D01*
X30278Y29968D01*
X30286Y29925D01*
X30298Y29882D01*
X30325Y29783D01*
X30361Y29677D01*
X30404Y29575D01*
X30459Y29477D01*
X30463Y29473D01*
X30467Y29465D01*
X30475Y29453D01*
X30491Y29438D01*
X30506Y29414D01*
X30530Y29390D01*
X30553Y29367D01*
X30585Y29335D01*
X30616Y29304D01*
X30656Y29273D01*
X30699Y29241D01*
X30742Y29210D01*
X30793Y29174D01*
X30848Y29143D01*
X30903Y29111D01*
X30966Y29084D01*
X30970D01*
X30982Y29076D01*
X31001Y29072D01*
X31025Y29060D01*
X31060Y29049D01*
X31100Y29037D01*
X31143Y29025D01*
X31194Y29009D01*
X31249Y28994D01*
X31308Y28982D01*
X31371Y28970D01*
X31438Y28958D01*
X31583Y28942D01*
X31740Y28935D01*
X31803D01*
X31839Y28939D01*
X31878Y28942D01*
X31921D01*
X31968Y28950D01*
X32070Y28962D01*
X32184Y28982D01*
X32298Y29009D01*
X32412Y29049D01*
X32416D01*
X32424Y29053D01*
X32440Y29060D01*
X32460Y29068D01*
X32487Y29080D01*
X32515Y29096D01*
X32577Y29131D01*
X32648Y29174D01*
X32723Y29229D01*
X32790Y29288D01*
X32849Y29359D01*
Y29363D01*
X32856Y29367D01*
X32860Y29379D01*
X32872Y29395D01*
X32896Y29434D01*
X32923Y29489D01*
X32947Y29552D01*
X32970Y29626D01*
X32986Y29705D01*
X32994Y29791D01*
Y29795D01*
Y29803D01*
Y29815D01*
X32990Y29831D01*
X32986Y29874D01*
X32978Y29933D01*
X32959Y29996D01*
X32935Y30066D01*
X32900Y30137D01*
X32853Y30204D01*
Y30208D01*
X32845Y30212D01*
X32825Y30235D01*
X32794Y30267D01*
X32743Y30306D01*
X32680Y30353D01*
X32644Y30381D01*
X32601Y30404D01*
X32558Y30432D01*
X32507Y30456D01*
X32456Y30479D01*
X32397Y30503D01*
X32393D01*
X32385Y30507D01*
X32373Y30511D01*
X32353Y30518D01*
X32330Y30526D01*
X32298Y30538D01*
X32255Y30550D01*
X32208Y30562D01*
X32153Y30577D01*
X32090Y30597D01*
X32015Y30617D01*
X31933Y30640D01*
X31842Y30664D01*
X31740Y30687D01*
X31626Y30715D01*
X31501Y30746D01*
X31493Y30750D01*
X31469Y30754D01*
X31434Y30762D01*
X31387Y30774D01*
X31332Y30790D01*
X31265Y30809D01*
X31194Y30829D01*
X31119Y30849D01*
X30958Y30900D01*
X30797Y30951D01*
X30718Y30978D01*
X30648Y31010D01*
X30585Y31037D01*
X30526Y31065D01*
X30522Y31069D01*
X30510Y31073D01*
X30491Y31084D01*
X30467Y31100D01*
X30436Y31116D01*
X30404Y31139D01*
X30322Y31194D01*
X30235Y31261D01*
X30145Y31340D01*
X30062Y31434D01*
X30023Y31481D01*
X29987Y31532D01*
Y31536D01*
X29980Y31544D01*
X29972Y31560D01*
X29960Y31583D01*
X29948Y31607D01*
X29932Y31639D01*
X29917Y31678D01*
X29901Y31717D01*
X29885Y31760D01*
X29870Y31811D01*
X29842Y31918D01*
X29822Y32035D01*
X29818Y32098D01*
X29815Y32161D01*
Y32165D01*
Y32177D01*
Y32201D01*
X29818Y32228D01*
X29822Y32259D01*
X29826Y32299D01*
X29834Y32346D01*
X29842Y32393D01*
X29866Y32503D01*
X29905Y32621D01*
X29932Y32684D01*
X29960Y32747D01*
X29991Y32810D01*
X30031Y32873D01*
X30035Y32876D01*
X30043Y32888D01*
X30054Y32904D01*
X30070Y32928D01*
X30094Y32955D01*
X30121Y32987D01*
X30153Y33022D01*
X30192Y33061D01*
X30235Y33101D01*
X30282Y33144D01*
X30333Y33187D01*
X30388Y33226D01*
X30451Y33269D01*
X30518Y33309D01*
X30589Y33344D01*
X30663Y33380D01*
X30667Y33383D01*
X30683Y33387D01*
X30707Y33395D01*
X30738Y33407D01*
X30777Y33419D01*
X30821Y33435D01*
X30876Y33450D01*
X30935Y33466D01*
X31001Y33482D01*
X31072Y33497D01*
X31147Y33513D01*
X31229Y33525D01*
X31312Y33537D01*
X31402Y33544D01*
X31493Y33552D01*
X31642D01*
X31681Y33549D01*
D02*
G37*
G36*
X39188Y28428D02*
X38539D01*
X37482Y32263D01*
Y32267D01*
X37478Y32283D01*
X37470Y32307D01*
X37462Y32342D01*
X37451Y32377D01*
X37439Y32421D01*
X37411Y32519D01*
X37384Y32621D01*
X37356Y32715D01*
X37345Y32759D01*
X37337Y32798D01*
X37329Y32833D01*
X37321Y32857D01*
Y32853D01*
X37317Y32841D01*
X37313Y32821D01*
X37305Y32798D01*
X37301Y32766D01*
X37290Y32735D01*
X37282Y32696D01*
X37270Y32652D01*
X37250Y32558D01*
X37223Y32460D01*
X37199Y32358D01*
X37172Y32263D01*
X36110Y28428D01*
X35423D01*
X34091Y33466D01*
X34770D01*
X35541Y30161D01*
Y30157D01*
X35545Y30137D01*
X35552Y30110D01*
X35560Y30070D01*
X35572Y30023D01*
X35584Y29968D01*
X35600Y29905D01*
X35615Y29838D01*
X35631Y29764D01*
X35647Y29681D01*
X35666Y29595D01*
X35682Y29508D01*
X35717Y29324D01*
X35753Y29131D01*
Y29135D01*
X35757Y29139D01*
Y29151D01*
X35761Y29166D01*
X35772Y29206D01*
X35784Y29261D01*
X35800Y29324D01*
X35816Y29395D01*
X35835Y29469D01*
X35855Y29548D01*
X35890Y29713D01*
X35910Y29791D01*
X35930Y29862D01*
X35945Y29929D01*
X35957Y29984D01*
X35969Y30027D01*
X35973Y30047D01*
X35977Y30059D01*
X36936Y33466D01*
X37741D01*
X38461Y30911D01*
Y30907D01*
X38465Y30900D01*
X38469Y30888D01*
X38472Y30868D01*
X38480Y30845D01*
X38488Y30817D01*
X38496Y30786D01*
X38504Y30750D01*
X38516Y30711D01*
X38527Y30668D01*
X38551Y30569D01*
X38579Y30456D01*
X38610Y30334D01*
X38641Y30200D01*
X38673Y30063D01*
X38708Y29913D01*
X38740Y29760D01*
X38802Y29445D01*
X38854Y29131D01*
Y29135D01*
X38857Y29155D01*
X38865Y29178D01*
X38873Y29214D01*
X38881Y29261D01*
X38893Y29316D01*
X38905Y29375D01*
X38920Y29445D01*
X38940Y29524D01*
X38960Y29607D01*
X38979Y29697D01*
X39003Y29791D01*
X39026Y29894D01*
X39050Y30000D01*
X39078Y30110D01*
X39105Y30224D01*
X39895Y33466D01*
X40567D01*
X39188Y28428D01*
D02*
G37*
G36*
X43063Y33462D02*
X43122D01*
X43185Y33458D01*
X43251D01*
X43397Y33446D01*
X43546Y33435D01*
X43617Y33427D01*
X43687Y33415D01*
X43754Y33403D01*
X43813Y33391D01*
X43817D01*
X43833Y33387D01*
X43856Y33380D01*
X43888Y33372D01*
X43923Y33360D01*
X43967Y33348D01*
X44018Y33328D01*
X44069Y33309D01*
X44187Y33262D01*
X44309Y33199D01*
X44434Y33120D01*
X44552Y33030D01*
X44556Y33026D01*
X44572Y33014D01*
X44591Y32994D01*
X44619Y32971D01*
X44650Y32935D01*
X44690Y32896D01*
X44733Y32849D01*
X44776Y32798D01*
X44823Y32739D01*
X44874Y32672D01*
X44925Y32601D01*
X44973Y32527D01*
X45020Y32444D01*
X45067Y32358D01*
X45110Y32267D01*
X45149Y32169D01*
X45153Y32161D01*
X45157Y32146D01*
X45169Y32118D01*
X45181Y32079D01*
X45197Y32028D01*
X45212Y31969D01*
X45232Y31902D01*
X45252Y31823D01*
X45267Y31741D01*
X45287Y31646D01*
X45303Y31548D01*
X45318Y31446D01*
X45330Y31336D01*
X45342Y31218D01*
X45346Y31100D01*
X45350Y30974D01*
Y30966D01*
Y30947D01*
Y30919D01*
X45346Y30876D01*
Y30825D01*
X45342Y30770D01*
X45338Y30703D01*
X45334Y30628D01*
X45326Y30554D01*
X45314Y30471D01*
X45291Y30298D01*
X45259Y30125D01*
X45212Y29952D01*
Y29949D01*
X45204Y29933D01*
X45201Y29909D01*
X45189Y29878D01*
X45177Y29842D01*
X45157Y29799D01*
X45142Y29748D01*
X45118Y29697D01*
X45071Y29579D01*
X45012Y29457D01*
X44945Y29335D01*
X44870Y29221D01*
X44866Y29218D01*
X44863Y29210D01*
X44851Y29194D01*
X44835Y29174D01*
X44815Y29151D01*
X44792Y29119D01*
X44737Y29057D01*
X44666Y28982D01*
X44587Y28903D01*
X44501Y28828D01*
X44411Y28762D01*
X44407D01*
X44399Y28754D01*
X44387Y28746D01*
X44367Y28734D01*
X44344Y28722D01*
X44312Y28707D01*
X44281Y28687D01*
X44242Y28667D01*
X44202Y28648D01*
X44155Y28628D01*
X44053Y28585D01*
X43935Y28546D01*
X43809Y28510D01*
X43805D01*
X43794Y28506D01*
X43774Y28502D01*
X43747Y28498D01*
X43715Y28491D01*
X43672Y28483D01*
X43629Y28475D01*
X43578Y28471D01*
X43518Y28463D01*
X43456Y28455D01*
X43389Y28447D01*
X43318Y28440D01*
X43165Y28432D01*
X43000Y28428D01*
X41184D01*
Y33466D01*
X43016D01*
X43063Y33462D01*
D02*
G37*
G36*
X98850Y73917D02*
X98300D01*
Y74448D01*
X98296Y74440D01*
X98280Y74420D01*
X98256Y74393D01*
X98221Y74353D01*
X98178Y74306D01*
X98127Y74255D01*
X98064Y74200D01*
X97993Y74141D01*
X97914Y74082D01*
X97828Y74027D01*
X97734Y73976D01*
X97628Y73929D01*
X97518Y73890D01*
X97396Y73862D01*
X97270Y73843D01*
X97136Y73835D01*
X97105D01*
X97081Y73839D01*
X97054D01*
X97018Y73843D01*
X96983Y73847D01*
X96940Y73851D01*
X96846Y73866D01*
X96743Y73886D01*
X96637Y73917D01*
X96531Y73957D01*
X96527D01*
X96519Y73961D01*
X96504Y73968D01*
X96484Y73980D01*
X96460Y73992D01*
X96437Y74004D01*
X96374Y74043D01*
X96307Y74086D01*
X96236Y74137D01*
X96174Y74200D01*
X96114Y74267D01*
Y74271D01*
X96111Y74275D01*
X96103Y74287D01*
X96095Y74303D01*
X96071Y74342D01*
X96040Y74397D01*
X96008Y74464D01*
X95977Y74542D01*
X95950Y74629D01*
X95926Y74727D01*
Y74731D01*
Y74735D01*
X95922Y74747D01*
Y74762D01*
X95918Y74782D01*
X95914Y74805D01*
X95910Y74833D01*
Y74868D01*
X95906Y74904D01*
X95902Y74947D01*
X95898Y74994D01*
X95894Y75045D01*
Y75104D01*
X95890Y75167D01*
Y75234D01*
Y75305D01*
Y77568D01*
X96508D01*
Y75540D01*
Y75537D01*
Y75521D01*
Y75493D01*
Y75462D01*
Y75423D01*
X96512Y75379D01*
Y75328D01*
Y75277D01*
X96515Y75167D01*
X96523Y75061D01*
X96527Y75010D01*
X96531Y74963D01*
X96535Y74923D01*
X96543Y74888D01*
Y74884D01*
X96547Y74876D01*
X96551Y74864D01*
X96555Y74849D01*
X96570Y74802D01*
X96598Y74747D01*
X96629Y74684D01*
X96673Y74621D01*
X96728Y74558D01*
X96790Y74503D01*
X96794D01*
X96798Y74499D01*
X96810Y74491D01*
X96826Y74483D01*
X96865Y74460D01*
X96920Y74436D01*
X96987Y74409D01*
X97066Y74389D01*
X97160Y74373D01*
X97258Y74365D01*
X97286D01*
X97305Y74369D01*
X97329D01*
X97360Y74373D01*
X97427Y74385D01*
X97510Y74401D01*
X97596Y74424D01*
X97690Y74460D01*
X97781Y74507D01*
X97785D01*
X97793Y74515D01*
X97804Y74523D01*
X97820Y74534D01*
X97863Y74566D01*
X97918Y74609D01*
X97973Y74664D01*
X98032Y74731D01*
X98087Y74805D01*
X98131Y74892D01*
Y74896D01*
X98135Y74904D01*
X98138Y74919D01*
X98146Y74939D01*
X98154Y74963D01*
X98162Y74994D01*
X98174Y75033D01*
X98182Y75073D01*
X98190Y75124D01*
X98201Y75175D01*
X98209Y75234D01*
X98217Y75297D01*
X98225Y75367D01*
X98229Y75442D01*
X98233Y75521D01*
Y75607D01*
Y77568D01*
X98850D01*
Y73917D01*
D02*
G37*
G36*
X84949Y78952D02*
X85008D01*
X85071Y78948D01*
X85138D01*
X85283Y78936D01*
X85433Y78924D01*
X85504Y78916D01*
X85574Y78904D01*
X85641Y78893D01*
X85700Y78881D01*
X85704D01*
X85720Y78877D01*
X85743Y78869D01*
X85775Y78861D01*
X85810Y78850D01*
X85853Y78838D01*
X85904Y78818D01*
X85956Y78798D01*
X86073Y78751D01*
X86195Y78688D01*
X86321Y78610D01*
X86439Y78519D01*
X86443Y78515D01*
X86458Y78504D01*
X86478Y78484D01*
X86506Y78460D01*
X86537Y78425D01*
X86576Y78386D01*
X86620Y78339D01*
X86663Y78288D01*
X86710Y78228D01*
X86761Y78162D01*
X86812Y78091D01*
X86859Y78016D01*
X86907Y77934D01*
X86954Y77847D01*
X86997Y77757D01*
X87036Y77659D01*
X87040Y77651D01*
X87044Y77635D01*
X87056Y77608D01*
X87068Y77568D01*
X87083Y77517D01*
X87099Y77458D01*
X87119Y77391D01*
X87138Y77313D01*
X87154Y77230D01*
X87174Y77136D01*
X87190Y77038D01*
X87205Y76936D01*
X87217Y76825D01*
X87229Y76708D01*
X87233Y76590D01*
X87237Y76464D01*
Y76456D01*
Y76437D01*
Y76409D01*
X87233Y76366D01*
Y76315D01*
X87229Y76260D01*
X87225Y76193D01*
X87221Y76118D01*
X87213Y76043D01*
X87201Y75961D01*
X87178Y75788D01*
X87146Y75615D01*
X87099Y75442D01*
Y75438D01*
X87091Y75423D01*
X87087Y75399D01*
X87076Y75367D01*
X87064Y75332D01*
X87044Y75289D01*
X87028Y75238D01*
X87005Y75187D01*
X86958Y75069D01*
X86899Y74947D01*
X86832Y74825D01*
X86757Y74711D01*
X86753Y74707D01*
X86749Y74699D01*
X86738Y74684D01*
X86722Y74664D01*
X86702Y74640D01*
X86679Y74609D01*
X86624Y74546D01*
X86553Y74471D01*
X86474Y74393D01*
X86388Y74318D01*
X86297Y74251D01*
X86294D01*
X86286Y74243D01*
X86274Y74236D01*
X86254Y74224D01*
X86231Y74212D01*
X86199Y74196D01*
X86168Y74177D01*
X86128Y74157D01*
X86089Y74137D01*
X86042Y74118D01*
X85940Y74075D01*
X85822Y74035D01*
X85696Y74000D01*
X85692D01*
X85680Y73996D01*
X85661Y73992D01*
X85633Y73988D01*
X85602Y73980D01*
X85559Y73972D01*
X85515Y73965D01*
X85464Y73961D01*
X85405Y73953D01*
X85342Y73945D01*
X85276Y73937D01*
X85205Y73929D01*
X85052Y73921D01*
X84886Y73917D01*
X83071D01*
Y78956D01*
X84902D01*
X84949Y78952D01*
D02*
G37*
G36*
X92601Y77160D02*
X92605Y77163D01*
X92621Y77179D01*
X92640Y77207D01*
X92672Y77238D01*
X92711Y77273D01*
X92758Y77317D01*
X92809Y77360D01*
X92872Y77407D01*
X92939Y77450D01*
X93018Y77494D01*
X93096Y77537D01*
X93187Y77576D01*
X93281Y77604D01*
X93383Y77631D01*
X93489Y77647D01*
X93599Y77651D01*
X93631D01*
X93658Y77647D01*
X93686D01*
X93721Y77643D01*
X93761Y77639D01*
X93808Y77635D01*
X93902Y77615D01*
X94012Y77592D01*
X94122Y77560D01*
X94236Y77513D01*
X94240D01*
X94248Y77505D01*
X94263Y77498D01*
X94287Y77490D01*
X94311Y77474D01*
X94342Y77458D01*
X94413Y77415D01*
X94491Y77360D01*
X94574Y77293D01*
X94656Y77215D01*
X94731Y77128D01*
X94735Y77124D01*
X94739Y77116D01*
X94751Y77105D01*
X94763Y77085D01*
X94778Y77061D01*
X94798Y77034D01*
X94822Y76998D01*
X94845Y76963D01*
X94869Y76924D01*
X94892Y76877D01*
X94943Y76778D01*
X94994Y76664D01*
X95038Y76539D01*
Y76535D01*
X95042Y76523D01*
X95050Y76503D01*
X95053Y76480D01*
X95065Y76448D01*
X95073Y76409D01*
X95081Y76366D01*
X95093Y76315D01*
X95104Y76263D01*
X95112Y76205D01*
X95132Y76079D01*
X95144Y75941D01*
X95148Y75796D01*
Y75792D01*
Y75784D01*
Y75772D01*
Y75757D01*
Y75733D01*
X95144Y75705D01*
Y75674D01*
X95140Y75643D01*
X95132Y75564D01*
X95124Y75474D01*
X95108Y75371D01*
X95089Y75261D01*
X95065Y75147D01*
X95034Y75029D01*
X94998Y74908D01*
X94951Y74790D01*
X94900Y74668D01*
X94837Y74554D01*
X94766Y74448D01*
X94684Y74346D01*
X94680Y74342D01*
X94664Y74322D01*
X94637Y74299D01*
X94602Y74267D01*
X94558Y74228D01*
X94503Y74185D01*
X94440Y74137D01*
X94370Y74090D01*
X94291Y74043D01*
X94209Y73996D01*
X94114Y73953D01*
X94016Y73913D01*
X93914Y73882D01*
X93804Y73858D01*
X93690Y73839D01*
X93568Y73835D01*
X93540D01*
X93505Y73839D01*
X93462Y73843D01*
X93407Y73851D01*
X93344Y73862D01*
X93277Y73878D01*
X93199Y73902D01*
X93120Y73929D01*
X93037Y73965D01*
X92955Y74008D01*
X92868Y74059D01*
X92786Y74122D01*
X92707Y74192D01*
X92629Y74275D01*
X92558Y74369D01*
Y73917D01*
X91984D01*
Y78956D01*
X92601D01*
Y77160D01*
D02*
G37*
G36*
X89642Y77647D02*
X89693Y77643D01*
X89756Y77635D01*
X89827Y77623D01*
X89909Y77608D01*
X89995Y77588D01*
X90086Y77560D01*
X90184Y77529D01*
X90282Y77490D01*
X90385Y77439D01*
X90483Y77384D01*
X90581Y77317D01*
X90675Y77238D01*
X90766Y77152D01*
X90770Y77148D01*
X90785Y77128D01*
X90809Y77101D01*
X90841Y77061D01*
X90876Y77010D01*
X90915Y76947D01*
X90954Y76873D01*
X91002Y76790D01*
X91045Y76696D01*
X91084Y76590D01*
X91123Y76476D01*
X91159Y76350D01*
X91190Y76212D01*
X91214Y76067D01*
X91229Y75914D01*
X91233Y75749D01*
Y75745D01*
Y75737D01*
Y75725D01*
Y75709D01*
Y75686D01*
Y75654D01*
X91229Y75623D01*
Y75584D01*
X88506D01*
Y75576D01*
X88510Y75556D01*
Y75525D01*
X88518Y75485D01*
X88522Y75434D01*
X88534Y75375D01*
X88545Y75313D01*
X88561Y75242D01*
X88581Y75167D01*
X88604Y75092D01*
X88632Y75014D01*
X88663Y74939D01*
X88699Y74864D01*
X88742Y74790D01*
X88789Y74723D01*
X88844Y74660D01*
X88848Y74656D01*
X88860Y74648D01*
X88876Y74633D01*
X88899Y74609D01*
X88930Y74585D01*
X88966Y74558D01*
X89009Y74530D01*
X89056Y74503D01*
X89107Y74471D01*
X89166Y74444D01*
X89229Y74416D01*
X89296Y74393D01*
X89371Y74373D01*
X89445Y74357D01*
X89528Y74346D01*
X89610Y74342D01*
X89642D01*
X89665Y74346D01*
X89697D01*
X89728Y74350D01*
X89768Y74357D01*
X89811Y74365D01*
X89901Y74385D01*
X89995Y74416D01*
X90094Y74460D01*
X90141Y74487D01*
X90188Y74519D01*
X90192Y74523D01*
X90200Y74527D01*
X90212Y74538D01*
X90227Y74554D01*
X90251Y74574D01*
X90275Y74597D01*
X90298Y74625D01*
X90330Y74660D01*
X90357Y74695D01*
X90389Y74739D01*
X90420Y74786D01*
X90455Y74837D01*
X90487Y74896D01*
X90514Y74959D01*
X90546Y75026D01*
X90573Y75096D01*
X91210Y75014D01*
Y75006D01*
X91202Y74990D01*
X91194Y74959D01*
X91179Y74919D01*
X91163Y74872D01*
X91143Y74821D01*
X91116Y74758D01*
X91084Y74695D01*
X91049Y74625D01*
X91009Y74554D01*
X90962Y74483D01*
X90911Y74409D01*
X90856Y74338D01*
X90793Y74267D01*
X90727Y74204D01*
X90652Y74141D01*
X90648Y74137D01*
X90632Y74129D01*
X90609Y74114D01*
X90577Y74094D01*
X90538Y74071D01*
X90491Y74043D01*
X90432Y74016D01*
X90369Y73988D01*
X90294Y73961D01*
X90216Y73933D01*
X90133Y73905D01*
X90039Y73882D01*
X89941Y73862D01*
X89834Y73847D01*
X89724Y73839D01*
X89606Y73835D01*
X89571D01*
X89528Y73839D01*
X89473Y73843D01*
X89406Y73851D01*
X89327Y73862D01*
X89241Y73874D01*
X89147Y73898D01*
X89048Y73921D01*
X88946Y73957D01*
X88840Y73996D01*
X88734Y74043D01*
X88628Y74098D01*
X88526Y74165D01*
X88428Y74240D01*
X88337Y74326D01*
X88333Y74334D01*
X88317Y74350D01*
X88294Y74377D01*
X88262Y74416D01*
X88227Y74467D01*
X88188Y74530D01*
X88148Y74601D01*
X88105Y74684D01*
X88058Y74778D01*
X88019Y74880D01*
X87979Y74994D01*
X87944Y75120D01*
X87913Y75253D01*
X87889Y75395D01*
X87873Y75548D01*
X87869Y75709D01*
Y75713D01*
Y75721D01*
Y75733D01*
Y75749D01*
Y75772D01*
X87873Y75800D01*
Y75827D01*
X87877Y75863D01*
X87885Y75937D01*
X87893Y76028D01*
X87909Y76126D01*
X87928Y76236D01*
X87952Y76346D01*
X87983Y76464D01*
X88023Y76582D01*
X88070Y76704D01*
X88121Y76822D01*
X88184Y76932D01*
X88258Y77042D01*
X88341Y77140D01*
X88345Y77144D01*
X88365Y77163D01*
X88388Y77187D01*
X88428Y77219D01*
X88475Y77258D01*
X88530Y77301D01*
X88596Y77348D01*
X88675Y77395D01*
X88758Y77443D01*
X88852Y77490D01*
X88950Y77533D01*
X89060Y77572D01*
X89178Y77604D01*
X89300Y77627D01*
X89433Y77647D01*
X89571Y77651D01*
X89603D01*
X89642Y77647D01*
D02*
G37*
G36*
X101224D02*
X101267Y77643D01*
X101322Y77635D01*
X101389Y77623D01*
X101459Y77608D01*
X101534Y77584D01*
X101617Y77557D01*
X101703Y77525D01*
X101793Y77482D01*
X101884Y77431D01*
X101970Y77372D01*
X102061Y77301D01*
X102143Y77219D01*
X102226Y77128D01*
Y77568D01*
X102796D01*
Y74409D01*
Y74405D01*
Y74401D01*
Y74389D01*
Y74373D01*
Y74353D01*
Y74330D01*
X102792Y74271D01*
Y74200D01*
X102788Y74122D01*
X102780Y74035D01*
X102772Y73941D01*
X102764Y73843D01*
X102752Y73744D01*
X102721Y73544D01*
X102701Y73450D01*
X102678Y73359D01*
X102650Y73277D01*
X102619Y73206D01*
Y73202D01*
X102611Y73190D01*
X102599Y73171D01*
X102587Y73147D01*
X102568Y73116D01*
X102544Y73080D01*
X102516Y73045D01*
X102485Y73002D01*
X102450Y72958D01*
X102410Y72911D01*
X102363Y72864D01*
X102312Y72817D01*
X102261Y72774D01*
X102202Y72727D01*
X102135Y72683D01*
X102068Y72644D01*
X102065Y72640D01*
X102053Y72636D01*
X102029Y72624D01*
X102002Y72613D01*
X101966Y72597D01*
X101923Y72577D01*
X101872Y72557D01*
X101813Y72542D01*
X101750Y72522D01*
X101679Y72502D01*
X101605Y72483D01*
X101522Y72467D01*
X101436Y72455D01*
X101341Y72444D01*
X101247Y72440D01*
X101145Y72436D01*
X101117D01*
X101082Y72440D01*
X101035D01*
X100980Y72444D01*
X100917Y72451D01*
X100846Y72459D01*
X100768Y72471D01*
X100685Y72487D01*
X100599Y72506D01*
X100512Y72530D01*
X100426Y72562D01*
X100335Y72593D01*
X100249Y72632D01*
X100166Y72679D01*
X100088Y72730D01*
X100084Y72734D01*
X100072Y72746D01*
X100052Y72762D01*
X100025Y72786D01*
X99993Y72817D01*
X99962Y72856D01*
X99927Y72900D01*
X99891Y72951D01*
X99852Y73010D01*
X99817Y73076D01*
X99785Y73147D01*
X99758Y73230D01*
X99734Y73316D01*
X99714Y73406D01*
X99703Y73509D01*
Y73615D01*
X100304Y73524D01*
Y73520D01*
X100308Y73513D01*
Y73497D01*
X100312Y73481D01*
X100316Y73457D01*
X100324Y73430D01*
X100343Y73371D01*
X100371Y73304D01*
X100406Y73237D01*
X100453Y73175D01*
X100512Y73119D01*
X100516D01*
X100524Y73112D01*
X100536Y73104D01*
X100555Y73092D01*
X100579Y73080D01*
X100607Y73065D01*
X100638Y73049D01*
X100677Y73033D01*
X100721Y73017D01*
X100768Y73002D01*
X100819Y72986D01*
X100874Y72974D01*
X100937Y72962D01*
X100999Y72954D01*
X101070Y72951D01*
X101141Y72947D01*
X101180D01*
X101212Y72951D01*
X101247D01*
X101290Y72954D01*
X101334Y72962D01*
X101385Y72970D01*
X101491Y72990D01*
X101601Y73021D01*
X101707Y73065D01*
X101754Y73088D01*
X101801Y73119D01*
X101805Y73124D01*
X101813Y73127D01*
X101825Y73139D01*
X101840Y73151D01*
X101880Y73190D01*
X101931Y73245D01*
X101982Y73312D01*
X102037Y73395D01*
X102084Y73493D01*
X102120Y73603D01*
Y73607D01*
X102123Y73611D01*
Y73623D01*
X102127Y73642D01*
X102131Y73666D01*
X102135Y73693D01*
X102139Y73729D01*
X102143Y73772D01*
X102151Y73823D01*
X102155Y73878D01*
X102159Y73945D01*
X102163Y74016D01*
Y74098D01*
X102167Y74185D01*
Y74287D01*
Y74393D01*
X102163Y74389D01*
X102147Y74373D01*
X102127Y74350D01*
X102096Y74318D01*
X102053Y74283D01*
X102006Y74243D01*
X101951Y74200D01*
X101888Y74157D01*
X101821Y74110D01*
X101742Y74067D01*
X101660Y74027D01*
X101569Y73992D01*
X101475Y73961D01*
X101373Y73937D01*
X101267Y73921D01*
X101157Y73917D01*
X101125D01*
X101086Y73921D01*
X101031Y73925D01*
X100968Y73933D01*
X100897Y73945D01*
X100815Y73965D01*
X100728Y73984D01*
X100634Y74016D01*
X100540Y74051D01*
X100442Y74094D01*
X100347Y74145D01*
X100249Y74208D01*
X100159Y74279D01*
X100072Y74365D01*
X99989Y74460D01*
X99986Y74467D01*
X99974Y74483D01*
X99950Y74515D01*
X99927Y74558D01*
X99895Y74609D01*
X99860Y74672D01*
X99825Y74743D01*
X99785Y74825D01*
X99746Y74915D01*
X99711Y75014D01*
X99675Y75124D01*
X99644Y75238D01*
X99620Y75360D01*
X99600Y75485D01*
X99585Y75623D01*
X99581Y75761D01*
Y75768D01*
Y75784D01*
Y75812D01*
X99585Y75851D01*
Y75894D01*
X99593Y75949D01*
X99597Y76012D01*
X99604Y76079D01*
X99616Y76150D01*
X99628Y76224D01*
X99659Y76389D01*
X99707Y76554D01*
X99738Y76641D01*
X99769Y76723D01*
X99773Y76727D01*
X99777Y76743D01*
X99789Y76767D01*
X99805Y76798D01*
X99825Y76833D01*
X99848Y76877D01*
X99875Y76924D01*
X99907Y76975D01*
X99946Y77030D01*
X99986Y77085D01*
X100029Y77144D01*
X100080Y77199D01*
X100131Y77254D01*
X100190Y77309D01*
X100249Y77360D01*
X100316Y77407D01*
X100320Y77411D01*
X100331Y77419D01*
X100351Y77431D01*
X100379Y77447D01*
X100414Y77462D01*
X100453Y77486D01*
X100500Y77505D01*
X100555Y77529D01*
X100614Y77553D01*
X100681Y77572D01*
X100748Y77596D01*
X100823Y77612D01*
X100901Y77627D01*
X100984Y77639D01*
X101070Y77647D01*
X101161Y77651D01*
X101188D01*
X101224Y77647D01*
D02*
G37*
G36*
X160790Y28139D02*
X160817Y28135D01*
X160849Y28131D01*
X160888Y28127D01*
X160931Y28119D01*
X161026Y28096D01*
X161136Y28060D01*
X161191Y28037D01*
X161250Y28009D01*
X161312Y27978D01*
X161371Y27942D01*
X161151Y27369D01*
X161147D01*
X161140Y27373D01*
X161128Y27380D01*
X161112Y27388D01*
X161092Y27400D01*
X161069Y27412D01*
X161010Y27436D01*
X160943Y27459D01*
X160864Y27483D01*
X160786Y27498D01*
X160699Y27502D01*
X160664D01*
X160629Y27494D01*
X160578Y27487D01*
X160522Y27471D01*
X160464Y27451D01*
X160401Y27420D01*
X160338Y27377D01*
X160330Y27373D01*
X160310Y27353D01*
X160283Y27325D01*
X160247Y27290D01*
X160212Y27239D01*
X160173Y27184D01*
X160137Y27117D01*
X160110Y27039D01*
Y27035D01*
X160106Y27023D01*
X160102Y27007D01*
X160094Y26980D01*
X160086Y26952D01*
X160078Y26913D01*
X160067Y26874D01*
X160059Y26826D01*
X160051Y26775D01*
X160039Y26716D01*
X160023Y26594D01*
X160012Y26461D01*
X160008Y26319D01*
Y24409D01*
X159391D01*
Y28060D01*
X159945D01*
Y27502D01*
X159949Y27506D01*
X159953Y27518D01*
X159965Y27538D01*
X159980Y27565D01*
X160000Y27597D01*
X160023Y27632D01*
X160074Y27715D01*
X160134Y27801D01*
X160200Y27884D01*
X160236Y27923D01*
X160271Y27958D01*
X160302Y27990D01*
X160338Y28017D01*
X160342D01*
X160346Y28021D01*
X160369Y28037D01*
X160405Y28056D01*
X160456Y28080D01*
X160515Y28104D01*
X160582Y28123D01*
X160656Y28139D01*
X160735Y28143D01*
X160766D01*
X160790Y28139D01*
D02*
G37*
G36*
X146103D02*
X146154Y28135D01*
X146213Y28127D01*
X146276Y28119D01*
X146351Y28104D01*
X146426Y28088D01*
X146504Y28068D01*
X146583Y28045D01*
X146665Y28017D01*
X146748Y27982D01*
X146827Y27939D01*
X146901Y27895D01*
X146976Y27840D01*
X146980Y27836D01*
X146992Y27825D01*
X147011Y27809D01*
X147035Y27785D01*
X147066Y27754D01*
X147102Y27715D01*
X147137Y27671D01*
X147180Y27620D01*
X147220Y27561D01*
X147259Y27498D01*
X147302Y27428D01*
X147341Y27353D01*
X147377Y27270D01*
X147412Y27184D01*
X147440Y27090D01*
X147463Y26987D01*
X146862Y26893D01*
Y26897D01*
X146858Y26909D01*
X146854Y26929D01*
X146846Y26952D01*
X146834Y26984D01*
X146823Y27019D01*
X146791Y27101D01*
X146748Y27192D01*
X146697Y27282D01*
X146630Y27369D01*
X146595Y27412D01*
X146555Y27447D01*
X146551Y27451D01*
X146547Y27455D01*
X146532Y27463D01*
X146516Y27479D01*
X146496Y27491D01*
X146469Y27506D01*
X146441Y27526D01*
X146410Y27542D01*
X146331Y27577D01*
X146241Y27608D01*
X146139Y27628D01*
X146088Y27632D01*
X146029Y27636D01*
X146009D01*
X145985Y27632D01*
X145950D01*
X145911Y27624D01*
X145868Y27616D01*
X145817Y27608D01*
X145762Y27593D01*
X145703Y27577D01*
X145640Y27553D01*
X145577Y27526D01*
X145514Y27494D01*
X145451Y27455D01*
X145392Y27408D01*
X145329Y27357D01*
X145274Y27298D01*
X145270Y27294D01*
X145262Y27282D01*
X145247Y27263D01*
X145227Y27235D01*
X145207Y27200D01*
X145184Y27153D01*
X145156Y27101D01*
X145129Y27039D01*
X145101Y26972D01*
X145074Y26893D01*
X145050Y26807D01*
X145030Y26708D01*
X145011Y26606D01*
X144995Y26492D01*
X144987Y26370D01*
X144983Y26237D01*
Y26233D01*
Y26229D01*
Y26206D01*
Y26166D01*
X144987Y26115D01*
X144991Y26056D01*
X144999Y25985D01*
X145007Y25907D01*
X145019Y25824D01*
X145034Y25738D01*
X145050Y25651D01*
X145074Y25561D01*
X145101Y25475D01*
X145133Y25388D01*
X145172Y25306D01*
X145215Y25231D01*
X145262Y25164D01*
X145266Y25160D01*
X145274Y25148D01*
X145290Y25133D01*
X145313Y25113D01*
X145341Y25089D01*
X145376Y25058D01*
X145416Y25030D01*
X145459Y24999D01*
X145510Y24968D01*
X145565Y24940D01*
X145628Y24913D01*
X145691Y24885D01*
X145762Y24865D01*
X145836Y24850D01*
X145915Y24838D01*
X145997Y24834D01*
X146033D01*
X146056Y24838D01*
X146088Y24842D01*
X146123Y24846D01*
X146166Y24854D01*
X146210Y24861D01*
X146304Y24889D01*
X146406Y24928D01*
X146457Y24952D01*
X146508Y24983D01*
X146555Y25015D01*
X146602Y25054D01*
X146606Y25058D01*
X146614Y25066D01*
X146626Y25078D01*
X146642Y25097D01*
X146661Y25121D01*
X146685Y25148D01*
X146709Y25184D01*
X146732Y25223D01*
X146760Y25270D01*
X146787Y25321D01*
X146811Y25376D01*
X146838Y25439D01*
X146858Y25510D01*
X146881Y25581D01*
X146897Y25659D01*
X146913Y25746D01*
X147522Y25663D01*
Y25655D01*
X147518Y25636D01*
X147510Y25604D01*
X147499Y25561D01*
X147487Y25506D01*
X147467Y25447D01*
X147447Y25376D01*
X147420Y25306D01*
X147389Y25227D01*
X147353Y25148D01*
X147310Y25066D01*
X147263Y24983D01*
X147208Y24905D01*
X147149Y24826D01*
X147082Y24751D01*
X147007Y24681D01*
X147003Y24677D01*
X146988Y24665D01*
X146964Y24649D01*
X146933Y24626D01*
X146893Y24598D01*
X146846Y24571D01*
X146791Y24535D01*
X146728Y24504D01*
X146658Y24472D01*
X146583Y24441D01*
X146500Y24409D01*
X146410Y24382D01*
X146316Y24358D01*
X146217Y24343D01*
X146111Y24331D01*
X146001Y24327D01*
X145970D01*
X145930Y24331D01*
X145879Y24335D01*
X145813Y24343D01*
X145742Y24354D01*
X145659Y24366D01*
X145573Y24390D01*
X145478Y24413D01*
X145380Y24445D01*
X145278Y24484D01*
X145180Y24531D01*
X145078Y24590D01*
X144979Y24653D01*
X144889Y24728D01*
X144799Y24814D01*
X144795Y24818D01*
X144779Y24838D01*
X144755Y24865D01*
X144728Y24905D01*
X144693Y24956D01*
X144657Y25019D01*
X144614Y25089D01*
X144575Y25176D01*
X144531Y25270D01*
X144488Y25372D01*
X144453Y25490D01*
X144417Y25616D01*
X144390Y25750D01*
X144366Y25899D01*
X144351Y26056D01*
X144347Y26221D01*
Y26229D01*
Y26249D01*
Y26280D01*
X144351Y26319D01*
X144354Y26370D01*
X144358Y26430D01*
X144362Y26500D01*
X144370Y26571D01*
X144382Y26649D01*
X144394Y26732D01*
X144429Y26905D01*
X144449Y26995D01*
X144476Y27082D01*
X144504Y27168D01*
X144539Y27255D01*
X144543Y27259D01*
X144547Y27274D01*
X144559Y27298D01*
X144575Y27329D01*
X144598Y27365D01*
X144622Y27408D01*
X144653Y27455D01*
X144689Y27506D01*
X144728Y27557D01*
X144771Y27612D01*
X144822Y27667D01*
X144873Y27722D01*
X144932Y27777D01*
X144995Y27829D01*
X145066Y27876D01*
X145137Y27919D01*
X145141Y27923D01*
X145156Y27927D01*
X145176Y27939D01*
X145207Y27954D01*
X145243Y27970D01*
X145290Y27990D01*
X145337Y28009D01*
X145396Y28033D01*
X145459Y28053D01*
X145526Y28072D01*
X145596Y28092D01*
X145671Y28108D01*
X145750Y28123D01*
X145832Y28135D01*
X145919Y28139D01*
X146005Y28143D01*
X146064D01*
X146103Y28139D01*
D02*
G37*
G36*
X153555Y24409D02*
X152977D01*
X151594Y28060D01*
X152246D01*
X153028Y25871D01*
Y25868D01*
X153032Y25856D01*
X153040Y25836D01*
X153048Y25809D01*
X153059Y25777D01*
X153075Y25738D01*
X153087Y25695D01*
X153103Y25647D01*
X153122Y25592D01*
X153138Y25537D01*
X153177Y25412D01*
X153221Y25278D01*
X153260Y25137D01*
Y25140D01*
X153264Y25148D01*
X153268Y25164D01*
X153276Y25188D01*
X153284Y25215D01*
X153295Y25251D01*
X153307Y25286D01*
X153319Y25333D01*
X153335Y25380D01*
X153354Y25431D01*
X153374Y25490D01*
X153393Y25553D01*
X153441Y25687D01*
X153492Y25832D01*
X154301Y28060D01*
X154938D01*
X153555Y24409D01*
D02*
G37*
G36*
X163344Y24347D02*
X163340Y24339D01*
X163336Y24319D01*
X163325Y24292D01*
X163309Y24248D01*
X163289Y24201D01*
X163266Y24146D01*
X163242Y24083D01*
X163218Y24020D01*
X163160Y23883D01*
X163104Y23745D01*
X163077Y23682D01*
X163049Y23623D01*
X163022Y23568D01*
X162998Y23521D01*
Y23517D01*
X162991Y23509D01*
X162983Y23494D01*
X162971Y23470D01*
X162955Y23447D01*
X162936Y23415D01*
X162888Y23352D01*
X162833Y23278D01*
X162767Y23203D01*
X162696Y23132D01*
X162617Y23073D01*
X162613D01*
X162609Y23065D01*
X162598Y23062D01*
X162578Y23050D01*
X162558Y23038D01*
X162535Y23026D01*
X162476Y23002D01*
X162401Y22975D01*
X162315Y22951D01*
X162216Y22936D01*
X162110Y22928D01*
X162079D01*
X162043Y22932D01*
X161996Y22940D01*
X161937Y22948D01*
X161867Y22959D01*
X161792Y22979D01*
X161713Y23006D01*
X161646Y23584D01*
X161651D01*
X161654Y23580D01*
X161666D01*
X161682Y23576D01*
X161717Y23568D01*
X161764Y23557D01*
X161819Y23545D01*
X161878Y23537D01*
X161937Y23533D01*
X161996Y23529D01*
X162032D01*
X162067Y23533D01*
X162114Y23537D01*
X162169Y23545D01*
X162224Y23561D01*
X162279Y23576D01*
X162326Y23600D01*
X162330Y23604D01*
X162346Y23612D01*
X162370Y23627D01*
X162401Y23651D01*
X162433Y23674D01*
X162464Y23710D01*
X162499Y23749D01*
X162531Y23792D01*
X162535Y23796D01*
X162543Y23812D01*
X162554Y23844D01*
X162566Y23863D01*
X162574Y23887D01*
X162586Y23914D01*
X162601Y23946D01*
X162617Y23985D01*
X162633Y24028D01*
X162653Y24075D01*
X162672Y24126D01*
X162696Y24185D01*
X162719Y24252D01*
Y24256D01*
X162723Y24260D01*
X162727Y24276D01*
X162731Y24292D01*
X162739Y24311D01*
X162751Y24339D01*
X162763Y24370D01*
X162774Y24406D01*
X161387Y28060D01*
X162051D01*
X162814Y25950D01*
Y25946D01*
X162822Y25930D01*
X162829Y25911D01*
X162837Y25879D01*
X162853Y25844D01*
X162865Y25801D01*
X162884Y25750D01*
X162900Y25695D01*
X162920Y25636D01*
X162943Y25569D01*
X162963Y25498D01*
X162987Y25427D01*
X163034Y25270D01*
X163077Y25109D01*
Y25113D01*
X163081Y25129D01*
X163089Y25148D01*
X163097Y25180D01*
X163104Y25219D01*
X163120Y25262D01*
X163132Y25313D01*
X163148Y25368D01*
X163167Y25427D01*
X163187Y25494D01*
X163230Y25632D01*
X163277Y25777D01*
X163332Y25930D01*
X164115Y28060D01*
X164732D01*
X163344Y24347D01*
D02*
G37*
G36*
X137972Y29444D02*
X138027D01*
X138094Y29440D01*
X138165Y29436D01*
X138243Y29432D01*
X138322Y29424D01*
X138408Y29412D01*
X138577Y29389D01*
X138660Y29373D01*
X138739Y29357D01*
X138813Y29334D01*
X138884Y29310D01*
X138888D01*
X138900Y29302D01*
X138919Y29294D01*
X138943Y29283D01*
X138970Y29267D01*
X139006Y29247D01*
X139045Y29224D01*
X139084Y29200D01*
X139128Y29169D01*
X139175Y29133D01*
X139222Y29094D01*
X139265Y29047D01*
X139312Y29000D01*
X139359Y28949D01*
X139403Y28890D01*
X139442Y28827D01*
X139446Y28823D01*
X139450Y28811D01*
X139462Y28791D01*
X139473Y28768D01*
X139493Y28736D01*
X139509Y28697D01*
X139529Y28654D01*
X139548Y28603D01*
X139568Y28552D01*
X139587Y28493D01*
X139607Y28430D01*
X139623Y28363D01*
X139646Y28222D01*
X139650Y28147D01*
X139654Y28072D01*
Y28064D01*
Y28049D01*
X139650Y28021D01*
Y27982D01*
X139643Y27935D01*
X139635Y27884D01*
X139627Y27821D01*
X139611Y27758D01*
X139591Y27687D01*
X139568Y27612D01*
X139540Y27538D01*
X139505Y27463D01*
X139466Y27384D01*
X139418Y27310D01*
X139367Y27235D01*
X139304Y27164D01*
X139301Y27160D01*
X139289Y27149D01*
X139269Y27129D01*
X139238Y27105D01*
X139202Y27078D01*
X139155Y27042D01*
X139104Y27007D01*
X139041Y26968D01*
X138970Y26929D01*
X138892Y26889D01*
X138805Y26850D01*
X138707Y26815D01*
X138601Y26779D01*
X138491Y26748D01*
X138365Y26720D01*
X138235Y26701D01*
X138239D01*
X138247Y26697D01*
X138259Y26689D01*
X138279Y26677D01*
X138326Y26654D01*
X138385Y26622D01*
X138448Y26583D01*
X138514Y26539D01*
X138581Y26496D01*
X138636Y26449D01*
X138640Y26445D01*
X138648Y26437D01*
X138664Y26422D01*
X138688Y26402D01*
X138711Y26375D01*
X138742Y26343D01*
X138778Y26308D01*
X138813Y26264D01*
X138856Y26217D01*
X138900Y26166D01*
X138943Y26111D01*
X138990Y26052D01*
X139041Y25989D01*
X139088Y25923D01*
X139187Y25777D01*
X140059Y24409D01*
X139226D01*
X138562Y25455D01*
X138558Y25459D01*
X138550Y25475D01*
X138534Y25498D01*
X138514Y25530D01*
X138487Y25569D01*
X138460Y25612D01*
X138428Y25659D01*
X138393Y25710D01*
X138318Y25824D01*
X138235Y25938D01*
X138157Y26048D01*
X138118Y26099D01*
X138082Y26147D01*
X138078Y26150D01*
X138074Y26158D01*
X138063Y26170D01*
X138051Y26186D01*
X138015Y26229D01*
X137968Y26280D01*
X137917Y26335D01*
X137862Y26390D01*
X137803Y26441D01*
X137744Y26485D01*
X137736Y26488D01*
X137717Y26500D01*
X137689Y26516D01*
X137650Y26539D01*
X137603Y26559D01*
X137552Y26583D01*
X137497Y26602D01*
X137438Y26618D01*
X137434D01*
X137414Y26622D01*
X137387Y26626D01*
X137347Y26634D01*
X137296Y26638D01*
X137233Y26642D01*
X137159Y26646D01*
X136298D01*
Y24409D01*
X135630D01*
Y29448D01*
X137925D01*
X137972Y29444D01*
D02*
G37*
G36*
X157052Y28139D02*
X157103Y28135D01*
X157166Y28127D01*
X157237Y28115D01*
X157320Y28100D01*
X157406Y28080D01*
X157496Y28053D01*
X157595Y28021D01*
X157693Y27982D01*
X157795Y27931D01*
X157893Y27876D01*
X157992Y27809D01*
X158086Y27730D01*
X158176Y27644D01*
X158180Y27640D01*
X158196Y27620D01*
X158220Y27593D01*
X158251Y27553D01*
X158286Y27502D01*
X158326Y27439D01*
X158365Y27365D01*
X158412Y27282D01*
X158455Y27188D01*
X158495Y27082D01*
X158534Y26968D01*
X158569Y26842D01*
X158601Y26705D01*
X158624Y26559D01*
X158640Y26406D01*
X158644Y26241D01*
Y26237D01*
Y26229D01*
Y26217D01*
Y26202D01*
Y26178D01*
Y26147D01*
X158640Y26115D01*
Y26076D01*
X155917D01*
Y26068D01*
X155921Y26048D01*
Y26017D01*
X155928Y25978D01*
X155932Y25926D01*
X155944Y25868D01*
X155956Y25805D01*
X155972Y25734D01*
X155991Y25659D01*
X156015Y25585D01*
X156042Y25506D01*
X156074Y25431D01*
X156109Y25357D01*
X156152Y25282D01*
X156200Y25215D01*
X156255Y25152D01*
X156258Y25148D01*
X156270Y25140D01*
X156286Y25125D01*
X156310Y25101D01*
X156341Y25078D01*
X156376Y25050D01*
X156420Y25023D01*
X156467Y24995D01*
X156518Y24964D01*
X156577Y24936D01*
X156640Y24909D01*
X156707Y24885D01*
X156781Y24865D01*
X156856Y24850D01*
X156938Y24838D01*
X157021Y24834D01*
X157052D01*
X157076Y24838D01*
X157107D01*
X157139Y24842D01*
X157178Y24850D01*
X157221Y24858D01*
X157312Y24877D01*
X157406Y24909D01*
X157504Y24952D01*
X157552Y24979D01*
X157599Y25011D01*
X157603Y25015D01*
X157610Y25019D01*
X157622Y25030D01*
X157638Y25046D01*
X157661Y25066D01*
X157685Y25089D01*
X157709Y25117D01*
X157740Y25152D01*
X157768Y25188D01*
X157799Y25231D01*
X157831Y25278D01*
X157866Y25329D01*
X157897Y25388D01*
X157925Y25451D01*
X157956Y25518D01*
X157984Y25589D01*
X158620Y25506D01*
Y25498D01*
X158613Y25482D01*
X158605Y25451D01*
X158589Y25412D01*
X158573Y25364D01*
X158554Y25313D01*
X158526Y25251D01*
X158495Y25188D01*
X158459Y25117D01*
X158420Y25046D01*
X158373Y24975D01*
X158322Y24901D01*
X158267Y24830D01*
X158204Y24759D01*
X158137Y24696D01*
X158062Y24633D01*
X158058Y24630D01*
X158043Y24622D01*
X158019Y24606D01*
X157988Y24586D01*
X157948Y24563D01*
X157901Y24535D01*
X157842Y24508D01*
X157779Y24480D01*
X157705Y24453D01*
X157626Y24425D01*
X157544Y24398D01*
X157449Y24374D01*
X157351Y24354D01*
X157245Y24339D01*
X157135Y24331D01*
X157017Y24327D01*
X156982D01*
X156938Y24331D01*
X156883Y24335D01*
X156817Y24343D01*
X156738Y24354D01*
X156651Y24366D01*
X156557Y24390D01*
X156459Y24413D01*
X156357Y24449D01*
X156251Y24488D01*
X156144Y24535D01*
X156038Y24590D01*
X155936Y24657D01*
X155838Y24732D01*
X155748Y24818D01*
X155744Y24826D01*
X155728Y24842D01*
X155704Y24869D01*
X155673Y24909D01*
X155638Y24960D01*
X155598Y25023D01*
X155559Y25093D01*
X155516Y25176D01*
X155469Y25270D01*
X155429Y25372D01*
X155390Y25486D01*
X155355Y25612D01*
X155323Y25746D01*
X155300Y25887D01*
X155284Y26040D01*
X155280Y26202D01*
Y26206D01*
Y26213D01*
Y26225D01*
Y26241D01*
Y26264D01*
X155284Y26292D01*
Y26319D01*
X155288Y26355D01*
X155296Y26430D01*
X155304Y26520D01*
X155319Y26618D01*
X155339Y26728D01*
X155362Y26838D01*
X155394Y26956D01*
X155433Y27074D01*
X155480Y27196D01*
X155531Y27314D01*
X155594Y27424D01*
X155669Y27534D01*
X155752Y27632D01*
X155755Y27636D01*
X155775Y27656D01*
X155799Y27679D01*
X155838Y27711D01*
X155885Y27750D01*
X155940Y27793D01*
X156007Y27840D01*
X156086Y27887D01*
X156168Y27935D01*
X156262Y27982D01*
X156361Y28025D01*
X156471Y28064D01*
X156589Y28096D01*
X156710Y28119D01*
X156844Y28139D01*
X156982Y28143D01*
X157013D01*
X157052Y28139D01*
D02*
G37*
G36*
X149605D02*
X149656Y28135D01*
X149719Y28127D01*
X149794Y28115D01*
X149876Y28100D01*
X149967Y28080D01*
X150065Y28056D01*
X150163Y28021D01*
X150265Y27982D01*
X150371Y27935D01*
X150473Y27876D01*
X150576Y27813D01*
X150670Y27734D01*
X150764Y27648D01*
X150768Y27644D01*
X150784Y27624D01*
X150808Y27597D01*
X150839Y27557D01*
X150874Y27506D01*
X150918Y27447D01*
X150961Y27373D01*
X151004Y27290D01*
X151047Y27200D01*
X151091Y27098D01*
X151134Y26984D01*
X151169Y26862D01*
X151201Y26732D01*
X151224Y26591D01*
X151240Y26441D01*
X151244Y26284D01*
Y26276D01*
Y26253D01*
Y26217D01*
X151240Y26166D01*
X151236Y26107D01*
X151232Y26040D01*
X151228Y25966D01*
X151216Y25883D01*
X151205Y25797D01*
X151193Y25706D01*
X151153Y25522D01*
X151130Y25427D01*
X151102Y25341D01*
X151071Y25254D01*
X151032Y25176D01*
X151028Y25172D01*
X151024Y25156D01*
X151008Y25137D01*
X150992Y25109D01*
X150969Y25074D01*
X150945Y25034D01*
X150910Y24991D01*
X150874Y24944D01*
X150835Y24897D01*
X150788Y24846D01*
X150737Y24791D01*
X150682Y24740D01*
X150623Y24689D01*
X150556Y24637D01*
X150489Y24590D01*
X150415Y24547D01*
X150411Y24543D01*
X150395Y24539D01*
X150375Y24527D01*
X150344Y24512D01*
X150304Y24496D01*
X150261Y24476D01*
X150210Y24457D01*
X150151Y24437D01*
X150088Y24417D01*
X150022Y24398D01*
X149947Y24378D01*
X149872Y24362D01*
X149707Y24335D01*
X149621Y24331D01*
X149530Y24327D01*
X149495D01*
X149456Y24331D01*
X149405Y24335D01*
X149338Y24343D01*
X149263Y24354D01*
X149181Y24366D01*
X149090Y24390D01*
X148992Y24413D01*
X148890Y24449D01*
X148788Y24488D01*
X148685Y24535D01*
X148583Y24590D01*
X148481Y24657D01*
X148383Y24732D01*
X148292Y24818D01*
X148288Y24822D01*
X148273Y24842D01*
X148249Y24869D01*
X148218Y24909D01*
X148182Y24960D01*
X148143Y25023D01*
X148100Y25097D01*
X148057Y25180D01*
X148013Y25274D01*
X147970Y25380D01*
X147931Y25494D01*
X147896Y25624D01*
X147864Y25761D01*
X147840Y25907D01*
X147825Y26064D01*
X147821Y26233D01*
Y26237D01*
Y26245D01*
Y26261D01*
Y26276D01*
X147825Y26300D01*
Y26331D01*
X147829Y26363D01*
Y26398D01*
X147836Y26485D01*
X147852Y26579D01*
X147868Y26685D01*
X147891Y26803D01*
X147919Y26921D01*
X147958Y27046D01*
X148002Y27168D01*
X148057Y27294D01*
X148123Y27416D01*
X148198Y27530D01*
X148284Y27636D01*
X148383Y27734D01*
X148387Y27738D01*
X148406Y27754D01*
X148430Y27773D01*
X148465Y27797D01*
X148512Y27829D01*
X148567Y27864D01*
X148630Y27899D01*
X148705Y27939D01*
X148784Y27978D01*
X148870Y28013D01*
X148964Y28049D01*
X149067Y28080D01*
X149173Y28104D01*
X149287Y28127D01*
X149405Y28139D01*
X149530Y28143D01*
X149566D01*
X149605Y28139D01*
D02*
G37*
G36*
X142189D02*
X142240Y28135D01*
X142303Y28127D01*
X142374Y28115D01*
X142456Y28100D01*
X142543Y28080D01*
X142633Y28053D01*
X142731Y28021D01*
X142830Y27982D01*
X142932Y27931D01*
X143030Y27876D01*
X143128Y27809D01*
X143223Y27730D01*
X143313Y27644D01*
X143317Y27640D01*
X143333Y27620D01*
X143356Y27593D01*
X143388Y27553D01*
X143423Y27502D01*
X143462Y27439D01*
X143502Y27365D01*
X143549Y27282D01*
X143592Y27188D01*
X143631Y27082D01*
X143671Y26968D01*
X143706Y26842D01*
X143737Y26705D01*
X143761Y26559D01*
X143777Y26406D01*
X143781Y26241D01*
Y26237D01*
Y26229D01*
Y26217D01*
Y26202D01*
Y26178D01*
Y26147D01*
X143777Y26115D01*
Y26076D01*
X141053D01*
Y26068D01*
X141057Y26048D01*
Y26017D01*
X141065Y25978D01*
X141069Y25926D01*
X141081Y25868D01*
X141093Y25805D01*
X141108Y25734D01*
X141128Y25659D01*
X141152Y25585D01*
X141179Y25506D01*
X141210Y25431D01*
X141246Y25357D01*
X141289Y25282D01*
X141336Y25215D01*
X141391Y25152D01*
X141395Y25148D01*
X141407Y25140D01*
X141423Y25125D01*
X141446Y25101D01*
X141478Y25078D01*
X141513Y25050D01*
X141556Y25023D01*
X141604Y24995D01*
X141655Y24964D01*
X141714Y24936D01*
X141776Y24909D01*
X141843Y24885D01*
X141918Y24865D01*
X141993Y24850D01*
X142075Y24838D01*
X142158Y24834D01*
X142189D01*
X142213Y24838D01*
X142244D01*
X142276Y24842D01*
X142315Y24850D01*
X142358Y24858D01*
X142448Y24877D01*
X142543Y24909D01*
X142641Y24952D01*
X142688Y24979D01*
X142735Y25011D01*
X142739Y25015D01*
X142747Y25019D01*
X142759Y25030D01*
X142775Y25046D01*
X142798Y25066D01*
X142822Y25089D01*
X142845Y25117D01*
X142877Y25152D01*
X142904Y25188D01*
X142936Y25231D01*
X142967Y25278D01*
X143003Y25329D01*
X143034Y25388D01*
X143062Y25451D01*
X143093Y25518D01*
X143121Y25589D01*
X143757Y25506D01*
Y25498D01*
X143749Y25482D01*
X143741Y25451D01*
X143726Y25412D01*
X143710Y25364D01*
X143690Y25313D01*
X143663Y25251D01*
X143631Y25188D01*
X143596Y25117D01*
X143557Y25046D01*
X143510Y24975D01*
X143458Y24901D01*
X143403Y24830D01*
X143341Y24759D01*
X143274Y24696D01*
X143199Y24633D01*
X143195Y24630D01*
X143179Y24622D01*
X143156Y24606D01*
X143124Y24586D01*
X143085Y24563D01*
X143038Y24535D01*
X142979Y24508D01*
X142916Y24480D01*
X142841Y24453D01*
X142763Y24425D01*
X142680Y24398D01*
X142586Y24374D01*
X142488Y24354D01*
X142382Y24339D01*
X142272Y24331D01*
X142154Y24327D01*
X142118D01*
X142075Y24331D01*
X142020Y24335D01*
X141953Y24343D01*
X141875Y24354D01*
X141788Y24366D01*
X141694Y24390D01*
X141596Y24413D01*
X141493Y24449D01*
X141387Y24488D01*
X141281Y24535D01*
X141175Y24590D01*
X141073Y24657D01*
X140975Y24732D01*
X140884Y24818D01*
X140880Y24826D01*
X140865Y24842D01*
X140841Y24869D01*
X140810Y24909D01*
X140774Y24960D01*
X140735Y25023D01*
X140696Y25093D01*
X140653Y25176D01*
X140605Y25270D01*
X140566Y25372D01*
X140527Y25486D01*
X140491Y25612D01*
X140460Y25746D01*
X140436Y25887D01*
X140421Y26040D01*
X140417Y26202D01*
Y26206D01*
Y26213D01*
Y26225D01*
Y26241D01*
Y26264D01*
X140421Y26292D01*
Y26319D01*
X140425Y26355D01*
X140432Y26430D01*
X140440Y26520D01*
X140456Y26618D01*
X140476Y26728D01*
X140499Y26838D01*
X140531Y26956D01*
X140570Y27074D01*
X140617Y27196D01*
X140668Y27314D01*
X140731Y27424D01*
X140806Y27534D01*
X140888Y27632D01*
X140892Y27636D01*
X140912Y27656D01*
X140935Y27679D01*
X140975Y27711D01*
X141022Y27750D01*
X141077Y27793D01*
X141144Y27840D01*
X141222Y27887D01*
X141305Y27935D01*
X141399Y27982D01*
X141497Y28025D01*
X141607Y28064D01*
X141725Y28096D01*
X141847Y28119D01*
X141981Y28139D01*
X142118Y28143D01*
X142150D01*
X142189Y28139D01*
D02*
G37*
G36*
X117790Y118044D02*
X115580D01*
Y118568D01*
X117790D01*
Y118044D01*
D02*
G37*
G36*
X110010D02*
X107800D01*
Y118568D01*
X110010D01*
Y118044D01*
D02*
G37*
G36*
X85567Y118044D02*
X83358D01*
Y118568D01*
X85567D01*
Y118044D01*
D02*
G37*
G36*
X102119Y116000D02*
X101282D01*
X98295Y120623D01*
X98290Y120628D01*
X98279Y120650D01*
X98257Y120689D01*
X98229Y120733D01*
X98202Y120788D01*
X98168Y120849D01*
X98141Y120915D01*
X98108Y120987D01*
X98086D01*
Y120975D01*
X98091Y120965D01*
Y120948D01*
Y120926D01*
X98097Y120893D01*
Y120860D01*
X98102Y120816D01*
X98108Y120766D01*
Y120711D01*
X98113Y120645D01*
Y120573D01*
Y120491D01*
X98119Y120397D01*
Y120298D01*
Y120188D01*
Y116000D01*
X97441D01*
Y121802D01*
X98323D01*
X101226Y117245D01*
Y117240D01*
X101232Y117234D01*
X101254Y117201D01*
X101287Y117152D01*
X101326Y117091D01*
X101364Y117030D01*
X101403Y116964D01*
X101436Y116904D01*
X101463Y116860D01*
X101474D01*
Y116865D01*
Y116871D01*
X101469Y116887D01*
Y116909D01*
X101463Y116937D01*
Y116970D01*
X101458Y117014D01*
Y117058D01*
X101452Y117113D01*
X101447Y117179D01*
Y117245D01*
X101441Y117322D01*
Y117411D01*
X101436Y117504D01*
Y117603D01*
Y117714D01*
Y121802D01*
X102119D01*
Y116000D01*
D02*
G37*
G36*
X121239Y116000D02*
X120578D01*
Y121009D01*
X120572Y121003D01*
X120561Y120998D01*
X120545Y120981D01*
X120522Y120959D01*
X120490Y120931D01*
X120451Y120904D01*
X120407Y120871D01*
X120352Y120832D01*
X120346Y120827D01*
X120324Y120816D01*
X120297Y120794D01*
X120253Y120772D01*
X120203Y120739D01*
X120148Y120705D01*
X120082Y120673D01*
X120016Y120634D01*
X120010Y120628D01*
X119983Y120617D01*
X119949Y120601D01*
X119900Y120579D01*
X119839Y120551D01*
X119779Y120518D01*
X119707Y120485D01*
X119630Y120452D01*
X119619Y120447D01*
X119597Y120441D01*
X119553Y120424D01*
X119503Y120408D01*
X119443Y120386D01*
X119377Y120364D01*
X119233Y120325D01*
Y120992D01*
X119244Y120998D01*
X119272Y121003D01*
X119316Y121020D01*
X119377Y121036D01*
X119443Y121058D01*
X119520Y121086D01*
X119608Y121119D01*
X119696Y121157D01*
X119702D01*
X119707Y121163D01*
X119740Y121174D01*
X119784Y121196D01*
X119845Y121223D01*
X119922Y121262D01*
X119999Y121301D01*
X120175Y121389D01*
X120181D01*
X120186Y121394D01*
X120214Y121411D01*
X120264Y121438D01*
X120319Y121471D01*
X120390Y121510D01*
X120462Y121554D01*
X120622Y121653D01*
X120633Y121659D01*
X120660Y121675D01*
X120699Y121708D01*
X120748Y121741D01*
X120809Y121785D01*
X120870Y121830D01*
X120930Y121879D01*
X120991Y121929D01*
X121239D01*
Y116000D01*
D02*
G37*
G36*
X113459D02*
X112797D01*
Y121009D01*
X112792Y121003D01*
X112781Y120998D01*
X112765Y120981D01*
X112742Y120959D01*
X112709Y120931D01*
X112671Y120904D01*
X112627Y120871D01*
X112572Y120832D01*
X112566Y120827D01*
X112544Y120816D01*
X112516Y120794D01*
X112472Y120772D01*
X112423Y120739D01*
X112368Y120705D01*
X112302Y120673D01*
X112235Y120634D01*
X112230Y120628D01*
X112202Y120617D01*
X112169Y120601D01*
X112120Y120579D01*
X112059Y120551D01*
X111999Y120518D01*
X111927Y120485D01*
X111850Y120452D01*
X111839Y120447D01*
X111817Y120441D01*
X111773Y120424D01*
X111723Y120408D01*
X111662Y120386D01*
X111596Y120364D01*
X111453Y120325D01*
Y120992D01*
X111464Y120998D01*
X111492Y121003D01*
X111536Y121020D01*
X111596Y121036D01*
X111662Y121058D01*
X111740Y121086D01*
X111828Y121119D01*
X111916Y121157D01*
X111921D01*
X111927Y121163D01*
X111960Y121174D01*
X112004Y121196D01*
X112065Y121223D01*
X112142Y121262D01*
X112219Y121301D01*
X112395Y121389D01*
X112401D01*
X112406Y121394D01*
X112434Y121411D01*
X112483Y121438D01*
X112539Y121471D01*
X112610Y121510D01*
X112682Y121554D01*
X112842Y121653D01*
X112853Y121659D01*
X112880Y121675D01*
X112919Y121708D01*
X112968Y121741D01*
X113029Y121785D01*
X113090Y121830D01*
X113150Y121879D01*
X113211Y121929D01*
X113459D01*
Y116000D01*
D02*
G37*
G36*
X107067Y121185D02*
X105392D01*
Y116000D01*
X104714D01*
Y121185D01*
X103045D01*
Y121802D01*
X107067D01*
Y121185D01*
D02*
G37*
G36*
X95915Y116000D02*
X95237D01*
Y121802D01*
X95915D01*
Y116000D01*
D02*
G37*
G36*
X94323Y121185D02*
X92647D01*
Y116000D01*
X91970D01*
Y121185D01*
X90300D01*
Y121802D01*
X94323D01*
Y121185D01*
D02*
G37*
G36*
X89793D02*
X87529D01*
Y119179D01*
X89622D01*
Y118568D01*
X87529D01*
Y116000D01*
X86851D01*
Y121802D01*
X89793D01*
Y121185D01*
D02*
G37*
G36*
X80581Y121797D02*
X80647D01*
X80724Y121785D01*
X80812Y121780D01*
X80917Y121764D01*
X81021Y121747D01*
X81137Y121719D01*
X81253Y121692D01*
X81374Y121653D01*
X81495Y121609D01*
X81611Y121560D01*
X81727Y121493D01*
X81837Y121427D01*
X81936Y121345D01*
X81941Y121339D01*
X81958Y121323D01*
X81986Y121295D01*
X82019Y121262D01*
X82057Y121212D01*
X82096Y121157D01*
X82145Y121091D01*
X82195Y121014D01*
X82239Y120931D01*
X82289Y120832D01*
X82327Y120728D01*
X82371Y120617D01*
X82399Y120491D01*
X82426Y120358D01*
X82443Y120215D01*
X82448Y120066D01*
Y120055D01*
Y120028D01*
X82443Y119989D01*
X82437Y119929D01*
X82432Y119857D01*
X82421Y119780D01*
X82399Y119686D01*
X82377Y119587D01*
X82349Y119482D01*
X82311Y119372D01*
X82261Y119262D01*
X82206Y119146D01*
X82140Y119036D01*
X82063Y118926D01*
X81975Y118816D01*
X81875Y118716D01*
X81870Y118711D01*
X81848Y118694D01*
X81815Y118667D01*
X81771Y118634D01*
X81716Y118595D01*
X81644Y118551D01*
X81561Y118501D01*
X81473Y118457D01*
X81368Y118408D01*
X81253Y118358D01*
X81126Y118314D01*
X80988Y118276D01*
X80845Y118243D01*
X80685Y118215D01*
X80520Y118199D01*
X80344Y118193D01*
X79578D01*
Y116000D01*
X78900D01*
Y121802D01*
X80531D01*
X80581Y121797D01*
D02*
G37*
%LPC*%
G36*
X174015Y241643D02*
X173417D01*
Y240371D01*
X173925D01*
X173952Y240375D01*
X173981Y240379D01*
X174019Y240382D01*
X174060Y240386D01*
X174105Y240394D01*
X174202Y240416D01*
X174303Y240450D01*
X174352Y240468D01*
X174400Y240495D01*
X174445Y240521D01*
X174486Y240554D01*
X174490Y240558D01*
X174498Y240562D01*
X174505Y240573D01*
X174520Y240588D01*
X174535Y240607D01*
X174554Y240629D01*
X174576Y240655D01*
X174595Y240689D01*
X174613Y240723D01*
X174636Y240760D01*
X174655Y240801D01*
X174670Y240850D01*
X174685Y240898D01*
X174696Y240951D01*
X174700Y241007D01*
X174703Y241067D01*
Y241074D01*
Y241093D01*
X174700Y241119D01*
X174692Y241157D01*
X174681Y241201D01*
X174662Y241250D01*
X174640Y241302D01*
X174610Y241355D01*
X174569Y241407D01*
X174520Y241459D01*
X174457Y241508D01*
X174385Y241553D01*
X174299Y241590D01*
X174251Y241605D01*
X174198Y241617D01*
X174142Y241628D01*
X174083Y241635D01*
X174015Y241643D01*
D02*
G37*
G36*
X173948Y239956D02*
X173417D01*
Y238539D01*
X174079D01*
X174109Y238542D01*
X174142Y238546D01*
X174183Y238550D01*
X174225Y238554D01*
X174273Y238561D01*
X174374Y238583D01*
X174479Y238621D01*
X174531Y238640D01*
X174584Y238666D01*
X174628Y238696D01*
X174673Y238729D01*
X174677Y238733D01*
X174685Y238737D01*
X174696Y238748D01*
X174707Y238767D01*
X174726Y238785D01*
X174744Y238808D01*
X174763Y238838D01*
X174786Y238868D01*
X174808Y238905D01*
X174827Y238946D01*
X174845Y238987D01*
X174864Y239036D01*
X174875Y239088D01*
X174887Y239141D01*
X174894Y239201D01*
X174898Y239260D01*
Y239264D01*
Y239268D01*
Y239290D01*
X174890Y239324D01*
X174883Y239369D01*
X174868Y239421D01*
X174849Y239481D01*
X174819Y239545D01*
X174778Y239608D01*
X174730Y239672D01*
X174666Y239735D01*
X174628Y239765D01*
X174587Y239795D01*
X174546Y239821D01*
X174498Y239848D01*
X174445Y239870D01*
X174389Y239893D01*
X174326Y239911D01*
X174262Y239926D01*
X174191Y239937D01*
X174116Y239949D01*
X174034Y239952D01*
X173948Y239956D01*
D02*
G37*
G36*
X107226Y27549D02*
X107183D01*
X107155Y27546D01*
X107116Y27542D01*
X107077Y27534D01*
X107029Y27526D01*
X106974Y27514D01*
X106919Y27498D01*
X106860Y27479D01*
X106801Y27455D01*
X106743Y27428D01*
X106680Y27396D01*
X106621Y27357D01*
X106562Y27314D01*
X106507Y27263D01*
X106503Y27259D01*
X106495Y27251D01*
X106479Y27231D01*
X106460Y27211D01*
X106440Y27180D01*
X106412Y27149D01*
X106385Y27105D01*
X106357Y27058D01*
X106330Y27007D01*
X106302Y26948D01*
X106275Y26885D01*
X106251Y26818D01*
X106228Y26744D01*
X106212Y26665D01*
X106196Y26583D01*
X106188Y26496D01*
X108228D01*
Y26500D01*
X108224Y26516D01*
Y26539D01*
X108220Y26571D01*
X108212Y26610D01*
X108204Y26654D01*
X108193Y26705D01*
X108181Y26756D01*
X108153Y26866D01*
X108110Y26984D01*
X108059Y27094D01*
X108028Y27141D01*
X107992Y27188D01*
X107988Y27192D01*
X107981Y27204D01*
X107961Y27223D01*
X107937Y27243D01*
X107910Y27270D01*
X107874Y27302D01*
X107831Y27333D01*
X107788Y27369D01*
X107733Y27404D01*
X107674Y27436D01*
X107611Y27467D01*
X107544Y27494D01*
X107474Y27518D01*
X107395Y27534D01*
X107312Y27546D01*
X107226Y27549D01*
D02*
G37*
G36*
X92371D02*
X92327D01*
X92300Y27546D01*
X92260Y27542D01*
X92221Y27534D01*
X92174Y27526D01*
X92119Y27514D01*
X92064Y27498D01*
X92005Y27479D01*
X91946Y27455D01*
X91887Y27428D01*
X91824Y27396D01*
X91765Y27357D01*
X91706Y27314D01*
X91651Y27263D01*
X91647Y27259D01*
X91640Y27251D01*
X91624Y27231D01*
X91604Y27211D01*
X91585Y27180D01*
X91557Y27149D01*
X91530Y27105D01*
X91502Y27058D01*
X91474Y27007D01*
X91447Y26948D01*
X91420Y26885D01*
X91396Y26818D01*
X91372Y26744D01*
X91357Y26665D01*
X91341Y26583D01*
X91333Y26496D01*
X93373D01*
Y26500D01*
X93369Y26516D01*
Y26539D01*
X93365Y26571D01*
X93357Y26610D01*
X93349Y26654D01*
X93337Y26705D01*
X93326Y26756D01*
X93298Y26866D01*
X93255Y26984D01*
X93204Y27094D01*
X93172Y27141D01*
X93137Y27188D01*
X93133Y27192D01*
X93125Y27204D01*
X93106Y27223D01*
X93082Y27243D01*
X93054Y27270D01*
X93019Y27302D01*
X92976Y27333D01*
X92933Y27369D01*
X92878Y27404D01*
X92819Y27436D01*
X92756Y27467D01*
X92689Y27494D01*
X92618Y27518D01*
X92540Y27534D01*
X92457Y27546D01*
X92371Y27549D01*
D02*
G37*
G36*
X43016Y32873D02*
X41852D01*
Y29021D01*
X43008D01*
X43051Y29025D01*
X43098D01*
X43153Y29029D01*
X43212Y29033D01*
X43334Y29045D01*
X43467Y29060D01*
X43593Y29080D01*
X43652Y29096D01*
X43707Y29111D01*
X43711D01*
X43719Y29115D01*
X43735Y29123D01*
X43754Y29127D01*
X43778Y29139D01*
X43805Y29151D01*
X43868Y29178D01*
X43943Y29218D01*
X44018Y29261D01*
X44092Y29316D01*
X44159Y29375D01*
X44163Y29379D01*
X44171Y29387D01*
X44183Y29398D01*
X44198Y29418D01*
X44218Y29442D01*
X44242Y29469D01*
X44265Y29504D01*
X44293Y29544D01*
X44324Y29587D01*
X44352Y29634D01*
X44383Y29685D01*
X44415Y29744D01*
X44446Y29803D01*
X44473Y29870D01*
X44501Y29937D01*
X44528Y30011D01*
Y30015D01*
X44532Y30031D01*
X44540Y30051D01*
X44548Y30082D01*
X44560Y30121D01*
X44572Y30169D01*
X44584Y30224D01*
X44595Y30283D01*
X44607Y30349D01*
X44619Y30424D01*
X44631Y30503D01*
X44642Y30589D01*
X44650Y30680D01*
X44658Y30778D01*
X44662Y30876D01*
Y30982D01*
Y30986D01*
Y30990D01*
Y31002D01*
Y31018D01*
Y31057D01*
X44658Y31112D01*
X44654Y31179D01*
X44650Y31253D01*
X44642Y31340D01*
X44631Y31430D01*
X44615Y31525D01*
X44599Y31627D01*
X44580Y31729D01*
X44552Y31827D01*
X44525Y31925D01*
X44489Y32024D01*
X44450Y32114D01*
X44403Y32197D01*
X44399Y32201D01*
X44391Y32216D01*
X44375Y32236D01*
X44356Y32267D01*
X44332Y32299D01*
X44301Y32338D01*
X44265Y32381D01*
X44226Y32428D01*
X44183Y32476D01*
X44135Y32523D01*
X44080Y32570D01*
X44025Y32617D01*
X43967Y32660D01*
X43904Y32700D01*
X43837Y32735D01*
X43770Y32766D01*
X43766D01*
X43758Y32770D01*
X43742Y32778D01*
X43719Y32782D01*
X43691Y32790D01*
X43656Y32802D01*
X43613Y32810D01*
X43562Y32821D01*
X43507Y32829D01*
X43444Y32837D01*
X43373Y32849D01*
X43295Y32857D01*
X43208Y32865D01*
X43118Y32869D01*
X43016Y32873D01*
D02*
G37*
G36*
X84902Y78362D02*
X83739D01*
Y74511D01*
X84894D01*
X84938Y74515D01*
X84985D01*
X85040Y74519D01*
X85099Y74523D01*
X85221Y74534D01*
X85354Y74550D01*
X85480Y74570D01*
X85539Y74585D01*
X85594Y74601D01*
X85598D01*
X85606Y74605D01*
X85621Y74613D01*
X85641Y74617D01*
X85665Y74629D01*
X85692Y74640D01*
X85755Y74668D01*
X85830Y74707D01*
X85904Y74751D01*
X85979Y74805D01*
X86046Y74864D01*
X86050Y74868D01*
X86058Y74876D01*
X86070Y74888D01*
X86085Y74908D01*
X86105Y74931D01*
X86128Y74959D01*
X86152Y74994D01*
X86180Y75033D01*
X86211Y75077D01*
X86238Y75124D01*
X86270Y75175D01*
X86301Y75234D01*
X86333Y75293D01*
X86360Y75360D01*
X86388Y75426D01*
X86415Y75501D01*
Y75505D01*
X86419Y75521D01*
X86427Y75540D01*
X86435Y75572D01*
X86447Y75611D01*
X86458Y75658D01*
X86470Y75713D01*
X86482Y75772D01*
X86494Y75839D01*
X86506Y75914D01*
X86518Y75992D01*
X86529Y76079D01*
X86537Y76169D01*
X86545Y76267D01*
X86549Y76366D01*
Y76472D01*
Y76476D01*
Y76480D01*
Y76491D01*
Y76507D01*
Y76547D01*
X86545Y76601D01*
X86541Y76668D01*
X86537Y76743D01*
X86529Y76829D01*
X86518Y76920D01*
X86502Y77014D01*
X86486Y77116D01*
X86466Y77219D01*
X86439Y77317D01*
X86411Y77415D01*
X86376Y77513D01*
X86337Y77604D01*
X86290Y77686D01*
X86286Y77690D01*
X86278Y77706D01*
X86262Y77725D01*
X86242Y77757D01*
X86219Y77788D01*
X86187Y77828D01*
X86152Y77871D01*
X86113Y77918D01*
X86070Y77965D01*
X86022Y78012D01*
X85967Y78060D01*
X85912Y78107D01*
X85853Y78150D01*
X85790Y78189D01*
X85724Y78225D01*
X85657Y78256D01*
X85653D01*
X85645Y78260D01*
X85629Y78268D01*
X85606Y78272D01*
X85578Y78280D01*
X85543Y78291D01*
X85500Y78299D01*
X85448Y78311D01*
X85394Y78319D01*
X85331Y78327D01*
X85260Y78339D01*
X85181Y78346D01*
X85095Y78354D01*
X85004Y78358D01*
X84902Y78362D01*
D02*
G37*
G36*
X93540Y77144D02*
X93525D01*
X93501Y77140D01*
X93474D01*
X93438Y77132D01*
X93399Y77124D01*
X93352Y77112D01*
X93305Y77101D01*
X93250Y77081D01*
X93195Y77057D01*
X93136Y77030D01*
X93077Y76995D01*
X93018Y76955D01*
X92959Y76908D01*
X92900Y76853D01*
X92845Y76790D01*
X92841Y76786D01*
X92833Y76774D01*
X92817Y76755D01*
X92798Y76723D01*
X92778Y76688D01*
X92751Y76645D01*
X92727Y76590D01*
X92699Y76531D01*
X92672Y76460D01*
X92644Y76385D01*
X92617Y76303D01*
X92597Y76209D01*
X92577Y76110D01*
X92562Y76004D01*
X92554Y75890D01*
X92550Y75768D01*
Y75761D01*
Y75741D01*
Y75705D01*
X92554Y75662D01*
Y75607D01*
X92558Y75544D01*
X92566Y75477D01*
X92574Y75403D01*
X92593Y75250D01*
X92625Y75089D01*
X92644Y75014D01*
X92668Y74943D01*
X92695Y74876D01*
X92727Y74817D01*
X92731Y74813D01*
X92739Y74798D01*
X92758Y74774D01*
X92782Y74743D01*
X92809Y74707D01*
X92845Y74668D01*
X92888Y74625D01*
X92935Y74581D01*
X92990Y74534D01*
X93049Y74491D01*
X93112Y74452D01*
X93183Y74416D01*
X93257Y74385D01*
X93340Y74361D01*
X93426Y74346D01*
X93517Y74342D01*
X93537D01*
X93556Y74346D01*
X93584D01*
X93619Y74353D01*
X93658Y74361D01*
X93705Y74369D01*
X93753Y74385D01*
X93808Y74405D01*
X93863Y74428D01*
X93922Y74456D01*
X93981Y74491D01*
X94039Y74530D01*
X94099Y74578D01*
X94157Y74629D01*
X94212Y74691D01*
X94216Y74695D01*
X94224Y74707D01*
X94240Y74731D01*
X94260Y74758D01*
X94283Y74794D01*
X94307Y74841D01*
X94334Y74896D01*
X94362Y74955D01*
X94389Y75026D01*
X94417Y75104D01*
X94440Y75191D01*
X94464Y75285D01*
X94484Y75387D01*
X94499Y75497D01*
X94507Y75619D01*
X94511Y75745D01*
Y75749D01*
Y75753D01*
Y75776D01*
Y75812D01*
X94507Y75863D01*
X94503Y75922D01*
X94495Y75988D01*
X94488Y76063D01*
X94476Y76146D01*
X94460Y76228D01*
X94440Y76319D01*
X94421Y76405D01*
X94393Y76491D01*
X94358Y76578D01*
X94323Y76657D01*
X94279Y76735D01*
X94228Y76802D01*
X94224Y76806D01*
X94216Y76818D01*
X94201Y76833D01*
X94177Y76857D01*
X94150Y76881D01*
X94118Y76912D01*
X94079Y76939D01*
X94036Y76975D01*
X93988Y77006D01*
X93937Y77038D01*
X93878Y77065D01*
X93819Y77089D01*
X93753Y77112D01*
X93686Y77128D01*
X93615Y77140D01*
X93540Y77144D01*
D02*
G37*
G36*
X89579D02*
X89536D01*
X89508Y77140D01*
X89469Y77136D01*
X89430Y77128D01*
X89382Y77120D01*
X89327Y77109D01*
X89272Y77093D01*
X89214Y77073D01*
X89154Y77049D01*
X89096Y77022D01*
X89033Y76991D01*
X88974Y76951D01*
X88915Y76908D01*
X88860Y76857D01*
X88856Y76853D01*
X88848Y76845D01*
X88832Y76825D01*
X88813Y76806D01*
X88793Y76774D01*
X88765Y76743D01*
X88738Y76700D01*
X88710Y76653D01*
X88683Y76601D01*
X88655Y76543D01*
X88628Y76480D01*
X88604Y76413D01*
X88581Y76338D01*
X88565Y76260D01*
X88549Y76177D01*
X88541Y76091D01*
X90581D01*
Y76095D01*
X90577Y76110D01*
Y76134D01*
X90573Y76165D01*
X90565Y76205D01*
X90557Y76248D01*
X90546Y76299D01*
X90534Y76350D01*
X90506Y76460D01*
X90463Y76578D01*
X90412Y76688D01*
X90381Y76735D01*
X90345Y76782D01*
X90341Y76786D01*
X90333Y76798D01*
X90314Y76818D01*
X90290Y76837D01*
X90263Y76865D01*
X90227Y76896D01*
X90184Y76928D01*
X90141Y76963D01*
X90086Y76998D01*
X90027Y77030D01*
X89964Y77061D01*
X89897Y77089D01*
X89827Y77112D01*
X89748Y77128D01*
X89665Y77140D01*
X89579Y77144D01*
D02*
G37*
G36*
X101204Y77140D02*
X101184D01*
X101165Y77136D01*
X101133D01*
X101098Y77128D01*
X101058Y77120D01*
X101011Y77112D01*
X100960Y77097D01*
X100909Y77081D01*
X100850Y77057D01*
X100795Y77030D01*
X100736Y76998D01*
X100677Y76959D01*
X100618Y76912D01*
X100559Y76861D01*
X100504Y76802D01*
X100500Y76798D01*
X100493Y76786D01*
X100477Y76767D01*
X100461Y76739D01*
X100437Y76704D01*
X100414Y76661D01*
X100387Y76609D01*
X100363Y76554D01*
X100335Y76487D01*
X100308Y76413D01*
X100284Y76330D01*
X100261Y76240D01*
X100245Y76146D01*
X100229Y76039D01*
X100221Y75929D01*
X100217Y75808D01*
Y75800D01*
Y75776D01*
X100221Y75741D01*
Y75690D01*
X100225Y75631D01*
X100233Y75564D01*
X100241Y75489D01*
X100253Y75407D01*
X100269Y75324D01*
X100288Y75234D01*
X100308Y75147D01*
X100335Y75061D01*
X100371Y74978D01*
X100406Y74900D01*
X100449Y74825D01*
X100500Y74758D01*
X100504Y74754D01*
X100512Y74743D01*
X100528Y74727D01*
X100551Y74707D01*
X100579Y74684D01*
X100614Y74652D01*
X100654Y74625D01*
X100697Y74593D01*
X100748Y74562D01*
X100803Y74534D01*
X100862Y74507D01*
X100925Y74479D01*
X100992Y74460D01*
X101062Y74444D01*
X101137Y74432D01*
X101216Y74428D01*
X101235D01*
X101255Y74432D01*
X101286D01*
X101322Y74440D01*
X101365Y74444D01*
X101412Y74456D01*
X101463Y74467D01*
X101518Y74487D01*
X101577Y74507D01*
X101636Y74534D01*
X101695Y74566D01*
X101754Y74605D01*
X101813Y74648D01*
X101872Y74695D01*
X101927Y74754D01*
X101931Y74758D01*
X101939Y74770D01*
X101954Y74790D01*
X101974Y74817D01*
X101994Y74853D01*
X102017Y74896D01*
X102045Y74947D01*
X102072Y75006D01*
X102100Y75077D01*
X102127Y75151D01*
X102151Y75234D01*
X102171Y75328D01*
X102190Y75430D01*
X102206Y75540D01*
X102214Y75658D01*
X102218Y75784D01*
Y75788D01*
Y75792D01*
Y75815D01*
Y75847D01*
X102214Y75894D01*
X102210Y75949D01*
X102202Y76016D01*
X102194Y76087D01*
X102182Y76161D01*
X102167Y76244D01*
X102143Y76326D01*
X102120Y76413D01*
X102092Y76495D01*
X102057Y76578D01*
X102017Y76657D01*
X101970Y76731D01*
X101919Y76798D01*
X101915Y76802D01*
X101907Y76814D01*
X101888Y76829D01*
X101868Y76853D01*
X101837Y76877D01*
X101805Y76908D01*
X101766Y76936D01*
X101719Y76971D01*
X101668Y77002D01*
X101617Y77034D01*
X101558Y77061D01*
X101495Y77085D01*
X101428Y77109D01*
X101357Y77124D01*
X101283Y77136D01*
X101204Y77140D01*
D02*
G37*
G36*
X137890Y28890D02*
X136298D01*
Y27223D01*
X137803D01*
X137843Y27227D01*
X137886D01*
X137937Y27231D01*
X137988Y27235D01*
X138102Y27247D01*
X138220Y27263D01*
X138338Y27286D01*
X138389Y27302D01*
X138440Y27318D01*
X138444D01*
X138452Y27322D01*
X138463Y27329D01*
X138483Y27337D01*
X138530Y27357D01*
X138585Y27392D01*
X138648Y27432D01*
X138715Y27483D01*
X138778Y27546D01*
X138833Y27616D01*
Y27620D01*
X138837Y27624D01*
X138845Y27636D01*
X138853Y27652D01*
X138876Y27695D01*
X138900Y27750D01*
X138923Y27817D01*
X138947Y27895D01*
X138963Y27978D01*
X138967Y28068D01*
Y28072D01*
Y28084D01*
Y28104D01*
X138963Y28127D01*
X138959Y28159D01*
X138955Y28194D01*
X138947Y28233D01*
X138935Y28277D01*
X138904Y28371D01*
X138884Y28418D01*
X138856Y28469D01*
X138829Y28516D01*
X138794Y28567D01*
X138754Y28615D01*
X138707Y28658D01*
X138703Y28662D01*
X138695Y28670D01*
X138680Y28677D01*
X138660Y28693D01*
X138628Y28713D01*
X138597Y28732D01*
X138554Y28752D01*
X138507Y28776D01*
X138456Y28795D01*
X138393Y28815D01*
X138326Y28835D01*
X138251Y28854D01*
X138173Y28870D01*
X138086Y28878D01*
X137992Y28886D01*
X137890Y28890D01*
D02*
G37*
G36*
X156990Y27636D02*
X156946D01*
X156919Y27632D01*
X156879Y27628D01*
X156840Y27620D01*
X156793Y27612D01*
X156738Y27601D01*
X156683Y27585D01*
X156624Y27565D01*
X156565Y27542D01*
X156506Y27514D01*
X156443Y27483D01*
X156384Y27443D01*
X156325Y27400D01*
X156270Y27349D01*
X156266Y27345D01*
X156258Y27337D01*
X156243Y27318D01*
X156223Y27298D01*
X156203Y27267D01*
X156176Y27235D01*
X156149Y27192D01*
X156121Y27145D01*
X156093Y27094D01*
X156066Y27035D01*
X156038Y26972D01*
X156015Y26905D01*
X155991Y26830D01*
X155975Y26752D01*
X155960Y26669D01*
X155952Y26583D01*
X157992D01*
Y26587D01*
X157988Y26602D01*
Y26626D01*
X157984Y26657D01*
X157976Y26697D01*
X157968Y26740D01*
X157956Y26791D01*
X157945Y26842D01*
X157917Y26952D01*
X157874Y27070D01*
X157823Y27180D01*
X157791Y27227D01*
X157756Y27274D01*
X157752Y27278D01*
X157744Y27290D01*
X157724Y27310D01*
X157701Y27329D01*
X157673Y27357D01*
X157638Y27388D01*
X157595Y27420D01*
X157552Y27455D01*
X157496Y27491D01*
X157438Y27522D01*
X157375Y27553D01*
X157308Y27581D01*
X157237Y27604D01*
X157159Y27620D01*
X157076Y27632D01*
X156990Y27636D01*
D02*
G37*
G36*
X149530Y27632D02*
X149511D01*
X149487Y27628D01*
X149452D01*
X149412Y27620D01*
X149369Y27612D01*
X149318Y27604D01*
X149259Y27589D01*
X149200Y27569D01*
X149137Y27546D01*
X149074Y27518D01*
X149012Y27483D01*
X148945Y27443D01*
X148882Y27396D01*
X148819Y27345D01*
X148760Y27282D01*
X148756Y27278D01*
X148748Y27267D01*
X148732Y27247D01*
X148713Y27215D01*
X148689Y27180D01*
X148666Y27137D01*
X148638Y27082D01*
X148611Y27023D01*
X148579Y26952D01*
X148552Y26874D01*
X148528Y26787D01*
X148505Y26693D01*
X148485Y26591D01*
X148469Y26481D01*
X148461Y26363D01*
X148457Y26233D01*
Y26225D01*
Y26202D01*
X148461Y26166D01*
Y26119D01*
X148465Y26060D01*
X148473Y25993D01*
X148481Y25919D01*
X148497Y25836D01*
X148512Y25754D01*
X148532Y25667D01*
X148556Y25581D01*
X148587Y25490D01*
X148619Y25408D01*
X148662Y25325D01*
X148705Y25251D01*
X148760Y25180D01*
X148764Y25176D01*
X148776Y25164D01*
X148792Y25148D01*
X148815Y25125D01*
X148846Y25101D01*
X148882Y25070D01*
X148925Y25038D01*
X148972Y25007D01*
X149023Y24975D01*
X149082Y24944D01*
X149145Y24913D01*
X149216Y24889D01*
X149287Y24865D01*
X149365Y24850D01*
X149444Y24838D01*
X149530Y24834D01*
X149550D01*
X149574Y24838D01*
X149609D01*
X149648Y24846D01*
X149691Y24854D01*
X149747Y24861D01*
X149802Y24877D01*
X149860Y24897D01*
X149923Y24920D01*
X149986Y24948D01*
X150053Y24983D01*
X150116Y25023D01*
X150179Y25070D01*
X150242Y25121D01*
X150301Y25184D01*
X150304Y25188D01*
X150312Y25199D01*
X150328Y25219D01*
X150348Y25251D01*
X150371Y25286D01*
X150399Y25333D01*
X150426Y25388D01*
X150454Y25447D01*
X150481Y25518D01*
X150509Y25600D01*
X150536Y25687D01*
X150560Y25781D01*
X150580Y25887D01*
X150595Y26001D01*
X150603Y26123D01*
X150607Y26253D01*
Y26256D01*
Y26261D01*
Y26284D01*
Y26319D01*
X150603Y26363D01*
X150599Y26422D01*
X150591Y26485D01*
X150580Y26559D01*
X150568Y26638D01*
X150552Y26720D01*
X150532Y26803D01*
X150505Y26889D01*
X150478Y26976D01*
X150442Y27058D01*
X150399Y27137D01*
X150352Y27211D01*
X150297Y27282D01*
X150293Y27286D01*
X150281Y27298D01*
X150265Y27314D01*
X150242Y27337D01*
X150210Y27365D01*
X150175Y27392D01*
X150136Y27424D01*
X150084Y27459D01*
X150033Y27491D01*
X149974Y27522D01*
X149911Y27549D01*
X149845Y27577D01*
X149770Y27601D01*
X149695Y27616D01*
X149617Y27628D01*
X149530Y27632D01*
D02*
G37*
G36*
X142126Y27636D02*
X142083D01*
X142055Y27632D01*
X142016Y27628D01*
X141977Y27620D01*
X141930Y27612D01*
X141875Y27601D01*
X141820Y27585D01*
X141761Y27565D01*
X141702Y27542D01*
X141643Y27514D01*
X141580Y27483D01*
X141521Y27443D01*
X141462Y27400D01*
X141407Y27349D01*
X141403Y27345D01*
X141395Y27337D01*
X141379Y27318D01*
X141360Y27298D01*
X141340Y27267D01*
X141313Y27235D01*
X141285Y27192D01*
X141258Y27145D01*
X141230Y27094D01*
X141203Y27035D01*
X141175Y26972D01*
X141152Y26905D01*
X141128Y26830D01*
X141112Y26752D01*
X141097Y26669D01*
X141089Y26583D01*
X143128D01*
Y26587D01*
X143124Y26602D01*
Y26626D01*
X143121Y26657D01*
X143113Y26697D01*
X143105Y26740D01*
X143093Y26791D01*
X143081Y26842D01*
X143054Y26952D01*
X143010Y27070D01*
X142959Y27180D01*
X142928Y27227D01*
X142893Y27274D01*
X142889Y27278D01*
X142881Y27290D01*
X142861Y27310D01*
X142838Y27329D01*
X142810Y27357D01*
X142775Y27388D01*
X142731Y27420D01*
X142688Y27455D01*
X142633Y27491D01*
X142574Y27522D01*
X142511Y27553D01*
X142445Y27581D01*
X142374Y27604D01*
X142295Y27620D01*
X142213Y27632D01*
X142126Y27636D01*
D02*
G37*
G36*
X80377Y121185D02*
X79578D01*
Y118805D01*
X80355D01*
X80404Y118810D01*
X80465Y118816D01*
X80531Y118821D01*
X80608Y118832D01*
X80685Y118843D01*
X80862Y118882D01*
X80950Y118909D01*
X81038Y118942D01*
X81126Y118975D01*
X81209Y119019D01*
X81291Y119069D01*
X81363Y119124D01*
X81368Y119130D01*
X81379Y119141D01*
X81396Y119157D01*
X81424Y119185D01*
X81451Y119218D01*
X81479Y119256D01*
X81512Y119306D01*
X81550Y119361D01*
X81583Y119422D01*
X81616Y119488D01*
X81644Y119565D01*
X81677Y119648D01*
X81699Y119730D01*
X81716Y119829D01*
X81727Y119929D01*
X81732Y120033D01*
Y120039D01*
Y120044D01*
Y120061D01*
Y120083D01*
X81721Y120138D01*
X81710Y120215D01*
X81694Y120303D01*
X81660Y120397D01*
X81616Y120502D01*
X81561Y120612D01*
X81490Y120717D01*
X81401Y120821D01*
X81291Y120920D01*
X81231Y120965D01*
X81159Y121003D01*
X81087Y121042D01*
X81005Y121080D01*
X80917Y121108D01*
X80823Y121135D01*
X80724Y121157D01*
X80614Y121174D01*
X80498Y121179D01*
X80377Y121185D01*
D02*
G37*
%LPD*%
D10*
X31496Y19685D02*
G03*
X31496Y19685I-11811J0D01*
G01*
X188976D02*
G03*
X188976Y19685I-11811J0D01*
G01*
X31496Y255906D02*
G03*
X31496Y255906I-11811J0D01*
G01*
X188976D02*
G03*
X188976Y255906I-11811J0D01*
G01*
X150689Y92224D02*
Y93012D01*
X153839Y92224D02*
Y93012D01*
X130118Y92224D02*
Y93012D01*
X133268Y92224D02*
Y93012D01*
X21925Y88306D02*
Y89094D01*
X25075Y88306D02*
Y89094D01*
X185925Y161264D02*
Y162051D01*
X189075Y161264D02*
Y162051D01*
X170323Y144797D02*
Y145584D01*
X167173Y144797D02*
Y145584D01*
X178306Y211275D02*
X179094D01*
X178306Y208125D02*
X179094D01*
X178306Y220875D02*
X179094D01*
X178306Y217725D02*
X179094D01*
X33875Y141606D02*
Y142394D01*
X30725Y141606D02*
Y142394D01*
X17375Y141606D02*
Y142394D01*
X14225Y141606D02*
Y142394D01*
X33875Y161406D02*
Y162194D01*
X30725Y161406D02*
Y162194D01*
X64725Y98606D02*
Y99394D01*
X67875Y98606D02*
Y99394D01*
X33875Y176406D02*
Y177194D01*
X30725Y176406D02*
Y177194D01*
X30807Y191437D02*
Y192224D01*
X33957Y191437D02*
Y192224D01*
X21425Y118606D02*
Y119394D01*
X24575Y118606D02*
Y119394D01*
X51806Y79575D02*
X52594D01*
X51806Y76425D02*
X52594D01*
X16125Y101606D02*
Y102394D01*
X19275Y101606D02*
Y102394D01*
X37801Y84077D02*
X50399D01*
X37801Y118723D02*
X50399D01*
Y84077D02*
Y118723D01*
X37801Y84077D02*
Y118723D01*
X133500Y134500D02*
Y264500D01*
X153500Y134500D02*
Y264500D01*
X133500D02*
X153500D01*
X133500Y134500D02*
X153500D01*
X43382D02*
X63382D01*
X43382Y264500D02*
X63382D01*
Y134500D02*
Y264500D01*
X43382Y134500D02*
Y264500D01*
D11*
X42919Y114786D02*
G03*
X42919Y114786I-1181J0D01*
G01*
D12*
X33864Y119746D02*
G03*
X33864Y119746I-492J0D01*
G01*
X21457Y35827D02*
Y40748D01*
X23917Y38287D01*
X21457Y35827D02*
X23917Y38287D01*
X39665Y36614D02*
Y38287D01*
X34744Y36614D02*
Y38287D01*
D13*
X67818Y41396D02*
Y61496D01*
X118118D01*
X72818Y41396D02*
X75818Y38396D01*
X69818D02*
X72818Y41396D01*
X69818Y38396D02*
X75818D01*
X118118Y41396D02*
Y61496D01*
X67818Y41396D02*
X118118D01*
X127424D02*
Y61496D01*
X177724D01*
X132424Y41396D02*
X135424Y38396D01*
X129424D02*
X132424Y41396D01*
X129424Y38396D02*
X135424D01*
X177724Y41396D02*
Y61496D01*
X127424Y41396D02*
X177724D01*
X166358Y186100D02*
Y196100D01*
Y186100D02*
X186158D01*
X171358Y196100D02*
X174357Y199100D01*
X168358D02*
X171358Y196100D01*
X168358Y199100D02*
X174357D01*
X186158Y186100D02*
Y196100D01*
X166358D02*
X186158D01*
X58169Y42028D02*
Y60870D01*
X49803D02*
X58169D01*
X49803Y42028D02*
X58169D01*
X16831Y60870D02*
X24606D01*
X16831Y42028D02*
X24606D01*
X16831D02*
Y60870D01*
X34744Y36614D02*
X39665D01*
X41059Y132217D02*
X41059Y272295D01*
X41098Y132217D02*
X155823D01*
X155823D02*
X155823Y272295D01*
X41059Y272295D02*
X155823Y272295D01*
X114189Y272335D02*
X114287Y239854D01*
X82693D02*
X114287D01*
X82693D02*
Y272236D01*
X90862Y265734D02*
Y260736D01*
X91862Y259736D01*
X93861D01*
X94861Y260736D01*
Y265734D01*
X100859Y264735D02*
X99859Y265734D01*
X97860D01*
X96860Y264735D01*
Y263735D01*
X97860Y262735D01*
X99859D01*
X100859Y261736D01*
Y260736D01*
X99859Y259736D01*
X97860D01*
X96860Y260736D01*
X102858Y265734D02*
Y259736D01*
X105857D01*
X106857Y260736D01*
Y261736D01*
X105857Y262735D01*
X102858D01*
X105857D01*
X106857Y263735D01*
Y264735D01*
X105857Y265734D01*
X102858D01*
D14*
X178148Y161264D02*
X179624Y163232D01*
X176672D02*
X178148Y161264D01*
X176672Y163232D02*
X179624D01*
X176672Y161264D02*
X179624D01*
X168748D02*
X170224Y163232D01*
X167272D02*
X168748Y161264D01*
X167272Y163232D02*
X170224D01*
X167272Y161264D02*
X170224D01*
D15*
X150493Y62598D02*
X153839D01*
X150493D02*
Y64032D01*
X150652Y64510D01*
X150812Y64670D01*
X151130Y64829D01*
X151449D01*
X151767Y64670D01*
X151927Y64510D01*
X152086Y64032D01*
Y62598D01*
Y63714D02*
X153839Y64829D01*
X150493Y67649D02*
Y65578D01*
X153839D01*
Y67649D01*
X152086Y65578D02*
Y66852D01*
X151289Y70596D02*
X150971Y70437D01*
X150652Y70118D01*
X150493Y69800D01*
Y69162D01*
X150652Y68844D01*
X150971Y68525D01*
X151289Y68366D01*
X151767Y68207D01*
X152564D01*
X153042Y68366D01*
X153361Y68525D01*
X153679Y68844D01*
X153839Y69162D01*
Y69800D01*
X153679Y70118D01*
X153361Y70437D01*
X153042Y70596D01*
X150493Y72492D02*
X150652Y72174D01*
X150971Y71855D01*
X151289Y71696D01*
X151767Y71536D01*
X152564D01*
X153042Y71696D01*
X153361Y71855D01*
X153679Y72174D01*
X153839Y72492D01*
Y73129D01*
X153679Y73448D01*
X153361Y73767D01*
X153042Y73926D01*
X152564Y74085D01*
X151767D01*
X151289Y73926D01*
X150971Y73767D01*
X150652Y73448D01*
X150493Y73129D01*
Y72492D01*
Y74866D02*
X153839Y76141D01*
X150493Y77415D02*
X153839Y76141D01*
X150493Y79917D02*
Y77845D01*
X153839D01*
Y79917D01*
X152086Y77845D02*
Y79120D01*
X150493Y80474D02*
X153839D01*
X150493D02*
Y81908D01*
X150652Y82386D01*
X150812Y82545D01*
X151130Y82705D01*
X151449D01*
X151767Y82545D01*
X151927Y82386D01*
X152086Y81908D01*
Y80474D01*
Y81590D02*
X153839Y82705D01*
X150493Y83454D02*
X152086Y84728D01*
X153839D01*
X150493Y86003D02*
X152086Y84728D01*
X140749Y62598D02*
X144095D01*
X140749D02*
Y64032D01*
X140908Y64510D01*
X141067Y64670D01*
X141386Y64829D01*
X141705D01*
X142023Y64670D01*
X142183Y64510D01*
X142342Y64032D01*
Y62598D01*
Y63714D02*
X144095Y64829D01*
X140749Y67649D02*
Y65578D01*
X144095D01*
Y67649D01*
X142342Y65578D02*
Y66852D01*
X141227Y70437D02*
X140908Y70118D01*
X140749Y69640D01*
Y69003D01*
X140908Y68525D01*
X141227Y68207D01*
X141545D01*
X141864Y68366D01*
X142023Y68525D01*
X142183Y68844D01*
X142501Y69800D01*
X142661Y70118D01*
X142820Y70278D01*
X143139Y70437D01*
X143616D01*
X143935Y70118D01*
X144095Y69640D01*
Y69003D01*
X143935Y68525D01*
X143616Y68207D01*
X140749Y73257D02*
Y71186D01*
X144095D01*
Y73257D01*
X142342Y71186D02*
Y72460D01*
X140749Y74930D02*
X144095D01*
X140749Y73815D02*
Y76045D01*
X131211Y64988D02*
X130892Y64829D01*
X130573Y64510D01*
X130414Y64192D01*
Y63554D01*
X130573Y63236D01*
X130892Y62917D01*
X131211Y62758D01*
X131689Y62598D01*
X132485D01*
X132963Y62758D01*
X133282Y62917D01*
X133600Y63236D01*
X133760Y63554D01*
Y64192D01*
X133600Y64510D01*
X133282Y64829D01*
X132963Y64988D01*
X132485D01*
Y64192D02*
Y64988D01*
X130414Y65753D02*
X133760D01*
X130414D02*
X133760Y67984D01*
X130414D02*
X133760D01*
X130414Y68907D02*
X133760D01*
X130414D02*
Y70023D01*
X130573Y70501D01*
X130892Y70819D01*
X131211Y70979D01*
X131689Y71138D01*
X132485D01*
X132963Y70979D01*
X133282Y70819D01*
X133600Y70501D01*
X133760Y70023D01*
Y68907D01*
X171064Y32535D02*
X174409D01*
X171064D02*
Y33969D01*
X171223Y34447D01*
X171382Y34607D01*
X171701Y34766D01*
X172020D01*
X172338Y34607D01*
X172498Y34447D01*
X172657Y33969D01*
Y32535D01*
Y33651D02*
X174409Y34766D01*
X171064Y36630D02*
X174409D01*
X171064Y35515D02*
Y37745D01*
X171542Y40374D02*
X171223Y40056D01*
X171064Y39577D01*
Y38940D01*
X171223Y38462D01*
X171542Y38144D01*
X171860D01*
X172179Y38303D01*
X172338Y38462D01*
X172498Y38781D01*
X172816Y39737D01*
X172976Y40056D01*
X173135Y40215D01*
X173453Y40374D01*
X173932D01*
X174250Y40056D01*
X174409Y39577D01*
Y38940D01*
X174250Y38462D01*
X173932Y38144D01*
X161230Y34575D02*
X160912Y34416D01*
X160593Y34097D01*
X160434Y33778D01*
Y33141D01*
X160593Y32822D01*
X160912Y32504D01*
X161230Y32344D01*
X161708Y32185D01*
X162505D01*
X162983Y32344D01*
X163302Y32504D01*
X163620Y32822D01*
X163779Y33141D01*
Y33778D01*
X163620Y34097D01*
X163302Y34416D01*
X162983Y34575D01*
X160434Y36630D02*
X163779D01*
X160434Y35515D02*
Y37745D01*
X160912Y40374D02*
X160593Y40056D01*
X160434Y39577D01*
Y38940D01*
X160593Y38462D01*
X160912Y38144D01*
X161230D01*
X161549Y38303D01*
X161708Y38462D01*
X161868Y38781D01*
X162186Y39737D01*
X162346Y40056D01*
X162505Y40215D01*
X162824Y40374D01*
X163302D01*
X163620Y40056D01*
X163779Y39577D01*
Y38940D01*
X163620Y38462D01*
X163302Y38144D01*
X150493Y33651D02*
X153839D01*
X150493Y32535D02*
Y34766D01*
Y35164D02*
X153839Y37395D01*
X150493D02*
X153839Y35164D01*
X150493Y38144D02*
X153839D01*
X150493D02*
Y39259D01*
X150652Y39737D01*
X150971Y40056D01*
X151289Y40215D01*
X151767Y40374D01*
X152564D01*
X153042Y40215D01*
X153361Y40056D01*
X153679Y39737D01*
X153839Y39259D01*
Y38144D01*
X140847Y32185D02*
X144193D01*
X140847D02*
Y33619D01*
X141007Y34097D01*
X141166Y34256D01*
X141484Y34416D01*
X141803D01*
X142122Y34256D01*
X142281Y34097D01*
X142440Y33619D01*
Y32185D01*
Y33300D02*
X144193Y34416D01*
X140847Y35164D02*
X144193Y37395D01*
X140847D02*
X144193Y35164D01*
X140847Y38144D02*
X144193D01*
X140847D02*
Y39259D01*
X141007Y39737D01*
X141325Y40056D01*
X141644Y40215D01*
X142122Y40374D01*
X142918D01*
X143396Y40215D01*
X143715Y40056D01*
X144034Y39737D01*
X144193Y39259D01*
Y38144D01*
X111516Y32535D02*
X114862D01*
X111516D02*
Y33969D01*
X111676Y34447D01*
X111835Y34607D01*
X112154Y34766D01*
X112472D01*
X112791Y34607D01*
X112950Y34447D01*
X113110Y33969D01*
Y32535D01*
Y33651D02*
X114862Y34766D01*
X111516Y36630D02*
X114862D01*
X111516Y35515D02*
Y37745D01*
X111994Y40374D02*
X111676Y40056D01*
X111516Y39577D01*
Y38940D01*
X111676Y38462D01*
X111994Y38144D01*
X112313D01*
X112632Y38303D01*
X112791Y38462D01*
X112950Y38781D01*
X113269Y39737D01*
X113428Y40056D01*
X113588Y40215D01*
X113906Y40374D01*
X114384D01*
X114703Y40056D01*
X114862Y39577D01*
Y38940D01*
X114703Y38462D01*
X114384Y38144D01*
X101486Y34575D02*
X101168Y34416D01*
X100849Y34097D01*
X100690Y33778D01*
Y33141D01*
X100849Y32822D01*
X101168Y32504D01*
X101486Y32344D01*
X101964Y32185D01*
X102761D01*
X103239Y32344D01*
X103558Y32504D01*
X103876Y32822D01*
X104035Y33141D01*
Y33778D01*
X103876Y34097D01*
X103558Y34416D01*
X103239Y34575D01*
X100690Y36630D02*
X104035D01*
X100690Y35515D02*
Y37745D01*
X101168Y40374D02*
X100849Y40056D01*
X100690Y39577D01*
Y38940D01*
X100849Y38462D01*
X101168Y38144D01*
X101486D01*
X101805Y38303D01*
X101964Y38462D01*
X102124Y38781D01*
X102442Y39737D01*
X102602Y40056D01*
X102761Y40215D01*
X103079Y40374D01*
X103558D01*
X103876Y40056D01*
X104035Y39577D01*
Y38940D01*
X103876Y38462D01*
X103558Y38144D01*
X91438Y33651D02*
X94784D01*
X91438Y32535D02*
Y34766D01*
Y35164D02*
X94784Y37395D01*
X91438D02*
X94784Y35164D01*
X91438Y38144D02*
X94784D01*
X91438D02*
Y39259D01*
X91597Y39737D01*
X91916Y40056D01*
X92234Y40215D01*
X92712Y40374D01*
X93509D01*
X93987Y40215D01*
X94305Y40056D01*
X94624Y39737D01*
X94784Y39259D01*
Y38144D01*
X80906Y32185D02*
X84252D01*
X80906D02*
Y33619D01*
X81065Y34097D01*
X81225Y34256D01*
X81543Y34416D01*
X81862D01*
X82181Y34256D01*
X82340Y34097D01*
X82499Y33619D01*
Y32185D01*
Y33300D02*
X84252Y34416D01*
X80906Y35164D02*
X84252Y37395D01*
X80906D02*
X84252Y35164D01*
X80906Y38144D02*
X84252D01*
X80906D02*
Y39259D01*
X81065Y39737D01*
X81384Y40056D01*
X81703Y40215D01*
X82181Y40374D01*
X82977D01*
X83455Y40215D01*
X83774Y40056D01*
X84093Y39737D01*
X84252Y39259D01*
Y38144D01*
X111024Y62598D02*
X114370D01*
X111024D02*
Y64032D01*
X111184Y64510D01*
X111343Y64670D01*
X111662Y64829D01*
X111980D01*
X112299Y64670D01*
X112458Y64510D01*
X112618Y64032D01*
Y62598D01*
Y63714D02*
X114370Y64829D01*
X111024Y66693D02*
X114370D01*
X111024Y65578D02*
Y67808D01*
X111502Y70437D02*
X111184Y70118D01*
X111024Y69640D01*
Y69003D01*
X111184Y68525D01*
X111502Y68207D01*
X111821D01*
X112140Y68366D01*
X112299Y68525D01*
X112458Y68844D01*
X112777Y69800D01*
X112936Y70118D01*
X113095Y70278D01*
X113414Y70437D01*
X113892D01*
X114211Y70118D01*
X114370Y69640D01*
Y69003D01*
X114211Y68525D01*
X113892Y68207D01*
X71663Y64988D02*
X71345Y64829D01*
X71026Y64510D01*
X70867Y64192D01*
Y63554D01*
X71026Y63236D01*
X71345Y62917D01*
X71663Y62758D01*
X72141Y62598D01*
X72938D01*
X73416Y62758D01*
X73735Y62917D01*
X74053Y63236D01*
X74213Y63554D01*
Y64192D01*
X74053Y64510D01*
X73735Y64829D01*
X73416Y64988D01*
X72938D01*
Y64192D02*
Y64988D01*
X70867Y65753D02*
X74213D01*
X70867D02*
X74213Y67984D01*
X70867D02*
X74213D01*
X70867Y68907D02*
X74213D01*
X70867D02*
Y70023D01*
X71026Y70501D01*
X71345Y70819D01*
X71663Y70979D01*
X72141Y71138D01*
X72938D01*
X73416Y70979D01*
X73735Y70819D01*
X74053Y70501D01*
X74213Y70023D01*
Y68907D01*
X101683Y64988D02*
X101365Y64829D01*
X101046Y64510D01*
X100886Y64192D01*
Y63554D01*
X101046Y63236D01*
X101365Y62917D01*
X101683Y62758D01*
X102161Y62598D01*
X102958D01*
X103436Y62758D01*
X103754Y62917D01*
X104073Y63236D01*
X104232Y63554D01*
Y64192D01*
X104073Y64510D01*
X103754Y64829D01*
X103436Y64988D01*
X100886Y67044D02*
X104232D01*
X100886Y65928D02*
Y68159D01*
X101365Y70788D02*
X101046Y70469D01*
X100886Y69991D01*
Y69354D01*
X101046Y68876D01*
X101365Y68557D01*
X101683D01*
X102002Y68716D01*
X102161Y68876D01*
X102320Y69194D01*
X102639Y70150D01*
X102798Y70469D01*
X102958Y70628D01*
X103276Y70788D01*
X103754D01*
X104073Y70469D01*
X104232Y69991D01*
Y69354D01*
X104073Y68876D01*
X103754Y68557D01*
X91339Y63714D02*
X94685D01*
X91339Y62598D02*
Y64829D01*
Y65227D02*
X94685Y67458D01*
X91339D02*
X94685Y65227D01*
X91339Y68207D02*
X94685D01*
X91339D02*
Y69322D01*
X91499Y69800D01*
X91817Y70118D01*
X92136Y70278D01*
X92614Y70437D01*
X93410D01*
X93888Y70278D01*
X94207Y70118D01*
X94526Y69800D01*
X94685Y69322D01*
Y68207D01*
X81005Y62598D02*
X84350D01*
X81005D02*
Y64032D01*
X81164Y64510D01*
X81323Y64670D01*
X81642Y64829D01*
X81961D01*
X82279Y64670D01*
X82438Y64510D01*
X82598Y64032D01*
Y62598D01*
Y63714D02*
X84350Y64829D01*
X81005Y65578D02*
X84350Y67808D01*
X81005D02*
X84350Y65578D01*
X81005Y68557D02*
X84350D01*
X81005D02*
Y69672D01*
X81164Y70150D01*
X81483Y70469D01*
X81801Y70628D01*
X82279Y70788D01*
X83076D01*
X83554Y70628D01*
X83872Y70469D01*
X84191Y70150D01*
X84350Y69672D01*
Y68557D01*
X13800Y87400D02*
Y90745D01*
X15473D01*
X16030Y90188D01*
Y89073D01*
X15473Y88515D01*
X13800D01*
X14915D02*
X16030Y87400D01*
X19376Y90745D02*
X18260Y90188D01*
X17145Y89073D01*
Y87958D01*
X17703Y87400D01*
X18818D01*
X19376Y87958D01*
Y88515D01*
X18818Y89073D01*
X17145D01*
X62948Y61995D02*
X61833D01*
X62391D01*
Y59207D01*
X61833Y58650D01*
X61276D01*
X60718Y59207D01*
X64064Y61437D02*
X64621Y61995D01*
X65736D01*
X66294Y61437D01*
Y60880D01*
X65736Y60322D01*
X65179D01*
X65736D01*
X66294Y59765D01*
Y59207D01*
X65736Y58650D01*
X64621D01*
X64064Y59207D01*
X122330Y61395D02*
X121215D01*
X121773D01*
Y58607D01*
X121215Y58050D01*
X120658D01*
X120100Y58607D01*
X125118Y58050D02*
Y61395D01*
X123445Y59722D01*
X125676D01*
X127428Y100426D02*
Y103771D01*
X129100D01*
X129658Y103214D01*
Y102099D01*
X129100Y101541D01*
X127428D01*
X128543D02*
X129658Y100426D01*
X130773D02*
X131888D01*
X131331D01*
Y103771D01*
X130773Y103214D01*
X135791Y103771D02*
X134676Y103214D01*
X133561Y102099D01*
Y100984D01*
X134118Y100426D01*
X135233D01*
X135791Y100984D01*
Y101541D01*
X135233Y102099D01*
X133561D01*
X148589Y100524D02*
Y103870D01*
X150262D01*
X150819Y103312D01*
Y102197D01*
X150262Y101639D01*
X148589D01*
X149704D02*
X150819Y100524D01*
X151934D02*
X153050D01*
X152492D01*
Y103870D01*
X151934Y103312D01*
X156952Y103870D02*
X154722D01*
Y102197D01*
X155837Y102755D01*
X156395D01*
X156952Y102197D01*
Y101082D01*
X156395Y100524D01*
X155280D01*
X154722Y101082D01*
X183800Y168957D02*
Y172303D01*
X185473D01*
X186030Y171745D01*
Y170630D01*
X185473Y170073D01*
X183800D01*
X184915D02*
X186030Y168957D01*
X187145D02*
X188260D01*
X187703D01*
Y172303D01*
X187145Y171745D01*
X191606Y168957D02*
Y172303D01*
X189933Y170630D01*
X192163D01*
X36417Y125393D02*
Y122605D01*
X36975Y122047D01*
X38090D01*
X38648Y122605D01*
Y125393D01*
X39763Y122047D02*
X40878D01*
X40320D01*
Y125393D01*
X39763Y124835D01*
X172736Y143602D02*
Y146948D01*
X174409D01*
X174967Y146390D01*
Y145275D01*
X174409Y144718D01*
X172736D01*
X173851D02*
X174967Y143602D01*
X176082D02*
X177197D01*
X176639D01*
Y146948D01*
X176082Y146390D01*
X178869D02*
X179427Y146948D01*
X180542D01*
X181100Y146390D01*
Y145833D01*
X180542Y145275D01*
X179984D01*
X180542D01*
X181100Y144718D01*
Y144160D01*
X180542Y143602D01*
X179427D01*
X178869Y144160D01*
X185400Y208000D02*
Y211345D01*
X187073D01*
X187630Y210788D01*
Y209673D01*
X187073Y209115D01*
X185400D01*
X186515D02*
X187630Y208000D01*
X188745D02*
X189860D01*
X189303D01*
Y211345D01*
X188745Y210788D01*
X193763Y208000D02*
X191533D01*
X193763Y210230D01*
Y210788D01*
X193206Y211345D01*
X192091D01*
X191533Y210788D01*
X185400Y218100D02*
Y221445D01*
X187073D01*
X187630Y220888D01*
Y219773D01*
X187073Y219215D01*
X185400D01*
X186515D02*
X187630Y218100D01*
X188745D02*
X189860D01*
X189303D01*
Y221445D01*
X188745Y220888D01*
X191533Y218100D02*
X192648D01*
X192091D01*
Y221445D01*
X191533Y220888D01*
X28000Y148800D02*
Y152145D01*
X29673D01*
X30230Y151588D01*
Y150473D01*
X29673Y149915D01*
X28000D01*
X29115D02*
X30230Y148800D01*
X31345D02*
X32460D01*
X31903D01*
Y152145D01*
X31345Y151588D01*
X34133D02*
X34691Y152145D01*
X35806D01*
X36364Y151588D01*
Y149358D01*
X35806Y148800D01*
X34691D01*
X34133Y149358D01*
Y151588D01*
X13500Y149000D02*
Y152345D01*
X15173D01*
X15730Y151788D01*
Y150673D01*
X15173Y150115D01*
X13500D01*
X14615D02*
X15730Y149000D01*
X16845Y149558D02*
X17403Y149000D01*
X18518D01*
X19076Y149558D01*
Y151788D01*
X18518Y152345D01*
X17403D01*
X16845Y151788D01*
Y151230D01*
X17403Y150673D01*
X19076D01*
X23200Y161000D02*
Y164345D01*
X24873D01*
X25430Y163788D01*
Y162673D01*
X24873Y162115D01*
X23200D01*
X24315D02*
X25430Y161000D01*
X26545Y163788D02*
X27103Y164345D01*
X28218D01*
X28776Y163788D01*
Y163230D01*
X28218Y162673D01*
X28776Y162115D01*
Y161558D01*
X28218Y161000D01*
X27103D01*
X26545Y161558D01*
Y162115D01*
X27103Y162673D01*
X26545Y163230D01*
Y163788D01*
X27103Y162673D02*
X28218D01*
X63681Y88624D02*
Y91969D01*
X65354D01*
X65911Y91412D01*
Y90297D01*
X65354Y89739D01*
X63681D01*
X64796D02*
X65911Y88624D01*
X67027Y91969D02*
X69257D01*
Y91412D01*
X67027Y89181D01*
Y88624D01*
X23300Y175300D02*
Y178645D01*
X24973D01*
X25530Y178088D01*
Y176973D01*
X24973Y176415D01*
X23300D01*
X24415D02*
X25530Y175300D01*
X28876Y178645D02*
X26645D01*
Y176973D01*
X27760Y177530D01*
X28318D01*
X28876Y176973D01*
Y175858D01*
X28318Y175300D01*
X27203D01*
X26645Y175858D01*
X29921Y198425D02*
Y201771D01*
X31594D01*
X32151Y201213D01*
Y200098D01*
X31594Y199540D01*
X29921D01*
X31036D02*
X32151Y198425D01*
X34939D02*
Y201771D01*
X33267Y200098D01*
X35497D01*
X20600Y125500D02*
Y128845D01*
X22273D01*
X22830Y128288D01*
Y127173D01*
X22273Y126615D01*
X20600D01*
X21715D02*
X22830Y125500D01*
X23945Y128288D02*
X24503Y128845D01*
X25618D01*
X26176Y128288D01*
Y127730D01*
X25618Y127173D01*
X25060D01*
X25618D01*
X26176Y126615D01*
Y126058D01*
X25618Y125500D01*
X24503D01*
X23945Y126058D01*
X51575Y70472D02*
Y73818D01*
X53247D01*
X53805Y73260D01*
Y72145D01*
X53247Y71588D01*
X51575D01*
X52690D02*
X53805Y70472D01*
X57150D02*
X54920D01*
X57150Y72703D01*
Y73260D01*
X56593Y73818D01*
X55478D01*
X54920Y73260D01*
X8800Y100300D02*
Y103645D01*
X10473D01*
X11030Y103088D01*
Y101973D01*
X10473Y101415D01*
X8800D01*
X9915D02*
X11030Y100300D01*
X12145D02*
X13261D01*
X12703D01*
Y103645D01*
X12145Y103088D01*
X33400Y268700D02*
Y272045D01*
X34515Y270930D01*
X35630Y272045D01*
Y268700D01*
X36745D02*
X37861D01*
X37303D01*
Y272045D01*
X36745Y271488D01*
X170537Y183660D02*
X169422D01*
X169980D01*
Y180872D01*
X169422Y180315D01*
X168865D01*
X168307Y180872D01*
X173883Y180315D02*
X171652D01*
X173883Y182545D01*
Y183103D01*
X173325Y183660D01*
X172210D01*
X171652Y183103D01*
X12335Y61015D02*
X11220D01*
X11777D01*
Y58228D01*
X11220Y57670D01*
X10662D01*
X10105Y58228D01*
X13450Y57670D02*
X14565D01*
X14008D01*
Y61015D01*
X13450Y60458D01*
X175492Y155314D02*
Y151969D01*
X177165D01*
X177722Y152526D01*
Y154756D01*
X177165Y155314D01*
X175492D01*
X181068Y151969D02*
X178838D01*
X181068Y154199D01*
Y154756D01*
X180510Y155314D01*
X179395D01*
X178838Y154756D01*
X166339Y155373D02*
Y152027D01*
X168011D01*
X168569Y152585D01*
Y154815D01*
X168011Y155373D01*
X166339D01*
X169684Y152027D02*
X170799D01*
X170241D01*
Y155373D01*
X169684Y154815D01*
X63730Y128988D02*
X63173Y129545D01*
X62058D01*
X61500Y128988D01*
Y126758D01*
X62058Y126200D01*
X63173D01*
X63730Y126758D01*
X64845Y126200D02*
X65961D01*
X65403D01*
Y129545D01*
X64845Y128988D01*
D16*
X131307Y118669D02*
D03*
D17*
X94882Y99705D02*
D03*
M02*
