G04*
G04 #@! TF.GenerationSoftware,Altium Limited,Altium Designer,19.1.6 (110)*
G04*
G04 Layer_Color=8388736*
%FSLAX25Y25*%
%MOIN*%
G70*
G01*
G75*
G04:AMPARAMS|DCode=27|XSize=45.4mil|YSize=39.5mil|CornerRadius=7.15mil|HoleSize=0mil|Usage=FLASHONLY|Rotation=0.000|XOffset=0mil|YOffset=0mil|HoleType=Round|Shape=RoundedRectangle|*
%AMROUNDEDRECTD27*
21,1,0.04540,0.02520,0,0,0.0*
21,1,0.03110,0.03950,0,0,0.0*
1,1,0.01430,0.01555,-0.01260*
1,1,0.01430,-0.01555,-0.01260*
1,1,0.01430,-0.01555,0.01260*
1,1,0.01430,0.01555,0.01260*
%
%ADD27ROUNDEDRECTD27*%
G04:AMPARAMS|DCode=28|XSize=45.4mil|YSize=39.5mil|CornerRadius=7.94mil|HoleSize=0mil|Usage=FLASHONLY|Rotation=0.000|XOffset=0mil|YOffset=0mil|HoleType=Round|Shape=RoundedRectangle|*
%AMROUNDEDRECTD28*
21,1,0.04540,0.02362,0,0,0.0*
21,1,0.02953,0.03950,0,0,0.0*
1,1,0.01587,0.01476,-0.01181*
1,1,0.01587,-0.01476,-0.01181*
1,1,0.01587,-0.01476,0.01181*
1,1,0.01587,0.01476,0.01181*
%
%ADD28ROUNDEDRECTD28*%
%ADD29R,0.04737X0.04737*%
%ADD30C,0.07874*%
G04:AMPARAMS|DCode=31|XSize=45.4mil|YSize=39.5mil|CornerRadius=7.94mil|HoleSize=0mil|Usage=FLASHONLY|Rotation=90.000|XOffset=0mil|YOffset=0mil|HoleType=Round|Shape=RoundedRectangle|*
%AMROUNDEDRECTD31*
21,1,0.04540,0.02362,0,0,90.0*
21,1,0.02953,0.03950,0,0,90.0*
1,1,0.01587,0.01181,0.01476*
1,1,0.01587,0.01181,-0.01476*
1,1,0.01587,-0.01181,-0.01476*
1,1,0.01587,-0.01181,0.01476*
%
%ADD31ROUNDEDRECTD31*%
G04:AMPARAMS|DCode=32|XSize=45.4mil|YSize=39.5mil|CornerRadius=7.15mil|HoleSize=0mil|Usage=FLASHONLY|Rotation=90.000|XOffset=0mil|YOffset=0mil|HoleType=Round|Shape=RoundedRectangle|*
%AMROUNDEDRECTD32*
21,1,0.04540,0.02520,0,0,90.0*
21,1,0.03110,0.03950,0,0,90.0*
1,1,0.01430,0.01260,0.01555*
1,1,0.01430,0.01260,-0.01555*
1,1,0.01430,-0.01260,-0.01555*
1,1,0.01430,-0.01260,0.01555*
%
%ADD32ROUNDEDRECTD32*%
%ADD33R,0.04343X0.03950*%
%ADD34O,0.06509X0.03162*%
G04:AMPARAMS|DCode=35|XSize=108mil|YSize=33mil|CornerRadius=10.25mil|HoleSize=0mil|Usage=FLASHONLY|Rotation=90.000|XOffset=0mil|YOffset=0mil|HoleType=Round|Shape=RoundedRectangle|*
%AMROUNDEDRECTD35*
21,1,0.10800,0.01250,0,0,90.0*
21,1,0.08750,0.03300,0,0,90.0*
1,1,0.02050,0.00625,0.04375*
1,1,0.02050,0.00625,-0.04375*
1,1,0.02050,-0.00625,-0.04375*
1,1,0.02050,-0.00625,0.04375*
%
%ADD35ROUNDEDRECTD35*%
%ADD36R,0.03300X0.10800*%
%ADD37R,0.03950X0.03950*%
%ADD38C,0.06800*%
%ADD39R,0.06800X0.06800*%
%ADD40C,0.06706*%
%ADD41R,0.06706X0.06706*%
D27*
X152264Y89961D02*
D03*
X131693D02*
D03*
X23500Y91357D02*
D03*
X187500Y164315D02*
D03*
X168748Y142533D02*
D03*
X32300Y139342D02*
D03*
X15800D02*
D03*
X32300Y159142D02*
D03*
X66300Y101657D02*
D03*
X32300Y174143D02*
D03*
X32382Y194488D02*
D03*
X23000Y121658D02*
D03*
X17700Y104657D02*
D03*
D28*
X152264Y95276D02*
D03*
X131693D02*
D03*
X23500Y86042D02*
D03*
X187500Y159000D02*
D03*
X168748Y147848D02*
D03*
X32300Y144658D02*
D03*
X15800D02*
D03*
X32300Y164457D02*
D03*
X66300Y96342D02*
D03*
X32300Y179457D02*
D03*
X32382Y189173D02*
D03*
X23000Y116342D02*
D03*
X17700Y99343D02*
D03*
D29*
X185700Y233100D02*
D03*
Y240100D02*
D03*
D30*
X178740Y99606D02*
D03*
X39370Y19685D02*
D03*
X19685Y236221D02*
D03*
D31*
X176042Y209700D02*
D03*
Y219300D02*
D03*
X49542Y78000D02*
D03*
D32*
X181358Y209700D02*
D03*
Y219300D02*
D03*
X54857Y78000D02*
D03*
D33*
X63800Y122750D02*
D03*
Y116450D02*
D03*
D34*
X54828Y86400D02*
D03*
Y91400D02*
D03*
Y96400D02*
D03*
Y101400D02*
D03*
Y106400D02*
D03*
Y111400D02*
D03*
Y116400D02*
D03*
X33372Y86400D02*
D03*
Y91400D02*
D03*
Y96400D02*
D03*
Y101400D02*
D03*
Y106400D02*
D03*
Y111400D02*
D03*
Y116400D02*
D03*
D35*
X27205Y42870D02*
D03*
D36*
Y60870D02*
D03*
X32205Y42870D02*
D03*
Y60870D02*
D03*
X37205Y42870D02*
D03*
Y60870D02*
D03*
X42205Y42870D02*
D03*
Y60870D02*
D03*
X47205Y42870D02*
D03*
Y60870D02*
D03*
D37*
X178148Y165496D02*
D03*
Y159000D02*
D03*
X168748Y165496D02*
D03*
Y159000D02*
D03*
D38*
X102618Y46496D02*
D03*
X112618D02*
D03*
Y56496D02*
D03*
X102618D02*
D03*
X92618D02*
D03*
Y46496D02*
D03*
X82618Y56496D02*
D03*
Y46496D02*
D03*
X72618Y56496D02*
D03*
X162224Y46496D02*
D03*
X172224D02*
D03*
Y56496D02*
D03*
X162224D02*
D03*
X152224D02*
D03*
Y46496D02*
D03*
X142224Y56496D02*
D03*
Y46496D02*
D03*
X132224Y56496D02*
D03*
X181358Y191100D02*
D03*
D39*
X72818Y46396D02*
D03*
X132424D02*
D03*
X171358Y191100D02*
D03*
D40*
X148500Y139500D02*
D03*
X138500D02*
D03*
X148500Y149500D02*
D03*
X138500D02*
D03*
X148500Y159500D02*
D03*
X138500D02*
D03*
X148500Y169500D02*
D03*
X138500D02*
D03*
X148500Y179500D02*
D03*
X138500D02*
D03*
X148500Y189500D02*
D03*
X138500D02*
D03*
X148500Y199500D02*
D03*
X138500D02*
D03*
X148500Y209500D02*
D03*
X138500D02*
D03*
X148500Y219500D02*
D03*
X138500D02*
D03*
X148500Y229500D02*
D03*
X138500D02*
D03*
X148500Y239500D02*
D03*
X138500D02*
D03*
X148500Y249500D02*
D03*
X138500D02*
D03*
Y259500D02*
D03*
X48382D02*
D03*
Y249500D02*
D03*
X58382D02*
D03*
X48382Y239500D02*
D03*
X58382D02*
D03*
X48382Y229500D02*
D03*
X58382D02*
D03*
X48382Y219500D02*
D03*
X58382D02*
D03*
X48382Y209500D02*
D03*
X58382D02*
D03*
X48382Y199500D02*
D03*
X58382D02*
D03*
X48382Y189500D02*
D03*
X58382D02*
D03*
X48382Y179500D02*
D03*
X58382D02*
D03*
X48382Y169500D02*
D03*
X58382D02*
D03*
X48382Y159500D02*
D03*
X58382D02*
D03*
X48382Y149500D02*
D03*
X58382D02*
D03*
X48382Y139500D02*
D03*
X58382D02*
D03*
D41*
X148500Y259500D02*
D03*
X58382D02*
D03*
M02*
