G04*
G04 #@! TF.GenerationSoftware,Altium Limited,Altium Designer,19.1.6 (110)*
G04*
G04 Layer_Color=32768*
%FSLAX25Y25*%
%MOIN*%
G70*
G01*
G75*
%ADD14C,0.00394*%
%ADD54C,0.00197*%
D14*
X150394Y92618D02*
X154134D01*
X152264Y90748D02*
Y94488D01*
X129823Y92618D02*
X133563D01*
X131693Y90748D02*
Y94488D01*
X23500Y86830D02*
Y90570D01*
X21630Y88700D02*
X25370D01*
X187500Y159787D02*
Y163528D01*
X185630Y161658D02*
X189370D01*
X168748Y143321D02*
Y147061D01*
X166878Y145191D02*
X170618D01*
X176830Y209700D02*
X180570D01*
X178700Y207830D02*
Y211570D01*
X176830Y219300D02*
X180570D01*
X178700Y217430D02*
Y221170D01*
X32300Y140130D02*
Y143870D01*
X30430Y142000D02*
X34170D01*
X15800Y140130D02*
Y143870D01*
X13930Y142000D02*
X17670D01*
X32300Y159930D02*
Y163670D01*
X30430Y161800D02*
X34170D01*
X66300Y97130D02*
Y100870D01*
X64430Y99000D02*
X68170D01*
X32300Y174930D02*
Y178670D01*
X30430Y176800D02*
X34170D01*
X32382Y189961D02*
Y193701D01*
X30512Y191831D02*
X34252D01*
X23000Y117130D02*
Y120870D01*
X21130Y119000D02*
X24870D01*
X50330Y78000D02*
X54070D01*
X52200Y76130D02*
Y79870D01*
X17700Y100130D02*
Y103870D01*
X15830Y102000D02*
X19570D01*
X63800Y117631D02*
Y121569D01*
X61831Y119600D02*
X65768D01*
X44100Y99432D02*
Y103368D01*
X42132Y101400D02*
X46069D01*
X175983Y156835D02*
X180313D01*
Y167661D01*
X175983D02*
X180313D01*
X175983Y156835D02*
Y167661D01*
X166583Y156835D02*
X170913D01*
Y167661D01*
X166583D02*
X170913D01*
X166583Y156835D02*
Y167661D01*
D54*
X149311Y87303D02*
Y97933D01*
X155217Y87303D02*
Y97933D01*
X149311Y87303D02*
X155217D01*
X149311Y97933D02*
X155217D01*
X128740Y87303D02*
Y97933D01*
X134646Y87303D02*
Y97933D01*
X128740Y87303D02*
X134646D01*
X128740Y97933D02*
X134646D01*
X20547Y83385D02*
X26453D01*
X20547Y94015D02*
X26453D01*
X20547Y83385D02*
Y94015D01*
X26453Y83385D02*
Y94015D01*
X184547Y156342D02*
X190453D01*
X184547Y166972D02*
X190453D01*
X184547Y156342D02*
Y166972D01*
X190453Y156342D02*
Y166972D01*
X165795Y150505D02*
X171701D01*
X165795Y139876D02*
X171701D01*
Y150505D01*
X165795Y139876D02*
Y150505D01*
X173385Y206747D02*
Y212653D01*
X184015Y206747D02*
Y212653D01*
X173385D02*
X184015D01*
X173385Y206747D02*
X184015D01*
X173385Y216347D02*
Y222253D01*
X184015Y216347D02*
Y222253D01*
X173385D02*
X184015D01*
X173385Y216347D02*
X184015D01*
X29347Y147315D02*
X35253D01*
X29347Y136685D02*
X35253D01*
Y147315D01*
X29347Y136685D02*
Y147315D01*
X12847D02*
X18753D01*
X12847Y136685D02*
X18753D01*
Y147315D01*
X12847Y136685D02*
Y147315D01*
X29347Y167115D02*
X35253D01*
X29347Y156485D02*
X35253D01*
Y167115D01*
X29347Y156485D02*
Y167115D01*
X63347Y93685D02*
X69253D01*
X63347Y104315D02*
X69253D01*
X63347Y93685D02*
Y104315D01*
X69253Y93685D02*
Y104315D01*
X29347Y182115D02*
X35253D01*
X29347Y171485D02*
X35253D01*
Y182115D01*
X29347Y171485D02*
Y182115D01*
X29429Y186516D02*
X35335D01*
X29429Y197146D02*
X35335D01*
X29429Y186516D02*
Y197146D01*
X35335Y186516D02*
Y197146D01*
X20047Y113685D02*
X25953D01*
X20047Y124315D02*
X25953D01*
X20047Y113685D02*
Y124315D01*
X25953Y113685D02*
Y124315D01*
X46885Y75047D02*
Y80953D01*
X57515Y75047D02*
Y80953D01*
X46885D02*
X57515D01*
X46885Y75047D02*
X57515D01*
X14747Y96685D02*
X20653D01*
X14747Y107315D02*
X20653D01*
X14747Y96685D02*
Y107315D01*
X20653Y96685D02*
Y107315D01*
X61438Y124718D02*
X66162D01*
X61438Y114482D02*
X66162D01*
Y124718D01*
X61438Y114482D02*
Y124718D01*
X29632Y83093D02*
X58569D01*
X29632Y119707D02*
X58569D01*
Y83093D02*
Y119707D01*
X29632Y83093D02*
Y119707D01*
X15551Y36122D02*
X27362D01*
X15551D02*
Y67618D01*
X59842D01*
Y36122D02*
Y67618D01*
X27362Y36122D02*
X59842D01*
X176573Y162248D02*
X178148D01*
Y160673D02*
Y162248D01*
X179723D01*
X178148D02*
Y163823D01*
X168748Y162248D02*
Y163823D01*
Y162248D02*
X170323D01*
X168748Y160673D02*
Y162248D01*
X167173D02*
X168748D01*
M02*
