G04*
G04 #@! TF.GenerationSoftware,Altium Limited,Altium Designer,19.1.6 (110)*
G04*
G04 Layer_Color=16711935*
%FSLAX25Y25*%
%MOIN*%
G70*
G01*
G75*
%ADD14C,0.00394*%
D14*
X41738Y115180D02*
G03*
X41738Y115180I-1969J0D01*
G01*
X150394Y89173D02*
Y96063D01*
X154134Y89173D02*
Y96063D01*
X150394Y89173D02*
X154134D01*
X150394Y96063D02*
X154134D01*
X129823Y89173D02*
Y96063D01*
X133563Y89173D02*
Y96063D01*
X129823Y89173D02*
X133563D01*
X129823Y96063D02*
X133563D01*
X21630Y85255D02*
X25370D01*
X21630Y92145D02*
X25370D01*
X21630Y85255D02*
Y92145D01*
X25370Y85255D02*
Y92145D01*
X185630Y158213D02*
X189370D01*
X185630Y165102D02*
X189370D01*
X185630Y158213D02*
Y165102D01*
X189370Y158213D02*
Y165102D01*
X166878Y148635D02*
X170618D01*
X166878Y141746D02*
X170618D01*
Y148635D01*
X166878Y141746D02*
Y148635D01*
X175255Y207830D02*
Y211570D01*
X182145Y207830D02*
Y211570D01*
X175255D02*
X182145D01*
X175255Y207830D02*
X182145D01*
X175255Y217430D02*
Y221170D01*
X182145Y217430D02*
Y221170D01*
X175255D02*
X182145D01*
X175255Y217430D02*
X182145D01*
X30430Y145445D02*
X34170D01*
X30430Y138555D02*
X34170D01*
Y145445D01*
X30430Y138555D02*
Y145445D01*
X13930D02*
X17670D01*
X13930Y138555D02*
X17670D01*
Y145445D01*
X13930Y138555D02*
Y145445D01*
X30430Y165245D02*
X34170D01*
X30430Y158355D02*
X34170D01*
Y165245D01*
X30430Y158355D02*
Y165245D01*
X64430Y95555D02*
X68170D01*
X64430Y102445D02*
X68170D01*
X64430Y95555D02*
Y102445D01*
X68170Y95555D02*
Y102445D01*
X30430Y180245D02*
X34170D01*
X30430Y173355D02*
X34170D01*
Y180245D01*
X30430Y173355D02*
Y180245D01*
X30512Y188386D02*
X34252D01*
X30512Y195276D02*
X34252D01*
X30512Y188386D02*
Y195276D01*
X34252Y188386D02*
Y195276D01*
X21130Y115555D02*
X24870D01*
X21130Y122445D02*
X24870D01*
X21130Y115555D02*
Y122445D01*
X24870Y115555D02*
Y122445D01*
X48755Y76130D02*
Y79870D01*
X55645Y76130D02*
Y79870D01*
X48755D02*
X55645D01*
X48755Y76130D02*
X55645D01*
X15830Y98555D02*
X19570D01*
X15830Y105445D02*
X19570D01*
X15830Y98555D02*
Y105445D01*
X19570Y98555D02*
Y105445D01*
X61831Y123143D02*
X65768D01*
X61831Y116057D02*
X65768D01*
Y123143D01*
X61831Y116057D02*
Y123143D01*
X36226Y84077D02*
X51974D01*
X36226Y118723D02*
X51974D01*
Y84077D02*
Y118723D01*
X36226Y84077D02*
Y118723D01*
X179722Y159099D02*
Y165398D01*
X176573D02*
X179722D01*
X176573Y159099D02*
Y165398D01*
Y159099D02*
X179722D01*
X170322D02*
Y165398D01*
X167173D02*
X170322D01*
X167173Y159099D02*
Y165398D01*
Y159099D02*
X170322D01*
M02*
