G04*
G04 #@! TF.GenerationSoftware,Altium Limited,Altium Designer,19.1.6 (110)*
G04*
G04 Layer_Physical_Order=2*
G04 Layer_Color=16711680*
%FSLAX25Y25*%
%MOIN*%
G70*
G01*
G75*
%ADD45C,0.00591*%
%ADD46C,0.01181*%
%ADD48C,0.11811*%
%ADD49C,0.06000*%
%ADD50R,0.06000X0.06000*%
%ADD51C,0.05906*%
%ADD52R,0.05906X0.05906*%
%ADD53C,0.02362*%
G36*
X194882Y1969D02*
X1969D01*
Y273622D01*
X194882D01*
Y1969D01*
D02*
G37*
%LPC*%
G36*
X152453Y263453D02*
X149000D01*
Y260000D01*
X152453D01*
Y263453D01*
D02*
G37*
G36*
X62335D02*
X58882D01*
Y260000D01*
X62335D01*
Y263453D01*
D02*
G37*
G36*
X148000D02*
X144547D01*
Y260000D01*
X148000D01*
Y263453D01*
D02*
G37*
G36*
X57882D02*
X54429D01*
Y260000D01*
X57882D01*
Y263453D01*
D02*
G37*
G36*
X138500Y263074D02*
X137575Y262952D01*
X136713Y262595D01*
X135973Y262027D01*
X135405Y261287D01*
X135048Y260425D01*
X134926Y259500D01*
X135048Y258575D01*
X135405Y257713D01*
X135973Y256973D01*
X136713Y256405D01*
X137575Y256048D01*
X138500Y255926D01*
X139425Y256048D01*
X140287Y256405D01*
X141027Y256973D01*
X141595Y257713D01*
X141952Y258575D01*
X142074Y259500D01*
X141952Y260425D01*
X141595Y261287D01*
X141027Y262027D01*
X140287Y262595D01*
X139425Y262952D01*
X138500Y263074D01*
D02*
G37*
G36*
X152453Y259000D02*
X149000D01*
Y255547D01*
X152453D01*
Y259000D01*
D02*
G37*
G36*
X148000D02*
X144547D01*
Y255547D01*
X148000D01*
Y259000D01*
D02*
G37*
G36*
X62335D02*
X58882D01*
Y255547D01*
X62335D01*
Y259000D01*
D02*
G37*
G36*
X57882D02*
X54429D01*
Y255547D01*
X57882D01*
Y259000D01*
D02*
G37*
G36*
X58882Y253421D02*
Y250000D01*
X62303D01*
X62233Y250532D01*
X61835Y251493D01*
X61201Y252319D01*
X60375Y252953D01*
X59414Y253351D01*
X58882Y253421D01*
D02*
G37*
G36*
X149000D02*
Y250000D01*
X152421D01*
X152351Y250532D01*
X151953Y251493D01*
X151319Y252319D01*
X150493Y252953D01*
X149532Y253351D01*
X149000Y253421D01*
D02*
G37*
G36*
X57882D02*
X57350Y253351D01*
X56388Y252953D01*
X55563Y252319D01*
X54929Y251493D01*
X54531Y250532D01*
X54461Y250000D01*
X57882D01*
Y253421D01*
D02*
G37*
G36*
X148000D02*
X147468Y253351D01*
X146507Y252953D01*
X145681Y252319D01*
X145047Y251493D01*
X144649Y250532D01*
X144579Y250000D01*
X148000D01*
Y253421D01*
D02*
G37*
G36*
X138500Y253074D02*
X137575Y252952D01*
X136713Y252595D01*
X135973Y252027D01*
X135405Y251287D01*
X135048Y250425D01*
X134926Y249500D01*
X135048Y248575D01*
X135405Y247713D01*
X135973Y246973D01*
X136713Y246405D01*
X137575Y246048D01*
X138500Y245926D01*
X139425Y246048D01*
X140287Y246405D01*
X141027Y246973D01*
X141595Y247713D01*
X141952Y248575D01*
X142074Y249500D01*
X141952Y250425D01*
X141595Y251287D01*
X141027Y252027D01*
X140287Y252595D01*
X139425Y252952D01*
X138500Y253074D01*
D02*
G37*
G36*
X152421Y249000D02*
X149000D01*
Y245579D01*
X149532Y245649D01*
X150493Y246047D01*
X151319Y246681D01*
X151953Y247507D01*
X152351Y248468D01*
X152421Y249000D01*
D02*
G37*
G36*
X62303D02*
X58882D01*
Y245579D01*
X59414Y245649D01*
X60375Y246047D01*
X61201Y246681D01*
X61835Y247507D01*
X62233Y248468D01*
X62303Y249000D01*
D02*
G37*
G36*
X148000D02*
X144579D01*
X144649Y248468D01*
X145047Y247507D01*
X145681Y246681D01*
X146507Y246047D01*
X147468Y245649D01*
X148000Y245579D01*
Y249000D01*
D02*
G37*
G36*
X57882D02*
X54461D01*
X54531Y248468D01*
X54929Y247507D01*
X55563Y246681D01*
X56388Y246047D01*
X57350Y245649D01*
X57882Y245579D01*
Y249000D01*
D02*
G37*
G36*
X177165Y267753D02*
X175312Y267607D01*
X173504Y267173D01*
X171787Y266462D01*
X170202Y265490D01*
X168788Y264283D01*
X167580Y262869D01*
X166609Y261284D01*
X165898Y259567D01*
X165464Y257759D01*
X165318Y255906D01*
X165464Y254052D01*
X165898Y252244D01*
X166609Y250527D01*
X167580Y248942D01*
X168788Y247528D01*
X170202Y246321D01*
X171787Y245349D01*
X173504Y244638D01*
X175312Y244204D01*
X177165Y244058D01*
X179019Y244204D01*
X180826Y244638D01*
X182544Y245349D01*
X184129Y246321D01*
X185543Y247528D01*
X186750Y248942D01*
X187722Y250527D01*
X188433Y252244D01*
X188867Y254052D01*
X189013Y255906D01*
X188867Y257759D01*
X188433Y259567D01*
X187722Y261284D01*
X186750Y262869D01*
X185543Y264283D01*
X184129Y265490D01*
X182544Y266462D01*
X180826Y267173D01*
X179019Y267607D01*
X177165Y267753D01*
D02*
G37*
G36*
X19685D02*
X17832Y267607D01*
X16024Y267173D01*
X14306Y266462D01*
X12721Y265490D01*
X11308Y264283D01*
X10100Y262869D01*
X9129Y261284D01*
X8417Y259567D01*
X7983Y257759D01*
X7837Y255906D01*
X7983Y254052D01*
X8417Y252244D01*
X9129Y250527D01*
X10100Y248942D01*
X11308Y247528D01*
X12721Y246321D01*
X14306Y245349D01*
X16024Y244638D01*
X17832Y244204D01*
X19685Y244058D01*
X21538Y244204D01*
X23346Y244638D01*
X25064Y245349D01*
X26649Y246321D01*
X28062Y247528D01*
X29270Y248942D01*
X30241Y250527D01*
X30953Y252244D01*
X31387Y254052D01*
X31533Y255906D01*
X31387Y257759D01*
X30953Y259567D01*
X30241Y261284D01*
X29270Y262869D01*
X28062Y264283D01*
X26649Y265490D01*
X25064Y266462D01*
X23346Y267173D01*
X21538Y267607D01*
X19685Y267753D01*
D02*
G37*
G36*
X58882Y243421D02*
Y240000D01*
X62303D01*
X62233Y240532D01*
X61835Y241493D01*
X61201Y242319D01*
X60375Y242953D01*
X59414Y243351D01*
X58882Y243421D01*
D02*
G37*
G36*
X57882D02*
X57350Y243351D01*
X56388Y242953D01*
X55563Y242319D01*
X54929Y241493D01*
X54531Y240532D01*
X54461Y240000D01*
X57882D01*
Y243421D01*
D02*
G37*
G36*
X148500Y243074D02*
X147575Y242952D01*
X146713Y242595D01*
X145973Y242027D01*
X145405Y241287D01*
X145048Y240425D01*
X144926Y239500D01*
X145048Y238575D01*
X145405Y237713D01*
X145973Y236973D01*
X146713Y236405D01*
X147575Y236048D01*
X148500Y235926D01*
X149425Y236048D01*
X150287Y236405D01*
X151027Y236973D01*
X151595Y237713D01*
X151952Y238575D01*
X152074Y239500D01*
X151952Y240425D01*
X151595Y241287D01*
X151027Y242027D01*
X150287Y242595D01*
X149425Y242952D01*
X148500Y243074D01*
D02*
G37*
G36*
X138500D02*
X137575Y242952D01*
X136713Y242595D01*
X135973Y242027D01*
X135405Y241287D01*
X135048Y240425D01*
X134926Y239500D01*
X135048Y238575D01*
X135405Y237713D01*
X135973Y236973D01*
X136713Y236405D01*
X137575Y236048D01*
X138500Y235926D01*
X139425Y236048D01*
X140287Y236405D01*
X141027Y236973D01*
X141595Y237713D01*
X141952Y238575D01*
X142074Y239500D01*
X141952Y240425D01*
X141595Y241287D01*
X141027Y242027D01*
X140287Y242595D01*
X139425Y242952D01*
X138500Y243074D01*
D02*
G37*
G36*
X62303Y239000D02*
X58882D01*
Y235579D01*
X59414Y235649D01*
X60375Y236047D01*
X61201Y236681D01*
X61835Y237507D01*
X62233Y238468D01*
X62303Y239000D01*
D02*
G37*
G36*
X57882D02*
X54461D01*
X54531Y238468D01*
X54929Y237507D01*
X55563Y236681D01*
X56388Y236047D01*
X57350Y235649D01*
X57882Y235579D01*
Y239000D01*
D02*
G37*
G36*
X148500Y233074D02*
X147575Y232952D01*
X146713Y232595D01*
X145973Y232027D01*
X145405Y231287D01*
X145048Y230425D01*
X144926Y229500D01*
X145048Y228575D01*
X145405Y227713D01*
X145973Y226973D01*
X146713Y226405D01*
X147575Y226048D01*
X148500Y225926D01*
X149425Y226048D01*
X150287Y226405D01*
X151027Y226973D01*
X151595Y227713D01*
X151952Y228575D01*
X152074Y229500D01*
X151952Y230425D01*
X151595Y231287D01*
X151027Y232027D01*
X150287Y232595D01*
X149425Y232952D01*
X148500Y233074D01*
D02*
G37*
G36*
X138500D02*
X137575Y232952D01*
X136713Y232595D01*
X135973Y232027D01*
X135405Y231287D01*
X135048Y230425D01*
X134926Y229500D01*
X135048Y228575D01*
X135405Y227713D01*
X135973Y226973D01*
X136713Y226405D01*
X137575Y226048D01*
X138500Y225926D01*
X139425Y226048D01*
X140287Y226405D01*
X141027Y226973D01*
X141595Y227713D01*
X141952Y228575D01*
X142074Y229500D01*
X141952Y230425D01*
X141595Y231287D01*
X141027Y232027D01*
X140287Y232595D01*
X139425Y232952D01*
X138500Y233074D01*
D02*
G37*
G36*
X58382D02*
X57457Y232952D01*
X56595Y232595D01*
X55855Y232027D01*
X55287Y231287D01*
X54930Y230425D01*
X54808Y229500D01*
X54930Y228575D01*
X55287Y227713D01*
X55855Y226973D01*
X56595Y226405D01*
X57457Y226048D01*
X58382Y225926D01*
X59307Y226048D01*
X60169Y226405D01*
X60909Y226973D01*
X61477Y227713D01*
X61834Y228575D01*
X61956Y229500D01*
X61834Y230425D01*
X61477Y231287D01*
X60909Y232027D01*
X60169Y232595D01*
X59307Y232952D01*
X58382Y233074D01*
D02*
G37*
G36*
X148500Y223074D02*
X147575Y222952D01*
X146713Y222595D01*
X145973Y222027D01*
X145405Y221287D01*
X145048Y220425D01*
X144926Y219500D01*
X145048Y218575D01*
X145405Y217713D01*
X145973Y216973D01*
X146713Y216405D01*
X147575Y216048D01*
X148500Y215926D01*
X149425Y216048D01*
X150287Y216405D01*
X151027Y216973D01*
X151595Y217713D01*
X151952Y218575D01*
X152074Y219500D01*
X151952Y220425D01*
X151595Y221287D01*
X151027Y222027D01*
X150287Y222595D01*
X149425Y222952D01*
X148500Y223074D01*
D02*
G37*
G36*
X138500D02*
X137575Y222952D01*
X136713Y222595D01*
X135973Y222027D01*
X135405Y221287D01*
X135048Y220425D01*
X134926Y219500D01*
X135048Y218575D01*
X135405Y217713D01*
X135973Y216973D01*
X136713Y216405D01*
X137575Y216048D01*
X138500Y215926D01*
X139425Y216048D01*
X140287Y216405D01*
X141027Y216973D01*
X141595Y217713D01*
X141952Y218575D01*
X142074Y219500D01*
X141952Y220425D01*
X141595Y221287D01*
X141027Y222027D01*
X140287Y222595D01*
X139425Y222952D01*
X138500Y223074D01*
D02*
G37*
G36*
X58382D02*
X57457Y222952D01*
X56595Y222595D01*
X55855Y222027D01*
X55287Y221287D01*
X54930Y220425D01*
X54808Y219500D01*
X54930Y218575D01*
X55287Y217713D01*
X55855Y216973D01*
X56595Y216405D01*
X57457Y216048D01*
X58382Y215926D01*
X59307Y216048D01*
X60169Y216405D01*
X60909Y216973D01*
X61477Y217713D01*
X61834Y218575D01*
X61956Y219500D01*
X61834Y220425D01*
X61477Y221287D01*
X60909Y222027D01*
X60169Y222595D01*
X59307Y222952D01*
X58382Y223074D01*
D02*
G37*
G36*
X48382D02*
X47457Y222952D01*
X46595Y222595D01*
X45855Y222027D01*
X45287Y221287D01*
X44930Y220425D01*
X44808Y219500D01*
X44930Y218575D01*
X45287Y217713D01*
X45855Y216973D01*
X46595Y216405D01*
X47457Y216048D01*
X48382Y215926D01*
X49307Y216048D01*
X50169Y216405D01*
X50909Y216973D01*
X51477Y217713D01*
X51834Y218575D01*
X51956Y219500D01*
X51834Y220425D01*
X51477Y221287D01*
X50909Y222027D01*
X50169Y222595D01*
X49307Y222952D01*
X48382Y223074D01*
D02*
G37*
G36*
Y233074D02*
X47457Y232952D01*
X46595Y232595D01*
X45855Y232027D01*
X45287Y231287D01*
X44930Y230425D01*
X44808Y229500D01*
X44930Y228575D01*
X45287Y227713D01*
X45855Y226973D01*
X46595Y226405D01*
X47457Y226048D01*
X48382Y225926D01*
X49307Y226048D01*
X50169Y226405D01*
X50186Y226418D01*
X52743Y223861D01*
X53036Y223666D01*
X53382Y223597D01*
X65626D01*
X81497Y207726D01*
Y59918D01*
X80807Y59632D01*
X80057Y59057D01*
X79482Y58307D01*
X79120Y57433D01*
X78997Y56496D01*
X79120Y55559D01*
X79482Y54685D01*
X80057Y53935D01*
X80807Y53360D01*
X81681Y52998D01*
X82618Y52874D01*
X83555Y52998D01*
X84429Y53360D01*
X85179Y53935D01*
X85754Y54685D01*
X86116Y55559D01*
X86240Y56496D01*
X86116Y57433D01*
X85754Y58307D01*
X85179Y59057D01*
X84429Y59632D01*
X83555Y59994D01*
X83303Y60027D01*
Y68900D01*
X83765Y69091D01*
X91715Y61142D01*
Y59999D01*
X91681Y59994D01*
X90807Y59632D01*
X90057Y59057D01*
X89482Y58307D01*
X89120Y57433D01*
X88997Y56496D01*
X89120Y55559D01*
X89482Y54685D01*
X90057Y53935D01*
X90807Y53360D01*
X91681Y52998D01*
X92618Y52874D01*
X93555Y52998D01*
X94429Y53360D01*
X95179Y53935D01*
X95754Y54685D01*
X96116Y55559D01*
X96240Y56496D01*
X96116Y57433D01*
X95754Y58307D01*
X95179Y59057D01*
X94429Y59632D01*
X93555Y59994D01*
X93521Y59999D01*
Y61516D01*
X93453Y61861D01*
X93257Y62154D01*
X84484Y70927D01*
Y77342D01*
X84946Y77533D01*
X101497Y60983D01*
Y59918D01*
X100807Y59632D01*
X100057Y59057D01*
X99482Y58307D01*
X99120Y57433D01*
X98997Y56496D01*
X99120Y55559D01*
X99482Y54685D01*
X100057Y53935D01*
X100807Y53360D01*
X101681Y52998D01*
X102618Y52874D01*
X103555Y52998D01*
X104429Y53360D01*
X105179Y53935D01*
X105754Y54685D01*
X106116Y55559D01*
X106240Y56496D01*
X106116Y57433D01*
X105754Y58307D01*
X105179Y59057D01*
X104429Y59632D01*
X103555Y59994D01*
X103303Y60027D01*
Y61357D01*
X103303Y61357D01*
X103234Y61702D01*
X103039Y61995D01*
X103039Y61995D01*
X85665Y79369D01*
Y86636D01*
X86127Y86828D01*
X111715Y61240D01*
Y59999D01*
X111681Y59994D01*
X110807Y59632D01*
X110057Y59057D01*
X109482Y58307D01*
X109120Y57433D01*
X108997Y56496D01*
X109120Y55559D01*
X109482Y54685D01*
X110057Y53935D01*
X110807Y53360D01*
X111681Y52998D01*
X112618Y52874D01*
X113555Y52998D01*
X114429Y53360D01*
X115179Y53935D01*
X115754Y54685D01*
X116116Y55559D01*
X116240Y56496D01*
X116116Y57433D01*
X115754Y58307D01*
X115179Y59057D01*
X114429Y59632D01*
X113555Y59994D01*
X113521Y59999D01*
Y61614D01*
X113452Y61960D01*
X113257Y62253D01*
X86847Y88663D01*
Y207269D01*
X87459Y207881D01*
X87900Y207794D01*
X88591Y207931D01*
X89177Y208323D01*
X89569Y208909D01*
X89706Y209600D01*
X89569Y210291D01*
X89177Y210877D01*
X88591Y211269D01*
X87900Y211406D01*
X87209Y211269D01*
X86623Y210877D01*
X86231Y210291D01*
X86165Y209961D01*
X85665Y210010D01*
Y213014D01*
X85977Y213223D01*
X86369Y213809D01*
X86506Y214500D01*
X86369Y215191D01*
X85977Y215777D01*
X85391Y216169D01*
X84700Y216306D01*
X84009Y216169D01*
X83423Y215777D01*
X83031Y215191D01*
X82894Y214500D01*
X83031Y213809D01*
X83423Y213223D01*
X83859Y212931D01*
Y210242D01*
X83397Y210051D01*
X76106Y217342D01*
X76154Y217940D01*
X76277Y218023D01*
X76669Y218609D01*
X76806Y219300D01*
X76669Y219991D01*
X76277Y220577D01*
X75691Y220969D01*
X75000Y221106D01*
X74309Y220969D01*
X73723Y220577D01*
X73331Y219991D01*
X73194Y219300D01*
X73196Y219288D01*
X72735Y219042D01*
X66639Y225139D01*
X66346Y225334D01*
X66000Y225403D01*
X53756D01*
X51464Y227696D01*
X51477Y227713D01*
X51834Y228575D01*
X51956Y229500D01*
X51834Y230425D01*
X51477Y231287D01*
X50909Y232027D01*
X50169Y232595D01*
X49307Y232952D01*
X48382Y233074D01*
D02*
G37*
G36*
X58382Y213074D02*
X57457Y212952D01*
X56595Y212595D01*
X55855Y212027D01*
X55287Y211287D01*
X54930Y210425D01*
X54808Y209500D01*
X54930Y208575D01*
X55287Y207713D01*
X55855Y206973D01*
X56595Y206405D01*
X57457Y206048D01*
X58382Y205926D01*
X59307Y206048D01*
X60169Y206405D01*
X60909Y206973D01*
X61477Y207713D01*
X61834Y208575D01*
X61956Y209500D01*
X61834Y210425D01*
X61477Y211287D01*
X60909Y212027D01*
X60169Y212595D01*
X59307Y212952D01*
X58382Y213074D01*
D02*
G37*
G36*
Y203074D02*
X57457Y202952D01*
X56595Y202595D01*
X55855Y202027D01*
X55287Y201287D01*
X54930Y200425D01*
X54808Y199500D01*
X54930Y198575D01*
X55287Y197713D01*
X55855Y196973D01*
X56595Y196405D01*
X57457Y196048D01*
X58382Y195926D01*
X59307Y196048D01*
X60169Y196405D01*
X60909Y196973D01*
X61477Y197713D01*
X61834Y198575D01*
X61956Y199500D01*
X61834Y200425D01*
X61477Y201287D01*
X60909Y202027D01*
X60169Y202595D01*
X59307Y202952D01*
X58382Y203074D01*
D02*
G37*
G36*
X48382D02*
X47457Y202952D01*
X46595Y202595D01*
X45855Y202027D01*
X45287Y201287D01*
X44930Y200425D01*
X44808Y199500D01*
X44930Y198575D01*
X45287Y197713D01*
X45855Y196973D01*
X46595Y196405D01*
X47457Y196048D01*
X48382Y195926D01*
X49307Y196048D01*
X50169Y196405D01*
X50909Y196973D01*
X51477Y197713D01*
X51834Y198575D01*
X51956Y199500D01*
X51834Y200425D01*
X51477Y201287D01*
X50909Y202027D01*
X50169Y202595D01*
X49307Y202952D01*
X48382Y203074D01*
D02*
G37*
G36*
X148500D02*
X147575Y202952D01*
X146713Y202595D01*
X145973Y202027D01*
X145405Y201287D01*
X145048Y200425D01*
X144926Y199500D01*
X145048Y198575D01*
X145405Y197713D01*
X145973Y196973D01*
X146713Y196405D01*
X147575Y196048D01*
X148500Y195926D01*
X149425Y196048D01*
X150287Y196405D01*
X151027Y196973D01*
X151595Y197713D01*
X151952Y198575D01*
X151955Y198597D01*
X154526D01*
X159897Y193226D01*
Y192734D01*
X159435Y192542D01*
X156839Y195139D01*
X156546Y195334D01*
X156200Y195403D01*
X143500D01*
X143154Y195334D01*
X142861Y195139D01*
X140304Y192582D01*
X140287Y192595D01*
X139425Y192952D01*
X138500Y193074D01*
X137575Y192952D01*
X136713Y192595D01*
X135973Y192027D01*
X135405Y191287D01*
X135048Y190425D01*
X134926Y189500D01*
X135048Y188575D01*
X135405Y187713D01*
X135973Y186973D01*
X136713Y186405D01*
X137575Y186048D01*
X138500Y185926D01*
X139425Y186048D01*
X140287Y186405D01*
X141027Y186973D01*
X141595Y187713D01*
X141952Y188575D01*
X142074Y189500D01*
X141952Y190425D01*
X141595Y191287D01*
X141582Y191304D01*
X143874Y193597D01*
X155826D01*
X158678Y190745D01*
Y187682D01*
X158216Y187491D01*
X155568Y190139D01*
X155275Y190334D01*
X154930Y190403D01*
X151955D01*
X151952Y190425D01*
X151595Y191287D01*
X151027Y192027D01*
X150287Y192595D01*
X149425Y192952D01*
X148500Y193074D01*
X147575Y192952D01*
X146713Y192595D01*
X145973Y192027D01*
X145405Y191287D01*
X145048Y190425D01*
X144926Y189500D01*
X145048Y188575D01*
X145405Y187713D01*
X145973Y186973D01*
X146713Y186405D01*
X147575Y186048D01*
X148500Y185926D01*
X149425Y186048D01*
X150287Y186405D01*
X151027Y186973D01*
X151595Y187713D01*
X151952Y188575D01*
X151955Y188597D01*
X154556D01*
X157497Y185656D01*
Y184034D01*
X157035Y183842D01*
X155739Y185139D01*
X155446Y185334D01*
X155100Y185403D01*
X143500D01*
X143154Y185334D01*
X142861Y185139D01*
X140304Y182582D01*
X140287Y182595D01*
X139425Y182952D01*
X138500Y183074D01*
X137575Y182952D01*
X136713Y182595D01*
X135973Y182027D01*
X135405Y181287D01*
X135048Y180425D01*
X134926Y179500D01*
X135048Y178575D01*
X135405Y177713D01*
X135973Y176973D01*
X136713Y176405D01*
X137575Y176048D01*
X138500Y175926D01*
X139425Y176048D01*
X140287Y176405D01*
X141027Y176973D01*
X141595Y177713D01*
X141952Y178575D01*
X142074Y179500D01*
X141952Y180425D01*
X141595Y181287D01*
X141582Y181304D01*
X143874Y183597D01*
X154726D01*
X156197Y182126D01*
Y78974D01*
X136561Y59339D01*
X136366Y59046D01*
X136297Y58700D01*
Y58422D01*
X135797Y58323D01*
X135718Y58513D01*
X135077Y59349D01*
X134241Y59990D01*
X133268Y60393D01*
X132724Y60465D01*
Y56496D01*
Y52527D01*
X133268Y52599D01*
X134241Y53002D01*
X135077Y53643D01*
X135718Y54479D01*
X135797Y54669D01*
X136297Y54570D01*
Y51520D01*
X136366Y51174D01*
X136561Y50881D01*
X139109Y48334D01*
X139088Y48307D01*
X138726Y47433D01*
X138602Y46496D01*
X138726Y45559D01*
X139088Y44685D01*
X139663Y43935D01*
X140413Y43360D01*
X141287Y42998D01*
X142224Y42875D01*
X143161Y42998D01*
X144035Y43360D01*
X144785Y43935D01*
X145360Y44685D01*
X145722Y45559D01*
X145846Y46496D01*
X145722Y47433D01*
X145360Y48307D01*
X144785Y49057D01*
X144035Y49632D01*
X143161Y49994D01*
X142224Y50118D01*
X141287Y49994D01*
X140413Y49632D01*
X140386Y49611D01*
X138103Y51894D01*
Y58326D01*
X157035Y77258D01*
X157497Y77066D01*
Y70274D01*
X146661Y59439D01*
X146466Y59146D01*
X146397Y58800D01*
Y51420D01*
X146466Y51074D01*
X146661Y50781D01*
X149109Y48334D01*
X149088Y48307D01*
X148726Y47433D01*
X148602Y46496D01*
X148726Y45559D01*
X149088Y44685D01*
X149663Y43935D01*
X150413Y43360D01*
X151287Y42998D01*
X152224Y42875D01*
X153161Y42998D01*
X154035Y43360D01*
X154785Y43935D01*
X155360Y44685D01*
X155722Y45559D01*
X155846Y46496D01*
X155722Y47433D01*
X155360Y48307D01*
X154785Y49057D01*
X154035Y49632D01*
X153161Y49994D01*
X152224Y50118D01*
X151287Y49994D01*
X150413Y49632D01*
X150386Y49611D01*
X148203Y51794D01*
Y55699D01*
X148703Y55731D01*
X148726Y55559D01*
X149088Y54685D01*
X149663Y53935D01*
X150413Y53360D01*
X151287Y52998D01*
X152224Y52874D01*
X153161Y52998D01*
X154035Y53360D01*
X154785Y53935D01*
X155360Y54685D01*
X155722Y55559D01*
X155797Y56126D01*
X156297Y56093D01*
Y51520D01*
X156366Y51174D01*
X156561Y50881D01*
X159109Y48334D01*
X159088Y48307D01*
X158726Y47433D01*
X158602Y46496D01*
X158726Y45559D01*
X159088Y44685D01*
X159663Y43935D01*
X160413Y43360D01*
X161287Y42998D01*
X162224Y42875D01*
X163161Y42998D01*
X164035Y43360D01*
X164785Y43935D01*
X165360Y44685D01*
X165722Y45559D01*
X165846Y46496D01*
X165722Y47433D01*
X165360Y48307D01*
X164785Y49057D01*
X164035Y49632D01*
X163161Y49994D01*
X162224Y50118D01*
X161287Y49994D01*
X160413Y49632D01*
X160386Y49611D01*
X158103Y51894D01*
Y58426D01*
X160220Y60542D01*
X160220Y60543D01*
X160415Y60835D01*
X160484Y61181D01*
Y63685D01*
X160946Y63876D01*
X166297Y58526D01*
Y56899D01*
X165797Y56866D01*
X165722Y57433D01*
X165360Y58307D01*
X164785Y59057D01*
X164035Y59632D01*
X163161Y59994D01*
X162224Y60118D01*
X161287Y59994D01*
X160413Y59632D01*
X159663Y59057D01*
X159088Y58307D01*
X158726Y57433D01*
X158602Y56496D01*
X158726Y55559D01*
X159088Y54685D01*
X159663Y53935D01*
X160413Y53360D01*
X161287Y52998D01*
X162224Y52874D01*
X163161Y52998D01*
X164035Y53360D01*
X164785Y53935D01*
X165360Y54685D01*
X165722Y55559D01*
X165797Y56126D01*
X166297Y56093D01*
Y51520D01*
X166366Y51174D01*
X166561Y50881D01*
X169109Y48334D01*
X169088Y48307D01*
X168726Y47433D01*
X168603Y46496D01*
X168726Y45559D01*
X169088Y44685D01*
X169663Y43935D01*
X170413Y43360D01*
X171287Y42998D01*
X172224Y42875D01*
X173161Y42998D01*
X174035Y43360D01*
X174785Y43935D01*
X175360Y44685D01*
X175722Y45559D01*
X175846Y46496D01*
X175722Y47433D01*
X175360Y48307D01*
X174785Y49057D01*
X174035Y49632D01*
X173161Y49994D01*
X172224Y50118D01*
X171287Y49994D01*
X170413Y49632D01*
X170386Y49611D01*
X168103Y51894D01*
Y58900D01*
X168103Y58900D01*
X168034Y59246D01*
X167839Y59539D01*
X161703Y65674D01*
Y193600D01*
X161634Y193946D01*
X161439Y194239D01*
X155539Y200139D01*
X155246Y200334D01*
X154900Y200403D01*
X151955D01*
X151952Y200425D01*
X151595Y201287D01*
X151027Y202027D01*
X150287Y202595D01*
X149425Y202952D01*
X148500Y203074D01*
D02*
G37*
G36*
X175357Y195100D02*
X171858D01*
Y191600D01*
X175357D01*
Y195100D01*
D02*
G37*
G36*
X170858D02*
X167358D01*
Y191600D01*
X170858D01*
Y195100D01*
D02*
G37*
G36*
X181358Y194721D02*
X180420Y194598D01*
X179547Y194236D01*
X178797Y193661D01*
X178221Y192911D01*
X177859Y192037D01*
X177736Y191100D01*
X177859Y190163D01*
X178221Y189289D01*
X178797Y188539D01*
X179547Y187964D01*
X180420Y187602D01*
X181358Y187478D01*
X182295Y187602D01*
X183168Y187964D01*
X183918Y188539D01*
X184494Y189289D01*
X184856Y190163D01*
X184979Y191100D01*
X184856Y192037D01*
X184494Y192911D01*
X183918Y193661D01*
X183168Y194236D01*
X182295Y194598D01*
X181358Y194721D01*
D02*
G37*
G36*
X175357Y190600D02*
X171858D01*
Y187100D01*
X175357D01*
Y190600D01*
D02*
G37*
G36*
X170858D02*
X167358D01*
Y187100D01*
X170858D01*
Y190600D01*
D02*
G37*
G36*
X58382Y193074D02*
X57457Y192952D01*
X56595Y192595D01*
X55855Y192027D01*
X55287Y191287D01*
X54930Y190425D01*
X54808Y189500D01*
X54930Y188575D01*
X55287Y187713D01*
X55855Y186973D01*
X56595Y186405D01*
X57457Y186048D01*
X58382Y185926D01*
X59307Y186048D01*
X60169Y186405D01*
X60909Y186973D01*
X61477Y187713D01*
X61834Y188575D01*
X61956Y189500D01*
X61834Y190425D01*
X61477Y191287D01*
X60909Y192027D01*
X60169Y192595D01*
X59307Y192952D01*
X58382Y193074D01*
D02*
G37*
G36*
X48382D02*
X47457Y192952D01*
X46595Y192595D01*
X45855Y192027D01*
X45287Y191287D01*
X44930Y190425D01*
X44808Y189500D01*
X44930Y188575D01*
X45287Y187713D01*
X45855Y186973D01*
X46595Y186405D01*
X47457Y186048D01*
X48382Y185926D01*
X49307Y186048D01*
X50169Y186405D01*
X50909Y186973D01*
X51477Y187713D01*
X51834Y188575D01*
X51956Y189500D01*
X51834Y190425D01*
X51477Y191287D01*
X50909Y192027D01*
X50169Y192595D01*
X49307Y192952D01*
X48382Y193074D01*
D02*
G37*
G36*
X148500Y183074D02*
X147575Y182952D01*
X146713Y182595D01*
X145973Y182027D01*
X145405Y181287D01*
X145048Y180425D01*
X144926Y179500D01*
X145048Y178575D01*
X145405Y177713D01*
X145973Y176973D01*
X146713Y176405D01*
X147575Y176048D01*
X148500Y175926D01*
X149425Y176048D01*
X150287Y176405D01*
X151027Y176973D01*
X151595Y177713D01*
X151952Y178575D01*
X152074Y179500D01*
X151952Y180425D01*
X151595Y181287D01*
X151027Y182027D01*
X150287Y182595D01*
X149425Y182952D01*
X148500Y183074D01*
D02*
G37*
G36*
X58382D02*
X57457Y182952D01*
X56595Y182595D01*
X55855Y182027D01*
X55287Y181287D01*
X54930Y180425D01*
X54808Y179500D01*
X54930Y178575D01*
X55287Y177713D01*
X55855Y176973D01*
X56595Y176405D01*
X57457Y176048D01*
X58382Y175926D01*
X59307Y176048D01*
X60169Y176405D01*
X60909Y176973D01*
X61477Y177713D01*
X61834Y178575D01*
X61956Y179500D01*
X61834Y180425D01*
X61477Y181287D01*
X60909Y182027D01*
X60169Y182595D01*
X59307Y182952D01*
X58382Y183074D01*
D02*
G37*
G36*
X48382D02*
X47457Y182952D01*
X46595Y182595D01*
X45855Y182027D01*
X45287Y181287D01*
X44930Y180425D01*
X44808Y179500D01*
X44930Y178575D01*
X45287Y177713D01*
X45855Y176973D01*
X46595Y176405D01*
X47457Y176048D01*
X48382Y175926D01*
X49307Y176048D01*
X50169Y176405D01*
X50909Y176973D01*
X51477Y177713D01*
X51834Y178575D01*
X51956Y179500D01*
X51834Y180425D01*
X51477Y181287D01*
X50909Y182027D01*
X50169Y182595D01*
X49307Y182952D01*
X48382Y183074D01*
D02*
G37*
G36*
X120500Y268404D02*
X120500Y268404D01*
X41500D01*
X41039Y268313D01*
X40648Y268052D01*
X40648Y268052D01*
X35249Y262651D01*
X34987Y262261D01*
X34896Y261800D01*
X34896Y261800D01*
Y259500D01*
Y249300D01*
X34896Y249300D01*
X34896Y249300D01*
Y239500D01*
Y209600D01*
X34896Y209600D01*
X34896Y209600D01*
Y134000D01*
X34896Y134000D01*
X34987Y133539D01*
X35249Y133149D01*
X52849Y115549D01*
X53239Y115287D01*
X53700Y115196D01*
X53700Y115196D01*
X67074D01*
X67123Y115123D01*
X67709Y114731D01*
X68400Y114594D01*
X69091Y114731D01*
X69677Y115123D01*
X70069Y115709D01*
X70206Y116400D01*
X70069Y117091D01*
X69677Y117677D01*
X69091Y118069D01*
X68400Y118206D01*
X67709Y118069D01*
X67123Y117677D01*
X67074Y117604D01*
X54199D01*
X37304Y134499D01*
Y208296D01*
X45046D01*
X45287Y207713D01*
X45855Y206973D01*
X46595Y206405D01*
X47457Y206048D01*
X48382Y205926D01*
X49307Y206048D01*
X50169Y206405D01*
X50909Y206973D01*
X51477Y207713D01*
X51834Y208575D01*
X51956Y209500D01*
X51834Y210425D01*
X51477Y211287D01*
X50909Y212027D01*
X50169Y212595D01*
X49307Y212952D01*
X48382Y213074D01*
X47457Y212952D01*
X46595Y212595D01*
X45855Y212027D01*
X45287Y211287D01*
X45046Y210704D01*
X37304D01*
Y238296D01*
X45046D01*
X45287Y237713D01*
X45855Y236973D01*
X46595Y236405D01*
X47457Y236048D01*
X48382Y235926D01*
X49307Y236048D01*
X50169Y236405D01*
X50909Y236973D01*
X51477Y237713D01*
X51834Y238575D01*
X51956Y239500D01*
X51834Y240425D01*
X51477Y241287D01*
X50909Y242027D01*
X50169Y242595D01*
X49307Y242952D01*
X48382Y243074D01*
X47457Y242952D01*
X46595Y242595D01*
X45855Y242027D01*
X45287Y241287D01*
X45046Y240704D01*
X37304D01*
Y248296D01*
X45046D01*
X45287Y247713D01*
X45855Y246973D01*
X46595Y246405D01*
X47457Y246048D01*
X48382Y245926D01*
X49307Y246048D01*
X50169Y246405D01*
X50909Y246973D01*
X51477Y247713D01*
X51834Y248575D01*
X51956Y249500D01*
X51834Y250425D01*
X51477Y251287D01*
X50909Y252027D01*
X50169Y252595D01*
X49307Y252952D01*
X48382Y253074D01*
X47457Y252952D01*
X46595Y252595D01*
X45855Y252027D01*
X45287Y251287D01*
X45046Y250704D01*
X37304D01*
Y258296D01*
X45046D01*
X45287Y257713D01*
X45855Y256973D01*
X46595Y256405D01*
X47457Y256048D01*
X48382Y255926D01*
X49307Y256048D01*
X50169Y256405D01*
X50909Y256973D01*
X51477Y257713D01*
X51834Y258575D01*
X51956Y259500D01*
X51834Y260425D01*
X51477Y261287D01*
X50909Y262027D01*
X50169Y262595D01*
X49307Y262952D01*
X48382Y263074D01*
X47457Y262952D01*
X46595Y262595D01*
X45855Y262027D01*
X45287Y261287D01*
X45046Y260704D01*
X37304D01*
Y261301D01*
X41999Y265996D01*
X120001D01*
X125096Y260901D01*
Y204400D01*
X125096Y204400D01*
X125096Y204400D01*
Y169100D01*
X125096Y169100D01*
X125187Y168639D01*
X125449Y168248D01*
X130091Y163606D01*
X130091Y163606D01*
X130482Y163345D01*
X130942Y163253D01*
X136995D01*
X137095Y162753D01*
X136713Y162595D01*
X135973Y162027D01*
X135405Y161287D01*
X135048Y160425D01*
X134926Y159500D01*
X135048Y158575D01*
X135405Y157713D01*
X135973Y156973D01*
X136713Y156405D01*
X137575Y156048D01*
X138500Y155926D01*
X139425Y156048D01*
X140287Y156405D01*
X141027Y156973D01*
X141595Y157713D01*
X141952Y158575D01*
X142074Y159500D01*
X141952Y160425D01*
X141595Y161287D01*
X141027Y162027D01*
X140287Y162595D01*
X139905Y162753D01*
X140005Y163253D01*
X143044D01*
X145289Y161008D01*
X145048Y160425D01*
X144926Y159500D01*
X145048Y158575D01*
X145405Y157713D01*
X145973Y156973D01*
X146713Y156405D01*
X147575Y156048D01*
X148500Y155926D01*
X149425Y156048D01*
X150287Y156405D01*
X151027Y156973D01*
X151595Y157713D01*
X151952Y158575D01*
X152074Y159500D01*
X151952Y160425D01*
X151595Y161287D01*
X151027Y162027D01*
X150287Y162595D01*
X149425Y162952D01*
X148500Y163074D01*
X147575Y162952D01*
X146992Y162711D01*
X144394Y165309D01*
X144003Y165570D01*
X143543Y165662D01*
X143543Y165662D01*
X139799D01*
X139700Y166162D01*
X140287Y166405D01*
X141027Y166973D01*
X141595Y167713D01*
X141952Y168575D01*
X142074Y169500D01*
X141952Y170425D01*
X141595Y171287D01*
X141027Y172027D01*
X140287Y172595D01*
X139425Y172952D01*
X138500Y173074D01*
X137575Y172952D01*
X136713Y172595D01*
X135973Y172027D01*
X135405Y171287D01*
X135048Y170425D01*
X134926Y169500D01*
X135048Y168575D01*
X135405Y167713D01*
X135973Y166973D01*
X136713Y166405D01*
X137300Y166162D01*
X137201Y165662D01*
X131441D01*
X127504Y169599D01*
Y203396D01*
X137340D01*
X137439Y202896D01*
X136713Y202595D01*
X135973Y202027D01*
X135405Y201287D01*
X135048Y200425D01*
X134926Y199500D01*
X135048Y198575D01*
X135405Y197713D01*
X135973Y196973D01*
X136713Y196405D01*
X137575Y196048D01*
X138500Y195926D01*
X139425Y196048D01*
X140287Y196405D01*
X141027Y196973D01*
X141595Y197713D01*
X141952Y198575D01*
X142074Y199500D01*
X141952Y200425D01*
X141595Y201287D01*
X141027Y202027D01*
X140287Y202595D01*
X139561Y202896D01*
X139660Y203396D01*
X142300D01*
X142300Y203396D01*
X142761Y203487D01*
X143151Y203748D01*
X146201Y206798D01*
X146713Y206405D01*
X147575Y206048D01*
X148500Y205926D01*
X149425Y206048D01*
X150287Y206405D01*
X151027Y206973D01*
X151595Y207713D01*
X151769Y208133D01*
X152298Y208199D01*
X162772Y197725D01*
Y184624D01*
X162772Y184624D01*
X162864Y184163D01*
X163125Y183772D01*
X176411Y170486D01*
X176394Y170400D01*
X176531Y169709D01*
X176923Y169123D01*
X177509Y168731D01*
X178200Y168594D01*
X178891Y168731D01*
X179477Y169123D01*
X179869Y169709D01*
X180006Y170400D01*
X179869Y171091D01*
X179477Y171677D01*
X178891Y172069D01*
X178200Y172206D01*
X178114Y172189D01*
X165181Y185122D01*
Y198224D01*
X165181Y198224D01*
X165089Y198685D01*
X164828Y199075D01*
X153551Y210351D01*
X153161Y210613D01*
X152700Y210704D01*
X152700Y210704D01*
X151836D01*
X151595Y211287D01*
X151027Y212027D01*
X150287Y212595D01*
X149425Y212952D01*
X148500Y213074D01*
X147575Y212952D01*
X146713Y212595D01*
X145973Y212027D01*
X145405Y211287D01*
X145048Y210425D01*
X144926Y209500D01*
X144992Y208996D01*
X141801Y205804D01*
X140143D01*
X140044Y206304D01*
X140287Y206405D01*
X141027Y206973D01*
X141595Y207713D01*
X141952Y208575D01*
X142074Y209500D01*
X141952Y210425D01*
X141595Y211287D01*
X141027Y212027D01*
X140287Y212595D01*
X139425Y212952D01*
X138500Y213074D01*
X137575Y212952D01*
X136713Y212595D01*
X135973Y212027D01*
X135405Y211287D01*
X135048Y210425D01*
X134926Y209500D01*
X135048Y208575D01*
X135405Y207713D01*
X135973Y206973D01*
X136713Y206405D01*
X136956Y206304D01*
X136857Y205804D01*
X127504D01*
Y261400D01*
X127504Y261400D01*
X127413Y261861D01*
X127152Y262251D01*
X121352Y268052D01*
X120961Y268313D01*
X120500Y268404D01*
D02*
G37*
G36*
X148500Y173074D02*
X147575Y172952D01*
X146713Y172595D01*
X145973Y172027D01*
X145405Y171287D01*
X145048Y170425D01*
X144926Y169500D01*
X145048Y168575D01*
X145405Y167713D01*
X145973Y166973D01*
X146713Y166405D01*
X147575Y166048D01*
X148500Y165926D01*
X149425Y166048D01*
X150287Y166405D01*
X151027Y166973D01*
X151595Y167713D01*
X151952Y168575D01*
X152074Y169500D01*
X151952Y170425D01*
X151595Y171287D01*
X151027Y172027D01*
X150287Y172595D01*
X149425Y172952D01*
X148500Y173074D01*
D02*
G37*
G36*
X58382D02*
X57457Y172952D01*
X56595Y172595D01*
X55855Y172027D01*
X55287Y171287D01*
X54930Y170425D01*
X54808Y169500D01*
X54930Y168575D01*
X55287Y167713D01*
X55855Y166973D01*
X56595Y166405D01*
X57457Y166048D01*
X58382Y165926D01*
X59307Y166048D01*
X60169Y166405D01*
X60909Y166973D01*
X61477Y167713D01*
X61834Y168575D01*
X61956Y169500D01*
X61834Y170425D01*
X61477Y171287D01*
X60909Y172027D01*
X60169Y172595D01*
X59307Y172952D01*
X58382Y173074D01*
D02*
G37*
G36*
X48382D02*
X47457Y172952D01*
X46595Y172595D01*
X45855Y172027D01*
X45287Y171287D01*
X44930Y170425D01*
X44808Y169500D01*
X44930Y168575D01*
X45287Y167713D01*
X45855Y166973D01*
X46595Y166405D01*
X47457Y166048D01*
X48382Y165926D01*
X49307Y166048D01*
X50169Y166405D01*
X50909Y166973D01*
X51477Y167713D01*
X51834Y168575D01*
X51956Y169500D01*
X51834Y170425D01*
X51477Y171287D01*
X50909Y172027D01*
X50169Y172595D01*
X49307Y172952D01*
X48382Y173074D01*
D02*
G37*
G36*
Y163074D02*
X47457Y162952D01*
X46595Y162595D01*
X45855Y162027D01*
X45287Y161287D01*
X44930Y160425D01*
X44808Y159500D01*
X44930Y158575D01*
X45287Y157713D01*
X45855Y156973D01*
X46595Y156405D01*
X47457Y156048D01*
X48382Y155926D01*
X49307Y156048D01*
X50169Y156405D01*
X50909Y156973D01*
X51477Y157713D01*
X51834Y158575D01*
X51956Y159500D01*
X51834Y160425D01*
X51477Y161287D01*
X50909Y162027D01*
X50169Y162595D01*
X49307Y162952D01*
X48382Y163074D01*
D02*
G37*
G36*
X148500Y153074D02*
X147575Y152952D01*
X146713Y152595D01*
X145973Y152027D01*
X145405Y151287D01*
X145048Y150425D01*
X144926Y149500D01*
X145048Y148575D01*
X145405Y147713D01*
X145418Y147696D01*
X143126Y145403D01*
X137100D01*
X136754Y145334D01*
X136461Y145139D01*
X133518Y142195D01*
X133009Y142389D01*
X132973Y142696D01*
X136696Y146418D01*
X136713Y146405D01*
X137575Y146048D01*
X138500Y145926D01*
X139425Y146048D01*
X140287Y146405D01*
X141027Y146973D01*
X141595Y147713D01*
X141952Y148575D01*
X142074Y149500D01*
X141952Y150425D01*
X141595Y151287D01*
X141027Y152027D01*
X140287Y152595D01*
X139425Y152952D01*
X138500Y153074D01*
X137575Y152952D01*
X136713Y152595D01*
X135973Y152027D01*
X135405Y151287D01*
X135048Y150425D01*
X134926Y149500D01*
X135048Y148575D01*
X135405Y147713D01*
X135418Y147696D01*
X131361Y143639D01*
X131166Y143346D01*
X131097Y143000D01*
Y128385D01*
X120418Y117706D01*
X120222Y117413D01*
X120153Y117068D01*
Y49488D01*
X118064Y47399D01*
X116121D01*
X116116Y47433D01*
X115754Y48307D01*
X115179Y49057D01*
X114429Y49632D01*
X113555Y49994D01*
X112618Y50118D01*
X111681Y49994D01*
X110807Y49632D01*
X110057Y49057D01*
X109482Y48307D01*
X109120Y47433D01*
X108997Y46496D01*
X109120Y45559D01*
X109482Y44685D01*
X110057Y43935D01*
X110807Y43360D01*
X111681Y42998D01*
X112618Y42875D01*
X113555Y42998D01*
X114429Y43360D01*
X115179Y43935D01*
X115754Y44685D01*
X116116Y45559D01*
X116121Y45593D01*
X118439D01*
X118784Y45662D01*
X119077Y45857D01*
X120873Y47653D01*
X121335Y47462D01*
Y45012D01*
X114426Y38103D01*
X104274D01*
X103521Y38856D01*
Y42993D01*
X103555Y42998D01*
X104429Y43360D01*
X105179Y43935D01*
X105754Y44685D01*
X106116Y45559D01*
X106240Y46496D01*
X106116Y47433D01*
X105754Y48307D01*
X105179Y49057D01*
X104429Y49632D01*
X103555Y49994D01*
X102618Y50118D01*
X101681Y49994D01*
X100807Y49632D01*
X100057Y49057D01*
X99482Y48307D01*
X99120Y47433D01*
X98997Y46496D01*
X99120Y45559D01*
X99482Y44685D01*
X100057Y43935D01*
X100807Y43360D01*
X101681Y42998D01*
X101715Y42993D01*
Y38482D01*
X101784Y38136D01*
X101979Y37843D01*
X102458Y37365D01*
X102266Y36903D01*
X95574D01*
X93521Y38956D01*
Y42993D01*
X93555Y42998D01*
X94429Y43360D01*
X95179Y43935D01*
X95754Y44685D01*
X96116Y45559D01*
X96240Y46496D01*
X96116Y47433D01*
X95754Y48307D01*
X95179Y49057D01*
X94429Y49632D01*
X93555Y49994D01*
X92618Y50118D01*
X91681Y49994D01*
X90807Y49632D01*
X90057Y49057D01*
X89482Y48307D01*
X89120Y47433D01*
X88997Y46496D01*
X89120Y45559D01*
X89482Y44685D01*
X90057Y43935D01*
X90807Y43360D01*
X91681Y42998D01*
X91715Y42993D01*
Y38582D01*
X91784Y38236D01*
X91979Y37943D01*
X93758Y36165D01*
X93566Y35703D01*
X86674D01*
X83521Y38856D01*
Y42993D01*
X83555Y42998D01*
X84429Y43360D01*
X85179Y43935D01*
X85754Y44685D01*
X86116Y45559D01*
X86240Y46496D01*
X86116Y47433D01*
X85754Y48307D01*
X85179Y49057D01*
X84429Y49632D01*
X83555Y49994D01*
X82618Y50118D01*
X81681Y49994D01*
X80807Y49632D01*
X80057Y49057D01*
X79482Y48307D01*
X79120Y47433D01*
X78997Y46496D01*
X79120Y45559D01*
X79482Y44685D01*
X80057Y43935D01*
X80807Y43360D01*
X81681Y42998D01*
X81715Y42993D01*
Y38482D01*
X81784Y38136D01*
X81980Y37843D01*
X85661Y34161D01*
X85954Y33966D01*
X86300Y33897D01*
X115741D01*
X116086Y33966D01*
X116379Y34161D01*
X125239Y43021D01*
X125434Y43314D01*
X125503Y43659D01*
X125503Y43659D01*
Y115226D01*
X146696Y136418D01*
X146713Y136405D01*
X147575Y136048D01*
X148500Y135926D01*
X149425Y136048D01*
X150287Y136405D01*
X151027Y136973D01*
X151595Y137713D01*
X151952Y138575D01*
X152074Y139500D01*
X151952Y140425D01*
X151595Y141287D01*
X151027Y142027D01*
X150287Y142595D01*
X149425Y142952D01*
X148500Y143074D01*
X147575Y142952D01*
X146713Y142595D01*
X145973Y142027D01*
X145405Y141287D01*
X145048Y140425D01*
X144926Y139500D01*
X145048Y138575D01*
X145405Y137713D01*
X145418Y137696D01*
X135946Y128224D01*
X135484Y128415D01*
Y135207D01*
X136696Y136418D01*
X136713Y136405D01*
X137575Y136048D01*
X138500Y135926D01*
X139425Y136048D01*
X140287Y136405D01*
X141027Y136973D01*
X141595Y137713D01*
X141952Y138575D01*
X142074Y139500D01*
X141952Y140425D01*
X141595Y141287D01*
X141027Y142027D01*
X140287Y142595D01*
X139425Y142952D01*
X138500Y143074D01*
X137862Y142990D01*
X137569Y143456D01*
X137662Y143597D01*
X143500D01*
X143846Y143666D01*
X144139Y143861D01*
X146696Y146418D01*
X146713Y146405D01*
X147575Y146048D01*
X148500Y145926D01*
X149425Y146048D01*
X150287Y146405D01*
X151027Y146973D01*
X151595Y147713D01*
X151952Y148575D01*
X152074Y149500D01*
X151952Y150425D01*
X151595Y151287D01*
X151027Y152027D01*
X150287Y152595D01*
X149425Y152952D01*
X148500Y153074D01*
D02*
G37*
G36*
X48382D02*
X47457Y152952D01*
X46595Y152595D01*
X45855Y152027D01*
X45287Y151287D01*
X44930Y150425D01*
X44808Y149500D01*
X44930Y148575D01*
X45287Y147713D01*
X45855Y146973D01*
X46595Y146405D01*
X47457Y146048D01*
X48382Y145926D01*
X49307Y146048D01*
X50169Y146405D01*
X50909Y146973D01*
X51477Y147713D01*
X51834Y148575D01*
X51956Y149500D01*
X51834Y150425D01*
X51477Y151287D01*
X50909Y152027D01*
X50169Y152595D01*
X49307Y152952D01*
X48382Y153074D01*
D02*
G37*
G36*
X58382Y163074D02*
X57457Y162952D01*
X56595Y162595D01*
X55855Y162027D01*
X55287Y161287D01*
X54930Y160425D01*
X54808Y159500D01*
X54930Y158575D01*
X55287Y157713D01*
X55855Y156973D01*
X56595Y156405D01*
X57457Y156048D01*
X58382Y155926D01*
X59307Y156048D01*
X60169Y156405D01*
X60186Y156418D01*
X72478Y144127D01*
Y142553D01*
X72016Y142361D01*
X64239Y150139D01*
X63946Y150334D01*
X63600Y150403D01*
X61837D01*
X61834Y150425D01*
X61477Y151287D01*
X60909Y152027D01*
X60169Y152595D01*
X59307Y152952D01*
X58382Y153074D01*
X57457Y152952D01*
X56595Y152595D01*
X55855Y152027D01*
X55287Y151287D01*
X54930Y150425D01*
X54808Y149500D01*
X54930Y148575D01*
X55287Y147713D01*
X55855Y146973D01*
X56595Y146405D01*
X57457Y146048D01*
X58382Y145926D01*
X59307Y146048D01*
X60169Y146405D01*
X60909Y146973D01*
X61477Y147713D01*
X61834Y148575D01*
X61837Y148597D01*
X63226D01*
X71297Y140526D01*
Y115374D01*
X68126Y112203D01*
X62227D01*
X61977Y112577D01*
X61391Y112969D01*
X60700Y113106D01*
X60009Y112969D01*
X59423Y112577D01*
X59031Y111991D01*
X58894Y111300D01*
X59031Y110609D01*
X59423Y110023D01*
X59797Y109773D01*
Y99434D01*
X59335Y99242D01*
X56639Y101939D01*
X56346Y102134D01*
X56000Y102203D01*
X29027D01*
X28777Y102577D01*
X28191Y102969D01*
X27500Y103106D01*
X26809Y102969D01*
X26223Y102577D01*
X25831Y101991D01*
X25694Y101300D01*
X25831Y100609D01*
X26223Y100023D01*
X26809Y99631D01*
X27500Y99494D01*
X28191Y99631D01*
X28777Y100023D01*
X29027Y100397D01*
X55626D01*
X59031Y96991D01*
X59031Y96991D01*
X58894Y96300D01*
X59031Y95609D01*
X59423Y95023D01*
X60009Y94631D01*
X60700Y94494D01*
X61391Y94631D01*
X61977Y95023D01*
X62369Y95609D01*
X62506Y96300D01*
X62369Y96991D01*
X61977Y97577D01*
X61603Y97827D01*
Y109773D01*
X61977Y110023D01*
X62227Y110397D01*
X68500D01*
X68846Y110466D01*
X69139Y110661D01*
X72016Y113539D01*
X72478Y113347D01*
Y111955D01*
X68441Y107919D01*
X68000Y108006D01*
X67309Y107869D01*
X66723Y107477D01*
X66331Y106891D01*
X66194Y106200D01*
X66331Y105509D01*
X66723Y104923D01*
X67309Y104531D01*
X68000Y104394D01*
X68691Y104531D01*
X69277Y104923D01*
X69669Y105509D01*
X69806Y106200D01*
X69719Y106641D01*
X74020Y110942D01*
X74020Y110942D01*
X74216Y111235D01*
X74284Y111581D01*
Y144501D01*
X74216Y144846D01*
X74020Y145139D01*
X61463Y157696D01*
X61477Y157713D01*
X61834Y158575D01*
X61956Y159500D01*
X61834Y160425D01*
X61477Y161287D01*
X60909Y162027D01*
X60169Y162595D01*
X59307Y162952D01*
X58382Y163074D01*
D02*
G37*
G36*
Y143074D02*
X57457Y142952D01*
X56595Y142595D01*
X55855Y142027D01*
X55287Y141287D01*
X54930Y140425D01*
X54808Y139500D01*
X54930Y138575D01*
X55287Y137713D01*
X55855Y136973D01*
X56595Y136405D01*
X57457Y136048D01*
X58382Y135926D01*
X59307Y136048D01*
X60169Y136405D01*
X60909Y136973D01*
X61477Y137713D01*
X61834Y138575D01*
X61956Y139500D01*
X61834Y140425D01*
X61477Y141287D01*
X60909Y142027D01*
X60169Y142595D01*
X59307Y142952D01*
X58382Y143074D01*
D02*
G37*
G36*
X48382D02*
X47457Y142952D01*
X46595Y142595D01*
X45855Y142027D01*
X45287Y141287D01*
X44930Y140425D01*
X44808Y139500D01*
X44930Y138575D01*
X45287Y137713D01*
X45855Y136973D01*
X46595Y136405D01*
X47457Y136048D01*
X48382Y135926D01*
X49307Y136048D01*
X50169Y136405D01*
X50909Y136973D01*
X51477Y137713D01*
X51834Y138575D01*
X51956Y139500D01*
X51834Y140425D01*
X51477Y141287D01*
X50909Y142027D01*
X50169Y142595D01*
X49307Y142952D01*
X48382Y143074D01*
D02*
G37*
G36*
X23542Y161006D02*
X22851Y160869D01*
X22265Y160477D01*
X21874Y159891D01*
X21736Y159200D01*
X21874Y158509D01*
X22265Y157923D01*
X22639Y157673D01*
Y81127D01*
X22265Y80877D01*
X21874Y80291D01*
X21736Y79600D01*
X21874Y78909D01*
X22265Y78323D01*
X22851Y77931D01*
X23542Y77794D01*
X24234Y77931D01*
X24820Y78323D01*
X25211Y78909D01*
X25349Y79600D01*
X25211Y80291D01*
X24820Y80877D01*
X24446Y81127D01*
Y157673D01*
X24820Y157923D01*
X25211Y158509D01*
X25349Y159200D01*
X25211Y159891D01*
X24820Y160477D01*
X24234Y160869D01*
X23542Y161006D01*
D02*
G37*
G36*
X15800Y134006D02*
X15109Y133869D01*
X14523Y133477D01*
X14131Y132891D01*
X13994Y132200D01*
X14131Y131509D01*
X14523Y130923D01*
X14897Y130673D01*
Y81500D01*
X14966Y81154D01*
X15161Y80861D01*
X26189Y69834D01*
X26189Y69834D01*
X26482Y69638D01*
X26828Y69569D01*
X45677D01*
X45927Y69195D01*
X46514Y68804D01*
X47205Y68666D01*
X47896Y68804D01*
X48482Y69195D01*
X48874Y69781D01*
X49011Y70472D01*
X48874Y71164D01*
X48482Y71750D01*
X47896Y72141D01*
X47205Y72279D01*
X46514Y72141D01*
X45927Y71750D01*
X45677Y71376D01*
X27202D01*
X16703Y81874D01*
Y130673D01*
X17077Y130923D01*
X17469Y131509D01*
X17606Y132200D01*
X17469Y132891D01*
X17077Y133477D01*
X16491Y133869D01*
X15800Y134006D01*
D02*
G37*
G36*
X131724Y60465D02*
X131180Y60393D01*
X130207Y59990D01*
X129371Y59349D01*
X128730Y58513D01*
X128327Y57540D01*
X128255Y56996D01*
X131724D01*
Y60465D01*
D02*
G37*
G36*
X73118D02*
Y56996D01*
X76587D01*
X76515Y57540D01*
X76112Y58513D01*
X75471Y59349D01*
X74635Y59990D01*
X73662Y60393D01*
X73118Y60465D01*
D02*
G37*
G36*
X72118D02*
X71574Y60393D01*
X70601Y59990D01*
X69765Y59349D01*
X69124Y58513D01*
X68721Y57540D01*
X68649Y56996D01*
X72118D01*
Y60465D01*
D02*
G37*
G36*
X172224Y60118D02*
X171287Y59994D01*
X170413Y59632D01*
X169663Y59057D01*
X169088Y58307D01*
X168726Y57433D01*
X168603Y56496D01*
X168726Y55559D01*
X169088Y54685D01*
X169663Y53935D01*
X170413Y53360D01*
X171287Y52998D01*
X172224Y52874D01*
X173161Y52998D01*
X174035Y53360D01*
X174785Y53935D01*
X175360Y54685D01*
X175722Y55559D01*
X175846Y56496D01*
X175722Y57433D01*
X175360Y58307D01*
X174785Y59057D01*
X174035Y59632D01*
X173161Y59994D01*
X172224Y60118D01*
D02*
G37*
G36*
X142224D02*
X141287Y59994D01*
X140413Y59632D01*
X139663Y59057D01*
X139088Y58307D01*
X138726Y57433D01*
X138602Y56496D01*
X138726Y55559D01*
X139088Y54685D01*
X139663Y53935D01*
X140413Y53360D01*
X141287Y52998D01*
X142224Y52874D01*
X143161Y52998D01*
X144035Y53360D01*
X144785Y53935D01*
X145360Y54685D01*
X145722Y55559D01*
X145846Y56496D01*
X145722Y57433D01*
X145360Y58307D01*
X144785Y59057D01*
X144035Y59632D01*
X143161Y59994D01*
X142224Y60118D01*
D02*
G37*
G36*
X131724Y55996D02*
X128255D01*
X128327Y55452D01*
X128730Y54479D01*
X129371Y53643D01*
X130207Y53002D01*
X131180Y52599D01*
X131724Y52527D01*
Y55996D01*
D02*
G37*
G36*
X76587D02*
X73118D01*
Y52527D01*
X73662Y52599D01*
X74635Y53002D01*
X75471Y53643D01*
X76112Y54479D01*
X76515Y55452D01*
X76587Y55996D01*
D02*
G37*
G36*
X72118D02*
X68649D01*
X68721Y55452D01*
X69124Y54479D01*
X69765Y53643D01*
X70601Y53002D01*
X71574Y52599D01*
X72118Y52527D01*
Y55996D01*
D02*
G37*
G36*
X136015Y49987D02*
X128833D01*
Y42805D01*
X136015D01*
Y49987D01*
D02*
G37*
G36*
X76409D02*
X69228D01*
Y42805D01*
X76409D01*
Y49987D01*
D02*
G37*
G36*
X177165Y31533D02*
X175312Y31387D01*
X173504Y30953D01*
X171787Y30241D01*
X170202Y29270D01*
X168788Y28062D01*
X167580Y26649D01*
X166609Y25064D01*
X165898Y23346D01*
X165464Y21538D01*
X165318Y19685D01*
X165464Y17832D01*
X165898Y16024D01*
X166609Y14306D01*
X167580Y12721D01*
X168788Y11308D01*
X170202Y10100D01*
X171787Y9129D01*
X173504Y8417D01*
X175312Y7983D01*
X177165Y7837D01*
X179019Y7983D01*
X180826Y8417D01*
X182544Y9129D01*
X184129Y10100D01*
X185543Y11308D01*
X186750Y12721D01*
X187722Y14306D01*
X188433Y16024D01*
X188867Y17832D01*
X189013Y19685D01*
X188867Y21538D01*
X188433Y23346D01*
X187722Y25064D01*
X186750Y26649D01*
X185543Y28062D01*
X184129Y29270D01*
X182544Y30241D01*
X180826Y30953D01*
X179019Y31387D01*
X177165Y31533D01*
D02*
G37*
G36*
X19685D02*
X17832Y31387D01*
X16024Y30953D01*
X14306Y30241D01*
X12721Y29270D01*
X11308Y28062D01*
X10100Y26649D01*
X9129Y25064D01*
X8417Y23346D01*
X7983Y21538D01*
X7837Y19685D01*
X7983Y17832D01*
X8417Y16024D01*
X9129Y14306D01*
X10100Y12721D01*
X11308Y11308D01*
X12721Y10100D01*
X14306Y9129D01*
X16024Y8417D01*
X17832Y7983D01*
X19685Y7837D01*
X21538Y7983D01*
X23346Y8417D01*
X25064Y9129D01*
X26649Y10100D01*
X28062Y11308D01*
X29270Y12721D01*
X30241Y14306D01*
X30953Y16024D01*
X31387Y17832D01*
X31533Y19685D01*
X31387Y21538D01*
X30953Y23346D01*
X30241Y25064D01*
X29270Y26649D01*
X28062Y28062D01*
X26649Y29270D01*
X25064Y30241D01*
X23346Y30953D01*
X21538Y31387D01*
X19685Y31533D01*
D02*
G37*
%LPD*%
G36*
X158678Y68247D02*
Y61555D01*
X156561Y59439D01*
X156366Y59146D01*
X156297Y58800D01*
Y56899D01*
X155797Y56866D01*
X155722Y57433D01*
X155360Y58307D01*
X154785Y59057D01*
X154035Y59632D01*
X153161Y59994D01*
X152224Y60118D01*
X151287Y59994D01*
X150413Y59632D01*
X149663Y59057D01*
X149088Y58307D01*
X148726Y57433D01*
X148703Y57261D01*
X148203Y57294D01*
Y58426D01*
X158216Y68439D01*
X158678Y68247D01*
D02*
G37*
D45*
X167200Y51520D02*
Y58900D01*
Y51520D02*
X172224Y46496D01*
X157200Y51520D02*
Y58800D01*
Y51520D02*
X162224Y46496D01*
X147300Y51420D02*
Y58800D01*
Y51420D02*
X152224Y46496D01*
X137200Y51520D02*
Y58700D01*
Y51520D02*
X142224Y46496D01*
X102400Y56496D02*
Y61357D01*
X84762Y78995D02*
Y214438D01*
Y78995D02*
X102400Y61357D01*
Y56496D02*
X102618D01*
X83581Y70553D02*
Y208589D01*
X92400Y53846D02*
Y56496D01*
X83581Y70553D02*
X92618Y61516D01*
Y56496D02*
Y61516D01*
X85943Y88289D02*
Y207643D01*
X112400Y53846D02*
Y56496D01*
X112618D02*
Y61614D01*
X85943Y88289D02*
X112618Y61614D01*
X121057Y49114D02*
Y117068D01*
X118439Y46496D02*
X121057Y49114D01*
X112618Y46496D02*
X118439D01*
X112618Y43846D02*
Y46496D01*
X102618Y38482D02*
X103900Y37200D01*
X102618Y38482D02*
Y46496D01*
X92618Y38582D02*
X95200Y36000D01*
X92618Y38582D02*
Y46496D01*
X82618Y38482D02*
X86300Y34800D01*
X82618Y38482D02*
Y46496D01*
X15800Y81500D02*
X26828Y70472D01*
X47205D01*
X137100Y144500D02*
X143500D01*
X148500Y149500D01*
X58382Y159500D02*
X73381Y144501D01*
Y111581D02*
Y144501D01*
X68000Y106200D02*
X73381Y111581D01*
X72200Y115000D02*
Y140900D01*
X68500Y111300D02*
X72200Y115000D01*
X60700Y111300D02*
X68500D01*
X58382Y149500D02*
X63600D01*
X72200Y140900D01*
X15800Y81500D02*
Y132200D01*
X157100Y78600D02*
Y182500D01*
X137200Y58700D02*
X157100Y78600D01*
X158400Y69900D02*
Y186030D01*
X147300Y58800D02*
X158400Y69900D01*
X159581Y61181D02*
Y191119D01*
X157200Y58800D02*
X159581Y61181D01*
X160800Y65300D02*
X167200Y58900D01*
X160800Y65300D02*
Y193600D01*
X124600Y43659D02*
Y115600D01*
X115741Y34800D02*
X124600Y43659D01*
X86300Y34800D02*
X115741D01*
X123419Y44149D02*
Y116089D01*
X115270Y36000D02*
X123419Y44149D01*
X95200Y36000D02*
X115270D01*
X103900Y37200D02*
X114800D01*
X122238Y44638D01*
Y116578D01*
X133400Y140800D02*
X137100Y144500D01*
X133400Y127741D02*
Y140800D01*
X134581Y127251D02*
Y135581D01*
X138500Y139500D01*
X85943Y207643D02*
X87900Y209600D01*
X75000Y217170D02*
X83581Y208589D01*
X75000Y217170D02*
Y219300D01*
X84700Y214500D02*
X84762Y214438D01*
X23542Y79600D02*
Y159200D01*
X66000Y224500D02*
X82400Y208100D01*
X53382Y224500D02*
X66000D01*
X48382Y229500D02*
X53382Y224500D01*
X156200Y194500D02*
X159581Y191119D01*
X143500Y194500D02*
X156200D01*
X138500Y189500D02*
X143500Y194500D01*
X155100Y184500D02*
X157100Y182500D01*
X143500Y184500D02*
X155100D01*
X138500Y179500D02*
X143500Y184500D01*
X123419Y116089D02*
X134581Y127251D01*
X82400Y53846D02*
Y208100D01*
X154930Y189500D02*
X158400Y186030D01*
X148500Y189500D02*
X154930D01*
X121057Y117068D02*
X132000Y128011D01*
Y143000D01*
X138500Y149500D01*
X122238Y116578D02*
X133400Y127741D01*
X60700Y96600D02*
Y111300D01*
Y96300D02*
Y96600D01*
X56000Y101300D02*
X60700Y96600D01*
X27500Y101300D02*
X56000D01*
X148500Y199500D02*
X154900D01*
X160800Y193600D01*
X124600Y115600D02*
X148500Y139500D01*
Y147400D02*
Y149500D01*
D46*
X152700Y209500D02*
X163976Y198224D01*
Y184624D02*
Y198224D01*
Y184624D02*
X178200Y170400D01*
X53700Y116400D02*
X68400D01*
X36100Y134000D02*
X53700Y116400D01*
X143543Y164457D02*
X148500Y159500D01*
X130942Y164457D02*
X143543D01*
X126300Y169100D02*
X130942Y164457D01*
X148500Y209500D02*
X152700D01*
X126300Y204400D02*
Y261400D01*
Y169100D02*
Y204400D01*
X126500Y204600D01*
X142300D01*
X147200Y209500D01*
X148500D01*
X36100Y259500D02*
Y261800D01*
Y249300D02*
Y259500D01*
Y261800D02*
X41500Y267200D01*
X120500D01*
X126300Y261400D01*
X36100Y134000D02*
Y209600D01*
X36200Y209500D02*
X48382D01*
X36100Y209600D02*
X36200Y209500D01*
X36100Y239500D02*
Y249300D01*
Y209600D02*
Y239500D01*
X48382D01*
X36100Y249300D02*
X36300Y249500D01*
X48382D01*
X36100Y259500D02*
X48382D01*
D48*
X19685Y19685D02*
D03*
Y255906D02*
D03*
X177165D02*
D03*
Y19685D02*
D03*
D49*
X102618Y46496D02*
D03*
X112618D02*
D03*
Y56496D02*
D03*
X102618D02*
D03*
X92618D02*
D03*
Y46496D02*
D03*
X82618Y56496D02*
D03*
Y46496D02*
D03*
X72618Y56496D02*
D03*
X162224Y46496D02*
D03*
X172224D02*
D03*
Y56496D02*
D03*
X162224D02*
D03*
X152224D02*
D03*
Y46496D02*
D03*
X142224Y56496D02*
D03*
Y46496D02*
D03*
X132224Y56496D02*
D03*
X181358Y191100D02*
D03*
D50*
X72818Y46396D02*
D03*
X132424D02*
D03*
X171358Y191100D02*
D03*
D51*
X148500Y139500D02*
D03*
X138500D02*
D03*
X148500Y149500D02*
D03*
X138500D02*
D03*
X148500Y159500D02*
D03*
X138500D02*
D03*
X148500Y169500D02*
D03*
X138500D02*
D03*
X148500Y179500D02*
D03*
X138500D02*
D03*
X148500Y189500D02*
D03*
X138500D02*
D03*
X148500Y199500D02*
D03*
X138500D02*
D03*
X148500Y209500D02*
D03*
X138500D02*
D03*
X148500Y219500D02*
D03*
X138500D02*
D03*
X148500Y229500D02*
D03*
X138500D02*
D03*
X148500Y239500D02*
D03*
X138500D02*
D03*
X148500Y249500D02*
D03*
X138500D02*
D03*
Y259500D02*
D03*
X48382D02*
D03*
Y249500D02*
D03*
X58382D02*
D03*
X48382Y239500D02*
D03*
X58382D02*
D03*
X48382Y229500D02*
D03*
X58382D02*
D03*
X48382Y219500D02*
D03*
X58382D02*
D03*
X48382Y209500D02*
D03*
X58382D02*
D03*
X48382Y199500D02*
D03*
X58382D02*
D03*
X48382Y189500D02*
D03*
X58382D02*
D03*
X48382Y179500D02*
D03*
X58382D02*
D03*
X48382Y169500D02*
D03*
X58382D02*
D03*
X48382Y159500D02*
D03*
X58382D02*
D03*
X48382Y149500D02*
D03*
X58382D02*
D03*
X48382Y139500D02*
D03*
X58382D02*
D03*
D52*
X148500Y259500D02*
D03*
X58382D02*
D03*
D53*
X47205Y70472D02*
D03*
X68400Y116400D02*
D03*
X178200Y170400D02*
D03*
X68000Y106200D02*
D03*
X84700Y214500D02*
D03*
X15800Y132200D02*
D03*
X23542Y159200D02*
D03*
X87900Y209600D02*
D03*
X75000Y219300D02*
D03*
X23542Y79600D02*
D03*
X60700Y111300D02*
D03*
Y96300D02*
D03*
X27500Y101300D02*
D03*
M02*
