G04*
G04 #@! TF.GenerationSoftware,Altium Limited,Altium Designer,19.1.6 (110)*
G04*
G04 Layer_Physical_Order=1*
G04 Layer_Color=255*
%FSLAX25Y25*%
%MOIN*%
G70*
G01*
G75*
G04:AMPARAMS|DCode=18|XSize=37.4mil|YSize=31.5mil|CornerRadius=3.15mil|HoleSize=0mil|Usage=FLASHONLY|Rotation=0.000|XOffset=0mil|YOffset=0mil|HoleType=Round|Shape=RoundedRectangle|*
%AMROUNDEDRECTD18*
21,1,0.03740,0.02520,0,0,0.0*
21,1,0.03110,0.03150,0,0,0.0*
1,1,0.00630,0.01555,-0.01260*
1,1,0.00630,-0.01555,-0.01260*
1,1,0.00630,-0.01555,0.01260*
1,1,0.00630,0.01555,0.01260*
%
%ADD18ROUNDEDRECTD18*%
G04:AMPARAMS|DCode=19|XSize=37.4mil|YSize=31.5mil|CornerRadius=3.94mil|HoleSize=0mil|Usage=FLASHONLY|Rotation=0.000|XOffset=0mil|YOffset=0mil|HoleType=Round|Shape=RoundedRectangle|*
%AMROUNDEDRECTD19*
21,1,0.03740,0.02362,0,0,0.0*
21,1,0.02953,0.03150,0,0,0.0*
1,1,0.00787,0.01476,-0.01181*
1,1,0.00787,-0.01476,-0.01181*
1,1,0.00787,-0.01476,0.01181*
1,1,0.00787,0.01476,0.01181*
%
%ADD19ROUNDEDRECTD19*%
G04:AMPARAMS|DCode=20|XSize=37.4mil|YSize=31.5mil|CornerRadius=3.94mil|HoleSize=0mil|Usage=FLASHONLY|Rotation=90.000|XOffset=0mil|YOffset=0mil|HoleType=Round|Shape=RoundedRectangle|*
%AMROUNDEDRECTD20*
21,1,0.03740,0.02362,0,0,90.0*
21,1,0.02953,0.03150,0,0,90.0*
1,1,0.00787,0.01181,0.01476*
1,1,0.00787,0.01181,-0.01476*
1,1,0.00787,-0.01181,-0.01476*
1,1,0.00787,-0.01181,0.01476*
%
%ADD20ROUNDEDRECTD20*%
G04:AMPARAMS|DCode=21|XSize=37.4mil|YSize=31.5mil|CornerRadius=3.15mil|HoleSize=0mil|Usage=FLASHONLY|Rotation=90.000|XOffset=0mil|YOffset=0mil|HoleType=Round|Shape=RoundedRectangle|*
%AMROUNDEDRECTD21*
21,1,0.03740,0.02520,0,0,90.0*
21,1,0.03110,0.03150,0,0,90.0*
1,1,0.00630,0.01260,0.01555*
1,1,0.00630,0.01260,-0.01555*
1,1,0.00630,-0.01260,-0.01555*
1,1,0.00630,-0.01260,0.01555*
%
%ADD21ROUNDEDRECTD21*%
%ADD22R,0.03543X0.03150*%
%ADD23O,0.05709X0.02362*%
G04:AMPARAMS|DCode=24|XSize=100mil|YSize=25mil|CornerRadius=6.25mil|HoleSize=0mil|Usage=FLASHONLY|Rotation=90.000|XOffset=0mil|YOffset=0mil|HoleType=Round|Shape=RoundedRectangle|*
%AMROUNDEDRECTD24*
21,1,0.10000,0.01250,0,0,90.0*
21,1,0.08750,0.02500,0,0,90.0*
1,1,0.01250,0.00625,0.04375*
1,1,0.01250,0.00625,-0.04375*
1,1,0.01250,-0.00625,-0.04375*
1,1,0.01250,-0.00625,0.04375*
%
%ADD24ROUNDEDRECTD24*%
%ADD25R,0.02500X0.10000*%
%ADD42R,0.03937X0.03937*%
%ADD43C,0.03937*%
%ADD44R,0.03150X0.03150*%
%ADD45C,0.00591*%
%ADD46C,0.01181*%
%ADD47C,0.01654*%
%ADD48C,0.11811*%
%ADD49C,0.06000*%
%ADD50R,0.06000X0.06000*%
%ADD51C,0.05906*%
%ADD52R,0.05906X0.05906*%
%ADD53C,0.02362*%
G36*
X194882Y1969D02*
X1969D01*
Y273622D01*
X194882D01*
Y1969D01*
D02*
G37*
%LPC*%
G36*
X152453Y263453D02*
X149000D01*
Y260000D01*
X152453D01*
Y263453D01*
D02*
G37*
G36*
X62335D02*
X58882D01*
Y260000D01*
X62335D01*
Y263453D01*
D02*
G37*
G36*
X148000D02*
X144547D01*
Y260000D01*
X148000D01*
Y263453D01*
D02*
G37*
G36*
X57882D02*
X54429D01*
Y260000D01*
X57882D01*
Y263453D01*
D02*
G37*
G36*
X48382Y263074D02*
X47457Y262952D01*
X46595Y262595D01*
X45855Y262027D01*
X45287Y261287D01*
X44930Y260425D01*
X44808Y259500D01*
X44930Y258575D01*
X45287Y257713D01*
X45855Y256973D01*
X46595Y256405D01*
X47457Y256048D01*
X48382Y255926D01*
X49307Y256048D01*
X50169Y256405D01*
X50909Y256973D01*
X51477Y257713D01*
X51834Y258575D01*
X51956Y259500D01*
X51834Y260425D01*
X51477Y261287D01*
X50909Y262027D01*
X50169Y262595D01*
X49307Y262952D01*
X48382Y263074D01*
D02*
G37*
G36*
X62335Y259000D02*
X58882D01*
Y255547D01*
X62335D01*
Y259000D01*
D02*
G37*
G36*
X57882D02*
X54429D01*
Y255547D01*
X57882D01*
Y259000D01*
D02*
G37*
G36*
X58882Y253421D02*
Y250000D01*
X62303D01*
X62233Y250532D01*
X61835Y251493D01*
X61201Y252319D01*
X60375Y252953D01*
X59414Y253351D01*
X58882Y253421D01*
D02*
G37*
G36*
X57882D02*
X57350Y253351D01*
X56388Y252953D01*
X55563Y252319D01*
X54929Y251493D01*
X54531Y250532D01*
X54461Y250000D01*
X57882D01*
Y253421D01*
D02*
G37*
G36*
X48382Y253074D02*
X47457Y252952D01*
X46595Y252595D01*
X45855Y252027D01*
X45287Y251287D01*
X44930Y250425D01*
X44808Y249500D01*
X44930Y248575D01*
X45287Y247713D01*
X45855Y246973D01*
X46595Y246405D01*
X47457Y246048D01*
X48382Y245926D01*
X49307Y246048D01*
X50169Y246405D01*
X50909Y246973D01*
X51477Y247713D01*
X51834Y248575D01*
X51956Y249500D01*
X51834Y250425D01*
X51477Y251287D01*
X50909Y252027D01*
X50169Y252595D01*
X49307Y252952D01*
X48382Y253074D01*
D02*
G37*
G36*
X62303Y249000D02*
X58882D01*
Y245579D01*
X59414Y245649D01*
X60375Y246047D01*
X61201Y246681D01*
X61835Y247507D01*
X62233Y248468D01*
X62303Y249000D01*
D02*
G37*
G36*
X57882D02*
X54461D01*
X54531Y248468D01*
X54929Y247507D01*
X55563Y246681D01*
X56388Y246047D01*
X57350Y245649D01*
X57882Y245579D01*
Y249000D01*
D02*
G37*
G36*
X177165Y267753D02*
X175312Y267607D01*
X173504Y267173D01*
X171787Y266462D01*
X170202Y265490D01*
X168788Y264283D01*
X167580Y262869D01*
X166609Y261284D01*
X165898Y259567D01*
X165464Y257759D01*
X165318Y255906D01*
X165464Y254052D01*
X165898Y252244D01*
X166609Y250527D01*
X167580Y248942D01*
X168788Y247528D01*
X170202Y246321D01*
X171787Y245349D01*
X173504Y244638D01*
X175312Y244204D01*
X177165Y244058D01*
X179019Y244204D01*
X180826Y244638D01*
X182544Y245349D01*
X184129Y246321D01*
X185543Y247528D01*
X186750Y248942D01*
X187722Y250527D01*
X188433Y252244D01*
X188867Y254052D01*
X189013Y255906D01*
X188867Y257759D01*
X188433Y259567D01*
X187722Y261284D01*
X186750Y262869D01*
X185543Y264283D01*
X184129Y265490D01*
X182544Y266462D01*
X180826Y267173D01*
X179019Y267607D01*
X177165Y267753D01*
D02*
G37*
G36*
X19685D02*
X17832Y267607D01*
X16024Y267173D01*
X14306Y266462D01*
X12721Y265490D01*
X11308Y264283D01*
X10100Y262869D01*
X9129Y261284D01*
X8417Y259567D01*
X7983Y257759D01*
X7837Y255906D01*
X7983Y254052D01*
X8417Y252244D01*
X9129Y250527D01*
X10100Y248942D01*
X11308Y247528D01*
X12721Y246321D01*
X14306Y245349D01*
X16024Y244638D01*
X17832Y244204D01*
X19685Y244058D01*
X21538Y244204D01*
X23346Y244638D01*
X25064Y245349D01*
X26649Y246321D01*
X28062Y247528D01*
X29270Y248942D01*
X30241Y250527D01*
X30953Y252244D01*
X31387Y254052D01*
X31533Y255906D01*
X31387Y257759D01*
X30953Y259567D01*
X30241Y261284D01*
X29270Y262869D01*
X28062Y264283D01*
X26649Y265490D01*
X25064Y266462D01*
X23346Y267173D01*
X21538Y267607D01*
X19685Y267753D01*
D02*
G37*
G36*
X58882Y243421D02*
Y240000D01*
X62303D01*
X62233Y240532D01*
X61835Y241493D01*
X61201Y242319D01*
X60375Y242953D01*
X59414Y243351D01*
X58882Y243421D01*
D02*
G37*
G36*
X57882D02*
X57350Y243351D01*
X56388Y242953D01*
X55563Y242319D01*
X54929Y241493D01*
X54531Y240532D01*
X54461Y240000D01*
X57882D01*
Y243421D01*
D02*
G37*
G36*
X138500Y243074D02*
X137575Y242952D01*
X136713Y242595D01*
X135973Y242027D01*
X135405Y241287D01*
X135048Y240425D01*
X134926Y239500D01*
X135048Y238575D01*
X135405Y237713D01*
X135973Y236973D01*
X136713Y236405D01*
X137575Y236048D01*
X138500Y235926D01*
X139425Y236048D01*
X140287Y236405D01*
X141027Y236973D01*
X141595Y237713D01*
X141952Y238575D01*
X142074Y239500D01*
X141952Y240425D01*
X141595Y241287D01*
X141027Y242027D01*
X140287Y242595D01*
X139425Y242952D01*
X138500Y243074D01*
D02*
G37*
G36*
X48382D02*
X47457Y242952D01*
X46595Y242595D01*
X45855Y242027D01*
X45287Y241287D01*
X44930Y240425D01*
X44808Y239500D01*
X44930Y238575D01*
X45287Y237713D01*
X45855Y236973D01*
X46595Y236405D01*
X47457Y236048D01*
X48382Y235926D01*
X49307Y236048D01*
X50169Y236405D01*
X50909Y236973D01*
X51477Y237713D01*
X51834Y238575D01*
X51956Y239500D01*
X51834Y240425D01*
X51477Y241287D01*
X50909Y242027D01*
X50169Y242595D01*
X49307Y242952D01*
X48382Y243074D01*
D02*
G37*
G36*
X62303Y239000D02*
X58882D01*
Y235579D01*
X59414Y235649D01*
X60375Y236047D01*
X61201Y236681D01*
X61835Y237507D01*
X62233Y238468D01*
X62303Y239000D01*
D02*
G37*
G36*
X57882D02*
X54461D01*
X54531Y238468D01*
X54929Y237507D01*
X55563Y236681D01*
X56388Y236047D01*
X57350Y235649D01*
X57882Y235579D01*
Y239000D01*
D02*
G37*
G36*
X138500Y263074D02*
X137575Y262952D01*
X136713Y262595D01*
X135973Y262027D01*
X135405Y261287D01*
X135048Y260425D01*
X134926Y259500D01*
X135048Y258575D01*
X135405Y257713D01*
X135973Y256973D01*
X136713Y256405D01*
X137575Y256048D01*
X138500Y255926D01*
X139425Y256048D01*
X140008Y256289D01*
X143049Y253249D01*
X143049Y253249D01*
X143439Y252987D01*
X143900Y252896D01*
X145655D01*
X145815Y252422D01*
X145681Y252319D01*
X145047Y251493D01*
X144649Y250532D01*
X144579Y250000D01*
X148500D01*
X152421D01*
X152351Y250532D01*
X151953Y251493D01*
X151319Y252319D01*
X151185Y252422D01*
X151345Y252896D01*
X155210D01*
X168857Y239248D01*
X169248Y238987D01*
X169709Y238896D01*
X169709Y238896D01*
X183141D01*
Y237541D01*
X184255D01*
Y235659D01*
X183141D01*
Y234304D01*
X172123D01*
X160875Y245551D01*
X160485Y245813D01*
X160024Y245904D01*
X160024Y245904D01*
X151128D01*
X150959Y246404D01*
X151319Y246681D01*
X151953Y247507D01*
X152351Y248468D01*
X152421Y249000D01*
X148500D01*
X144579D01*
X144649Y248468D01*
X145047Y247507D01*
X145681Y246681D01*
X146041Y246404D01*
X145872Y245904D01*
X143799D01*
X141711Y247992D01*
X141952Y248575D01*
X142074Y249500D01*
X141952Y250425D01*
X141595Y251287D01*
X141027Y252027D01*
X140287Y252595D01*
X139425Y252952D01*
X138500Y253074D01*
X137575Y252952D01*
X136713Y252595D01*
X135973Y252027D01*
X135405Y251287D01*
X135048Y250425D01*
X134926Y249500D01*
X135048Y248575D01*
X135405Y247713D01*
X135973Y246973D01*
X136713Y246405D01*
X137575Y246048D01*
X138500Y245926D01*
X139425Y246048D01*
X140008Y246289D01*
X142448Y243848D01*
X142448Y243848D01*
X142839Y243587D01*
X143300Y243496D01*
X143300Y243496D01*
X147874D01*
X147907Y242996D01*
X147575Y242952D01*
X146713Y242595D01*
X145973Y242027D01*
X145405Y241287D01*
X145048Y240425D01*
X144926Y239500D01*
X145048Y238575D01*
X145405Y237713D01*
X145973Y236973D01*
X146713Y236405D01*
X147575Y236048D01*
X148500Y235926D01*
X149425Y236048D01*
X150287Y236405D01*
X151027Y236973D01*
X151595Y237713D01*
X151952Y238575D01*
X152074Y239500D01*
X151952Y240425D01*
X151595Y241287D01*
X151027Y242027D01*
X150287Y242595D01*
X149425Y242952D01*
X149093Y242996D01*
X149126Y243496D01*
X159525D01*
X170773Y232248D01*
X170773Y232248D01*
X171163Y231987D01*
X171624Y231896D01*
X171624Y231896D01*
X183141D01*
Y230541D01*
X188259D01*
Y235659D01*
X187145D01*
Y237541D01*
X188259D01*
Y242659D01*
X183141D01*
Y241304D01*
X170208D01*
X156560Y254952D01*
X156169Y255213D01*
X155709Y255304D01*
X155709Y255304D01*
X152852D01*
X152453Y255547D01*
X152453Y255804D01*
Y259000D01*
X148500D01*
X144547D01*
Y255863D01*
X144047Y255656D01*
X141711Y257992D01*
X141952Y258575D01*
X142074Y259500D01*
X141952Y260425D01*
X141595Y261287D01*
X141027Y262027D01*
X140287Y262595D01*
X139425Y262952D01*
X138500Y263074D01*
D02*
G37*
G36*
X19685Y240191D02*
X18657Y240056D01*
X17700Y239659D01*
X16877Y239028D01*
X16246Y238206D01*
X15849Y237248D01*
X15714Y236221D01*
X15849Y235193D01*
X16246Y234235D01*
X16877Y233413D01*
X17700Y232782D01*
X18657Y232385D01*
X19685Y232249D01*
X20713Y232385D01*
X21670Y232782D01*
X22493Y233413D01*
X23124Y234235D01*
X23521Y235193D01*
X23656Y236221D01*
X23521Y237248D01*
X23124Y238206D01*
X22493Y239028D01*
X21670Y239659D01*
X20713Y240056D01*
X19685Y240191D01*
D02*
G37*
G36*
X148500Y233074D02*
X147575Y232952D01*
X146713Y232595D01*
X145973Y232027D01*
X145405Y231287D01*
X145048Y230425D01*
X144926Y229500D01*
X145048Y228575D01*
X145405Y227713D01*
X145973Y226973D01*
X146713Y226405D01*
X147575Y226048D01*
X148500Y225926D01*
X149425Y226048D01*
X150287Y226405D01*
X151027Y226973D01*
X151595Y227713D01*
X151952Y228575D01*
X152074Y229500D01*
X151952Y230425D01*
X151595Y231287D01*
X151027Y232027D01*
X150287Y232595D01*
X149425Y232952D01*
X148500Y233074D01*
D02*
G37*
G36*
X138500D02*
X137575Y232952D01*
X136713Y232595D01*
X135973Y232027D01*
X135405Y231287D01*
X135048Y230425D01*
X134926Y229500D01*
X135048Y228575D01*
X135405Y227713D01*
X135973Y226973D01*
X136713Y226405D01*
X137575Y226048D01*
X138500Y225926D01*
X139425Y226048D01*
X140287Y226405D01*
X141027Y226973D01*
X141595Y227713D01*
X141952Y228575D01*
X142074Y229500D01*
X141952Y230425D01*
X141595Y231287D01*
X141027Y232027D01*
X140287Y232595D01*
X139425Y232952D01*
X138500Y233074D01*
D02*
G37*
G36*
X58382D02*
X57457Y232952D01*
X56595Y232595D01*
X55855Y232027D01*
X55287Y231287D01*
X54930Y230425D01*
X54808Y229500D01*
X54930Y228575D01*
X55287Y227713D01*
X55855Y226973D01*
X56595Y226405D01*
X57457Y226048D01*
X58382Y225926D01*
X59307Y226048D01*
X60169Y226405D01*
X60909Y226973D01*
X61477Y227713D01*
X61834Y228575D01*
X61956Y229500D01*
X61834Y230425D01*
X61477Y231287D01*
X60909Y232027D01*
X60169Y232595D01*
X59307Y232952D01*
X58382Y233074D01*
D02*
G37*
G36*
X48382D02*
X47457Y232952D01*
X46595Y232595D01*
X45855Y232027D01*
X45287Y231287D01*
X44930Y230425D01*
X44808Y229500D01*
X44930Y228575D01*
X45287Y227713D01*
X45855Y226973D01*
X46595Y226405D01*
X47457Y226048D01*
X48382Y225926D01*
X49307Y226048D01*
X50169Y226405D01*
X50909Y226973D01*
X51477Y227713D01*
X51834Y228575D01*
X51956Y229500D01*
X51834Y230425D01*
X51477Y231287D01*
X50909Y232027D01*
X50169Y232595D01*
X49307Y232952D01*
X48382Y233074D01*
D02*
G37*
G36*
X58382Y223074D02*
X57457Y222952D01*
X56595Y222595D01*
X55855Y222027D01*
X55287Y221287D01*
X54930Y220425D01*
X54808Y219500D01*
X54930Y218575D01*
X55287Y217713D01*
X55855Y216973D01*
X56595Y216405D01*
X57457Y216048D01*
X58382Y215926D01*
X59307Y216048D01*
X60169Y216405D01*
X60909Y216973D01*
X61477Y217713D01*
X61760Y218397D01*
X73473D01*
X73723Y218023D01*
X74309Y217631D01*
X75000Y217494D01*
X75691Y217631D01*
X76277Y218023D01*
X76669Y218609D01*
X76806Y219300D01*
X76669Y219991D01*
X76277Y220577D01*
X75691Y220969D01*
X75000Y221106D01*
X74309Y220969D01*
X73723Y220577D01*
X73473Y220203D01*
X61863D01*
X61834Y220425D01*
X61477Y221287D01*
X60909Y222027D01*
X60169Y222595D01*
X59307Y222952D01*
X58382Y223074D01*
D02*
G37*
G36*
X148500D02*
X147575Y222952D01*
X146713Y222595D01*
X145973Y222027D01*
X145405Y221287D01*
X145048Y220425D01*
X144926Y219500D01*
X145048Y218575D01*
X145405Y217713D01*
X145973Y216973D01*
X146713Y216405D01*
X147575Y216048D01*
X148500Y215926D01*
X149425Y216048D01*
X150287Y216405D01*
X151027Y216973D01*
X151595Y217713D01*
X151952Y218575D01*
X151955Y218597D01*
X173858D01*
Y217824D01*
X173934Y217440D01*
X174152Y217114D01*
X174477Y216897D01*
X174861Y216820D01*
X177224D01*
X177608Y216897D01*
X177933Y217114D01*
X178151Y217440D01*
X178227Y217824D01*
Y220776D01*
X178151Y221160D01*
X177933Y221486D01*
X177608Y221704D01*
X177224Y221780D01*
X174861D01*
X174477Y221704D01*
X174152Y221486D01*
X173934Y221160D01*
X173858Y220776D01*
Y220403D01*
X151955D01*
X151952Y220425D01*
X151595Y221287D01*
X151027Y222027D01*
X150287Y222595D01*
X149425Y222952D01*
X148500Y223074D01*
D02*
G37*
G36*
X48382D02*
X47457Y222952D01*
X46595Y222595D01*
X45855Y222027D01*
X45287Y221287D01*
X44930Y220425D01*
X44808Y219500D01*
X44930Y218575D01*
X45287Y217713D01*
X45855Y216973D01*
X46595Y216405D01*
X47457Y216048D01*
X48382Y215926D01*
X49307Y216048D01*
X50169Y216405D01*
X50186Y216418D01*
X52743Y213861D01*
X53036Y213666D01*
X53382Y213597D01*
X83173D01*
X83423Y213223D01*
X84009Y212831D01*
X84700Y212694D01*
X85391Y212831D01*
X85977Y213223D01*
X86369Y213809D01*
X86506Y214500D01*
X86369Y215191D01*
X85977Y215777D01*
X85391Y216169D01*
X84700Y216306D01*
X84009Y216169D01*
X83423Y215777D01*
X83173Y215403D01*
X53756D01*
X51464Y217696D01*
X51477Y217713D01*
X51834Y218575D01*
X51956Y219500D01*
X51834Y220425D01*
X51477Y221287D01*
X50909Y222027D01*
X50169Y222595D01*
X49307Y222952D01*
X48382Y223074D01*
D02*
G37*
G36*
X138500D02*
X137575Y222952D01*
X136713Y222595D01*
X135973Y222027D01*
X135405Y221287D01*
X135048Y220425D01*
X134926Y219500D01*
X135048Y218575D01*
X135405Y217713D01*
X135973Y216973D01*
X136713Y216405D01*
X137575Y216048D01*
X138500Y215926D01*
X139425Y216048D01*
X140287Y216405D01*
X141027Y216973D01*
X141067Y217024D01*
X141566Y217057D01*
X144761Y213861D01*
X145054Y213666D01*
X145400Y213597D01*
X176426D01*
X177360Y212663D01*
X177283Y212390D01*
X177136Y212180D01*
X174861D01*
X174477Y212104D01*
X174152Y211886D01*
X173934Y211560D01*
X173858Y211176D01*
Y210704D01*
X151836D01*
X151595Y211287D01*
X151027Y212027D01*
X150287Y212595D01*
X149425Y212952D01*
X148500Y213074D01*
X147575Y212952D01*
X146713Y212595D01*
X145973Y212027D01*
X145405Y211287D01*
X145048Y210425D01*
X144926Y209500D01*
X145048Y208575D01*
X145405Y207713D01*
X145973Y206973D01*
X146713Y206405D01*
X147575Y206048D01*
X148500Y205926D01*
X149425Y206048D01*
X150287Y206405D01*
X151027Y206973D01*
X151595Y207713D01*
X151836Y208296D01*
X173858D01*
Y208224D01*
X173934Y207840D01*
X174152Y207514D01*
X174477Y207296D01*
X174861Y207220D01*
X177224D01*
X177608Y207296D01*
X177933Y207514D01*
X178151Y207840D01*
X178227Y208224D01*
Y211088D01*
X178437Y211236D01*
X178710Y211313D01*
X179174Y210848D01*
Y208145D01*
X179245Y207792D01*
X179445Y207492D01*
X179744Y207292D01*
X180098Y207222D01*
X180454D01*
Y194603D01*
X180420Y194598D01*
X179547Y194236D01*
X178797Y193661D01*
X178221Y192911D01*
X177859Y192037D01*
X177736Y191100D01*
X177859Y190163D01*
X178221Y189289D01*
X178797Y188539D01*
X179547Y187964D01*
X180420Y187602D01*
X181358Y187478D01*
X182295Y187602D01*
X183168Y187964D01*
X183918Y188539D01*
X184494Y189289D01*
X184856Y190163D01*
X184979Y191100D01*
X184856Y192037D01*
X184494Y192911D01*
X183918Y193661D01*
X183168Y194236D01*
X182295Y194598D01*
X182261Y194603D01*
Y207222D01*
X182617D01*
X182971Y207292D01*
X183270Y207492D01*
X183470Y207792D01*
X183541Y208145D01*
Y211255D01*
X183470Y211608D01*
X183270Y211908D01*
X182971Y212108D01*
X182617Y212178D01*
X180399D01*
X177439Y215139D01*
X177146Y215334D01*
X176800Y215403D01*
X145774D01*
X142028Y219149D01*
X142074Y219500D01*
X141952Y220425D01*
X141595Y221287D01*
X141027Y222027D01*
X140287Y222595D01*
X139425Y222952D01*
X138500Y223074D01*
D02*
G37*
G36*
X58382Y213074D02*
X57457Y212952D01*
X56595Y212595D01*
X55855Y212027D01*
X55287Y211287D01*
X54930Y210425D01*
X54808Y209500D01*
X54930Y208575D01*
X55287Y207713D01*
X55855Y206973D01*
X56595Y206405D01*
X57457Y206048D01*
X58382Y205926D01*
X59307Y206048D01*
X60169Y206405D01*
X60909Y206973D01*
X61477Y207713D01*
X61834Y208575D01*
X61837Y208597D01*
X86440D01*
X86623Y208323D01*
X87209Y207931D01*
X87900Y207794D01*
X88591Y207931D01*
X89177Y208323D01*
X89569Y208909D01*
X89706Y209600D01*
X89569Y210291D01*
X89177Y210877D01*
X88591Y211269D01*
X87900Y211406D01*
X87209Y211269D01*
X86623Y210877D01*
X86306Y210403D01*
X61837D01*
X61834Y210425D01*
X61477Y211287D01*
X60909Y212027D01*
X60169Y212595D01*
X59307Y212952D01*
X58382Y213074D01*
D02*
G37*
G36*
X138500D02*
X137575Y212952D01*
X136713Y212595D01*
X135973Y212027D01*
X135405Y211287D01*
X135048Y210425D01*
X134926Y209500D01*
X135048Y208575D01*
X135405Y207713D01*
X135418Y207696D01*
X131054Y203331D01*
X130859Y203039D01*
X130790Y202693D01*
Y97460D01*
X130217D01*
X129832Y97384D01*
X129507Y97166D01*
X129289Y96841D01*
X129213Y96457D01*
Y94095D01*
X129289Y93711D01*
X129507Y93385D01*
X129832Y93167D01*
X130217Y93091D01*
X133169D01*
X133553Y93167D01*
X133879Y93385D01*
X134096Y93711D01*
X134173Y94095D01*
Y94372D01*
X149784D01*
Y94095D01*
X149860Y93711D01*
X150078Y93385D01*
X150403Y93167D01*
X150787Y93091D01*
X153740D01*
X154124Y93167D01*
X154450Y93385D01*
X154667Y93711D01*
X154744Y94095D01*
Y96457D01*
X154667Y96841D01*
X154450Y97166D01*
X154124Y97384D01*
X153740Y97460D01*
X150787D01*
X150403Y97384D01*
X150078Y97166D01*
X149860Y96841D01*
X149784Y96457D01*
Y96179D01*
X134173D01*
Y96457D01*
X134096Y96841D01*
X133879Y97166D01*
X133553Y97384D01*
X133169Y97460D01*
X132596D01*
Y202319D01*
X136696Y206418D01*
X136713Y206405D01*
X137575Y206048D01*
X138500Y205926D01*
X139425Y206048D01*
X140287Y206405D01*
X141027Y206973D01*
X141595Y207713D01*
X141952Y208575D01*
X142074Y209500D01*
X141952Y210425D01*
X141595Y211287D01*
X141027Y212027D01*
X140287Y212595D01*
X139425Y212952D01*
X138500Y213074D01*
D02*
G37*
G36*
X48382D02*
X47457Y212952D01*
X46595Y212595D01*
X45855Y212027D01*
X45287Y211287D01*
X44930Y210425D01*
X44808Y209500D01*
X44930Y208575D01*
X45287Y207713D01*
X45855Y206973D01*
X46595Y206405D01*
X47457Y206048D01*
X48382Y205926D01*
X49307Y206048D01*
X50169Y206405D01*
X50909Y206973D01*
X51477Y207713D01*
X51834Y208575D01*
X51956Y209500D01*
X51834Y210425D01*
X51477Y211287D01*
X50909Y212027D01*
X50169Y212595D01*
X49307Y212952D01*
X48382Y213074D01*
D02*
G37*
G36*
X148500Y203074D02*
X147575Y202952D01*
X146713Y202595D01*
X145973Y202027D01*
X145405Y201287D01*
X145048Y200425D01*
X144926Y199500D01*
X145048Y198575D01*
X145405Y197713D01*
X145973Y196973D01*
X146713Y196405D01*
X147575Y196048D01*
X148500Y195926D01*
X149425Y196048D01*
X150287Y196405D01*
X151027Y196973D01*
X151595Y197713D01*
X151952Y198575D01*
X152074Y199500D01*
X151952Y200425D01*
X151595Y201287D01*
X151027Y202027D01*
X150287Y202595D01*
X149425Y202952D01*
X148500Y203074D01*
D02*
G37*
G36*
X58382D02*
X57457Y202952D01*
X56595Y202595D01*
X55855Y202027D01*
X55287Y201287D01*
X54930Y200425D01*
X54808Y199500D01*
X54930Y198575D01*
X55287Y197713D01*
X55855Y196973D01*
X56595Y196405D01*
X57457Y196048D01*
X58382Y195926D01*
X59307Y196048D01*
X60169Y196405D01*
X60909Y196973D01*
X61477Y197713D01*
X61834Y198575D01*
X61956Y199500D01*
X61834Y200425D01*
X61477Y201287D01*
X60909Y202027D01*
X60169Y202595D01*
X59307Y202952D01*
X58382Y203074D01*
D02*
G37*
G36*
X48382D02*
X47457Y202952D01*
X46595Y202595D01*
X45855Y202027D01*
X45287Y201287D01*
X44930Y200425D01*
X44808Y199500D01*
X44930Y198575D01*
X45287Y197713D01*
X45855Y196973D01*
X46595Y196405D01*
X47457Y196048D01*
X48382Y195926D01*
X49307Y196048D01*
X50169Y196405D01*
X50909Y196973D01*
X51477Y197713D01*
X51834Y198575D01*
X51956Y199500D01*
X51834Y200425D01*
X51477Y201287D01*
X50909Y202027D01*
X50169Y202595D01*
X49307Y202952D01*
X48382Y203074D01*
D02*
G37*
G36*
X175357Y195100D02*
X171858D01*
Y191600D01*
X175357D01*
Y195100D01*
D02*
G37*
G36*
X170858D02*
X167358D01*
Y191600D01*
X170858D01*
Y195100D01*
D02*
G37*
G36*
X175357Y190600D02*
X171858D01*
Y187100D01*
X175357D01*
Y190600D01*
D02*
G37*
G36*
X170858D02*
X167358D01*
Y187100D01*
X170858D01*
Y190600D01*
D02*
G37*
G36*
X148500Y193074D02*
X147575Y192952D01*
X146713Y192595D01*
X145973Y192027D01*
X145405Y191287D01*
X145048Y190425D01*
X144926Y189500D01*
X145048Y188575D01*
X145405Y187713D01*
X145973Y186973D01*
X146713Y186405D01*
X147575Y186048D01*
X148500Y185926D01*
X149425Y186048D01*
X150287Y186405D01*
X151027Y186973D01*
X151595Y187713D01*
X151952Y188575D01*
X152074Y189500D01*
X151952Y190425D01*
X151595Y191287D01*
X151027Y192027D01*
X150287Y192595D01*
X149425Y192952D01*
X148500Y193074D01*
D02*
G37*
G36*
X138500D02*
X137575Y192952D01*
X136713Y192595D01*
X135973Y192027D01*
X135405Y191287D01*
X135048Y190425D01*
X134926Y189500D01*
X135048Y188575D01*
X135405Y187713D01*
X135973Y186973D01*
X136713Y186405D01*
X137575Y186048D01*
X138500Y185926D01*
X139425Y186048D01*
X140287Y186405D01*
X141027Y186973D01*
X141595Y187713D01*
X141952Y188575D01*
X142074Y189500D01*
X141952Y190425D01*
X141595Y191287D01*
X141027Y192027D01*
X140287Y192595D01*
X139425Y192952D01*
X138500Y193074D01*
D02*
G37*
G36*
X58382D02*
X57457Y192952D01*
X56595Y192595D01*
X55855Y192027D01*
X55287Y191287D01*
X54930Y190425D01*
X54808Y189500D01*
X54930Y188575D01*
X55287Y187713D01*
X55855Y186973D01*
X56595Y186405D01*
X57457Y186048D01*
X58382Y185926D01*
X59307Y186048D01*
X60169Y186405D01*
X60909Y186973D01*
X61477Y187713D01*
X61834Y188575D01*
X61956Y189500D01*
X61834Y190425D01*
X61477Y191287D01*
X60909Y192027D01*
X60169Y192595D01*
X59307Y192952D01*
X58382Y193074D01*
D02*
G37*
G36*
X48382D02*
X47457Y192952D01*
X46595Y192595D01*
X45855Y192027D01*
X45287Y191287D01*
X44930Y190425D01*
X44808Y189500D01*
X44930Y188575D01*
X45287Y187713D01*
X45855Y186973D01*
X46595Y186405D01*
X47457Y186048D01*
X48084Y185965D01*
X48197Y185950D01*
X48165Y185450D01*
X37382D01*
X34858Y187974D01*
X34862Y187992D01*
Y190354D01*
X34785Y190738D01*
X34568Y191064D01*
X34242Y191281D01*
X33858Y191358D01*
X30906D01*
X30522Y191281D01*
X30196Y191064D01*
X29978Y190738D01*
X29902Y190354D01*
Y187992D01*
X29978Y187608D01*
X30196Y187283D01*
X30522Y187065D01*
X30906Y186989D01*
X33289D01*
X36369Y183909D01*
X36662Y183713D01*
X37008Y183644D01*
X52960D01*
X55300Y181304D01*
X55287Y181287D01*
X54930Y180425D01*
X54808Y179500D01*
X54930Y178575D01*
X55287Y177713D01*
X55855Y176973D01*
X56595Y176405D01*
X57457Y176048D01*
X58382Y175926D01*
X59307Y176048D01*
X60169Y176405D01*
X60909Y176973D01*
X61477Y177713D01*
X61834Y178575D01*
X61956Y179500D01*
X61834Y180425D01*
X61477Y181287D01*
X60909Y182027D01*
X60169Y182595D01*
X59307Y182952D01*
X58382Y183074D01*
X57457Y182952D01*
X56595Y182595D01*
X56577Y182582D01*
X53973Y185186D01*
X53680Y185382D01*
X53335Y185450D01*
X48599D01*
X48566Y185950D01*
X48680Y185965D01*
X49307Y186048D01*
X50169Y186405D01*
X50909Y186973D01*
X51477Y187713D01*
X51834Y188575D01*
X51956Y189500D01*
X51834Y190425D01*
X51477Y191287D01*
X50909Y192027D01*
X50169Y192595D01*
X49307Y192952D01*
X48382Y193074D01*
D02*
G37*
G36*
Y183074D02*
X47457Y182952D01*
X46595Y182595D01*
X45855Y182027D01*
X45287Y181287D01*
X44930Y180425D01*
X44927Y180403D01*
X34780D01*
Y180639D01*
X34703Y181023D01*
X34486Y181348D01*
X34160Y181566D01*
X33776Y181642D01*
X30824D01*
X30440Y181566D01*
X30114Y181348D01*
X29897Y181023D01*
X29820Y180639D01*
Y178276D01*
X29897Y177892D01*
X30114Y177567D01*
X30440Y177349D01*
X30824Y177273D01*
X33776D01*
X34160Y177349D01*
X34486Y177567D01*
X34703Y177892D01*
X34780Y178276D01*
Y178597D01*
X44927D01*
X44930Y178575D01*
X45287Y177713D01*
X45855Y176973D01*
X46595Y176405D01*
X47457Y176048D01*
X48382Y175926D01*
X49307Y176048D01*
X50169Y176405D01*
X50909Y176973D01*
X51477Y177713D01*
X51834Y178575D01*
X51956Y179500D01*
X51834Y180425D01*
X51477Y181287D01*
X50909Y182027D01*
X50169Y182595D01*
X49307Y182952D01*
X48382Y183074D01*
D02*
G37*
G36*
X148500D02*
X147575Y182952D01*
X146713Y182595D01*
X145973Y182027D01*
X145405Y181287D01*
X145048Y180425D01*
X144926Y179500D01*
X145048Y178575D01*
X145405Y177713D01*
X145973Y176973D01*
X146713Y176405D01*
X147575Y176048D01*
X148500Y175926D01*
X149425Y176048D01*
X150287Y176405D01*
X151027Y176973D01*
X151595Y177713D01*
X151952Y178575D01*
X152074Y179500D01*
X151952Y180425D01*
X151595Y181287D01*
X151027Y182027D01*
X150287Y182595D01*
X149425Y182952D01*
X148500Y183074D01*
D02*
G37*
G36*
X138500D02*
X137575Y182952D01*
X136713Y182595D01*
X135973Y182027D01*
X135405Y181287D01*
X135048Y180425D01*
X134926Y179500D01*
X135048Y178575D01*
X135405Y177713D01*
X135973Y176973D01*
X136713Y176405D01*
X137575Y176048D01*
X138500Y175926D01*
X139425Y176048D01*
X140287Y176405D01*
X141027Y176973D01*
X141595Y177713D01*
X141952Y178575D01*
X142074Y179500D01*
X141952Y180425D01*
X141595Y181287D01*
X141027Y182027D01*
X140287Y182595D01*
X139425Y182952D01*
X138500Y183074D01*
D02*
G37*
G36*
X148500Y173074D02*
X147575Y172952D01*
X146713Y172595D01*
X145973Y172027D01*
X145405Y171287D01*
X145048Y170425D01*
X144926Y169500D01*
X145048Y168575D01*
X145405Y167713D01*
X145973Y166973D01*
X146713Y166405D01*
X147575Y166048D01*
X148500Y165926D01*
X149425Y166048D01*
X150287Y166405D01*
X151027Y166973D01*
X151595Y167713D01*
X151952Y168575D01*
X152074Y169500D01*
X151952Y170425D01*
X151595Y171287D01*
X151027Y172027D01*
X150287Y172595D01*
X149425Y172952D01*
X148500Y173074D01*
D02*
G37*
G36*
X138500D02*
X137575Y172952D01*
X136713Y172595D01*
X135973Y172027D01*
X135405Y171287D01*
X135048Y170425D01*
X134926Y169500D01*
X135048Y168575D01*
X135405Y167713D01*
X135973Y166973D01*
X136713Y166405D01*
X137575Y166048D01*
X138500Y165926D01*
X139425Y166048D01*
X140287Y166405D01*
X141027Y166973D01*
X141595Y167713D01*
X141952Y168575D01*
X142074Y169500D01*
X141952Y170425D01*
X141595Y171287D01*
X141027Y172027D01*
X140287Y172595D01*
X139425Y172952D01*
X138500Y173074D01*
D02*
G37*
G36*
X48382D02*
X47457Y172952D01*
X46595Y172595D01*
X45855Y172027D01*
X45287Y171287D01*
X44930Y170425D01*
X44808Y169500D01*
X44930Y168575D01*
X45287Y167713D01*
X45855Y166973D01*
X46595Y166405D01*
X47457Y166048D01*
X48382Y165926D01*
X49307Y166048D01*
X50169Y166405D01*
X50909Y166973D01*
X51477Y167713D01*
X51834Y168575D01*
X51956Y169500D01*
X51834Y170425D01*
X51477Y171287D01*
X50909Y172027D01*
X50169Y172595D01*
X49307Y172952D01*
X48382Y173074D01*
D02*
G37*
G36*
X58382D02*
X57457Y172952D01*
X56595Y172595D01*
X55855Y172027D01*
X55287Y171287D01*
X54930Y170425D01*
X54808Y169500D01*
X54930Y168575D01*
X55287Y167713D01*
X55300Y167696D01*
X52965Y165361D01*
X34780D01*
Y165639D01*
X34703Y166023D01*
X34486Y166348D01*
X34160Y166566D01*
X33776Y166642D01*
X30824D01*
X30440Y166566D01*
X30114Y166348D01*
X29897Y166023D01*
X29820Y165639D01*
Y163276D01*
X29897Y162892D01*
X30114Y162567D01*
X30440Y162349D01*
X30824Y162273D01*
X33776D01*
X34160Y162349D01*
X34486Y162567D01*
X34703Y162892D01*
X34780Y163276D01*
Y163554D01*
X48201D01*
X48233Y163054D01*
X48051Y163030D01*
X47457Y162952D01*
X46595Y162595D01*
X45855Y162027D01*
X45287Y161287D01*
X44930Y160425D01*
X44808Y159500D01*
X44930Y158575D01*
X45287Y157713D01*
X45855Y156973D01*
X46595Y156405D01*
X47457Y156048D01*
X48382Y155926D01*
X49307Y156048D01*
X50169Y156405D01*
X50909Y156973D01*
X51477Y157713D01*
X51834Y158575D01*
X51956Y159500D01*
X51834Y160425D01*
X51477Y161287D01*
X50909Y162027D01*
X50169Y162595D01*
X49307Y162952D01*
X48713Y163030D01*
X48531Y163054D01*
X48563Y163554D01*
X53339D01*
X53685Y163623D01*
X53978Y163819D01*
X56577Y166418D01*
X56595Y166405D01*
X57457Y166048D01*
X58382Y165926D01*
X59307Y166048D01*
X60169Y166405D01*
X60909Y166973D01*
X61477Y167713D01*
X61834Y168575D01*
X61956Y169500D01*
X61834Y170425D01*
X61477Y171287D01*
X60909Y172027D01*
X60169Y172595D01*
X59307Y172952D01*
X58382Y173074D01*
D02*
G37*
G36*
X178200Y172206D02*
X177509Y172069D01*
X176923Y171677D01*
X176531Y171091D01*
X176394Y170400D01*
X176531Y169709D01*
X176923Y169123D01*
X176944Y169109D01*
Y167661D01*
X175983D01*
Y163331D01*
X180313D01*
Y167661D01*
X179352D01*
Y169039D01*
X179477Y169123D01*
X179869Y169709D01*
X180006Y170400D01*
X179869Y171091D01*
X179477Y171677D01*
X178891Y172069D01*
X178200Y172206D01*
D02*
G37*
G36*
X138500Y203074D02*
X137575Y202952D01*
X136713Y202595D01*
X135973Y202027D01*
X135405Y201287D01*
X135048Y200425D01*
X134926Y199500D01*
X135048Y198575D01*
X135405Y197713D01*
X135973Y196973D01*
X136713Y196405D01*
X137575Y196048D01*
X138500Y195926D01*
X139425Y196048D01*
X140287Y196405D01*
X140304Y196418D01*
X142861Y193861D01*
X143154Y193666D01*
X143500Y193597D01*
X155826D01*
X167845Y181578D01*
Y167661D01*
X166583D01*
Y163331D01*
X170913D01*
Y167661D01*
X169651D01*
Y181049D01*
X182574D01*
X186597Y177026D01*
Y166498D01*
X185945D01*
X185592Y166428D01*
X185292Y166228D01*
X185092Y165928D01*
X185022Y165575D01*
Y163055D01*
X185092Y162702D01*
X185292Y162402D01*
X185592Y162202D01*
X185945Y162132D01*
X189055D01*
X189408Y162202D01*
X189708Y162402D01*
X189908Y162702D01*
X189978Y163055D01*
Y165575D01*
X189908Y165928D01*
X189708Y166228D01*
X189408Y166428D01*
X189055Y166498D01*
X188403D01*
Y177400D01*
X188334Y177746D01*
X188139Y178039D01*
X183587Y182591D01*
X183294Y182786D01*
X182948Y182855D01*
X169122D01*
X156839Y195139D01*
X156546Y195334D01*
X156200Y195403D01*
X143874D01*
X141582Y197696D01*
X141595Y197713D01*
X141952Y198575D01*
X142074Y199500D01*
X141952Y200425D01*
X141595Y201287D01*
X141027Y202027D01*
X140287Y202595D01*
X139425Y202952D01*
X138500Y203074D01*
D02*
G37*
G36*
X33855Y161326D02*
X30745D01*
X30392Y161255D01*
X30092Y161055D01*
X29892Y160756D01*
X29822Y160402D01*
Y160103D01*
X25070D01*
X24820Y160477D01*
X24234Y160869D01*
X23542Y161006D01*
X22851Y160869D01*
X22265Y160477D01*
X21874Y159891D01*
X21736Y159200D01*
X21874Y158509D01*
X22265Y157923D01*
X22851Y157531D01*
X23542Y157394D01*
X24234Y157531D01*
X24820Y157923D01*
X25070Y158297D01*
X29822D01*
Y157883D01*
X29892Y157529D01*
X30092Y157230D01*
X30392Y157030D01*
X30745Y156959D01*
X33855D01*
X34208Y157030D01*
X34508Y157230D01*
X34708Y157529D01*
X34778Y157883D01*
Y160402D01*
X34708Y160756D01*
X34508Y161055D01*
X34208Y161255D01*
X33855Y161326D01*
D02*
G37*
G36*
X188976Y161185D02*
X186024D01*
X185640Y161108D01*
X185314Y160891D01*
X185097Y160565D01*
X185020Y160181D01*
Y159903D01*
X180313D01*
Y161165D01*
X175983D01*
Y156835D01*
X180313D01*
Y158097D01*
X185020D01*
Y157819D01*
X185097Y157435D01*
X185314Y157109D01*
X185640Y156892D01*
X186024Y156815D01*
X188976D01*
X189360Y156892D01*
X189686Y157109D01*
X189903Y157435D01*
X189980Y157819D01*
Y160181D01*
X189903Y160565D01*
X189686Y160891D01*
X189360Y161108D01*
X188976Y161185D01*
D02*
G37*
G36*
X148500Y163074D02*
X147575Y162952D01*
X146713Y162595D01*
X145973Y162027D01*
X145405Y161287D01*
X145048Y160425D01*
X144926Y159500D01*
X145048Y158575D01*
X145405Y157713D01*
X145973Y156973D01*
X146713Y156405D01*
X147575Y156048D01*
X148500Y155926D01*
X149425Y156048D01*
X150287Y156405D01*
X151027Y156973D01*
X151595Y157713D01*
X151952Y158575D01*
X152074Y159500D01*
X151952Y160425D01*
X151595Y161287D01*
X151027Y162027D01*
X150287Y162595D01*
X149425Y162952D01*
X148500Y163074D01*
D02*
G37*
G36*
X138500D02*
X137575Y162952D01*
X136713Y162595D01*
X135973Y162027D01*
X135405Y161287D01*
X135048Y160425D01*
X134926Y159500D01*
X135048Y158575D01*
X135405Y157713D01*
X135973Y156973D01*
X136713Y156405D01*
X137575Y156048D01*
X138500Y155926D01*
X139425Y156048D01*
X140287Y156405D01*
X141027Y156973D01*
X141595Y157713D01*
X141952Y158575D01*
X142074Y159500D01*
X141952Y160425D01*
X141595Y161287D01*
X141027Y162027D01*
X140287Y162595D01*
X139425Y162952D01*
X138500Y163074D01*
D02*
G37*
G36*
X58382D02*
X57457Y162952D01*
X56595Y162595D01*
X55855Y162027D01*
X55287Y161287D01*
X54930Y160425D01*
X54808Y159500D01*
X54930Y158575D01*
X55287Y157713D01*
X55855Y156973D01*
X56595Y156405D01*
X57457Y156048D01*
X58382Y155926D01*
X59307Y156048D01*
X60169Y156405D01*
X60909Y156973D01*
X61477Y157713D01*
X61834Y158575D01*
X61956Y159500D01*
X61834Y160425D01*
X61477Y161287D01*
X60909Y162027D01*
X60169Y162595D01*
X59307Y162952D01*
X58382Y163074D01*
D02*
G37*
G36*
X148500Y153074D02*
X147575Y152952D01*
X146713Y152595D01*
X145973Y152027D01*
X145405Y151287D01*
X145048Y150425D01*
X144926Y149500D01*
X145048Y148575D01*
X145405Y147713D01*
X145973Y146973D01*
X146713Y146405D01*
X147575Y146048D01*
X148500Y145926D01*
X149425Y146048D01*
X150287Y146405D01*
X151027Y146973D01*
X151595Y147713D01*
X151952Y148575D01*
X152074Y149500D01*
X151952Y150425D01*
X151595Y151287D01*
X151027Y152027D01*
X150287Y152595D01*
X149425Y152952D01*
X148500Y153074D01*
D02*
G37*
G36*
X138500D02*
X137575Y152952D01*
X136713Y152595D01*
X135973Y152027D01*
X135405Y151287D01*
X135048Y150425D01*
X134926Y149500D01*
X135048Y148575D01*
X135405Y147713D01*
X135973Y146973D01*
X136713Y146405D01*
X137575Y146048D01*
X138500Y145926D01*
X139425Y146048D01*
X140287Y146405D01*
X141027Y146973D01*
X141595Y147713D01*
X141952Y148575D01*
X142074Y149500D01*
X141952Y150425D01*
X141595Y151287D01*
X141027Y152027D01*
X140287Y152595D01*
X139425Y152952D01*
X138500Y153074D01*
D02*
G37*
G36*
X170913Y161165D02*
X166583D01*
Y156835D01*
X167845D01*
Y150033D01*
X167272D01*
X166888Y149956D01*
X166562Y149739D01*
X166344Y149413D01*
X166268Y149029D01*
Y146667D01*
X166344Y146283D01*
X166562Y145957D01*
X166888Y145740D01*
X167272Y145663D01*
X170224D01*
X170608Y145740D01*
X170934Y145957D01*
X171151Y146283D01*
X171228Y146667D01*
Y149029D01*
X171151Y149413D01*
X170934Y149739D01*
X170608Y149956D01*
X170224Y150033D01*
X169651D01*
Y156835D01*
X170913D01*
Y161165D01*
D02*
G37*
G36*
X58382Y153074D02*
X57457Y152952D01*
X56595Y152595D01*
X55855Y152027D01*
X55287Y151287D01*
X54930Y150425D01*
X54808Y149500D01*
X54930Y148575D01*
X55287Y147713D01*
X55300Y147696D01*
X53065Y145461D01*
X48677D01*
X48644Y145961D01*
X49307Y146048D01*
X50169Y146405D01*
X50909Y146973D01*
X51477Y147713D01*
X51834Y148575D01*
X51956Y149500D01*
X51834Y150425D01*
X51477Y151287D01*
X50909Y152027D01*
X50169Y152595D01*
X49307Y152952D01*
X48382Y153074D01*
X47457Y152952D01*
X46595Y152595D01*
X45855Y152027D01*
X45287Y151287D01*
X44930Y150425D01*
X44927Y150403D01*
X17564D01*
X17218Y150334D01*
X16925Y150139D01*
X15161Y148375D01*
X14966Y148082D01*
X14897Y147736D01*
Y146842D01*
X14324D01*
X13940Y146766D01*
X13614Y146548D01*
X13397Y146223D01*
X13320Y145839D01*
Y143476D01*
X13397Y143092D01*
X13614Y142767D01*
X13940Y142549D01*
X14324Y142473D01*
X17276D01*
X17660Y142549D01*
X17986Y142767D01*
X18203Y143092D01*
X18280Y143476D01*
Y145839D01*
X18203Y146223D01*
X17986Y146548D01*
X17660Y146766D01*
X17276Y146842D01*
X16703D01*
Y147362D01*
X17938Y148597D01*
X44927D01*
X44930Y148575D01*
X45287Y147713D01*
X45855Y146973D01*
X46595Y146405D01*
X47457Y146048D01*
X48120Y145961D01*
X48087Y145461D01*
X34780D01*
Y145839D01*
X34703Y146223D01*
X34486Y146548D01*
X34160Y146766D01*
X33776Y146842D01*
X30824D01*
X30440Y146766D01*
X30114Y146548D01*
X29897Y146223D01*
X29820Y145839D01*
Y143476D01*
X29897Y143092D01*
X30114Y142767D01*
X30440Y142549D01*
X30824Y142473D01*
X33776D01*
X34160Y142549D01*
X34486Y142767D01*
X34703Y143092D01*
X34780Y143476D01*
Y143654D01*
X53439D01*
X53785Y143723D01*
X54078Y143919D01*
X56577Y146418D01*
X56595Y146405D01*
X57457Y146048D01*
X58382Y145926D01*
X59307Y146048D01*
X60169Y146405D01*
X60909Y146973D01*
X61477Y147713D01*
X61834Y148575D01*
X61956Y149500D01*
X61834Y150425D01*
X61477Y151287D01*
X60909Y152027D01*
X60169Y152595D01*
X59307Y152952D01*
X58382Y153074D01*
D02*
G37*
G36*
X170303Y145134D02*
X169248D01*
Y143033D01*
X171644D01*
Y143793D01*
X171542Y144306D01*
X171251Y144741D01*
X170816Y145032D01*
X170303Y145134D01*
D02*
G37*
G36*
X168248D02*
X167193D01*
X166680Y145032D01*
X166245Y144741D01*
X165954Y144306D01*
X165852Y143793D01*
Y143033D01*
X168248D01*
Y145134D01*
D02*
G37*
G36*
X171644Y142033D02*
X169248D01*
Y139933D01*
X170303D01*
X170816Y140035D01*
X171251Y140325D01*
X171542Y140760D01*
X171644Y141273D01*
Y142033D01*
D02*
G37*
G36*
X168248D02*
X165852D01*
Y141273D01*
X165954Y140760D01*
X166245Y140325D01*
X166680Y140035D01*
X167193Y139933D01*
X168248D01*
Y142033D01*
D02*
G37*
G36*
X33855Y141943D02*
X32800D01*
Y139842D01*
X35196D01*
Y140602D01*
X35094Y141115D01*
X34803Y141550D01*
X34368Y141841D01*
X33855Y141943D01*
D02*
G37*
G36*
X31800D02*
X30745D01*
X30232Y141841D01*
X29797Y141550D01*
X29506Y141115D01*
X29404Y140602D01*
Y139842D01*
X31800D01*
Y141943D01*
D02*
G37*
G36*
X35196Y138842D02*
X32800D01*
Y136742D01*
X33855D01*
X34368Y136844D01*
X34803Y137135D01*
X35094Y137570D01*
X35196Y138083D01*
Y138842D01*
D02*
G37*
G36*
X31800D02*
X29404D01*
Y138083D01*
X29506Y137570D01*
X29797Y137135D01*
X30232Y136844D01*
X30745Y136742D01*
X31800D01*
Y138842D01*
D02*
G37*
G36*
X148500Y143074D02*
X147575Y142952D01*
X146713Y142595D01*
X145973Y142027D01*
X145405Y141287D01*
X145048Y140425D01*
X144926Y139500D01*
X145048Y138575D01*
X145405Y137713D01*
X145973Y136973D01*
X146713Y136405D01*
X147575Y136048D01*
X148500Y135926D01*
X149425Y136048D01*
X150287Y136405D01*
X151027Y136973D01*
X151595Y137713D01*
X151952Y138575D01*
X152074Y139500D01*
X151952Y140425D01*
X151595Y141287D01*
X151027Y142027D01*
X150287Y142595D01*
X149425Y142952D01*
X148500Y143074D01*
D02*
G37*
G36*
X138500D02*
X137575Y142952D01*
X136713Y142595D01*
X135973Y142027D01*
X135405Y141287D01*
X135048Y140425D01*
X134926Y139500D01*
X135048Y138575D01*
X135405Y137713D01*
X135973Y136973D01*
X136713Y136405D01*
X137575Y136048D01*
X138500Y135926D01*
X139425Y136048D01*
X140287Y136405D01*
X141027Y136973D01*
X141595Y137713D01*
X141952Y138575D01*
X142074Y139500D01*
X141952Y140425D01*
X141595Y141287D01*
X141027Y142027D01*
X140287Y142595D01*
X139425Y142952D01*
X138500Y143074D01*
D02*
G37*
G36*
X58382D02*
X57457Y142952D01*
X56595Y142595D01*
X55855Y142027D01*
X55287Y141287D01*
X54930Y140425D01*
X54808Y139500D01*
X54930Y138575D01*
X55287Y137713D01*
X55855Y136973D01*
X56595Y136405D01*
X57457Y136048D01*
X58382Y135926D01*
X59307Y136048D01*
X60169Y136405D01*
X60909Y136973D01*
X61477Y137713D01*
X61834Y138575D01*
X61956Y139500D01*
X61834Y140425D01*
X61477Y141287D01*
X60909Y142027D01*
X60169Y142595D01*
X59307Y142952D01*
X58382Y143074D01*
D02*
G37*
G36*
X48382D02*
X47457Y142952D01*
X46595Y142595D01*
X45855Y142027D01*
X45287Y141287D01*
X44930Y140425D01*
X44808Y139500D01*
X44930Y138575D01*
X45287Y137713D01*
X45855Y136973D01*
X46595Y136405D01*
X47457Y136048D01*
X48382Y135926D01*
X49307Y136048D01*
X50169Y136405D01*
X50909Y136973D01*
X51477Y137713D01*
X51834Y138575D01*
X51956Y139500D01*
X51834Y140425D01*
X51477Y141287D01*
X50909Y142027D01*
X50169Y142595D01*
X49307Y142952D01*
X48382Y143074D01*
D02*
G37*
G36*
X17355Y141526D02*
X14245D01*
X13892Y141455D01*
X13592Y141255D01*
X13392Y140956D01*
X13322Y140602D01*
Y138083D01*
X13392Y137729D01*
X13592Y137430D01*
X13892Y137230D01*
X14245Y137159D01*
X14897D01*
Y133727D01*
X14523Y133477D01*
X14131Y132891D01*
X13994Y132200D01*
X14131Y131509D01*
X14523Y130923D01*
X15109Y130531D01*
X15800Y130394D01*
X16491Y130531D01*
X17077Y130923D01*
X17469Y131509D01*
X17606Y132200D01*
X17469Y132891D01*
X17077Y133477D01*
X16703Y133727D01*
Y137159D01*
X17355D01*
X17708Y137230D01*
X18008Y137430D01*
X18208Y137729D01*
X18278Y138083D01*
Y140602D01*
X18208Y140956D01*
X18008Y141255D01*
X17708Y141455D01*
X17355Y141526D01*
D02*
G37*
G36*
X66572Y125324D02*
X64300D01*
Y123250D01*
X66572D01*
Y125324D01*
D02*
G37*
G36*
X63300D02*
X61028D01*
Y123250D01*
X63300D01*
Y125324D01*
D02*
G37*
G36*
X24555Y124258D02*
X23500D01*
Y122158D01*
X25896D01*
Y122917D01*
X25794Y123430D01*
X25503Y123865D01*
X25068Y124156D01*
X24555Y124258D01*
D02*
G37*
G36*
X22500D02*
X21445D01*
X20932Y124156D01*
X20497Y123865D01*
X20206Y123430D01*
X20104Y122917D01*
Y122158D01*
X22500D01*
Y124258D01*
D02*
G37*
G36*
X66572Y122250D02*
X64300D01*
Y120175D01*
X66572D01*
Y122250D01*
D02*
G37*
G36*
X63300D02*
X61028D01*
Y120175D01*
X63300D01*
Y122250D01*
D02*
G37*
G36*
X25896Y121158D02*
X23500D01*
Y119057D01*
X24555D01*
X25068Y119159D01*
X25503Y119450D01*
X25794Y119885D01*
X25896Y120398D01*
Y121158D01*
D02*
G37*
G36*
X22500D02*
X20104D01*
Y120398D01*
X20206Y119885D01*
X20497Y119450D01*
X20932Y119159D01*
X21445Y119057D01*
X22500D01*
Y121158D01*
D02*
G37*
G36*
X66162Y118616D02*
X61438D01*
Y117604D01*
X57828D01*
X57779Y117677D01*
X57193Y118069D01*
X56502Y118206D01*
X53155D01*
X52464Y118069D01*
X51878Y117677D01*
X51486Y117091D01*
X51349Y116400D01*
X51486Y115709D01*
X51878Y115123D01*
X52464Y114731D01*
X53155Y114594D01*
X56502D01*
X57193Y114731D01*
X57779Y115123D01*
X57828Y115196D01*
X61438D01*
Y114285D01*
X66162D01*
Y115196D01*
X67074D01*
X67123Y115123D01*
X67709Y114731D01*
X68400Y114594D01*
X69091Y114731D01*
X69677Y115123D01*
X70069Y115709D01*
X70206Y116400D01*
X70069Y117091D01*
X69677Y117677D01*
X69091Y118069D01*
X68400Y118206D01*
X67709Y118069D01*
X67123Y117677D01*
X67074Y117604D01*
X66162D01*
Y118616D01*
D02*
G37*
G36*
X33855Y176326D02*
X30745D01*
X30392Y176255D01*
X30092Y176055D01*
X29892Y175756D01*
X29822Y175402D01*
Y172941D01*
X8461Y151581D01*
X8266Y151288D01*
X8197Y150943D01*
Y118200D01*
X8266Y117854D01*
X8461Y117561D01*
X15261Y110761D01*
X15554Y110566D01*
X15900Y110497D01*
X30171D01*
X30421Y110123D01*
X31007Y109731D01*
X31698Y109594D01*
X35045D01*
X35736Y109731D01*
X36322Y110123D01*
X36714Y110709D01*
X36851Y111400D01*
X36714Y112091D01*
X36322Y112677D01*
X35736Y113069D01*
X35045Y113206D01*
X31698D01*
X31007Y113069D01*
X30421Y112677D01*
X30171Y112303D01*
X16274D01*
X10003Y118574D01*
Y150568D01*
X31394Y171959D01*
X33855D01*
X34208Y172030D01*
X34508Y172230D01*
X34708Y172529D01*
X34778Y172883D01*
Y175402D01*
X34708Y175756D01*
X34508Y176055D01*
X34208Y176255D01*
X33855Y176326D01*
D02*
G37*
G36*
X56502Y113206D02*
X53155D01*
X52464Y113069D01*
X51878Y112677D01*
X51486Y112091D01*
X51349Y111400D01*
X51486Y110709D01*
X51878Y110123D01*
X52464Y109731D01*
X53155Y109594D01*
X56502D01*
X57193Y109731D01*
X57779Y110123D01*
X57962Y110397D01*
X59173D01*
X59423Y110023D01*
X60009Y109631D01*
X60700Y109494D01*
X61391Y109631D01*
X61977Y110023D01*
X62369Y110609D01*
X62506Y111300D01*
X62369Y111991D01*
X61977Y112577D01*
X61391Y112969D01*
X60700Y113106D01*
X60009Y112969D01*
X59423Y112577D01*
X59173Y112203D01*
X58096D01*
X57779Y112677D01*
X57193Y113069D01*
X56502Y113206D01*
D02*
G37*
G36*
X35045Y108206D02*
X31698D01*
X31007Y108069D01*
X30421Y107677D01*
X30171Y107303D01*
X19900D01*
X19900Y107303D01*
X19554Y107234D01*
X19261Y107039D01*
X19261Y107039D01*
X19063Y106841D01*
X16145D01*
X15792Y106770D01*
X15492Y106570D01*
X15292Y106271D01*
X15222Y105917D01*
Y103398D01*
X15292Y103044D01*
X15492Y102745D01*
X15792Y102545D01*
X16145Y102474D01*
X19255D01*
X19608Y102545D01*
X19908Y102745D01*
X20108Y103044D01*
X20178Y103398D01*
Y105401D01*
X20274Y105497D01*
X30171D01*
X30421Y105123D01*
X31007Y104731D01*
X31698Y104594D01*
X35045D01*
X35736Y104731D01*
X36322Y105123D01*
X36714Y105709D01*
X36851Y106400D01*
X36714Y107091D01*
X36322Y107677D01*
X35736Y108069D01*
X35045Y108206D01*
D02*
G37*
G36*
X56502D02*
X53155D01*
X52464Y108069D01*
X51878Y107677D01*
X51486Y107091D01*
X51349Y106400D01*
X51486Y105709D01*
X51878Y105123D01*
X52464Y104731D01*
X53155Y104594D01*
X56502D01*
X57193Y104731D01*
X57779Y105123D01*
X58029Y105497D01*
X66339D01*
X66723Y104923D01*
X67309Y104531D01*
X68000Y104394D01*
X68691Y104531D01*
X69277Y104923D01*
X69669Y105509D01*
X69806Y106200D01*
X69669Y106891D01*
X69277Y107477D01*
X68691Y107869D01*
X68000Y108006D01*
X67309Y107869D01*
X66723Y107477D01*
X66606Y107303D01*
X58029D01*
X57779Y107677D01*
X57193Y108069D01*
X56502Y108206D01*
D02*
G37*
G36*
X67855Y103841D02*
X64745D01*
X64392Y103770D01*
X64092Y103570D01*
X63892Y103271D01*
X63822Y102917D01*
Y102303D01*
X58029D01*
X57779Y102677D01*
X57193Y103069D01*
X56502Y103206D01*
X53155D01*
X52464Y103069D01*
X51878Y102677D01*
X51486Y102091D01*
X51349Y101400D01*
X51486Y100709D01*
X51878Y100123D01*
X52464Y99731D01*
X53155Y99594D01*
X56502D01*
X57193Y99731D01*
X57779Y100123D01*
X58029Y100497D01*
X63822D01*
Y100398D01*
X63892Y100044D01*
X64092Y99745D01*
X64392Y99545D01*
X64745Y99474D01*
X67855D01*
X68208Y99545D01*
X68508Y99745D01*
X68708Y100044D01*
X68778Y100398D01*
Y102917D01*
X68708Y103271D01*
X68508Y103570D01*
X68208Y103770D01*
X67855Y103841D01*
D02*
G37*
G36*
X35045Y103206D02*
X31698D01*
X31007Y103069D01*
X30421Y102677D01*
X30171Y102303D01*
X28960D01*
X28777Y102577D01*
X28191Y102969D01*
X27500Y103106D01*
X26809Y102969D01*
X26223Y102577D01*
X25831Y101991D01*
X25694Y101300D01*
X25831Y100609D01*
X26223Y100023D01*
X26809Y99631D01*
X27500Y99494D01*
X28191Y99631D01*
X28777Y100023D01*
X29094Y100497D01*
X30171D01*
X30421Y100123D01*
X31007Y99731D01*
X31698Y99594D01*
X35045D01*
X35736Y99731D01*
X36322Y100123D01*
X36714Y100709D01*
X36851Y101400D01*
X36714Y102091D01*
X36322Y102677D01*
X35736Y103069D01*
X35045Y103206D01*
D02*
G37*
G36*
X33937Y196671D02*
X30827D01*
X30474Y196601D01*
X30174Y196401D01*
X29974Y196101D01*
X29904Y195748D01*
Y193228D01*
X29974Y192875D01*
X30174Y192576D01*
X30474Y192375D01*
X30827Y192305D01*
X33937D01*
X34290Y192375D01*
X34590Y192576D01*
X34790Y192875D01*
X34860Y193228D01*
Y193585D01*
X60945D01*
X66497Y188033D01*
Y131900D01*
X66566Y131554D01*
X66761Y131261D01*
X66858Y131165D01*
X66666Y130703D01*
X40500D01*
X40154Y130634D01*
X39861Y130439D01*
X32733Y123310D01*
X32537Y123017D01*
X32469Y122672D01*
Y118206D01*
X31698D01*
X31007Y118069D01*
X30421Y117677D01*
X30171Y117303D01*
X25480D01*
Y117524D01*
X25403Y117908D01*
X25186Y118233D01*
X24860Y118451D01*
X24476Y118527D01*
X21524D01*
X21140Y118451D01*
X20814Y118233D01*
X20596Y117908D01*
X20520Y117524D01*
Y115161D01*
X20596Y114777D01*
X20814Y114452D01*
X21140Y114234D01*
X21524Y114158D01*
X24476D01*
X24860Y114234D01*
X25186Y114452D01*
X25403Y114777D01*
X25480Y115161D01*
Y115497D01*
X30171D01*
X30421Y115123D01*
X31007Y114731D01*
X31698Y114594D01*
X35045D01*
X35736Y114731D01*
X36322Y115123D01*
X36714Y115709D01*
X36851Y116400D01*
X36714Y117091D01*
X36322Y117677D01*
X35736Y118069D01*
X35045Y118206D01*
X34275D01*
Y122298D01*
X40874Y128897D01*
X67126D01*
X71697Y124326D01*
Y101374D01*
X68550Y98227D01*
X68486Y98233D01*
X68160Y98451D01*
X67776Y98527D01*
X64824D01*
X64440Y98451D01*
X64114Y98233D01*
X63897Y97908D01*
X63820Y97524D01*
Y95161D01*
X63897Y94777D01*
X64114Y94452D01*
X64440Y94234D01*
X64824Y94158D01*
X67374D01*
X67581Y93658D01*
X66226Y92303D01*
X58029D01*
X57779Y92677D01*
X57193Y93069D01*
X56502Y93206D01*
X53155D01*
X52464Y93069D01*
X51878Y92677D01*
X51486Y92091D01*
X51349Y91400D01*
X51486Y90709D01*
X51878Y90123D01*
X52464Y89731D01*
X53155Y89594D01*
X56502D01*
X57193Y89731D01*
X57779Y90123D01*
X58029Y90497D01*
X66600D01*
X66946Y90566D01*
X67239Y90761D01*
X74539Y98061D01*
X74734Y98354D01*
X74803Y98700D01*
Y125400D01*
X74734Y125746D01*
X74539Y126039D01*
X68303Y132274D01*
Y188407D01*
X68234Y188753D01*
X68039Y189046D01*
X61958Y195127D01*
X61664Y195323D01*
X61319Y195391D01*
X34860D01*
Y195748D01*
X34790Y196101D01*
X34590Y196401D01*
X34290Y196601D01*
X33937Y196671D01*
D02*
G37*
G36*
X178740Y103577D02*
X177712Y103442D01*
X176755Y103045D01*
X175932Y102414D01*
X175301Y101592D01*
X174905Y100634D01*
X174769Y99606D01*
X174905Y98579D01*
X175301Y97621D01*
X175932Y96798D01*
X176755Y96167D01*
X177712Y95771D01*
X178740Y95635D01*
X179768Y95771D01*
X180726Y96167D01*
X181548Y96798D01*
X182179Y97621D01*
X182576Y98579D01*
X182711Y99606D01*
X182576Y100634D01*
X182179Y101592D01*
X181548Y102414D01*
X180726Y103045D01*
X179768Y103442D01*
X178740Y103577D01*
D02*
G37*
G36*
X19176Y101527D02*
X16224D01*
X15840Y101451D01*
X15514Y101233D01*
X15296Y100908D01*
X15220Y100524D01*
Y98161D01*
X15296Y97777D01*
X15514Y97452D01*
X15840Y97234D01*
X16224Y97158D01*
X16797D01*
Y76200D01*
X16866Y75854D01*
X17061Y75561D01*
X25700Y66923D01*
X25509Y66461D01*
X25364D01*
Y55279D01*
X29045D01*
Y66461D01*
X28108D01*
Y66695D01*
X28039Y67041D01*
X27843Y67334D01*
X27843Y67334D01*
X18603Y76574D01*
Y96455D01*
X19103Y96662D01*
X20004Y95761D01*
X20297Y95566D01*
X20642Y95497D01*
X30171D01*
X30421Y95123D01*
X31007Y94731D01*
X31698Y94594D01*
X35045D01*
X35736Y94731D01*
X36322Y95123D01*
X36714Y95709D01*
X36851Y96400D01*
X36714Y97091D01*
X36322Y97677D01*
X35736Y98069D01*
X35045Y98206D01*
X31698D01*
X31007Y98069D01*
X30421Y97677D01*
X30171Y97303D01*
X21017D01*
X20176Y98144D01*
X20180Y98161D01*
Y100524D01*
X20103Y100908D01*
X19886Y101233D01*
X19560Y101451D01*
X19176Y101527D01*
D02*
G37*
G36*
X56502Y98206D02*
X53155D01*
X52464Y98069D01*
X51878Y97677D01*
X51486Y97091D01*
X51349Y96400D01*
X51486Y95709D01*
X51878Y95123D01*
X52464Y94731D01*
X53155Y94594D01*
X56502D01*
X57193Y94731D01*
X57779Y95123D01*
X57962Y95397D01*
X59173D01*
X59423Y95023D01*
X60009Y94631D01*
X60700Y94494D01*
X61391Y94631D01*
X61977Y95023D01*
X62369Y95609D01*
X62506Y96300D01*
X62369Y96991D01*
X61977Y97577D01*
X61391Y97969D01*
X60700Y98106D01*
X60009Y97969D01*
X59423Y97577D01*
X59173Y97203D01*
X58096D01*
X57779Y97677D01*
X57193Y98069D01*
X56502Y98206D01*
D02*
G37*
G36*
X133248Y92561D02*
X132193D01*
Y90461D01*
X134589D01*
Y91220D01*
X134487Y91733D01*
X134196Y92168D01*
X133761Y92459D01*
X133248Y92561D01*
D02*
G37*
G36*
X131193D02*
X130138D01*
X129625Y92459D01*
X129190Y92168D01*
X128899Y91733D01*
X128797Y91220D01*
Y90461D01*
X131193D01*
Y92561D01*
D02*
G37*
G36*
X25055Y93541D02*
X21945D01*
X21592Y93470D01*
X21292Y93270D01*
X21092Y92971D01*
X21022Y92617D01*
Y90098D01*
X21092Y89744D01*
X21292Y89445D01*
X21592Y89245D01*
X21945Y89174D01*
X25055D01*
X25408Y89245D01*
X25708Y89445D01*
X25908Y89744D01*
X25978Y90098D01*
Y90497D01*
X30171D01*
X30421Y90123D01*
X31007Y89731D01*
X31698Y89594D01*
X35045D01*
X35736Y89731D01*
X36322Y90123D01*
X36714Y90709D01*
X36851Y91400D01*
X36714Y92091D01*
X36322Y92677D01*
X35736Y93069D01*
X35045Y93206D01*
X31698D01*
X31007Y93069D01*
X30421Y92677D01*
X30171Y92303D01*
X25978D01*
Y92617D01*
X25908Y92971D01*
X25708Y93270D01*
X25408Y93470D01*
X25055Y93541D01*
D02*
G37*
G36*
X134589Y89461D02*
X132193D01*
Y87360D01*
X133248D01*
X133761Y87462D01*
X134196Y87753D01*
X134487Y88188D01*
X134589Y88701D01*
Y89461D01*
D02*
G37*
G36*
X131193D02*
X128797D01*
Y88701D01*
X128899Y88188D01*
X129190Y87753D01*
X129625Y87462D01*
X130138Y87360D01*
X131193D01*
Y89461D01*
D02*
G37*
G36*
X35045Y88624D02*
X33872D01*
Y86900D01*
X37169D01*
X37099Y87251D01*
X36617Y87972D01*
X35896Y88455D01*
X35045Y88624D01*
D02*
G37*
G36*
X32872D02*
X31698D01*
X30847Y88455D01*
X30126Y87972D01*
X29644Y87251D01*
X29574Y86900D01*
X32872D01*
Y88624D01*
D02*
G37*
G36*
X37169Y85900D02*
X33872D01*
Y84176D01*
X35045D01*
X35896Y84346D01*
X36617Y84828D01*
X37099Y85549D01*
X37169Y85900D01*
D02*
G37*
G36*
X32872D02*
X29574D01*
X29644Y85549D01*
X30126Y84828D01*
X30847Y84346D01*
X31698Y84176D01*
X32872D01*
Y85900D01*
D02*
G37*
G36*
X50724Y80480D02*
X48361D01*
X47977Y80404D01*
X47652Y80186D01*
X47434Y79860D01*
X47358Y79476D01*
Y78903D01*
X37402D01*
X37402Y78903D01*
X37056Y78834D01*
X36763Y78639D01*
X36763Y78639D01*
X31566Y73442D01*
X31370Y73149D01*
X31302Y72803D01*
Y66461D01*
X30364D01*
Y55279D01*
X34045D01*
Y66461D01*
X33108D01*
Y72429D01*
X37776Y77097D01*
X47358D01*
Y76524D01*
X47434Y76140D01*
X47652Y75814D01*
X47977Y75596D01*
X48361Y75520D01*
X50724D01*
X51108Y75596D01*
X51433Y75814D01*
X51651Y76140D01*
X51727Y76524D01*
Y79476D01*
X51651Y79860D01*
X51433Y80186D01*
X51108Y80404D01*
X50724Y80480D01*
D02*
G37*
G36*
X24976Y88227D02*
X22024D01*
X21640Y88151D01*
X21314Y87933D01*
X21096Y87608D01*
X21020Y87224D01*
Y84861D01*
X21096Y84477D01*
X21314Y84152D01*
X21640Y83934D01*
X22024Y83858D01*
X22597D01*
Y81099D01*
X22265Y80877D01*
X21874Y80291D01*
X21736Y79600D01*
X21874Y78909D01*
X22265Y78323D01*
X22851Y77931D01*
X23542Y77794D01*
X24234Y77931D01*
X24820Y78323D01*
X25211Y78909D01*
X25349Y79600D01*
X25211Y80291D01*
X24820Y80877D01*
X24403Y81156D01*
Y83858D01*
X24976D01*
X25360Y83934D01*
X25686Y84152D01*
X25903Y84477D01*
X25980Y84861D01*
Y87224D01*
X25903Y87608D01*
X25686Y87933D01*
X25360Y88151D01*
X24976Y88227D01*
D02*
G37*
G36*
X56502Y88206D02*
X53155D01*
X52464Y88069D01*
X51878Y87677D01*
X51486Y87091D01*
X51349Y86400D01*
X51486Y85709D01*
X51878Y85123D01*
X52464Y84731D01*
X53155Y84594D01*
X53925D01*
Y80478D01*
X53598D01*
X53244Y80408D01*
X52945Y80208D01*
X52745Y79908D01*
X52674Y79555D01*
Y76445D01*
X52745Y76092D01*
X52945Y75792D01*
X53244Y75592D01*
X53598Y75522D01*
X56117D01*
X56471Y75592D01*
X56770Y75792D01*
X56970Y76092D01*
X57041Y76445D01*
Y79555D01*
X56970Y79908D01*
X56770Y80208D01*
X56471Y80408D01*
X56117Y80478D01*
X55731D01*
Y84594D01*
X56502D01*
X57193Y84731D01*
X57779Y85123D01*
X58170Y85709D01*
X58308Y86400D01*
X58170Y87091D01*
X57779Y87677D01*
X57193Y88069D01*
X56502Y88206D01*
D02*
G37*
G36*
X132724Y60465D02*
Y56996D01*
X136193D01*
X136121Y57540D01*
X135718Y58513D01*
X135077Y59349D01*
X134241Y59990D01*
X133268Y60393D01*
X132724Y60465D01*
D02*
G37*
G36*
X131724D02*
X131180Y60393D01*
X130207Y59990D01*
X129371Y59349D01*
X128730Y58513D01*
X128327Y57540D01*
X128255Y56996D01*
X131724D01*
Y60465D01*
D02*
G37*
G36*
X73118D02*
Y56996D01*
X76587D01*
X76515Y57540D01*
X76112Y58513D01*
X75471Y59349D01*
X74635Y59990D01*
X73662Y60393D01*
X73118Y60465D01*
D02*
G37*
G36*
X72118D02*
X71574Y60393D01*
X70601Y59990D01*
X69765Y59349D01*
X69124Y58513D01*
X68721Y57540D01*
X68649Y56996D01*
X72118D01*
Y60465D01*
D02*
G37*
G36*
X44045Y66461D02*
X40364D01*
Y55279D01*
X44045D01*
Y66461D01*
D02*
G37*
G36*
X39045D02*
X35364D01*
Y55279D01*
X39045D01*
Y66461D01*
D02*
G37*
G36*
X172224Y60118D02*
X171287Y59994D01*
X170413Y59632D01*
X169663Y59057D01*
X169088Y58307D01*
X168726Y57433D01*
X168603Y56496D01*
X168726Y55559D01*
X169088Y54685D01*
X169663Y53935D01*
X170413Y53360D01*
X171287Y52998D01*
X172224Y52874D01*
X173161Y52998D01*
X174035Y53360D01*
X174785Y53935D01*
X175360Y54685D01*
X175722Y55559D01*
X175846Y56496D01*
X175722Y57433D01*
X175360Y58307D01*
X174785Y59057D01*
X174035Y59632D01*
X173161Y59994D01*
X172224Y60118D01*
D02*
G37*
G36*
X162224D02*
X161287Y59994D01*
X160413Y59632D01*
X159663Y59057D01*
X159088Y58307D01*
X158726Y57433D01*
X158602Y56496D01*
X158726Y55559D01*
X159088Y54685D01*
X159663Y53935D01*
X160413Y53360D01*
X161287Y52998D01*
X162224Y52874D01*
X163161Y52998D01*
X164035Y53360D01*
X164785Y53935D01*
X165360Y54685D01*
X165722Y55559D01*
X165846Y56496D01*
X165722Y57433D01*
X165360Y58307D01*
X164785Y59057D01*
X164035Y59632D01*
X163161Y59994D01*
X162224Y60118D01*
D02*
G37*
G36*
X153819Y92144D02*
X150709D01*
X150355Y92073D01*
X150056Y91873D01*
X149856Y91574D01*
X149785Y91220D01*
Y88701D01*
X149856Y88348D01*
X150056Y88048D01*
X150355Y87848D01*
X150709Y87778D01*
X151321D01*
Y59999D01*
X151287Y59994D01*
X150413Y59632D01*
X149663Y59057D01*
X149088Y58307D01*
X148726Y57433D01*
X148602Y56496D01*
X148726Y55559D01*
X149088Y54685D01*
X149663Y53935D01*
X150413Y53360D01*
X151287Y52998D01*
X152224Y52874D01*
X153161Y52998D01*
X154035Y53360D01*
X154785Y53935D01*
X155360Y54685D01*
X155722Y55559D01*
X155846Y56496D01*
X155722Y57433D01*
X155360Y58307D01*
X154785Y59057D01*
X154035Y59632D01*
X153161Y59994D01*
X153127Y59999D01*
Y87778D01*
X153819D01*
X154172Y87848D01*
X154472Y88048D01*
X154672Y88348D01*
X154742Y88701D01*
Y91220D01*
X154672Y91574D01*
X154472Y91873D01*
X154172Y92073D01*
X153819Y92144D01*
D02*
G37*
G36*
X112618Y60118D02*
X111681Y59994D01*
X110807Y59632D01*
X110057Y59057D01*
X109482Y58307D01*
X109120Y57433D01*
X108997Y56496D01*
X109120Y55559D01*
X109482Y54685D01*
X110057Y53935D01*
X110807Y53360D01*
X111681Y52998D01*
X112618Y52874D01*
X113555Y52998D01*
X114429Y53360D01*
X115179Y53935D01*
X115754Y54685D01*
X116116Y55559D01*
X116240Y56496D01*
X116116Y57433D01*
X115754Y58307D01*
X115179Y59057D01*
X114429Y59632D01*
X113555Y59994D01*
X112618Y60118D01*
D02*
G37*
G36*
X102618D02*
X101681Y59994D01*
X100807Y59632D01*
X100057Y59057D01*
X99482Y58307D01*
X99120Y57433D01*
X98997Y56496D01*
X99120Y55559D01*
X99482Y54685D01*
X100057Y53935D01*
X100807Y53360D01*
X101681Y52998D01*
X102618Y52874D01*
X103555Y52998D01*
X104429Y53360D01*
X105179Y53935D01*
X105754Y54685D01*
X106116Y55559D01*
X106240Y56496D01*
X106116Y57433D01*
X105754Y58307D01*
X105179Y59057D01*
X104429Y59632D01*
X103555Y59994D01*
X102618Y60118D01*
D02*
G37*
G36*
X92618D02*
X91681Y59994D01*
X90807Y59632D01*
X90057Y59057D01*
X89482Y58307D01*
X89120Y57433D01*
X88997Y56496D01*
X89120Y55559D01*
X89482Y54685D01*
X90057Y53935D01*
X90807Y53360D01*
X91681Y52998D01*
X92618Y52874D01*
X93555Y52998D01*
X94429Y53360D01*
X95179Y53935D01*
X95754Y54685D01*
X96116Y55559D01*
X96240Y56496D01*
X96116Y57433D01*
X95754Y58307D01*
X95179Y59057D01*
X94429Y59632D01*
X93555Y59994D01*
X92618Y60118D01*
D02*
G37*
G36*
X82618D02*
X81681Y59994D01*
X80807Y59632D01*
X80057Y59057D01*
X79482Y58307D01*
X79120Y57433D01*
X78997Y56496D01*
X79120Y55559D01*
X79482Y54685D01*
X80057Y53935D01*
X80807Y53360D01*
X81681Y52998D01*
X82618Y52874D01*
X83555Y52998D01*
X84429Y53360D01*
X85179Y53935D01*
X85754Y54685D01*
X86116Y55559D01*
X86240Y56496D01*
X86116Y57433D01*
X85754Y58307D01*
X85179Y59057D01*
X84429Y59632D01*
X83555Y59994D01*
X82618Y60118D01*
D02*
G37*
G36*
X136193Y55996D02*
X132724D01*
Y52527D01*
X133268Y52599D01*
X134241Y53002D01*
X135077Y53643D01*
X135718Y54479D01*
X136121Y55452D01*
X136193Y55996D01*
D02*
G37*
G36*
X131724D02*
X128255D01*
X128327Y55452D01*
X128730Y54479D01*
X129371Y53643D01*
X130207Y53002D01*
X131180Y52599D01*
X131724Y52527D01*
Y55996D01*
D02*
G37*
G36*
X76587D02*
X73118D01*
Y52527D01*
X73662Y52599D01*
X74635Y53002D01*
X75471Y53643D01*
X76112Y54479D01*
X76515Y55452D01*
X76587Y55996D01*
D02*
G37*
G36*
X72118D02*
X68649D01*
X68721Y55452D01*
X69124Y54479D01*
X69765Y53643D01*
X70601Y53002D01*
X71574Y52599D01*
X72118Y52527D01*
Y55996D01*
D02*
G37*
G36*
X39455Y48870D02*
X37705D01*
Y43370D01*
X39455D01*
Y48870D01*
D02*
G37*
G36*
X34455D02*
X32705D01*
Y43370D01*
X34455D01*
Y48870D01*
D02*
G37*
G36*
X36705D02*
X34955D01*
Y43370D01*
X36705D01*
Y48870D01*
D02*
G37*
G36*
X31705D02*
X29955D01*
Y43370D01*
X31705D01*
Y48870D01*
D02*
G37*
G36*
X172224Y50118D02*
X171287Y49994D01*
X170413Y49632D01*
X169663Y49057D01*
X169088Y48307D01*
X168726Y47433D01*
X168603Y46496D01*
X168726Y45559D01*
X169088Y44685D01*
X169663Y43935D01*
X170413Y43360D01*
X171287Y42998D01*
X172224Y42875D01*
X173161Y42998D01*
X174035Y43360D01*
X174785Y43935D01*
X175360Y44685D01*
X175722Y45559D01*
X175846Y46496D01*
X175722Y47433D01*
X175360Y48307D01*
X174785Y49057D01*
X174035Y49632D01*
X173161Y49994D01*
X172224Y50118D01*
D02*
G37*
G36*
X162224D02*
X161287Y49994D01*
X160413Y49632D01*
X159663Y49057D01*
X159088Y48307D01*
X158726Y47433D01*
X158602Y46496D01*
X158726Y45559D01*
X159088Y44685D01*
X159663Y43935D01*
X160413Y43360D01*
X161287Y42998D01*
X162224Y42875D01*
X163161Y42998D01*
X164035Y43360D01*
X164785Y43935D01*
X165360Y44685D01*
X165722Y45559D01*
X165846Y46496D01*
X165722Y47433D01*
X165360Y48307D01*
X164785Y49057D01*
X164035Y49632D01*
X163161Y49994D01*
X162224Y50118D01*
D02*
G37*
G36*
X182617Y221778D02*
X180098D01*
X179744Y221708D01*
X179445Y221508D01*
X179245Y221208D01*
X179174Y220855D01*
Y217745D01*
X179245Y217392D01*
X179445Y217092D01*
X179744Y216892D01*
X180098Y216822D01*
X182559D01*
X191697Y207683D01*
Y205000D01*
X191697Y59055D01*
Y53702D01*
X177609Y39614D01*
X151063D01*
X148203Y42474D01*
Y45698D01*
X148703Y45731D01*
X148726Y45559D01*
X149088Y44685D01*
X149663Y43935D01*
X150413Y43360D01*
X151287Y42998D01*
X152224Y42875D01*
X153161Y42998D01*
X154035Y43360D01*
X154785Y43935D01*
X155360Y44685D01*
X155722Y45559D01*
X155846Y46496D01*
X155722Y47433D01*
X155360Y48307D01*
X154785Y49057D01*
X154035Y49632D01*
X153161Y49994D01*
X152224Y50118D01*
X151287Y49994D01*
X150413Y49632D01*
X149663Y49057D01*
X149088Y48307D01*
X148726Y47433D01*
X148703Y47261D01*
X148203Y47294D01*
Y47582D01*
X148134Y47927D01*
X147939Y48221D01*
X143544Y52615D01*
X143661Y53205D01*
X144035Y53360D01*
X144785Y53935D01*
X145360Y54685D01*
X145722Y55559D01*
X145846Y56496D01*
X145722Y57433D01*
X145360Y58307D01*
X144785Y59057D01*
X144035Y59632D01*
X143161Y59994D01*
X143127Y59999D01*
Y63583D01*
X143058Y63929D01*
X142863Y64222D01*
X135973Y71111D01*
X135680Y71307D01*
X135335Y71376D01*
X48732D01*
X48482Y71750D01*
X47896Y72141D01*
X47205Y72279D01*
X46514Y72141D01*
X45927Y71750D01*
X45536Y71164D01*
X45398Y70472D01*
X45536Y69781D01*
X45927Y69195D01*
X46301Y68945D01*
Y66461D01*
X45364D01*
Y55279D01*
X49045D01*
Y66461D01*
X48108D01*
Y68945D01*
X48482Y69195D01*
X48732Y69569D01*
X134960D01*
X141321Y63209D01*
Y59999D01*
X141287Y59994D01*
X140413Y59632D01*
X139663Y59057D01*
X139088Y58307D01*
X138726Y57433D01*
X138602Y56496D01*
X138726Y55559D01*
X139088Y54685D01*
X139663Y53935D01*
X140413Y53360D01*
X141287Y52998D01*
X141321Y52993D01*
Y52658D01*
X141390Y52312D01*
X141585Y52019D01*
X143098Y50507D01*
X142864Y50033D01*
X142224Y50118D01*
X141287Y49994D01*
X140413Y49632D01*
X139663Y49057D01*
X139088Y48307D01*
X138726Y47433D01*
X138602Y46496D01*
X138726Y45559D01*
X139088Y44685D01*
X139663Y43935D01*
X140413Y43360D01*
X141287Y42998D01*
X142224Y42875D01*
X143161Y42998D01*
X144035Y43360D01*
X144785Y43935D01*
X145360Y44685D01*
X145722Y45559D01*
X145846Y46496D01*
X145824Y46660D01*
X146289Y46959D01*
X146397Y46892D01*
Y42100D01*
X146466Y41754D01*
X146661Y41461D01*
X150050Y38072D01*
X150343Y37877D01*
X150689Y37808D01*
X177983D01*
X178328Y37877D01*
X178621Y38072D01*
X193239Y52690D01*
X193434Y52983D01*
X193503Y53328D01*
X193503Y53328D01*
Y59055D01*
X193503Y205000D01*
Y208057D01*
X193434Y208403D01*
X193239Y208696D01*
X193239Y208696D01*
X183541Y218394D01*
Y220855D01*
X183470Y221208D01*
X183270Y221508D01*
X182971Y221708D01*
X182617Y221778D01*
D02*
G37*
G36*
X112618Y50118D02*
X111681Y49994D01*
X110807Y49632D01*
X110057Y49057D01*
X109482Y48307D01*
X109120Y47433D01*
X108997Y46496D01*
X109120Y45559D01*
X109482Y44685D01*
X110057Y43935D01*
X110807Y43360D01*
X111681Y42998D01*
X112618Y42875D01*
X113555Y42998D01*
X114429Y43360D01*
X115179Y43935D01*
X115754Y44685D01*
X116116Y45559D01*
X116240Y46496D01*
X116116Y47433D01*
X115754Y48307D01*
X115179Y49057D01*
X114429Y49632D01*
X113555Y49994D01*
X112618Y50118D01*
D02*
G37*
G36*
X102618D02*
X101681Y49994D01*
X100807Y49632D01*
X100057Y49057D01*
X99482Y48307D01*
X99120Y47433D01*
X98997Y46496D01*
X99120Y45559D01*
X99482Y44685D01*
X100057Y43935D01*
X100807Y43360D01*
X101681Y42998D01*
X102618Y42875D01*
X103555Y42998D01*
X104429Y43360D01*
X105179Y43935D01*
X105754Y44685D01*
X106116Y45559D01*
X106240Y46496D01*
X106116Y47433D01*
X105754Y48307D01*
X105179Y49057D01*
X104429Y49632D01*
X103555Y49994D01*
X102618Y50118D01*
D02*
G37*
G36*
X92618D02*
X91681Y49994D01*
X90807Y49632D01*
X90057Y49057D01*
X89482Y48307D01*
X89120Y47433D01*
X88997Y46496D01*
X89120Y45559D01*
X89482Y44685D01*
X90057Y43935D01*
X90807Y43360D01*
X91681Y42998D01*
X92618Y42875D01*
X93555Y42998D01*
X94429Y43360D01*
X95179Y43935D01*
X95754Y44685D01*
X96116Y45559D01*
X96240Y46496D01*
X96116Y47433D01*
X95754Y48307D01*
X95179Y49057D01*
X94429Y49632D01*
X93555Y49994D01*
X92618Y50118D01*
D02*
G37*
G36*
X82618D02*
X81681Y49994D01*
X80807Y49632D01*
X80057Y49057D01*
X79482Y48307D01*
X79120Y47433D01*
X78997Y46496D01*
X79120Y45559D01*
X79482Y44685D01*
X80057Y43935D01*
X80807Y43360D01*
X81681Y42998D01*
X82618Y42875D01*
X83555Y42998D01*
X84429Y43360D01*
X85179Y43935D01*
X85754Y44685D01*
X86116Y45559D01*
X86240Y46496D01*
X86116Y47433D01*
X85754Y48307D01*
X85179Y49057D01*
X84429Y49632D01*
X83555Y49994D01*
X82618Y50118D01*
D02*
G37*
G36*
X136015Y49987D02*
X128833D01*
Y42805D01*
X136015D01*
Y49987D01*
D02*
G37*
G36*
X76409D02*
X69228D01*
Y42805D01*
X76409D01*
Y49987D01*
D02*
G37*
G36*
X49045Y48461D02*
X45364D01*
Y37279D01*
X49045D01*
Y48461D01*
D02*
G37*
G36*
X44045D02*
X40364D01*
Y37279D01*
X44045D01*
Y48461D01*
D02*
G37*
G36*
X27830Y48484D02*
X26580D01*
X26105Y48390D01*
X25703Y48121D01*
X25435Y47719D01*
X25340Y47245D01*
Y38495D01*
X25435Y38021D01*
X25703Y37619D01*
X26105Y37350D01*
X26580Y37256D01*
X27830D01*
X28304Y37350D01*
X28706Y37619D01*
X28975Y38021D01*
X29069Y38495D01*
Y47245D01*
X28975Y47719D01*
X28706Y48121D01*
X28304Y48390D01*
X27830Y48484D01*
D02*
G37*
G36*
X39455Y42370D02*
X37705D01*
Y36870D01*
X39455D01*
Y42370D01*
D02*
G37*
G36*
X36705D02*
X34955D01*
Y36870D01*
X36705D01*
Y42370D01*
D02*
G37*
G36*
X34455D02*
X32705D01*
Y36870D01*
X34455D01*
Y42370D01*
D02*
G37*
G36*
X31705D02*
X29955D01*
Y36870D01*
X31705D01*
Y42370D01*
D02*
G37*
G36*
X39370Y23656D02*
X38342Y23521D01*
X37385Y23124D01*
X36562Y22493D01*
X35931Y21670D01*
X35534Y20713D01*
X35399Y19685D01*
X35534Y18657D01*
X35931Y17700D01*
X36562Y16877D01*
X37385Y16246D01*
X38342Y15849D01*
X39370Y15714D01*
X40398Y15849D01*
X41356Y16246D01*
X42178Y16877D01*
X42809Y17700D01*
X43206Y18657D01*
X43341Y19685D01*
X43206Y20713D01*
X42809Y21670D01*
X42178Y22493D01*
X41356Y23124D01*
X40398Y23521D01*
X39370Y23656D01*
D02*
G37*
G36*
X177165Y31533D02*
X175312Y31387D01*
X173504Y30953D01*
X171787Y30241D01*
X170202Y29270D01*
X168788Y28062D01*
X167580Y26649D01*
X166609Y25064D01*
X165898Y23346D01*
X165464Y21538D01*
X165318Y19685D01*
X165464Y17832D01*
X165898Y16024D01*
X166609Y14306D01*
X167580Y12721D01*
X168788Y11308D01*
X170202Y10100D01*
X171787Y9129D01*
X173504Y8417D01*
X175312Y7983D01*
X177165Y7837D01*
X179019Y7983D01*
X180826Y8417D01*
X182544Y9129D01*
X184129Y10100D01*
X185543Y11308D01*
X186750Y12721D01*
X187722Y14306D01*
X188433Y16024D01*
X188867Y17832D01*
X189013Y19685D01*
X188867Y21538D01*
X188433Y23346D01*
X187722Y25064D01*
X186750Y26649D01*
X185543Y28062D01*
X184129Y29270D01*
X182544Y30241D01*
X180826Y30953D01*
X179019Y31387D01*
X177165Y31533D01*
D02*
G37*
G36*
X19685D02*
X17832Y31387D01*
X16024Y30953D01*
X14306Y30241D01*
X12721Y29270D01*
X11308Y28062D01*
X10100Y26649D01*
X9129Y25064D01*
X8417Y23346D01*
X7983Y21538D01*
X7837Y19685D01*
X7983Y17832D01*
X8417Y16024D01*
X9129Y14306D01*
X10100Y12721D01*
X11308Y11308D01*
X12721Y10100D01*
X14306Y9129D01*
X16024Y8417D01*
X17832Y7983D01*
X19685Y7837D01*
X21538Y7983D01*
X23346Y8417D01*
X25064Y9129D01*
X26649Y10100D01*
X28062Y11308D01*
X29270Y12721D01*
X30241Y14306D01*
X30953Y16024D01*
X31387Y17832D01*
X31533Y19685D01*
X31387Y21538D01*
X30953Y23346D01*
X30241Y25064D01*
X29270Y26649D01*
X28062Y28062D01*
X26649Y29270D01*
X25064Y30241D01*
X23346Y30953D01*
X21538Y31387D01*
X19685Y31533D01*
D02*
G37*
%LPD*%
D18*
X152264Y89961D02*
D03*
X131693D02*
D03*
X23500Y91357D02*
D03*
X187500Y164315D02*
D03*
X168748Y142533D02*
D03*
X32300Y139342D02*
D03*
X15800D02*
D03*
X32300Y159142D02*
D03*
X66300Y101657D02*
D03*
X32300Y174143D02*
D03*
X32382Y194488D02*
D03*
X23000Y121658D02*
D03*
X17700Y104657D02*
D03*
D19*
X152264Y95276D02*
D03*
X131693D02*
D03*
X23500Y86042D02*
D03*
X187500Y159000D02*
D03*
X168748Y147848D02*
D03*
X32300Y144658D02*
D03*
X15800D02*
D03*
X32300Y164457D02*
D03*
X66300Y96342D02*
D03*
X32300Y179457D02*
D03*
X32382Y189173D02*
D03*
X23000Y116342D02*
D03*
X17700Y99343D02*
D03*
D20*
X176042Y209700D02*
D03*
Y219300D02*
D03*
X49542Y78000D02*
D03*
D21*
X181358Y209700D02*
D03*
Y219300D02*
D03*
X54857Y78000D02*
D03*
D22*
X63800Y122750D02*
D03*
Y116450D02*
D03*
D23*
X54828Y86400D02*
D03*
Y91400D02*
D03*
Y96400D02*
D03*
Y101400D02*
D03*
Y106400D02*
D03*
Y111400D02*
D03*
Y116400D02*
D03*
X33372Y86400D02*
D03*
Y91400D02*
D03*
Y96400D02*
D03*
Y101400D02*
D03*
Y106400D02*
D03*
Y111400D02*
D03*
Y116400D02*
D03*
D24*
X27205Y42870D02*
D03*
D25*
Y60870D02*
D03*
X32205Y42870D02*
D03*
Y60870D02*
D03*
X37205Y42870D02*
D03*
Y60870D02*
D03*
X42205Y42870D02*
D03*
Y60870D02*
D03*
X47205Y42870D02*
D03*
Y60870D02*
D03*
D42*
X185700Y233100D02*
D03*
Y240100D02*
D03*
D43*
X178740Y99606D02*
D03*
X39370Y19685D02*
D03*
X19685Y236221D02*
D03*
D44*
X178148Y165496D02*
D03*
Y159000D02*
D03*
X168748Y165496D02*
D03*
Y159000D02*
D03*
D45*
X131693Y202693D02*
X138500Y209500D01*
X131693Y95276D02*
Y202693D01*
Y95276D02*
X152264D01*
X152224Y56496D02*
Y89902D01*
X152165Y89961D02*
X152224Y89902D01*
X32382Y189173D02*
X37008Y184547D01*
X15800Y144658D02*
Y147736D01*
X17564Y149500D01*
X48382D01*
X67400Y131900D02*
Y188407D01*
X61319Y194488D02*
X67400Y188407D01*
X32382Y194488D02*
X61319D01*
X53335Y184547D02*
X58382Y179500D01*
X37008Y184547D02*
X53335D01*
X192600Y205000D02*
X192600Y59055D01*
Y53328D02*
Y59055D01*
X177983Y38711D02*
X192600Y53328D01*
X150689Y38711D02*
X177983D01*
X147300Y42100D02*
X150689Y38711D01*
X147300Y42100D02*
Y47582D01*
X142224Y56496D02*
Y63583D01*
X135335Y70472D02*
X142224Y63583D01*
X47205Y70472D02*
X135335D01*
X47205Y60870D02*
Y70472D01*
X37402Y78000D02*
X49542D01*
X31800Y58400D02*
Y60870D01*
X32205Y72803D02*
X37402Y78000D01*
X32205Y60870D02*
Y72803D01*
X26800Y56600D02*
Y60870D01*
X17700Y76200D02*
X27205Y66695D01*
Y60870D02*
Y66695D01*
X142224Y52658D02*
Y56496D01*
Y52658D02*
X147300Y47582D01*
X152224Y53846D02*
Y56496D01*
X181200Y209700D02*
Y210100D01*
Y209700D02*
X181358Y209542D01*
Y191100D02*
Y209542D01*
Y219300D02*
X192600Y208057D01*
Y205000D02*
Y208057D01*
X176800Y214500D02*
X181200Y210100D01*
X148500Y219500D02*
X176042D01*
X156200Y194500D02*
X168748Y181952D01*
X143500Y194500D02*
X156200D01*
X138500Y199500D02*
X143500Y194500D01*
X187500Y164315D02*
Y177400D01*
X182948Y181952D02*
X187500Y177400D01*
X168748Y181952D02*
X182948D01*
X168748Y165496D02*
Y181952D01*
X178148Y159000D02*
X187500D01*
X145400Y214500D02*
X176800D01*
X140400Y219500D02*
X145400Y214500D01*
X138500Y219500D02*
X140400D01*
X168748Y147848D02*
Y159000D01*
X32200Y144557D02*
X53439D01*
X54828Y106400D02*
X67800D01*
X68000Y106200D01*
X15800Y132200D02*
Y139342D01*
X32243Y159200D02*
X32300Y159142D01*
X23542Y159200D02*
X32243D01*
X9100Y118200D02*
Y150943D01*
X32300Y174143D01*
X32200Y179500D02*
X48382D01*
X53339Y164457D02*
X58382Y169500D01*
X32300Y164457D02*
X53339D01*
X53439Y144557D02*
X58382Y149500D01*
Y179500D02*
X58900D01*
X67400Y131900D02*
X73900Y125400D01*
Y98700D02*
Y125400D01*
X66600Y91400D02*
X73900Y98700D01*
X54828Y91400D02*
X66600D01*
X48382Y219500D02*
X53382Y214500D01*
X84700D01*
X19900Y106400D02*
X33372D01*
X18158Y104657D02*
X19900Y106400D01*
X17700Y104657D02*
X18158D01*
X87800Y209500D02*
X87900Y209600D01*
X58382Y209500D02*
X87800D01*
X58582Y219300D02*
X75000D01*
X58382Y219500D02*
X58582Y219300D01*
X23500Y79642D02*
Y86042D01*
X23542Y91400D02*
X33372D01*
X23500Y79642D02*
X23542Y79600D01*
X23500Y91357D02*
X23542Y91400D01*
X40500Y129800D02*
X67500D01*
X33372Y122672D02*
X40500Y129800D01*
X67500D02*
X72600Y124700D01*
X15900Y111400D02*
X33372D01*
X9100Y118200D02*
X15900Y111400D01*
X33372Y116400D02*
Y122672D01*
X72600Y101000D02*
Y124700D01*
X67943Y96342D02*
X72600Y101000D01*
X66300Y96342D02*
X67943D01*
X23000Y116342D02*
X23057Y116400D01*
X33372D01*
X54828Y111400D02*
X54928Y111300D01*
X60700D01*
X54828Y96400D02*
X54928Y96300D01*
X60700D01*
X27500Y101300D02*
X27600Y101400D01*
X33372D01*
X17700Y76200D02*
Y99343D01*
X54828Y78029D02*
X54857Y78000D01*
X54828Y78029D02*
Y86400D01*
X138500Y148770D02*
Y149500D01*
X17700Y99343D02*
X20642Y96400D01*
X33372D01*
X66943Y101400D02*
X67000Y101458D01*
X54828Y101400D02*
X66943D01*
D46*
X54828Y116400D02*
X68400D01*
X143900Y254100D02*
X155709D01*
X169709Y240100D02*
X185700D01*
X155709Y254100D02*
X169709Y240100D01*
X175842Y209500D02*
X176042Y209700D01*
X148500Y209500D02*
X175842D01*
X178148Y170348D02*
X178200Y170400D01*
X178148Y165496D02*
Y170348D01*
X138500Y259500D02*
X143900Y254100D01*
X138500Y249500D02*
X143300Y244700D01*
X160024D01*
X171624Y233100D01*
X185700D01*
D47*
Y240100D01*
D48*
X19685Y19685D02*
D03*
Y255906D02*
D03*
X177165D02*
D03*
Y19685D02*
D03*
D49*
X102618Y46496D02*
D03*
X112618D02*
D03*
Y56496D02*
D03*
X102618D02*
D03*
X92618D02*
D03*
Y46496D02*
D03*
X82618Y56496D02*
D03*
Y46496D02*
D03*
X72618Y56496D02*
D03*
X162224Y46496D02*
D03*
X172224D02*
D03*
Y56496D02*
D03*
X162224D02*
D03*
X152224D02*
D03*
Y46496D02*
D03*
X142224Y56496D02*
D03*
Y46496D02*
D03*
X132224Y56496D02*
D03*
X181358Y191100D02*
D03*
D50*
X72818Y46396D02*
D03*
X132424D02*
D03*
X171358Y191100D02*
D03*
D51*
X148500Y139500D02*
D03*
X138500D02*
D03*
X148500Y149500D02*
D03*
X138500D02*
D03*
X148500Y159500D02*
D03*
X138500D02*
D03*
X148500Y169500D02*
D03*
X138500D02*
D03*
X148500Y179500D02*
D03*
X138500D02*
D03*
X148500Y189500D02*
D03*
X138500D02*
D03*
X148500Y199500D02*
D03*
X138500D02*
D03*
X148500Y209500D02*
D03*
X138500D02*
D03*
X148500Y219500D02*
D03*
X138500D02*
D03*
X148500Y229500D02*
D03*
X138500D02*
D03*
X148500Y239500D02*
D03*
X138500D02*
D03*
X148500Y249500D02*
D03*
X138500D02*
D03*
Y259500D02*
D03*
X48382D02*
D03*
Y249500D02*
D03*
X58382D02*
D03*
X48382Y239500D02*
D03*
X58382D02*
D03*
X48382Y229500D02*
D03*
X58382D02*
D03*
X48382Y219500D02*
D03*
X58382D02*
D03*
X48382Y209500D02*
D03*
X58382D02*
D03*
X48382Y199500D02*
D03*
X58382D02*
D03*
X48382Y189500D02*
D03*
X58382D02*
D03*
X48382Y179500D02*
D03*
X58382D02*
D03*
X48382Y169500D02*
D03*
X58382D02*
D03*
X48382Y159500D02*
D03*
X58382D02*
D03*
X48382Y149500D02*
D03*
X58382D02*
D03*
X48382Y139500D02*
D03*
X58382D02*
D03*
D52*
X148500Y259500D02*
D03*
X58382D02*
D03*
D53*
X47205Y70472D02*
D03*
X68400Y116400D02*
D03*
X178200Y170400D02*
D03*
X68000Y106200D02*
D03*
X84700Y214500D02*
D03*
X15800Y132200D02*
D03*
X23542Y159200D02*
D03*
X87900Y209600D02*
D03*
X75000Y219300D02*
D03*
X23542Y79600D02*
D03*
X60700Y111300D02*
D03*
Y96300D02*
D03*
X27500Y101300D02*
D03*
M02*
