M48
;Layer_Color=9474304
;FILE_FORMAT=2:5
INCH,LZ
;TYPE=PLATED
T1F00S00C0.01181
T2F00S00C0.03543
T3F00S00C0.04000
;TYPE=NON_PLATED
T4F00S00C0.11811
%
T01
X0140905Y0013386
X0145905
X0150906
X0153543Y0062821
X0147638
X0243701Y006066
X0243858Y0013465
X0248829Y0013386
X0238779
X0244094Y0141732
X0253858Y0152756
X0041732Y0148031
X0027165Y013937
X0061417Y0173898
X0056398Y0186909
X0075984Y0161555
X0244063Y0175276
T02
X0116779Y0139953
Y0149953
X0196898
Y0139953
X0206898
Y0149953
X0106779
Y0139953
Y0159953
Y0169953
Y0179953
Y0189953
Y0199953
Y0209953
Y0219953
Y0229953
Y0239953
Y0249953
Y0259953
X0116779
Y0249953
Y0239953
Y0229953
Y0219953
Y0209953
Y0199953
Y0189953
Y0179953
Y0169953
Y0159953
X0196898
X0206898
Y0169953
X0196898
Y0179953
X0206898
Y0189953
X0196898
Y0199953
X0206898
Y0209953
X0196898
Y0219953
X0206898
Y0229953
X0196898
Y0239953
X0206898
Y0249953
X0196898
Y0259953
X0206898
T03
X0125554Y008927
X0135354Y008937
X0145354
X0155354
X0165354
Y009937
X0155354
X0145354
X0135354
X0125354
X0223779
X0233779
X0243779
X0253779
Y008937
X0263779
Y009937
X0243779Y008937
X0233779
X0223979Y008927
X0229134Y0192323
X0239134
T04
X0295276Y0019685
X0019685
Y0255906
X0295276
M30
