M48
;Layer_Color=9474304
;FILE_FORMAT=2:5
INCH,LZ
;TYPE=PLATED
T1F00S00C0.01181
T2F00S00C0.03543
T3F00S00C0.04000
;TYPE=NON_PLATED
T4F00S00C0.11811
%
T01
X00607Y00963
Y01113
X0068Y01062
X00684Y01164
X00275Y01013
X0023542Y00796
X0047205Y0070472
X00158Y01322
X0023542Y01592
X0075Y02193
X00847Y02145
X00879Y02096
X01782Y01704
T02
X0058382Y01395
Y01495
X01385
Y01395
X01485
Y01495
X0048382
Y01395
Y01595
Y01695
Y01795
Y01895
Y01995
Y02095
Y02195
Y02295
Y02395
Y02495
Y02595
X0058382
Y02495
Y02395
Y02295
Y02195
Y02095
Y01995
Y01895
Y01795
Y01695
Y01595
X01385
X01485
Y01695
X01385
Y01795
X01485
Y01895
X01385
Y01995
X01485
Y02095
X01385
Y02195
X01485
Y02295
X01385
Y02395
X01485
Y02495
X01385
Y02595
X01485
T03
X0072818Y0046396
X0082618Y0046496
X0092618
X0102618
X0112618
Y0056496
X0102618
X0092618
X0082618
X0072618
X0132224
X0142224
X0152224
X0162224
Y0046496
X0172224
Y0056496
X0152224Y0046496
X0142224
X0132424Y0046396
X0171358Y01911
X0181358
T04
X0177165Y0019685
X0019685
Y0255906
X0177165
M30
