G04*
G04 #@! TF.GenerationSoftware,Altium Limited,Altium Designer,21.2.2 (38)*
G04*
G04 Layer_Color=32896*
%FSLAX44Y44*%
%MOMM*%
G71*
G04*
G04 #@! TF.SameCoordinates,7819C684-4886-4163-8357-BFC2EAAA6F51*
G04*
G04*
G04 #@! TF.FilePolarity,Positive*
G04*
G01*
G75*
%ADD11C,0.1500*%
%ADD12C,0.2500*%
%ADD13C,0.2540*%
%ADD14C,0.1250*%
%ADD16C,0.2000*%
%ADD17C,0.1000*%
%ADD19C,0.1200*%
%ADD213C,0.2400*%
%ADD214R,11.0000X7.7500*%
G36*
X241768Y388362D02*
X241983Y388344D01*
X242199Y388317D01*
X242397Y388290D01*
X242586Y388245D01*
X242766Y388200D01*
X242927Y388155D01*
X243080Y388101D01*
X243215Y388047D01*
X243341Y388002D01*
X243440Y387957D01*
X243530Y387912D01*
X243602Y387886D01*
X243647Y387859D01*
X243683Y387840D01*
X243692Y387831D01*
Y386780D01*
X243521Y386896D01*
X243359Y387004D01*
X243188Y387094D01*
X243026Y387166D01*
X242864Y387238D01*
X242703Y387292D01*
X242559Y387337D01*
X242415Y387373D01*
X242289Y387400D01*
X242172Y387418D01*
X242064Y387436D01*
X241974Y387445D01*
X241902Y387454D01*
X241642D01*
X241489Y387436D01*
X241345Y387418D01*
X241219Y387382D01*
X241093Y387346D01*
X240976Y387310D01*
X240769Y387202D01*
X240599Y387085D01*
X240455Y386941D01*
X240338Y386797D01*
X240248Y386654D01*
X240176Y386501D01*
X240113Y386357D01*
X240077Y386222D01*
X240050Y386096D01*
X240032Y385997D01*
X240023Y385916D01*
Y385862D01*
Y385853D01*
Y385844D01*
X240032Y385682D01*
X240050Y385539D01*
X240077Y385395D01*
X240122Y385269D01*
X240176Y385152D01*
X240239Y385035D01*
X240392Y384837D01*
X240563Y384666D01*
X240760Y384523D01*
X240976Y384415D01*
X241192Y384316D01*
X241408Y384244D01*
X241624Y384190D01*
X241821Y384154D01*
X241992Y384127D01*
X242145Y384109D01*
X242208D01*
X242262Y384100D01*
X243107D01*
Y383183D01*
X242325D01*
X242082Y383174D01*
X241857Y383165D01*
X241651Y383138D01*
X241453Y383102D01*
X241273Y383066D01*
X241102Y383012D01*
X240940Y382958D01*
X240796Y382895D01*
X240662Y382823D01*
X240545Y382751D01*
X240428Y382679D01*
X240329Y382598D01*
X240239Y382518D01*
X240149Y382428D01*
X240014Y382257D01*
X239906Y382086D01*
X239816Y381915D01*
X239762Y381762D01*
X239726Y381618D01*
X239699Y381501D01*
X239690Y381412D01*
X239681Y381376D01*
Y381349D01*
Y381340D01*
Y381331D01*
X239690Y381178D01*
X239708Y381034D01*
X239735Y380899D01*
X239762Y380791D01*
X239789Y380701D01*
X239816Y380629D01*
X239834Y380584D01*
X239843Y380566D01*
X239906Y380449D01*
X239978Y380332D01*
X240050Y380243D01*
X240122Y380153D01*
X240185Y380090D01*
X240239Y380036D01*
X240275Y380000D01*
X240284Y379991D01*
X240392Y379910D01*
X240509Y379838D01*
X240626Y379775D01*
X240734Y379721D01*
X240823Y379685D01*
X240895Y379658D01*
X240949Y379640D01*
X240958Y379631D01*
X240967D01*
X241120Y379586D01*
X241273Y379559D01*
X241426Y379532D01*
X241561Y379523D01*
X241678Y379514D01*
X241777Y379505D01*
X241857D01*
X242082Y379514D01*
X242307Y379541D01*
X242523Y379577D01*
X242721Y379622D01*
X242918Y379685D01*
X243098Y379748D01*
X243269Y379811D01*
X243422Y379883D01*
X243557Y379955D01*
X243683Y380018D01*
X243791Y380090D01*
X243881Y380144D01*
X243953Y380189D01*
X244006Y380225D01*
X244042Y380252D01*
X244051Y380261D01*
Y379092D01*
X243899Y379002D01*
X243728Y378930D01*
X243557Y378858D01*
X243377Y378804D01*
X243017Y378714D01*
X242847Y378678D01*
X242676Y378651D01*
X242514Y378633D01*
X242370Y378615D01*
X242235Y378606D01*
X242127Y378597D01*
X242028Y378588D01*
X241902D01*
X241633Y378597D01*
X241381Y378615D01*
X241147Y378651D01*
X240949Y378687D01*
X240859Y378705D01*
X240787Y378723D01*
X240716Y378741D01*
X240662Y378759D01*
X240617Y378768D01*
X240581Y378777D01*
X240563Y378786D01*
X240554D01*
X240329Y378867D01*
X240122Y378966D01*
X239942Y379056D01*
X239789Y379155D01*
X239664Y379235D01*
X239574Y379299D01*
X239538Y379325D01*
X239511Y379343D01*
X239502Y379361D01*
X239493D01*
X239340Y379505D01*
X239205Y379658D01*
X239088Y379811D01*
X238989Y379955D01*
X238917Y380072D01*
X238863Y380171D01*
X238845Y380207D01*
X238827Y380234D01*
X238818Y380252D01*
Y380261D01*
X238737Y380458D01*
X238674Y380665D01*
X238638Y380863D01*
X238603Y381043D01*
X238584Y381196D01*
Y381268D01*
X238575Y381322D01*
Y381367D01*
Y381403D01*
Y381421D01*
Y381429D01*
X238584Y381600D01*
X238603Y381762D01*
X238629Y381915D01*
X238656Y382041D01*
X238692Y382149D01*
X238719Y382221D01*
X238737Y382275D01*
X238746Y382293D01*
X238809Y382436D01*
X238890Y382562D01*
X238962Y382679D01*
X239034Y382787D01*
X239106Y382868D01*
X239160Y382922D01*
X239196Y382967D01*
X239205Y382976D01*
X239322Y383084D01*
X239439Y383174D01*
X239556Y383255D01*
X239673Y383327D01*
X239771Y383381D01*
X239843Y383417D01*
X239897Y383444D01*
X239906Y383453D01*
X239915D01*
X240068Y383516D01*
X240221Y383569D01*
X240374Y383605D01*
X240509Y383641D01*
X240635Y383659D01*
X240725Y383677D01*
X240760D01*
X240787Y383686D01*
X240805D01*
Y383713D01*
X240635Y383767D01*
X240473Y383830D01*
X240320Y383893D01*
X240185Y383965D01*
X240050Y384046D01*
X239933Y384136D01*
X239816Y384217D01*
X239717Y384316D01*
X239529Y384505D01*
X239376Y384702D01*
X239250Y384909D01*
X239151Y385116D01*
X239079Y385305D01*
X239016Y385494D01*
X238971Y385664D01*
X238944Y385817D01*
X238926Y385934D01*
X238917Y386033D01*
Y386069D01*
Y386096D01*
Y386105D01*
Y386114D01*
X238926Y386294D01*
X238944Y386474D01*
X238980Y386627D01*
X239007Y386762D01*
X239043Y386878D01*
X239079Y386959D01*
X239097Y387013D01*
X239106Y387031D01*
X239187Y387184D01*
X239268Y387319D01*
X239358Y387436D01*
X239439Y387544D01*
X239520Y387625D01*
X239583Y387688D01*
X239618Y387733D01*
X239636Y387742D01*
X239771Y387850D01*
X239906Y387948D01*
X240050Y388020D01*
X240176Y388092D01*
X240293Y388146D01*
X240383Y388182D01*
X240419Y388191D01*
X240446Y388200D01*
X240455Y388209D01*
X240464D01*
X240644Y388263D01*
X240832Y388299D01*
X241012Y388335D01*
X241174Y388353D01*
X241318Y388362D01*
X241381D01*
X241435Y388371D01*
X241534D01*
X241768Y388362D01*
D02*
G37*
G36*
X256253D02*
X256523Y388335D01*
X256756Y388299D01*
X256864Y388272D01*
X256954Y388254D01*
X257044Y388236D01*
X257116Y388209D01*
X257188Y388191D01*
X257242Y388173D01*
X257287Y388155D01*
X257314Y388146D01*
X257332Y388137D01*
X257341D01*
X257548Y388038D01*
X257737Y387930D01*
X257907Y387822D01*
X258060Y387715D01*
X258186Y387616D01*
X258276Y387535D01*
X258312Y387508D01*
X258339Y387481D01*
X258348Y387472D01*
X258357Y387463D01*
Y386303D01*
X258186Y386483D01*
X258105Y386555D01*
X258024Y386627D01*
X257961Y386681D01*
X257907Y386726D01*
X257871Y386753D01*
X257862Y386762D01*
X257665Y386914D01*
X257566Y386977D01*
X257485Y387031D01*
X257413Y387067D01*
X257350Y387103D01*
X257314Y387121D01*
X257305Y387130D01*
X257089Y387229D01*
X256990Y387274D01*
X256900Y387301D01*
X256828Y387328D01*
X256775Y387346D01*
X256730Y387364D01*
X256721D01*
X256496Y387418D01*
X256388Y387436D01*
X256289Y387445D01*
X256208Y387454D01*
X255956D01*
X255830Y387436D01*
X255714Y387418D01*
X255615Y387400D01*
X255525Y387382D01*
X255462Y387364D01*
X255426Y387355D01*
X255408Y387346D01*
X255291Y387301D01*
X255192Y387256D01*
X255093Y387202D01*
X255012Y387148D01*
X254949Y387103D01*
X254904Y387067D01*
X254868Y387040D01*
X254859Y387031D01*
X254778Y386950D01*
X254706Y386860D01*
X254643Y386771D01*
X254590Y386681D01*
X254545Y386609D01*
X254518Y386546D01*
X254500Y386510D01*
X254491Y386492D01*
X254446Y386366D01*
X254410Y386240D01*
X254392Y386105D01*
X254374Y385988D01*
X254365Y385880D01*
X254356Y385799D01*
Y385746D01*
Y385737D01*
Y385728D01*
Y385584D01*
X254374Y385449D01*
X254383Y385323D01*
X254401Y385215D01*
X254419Y385125D01*
X254428Y385053D01*
X254446Y385008D01*
Y384990D01*
X254482Y384864D01*
X254527Y384738D01*
X254572Y384622D01*
X254625Y384523D01*
X254671Y384433D01*
X254706Y384370D01*
X254733Y384325D01*
X254742Y384307D01*
X254823Y384181D01*
X254913Y384064D01*
X255012Y383947D01*
X255102Y383848D01*
X255174Y383758D01*
X255246Y383695D01*
X255282Y383650D01*
X255300Y383632D01*
X255435Y383507D01*
X255579Y383381D01*
X255723Y383264D01*
X255857Y383156D01*
X255983Y383066D01*
X256073Y382994D01*
X256109Y382967D01*
X256136Y382949D01*
X256154Y382940D01*
X256163Y382931D01*
X256415Y382742D01*
X256649Y382562D01*
X256855Y382410D01*
X257035Y382266D01*
X257107Y382212D01*
X257170Y382158D01*
X257233Y382104D01*
X257278Y382068D01*
X257314Y382041D01*
X257341Y382014D01*
X257359Y382005D01*
X257368Y381996D01*
X257548Y381843D01*
X257701Y381690D01*
X257836Y381546D01*
X257952Y381421D01*
X258042Y381313D01*
X258114Y381232D01*
X258150Y381178D01*
X258168Y381169D01*
Y381160D01*
X258276Y381007D01*
X258357Y380845D01*
X258438Y380701D01*
X258492Y380566D01*
X258537Y380449D01*
X258573Y380359D01*
X258582Y380323D01*
X258591Y380297D01*
X258600Y380288D01*
Y380279D01*
X258645Y380099D01*
X258672Y379919D01*
X258699Y379739D01*
X258708Y379577D01*
X258717Y379433D01*
X258726Y379370D01*
Y379316D01*
Y379281D01*
Y379244D01*
Y379226D01*
Y379218D01*
Y378750D01*
X252890D01*
Y379712D01*
X257602D01*
X257593Y379856D01*
X257584Y379982D01*
X257566Y380099D01*
X257548Y380198D01*
X257530Y380279D01*
X257521Y380332D01*
X257503Y380378D01*
Y380387D01*
X257458Y380494D01*
X257404Y380602D01*
X257341Y380701D01*
X257278Y380791D01*
X257224Y380872D01*
X257188Y380926D01*
X257152Y380971D01*
X257143Y380980D01*
X257044Y381097D01*
X256927Y381205D01*
X256819Y381313D01*
X256703Y381403D01*
X256613Y381492D01*
X256532Y381555D01*
X256478Y381591D01*
X256469Y381609D01*
X256460D01*
X256289Y381744D01*
X256100Y381879D01*
X255920Y382023D01*
X255741Y382149D01*
X255588Y382257D01*
X255525Y382311D01*
X255462Y382347D01*
X255417Y382383D01*
X255381Y382410D01*
X255363Y382419D01*
X255354Y382428D01*
X255165Y382571D01*
X254985Y382706D01*
X254823Y382832D01*
X254688Y382940D01*
X254580Y383039D01*
X254500Y383111D01*
X254446Y383156D01*
X254428Y383174D01*
X254284Y383309D01*
X254158Y383453D01*
X254050Y383578D01*
X253951Y383695D01*
X253870Y383803D01*
X253816Y383875D01*
X253780Y383929D01*
X253771Y383947D01*
X253681Y384100D01*
X253601Y384253D01*
X253538Y384397D01*
X253484Y384523D01*
X253439Y384640D01*
X253412Y384729D01*
X253394Y384756D01*
Y384783D01*
X253385Y384792D01*
Y384801D01*
X253340Y384981D01*
X253304Y385152D01*
X253286Y385332D01*
X253268Y385485D01*
X253259Y385620D01*
X253250Y385682D01*
Y385728D01*
Y385772D01*
Y385799D01*
Y385817D01*
Y385826D01*
X253259Y386051D01*
X253286Y386258D01*
X253313Y386438D01*
X253349Y386600D01*
X253394Y386735D01*
X253412Y386788D01*
X253421Y386833D01*
X253439Y386869D01*
X253448Y386896D01*
X253457Y386905D01*
Y386914D01*
X253538Y387085D01*
X253636Y387238D01*
X253726Y387373D01*
X253825Y387490D01*
X253906Y387589D01*
X253969Y387661D01*
X254014Y387697D01*
X254032Y387715D01*
X254176Y387831D01*
X254320Y387930D01*
X254464Y388011D01*
X254590Y388083D01*
X254706Y388128D01*
X254805Y388173D01*
X254841Y388182D01*
X254868Y388191D01*
X254877Y388200D01*
X254886D01*
X255075Y388254D01*
X255264Y388299D01*
X255444Y388326D01*
X255615Y388353D01*
X255758Y388362D01*
X255812D01*
X255866Y388371D01*
X255965D01*
X256253Y388362D01*
D02*
G37*
G36*
X234376D02*
X234646Y388335D01*
X234880Y388299D01*
X234988Y388272D01*
X235078Y388254D01*
X235168Y388236D01*
X235240Y388209D01*
X235312Y388191D01*
X235366Y388173D01*
X235410Y388155D01*
X235437Y388146D01*
X235455Y388137D01*
X235464D01*
X235671Y388038D01*
X235860Y387930D01*
X236031Y387822D01*
X236184Y387715D01*
X236310Y387616D01*
X236399Y387535D01*
X236436Y387508D01*
X236462Y387481D01*
X236472Y387472D01*
X236481Y387463D01*
Y386303D01*
X236310Y386483D01*
X236229Y386555D01*
X236148Y386627D01*
X236085Y386681D01*
X236031Y386726D01*
X235995Y386753D01*
X235986Y386762D01*
X235788Y386914D01*
X235689Y386977D01*
X235608Y387031D01*
X235536Y387067D01*
X235473Y387103D01*
X235437Y387121D01*
X235428Y387130D01*
X235213Y387229D01*
X235114Y387274D01*
X235024Y387301D01*
X234952Y387328D01*
X234898Y387346D01*
X234853Y387364D01*
X234844D01*
X234619Y387418D01*
X234511Y387436D01*
X234412Y387445D01*
X234331Y387454D01*
X234080D01*
X233954Y387436D01*
X233837Y387418D01*
X233738Y387400D01*
X233648Y387382D01*
X233585Y387364D01*
X233549Y387355D01*
X233531Y387346D01*
X233414Y387301D01*
X233315Y387256D01*
X233216Y387202D01*
X233136Y387148D01*
X233073Y387103D01*
X233028Y387067D01*
X232992Y387040D01*
X232983Y387031D01*
X232902Y386950D01*
X232830Y386860D01*
X232767Y386771D01*
X232713Y386681D01*
X232668Y386609D01*
X232641Y386546D01*
X232623Y386510D01*
X232614Y386492D01*
X232569Y386366D01*
X232533Y386240D01*
X232515Y386105D01*
X232497Y385988D01*
X232488Y385880D01*
X232479Y385799D01*
Y385746D01*
Y385737D01*
Y385728D01*
Y385584D01*
X232497Y385449D01*
X232506Y385323D01*
X232524Y385215D01*
X232542Y385125D01*
X232551Y385053D01*
X232569Y385008D01*
Y384990D01*
X232605Y384864D01*
X232650Y384738D01*
X232695Y384622D01*
X232749Y384523D01*
X232794Y384433D01*
X232830Y384370D01*
X232857Y384325D01*
X232866Y384307D01*
X232947Y384181D01*
X233037Y384064D01*
X233136Y383947D01*
X233225Y383848D01*
X233297Y383758D01*
X233369Y383695D01*
X233405Y383650D01*
X233423Y383632D01*
X233558Y383507D01*
X233702Y383381D01*
X233846Y383264D01*
X233981Y383156D01*
X234107Y383066D01*
X234197Y382994D01*
X234233Y382967D01*
X234259Y382949D01*
X234277Y382940D01*
X234286Y382931D01*
X234538Y382742D01*
X234772Y382562D01*
X234979Y382410D01*
X235159Y382266D01*
X235231Y382212D01*
X235294Y382158D01*
X235357Y382104D01*
X235401Y382068D01*
X235437Y382041D01*
X235464Y382014D01*
X235482Y382005D01*
X235491Y381996D01*
X235671Y381843D01*
X235824Y381690D01*
X235959Y381546D01*
X236076Y381421D01*
X236166Y381313D01*
X236238Y381232D01*
X236274Y381178D01*
X236292Y381169D01*
Y381160D01*
X236399Y381007D01*
X236481Y380845D01*
X236561Y380701D01*
X236615Y380566D01*
X236660Y380449D01*
X236696Y380359D01*
X236705Y380323D01*
X236714Y380297D01*
X236723Y380288D01*
Y380279D01*
X236768Y380099D01*
X236795Y379919D01*
X236822Y379739D01*
X236831Y379577D01*
X236840Y379433D01*
X236849Y379370D01*
Y379316D01*
Y379281D01*
Y379244D01*
Y379226D01*
Y379218D01*
Y378750D01*
X231014D01*
Y379712D01*
X235725D01*
X235716Y379856D01*
X235707Y379982D01*
X235689Y380099D01*
X235671Y380198D01*
X235653Y380279D01*
X235644Y380332D01*
X235626Y380378D01*
Y380387D01*
X235581Y380494D01*
X235527Y380602D01*
X235464Y380701D01*
X235401Y380791D01*
X235347Y380872D01*
X235312Y380926D01*
X235276Y380971D01*
X235267Y380980D01*
X235168Y381097D01*
X235051Y381205D01*
X234943Y381313D01*
X234826Y381403D01*
X234736Y381492D01*
X234655Y381555D01*
X234601Y381591D01*
X234592Y381609D01*
X234583D01*
X234412Y381744D01*
X234224Y381879D01*
X234044Y382023D01*
X233864Y382149D01*
X233711Y382257D01*
X233648Y382311D01*
X233585Y382347D01*
X233540Y382383D01*
X233504Y382410D01*
X233486Y382419D01*
X233477Y382428D01*
X233288Y382571D01*
X233109Y382706D01*
X232947Y382832D01*
X232812Y382940D01*
X232704Y383039D01*
X232623Y383111D01*
X232569Y383156D01*
X232551Y383174D01*
X232407Y383309D01*
X232281Y383453D01*
X232174Y383578D01*
X232075Y383695D01*
X231994Y383803D01*
X231940Y383875D01*
X231904Y383929D01*
X231895Y383947D01*
X231805Y384100D01*
X231724Y384253D01*
X231661Y384397D01*
X231607Y384523D01*
X231562Y384640D01*
X231535Y384729D01*
X231517Y384756D01*
Y384783D01*
X231508Y384792D01*
Y384801D01*
X231463Y384981D01*
X231427Y385152D01*
X231409Y385332D01*
X231391Y385485D01*
X231382Y385620D01*
X231373Y385682D01*
Y385728D01*
Y385772D01*
Y385799D01*
Y385817D01*
Y385826D01*
X231382Y386051D01*
X231409Y386258D01*
X231436Y386438D01*
X231472Y386600D01*
X231517Y386735D01*
X231535Y386788D01*
X231544Y386833D01*
X231562Y386869D01*
X231571Y386896D01*
X231580Y386905D01*
Y386914D01*
X231661Y387085D01*
X231760Y387238D01*
X231850Y387373D01*
X231949Y387490D01*
X232030Y387589D01*
X232093Y387661D01*
X232138Y387697D01*
X232155Y387715D01*
X232299Y387831D01*
X232443Y387930D01*
X232587Y388011D01*
X232713Y388083D01*
X232830Y388128D01*
X232929Y388173D01*
X232965Y388182D01*
X232992Y388191D01*
X233001Y388200D01*
X233010D01*
X233199Y388254D01*
X233387Y388299D01*
X233567Y388326D01*
X233738Y388353D01*
X233882Y388362D01*
X233936D01*
X233990Y388371D01*
X234089D01*
X234376Y388362D01*
D02*
G37*
G36*
X270846Y388353D02*
X271206Y388308D01*
X271557Y388245D01*
X271880Y388155D01*
X272195Y388047D01*
X272474Y387930D01*
X272735Y387804D01*
X272977Y387670D01*
X273193Y387535D01*
X273382Y387409D01*
X273544Y387292D01*
X273679Y387184D01*
X273778Y387094D01*
X273859Y387031D01*
X273904Y386986D01*
X273922Y386968D01*
X274164Y386699D01*
X274371Y386411D01*
X274551Y386114D01*
X274713Y385808D01*
X274848Y385503D01*
X274956Y385197D01*
X275045Y384900D01*
X275117Y384613D01*
X275171Y384343D01*
X275216Y384091D01*
X275243Y383866D01*
X275270Y383677D01*
Y383596D01*
X275279Y383516D01*
Y383453D01*
X275288Y383399D01*
Y383354D01*
Y383327D01*
Y383309D01*
Y383300D01*
X275270Y382913D01*
X275234Y382544D01*
X275180Y382203D01*
X275099Y381879D01*
X275009Y381573D01*
X274902Y381295D01*
X274794Y381034D01*
X274677Y380800D01*
X274569Y380593D01*
X274461Y380413D01*
X274353Y380261D01*
X274263Y380126D01*
X274182Y380027D01*
X274128Y379955D01*
X274083Y379910D01*
X274074Y379892D01*
X273841Y379667D01*
X273589Y379469D01*
X273328Y379290D01*
X273058Y379146D01*
X272789Y379020D01*
X272519Y378912D01*
X272249Y378831D01*
X271997Y378759D01*
X271763Y378705D01*
X271539Y378669D01*
X271341Y378633D01*
X271170Y378615D01*
X271035Y378606D01*
X270972D01*
X270927Y378597D01*
X270837D01*
X270550Y378606D01*
X270280Y378624D01*
X270019Y378651D01*
X269767Y378687D01*
X269543Y378723D01*
X269327Y378768D01*
X269129Y378822D01*
X268949Y378876D01*
X268787Y378921D01*
X268643Y378975D01*
X268517Y379020D01*
X268419Y379065D01*
X268338Y379092D01*
X268275Y379119D01*
X268239Y379137D01*
X268230Y379146D01*
Y380216D01*
X268428Y380108D01*
X268634Y380009D01*
X268841Y379928D01*
X269057Y379856D01*
X269264Y379793D01*
X269471Y379739D01*
X269668Y379694D01*
X269848Y379667D01*
X270028Y379640D01*
X270190Y379622D01*
X270334Y379604D01*
X270451Y379595D01*
X270559Y379586D01*
X270693D01*
X270972Y379595D01*
X271242Y379631D01*
X271494Y379685D01*
X271728Y379748D01*
X271952Y379820D01*
X272159Y379910D01*
X272348Y380000D01*
X272519Y380099D01*
X272672Y380198D01*
X272798Y380288D01*
X272914Y380378D01*
X273013Y380449D01*
X273085Y380521D01*
X273139Y380566D01*
X273175Y380602D01*
X273184Y380611D01*
X273346Y380809D01*
X273499Y381025D01*
X273625Y381250D01*
X273733Y381474D01*
X273823Y381708D01*
X273895Y381933D01*
X273957Y382158D01*
X274011Y382374D01*
X274047Y382580D01*
X274074Y382769D01*
X274101Y382940D01*
X274110Y383084D01*
X274119Y383201D01*
X274128Y383300D01*
Y383327D01*
Y383354D01*
Y383363D01*
Y383372D01*
X274119Y383704D01*
X274083Y384019D01*
X274038Y384316D01*
X273966Y384594D01*
X273895Y384846D01*
X273814Y385089D01*
X273715Y385305D01*
X273625Y385503D01*
X273535Y385682D01*
X273436Y385835D01*
X273355Y385970D01*
X273274Y386078D01*
X273211Y386168D01*
X273166Y386222D01*
X273130Y386267D01*
X273121Y386276D01*
X272923Y386474D01*
X272717Y386636D01*
X272501Y386788D01*
X272276Y386914D01*
X272051Y387013D01*
X271835Y387103D01*
X271620Y387175D01*
X271413Y387238D01*
X271215Y387283D01*
X271044Y387319D01*
X270882Y387337D01*
X270738Y387355D01*
X270630Y387364D01*
X270541Y387373D01*
X270469D01*
X270244Y387364D01*
X270019Y387346D01*
X269803Y387319D01*
X269606Y387283D01*
X269408Y387238D01*
X269219Y387193D01*
X269048Y387139D01*
X268886Y387085D01*
X268742Y387031D01*
X268616Y386977D01*
X268500Y386932D01*
X268410Y386887D01*
X268329Y386851D01*
X268275Y386824D01*
X268239Y386806D01*
X268230Y386797D01*
Y387984D01*
X268401Y388056D01*
X268580Y388110D01*
X268949Y388209D01*
X269327Y388281D01*
X269507Y388299D01*
X269677Y388326D01*
X269839Y388335D01*
X269983Y388353D01*
X270118Y388362D01*
X270235D01*
X270325Y388371D01*
X270460D01*
X270846Y388353D01*
D02*
G37*
G36*
X266297Y378750D02*
X265191D01*
Y382769D01*
X264166D01*
X264067Y382760D01*
X263968Y382751D01*
X263887Y382733D01*
X263815Y382724D01*
X263770Y382706D01*
X263734Y382697D01*
X263725D01*
X263635Y382670D01*
X263545Y382625D01*
X263464Y382589D01*
X263392Y382553D01*
X263338Y382509D01*
X263293Y382481D01*
X263266Y382463D01*
X263257Y382454D01*
X263176Y382392D01*
X263105Y382320D01*
X263033Y382248D01*
X262970Y382185D01*
X262916Y382122D01*
X262880Y382077D01*
X262853Y382041D01*
X262844Y382032D01*
X262763Y381933D01*
X262691Y381825D01*
X262619Y381717D01*
X262556Y381618D01*
X262502Y381537D01*
X262457Y381465D01*
X262430Y381421D01*
X262421Y381403D01*
X260830Y378750D01*
X259508D01*
X261288Y381591D01*
X261360Y381708D01*
X261423Y381807D01*
X261486Y381906D01*
X261531Y381987D01*
X261576Y382050D01*
X261612Y382095D01*
X261630Y382131D01*
X261639Y382140D01*
X261756Y382302D01*
X261810Y382374D01*
X261855Y382436D01*
X261891Y382481D01*
X261927Y382527D01*
X261945Y382544D01*
X261954Y382553D01*
X262071Y382688D01*
X262178Y382787D01*
X262223Y382823D01*
X262259Y382850D01*
X262277Y382868D01*
X262286Y382877D01*
X262421Y382976D01*
X262556Y383048D01*
X262610Y383075D01*
X262655Y383102D01*
X262682Y383111D01*
X262691Y383120D01*
Y383147D01*
X262520Y383201D01*
X262358Y383255D01*
X262205Y383318D01*
X262080Y383372D01*
X261972Y383417D01*
X261900Y383462D01*
X261846Y383489D01*
X261828Y383498D01*
X261684Y383587D01*
X261558Y383677D01*
X261450Y383767D01*
X261351Y383857D01*
X261279Y383929D01*
X261216Y383992D01*
X261180Y384028D01*
X261171Y384046D01*
X261073Y384172D01*
X260992Y384298D01*
X260911Y384424D01*
X260857Y384541D01*
X260812Y384640D01*
X260776Y384711D01*
X260758Y384765D01*
X260749Y384783D01*
X260695Y384945D01*
X260659Y385098D01*
X260632Y385251D01*
X260614Y385395D01*
X260605Y385512D01*
X260596Y385611D01*
Y385647D01*
Y385673D01*
Y385682D01*
Y385691D01*
X260605Y385925D01*
X260632Y386132D01*
X260668Y386321D01*
X260704Y386483D01*
X260740Y386618D01*
X260758Y386672D01*
X260776Y386716D01*
X260794Y386753D01*
X260803Y386780D01*
X260812Y386788D01*
Y386797D01*
X260902Y386968D01*
X261000Y387121D01*
X261099Y387256D01*
X261189Y387373D01*
X261279Y387463D01*
X261351Y387535D01*
X261396Y387571D01*
X261405Y387589D01*
X261414D01*
X261567Y387697D01*
X261720Y387795D01*
X261873Y387877D01*
X262017Y387939D01*
X262143Y387993D01*
X262241Y388029D01*
X262277Y388038D01*
X262304Y388047D01*
X262322Y388056D01*
X262331D01*
X262529Y388110D01*
X262727Y388146D01*
X262925Y388182D01*
X263096Y388200D01*
X263248Y388209D01*
X263311D01*
X263365Y388218D01*
X266297D01*
Y378750D01*
D02*
G37*
G36*
X248682Y388353D02*
X248943Y388317D01*
X249177Y388272D01*
X249284Y388236D01*
X249374Y388209D01*
X249464Y388182D01*
X249545Y388146D01*
X249608Y388119D01*
X249662Y388101D01*
X249707Y388074D01*
X249743Y388065D01*
X249761Y388047D01*
X249770D01*
X249986Y387912D01*
X250175Y387760D01*
X250345Y387598D01*
X250489Y387445D01*
X250606Y387301D01*
X250660Y387238D01*
X250696Y387184D01*
X250723Y387139D01*
X250750Y387103D01*
X250759Y387085D01*
X250768Y387076D01*
X250912Y386824D01*
X251038Y386555D01*
X251137Y386285D01*
X251227Y386033D01*
X251263Y385916D01*
X251290Y385808D01*
X251317Y385718D01*
X251344Y385638D01*
X251362Y385566D01*
X251371Y385521D01*
X251380Y385485D01*
Y385476D01*
X251451Y385107D01*
X251496Y384738D01*
X251532Y384370D01*
X251550Y384199D01*
X251559Y384028D01*
X251568Y383875D01*
X251577Y383731D01*
Y383605D01*
X251586Y383498D01*
Y383408D01*
Y383345D01*
Y383309D01*
Y383291D01*
X251577Y382877D01*
X251568Y382688D01*
X251559Y382500D01*
X251541Y382320D01*
X251523Y382158D01*
X251505Y382005D01*
X251487Y381861D01*
X251469Y381735D01*
X251451Y381618D01*
X251434Y381519D01*
X251416Y381438D01*
X251406Y381376D01*
X251397Y381322D01*
X251388Y381295D01*
Y381286D01*
X251308Y380971D01*
X251218Y380683D01*
X251164Y380557D01*
X251119Y380440D01*
X251074Y380323D01*
X251029Y380225D01*
X250984Y380126D01*
X250939Y380045D01*
X250903Y379982D01*
X250876Y379919D01*
X250849Y379874D01*
X250831Y379838D01*
X250813Y379820D01*
Y379811D01*
X250660Y379595D01*
X250498Y379415D01*
X250345Y379254D01*
X250193Y379128D01*
X250067Y379029D01*
X249959Y378957D01*
X249923Y378930D01*
X249896Y378912D01*
X249878Y378894D01*
X249869D01*
X249653Y378795D01*
X249437Y378714D01*
X249221Y378660D01*
X249024Y378624D01*
X248934Y378615D01*
X248853Y378606D01*
X248781Y378597D01*
X248718D01*
X248673Y378588D01*
X248601D01*
X248322Y378606D01*
X248071Y378642D01*
X247846Y378687D01*
X247639Y378750D01*
X247558Y378777D01*
X247477Y378813D01*
X247414Y378840D01*
X247360Y378858D01*
X247315Y378885D01*
X247279Y378894D01*
X247261Y378912D01*
X247252D01*
X247037Y379047D01*
X246848Y379200D01*
X246677Y379352D01*
X246533Y379514D01*
X246416Y379649D01*
X246362Y379712D01*
X246326Y379766D01*
X246299Y379802D01*
X246272Y379838D01*
X246254Y379856D01*
Y379865D01*
X246110Y380117D01*
X245985Y380368D01*
X245877Y380629D01*
X245796Y380872D01*
X245751Y380989D01*
X245724Y381088D01*
X245697Y381178D01*
X245670Y381259D01*
X245652Y381322D01*
X245643Y381376D01*
X245634Y381403D01*
Y381412D01*
X245562Y381762D01*
X245508Y382131D01*
X245472Y382481D01*
X245454Y382652D01*
X245445Y382805D01*
X245436Y382958D01*
X245427Y383093D01*
Y383210D01*
X245418Y383318D01*
Y383399D01*
Y383462D01*
Y383507D01*
Y383516D01*
X245427Y383956D01*
X245454Y384370D01*
X245490Y384756D01*
X245544Y385116D01*
X245616Y385458D01*
X245697Y385763D01*
X245787Y386060D01*
X245886Y386321D01*
X245994Y386573D01*
X246110Y386797D01*
X246236Y386995D01*
X246362Y387184D01*
X246497Y387355D01*
X246632Y387508D01*
X246767Y387643D01*
X246911Y387769D01*
X247055Y387868D01*
X247189Y387966D01*
X247324Y388047D01*
X247459Y388119D01*
X247585Y388173D01*
X247711Y388227D01*
X247936Y388299D01*
X248035Y388317D01*
X248125Y388335D01*
X248206Y388353D01*
X248277Y388362D01*
X248331Y388371D01*
X248403D01*
X248682Y388353D01*
D02*
G37*
%LPC*%
G36*
X265191Y387211D02*
X263671D01*
X263500Y387202D01*
X263347Y387193D01*
X263195Y387175D01*
X263060Y387148D01*
X262934Y387112D01*
X262817Y387076D01*
X262709Y387040D01*
X262610Y386995D01*
X262529Y386959D01*
X262457Y386914D01*
X262394Y386878D01*
X262340Y386851D01*
X262304Y386815D01*
X262277Y386797D01*
X262259Y386788D01*
X262250Y386780D01*
X262160Y386699D01*
X262089Y386609D01*
X262017Y386510D01*
X261963Y386420D01*
X261873Y386222D01*
X261819Y386033D01*
X261783Y385862D01*
X261774Y385790D01*
X261765Y385728D01*
X261756Y385673D01*
Y385638D01*
Y385611D01*
Y385602D01*
X261765Y385449D01*
X261774Y385305D01*
X261801Y385170D01*
X261828Y385062D01*
X261855Y384972D01*
X261873Y384900D01*
X261891Y384855D01*
X261900Y384837D01*
X261954Y384711D01*
X262026Y384604D01*
X262089Y384505D01*
X262152Y384424D01*
X262214Y384352D01*
X262259Y384307D01*
X262295Y384271D01*
X262304Y384262D01*
X262403Y384181D01*
X262511Y384109D01*
X262610Y384046D01*
X262709Y383992D01*
X262790Y383956D01*
X262853Y383929D01*
X262898Y383911D01*
X262916Y383902D01*
X263051Y383857D01*
X263186Y383830D01*
X263311Y383803D01*
X263437Y383794D01*
X263536Y383785D01*
X263617Y383776D01*
X265191D01*
Y387211D01*
D02*
G37*
G36*
X248511Y387454D02*
X248457D01*
X248286Y387445D01*
X248116Y387409D01*
X247963Y387355D01*
X247819Y387283D01*
X247693Y387193D01*
X247567Y387085D01*
X247450Y386959D01*
X247342Y386824D01*
X247243Y386672D01*
X247162Y386519D01*
X247001Y386177D01*
X246875Y385808D01*
X246776Y385440D01*
X246695Y385062D01*
X246632Y384693D01*
X246587Y384352D01*
X246578Y384199D01*
X246560Y384046D01*
X246551Y383911D01*
X246542Y383785D01*
Y383677D01*
X246533Y383587D01*
Y383516D01*
Y383462D01*
Y383426D01*
Y383417D01*
X246542Y383066D01*
X246551Y382724D01*
X246578Y382419D01*
X246614Y382122D01*
X246659Y381852D01*
X246713Y381600D01*
X246776Y381367D01*
X246839Y381160D01*
X246911Y380962D01*
X246992Y380773D01*
X247073Y380611D01*
X247153Y380458D01*
X247243Y380323D01*
X247333Y380198D01*
X247423Y380090D01*
X247513Y379991D01*
X247603Y379910D01*
X247693Y379829D01*
X247783Y379766D01*
X247873Y379712D01*
X248035Y379622D01*
X248188Y379568D01*
X248313Y379532D01*
X248412Y379514D01*
X248448Y379505D01*
X248493D01*
X248673Y379514D01*
X248844Y379550D01*
X248997Y379604D01*
X249150Y379667D01*
X249284Y379757D01*
X249410Y379856D01*
X249536Y379973D01*
X249644Y380108D01*
X249743Y380243D01*
X249833Y380396D01*
X249995Y380719D01*
X250130Y381070D01*
X250229Y381429D01*
X250310Y381780D01*
X250373Y382131D01*
X250417Y382454D01*
X250435Y382607D01*
X250453Y382742D01*
X250462Y382877D01*
X250471Y382994D01*
Y383093D01*
X250480Y383183D01*
Y383246D01*
Y383300D01*
Y383336D01*
Y383345D01*
X250471Y383722D01*
X250453Y384064D01*
X250426Y384397D01*
X250390Y384702D01*
X250345Y384990D01*
X250292Y385251D01*
X250229Y385494D01*
X250166Y385718D01*
X250094Y385925D01*
X250013Y386123D01*
X249923Y386294D01*
X249842Y386447D01*
X249752Y386591D01*
X249653Y386726D01*
X249563Y386842D01*
X249464Y386941D01*
X249374Y387031D01*
X249275Y387112D01*
X249186Y387175D01*
X249096Y387238D01*
X249006Y387283D01*
X248925Y387328D01*
X248772Y387391D01*
X248646Y387427D01*
X248547Y387445D01*
X248511Y387454D01*
D02*
G37*
%LPD*%
D11*
X260699Y449777D02*
G03*
X259502Y449797I-1495J-55555D01*
G01*
X259201Y416235D02*
G03*
X260500Y416250I1J55681D01*
G01*
X259511Y410700D02*
G03*
X260560Y410735I-1286J55092D01*
G01*
X228888Y433016D02*
G03*
X229010Y431503I9481J0D01*
G01*
Y431503D02*
G03*
X229068Y431178I9514J1535D01*
G01*
D02*
G03*
X229125Y430909I9553J1880D01*
G01*
X229125D02*
G03*
X229183Y430667I9598J2172D01*
G01*
Y430667D02*
G03*
X229240Y430454I9644J2440D01*
G01*
X229240D02*
G03*
X229293Y430267I9689J2682D01*
G01*
X229293D02*
G03*
X229350Y430082I9739J2899D01*
G01*
D02*
G03*
X229411Y429897I9793J3120D01*
G01*
X229376Y436030D02*
G03*
X229317Y435844I9706J-3179D01*
G01*
X229317D02*
G03*
X229262Y435658I9658J-2961D01*
G01*
X229262Y435658D02*
G03*
X229204Y435445I9608J-2745D01*
G01*
X229204Y435445D02*
G03*
X229150Y435230I9564J-2504D01*
G01*
X229150Y435230D02*
G03*
X229096Y434988I9521J-2267D01*
G01*
X229096D02*
G03*
X229038Y434691I9478J-2004D01*
G01*
Y434691D02*
G03*
X228974Y434283I9436J-1689D01*
G01*
X228974D02*
G03*
X228888Y433016I9391J-1267D01*
G01*
X229461Y436038D02*
G03*
X229407Y435866I9708J-3189D01*
G01*
X229407Y435866D02*
G03*
X229351Y435681I9660J-2986D01*
G01*
D02*
G03*
X229297Y435483I9613J-2771D01*
G01*
X229297Y435483D02*
G03*
X229243Y435272I9569J-2547D01*
G01*
X229243D02*
G03*
X229188Y435035I9526J-2313D01*
G01*
Y435035D02*
G03*
X229131Y434747I9482J-2055D01*
G01*
D02*
G03*
X229070Y434382I9442J-1749D01*
G01*
D02*
G03*
X228971Y433016I9379J-1366D01*
G01*
Y433016D02*
G03*
X228979Y432637I9543J-0D01*
G01*
D02*
G03*
X229013Y432121I9438J374D01*
G01*
X229013D02*
G03*
X229095Y431487I9326J883D01*
G01*
X259201Y449798D02*
G03*
X257901Y449782I-1J-55681D01*
G01*
X257901Y449782D02*
G03*
X256813Y449746I1285J-55082D01*
G01*
X256126Y416320D02*
G03*
X257109Y416274I3044J54595D01*
G01*
Y416274D02*
G03*
X258200Y416244I2082J55203D01*
G01*
X258200D02*
G03*
X259201Y416235I1000J55731D01*
G01*
X255482Y410752D02*
G03*
X256498Y410711I2707J54806D01*
G01*
X256498Y410711D02*
G03*
X257676Y410687I1708J55409D01*
G01*
X258211Y410685D02*
G03*
X259511Y410700I1J55681D01*
G01*
X261736Y449740D02*
G03*
X260699Y449777I-2518J-54954D01*
G01*
X260500Y416250D02*
G03*
X261589Y416286I-1285J55081D01*
G01*
X289027Y430002D02*
G03*
X289086Y430188I-9703J3178D01*
G01*
X289085D02*
G03*
X289140Y430374I-9655J2960D01*
G01*
X289140D02*
G03*
X289199Y430587I-9605J2744D01*
G01*
D02*
G03*
X289252Y430801I-9561J2504D01*
G01*
X289252D02*
G03*
X289307Y431043I-9518J2267D01*
G01*
D02*
G03*
X289365Y431341I-9474J2004D01*
G01*
D02*
G03*
X289429Y431749I-9431J1689D01*
G01*
D02*
G03*
X289514Y433016I-9387J1267D01*
G01*
Y433016D02*
G03*
X289393Y434528I-9486J-0D01*
G01*
D02*
G03*
X289329Y434880I-9521J-1536D01*
G01*
Y434880D02*
G03*
X289271Y435150I-9562J-1909D01*
G01*
Y435150D02*
G03*
X289213Y435391I-9607J-2202D01*
G01*
X289213Y435391D02*
G03*
X289156Y435605I-9654J-2470D01*
G01*
X289156D02*
G03*
X289102Y435791I-9699J-2713D01*
G01*
X289102Y435791D02*
G03*
X289044Y435977I-9750J-2930D01*
G01*
X286243Y416426D02*
G03*
X286280Y416565I-7312J2049D01*
G01*
D02*
G03*
X286315Y416705I-7270J1889D01*
G01*
D02*
G03*
X286352Y416865I-7228J1731D01*
G01*
D02*
G03*
X286388Y417046I-7187J1554D01*
G01*
D02*
G03*
X286427Y417269I-7147J1358D01*
G01*
D02*
G03*
X286469Y417575I-7111J1123D01*
G01*
D02*
G03*
X286504Y418779I-7099J811D01*
G01*
X286504D02*
G03*
X286488Y419012I-7270J-399D01*
G01*
X286488Y419012D02*
G03*
X286469Y419203I-7336J-639D01*
G01*
D02*
G03*
X286447Y419373I-7401J-839D01*
G01*
X286447Y419373D02*
G03*
X286425Y419523I-7465J-1021D01*
G01*
X287989Y424311D02*
G03*
X288048Y424489I-9746J3348D01*
G01*
X288048D02*
G03*
X288104Y424668I-9696J3135D01*
G01*
Y424668D02*
G03*
X288157Y424847I-9651J2926D01*
G01*
D02*
G03*
X288213Y425053I-9603J2718D01*
G01*
X288213D02*
G03*
X288270Y425285I-9555J2485D01*
G01*
X288270D02*
G03*
X288327Y425545I-9510J2229D01*
G01*
D02*
G03*
X288386Y425858I-9467J1949D01*
G01*
X288386Y425858D02*
G03*
X288449Y426277I-9428J1620D01*
G01*
D02*
G03*
X288470Y426462I-9433J1192D01*
G01*
X286305Y407667D02*
G03*
X286489Y408029I-20634J10737D01*
G01*
X286489D02*
G03*
X286667Y408393I-20603J10268D01*
G01*
X286667Y408393D02*
G03*
X286850Y408787I-20564J9800D01*
G01*
D02*
G03*
X287025Y409182I-20532J9309D01*
G01*
Y409183D02*
G03*
X287203Y409608I-20495J8822D01*
G01*
D02*
G03*
X287382Y410063I-20458J8310D01*
G01*
X287382Y410063D02*
G03*
X287560Y410548I-20423J7773D01*
G01*
Y410548D02*
G03*
X287735Y411065I-20391J7214D01*
G01*
D02*
G03*
X287914Y411640I-20359J6630D01*
G01*
X287914Y411640D02*
G03*
X288097Y412303I-20331J5994D01*
G01*
Y412303D02*
G03*
X288297Y413139I-20305J5276D01*
G01*
X288297D02*
G03*
X288531Y414411I-20289J4394D01*
G01*
X288531Y414411D02*
G03*
X288700Y415873I-20383J3101D01*
G01*
X288610Y415562D02*
G03*
X288665Y415748I-9660J2972D01*
G01*
X288665D02*
G03*
X288721Y415953I-9612J2756D01*
G01*
D02*
G03*
X288778Y416179I-9565J2523D01*
G01*
X288778D02*
G03*
X288833Y416423I-9522J2274D01*
G01*
X288833D02*
G03*
X288892Y416726I-9477J2008D01*
G01*
D02*
G03*
X288955Y417126I-9436J1688D01*
G01*
X288955D02*
G03*
X289041Y418400I-9391J1274D01*
G01*
X289041Y418400D02*
G03*
X288935Y419813I-9457J-0D01*
G01*
X288935D02*
G03*
X288877Y420154I-9495J-1434D01*
G01*
D02*
G03*
X288822Y420427I-9535J-1793D01*
G01*
Y420427D02*
G03*
X288768Y420659I-9577J-2087D01*
G01*
X288768D02*
G03*
X288716Y420865I-9621J-2342D01*
G01*
D02*
G03*
X288663Y421055I-9665J-2574D01*
G01*
Y421055D02*
G03*
X288611Y421229I-9711J-2792D01*
G01*
X228294Y413563D02*
X268061Y398505D01*
X225462Y410618D02*
X270156Y393621D01*
X217375Y428565D02*
X225411Y425265D01*
X240117Y446055D02*
X240299Y446136D01*
X239937Y445974D02*
X240117Y446055D01*
X219385Y432587D02*
X228547Y429025D01*
X239937Y420059D02*
X240117Y419977D01*
X240299Y419896D01*
X239883Y414099D02*
X240082Y414016D01*
X240282Y413934D01*
X215758Y418162D02*
X224253Y414504D01*
X280636Y444883D02*
X280800Y444791D01*
X252025Y435518D02*
X266376Y433800D01*
X280537Y421096D02*
X280702Y421187D01*
X280865Y421278D01*
X280609Y409626D02*
X280696Y409687D01*
X280783Y409748D01*
X280870Y409809D01*
X280580Y416140D02*
X280731Y416232D01*
X280850Y416306D01*
X280522Y400282D02*
X280797Y400536D01*
X281046Y400770D01*
X280616Y406789D02*
X280751Y406868D01*
X280884Y406946D01*
X215758Y418085D02*
X217375Y428565D01*
X230244Y428038D02*
X230301Y427938D01*
X230359Y427837D01*
X229783Y449476D02*
X239741Y445881D01*
X228237Y429146D02*
X230041Y421067D01*
X228124Y446375D02*
X230041Y449626D01*
X229028Y431396D02*
X229157Y425020D01*
X246581Y448279D02*
X246925Y448365D01*
X246239Y448191D02*
X246581Y448279D01*
X245900Y448100D02*
X246239Y448191D01*
X271950Y448246D02*
X272290Y448157D01*
X271607Y448333D02*
X271950Y448246D01*
X277040Y407529D02*
X277168Y407594D01*
X277296Y407660D01*
X277423Y407726D01*
X288028Y427812D02*
X288087Y427913D01*
X288144Y428013D01*
X288271Y425297D02*
X289416Y431662D01*
X286128Y407333D02*
X286305Y407667D01*
X281797Y407512D02*
X281923Y407595D01*
X282049Y407678D01*
X217458Y428565D02*
X219607Y432501D01*
X229411Y429897D02*
X229466Y429739D01*
X229524Y429582D01*
X229584Y429425D01*
X229636Y429294D01*
X229691Y429165D01*
X229747Y429035D01*
X229804Y428906D01*
X229864Y428777D01*
X229925Y428649D01*
X229988Y428521D01*
X230053Y428393D01*
X230120Y428266D01*
X230188Y428140D01*
X230244Y428038D01*
X239758Y445892D02*
X239937Y445974D01*
X239580Y445808D02*
X239758Y445892D01*
X239403Y445725D02*
X239580Y445808D01*
X239227Y445640D02*
X239403Y445725D01*
X239053Y445555D02*
X239227Y445640D01*
X238880Y445469D02*
X239053Y445555D01*
X238707Y445382D02*
X238880Y445469D01*
X238536Y445294D02*
X238707Y445382D01*
X238367Y445206D02*
X238536Y445294D01*
X238199Y445117D02*
X238367Y445206D01*
X238031Y445028D02*
X238199Y445117D01*
X237865Y444937D02*
X238031Y445028D01*
X237701Y444846D02*
X237865Y444937D01*
X237537Y444754D02*
X237701Y444846D01*
X237375Y444662D02*
X237537Y444754D01*
X237246Y444588D02*
X237375Y444662D01*
X237118Y444513D02*
X237246Y444588D01*
X236991Y444437D02*
X237118Y444513D01*
X236865Y444362D02*
X236991Y444437D01*
X236739Y444286D02*
X236865Y444362D01*
X236615Y444209D02*
X236739Y444286D01*
X236491Y444132D02*
X236615Y444209D01*
X236368Y444054D02*
X236491Y444132D01*
X236246Y443977D02*
X236368Y444054D01*
X236124Y443898D02*
X236246Y443977D01*
X236004Y443820D02*
X236124Y443898D01*
X235884Y443741D02*
X236004Y443820D01*
X235766Y443661D02*
X235884Y443741D01*
X235648Y443581D02*
X235766Y443661D01*
X235531Y443501D02*
X235648Y443581D01*
X235415Y443420D02*
X235531Y443501D01*
X235299Y443339D02*
X235415Y443420D01*
X235185Y443257D02*
X235299Y443339D01*
X235072Y443176D02*
X235185Y443257D01*
X234959Y443093D02*
X235072Y443176D01*
X234848Y443010D02*
X234959Y443093D01*
X234737Y442927D02*
X234848Y443010D01*
X234627Y442844D02*
X234737Y442927D01*
X234518Y442760D02*
X234627Y442844D01*
X234410Y442676D02*
X234518Y442760D01*
X234303Y442591D02*
X234410Y442676D01*
X234197Y442506D02*
X234303Y442591D01*
X234091Y442421D02*
X234197Y442506D01*
X233987Y442335D02*
X234091Y442421D01*
X233883Y442248D02*
X233987Y442335D01*
X233781Y442162D02*
X233883Y442248D01*
X233680Y442075D02*
X233781Y442162D01*
X233579Y441988D02*
X233680Y442075D01*
X233479Y441900D02*
X233579Y441988D01*
X233381Y441812D02*
X233479Y441900D01*
X233283Y441724D02*
X233381Y441812D01*
X233186Y441635D02*
X233283Y441724D01*
X233090Y441546D02*
X233186Y441635D01*
X232995Y441456D02*
X233090Y441546D01*
X232901Y441367D02*
X232995Y441456D01*
X232808Y441277D02*
X232901Y441367D01*
X232717Y441186D02*
X232808Y441277D01*
X232626Y441095D02*
X232717Y441186D01*
X232536Y441004D02*
X232626Y441095D01*
X232447Y440912D02*
X232536Y441004D01*
X232359Y440821D02*
X232447Y440912D01*
X232272Y440728D02*
X232359Y440821D01*
X232186Y440636D02*
X232272Y440728D01*
X232101Y440543D02*
X232186Y440636D01*
X232017Y440450D02*
X232101Y440543D01*
X231934Y440356D02*
X232017Y440450D01*
X231852Y440262D02*
X231934Y440356D01*
X231771Y440168D02*
X231852Y440262D01*
X231691Y440074D02*
X231771Y440168D01*
X231612Y439979D02*
X231691Y440074D01*
X231535Y439884D02*
X231612Y439979D01*
X231458Y439788D02*
X231535Y439884D01*
X231382Y439693D02*
X231458Y439788D01*
X231307Y439596D02*
X231382Y439693D01*
X231234Y439500D02*
X231307Y439596D01*
X231161Y439403D02*
X231234Y439500D01*
X231090Y439306D02*
X231161Y439403D01*
X231019Y439209D02*
X231090Y439306D01*
X230950Y439112D02*
X231019Y439209D01*
X230882Y439014D02*
X230950Y439112D01*
X230814Y438915D02*
X230882Y439014D01*
X230748Y438817D02*
X230814Y438915D01*
X230683Y438718D02*
X230748Y438817D01*
X230619Y438619D02*
X230683Y438718D01*
X230556Y438520D02*
X230619Y438619D01*
X230494Y438420D02*
X230556Y438520D01*
X230434Y438320D02*
X230494Y438420D01*
X230374Y438220D02*
X230434Y438320D01*
X230316Y438120D02*
X230374Y438220D01*
X230258Y438019D02*
X230316Y438120D01*
X230202Y437918D02*
X230258Y438019D01*
X230147Y437817D02*
X230202Y437918D01*
X230080Y437690D02*
X230147Y437817D01*
X230014Y437562D02*
X230080Y437690D01*
X229950Y437435D02*
X230014Y437562D01*
X229888Y437307D02*
X229950Y437435D01*
X229828Y437178D02*
X229888Y437307D01*
X229769Y437049D02*
X229828Y437178D01*
X229713Y436920D02*
X229769Y437049D01*
X229658Y436790D02*
X229713Y436920D01*
X229605Y436660D02*
X229658Y436790D01*
X229544Y436503D02*
X229605Y436660D01*
X229485Y436346D02*
X229544Y436503D01*
X229429Y436188D02*
X229485Y436346D01*
X229376Y436030D02*
X229429Y436188D01*
X220744Y432058D02*
X229783Y446099D01*
X228227Y446742D02*
X235725Y444308D01*
X236548Y444114D02*
X236692Y444204D01*
X236420Y444033D02*
X236548Y444114D01*
X236293Y443952D02*
X236420Y444033D01*
X236167Y443870D02*
X236293Y443952D01*
X236041Y443788D02*
X236167Y443870D01*
X235931Y443714D02*
X236041Y443788D01*
X235821Y443641D02*
X235931Y443714D01*
X235711Y443566D02*
X235821Y443641D01*
X235603Y443492D02*
X235711Y443566D01*
X235495Y443417D02*
X235603Y443492D01*
X235389Y443342D02*
X235495Y443417D01*
X235282Y443266D02*
X235389Y443342D01*
X235177Y443190D02*
X235282Y443266D01*
X235072Y443114D02*
X235177Y443190D01*
X234969Y443037D02*
X235072Y443114D01*
X234866Y442960D02*
X234969Y443037D01*
X234763Y442883D02*
X234866Y442960D01*
X234662Y442805D02*
X234763Y442883D01*
X234561Y442727D02*
X234662Y442805D01*
X234461Y442649D02*
X234561Y442727D01*
X234362Y442570D02*
X234461Y442649D01*
X234264Y442492D02*
X234362Y442570D01*
X234166Y442412D02*
X234264Y442492D01*
X234069Y442333D02*
X234166Y442412D01*
X233973Y442253D02*
X234069Y442333D01*
X233878Y442173D02*
X233973Y442253D01*
X233784Y442092D02*
X233878Y442173D01*
X233690Y442011D02*
X233784Y442092D01*
X233598Y441930D02*
X233690Y442011D01*
X233506Y441848D02*
X233598Y441930D01*
X233415Y441767D02*
X233506Y441848D01*
X233324Y441685D02*
X233415Y441767D01*
X233235Y441602D02*
X233324Y441685D01*
X233146Y441519D02*
X233235Y441602D01*
X233058Y441436D02*
X233146Y441519D01*
X232972Y441353D02*
X233058Y441436D01*
X232885Y441269D02*
X232972Y441353D01*
X232800Y441185D02*
X232885Y441269D01*
X232716Y441101D02*
X232800Y441185D01*
X232632Y441017D02*
X232716Y441101D01*
X232549Y440932D02*
X232632Y441017D01*
X232468Y440847D02*
X232549Y440932D01*
X232387Y440761D02*
X232468Y440847D01*
X232307Y440676D02*
X232387Y440761D01*
X232227Y440590D02*
X232307Y440676D01*
X232149Y440503D02*
X232227Y440590D01*
X232071Y440417D02*
X232149Y440503D01*
X231995Y440330D02*
X232071Y440417D01*
X231919Y440243D02*
X231995Y440330D01*
X231844Y440156D02*
X231919Y440243D01*
X231770Y440068D02*
X231844Y440156D01*
X231697Y439980D02*
X231770Y440068D01*
X231625Y439892D02*
X231697Y439980D01*
X231553Y439803D02*
X231625Y439892D01*
X231483Y439715D02*
X231553Y439803D01*
X231413Y439626D02*
X231483Y439715D01*
X231345Y439536D02*
X231413Y439626D01*
X231277Y439447D02*
X231345Y439536D01*
X231210Y439357D02*
X231277Y439447D01*
X231144Y439267D02*
X231210Y439357D01*
X231079Y439176D02*
X231144Y439267D01*
X231015Y439086D02*
X231079Y439176D01*
X230952Y438995D02*
X231015Y439086D01*
X230890Y438904D02*
X230952Y438995D01*
X230829Y438813D02*
X230890Y438904D01*
X230768Y438721D02*
X230829Y438813D01*
X230709Y438629D02*
X230768Y438721D01*
X230650Y438537D02*
X230709Y438629D01*
X230593Y438445D02*
X230650Y438537D01*
X230529Y438341D02*
X230593Y438445D01*
X230467Y438236D02*
X230529Y438341D01*
X230406Y438131D02*
X230467Y438236D01*
X230345Y438026D02*
X230406Y438131D01*
X230287Y437921D02*
X230345Y438026D01*
X230229Y437815D02*
X230287Y437921D01*
X230173Y437709D02*
X230229Y437815D01*
X230118Y437603D02*
X230173Y437709D01*
X230064Y437497D02*
X230118Y437603D01*
X230005Y437378D02*
X230064Y437497D01*
X229949Y437259D02*
X230005Y437378D01*
X229893Y437140D02*
X229949Y437259D01*
X229839Y437020D02*
X229893Y437140D01*
X229782Y436888D02*
X229839Y437020D01*
X229727Y436755D02*
X229782Y436888D01*
X229673Y436622D02*
X229727Y436755D01*
X229621Y436489D02*
X229673Y436622D01*
X229567Y436343D02*
X229621Y436489D01*
X229515Y436197D02*
X229567Y436343D01*
X229461Y436038D02*
X229515Y436197D01*
X227302Y442263D02*
X228227Y446618D01*
X230359Y427837D02*
X230419Y427737D01*
X230479Y427637D01*
X230541Y427537D01*
X230603Y427438D01*
X230667Y427339D01*
X230732Y427240D01*
X230798Y427141D01*
X230865Y427043D01*
X230933Y426945D01*
X231002Y426848D01*
X231072Y426750D01*
X231143Y426653D01*
X231216Y426557D01*
X231289Y426460D01*
X231363Y426364D01*
X231439Y426268D01*
X231515Y426173D01*
X231593Y426077D01*
X231671Y425983D01*
X231751Y425888D01*
X231832Y425794D01*
X231913Y425700D01*
X231996Y425606D01*
X232080Y425513D01*
X232164Y425420D01*
X232250Y425327D01*
X232337Y425235D01*
X232425Y425143D01*
X232513Y425052D01*
X232603Y424960D01*
X232694Y424869D01*
X232785Y424779D01*
X232878Y424689D01*
X232972Y424599D01*
X233066Y424509D01*
X233162Y424420D01*
X233258Y424331D01*
X233356Y424243D01*
X233454Y424155D01*
X233554Y424067D01*
X233654Y423980D01*
X233756Y423893D01*
X233858Y423806D01*
X233961Y423720D01*
X234065Y423634D01*
X234170Y423548D01*
X234276Y423463D01*
X234383Y423378D01*
X234491Y423294D01*
X234600Y423210D01*
X234709Y423126D01*
X234820Y423043D01*
X234931Y422960D01*
X235044Y422878D01*
X235157Y422796D01*
X235271Y422714D01*
X235386Y422633D01*
X235502Y422552D01*
X235618Y422472D01*
X235736Y422392D01*
X235855Y422312D01*
X235974Y422233D01*
X236094Y422154D01*
X236215Y422076D01*
X236337Y421998D01*
X236460Y421920D01*
X236584Y421843D01*
X236708Y421766D01*
X236833Y421690D01*
X236959Y421614D01*
X237086Y421539D01*
X237214Y421464D01*
X237375Y421371D01*
X237537Y421278D01*
X237701Y421187D01*
X237865Y421096D01*
X238031Y421005D01*
X238199Y420916D01*
X238367Y420827D01*
X238536Y420739D01*
X238707Y420651D01*
X238880Y420564D01*
X239053Y420478D01*
X239227Y420393D01*
X239403Y420308D01*
X239580Y420224D01*
X239758Y420141D01*
X239937Y420059D01*
X226909Y421067D02*
X229783D01*
X225065Y425570D02*
X226909Y421067D01*
X228392Y413437D02*
X229783Y421067D01*
X224124Y414977D02*
X225462Y410439D01*
X230041Y421255D02*
X230122Y421144D01*
X230190Y421052D01*
X230260Y420960D01*
X230330Y420868D01*
X230402Y420776D01*
X230474Y420685D01*
X230548Y420594D01*
X230622Y420503D01*
X230697Y420412D01*
X230773Y420322D01*
X230850Y420232D01*
X230928Y420143D01*
X231007Y420053D01*
X231087Y419964D01*
X231168Y419876D01*
X231250Y419787D01*
X231332Y419699D01*
X231416Y419612D01*
X231500Y419524D01*
X231586Y419437D01*
X231672Y419350D01*
X231759Y419264D01*
X231847Y419177D01*
X231936Y419091D01*
X232026Y419006D01*
X232117Y418921D01*
X232208Y418836D01*
X232301Y418751D01*
X232394Y418667D01*
X232488Y418583D01*
X232583Y418499D01*
X232679Y418416D01*
X232776Y418333D01*
X232874Y418250D01*
X232972Y418168D01*
X233071Y418086D01*
X233172Y418004D01*
X233273Y417923D01*
X233375Y417842D01*
X233477Y417762D01*
X233581Y417682D01*
X233685Y417602D01*
X233790Y417522D01*
X233896Y417443D01*
X234003Y417364D01*
X234111Y417286D01*
X234219Y417208D01*
X234329Y417130D01*
X234439Y417052D01*
X234550Y416976D01*
X234661Y416899D01*
X234774Y416823D01*
X234887Y416747D01*
X235001Y416671D01*
X235116Y416596D01*
X235231Y416521D01*
X235348Y416447D01*
X235488Y416358D01*
X235630Y416270D01*
X235773Y416183D01*
X235917Y416095D01*
X236062Y416009D01*
X236208Y415923D01*
X236356Y415838D01*
X236504Y415753D01*
X236653Y415669D01*
X236804Y415585D01*
X236955Y415502D01*
X237108Y415420D01*
X237261Y415338D01*
X237416Y415256D01*
X237571Y415176D01*
X237728Y415096D01*
X237886Y415016D01*
X238044Y414937D01*
X238204Y414859D01*
X238365Y414781D01*
X238526Y414704D01*
X238716Y414615D01*
X238907Y414527D01*
X239100Y414440D01*
X239294Y414353D01*
X239489Y414268D01*
X239685Y414183D01*
X239883Y414099D01*
X225462Y410439D02*
X226909Y421067D01*
X224072Y414584D02*
X225380Y425020D01*
X259201Y449798D02*
X259502Y449797D01*
X255881Y449698D02*
X256813Y449746D01*
X255055Y449642D02*
X255881Y449698D01*
X254284Y449578D02*
X255055Y449642D01*
X253566Y449508D02*
X254284Y449578D01*
X252902Y449435D02*
X253566Y449508D01*
X252290Y449360D02*
X252902Y449435D01*
X251730Y449284D02*
X252290Y449360D01*
X251173Y449203D02*
X251730Y449284D01*
X250667Y449123D02*
X251173Y449203D01*
X250164Y449039D02*
X250667Y449123D01*
X249710Y448959D02*
X250164Y449039D01*
X249259Y448874D02*
X249710Y448959D01*
X248811Y448786D02*
X249259Y448874D01*
X248411Y448703D02*
X248811Y448786D01*
X248014Y448618D02*
X248411Y448703D01*
X247619Y448529D02*
X248014Y448618D01*
X247271Y448448D02*
X247619Y448529D01*
X246925Y448365D02*
X247271Y448448D01*
X245605Y448019D02*
X245900Y448100D01*
X245312Y447937D02*
X245605Y448019D01*
X245021Y447852D02*
X245312Y447937D01*
X244731Y447766D02*
X245021Y447852D01*
X244443Y447678D02*
X244731Y447766D01*
X244158Y447589D02*
X244443Y447678D01*
X243874Y447498D02*
X244158Y447589D01*
X243592Y447405D02*
X243874Y447498D01*
X243353Y447324D02*
X243592Y447405D01*
X243114Y447242D02*
X243353Y447324D01*
X242877Y447159D02*
X243114Y447242D01*
X242642Y447075D02*
X242877Y447159D01*
X242408Y446989D02*
X242642Y447075D01*
X242175Y446903D02*
X242408Y446989D01*
X241944Y446815D02*
X242175Y446903D01*
X241715Y446726D02*
X241944Y446815D01*
X241487Y446636D02*
X241715Y446726D01*
X241261Y446545D02*
X241487Y446636D01*
X241036Y446452D02*
X241261Y446545D01*
X240850Y446375D02*
X241036Y446452D01*
X240665Y446296D02*
X240850Y446375D01*
X240481Y446217D02*
X240665Y446296D01*
X240299Y446136D02*
X240481Y446217D01*
X258097Y428480D02*
X259896Y440983D01*
X240299Y419896D02*
X240481Y419816D01*
X240665Y419737D01*
X240850Y419658D01*
X241073Y419565D01*
X241298Y419473D01*
X241525Y419382D01*
X241753Y419292D01*
X241983Y419203D01*
X242214Y419116D01*
X242446Y419029D01*
X242681Y418944D01*
X242917Y418860D01*
X243154Y418777D01*
X243392Y418695D01*
X243633Y418614D01*
X243915Y418522D01*
X244199Y418431D01*
X244485Y418342D01*
X244772Y418254D01*
X245062Y418168D01*
X245354Y418084D01*
X245647Y418002D01*
X245984Y417910D01*
X246324Y417820D01*
X246667Y417732D01*
X247011Y417647D01*
X247358Y417564D01*
X247751Y417473D01*
X248146Y417386D01*
X248544Y417301D01*
X248945Y417220D01*
X249394Y417133D01*
X249846Y417049D01*
X250300Y416970D01*
X250804Y416887D01*
X251312Y416809D01*
X251869Y416729D01*
X252478Y416649D01*
X253091Y416576D01*
X253757Y416505D01*
X254476Y416438D01*
X255249Y416376D01*
X256126Y416320D01*
X240282Y413934D02*
X240484Y413852D01*
X240686Y413772D01*
X240890Y413693D01*
X241125Y413603D01*
X241361Y413514D01*
X241599Y413427D01*
X241838Y413341D01*
X242079Y413256D01*
X242322Y413173D01*
X242566Y413090D01*
X242811Y413009D01*
X243089Y412919D01*
X243369Y412831D01*
X243650Y412744D01*
X243934Y412659D01*
X244219Y412576D01*
X244506Y412494D01*
X244827Y412405D01*
X245150Y412318D01*
X245476Y412234D01*
X245803Y412151D01*
X246166Y412062D01*
X246530Y411976D01*
X246898Y411893D01*
X247301Y411805D01*
X247708Y411720D01*
X248117Y411638D01*
X248563Y411553D01*
X249012Y411472D01*
X249499Y411388D01*
X249990Y411310D01*
X250520Y411230D01*
X251089Y411151D01*
X251698Y411073D01*
X252348Y410999D01*
X253039Y410928D01*
X253773Y410864D01*
X254587Y410804D01*
X255482Y410752D01*
X257676Y410687D02*
X258211Y410685D01*
X271261Y448417D02*
X271607Y448333D01*
X270914Y448499D02*
X271261Y448417D01*
X270520Y448589D02*
X270914Y448499D01*
X270123Y448675D02*
X270520Y448589D01*
X269724Y448759D02*
X270123Y448675D01*
X269278Y448848D02*
X269724Y448759D01*
X268828Y448934D02*
X269278Y448848D01*
X268375Y449016D02*
X268828Y448934D01*
X267873Y449101D02*
X268375Y449016D01*
X267367Y449182D02*
X267873Y449101D01*
X266812Y449264D02*
X267367Y449182D01*
X266252Y449341D02*
X266812Y449264D01*
X265641Y449418D02*
X266252Y449341D01*
X264978Y449493D02*
X265641Y449418D01*
X264262Y449565D02*
X264978Y449493D01*
X263492Y449631D02*
X264262Y449565D01*
X262666Y449689D02*
X263492Y449631D01*
X261736Y449740D02*
X262666Y449689D01*
X280471Y444973D02*
X280636Y444883D01*
X280304Y445063D02*
X280471Y444973D01*
X280137Y445153D02*
X280304Y445063D01*
X279968Y445242D02*
X280137Y445153D01*
X279798Y445329D02*
X279968Y445242D01*
X279626Y445417D02*
X279798Y445329D01*
X279454Y445503D02*
X279626Y445417D01*
X279280Y445589D02*
X279454Y445503D01*
X279105Y445674D02*
X279280Y445589D01*
X278929Y445758D02*
X279105Y445674D01*
X278752Y445842D02*
X278929Y445758D01*
X278573Y445925D02*
X278752Y445842D01*
X278393Y446007D02*
X278573Y445925D01*
X278213Y446088D02*
X278393Y446007D01*
X278031Y446169D02*
X278213Y446088D01*
X277848Y446248D02*
X278031Y446169D01*
X277663Y446327D02*
X277848Y446248D01*
X277478Y446406D02*
X277663Y446327D01*
X277254Y446499D02*
X277478Y446406D01*
X277029Y446590D02*
X277254Y446499D01*
X276802Y446681D02*
X277029Y446590D01*
X276573Y446771D02*
X276802Y446681D01*
X276343Y446859D02*
X276573Y446771D01*
X276111Y446946D02*
X276343Y446859D01*
X275878Y447032D02*
X276111Y446946D01*
X275643Y447117D02*
X275878Y447032D01*
X275407Y447201D02*
X275643Y447117D01*
X275169Y447284D02*
X275407Y447201D01*
X274930Y447365D02*
X275169Y447284D01*
X274649Y447458D02*
X274930Y447365D01*
X274366Y447550D02*
X274649Y447458D01*
X274081Y447640D02*
X274366Y447550D01*
X273795Y447729D02*
X274081Y447640D01*
X273506Y447816D02*
X273795Y447729D01*
X273216Y447901D02*
X273506Y447816D01*
X272923Y447984D02*
X273216Y447901D01*
X272629Y448066D02*
X272923Y447984D01*
X272290Y448157D02*
X272629Y448066D01*
X261589Y416286D02*
X262520Y416334D01*
X263347Y416391D01*
X264118Y416455D01*
X264835Y416524D01*
X265499Y416598D01*
X266112Y416673D01*
X266672Y416749D01*
X267229Y416830D01*
X267735Y416909D01*
X268238Y416993D01*
X268692Y417074D01*
X269143Y417158D01*
X269591Y417247D01*
X269991Y417329D01*
X270388Y417415D01*
X270783Y417503D01*
X271131Y417584D01*
X271477Y417668D01*
X271821Y417754D01*
X272163Y417842D01*
X272502Y417933D01*
X272797Y418013D01*
X273090Y418096D01*
X273382Y418181D01*
X273671Y418267D01*
X273959Y418354D01*
X274244Y418444D01*
X274528Y418535D01*
X274810Y418628D01*
X275050Y418708D01*
X275288Y418791D01*
X275525Y418874D01*
X275761Y418958D01*
X275995Y419043D01*
X276227Y419130D01*
X276458Y419218D01*
X276688Y419307D01*
X276915Y419397D01*
X277142Y419488D01*
X277366Y419580D01*
X277552Y419658D01*
X277737Y419737D01*
X277921Y419816D01*
X278104Y419896D01*
X278285Y419977D01*
X278465Y420059D01*
X278645Y420141D01*
X278823Y420224D01*
X279000Y420308D01*
X279175Y420393D01*
X279350Y420478D01*
X279523Y420564D01*
X279695Y420651D01*
X279866Y420739D01*
X280036Y420827D01*
X280204Y420916D01*
X280371Y421005D01*
X280537Y421096D01*
X277423Y407726D02*
X277550Y407792D01*
X277676Y407859D01*
X277801Y407926D01*
X277927Y407993D01*
X278051Y408061D01*
X278175Y408129D01*
X278274Y408184D01*
X278372Y408239D01*
X278470Y408294D01*
X278568Y408350D01*
X278665Y408405D01*
X278762Y408461D01*
X278858Y408517D01*
X278954Y408574D01*
X279050Y408630D01*
X279145Y408687D01*
X279240Y408744D01*
X279334Y408801D01*
X279428Y408859D01*
X279521Y408917D01*
X279615Y408975D01*
X279707Y409033D01*
X279799Y409091D01*
X279891Y409150D01*
X279982Y409208D01*
X280073Y409268D01*
X280164Y409327D01*
X280254Y409386D01*
X280343Y409446D01*
X280432Y409506D01*
X280521Y409566D01*
X280609Y409626D01*
X260560Y410735D02*
X261506Y410783D01*
X262349Y410840D01*
X263092Y410901D01*
X263784Y410968D01*
X264424Y411038D01*
X265060Y411115D01*
X265646Y411193D01*
X266183Y411271D01*
X266715Y411354D01*
X267200Y411435D01*
X267682Y411520D01*
X268116Y411601D01*
X268548Y411686D01*
X268976Y411774D01*
X269359Y411856D01*
X269740Y411941D01*
X270118Y412029D01*
X270493Y412119D01*
X270825Y412202D01*
X271154Y412287D01*
X271481Y412374D01*
X271806Y412463D01*
X272129Y412554D01*
X272409Y412636D01*
X272688Y412719D01*
X272965Y412803D01*
X273241Y412889D01*
X273514Y412977D01*
X273786Y413066D01*
X274056Y413157D01*
X274324Y413249D01*
X274552Y413329D01*
X274779Y413411D01*
X275004Y413493D01*
X275228Y413577D01*
X275451Y413661D01*
X275672Y413747D01*
X275892Y413834D01*
X276110Y413921D01*
X276327Y414010D01*
X276542Y414100D01*
X276756Y414191D01*
X276968Y414282D01*
X277144Y414360D01*
X277319Y414438D01*
X277493Y414517D01*
X277665Y414596D01*
X277837Y414676D01*
X278007Y414757D01*
X278176Y414838D01*
X278345Y414921D01*
X278512Y415004D01*
X278678Y415087D01*
X278843Y415171D01*
X279006Y415256D01*
X279169Y415342D01*
X279330Y415428D01*
X279491Y415515D01*
X279650Y415602D01*
X279808Y415690D01*
X279965Y415779D01*
X280120Y415868D01*
X280275Y415959D01*
X280428Y416049D01*
X280580Y416140D01*
X267991Y398531D02*
X269936Y404685D01*
X269856Y404603D02*
X272869Y403579D01*
X269856Y393673D02*
X272706Y403722D01*
X269936Y404685D02*
X270398Y404832D01*
X270771Y404954D01*
X271115Y405070D01*
X271430Y405177D01*
X271715Y405277D01*
X272000Y405378D01*
X272255Y405470D01*
X272510Y405564D01*
X272735Y405648D01*
X272960Y405734D01*
X273185Y405820D01*
X273408Y405908D01*
X273603Y405985D01*
X273797Y406063D01*
X273991Y406142D01*
X274184Y406221D01*
X274377Y406301D01*
X274541Y406371D01*
X274705Y406441D01*
X274868Y406511D01*
X275031Y406582D01*
X275193Y406654D01*
X275355Y406726D01*
X275516Y406799D01*
X275676Y406872D01*
X275836Y406946D01*
X275995Y407020D01*
X276127Y407082D01*
X276259Y407145D01*
X276390Y407208D01*
X276521Y407271D01*
X276652Y407335D01*
X276781Y407399D01*
X276911Y407464D01*
X277040Y407529D01*
X269725Y393621D02*
X270333Y393873D01*
X270871Y394106D01*
X271403Y394345D01*
X271899Y394576D01*
X272389Y394813D01*
X272843Y395040D01*
X273293Y395272D01*
X273738Y395509D01*
X274177Y395751D01*
X274583Y395981D01*
X274985Y396216D01*
X275382Y396454D01*
X275774Y396696D01*
X276134Y396925D01*
X276490Y397157D01*
X276842Y397393D01*
X277190Y397632D01*
X277533Y397874D01*
X277873Y398120D01*
X278182Y398349D01*
X278488Y398582D01*
X278790Y398816D01*
X279088Y399054D01*
X279383Y399295D01*
X279673Y399538D01*
X279960Y399783D01*
X280243Y400032D01*
X280522Y400282D01*
X272642Y403486D02*
X272962Y403579D01*
X273251Y403666D01*
X273539Y403754D01*
X273796Y403835D01*
X274051Y403917D01*
X274305Y404000D01*
X274557Y404085D01*
X274808Y404171D01*
X275057Y404258D01*
X275304Y404347D01*
X275522Y404427D01*
X275740Y404508D01*
X275955Y404590D01*
X276170Y404673D01*
X276383Y404756D01*
X276595Y404841D01*
X276805Y404927D01*
X277014Y405014D01*
X277222Y405102D01*
X277402Y405179D01*
X277581Y405258D01*
X277760Y405337D01*
X277937Y405417D01*
X278113Y405497D01*
X278288Y405578D01*
X278462Y405660D01*
X278634Y405743D01*
X278806Y405826D01*
X278976Y405911D01*
X279146Y405995D01*
X279314Y406081D01*
X279480Y406167D01*
X279646Y406254D01*
X279787Y406329D01*
X279928Y406404D01*
X280067Y406480D01*
X280205Y406557D01*
X280343Y406634D01*
X280480Y406711D01*
X280616Y406789D01*
X288144Y428013D02*
X288200Y428114D01*
X288256Y428215D01*
X288323Y428343D01*
X288389Y428470D01*
X288452Y428598D01*
X288514Y428726D01*
X288575Y428854D01*
X288633Y428983D01*
X288690Y429113D01*
X288745Y429242D01*
X288798Y429373D01*
X288859Y429529D01*
X288918Y429686D01*
X288973Y429844D01*
X289027Y430002D01*
X288992Y436135D02*
X289044Y435977D01*
X288937Y436293D02*
X288992Y436135D01*
X288879Y436451D02*
X288937Y436293D01*
X288818Y436607D02*
X288879Y436451D01*
X288755Y436764D02*
X288818Y436607D01*
X288701Y436894D02*
X288755Y436764D01*
X288645Y437023D02*
X288701Y436894D01*
X288587Y437152D02*
X288645Y437023D01*
X288527Y437281D02*
X288587Y437152D01*
X288465Y437409D02*
X288527Y437281D01*
X288402Y437537D02*
X288465Y437409D01*
X288336Y437664D02*
X288402Y437537D01*
X288269Y437791D02*
X288336Y437664D01*
X288200Y437918D02*
X288269Y437791D01*
X288144Y438019D02*
X288200Y437918D01*
X288087Y438120D02*
X288144Y438019D01*
X288028Y438220D02*
X288087Y438120D01*
X287969Y438320D02*
X288028Y438220D01*
X287908Y438420D02*
X287969Y438320D01*
X287846Y438520D02*
X287908Y438420D01*
X287783Y438619D02*
X287846Y438520D01*
X287719Y438718D02*
X287783Y438619D01*
X287654Y438817D02*
X287719Y438718D01*
X287588Y438915D02*
X287654Y438817D01*
X287521Y439014D02*
X287588Y438915D01*
X287453Y439112D02*
X287521Y439014D01*
X287383Y439209D02*
X287453Y439112D01*
X287313Y439306D02*
X287383Y439209D01*
X287241Y439403D02*
X287313Y439306D01*
X287169Y439500D02*
X287241Y439403D01*
X287095Y439596D02*
X287169Y439500D01*
X287020Y439693D02*
X287095Y439596D01*
X286945Y439788D02*
X287020Y439693D01*
X286868Y439884D02*
X286945Y439788D01*
X286790Y439979D02*
X286868Y439884D01*
X286711Y440074D02*
X286790Y439979D01*
X286632Y440168D02*
X286711Y440074D01*
X286551Y440262D02*
X286632Y440168D01*
X286469Y440356D02*
X286551Y440262D01*
X286386Y440450D02*
X286469Y440356D01*
X286302Y440543D02*
X286386Y440450D01*
X286217Y440636D02*
X286302Y440543D01*
X286131Y440728D02*
X286217Y440636D01*
X286044Y440821D02*
X286131Y440728D01*
X285956Y440912D02*
X286044Y440821D01*
X285867Y441004D02*
X285956Y440912D01*
X285777Y441095D02*
X285867Y441004D01*
X285686Y441186D02*
X285777Y441095D01*
X285594Y441277D02*
X285686Y441186D01*
X285501Y441367D02*
X285594Y441277D01*
X285407Y441456D02*
X285501Y441367D01*
X285312Y441546D02*
X285407Y441456D01*
X285217Y441635D02*
X285312Y441546D01*
X285120Y441724D02*
X285217Y441635D01*
X285022Y441812D02*
X285120Y441724D01*
X284923Y441900D02*
X285022Y441812D01*
X284824Y441988D02*
X284923Y441900D01*
X284723Y442075D02*
X284824Y441988D01*
X284622Y442162D02*
X284723Y442075D01*
X284519Y442248D02*
X284622Y442162D01*
X284416Y442335D02*
X284519Y442248D01*
X284311Y442421D02*
X284416Y442335D01*
X284206Y442506D02*
X284311Y442421D01*
X284100Y442591D02*
X284206Y442506D01*
X283993Y442676D02*
X284100Y442591D01*
X283885Y442760D02*
X283993Y442676D01*
X283776Y442844D02*
X283885Y442760D01*
X283666Y442927D02*
X283776Y442844D01*
X283555Y443010D02*
X283666Y442927D01*
X283443Y443093D02*
X283555Y443010D01*
X283331Y443176D02*
X283443Y443093D01*
X283217Y443257D02*
X283331Y443176D01*
X283103Y443339D02*
X283217Y443257D01*
X282988Y443420D02*
X283103Y443339D01*
X282872Y443501D02*
X282988Y443420D01*
X282755Y443581D02*
X282872Y443501D01*
X282637Y443661D02*
X282755Y443581D01*
X282518Y443741D02*
X282637Y443661D01*
X282399Y443820D02*
X282518Y443741D01*
X282278Y443898D02*
X282399Y443820D01*
X282157Y443977D02*
X282278Y443898D01*
X282035Y444054D02*
X282157Y443977D01*
X281912Y444132D02*
X282035Y444054D01*
X281788Y444209D02*
X281912Y444132D01*
X281663Y444286D02*
X281788Y444209D01*
X281538Y444362D02*
X281663Y444286D01*
X281411Y444437D02*
X281538Y444362D01*
X281284Y444513D02*
X281411Y444437D01*
X281124Y444606D02*
X281284Y444513D01*
X280963Y444699D02*
X281124Y444606D01*
X280800Y444791D02*
X280963Y444699D01*
X280865Y421278D02*
X281027Y421371D01*
X281156Y421445D01*
X281284Y421520D01*
X281411Y421595D01*
X281538Y421671D01*
X281663Y421747D01*
X281788Y421824D01*
X281912Y421901D01*
X282035Y421978D01*
X282157Y422056D01*
X282278Y422135D01*
X282399Y422213D01*
X282518Y422292D01*
X282637Y422372D01*
X282755Y422452D01*
X282872Y422532D01*
X282988Y422613D01*
X283103Y422694D01*
X283217Y422775D01*
X283331Y422857D01*
X283443Y422940D01*
X283555Y423022D01*
X283666Y423106D01*
X283776Y423189D01*
X283885Y423273D01*
X283993Y423357D01*
X284100Y423442D01*
X284206Y423527D01*
X284311Y423612D01*
X284416Y423698D01*
X284519Y423784D01*
X284622Y423871D01*
X284723Y423958D01*
X284824Y424045D01*
X284923Y424133D01*
X285022Y424221D01*
X285120Y424309D01*
X285217Y424398D01*
X285312Y424487D01*
X285407Y424576D01*
X285501Y424666D01*
X285594Y424756D01*
X285686Y424847D01*
X285777Y424938D01*
X285867Y425029D01*
X285956Y425120D01*
X286044Y425212D01*
X286131Y425304D01*
X286217Y425397D01*
X286302Y425490D01*
X286386Y425583D01*
X286469Y425676D01*
X286551Y425770D01*
X286632Y425864D01*
X286711Y425959D01*
X286790Y426054D01*
X286868Y426149D01*
X286945Y426244D01*
X287020Y426340D01*
X287095Y426436D01*
X287169Y426532D01*
X287241Y426629D01*
X287313Y426726D01*
X287383Y426823D01*
X287453Y426921D01*
X287521Y427019D01*
X287588Y427117D01*
X287654Y427215D01*
X287719Y427314D01*
X287783Y427413D01*
X287846Y427513D01*
X287908Y427612D01*
X287969Y427712D01*
X288028Y427812D01*
X280870Y409809D02*
X280956Y409870D01*
X281042Y409931D01*
X281127Y409993D01*
X281211Y410055D01*
X281296Y410117D01*
X281379Y410179D01*
X281462Y410242D01*
X281545Y410304D01*
X281627Y410367D01*
X281708Y410430D01*
X281789Y410494D01*
X281870Y410557D01*
X281950Y410621D01*
X282029Y410685D01*
X282108Y410749D01*
X282186Y410814D01*
X282264Y410878D01*
X282341Y410943D01*
X282398Y410992D01*
X282456Y411041D01*
X282512Y411090D01*
X282569Y411139D01*
X282625Y411188D01*
X282681Y411237D01*
X282736Y411287D01*
X282792Y411336D01*
X282847Y411386D01*
X282901Y411436D01*
X282955Y411486D01*
X283009Y411536D01*
X283063Y411586D01*
X283116Y411636D01*
X283169Y411687D01*
X283221Y411737D01*
X283273Y411788D01*
X283325Y411838D01*
X283377Y411889D01*
X283428Y411940D01*
X283479Y411991D01*
X283529Y412042D01*
X283579Y412094D01*
X283629Y412145D01*
X283678Y412197D01*
X283727Y412248D01*
X283776Y412300D01*
X283824Y412352D01*
X283872Y412404D01*
X283919Y412456D01*
X283966Y412508D01*
X284013Y412560D01*
X284059Y412612D01*
X284105Y412665D01*
X284151Y412718D01*
X284196Y412770D01*
X284241Y412823D01*
X284286Y412876D01*
X284330Y412929D01*
X284373Y412982D01*
X284417Y413036D01*
X284460Y413089D01*
X284502Y413143D01*
X284544Y413196D01*
X284586Y413250D01*
X284627Y413304D01*
X284669Y413358D01*
X284709Y413412D01*
X284749Y413466D01*
X284789Y413520D01*
X284828Y413574D01*
X284867Y413629D01*
X284906Y413683D01*
X284957Y413756D01*
X285007Y413829D01*
X285056Y413903D01*
X285105Y413976D01*
X285152Y414050D01*
X285199Y414124D01*
X285246Y414198D01*
X285291Y414272D01*
X285336Y414347D01*
X285380Y414421D01*
X285423Y414496D01*
X285466Y414571D01*
X285508Y414646D01*
X285548Y414722D01*
X285589Y414797D01*
X285628Y414873D01*
X285666Y414949D01*
X285704Y415025D01*
X285741Y415101D01*
X285777Y415178D01*
X285813Y415254D01*
X285847Y415331D01*
X285881Y415408D01*
X285914Y415485D01*
X285954Y415582D01*
X285992Y415679D01*
X286030Y415776D01*
X286066Y415874D01*
X286100Y415972D01*
X286134Y416070D01*
X286172Y416188D01*
X286208Y416307D01*
X286243Y416426D01*
X286404Y419651D02*
X286425Y419523D01*
X286380Y419780D02*
X286404Y419651D01*
X286359Y419888D02*
X286380Y419780D01*
X286335Y419996D02*
X286359Y419888D01*
X286311Y420104D02*
X286335Y419996D01*
X286284Y420213D02*
X286311Y420104D01*
X286256Y420322D02*
X286284Y420213D01*
X286232Y420409D02*
X286256Y420322D01*
X286208Y420496D02*
X286232Y420409D01*
X286182Y420584D02*
X286208Y420496D01*
X286155Y420672D02*
X286182Y420584D01*
X286127Y420759D02*
X286155Y420672D01*
X280850Y416306D02*
X280969Y416381D01*
X281088Y416455D01*
X281205Y416531D01*
X281322Y416606D01*
X281437Y416682D01*
X281553Y416758D01*
X281667Y416835D01*
X281780Y416912D01*
X281893Y416990D01*
X282005Y417067D01*
X282116Y417146D01*
X282226Y417224D01*
X282335Y417303D01*
X282444Y417383D01*
X282551Y417462D01*
X282658Y417542D01*
X282764Y417623D01*
X282869Y417703D01*
X282974Y417785D01*
X283077Y417866D01*
X283180Y417948D01*
X283282Y418030D01*
X283382Y418112D01*
X283482Y418195D01*
X283582Y418279D01*
X283680Y418362D01*
X283777Y418446D01*
X283874Y418530D01*
X283970Y418615D01*
X284065Y418700D01*
X284158Y418785D01*
X284251Y418871D01*
X284343Y418957D01*
X284435Y419043D01*
X284525Y419129D01*
X284614Y419216D01*
X284703Y419304D01*
X284790Y419391D01*
X284877Y419479D01*
X284963Y419567D01*
X285048Y419656D01*
X285132Y419745D01*
X285215Y419834D01*
X285297Y419923D01*
X285378Y420013D01*
X285458Y420103D01*
X285537Y420193D01*
X285615Y420284D01*
X285693Y420375D01*
X285769Y420466D01*
X285844Y420558D01*
X285919Y420649D01*
X285992Y420742D01*
X286065Y420834D01*
X286136Y420927D01*
X286207Y421020D01*
X286276Y421113D01*
X286345Y421207D01*
X286412Y421300D01*
X286479Y421394D01*
X286545Y421489D01*
X286609Y421584D01*
X286673Y421678D01*
X286735Y421774D01*
X286797Y421869D01*
X286857Y421965D01*
X286917Y422061D01*
X286975Y422157D01*
X287033Y422253D01*
X287090Y422350D01*
X287159Y422472D01*
X287226Y422593D01*
X287292Y422715D01*
X287356Y422838D01*
X287419Y422961D01*
X287480Y423084D01*
X287539Y423208D01*
X287597Y423332D01*
X287653Y423456D01*
X287707Y423581D01*
X287760Y423706D01*
X287821Y423856D01*
X287879Y424007D01*
X287935Y424159D01*
X287989Y424311D01*
X282049Y407678D02*
X282174Y407761D01*
X282297Y407845D01*
X282420Y407930D01*
X282542Y408015D01*
X282663Y408100D01*
X282782Y408186D01*
X282901Y408272D01*
X283019Y408359D01*
X283136Y408446D01*
X283252Y408533D01*
X283367Y408621D01*
X283462Y408695D01*
X283556Y408769D01*
X283650Y408843D01*
X283743Y408918D01*
X283835Y408993D01*
X283926Y409067D01*
X284017Y409143D01*
X284107Y409219D01*
X284196Y409295D01*
X284285Y409371D01*
X284373Y409447D01*
X284460Y409524D01*
X284546Y409601D01*
X284632Y409678D01*
X284717Y409756D01*
X284801Y409834D01*
X284884Y409912D01*
X284967Y409991D01*
X285049Y410069D01*
X285130Y410148D01*
X285211Y410228D01*
X285290Y410307D01*
X285369Y410387D01*
X285448Y410467D01*
X285525Y410547D01*
X285602Y410628D01*
X285678Y410708D01*
X285753Y410789D01*
X285827Y410871D01*
X285901Y410952D01*
X285973Y411034D01*
X286045Y411116D01*
X286117Y411199D01*
X286187Y411281D01*
X286257Y411364D01*
X286326Y411447D01*
X286394Y411530D01*
X286461Y411614D01*
X286528Y411698D01*
X286593Y411782D01*
X286658Y411866D01*
X286722Y411950D01*
X286785Y412035D01*
X286848Y412120D01*
X286910Y412205D01*
X286982Y412308D01*
X287054Y412411D01*
X287125Y412514D01*
X287194Y412617D01*
X287262Y412721D01*
X287329Y412825D01*
X287395Y412930D01*
X287459Y413035D01*
X287523Y413140D01*
X287584Y413245D01*
X287645Y413351D01*
X287705Y413457D01*
X287763Y413563D01*
X287820Y413670D01*
X287876Y413777D01*
X287931Y413884D01*
X287993Y414009D01*
X288054Y414135D01*
X288113Y414261D01*
X288169Y414388D01*
X288225Y414515D01*
X288278Y414642D01*
X288337Y414788D01*
X288394Y414934D01*
X288449Y415081D01*
X288501Y415229D01*
X288557Y415395D01*
X288610Y415562D01*
X288560Y421393D02*
X288611Y421229D01*
X288507Y421551D02*
X288560Y421393D01*
X288454Y421699D02*
X288507Y421551D01*
X288402Y421842D02*
X288454Y421699D01*
X288349Y421979D02*
X288402Y421842D01*
X288296Y422111D02*
X288349Y421979D01*
X288242Y422243D02*
X288296Y422111D01*
X288187Y422369D02*
X288242Y422243D01*
X288133Y422490D02*
X288187Y422369D01*
X288078Y422611D02*
X288133Y422490D01*
X288023Y422727D02*
X288078Y422611D01*
X287966Y422842D02*
X288023Y422727D01*
X287911Y422952D02*
X287966Y422842D01*
X287855Y423062D02*
X287911Y422952D01*
X287797Y423171D02*
X287855Y423062D01*
X287740Y423276D02*
X287797Y423171D01*
X287682Y423380D02*
X287740Y423276D01*
X287677Y423390D02*
X287682Y423380D01*
X281046Y400770D02*
X281291Y401007D01*
X281532Y401245D01*
X281771Y401486D01*
X282006Y401729D01*
X282237Y401973D01*
X282465Y402220D01*
X282689Y402468D01*
X282910Y402719D01*
X283127Y402972D01*
X283340Y403226D01*
X283550Y403482D01*
X283756Y403740D01*
X283958Y404000D01*
X284175Y404286D01*
X284387Y404574D01*
X284594Y404864D01*
X284797Y405156D01*
X284995Y405450D01*
X285189Y405746D01*
X285378Y406044D01*
X285562Y406344D01*
X285756Y406671D01*
X285945Y407001D01*
X286128Y407333D01*
X280884Y406946D02*
X281018Y407026D01*
X281150Y407106D01*
X281281Y407186D01*
X281411Y407267D01*
X281541Y407348D01*
X281669Y407430D01*
X281797Y407512D01*
X388500Y112750D02*
X404500D01*
X388500Y80750D02*
X404500D01*
D12*
X366750Y170250D02*
G03*
X366750Y170250I-1250J0D01*
G01*
X232650Y225350D02*
G03*
X232650Y225350I-1250J0D01*
G01*
D13*
X107059Y102380D02*
G03*
X107059Y102380I-559J0D01*
G01*
X428240Y127875D02*
G03*
X428240Y127875I-559J0D01*
G01*
X257050Y65000D02*
G03*
X257050Y65000I-1300J0D01*
G01*
X337500Y90500D02*
G03*
X337500Y90500I-1000J0D01*
G01*
X300000Y230251D02*
G03*
X455751Y230011I78006J84502D01*
G01*
X300000Y368251D02*
G03*
X300000Y242751I78477J-62750D01*
G01*
X456000Y242751D02*
G03*
X456000Y368251I-78477J62750D01*
G01*
X187559Y155000D02*
G03*
X187559Y155000I-559J0D01*
G01*
X316559Y130250D02*
G03*
X316559Y130250I-559J0D01*
G01*
X222800Y61280D02*
G03*
X222800Y61280I-1270J0D01*
G01*
X224000Y133000D02*
G03*
X224000Y133000I-1000J0D01*
G01*
X443032Y401288D02*
X456000Y390012D01*
Y230251D02*
Y390012D01*
X443032Y401288D02*
Y437251D01*
X443000D02*
X443032D01*
X443000D02*
Y437251D01*
X416500D02*
X443000D01*
X416500Y428251D02*
Y437251D01*
X399000Y428251D02*
X416500D01*
X339500D02*
X357000D01*
X339500D02*
Y437251D01*
X313000Y437251D02*
X339500D01*
X313000Y437251D02*
Y437251D01*
X312968Y437251D02*
X313000D01*
X312968Y401288D02*
Y437251D01*
X300000Y230251D02*
Y390012D01*
X312968Y401288D01*
D14*
X378720Y184158D02*
X395508D01*
X397500Y186150D01*
Y207942D01*
X401145Y211587D01*
X480863Y157097D02*
X484029Y160263D01*
X480863Y143000D02*
Y157097D01*
X484029Y160263D02*
X489500Y165734D01*
Y188261D01*
Y215251D01*
Y235500D01*
D16*
X70000Y40000D02*
G03*
X70000Y40000I-30000J0D01*
G01*
X490000D02*
G03*
X490000Y40000I-30000J0D01*
G01*
X447750Y103250D02*
G03*
X447750Y103250I-1000J0D01*
G01*
X70000Y620000D02*
G03*
X70000Y620000I-30000J0D01*
G01*
X490000D02*
G03*
X490000Y620000I-30000J0D01*
G01*
X379720Y81510D02*
G03*
X379720Y81510I-1000J0D01*
G01*
X350000Y25000D02*
G03*
X350000Y25000I-1000J0D01*
G01*
X229750Y70000D02*
Y90000D01*
X253750Y70000D02*
Y90000D01*
X332000Y111250D02*
Y114250D01*
X324500Y111250D02*
Y114250D01*
X368000Y151000D02*
Y161000D01*
X399000Y151000D02*
Y161000D01*
X368000D02*
X399000D01*
X368000Y151000D02*
X399000D01*
X218990Y66360D02*
Y84140D01*
X188510Y66360D02*
Y84140D01*
X198000Y109000D02*
X218000D01*
X198000Y131000D02*
X218000D01*
X228750Y231850D02*
X232900D01*
Y236000D01*
Y321500D02*
Y325650D01*
X228750D02*
X232900D01*
X139100D02*
X143250D01*
X139100Y321500D02*
Y325650D01*
Y231850D02*
X143250D01*
X139100D02*
Y236000D01*
X244500Y198250D02*
X248500D01*
X258500Y207250D02*
Y209250D01*
X244500Y218250D02*
X248500D01*
X234000Y207250D02*
Y209250D01*
D17*
X74000Y104880D02*
Y124880D01*
X104000Y104880D02*
Y124880D01*
X190750Y104750D02*
X193750Y101750D01*
X187500Y191500D02*
X206250D01*
X212000Y197250D01*
X229250D01*
X185125Y118625D02*
X190750Y113000D01*
Y104750D02*
Y113000D01*
X292500Y174500D02*
Y180500D01*
X294000D01*
X322000Y154500D02*
X323500D01*
Y160500D01*
Y174500D02*
Y180500D01*
X322000D02*
X323500D01*
X292500Y154500D02*
X294000D01*
X292500D02*
Y160500D01*
X407240Y165510D02*
Y195990D01*
X440260Y165510D02*
Y195990D01*
X430181Y130375D02*
X450181D01*
X430181Y160375D02*
X450181D01*
X448750Y84250D02*
X454750Y84250D01*
X464750Y84250D02*
X470750D01*
Y97250D01*
X448750Y84250D02*
Y97250D01*
X337500Y93500D02*
X363500D01*
X337500Y113500D02*
X363500D01*
X184500Y157500D02*
Y177500D01*
X154500Y157500D02*
Y177500D01*
X293500Y97750D02*
X313500D01*
X293500Y127750D02*
X313500D01*
X327260Y53260D02*
Y83740D01*
X294240Y53260D02*
Y83740D01*
X357000Y57500D02*
X377000D01*
X357000Y25500D02*
X377000D01*
D19*
X121949Y155710D02*
Y164207D01*
X117700D01*
X116284Y162791D01*
Y159959D01*
X117700Y158543D01*
X121949D01*
X119116D02*
X116284Y155710D01*
X107787Y164207D02*
X110619Y162791D01*
X113452Y159959D01*
Y157126D01*
X112035Y155710D01*
X109203D01*
X107787Y157126D01*
Y158543D01*
X109203Y159959D01*
X113452D01*
X99290Y164207D02*
X102122Y162791D01*
X104954Y159959D01*
Y157126D01*
X103538Y155710D01*
X100706D01*
X99290Y157126D01*
Y158543D01*
X100706Y159959D01*
X104954D01*
X162330Y340251D02*
Y348749D01*
X158081D01*
X156665Y347332D01*
Y344500D01*
X158081Y343084D01*
X162330D01*
X159497D02*
X156665Y340251D01*
X153832Y347332D02*
X152416Y348749D01*
X149584D01*
X148168Y347332D01*
Y345916D01*
X149584Y344500D01*
X151000D01*
X149584D01*
X148168Y343084D01*
Y341668D01*
X149584Y340251D01*
X152416D01*
X153832Y341668D01*
X139670Y348749D02*
X142503Y347332D01*
X145335Y344500D01*
Y341668D01*
X143919Y340251D01*
X141087D01*
X139670Y341668D01*
Y343084D01*
X141087Y344500D01*
X145335D01*
X252435Y231751D02*
Y240249D01*
X248186D01*
X246770Y238832D01*
Y236000D01*
X248186Y234584D01*
X252435D01*
X249602D02*
X246770Y231751D01*
X243937Y240249D02*
X238272D01*
Y238832D01*
X243937Y233168D01*
Y231751D01*
X104936Y200791D02*
X106352Y202207D01*
X109184D01*
X110601Y200791D01*
Y195126D01*
X109184Y193710D01*
X106352D01*
X104936Y195126D01*
X102103Y200791D02*
X100687Y202207D01*
X97855D01*
X96439Y200791D01*
Y199375D01*
X97855Y197959D01*
X99271D01*
X97855D01*
X96439Y196542D01*
Y195126D01*
X97855Y193710D01*
X100687D01*
X102103Y195126D01*
X93606Y202207D02*
X87941D01*
Y200791D01*
X93606Y195126D01*
Y193710D01*
X70455Y116999D02*
Y108501D01*
X66207D01*
X64791Y109918D01*
Y115582D01*
X66207Y116999D01*
X70455D01*
X61958Y108501D02*
X59126D01*
X60542D01*
Y116999D01*
X61958Y115582D01*
X54877Y108501D02*
X52045D01*
X53461D01*
Y116999D01*
X54877Y115582D01*
X262500Y131000D02*
Y139497D01*
X258251D01*
X256835Y138081D01*
Y135249D01*
X258251Y133832D01*
X262500D01*
X259668D02*
X256835Y131000D01*
X248338Y139497D02*
X251170Y138081D01*
X254003Y135249D01*
Y132416D01*
X252586Y131000D01*
X249754D01*
X248338Y132416D01*
Y133832D01*
X249754Y135249D01*
X254003D01*
X239841Y139497D02*
X245506D01*
Y135249D01*
X242673Y136665D01*
X241257D01*
X239841Y135249D01*
Y132416D01*
X241257Y131000D01*
X244089D01*
X245506Y132416D01*
X58702Y305751D02*
Y314249D01*
X62950Y310000D01*
X57286D01*
X54453Y305751D02*
X51621D01*
X53037D01*
Y314249D01*
X54453Y312832D01*
X475835Y74917D02*
Y80581D01*
X477251Y81997D01*
X480084D01*
X481500Y80581D01*
Y74917D01*
X480084Y73500D01*
X477251D01*
X478668Y76333D02*
X475835Y73500D01*
X477251D02*
X475835Y74917D01*
X467338Y73500D02*
X473003D01*
X467338Y79165D01*
Y80581D01*
X468754Y81997D01*
X471586D01*
X473003Y80581D01*
X465317Y127526D02*
Y120445D01*
X463901Y119029D01*
X461068D01*
X459652Y120445D01*
Y127526D01*
X456820Y119029D02*
X453987D01*
X455404D01*
Y127526D01*
X456820Y126110D01*
X449739Y120445D02*
X448322Y119029D01*
X445490D01*
X444074Y120445D01*
Y126110D01*
X445490Y127526D01*
X448322D01*
X449739Y126110D01*
Y124694D01*
X448322Y123278D01*
X444074D01*
X442551Y207293D02*
Y198796D01*
X436886D01*
X434054Y205877D02*
X432638Y207293D01*
X429805D01*
X428389Y205877D01*
Y204460D01*
X429805Y203044D01*
X431221D01*
X429805D01*
X428389Y201628D01*
Y200212D01*
X429805Y198796D01*
X432638D01*
X434054Y200212D01*
X480832Y168335D02*
X482249Y166919D01*
Y164086D01*
X480832Y162670D01*
X475168D01*
X473751Y164086D01*
Y166919D01*
X475168Y168335D01*
X473751Y176832D02*
Y171168D01*
X479416Y176832D01*
X480832D01*
X482249Y175416D01*
Y172584D01*
X480832Y171168D01*
Y179665D02*
X482249Y181081D01*
Y183913D01*
X480832Y185330D01*
X479416D01*
X478000Y183913D01*
X476584Y185330D01*
X475168D01*
X473751Y183913D01*
Y181081D01*
X475168Y179665D01*
X476584D01*
X478000Y181081D01*
X479416Y179665D01*
X480832D01*
X478000Y181081D02*
Y183913D01*
X490916Y136832D02*
X492332Y138249D01*
X495165D01*
X496581Y136832D01*
Y131168D01*
X495165Y129751D01*
X492332D01*
X490916Y131168D01*
X483835Y129751D02*
Y138249D01*
X488084Y134000D01*
X482419D01*
X486314Y226678D02*
Y235176D01*
X482065D01*
X480649Y233759D01*
Y230927D01*
X482065Y229511D01*
X486314D01*
X483481D02*
X480649Y226678D01*
X473568D02*
Y235176D01*
X477817Y230927D01*
X472152D01*
X469319Y226678D02*
X466487D01*
X467903D01*
Y235176D01*
X469319Y233759D01*
X486330Y215251D02*
Y223749D01*
X482081D01*
X480665Y222332D01*
Y219500D01*
X482081Y218084D01*
X486330D01*
X483497D02*
X480665Y215251D01*
X477832Y222332D02*
X476416Y223749D01*
X473584D01*
X472168Y222332D01*
Y220916D01*
X473584Y219500D01*
X475000D01*
X473584D01*
X472168Y218084D01*
Y216668D01*
X473584Y215251D01*
X476416D01*
X477832Y216668D01*
X469335Y222332D02*
X467919Y223749D01*
X465087D01*
X463670Y222332D01*
Y220916D01*
X465087Y219500D01*
X466503D01*
X465087D01*
X463670Y218084D01*
Y216668D01*
X465087Y215251D01*
X467919D01*
X469335Y216668D01*
X228335Y154081D02*
X229751Y155497D01*
X232584D01*
X234000Y154081D01*
Y148416D01*
X232584Y147000D01*
X229751D01*
X228335Y148416D01*
X225503D02*
X224086Y147000D01*
X221254D01*
X219838Y148416D01*
Y154081D01*
X221254Y155497D01*
X224086D01*
X225503Y154081D01*
Y152665D01*
X224086Y151249D01*
X219838D01*
X217006Y155497D02*
X211341D01*
Y154081D01*
X217006Y148416D01*
Y147000D01*
X144000Y122143D02*
X152497D01*
Y126392D01*
X151081Y127808D01*
X148248D01*
X146832Y126392D01*
Y122143D01*
Y124976D02*
X144000Y127808D01*
X152497Y136306D02*
X151081Y133473D01*
X148248Y130641D01*
X145416D01*
X144000Y132057D01*
Y134889D01*
X145416Y136306D01*
X146832D01*
X148248Y134889D01*
Y130641D01*
X151081Y139138D02*
X152497Y140554D01*
Y143387D01*
X151081Y144803D01*
X149665D01*
X148248Y143387D01*
Y141970D01*
Y143387D01*
X146832Y144803D01*
X145416D01*
X144000Y143387D01*
Y140554D01*
X145416Y139138D01*
X161750Y187997D02*
Y179500D01*
X157501D01*
X156085Y180916D01*
Y186581D01*
X157501Y187997D01*
X161750D01*
X153253Y180916D02*
X151837Y179500D01*
X149004D01*
X147588Y180916D01*
Y186581D01*
X149004Y187997D01*
X151837D01*
X153253Y186581D01*
Y185165D01*
X151837Y183749D01*
X147588D01*
X289000Y96997D02*
Y89916D01*
X287584Y88500D01*
X284751D01*
X283335Y89916D01*
Y96997D01*
X280503Y89916D02*
X279086Y88500D01*
X276254D01*
X274838Y89916D01*
Y95581D01*
X276254Y96997D01*
X279086D01*
X280503Y95581D01*
Y94165D01*
X279086Y92749D01*
X274838D01*
X352857Y57473D02*
Y65970D01*
X348609D01*
X347192Y64554D01*
Y61722D01*
X348609Y60305D01*
X352857D01*
X350025D02*
X347192Y57473D01*
X338695Y65970D02*
X344360D01*
Y61722D01*
X341527Y63138D01*
X340111D01*
X338695Y61722D01*
Y58889D01*
X340111Y57473D01*
X342944D01*
X344360Y58889D01*
X335863Y65970D02*
X330198D01*
Y64554D01*
X335863Y58889D01*
Y57473D01*
X345000Y26500D02*
Y34997D01*
X340751D01*
X339335Y33581D01*
Y30749D01*
X340751Y29332D01*
X345000D01*
X342168D02*
X339335Y26500D01*
X330838Y34997D02*
X336503D01*
Y30749D01*
X333670Y32165D01*
X332254D01*
X330838Y30749D01*
Y27916D01*
X332254Y26500D01*
X335087D01*
X336503Y27916D01*
X322341Y34997D02*
X325173Y33581D01*
X328005Y30749D01*
Y27916D01*
X326589Y26500D01*
X323757D01*
X322341Y27916D01*
Y29332D01*
X323757Y30749D01*
X328005D01*
X380835Y61166D02*
Y66831D01*
X382251Y68247D01*
X385084D01*
X386500Y66831D01*
Y61166D01*
X385084Y59750D01*
X382251D01*
X383668Y62583D02*
X380835Y59750D01*
X382251D02*
X380835Y61166D01*
X378003Y66831D02*
X376586Y68247D01*
X373754D01*
X372338Y66831D01*
Y65415D01*
X373754Y63999D01*
X375170D01*
X373754D01*
X372338Y62583D01*
Y61166D01*
X373754Y59750D01*
X376586D01*
X378003Y61166D01*
X340251Y616250D02*
Y624747D01*
X344500Y620499D01*
X338835D01*
X336003Y623331D02*
X334586Y624747D01*
X331754D01*
X330338Y623331D01*
Y617666D01*
X331754Y616250D01*
X334586D01*
X336003Y617666D01*
Y623331D01*
X454500Y583081D02*
X453084Y584497D01*
X450251D01*
X448835Y583081D01*
Y581665D01*
X450251Y580249D01*
X451668D01*
X450251D01*
X448835Y578832D01*
Y577416D01*
X450251Y576000D01*
X453084D01*
X454500Y577416D01*
X446003D02*
X444586Y576000D01*
X441754D01*
X440338Y577416D01*
Y583081D01*
X441754Y584497D01*
X444586D01*
X446003Y583081D01*
Y581665D01*
X444586Y580249D01*
X440338D01*
X171250Y142831D02*
X169834Y144247D01*
X167001D01*
X165585Y142831D01*
Y141415D01*
X167001Y139999D01*
X168418D01*
X167001D01*
X165585Y138582D01*
Y137166D01*
X167001Y135750D01*
X169834D01*
X171250Y137166D01*
X157088Y144247D02*
X159920Y142831D01*
X162753Y139999D01*
Y137166D01*
X161336Y135750D01*
X158504D01*
X157088Y137166D01*
Y138582D01*
X158504Y139999D01*
X162753D01*
X292500Y247081D02*
X291084Y248497D01*
X288251D01*
X286835Y247081D01*
Y245665D01*
X288251Y244249D01*
X289668D01*
X288251D01*
X286835Y242832D01*
Y241416D01*
X288251Y240000D01*
X291084D01*
X292500Y241416D01*
X278338Y248497D02*
X284003D01*
Y244249D01*
X281170Y245665D01*
X279754D01*
X278338Y244249D01*
Y241416D01*
X279754Y240000D01*
X282586D01*
X284003Y241416D01*
X291000Y209331D02*
X289584Y210747D01*
X286751D01*
X285335Y209331D01*
Y207915D01*
X286751Y206499D01*
X288168D01*
X286751D01*
X285335Y205082D01*
Y203666D01*
X286751Y202250D01*
X289584D01*
X291000Y203666D01*
X282503Y209331D02*
X281087Y210747D01*
X278254D01*
X276838Y209331D01*
Y207915D01*
X278254Y206499D01*
X279670D01*
X278254D01*
X276838Y205082D01*
Y203666D01*
X278254Y202250D01*
X281087D01*
X282503Y203666D01*
X408000Y536581D02*
X406584Y537997D01*
X403751D01*
X402335Y536581D01*
Y535165D01*
X403751Y533749D01*
X405168D01*
X403751D01*
X402335Y532332D01*
Y530916D01*
X403751Y529500D01*
X406584D01*
X408000Y530916D01*
X393838Y529500D02*
X399503D01*
X393838Y535165D01*
Y536581D01*
X395254Y537997D01*
X398087D01*
X399503Y536581D01*
X420750Y503081D02*
X419334Y504497D01*
X416501D01*
X415085Y503081D01*
Y501665D01*
X416501Y500249D01*
X417918D01*
X416501D01*
X415085Y498832D01*
Y497416D01*
X416501Y496000D01*
X419334D01*
X420750Y497416D01*
X412253Y496000D02*
X409420D01*
X410836D01*
Y504497D01*
X412253Y503081D01*
X369750Y533081D02*
X368334Y534497D01*
X365501D01*
X364085Y533081D01*
Y531665D01*
X365501Y530249D01*
X366918D01*
X365501D01*
X364085Y528832D01*
Y527416D01*
X365501Y526000D01*
X368334D01*
X369750Y527416D01*
X361253Y533081D02*
X359837Y534497D01*
X357004D01*
X355588Y533081D01*
Y527416D01*
X357004Y526000D01*
X359837D01*
X361253Y527416D01*
Y533081D01*
X381335Y492500D02*
X387000D01*
X381335Y498165D01*
Y499581D01*
X382751Y500997D01*
X385584D01*
X387000Y499581D01*
X378503Y493916D02*
X377086Y492500D01*
X374254D01*
X372838Y493916D01*
Y499581D01*
X374254Y500997D01*
X377086D01*
X378503Y499581D01*
Y498165D01*
X377086Y496749D01*
X372838D01*
X394085Y575750D02*
X399750D01*
X394085Y581415D01*
Y582831D01*
X395501Y584247D01*
X398334D01*
X399750Y582831D01*
X391253D02*
X389837Y584247D01*
X387004D01*
X385588Y582831D01*
Y581415D01*
X387004Y579999D01*
X385588Y578582D01*
Y577166D01*
X387004Y575750D01*
X389837D01*
X391253Y577166D01*
Y578582D01*
X389837Y579999D01*
X391253Y581415D01*
Y582831D01*
X389837Y579999D02*
X387004D01*
X437585Y534000D02*
X443250D01*
X437585Y539665D01*
Y541081D01*
X439001Y542497D01*
X441834D01*
X443250Y541081D01*
X434753Y542497D02*
X429088D01*
Y541081D01*
X434753Y535416D01*
Y534000D01*
X405085Y555500D02*
X410750D01*
X405085Y561165D01*
Y562581D01*
X406501Y563997D01*
X409334D01*
X410750Y562581D01*
X396588Y563997D02*
X399420Y562581D01*
X402253Y559749D01*
Y556916D01*
X400836Y555500D01*
X398004D01*
X396588Y556916D01*
Y558332D01*
X398004Y559749D01*
X402253D01*
X438335Y516500D02*
X444000D01*
X438335Y522165D01*
Y523581D01*
X439751Y524997D01*
X442584D01*
X444000Y523581D01*
X429838Y524997D02*
X435503D01*
Y520749D01*
X432670Y522165D01*
X431254D01*
X429838Y520749D01*
Y517916D01*
X431254Y516500D01*
X434086D01*
X435503Y517916D01*
X155500Y369500D02*
X152668D01*
X154084D01*
Y377997D01*
X155500Y376581D01*
X142754Y377997D02*
X148419D01*
Y373749D01*
X145587Y375165D01*
X144170D01*
X142754Y373749D01*
Y370916D01*
X144170Y369500D01*
X147003D01*
X148419Y370916D01*
X196000Y369500D02*
X193168D01*
X194584D01*
Y377997D01*
X196000Y376581D01*
X184670Y369500D02*
Y377997D01*
X188919Y373749D01*
X183254D01*
X135500Y369250D02*
X132668D01*
X134084D01*
Y377747D01*
X135500Y376331D01*
X128419D02*
X127003Y377747D01*
X124170D01*
X122754Y376331D01*
Y374915D01*
X124170Y373499D01*
X125587D01*
X124170D01*
X122754Y372082D01*
Y370666D01*
X124170Y369250D01*
X127003D01*
X128419Y370666D01*
X176750Y369500D02*
X173918D01*
X175334D01*
Y377997D01*
X176750Y376581D01*
X164004Y369500D02*
X169669D01*
X164004Y375165D01*
Y376581D01*
X165420Y377997D01*
X168253D01*
X169669Y376581D01*
X158500Y566000D02*
X155668D01*
X157084D01*
Y574498D01*
X158500Y573081D01*
X151419Y566000D02*
X148587D01*
X150003D01*
Y574498D01*
X151419Y573081D01*
X111000Y555750D02*
X108168D01*
X109584D01*
Y564247D01*
X111000Y562831D01*
X103919D02*
X102503Y564247D01*
X99670D01*
X98254Y562831D01*
Y557166D01*
X99670Y555750D01*
X102503D01*
X103919Y557166D01*
Y562831D01*
X263000Y316081D02*
X261584Y317497D01*
X258751D01*
X257335Y316081D01*
Y314665D01*
X258751Y313249D01*
X260168D01*
X258751D01*
X257335Y311832D01*
Y310416D01*
X258751Y309000D01*
X261584D01*
X263000Y310416D01*
X64585Y145375D02*
X70250D01*
X64585Y151040D01*
Y152456D01*
X66001Y153872D01*
X68834D01*
X70250Y152456D01*
X57504Y145375D02*
Y153872D01*
X61753Y149624D01*
X56088D01*
X225085Y160500D02*
X230750D01*
X225085Y166165D01*
Y167581D01*
X226501Y168997D01*
X229334D01*
X230750Y167581D01*
X222253D02*
X220837Y168997D01*
X218004D01*
X216588Y167581D01*
Y166165D01*
X218004Y164749D01*
X219420D01*
X218004D01*
X216588Y163332D01*
Y161916D01*
X218004Y160500D01*
X220837D01*
X222253Y161916D01*
X265750Y141750D02*
Y150247D01*
X261501D01*
X260085Y148831D01*
Y145999D01*
X261501Y144582D01*
X265750D01*
X262918D02*
X260085Y141750D01*
X257253Y148831D02*
X255837Y150247D01*
X253004D01*
X251588Y148831D01*
Y147415D01*
X253004Y145999D01*
X254420D01*
X253004D01*
X251588Y144582D01*
Y143166D01*
X253004Y141750D01*
X255837D01*
X257253Y143166D01*
X244507Y141750D02*
Y150247D01*
X248755Y145999D01*
X243091D01*
X333750Y454748D02*
Y446250D01*
X329501D01*
X328085Y447667D01*
Y449083D01*
X329501Y450499D01*
X333750D01*
X329501D01*
X328085Y451915D01*
Y453332D01*
X329501Y454748D01*
X333750D01*
X325253Y446250D02*
X322420D01*
X323837D01*
Y454748D01*
X325253Y453332D01*
X284000Y476000D02*
X281168D01*
X282584D01*
Y484497D01*
X284000Y483081D01*
X266835Y279000D02*
X272500D01*
X266835Y284665D01*
Y286081D01*
X268251Y287497D01*
X271084D01*
X272500Y286081D01*
X282751Y605750D02*
Y614247D01*
X287000Y609999D01*
X281335D01*
X291085Y533997D02*
X296750D01*
Y529749D01*
X293918Y531165D01*
X292501D01*
X291085Y529749D01*
Y526916D01*
X292501Y525500D01*
X295334D01*
X296750Y526916D01*
X233835Y494497D02*
X236668Y493081D01*
X239500Y490249D01*
Y487416D01*
X238084Y486000D01*
X235251D01*
X233835Y487416D01*
Y488833D01*
X235251Y490249D01*
X239500D01*
X348250Y514497D02*
X342585D01*
Y513081D01*
X348250Y507416D01*
Y506000D01*
X378000Y472581D02*
X376584Y473997D01*
X373751D01*
X372335Y472581D01*
Y471165D01*
X373751Y469749D01*
X372335Y468332D01*
Y466916D01*
X373751Y465500D01*
X376584D01*
X378000Y466916D01*
Y468332D01*
X376584Y469749D01*
X378000Y471165D01*
Y472581D01*
X376584Y469749D02*
X373751D01*
X248750Y537166D02*
X247334Y535750D01*
X244501D01*
X243085Y537166D01*
Y542831D01*
X244501Y544247D01*
X247334D01*
X248750Y542831D01*
Y541415D01*
X247334Y539999D01*
X243085D01*
X203250Y416250D02*
X200418D01*
X201834D01*
Y424747D01*
X203250Y423331D01*
X190504Y424747D02*
X193337Y423331D01*
X196169Y420499D01*
Y417666D01*
X194753Y416250D01*
X191920D01*
X190504Y417666D01*
Y419083D01*
X191920Y420499D01*
X196169D01*
X166000Y440750D02*
X163168D01*
X164584D01*
Y449247D01*
X166000Y447831D01*
X158919Y449247D02*
X153254D01*
Y447831D01*
X158919Y442166D01*
Y440750D01*
X119750Y395250D02*
X116917D01*
X118334D01*
Y403747D01*
X119750Y402331D01*
X112669D02*
X111253Y403747D01*
X108420D01*
X107004Y402331D01*
Y400915D01*
X108420Y399499D01*
X107004Y398082D01*
Y396666D01*
X108420Y395250D01*
X111253D01*
X112669Y396666D01*
Y398082D01*
X111253Y399499D01*
X112669Y400915D01*
Y402331D01*
X111253Y399499D02*
X108420D01*
X360000Y545000D02*
X357168D01*
X358584D01*
Y553497D01*
X360000Y552081D01*
X352919Y546416D02*
X351503Y545000D01*
X348670D01*
X347254Y546416D01*
Y552081D01*
X348670Y553497D01*
X351503D01*
X352919Y552081D01*
Y550665D01*
X351503Y549249D01*
X347254D01*
X233335Y119250D02*
X239000D01*
X233335Y124915D01*
Y126331D01*
X234751Y127747D01*
X237584D01*
X239000Y126331D01*
X230503D02*
X229087Y127747D01*
X226254D01*
X224838Y126331D01*
Y120666D01*
X226254Y119250D01*
X229087D01*
X230503Y120666D01*
Y126331D01*
X140085Y440750D02*
X145750D01*
X140085Y446415D01*
Y447831D01*
X141501Y449247D01*
X144334D01*
X145750Y447831D01*
X137253Y440750D02*
X134420D01*
X135837D01*
Y449247D01*
X137253Y447831D01*
X433335Y79581D02*
X434751Y80997D01*
X437584D01*
X439000Y79581D01*
Y73916D01*
X437584Y72500D01*
X434751D01*
X433335Y73916D01*
X424838Y72500D02*
X430503D01*
X424838Y78165D01*
Y79581D01*
X426254Y80997D01*
X429086D01*
X430503Y79581D01*
X417757Y72500D02*
Y80997D01*
X422006Y76749D01*
X416341D01*
X353811Y124010D02*
X355227Y125426D01*
X358060D01*
X359476Y124010D01*
Y118345D01*
X358060Y116929D01*
X355227D01*
X353811Y118345D01*
X345314Y116929D02*
X350979D01*
X345314Y122594D01*
Y124010D01*
X346730Y125426D01*
X349562D01*
X350979Y124010D01*
X336816Y125426D02*
X342481D01*
Y121178D01*
X339649Y122594D01*
X338233D01*
X336816Y121178D01*
Y118345D01*
X338233Y116929D01*
X341065D01*
X342481Y118345D01*
X256835Y103581D02*
X258251Y104997D01*
X261084D01*
X262500Y103581D01*
Y97916D01*
X261084Y96500D01*
X258251D01*
X256835Y97916D01*
X248338Y96500D02*
X254003D01*
X248338Y102165D01*
Y103581D01*
X249754Y104997D01*
X252586D01*
X254003Y103581D01*
X239841Y104997D02*
X242673Y103581D01*
X245506Y100749D01*
Y97916D01*
X244089Y96500D01*
X241257D01*
X239841Y97916D01*
Y99333D01*
X241257Y100749D01*
X245506D01*
X267581Y67665D02*
X268997Y66249D01*
Y63416D01*
X267581Y62000D01*
X261916D01*
X260500Y63416D01*
Y66249D01*
X261916Y67665D01*
X260500Y76162D02*
Y70497D01*
X266165Y76162D01*
X267581D01*
X268997Y74746D01*
Y71914D01*
X267581Y70497D01*
X268997Y78995D02*
Y84660D01*
X267581D01*
X261916Y78995D01*
X260500D01*
X368419Y106665D02*
X367003Y105249D01*
Y102416D01*
X368419Y101000D01*
X374084D01*
X375500Y102416D01*
Y105249D01*
X374084Y106665D01*
X368419Y109497D02*
X367003Y110913D01*
Y113746D01*
X368419Y115162D01*
X369835D01*
X371251Y113746D01*
Y112330D01*
Y113746D01*
X372668Y115162D01*
X374084D01*
X375500Y113746D01*
Y110913D01*
X374084Y109497D01*
X368419Y117994D02*
X367003Y119411D01*
Y122243D01*
X368419Y123659D01*
X369835D01*
X371251Y122243D01*
Y120827D01*
Y122243D01*
X372668Y123659D01*
X374084D01*
X375500Y122243D01*
Y119411D01*
X374084Y117994D01*
X269831Y225165D02*
X271247Y223749D01*
Y220916D01*
X269831Y219500D01*
X264166D01*
X262750Y220916D01*
Y223749D01*
X264166Y225165D01*
X269831Y227997D02*
X271247Y229414D01*
Y232246D01*
X269831Y233662D01*
X268415D01*
X266999Y232246D01*
Y230830D01*
Y232246D01*
X265582Y233662D01*
X264166D01*
X262750Y232246D01*
Y229414D01*
X264166Y227997D01*
X262750Y240743D02*
X271247D01*
X266999Y236495D01*
Y242159D01*
X205581Y171915D02*
X206997Y170499D01*
Y167666D01*
X205581Y166250D01*
X199916D01*
X198500Y167666D01*
Y170499D01*
X199916Y171915D01*
X205581Y174747D02*
X206997Y176164D01*
Y178996D01*
X205581Y180412D01*
X204165D01*
X202749Y178996D01*
Y177580D01*
Y178996D01*
X201332Y180412D01*
X199916D01*
X198500Y178996D01*
Y176164D01*
X199916Y174747D01*
X206997Y188909D02*
Y183244D01*
X202749D01*
X204165Y186077D01*
Y187493D01*
X202749Y188909D01*
X199916D01*
X198500Y187493D01*
Y184661D01*
X199916Y183244D01*
X155335Y215581D02*
X156751Y216997D01*
X159584D01*
X161000Y215581D01*
Y209916D01*
X159584Y208500D01*
X156751D01*
X155335Y209916D01*
X152503Y215581D02*
X151087Y216997D01*
X148254D01*
X146838Y215581D01*
Y214165D01*
X148254Y212749D01*
X149670D01*
X148254D01*
X146838Y211332D01*
Y209916D01*
X148254Y208500D01*
X151087D01*
X152503Y209916D01*
X138341Y216997D02*
X141173Y215581D01*
X144005Y212749D01*
Y209916D01*
X142589Y208500D01*
X139757D01*
X138341Y209916D01*
Y211332D01*
X139757Y212749D01*
X144005D01*
X245581Y336915D02*
X246997Y335499D01*
Y332666D01*
X245581Y331250D01*
X239916D01*
X238500Y332666D01*
Y335499D01*
X239916Y336915D01*
X238500Y343996D02*
X246997D01*
X242749Y339747D01*
Y345412D01*
X238500Y353909D02*
Y348245D01*
X244165Y353909D01*
X245581D01*
X246997Y352493D01*
Y349661D01*
X245581Y348245D01*
X194331Y171915D02*
X195747Y170499D01*
Y167666D01*
X194331Y166250D01*
X188666D01*
X187250Y167666D01*
Y170499D01*
X188666Y171915D01*
X187250Y178996D02*
X195747D01*
X191499Y174747D01*
Y180412D01*
X187250Y187493D02*
X195747D01*
X191499Y183244D01*
Y188909D01*
X113835Y261831D02*
X115251Y263247D01*
X118084D01*
X119500Y261831D01*
Y256166D01*
X118084Y254750D01*
X115251D01*
X113835Y256166D01*
X106754Y254750D02*
Y263247D01*
X111003Y258999D01*
X105338D01*
X96841Y263247D02*
X102506D01*
Y258999D01*
X99673Y260415D01*
X98257D01*
X96841Y258999D01*
Y256166D01*
X98257Y254750D01*
X101089D01*
X102506Y256166D01*
X197585Y346831D02*
X199001Y348247D01*
X201834D01*
X203250Y346831D01*
Y341166D01*
X201834Y339750D01*
X199001D01*
X197585Y341166D01*
X190504Y339750D02*
Y348247D01*
X194753Y343999D01*
X189088D01*
X180591Y348247D02*
X183423Y346831D01*
X186255Y343999D01*
Y341166D01*
X184839Y339750D01*
X182007D01*
X180591Y341166D01*
Y342582D01*
X182007Y343999D01*
X186255D01*
X178835Y126581D02*
X180251Y127997D01*
X183084D01*
X184500Y126581D01*
Y120916D01*
X183084Y119500D01*
X180251D01*
X178835Y120916D01*
X171754Y119500D02*
Y127997D01*
X176003Y123749D01*
X170338D01*
X167505Y126581D02*
X166089Y127997D01*
X163257D01*
X161841Y126581D01*
Y125165D01*
X163257Y123749D01*
X161841Y122332D01*
Y120916D01*
X163257Y119500D01*
X166089D01*
X167505Y120916D01*
Y122332D01*
X166089Y123749D01*
X167505Y125165D01*
Y126581D01*
X166089Y123749D02*
X163257D01*
X260085Y160831D02*
X261501Y162247D01*
X264334D01*
X265750Y160831D01*
Y155166D01*
X264334Y153750D01*
X261501D01*
X260085Y155166D01*
X257253Y160831D02*
X255837Y162247D01*
X253004D01*
X251588Y160831D01*
Y159415D01*
X253004Y157999D01*
X251588Y156582D01*
Y155166D01*
X253004Y153750D01*
X255837D01*
X257253Y155166D01*
Y156582D01*
X255837Y157999D01*
X257253Y159415D01*
Y160831D01*
X255837Y157999D02*
X253004D01*
X243091Y162247D02*
X245923Y160831D01*
X248755Y157999D01*
Y155166D01*
X247339Y153750D01*
X244507D01*
X243091Y155166D01*
Y156582D01*
X244507Y157999D01*
X248755D01*
X326500Y50497D02*
Y42000D01*
X320835D01*
X318003Y43416D02*
X316586Y42000D01*
X313754D01*
X312338Y43416D01*
Y49081D01*
X313754Y50497D01*
X316586D01*
X318003Y49081D01*
Y47665D01*
X316586Y46249D01*
X312338D01*
X231750Y182997D02*
Y174500D01*
X226085D01*
X223253D02*
X220420D01*
X221836D01*
Y182997D01*
X223253Y181581D01*
X216172Y174500D02*
X213339D01*
X214755D01*
Y182997D01*
X216172Y181581D01*
X184747Y183500D02*
X176250D01*
Y189165D01*
Y191997D02*
Y194830D01*
Y193414D01*
X184747D01*
X183331Y191997D01*
X176250Y204743D02*
Y199078D01*
X181915Y204743D01*
X183331D01*
X184747Y203327D01*
Y200494D01*
X183331Y199078D01*
X396835Y70166D02*
Y75831D01*
X398251Y77247D01*
X401084D01*
X402500Y75831D01*
Y70166D01*
X401084Y68750D01*
X398251D01*
X399668Y71582D02*
X396835Y68750D01*
X398251D02*
X396835Y70166D01*
X394003Y68750D02*
X391170D01*
X392587D01*
Y77247D01*
X394003Y75831D01*
X369500Y64750D02*
Y73247D01*
X365251D01*
X363835Y71831D01*
Y68999D01*
X365251Y67583D01*
X369500D01*
X366668D02*
X363835Y64750D01*
X361003Y71831D02*
X359587Y73247D01*
X356754D01*
X355338Y71831D01*
Y70415D01*
X356754Y68999D01*
X358170D01*
X356754D01*
X355338Y67583D01*
Y66166D01*
X356754Y64750D01*
X359587D01*
X361003Y66166D01*
X262500Y108250D02*
Y116747D01*
X258251D01*
X256835Y115331D01*
Y112499D01*
X258251Y111083D01*
X262500D01*
X259668D02*
X256835Y108250D01*
X249754D02*
Y116747D01*
X254003Y112499D01*
X248338D01*
X262500Y120500D02*
Y128997D01*
X258251D01*
X256835Y127581D01*
Y124749D01*
X258251Y123333D01*
X262500D01*
X259668D02*
X256835Y120500D01*
X248338Y128997D02*
X254003D01*
Y124749D01*
X251170Y126165D01*
X249754D01*
X248338Y124749D01*
Y121916D01*
X249754Y120500D01*
X252586D01*
X254003Y121916D01*
X102500Y176500D02*
Y184998D01*
X98251D01*
X96835Y183581D01*
Y180749D01*
X98251Y179333D01*
X102500D01*
X99668D02*
X96835Y176500D01*
X94003Y183581D02*
X92586Y184998D01*
X89754D01*
X88338Y183581D01*
Y182165D01*
X89754Y180749D01*
X88338Y179333D01*
Y177916D01*
X89754Y176500D01*
X92586D01*
X94003Y177916D01*
Y179333D01*
X92586Y180749D01*
X94003Y182165D01*
Y183581D01*
X92586Y180749D02*
X89754D01*
X175750Y101250D02*
Y109747D01*
X171501D01*
X170085Y108331D01*
Y105499D01*
X171501Y104082D01*
X175750D01*
X172917D02*
X170085Y101250D01*
X167253D02*
X164420D01*
X165837D01*
Y109747D01*
X167253Y108331D01*
X160172D02*
X158755Y109747D01*
X155923D01*
X154507Y108331D01*
Y102666D01*
X155923Y101250D01*
X158755D01*
X160172Y102666D01*
Y108331D01*
X207000Y33750D02*
Y42247D01*
X202751D01*
X201335Y40831D01*
Y37999D01*
X202751Y36583D01*
X207000D01*
X204168D02*
X201335Y33750D01*
X198503D02*
X195670D01*
X197087D01*
Y42247D01*
X198503Y40831D01*
X191422Y33750D02*
X188589D01*
X190005D01*
Y42247D01*
X191422Y40831D01*
X175500Y83250D02*
Y91747D01*
X171251D01*
X169835Y90331D01*
Y87499D01*
X171251Y86082D01*
X175500D01*
X172668D02*
X169835Y83250D01*
X167003D02*
X164170D01*
X165586D01*
Y91747D01*
X167003Y90331D01*
X154257Y83250D02*
X159922D01*
X154257Y88915D01*
Y90331D01*
X155673Y91747D01*
X158505D01*
X159922Y90331D01*
X421472Y213654D02*
Y222151D01*
X417223D01*
X415807Y220735D01*
Y217902D01*
X417223Y216486D01*
X421472D01*
X418639D02*
X415807Y213654D01*
X407310D02*
X412975D01*
X407310Y219319D01*
Y220735D01*
X408726Y222151D01*
X411558D01*
X412975Y220735D01*
X398812Y222151D02*
X401645Y220735D01*
X404477Y217902D01*
Y215070D01*
X403061Y213654D01*
X400229D01*
X398812Y215070D01*
Y216486D01*
X400229Y217902D01*
X404477D01*
X356367Y181600D02*
Y190098D01*
X352118D01*
X350702Y188681D01*
Y185849D01*
X352118Y184433D01*
X356367D01*
X353535D02*
X350702Y181600D01*
X342205D02*
X347870D01*
X342205Y187265D01*
Y188681D01*
X343621Y190098D01*
X346454D01*
X347870Y188681D01*
X339372Y190098D02*
X333708D01*
Y188681D01*
X339372Y183017D01*
Y181600D01*
X400250Y116137D02*
X408747D01*
Y120385D01*
X407331Y121802D01*
X404499D01*
X403083Y120385D01*
Y116137D01*
Y118969D02*
X400250Y121802D01*
Y130299D02*
Y124634D01*
X405915Y130299D01*
X407331D01*
X408747Y128883D01*
Y126050D01*
X407331Y124634D01*
Y133131D02*
X408747Y134548D01*
Y137380D01*
X407331Y138796D01*
X405915D01*
X404499Y137380D01*
X403083Y138796D01*
X401666D01*
X400250Y137380D01*
Y134548D01*
X401666Y133131D01*
X403083D01*
X404499Y134548D01*
X405915Y133131D01*
X407331D01*
X404499Y134548D02*
Y137380D01*
X411250Y116137D02*
X419747D01*
Y120385D01*
X418331Y121802D01*
X415499D01*
X414082Y120385D01*
Y116137D01*
Y118969D02*
X411250Y121802D01*
Y130299D02*
Y124634D01*
X416915Y130299D01*
X418331D01*
X419747Y128883D01*
Y126050D01*
X418331Y124634D01*
X412666Y133131D02*
X411250Y134548D01*
Y137380D01*
X412666Y138796D01*
X418331D01*
X419747Y137380D01*
Y134548D01*
X418331Y133131D01*
X416915D01*
X415499Y134548D01*
Y138796D01*
X190500Y199500D02*
X198997D01*
Y203749D01*
X197581Y205165D01*
X194749D01*
X193332Y203749D01*
Y199500D01*
Y202332D02*
X190500Y205165D01*
X197581Y207997D02*
X198997Y209414D01*
Y212246D01*
X197581Y213662D01*
X196165D01*
X194749Y212246D01*
Y210830D01*
Y212246D01*
X193332Y213662D01*
X191916D01*
X190500Y212246D01*
Y209414D01*
X191916Y207997D01*
X197581Y216495D02*
X198997Y217911D01*
Y220743D01*
X197581Y222159D01*
X191916D01*
X190500Y220743D01*
Y217911D01*
X191916Y216495D01*
X197581D01*
X138500Y219000D02*
Y227497D01*
X134251D01*
X132835Y226081D01*
Y223249D01*
X134251Y221832D01*
X138500D01*
X135668D02*
X132835Y219000D01*
X130003Y226081D02*
X128587Y227497D01*
X125754D01*
X124338Y226081D01*
Y224665D01*
X125754Y223249D01*
X127170D01*
X125754D01*
X124338Y221832D01*
Y220416D01*
X125754Y219000D01*
X128587D01*
X130003Y220416D01*
X121505Y219000D02*
X118673D01*
X120089D01*
Y227497D01*
X121505Y226081D01*
X275250Y172250D02*
Y180747D01*
X271001D01*
X269585Y179331D01*
Y176499D01*
X271001Y175082D01*
X275250D01*
X272418D02*
X269585Y172250D01*
X266753Y179331D02*
X265336Y180747D01*
X262504D01*
X261088Y179331D01*
Y177915D01*
X262504Y176499D01*
X263920D01*
X262504D01*
X261088Y175082D01*
Y173666D01*
X262504Y172250D01*
X265336D01*
X266753Y173666D01*
X252591Y172250D02*
X258256D01*
X252591Y177915D01*
Y179331D01*
X254007Y180747D01*
X256839D01*
X258256Y179331D01*
X346976Y86497D02*
Y79416D01*
X345560Y78000D01*
X342727D01*
X341311Y79416D01*
Y86497D01*
X338479Y85081D02*
X337062Y86497D01*
X334230D01*
X332814Y85081D01*
Y83665D01*
X334230Y82249D01*
X332814Y80832D01*
Y79416D01*
X334230Y78000D01*
X337062D01*
X338479Y79416D01*
Y80832D01*
X337062Y82249D01*
X338479Y83665D01*
Y85081D01*
X337062Y82249D02*
X334230D01*
X250250Y65497D02*
Y58416D01*
X248834Y57000D01*
X246001D01*
X244585Y58416D01*
Y65497D01*
X241753Y57000D02*
X238920D01*
X240336D01*
Y65497D01*
X241753Y64081D01*
X229007Y57000D02*
X234672D01*
X229007Y62665D01*
Y64081D01*
X230423Y65497D01*
X233256D01*
X234672Y64081D01*
X184750Y71497D02*
Y64416D01*
X183334Y63000D01*
X180501D01*
X179085Y64416D01*
Y71497D01*
X176253Y63000D02*
X173420D01*
X174837D01*
Y71497D01*
X176253Y70081D01*
X169172D02*
X167756Y71497D01*
X164923D01*
X163507Y70081D01*
Y68665D01*
X164923Y67249D01*
X166339D01*
X164923D01*
X163507Y65832D01*
Y64416D01*
X164923Y63000D01*
X167756D01*
X169172Y64416D01*
X412987Y141750D02*
X405906D01*
X404490Y143166D01*
Y145999D01*
X405906Y147415D01*
X412987D01*
X404490Y150247D02*
Y153080D01*
Y151664D01*
X412987D01*
X411571Y150247D01*
X404490Y161577D02*
X412987D01*
X408739Y157328D01*
Y162993D01*
X229250Y338997D02*
Y331916D01*
X227834Y330500D01*
X225001D01*
X223585Y331916D01*
Y338997D01*
X220753Y330500D02*
X217920D01*
X219336D01*
Y338997D01*
X220753Y337581D01*
X208007Y338997D02*
X210839Y337581D01*
X213672Y334749D01*
Y331916D01*
X212255Y330500D01*
X209423D01*
X208007Y331916D01*
Y333332D01*
X209423Y334749D01*
X213672D01*
X216750Y143247D02*
Y136166D01*
X215334Y134750D01*
X212501D01*
X211085Y136166D01*
Y143247D01*
X208253Y134750D02*
X205420D01*
X206837D01*
Y143247D01*
X208253Y141831D01*
X201172Y143247D02*
X195507D01*
Y141831D01*
X201172Y136166D01*
Y134750D01*
X347500Y158247D02*
Y151166D01*
X346084Y149750D01*
X343251D01*
X341835Y151166D01*
Y158247D01*
X339003Y149750D02*
X336170D01*
X337587D01*
Y158247D01*
X339003Y156831D01*
X331922D02*
X330505Y158247D01*
X327673D01*
X326257Y156831D01*
Y155415D01*
X327673Y153999D01*
X326257Y152582D01*
Y151166D01*
X327673Y149750D01*
X330505D01*
X331922Y151166D01*
Y152582D01*
X330505Y153999D01*
X331922Y155415D01*
Y156831D01*
X330505Y153999D02*
X327673D01*
X253500Y192747D02*
X247835Y184250D01*
Y192747D02*
X253500Y184250D01*
X245003Y191331D02*
X243587Y192747D01*
X240754D01*
X239338Y191331D01*
Y189915D01*
X240754Y188499D01*
X242170D01*
X240754D01*
X239338Y187083D01*
Y185666D01*
X240754Y184250D01*
X243587D01*
X245003Y185666D01*
X134835Y195500D02*
X140500D01*
X134835Y201165D01*
Y202581D01*
X136251Y203997D01*
X139084D01*
X140500Y202581D01*
X126338Y195500D02*
X132003D01*
X126338Y201165D01*
Y202581D01*
X127754Y203997D01*
X130587D01*
X132003Y202581D01*
X260500Y242250D02*
Y250747D01*
X256251D01*
X254835Y249331D01*
Y246499D01*
X256251Y245082D01*
X260500D01*
X257668D02*
X254835Y242250D01*
X252003Y249331D02*
X250586Y250747D01*
X247754D01*
X246338Y249331D01*
Y247915D01*
X247754Y246499D01*
X249170D01*
X247754D01*
X246338Y245082D01*
Y243666D01*
X247754Y242250D01*
X250586D01*
X252003Y243666D01*
X237841Y250747D02*
X243505D01*
Y246499D01*
X240673Y247915D01*
X239257D01*
X237841Y246499D01*
Y243666D01*
X239257Y242250D01*
X242089D01*
X243505Y243666D01*
X260500Y252750D02*
Y261247D01*
X256251D01*
X254835Y259831D01*
Y256999D01*
X256251Y255582D01*
X260500D01*
X257668D02*
X254835Y252750D01*
X252003Y259831D02*
X250586Y261247D01*
X247754D01*
X246338Y259831D01*
Y258415D01*
X247754Y256999D01*
X249170D01*
X247754D01*
X246338Y255582D01*
Y254166D01*
X247754Y252750D01*
X250586D01*
X252003Y254166D01*
X243505Y259831D02*
X242089Y261247D01*
X239257D01*
X237841Y259831D01*
Y258415D01*
X239257Y256999D01*
X237841Y255582D01*
Y254166D01*
X239257Y252750D01*
X242089D01*
X243505Y254166D01*
Y255582D01*
X242089Y256999D01*
X243505Y258415D01*
Y259831D01*
X242089Y256999D02*
X239257D01*
X354708Y136131D02*
Y144628D01*
X350459D01*
X349043Y143212D01*
Y140379D01*
X350459Y138963D01*
X354708D01*
X351875D02*
X349043Y136131D01*
X341962D02*
Y144628D01*
X346210Y140379D01*
X340546D01*
X337713Y143212D02*
X336297Y144628D01*
X333465D01*
X332048Y143212D01*
Y137547D01*
X333465Y136131D01*
X336297D01*
X337713Y137547D01*
Y143212D01*
X406213Y60732D02*
X404797Y62148D01*
X401964D01*
X400548Y60732D01*
Y59316D01*
X401964Y57899D01*
X403380D01*
X401964D01*
X400548Y56483D01*
Y55067D01*
X401964Y53651D01*
X404797D01*
X406213Y55067D01*
X397715Y62148D02*
X392051D01*
Y60732D01*
X397715Y55067D01*
Y53651D01*
X236254Y530732D02*
X234838Y532148D01*
X232006D01*
X230589Y530732D01*
Y529316D01*
X232006Y527900D01*
X233422D01*
X232006D01*
X230589Y526483D01*
Y525067D01*
X232006Y523651D01*
X234838D01*
X236254Y525067D01*
X227757Y530732D02*
X226341Y532148D01*
X223508D01*
X222092Y530732D01*
Y529316D01*
X223508Y527900D01*
X222092Y526483D01*
Y525067D01*
X223508Y523651D01*
X226341D01*
X227757Y525067D01*
Y526483D01*
X226341Y527900D01*
X227757Y529316D01*
Y530732D01*
X226341Y527900D02*
X223508D01*
X288000Y235081D02*
X286584Y236497D01*
X283751D01*
X282335Y235081D01*
Y233665D01*
X283751Y232249D01*
X285168D01*
X283751D01*
X282335Y230832D01*
Y229416D01*
X283751Y228000D01*
X286584D01*
X288000Y229416D01*
X275254Y228000D02*
Y236497D01*
X279503Y232249D01*
X273838D01*
X296500Y191500D02*
Y199997D01*
X292251D01*
X290835Y198581D01*
Y195749D01*
X292251Y194332D01*
X296500D01*
X293668D02*
X290835Y191500D01*
X283754D02*
Y199997D01*
X288003Y195749D01*
X282338D01*
X275257Y191500D02*
Y199997D01*
X279506Y195749D01*
X273841D01*
X348736Y192492D02*
Y200989D01*
X344487D01*
X343071Y199573D01*
Y196741D01*
X344487Y195324D01*
X348736D01*
X345904D02*
X343071Y192492D01*
X335990D02*
Y200989D01*
X340239Y196741D01*
X334574D01*
X326077Y200989D02*
X331741D01*
Y196741D01*
X328909Y198157D01*
X327493D01*
X326077Y196741D01*
Y193908D01*
X327493Y192492D01*
X330325D01*
X331741Y193908D01*
X355359Y171000D02*
Y179497D01*
X351110D01*
X349694Y178081D01*
Y175249D01*
X351110Y173832D01*
X355359D01*
X352526D02*
X349694Y171000D01*
X342613D02*
Y179497D01*
X346861Y175249D01*
X341197D01*
X332699Y179497D02*
X335532Y178081D01*
X338364Y175249D01*
Y172416D01*
X336948Y171000D01*
X334116D01*
X332699Y172416D01*
Y173832D01*
X334116Y175249D01*
X338364D01*
X328250Y136000D02*
Y144497D01*
X324001D01*
X322585Y143081D01*
Y140249D01*
X324001Y138833D01*
X328250D01*
X325418D02*
X322585Y136000D01*
X315504D02*
Y144497D01*
X319753Y140249D01*
X314088D01*
X311255Y144497D02*
X305591D01*
Y143081D01*
X311255Y137416D01*
Y136000D01*
X119750Y272750D02*
Y281247D01*
X115501D01*
X114085Y279831D01*
Y276999D01*
X115501Y275583D01*
X119750D01*
X116918D02*
X114085Y272750D01*
X107004D02*
Y281247D01*
X111253Y276999D01*
X105588D01*
X102755Y279831D02*
X101339Y281247D01*
X98507D01*
X97091Y279831D01*
Y278415D01*
X98507Y276999D01*
X97091Y275583D01*
Y274166D01*
X98507Y272750D01*
X101339D01*
X102755Y274166D01*
Y275583D01*
X101339Y276999D01*
X102755Y278415D01*
Y279831D01*
X101339Y276999D02*
X98507D01*
X119750Y290500D02*
Y298997D01*
X115501D01*
X114085Y297581D01*
Y294749D01*
X115501Y293333D01*
X119750D01*
X116918D02*
X114085Y290500D01*
X107004D02*
Y298997D01*
X111253Y294749D01*
X105588D01*
X102755Y291916D02*
X101339Y290500D01*
X98507D01*
X97091Y291916D01*
Y297581D01*
X98507Y298997D01*
X101339D01*
X102755Y297581D01*
Y296165D01*
X101339Y294749D01*
X97091D01*
X118750Y315500D02*
Y323997D01*
X114501D01*
X113085Y322581D01*
Y319749D01*
X114501Y318332D01*
X118750D01*
X115918D02*
X113085Y315500D01*
X104588Y323997D02*
X110253D01*
Y319749D01*
X107420Y321165D01*
X106004D01*
X104588Y319749D01*
Y316916D01*
X106004Y315500D01*
X108836D01*
X110253Y316916D01*
X101756Y322581D02*
X100339Y323997D01*
X97507D01*
X96091Y322581D01*
Y316916D01*
X97507Y315500D01*
X100339D01*
X101756Y316916D01*
Y322581D01*
X299585Y48081D02*
X301001Y49497D01*
X303834D01*
X305250Y48081D01*
Y42416D01*
X303834Y41000D01*
X301001D01*
X299585Y42416D01*
X296753D02*
X295336Y41000D01*
X292504D01*
X291088Y42416D01*
Y48081D01*
X292504Y49497D01*
X295336D01*
X296753Y48081D01*
Y46665D01*
X295336Y45249D01*
X291088D01*
X282591Y49497D02*
X288256D01*
Y45249D01*
X285423Y46665D01*
X284007D01*
X282591Y45249D01*
Y42416D01*
X284007Y41000D01*
X286839D01*
X288256Y42416D01*
X338835Y13831D02*
X340251Y15247D01*
X343084D01*
X344500Y13831D01*
Y8166D01*
X343084Y6750D01*
X340251D01*
X338835Y8166D01*
X336003D02*
X334586Y6750D01*
X331754D01*
X330338Y8166D01*
Y13831D01*
X331754Y15247D01*
X334586D01*
X336003Y13831D01*
Y12415D01*
X334586Y10999D01*
X330338D01*
X321841Y15247D02*
X324673Y13831D01*
X327505Y10999D01*
Y8166D01*
X326089Y6750D01*
X323257D01*
X321841Y8166D01*
Y9582D01*
X323257Y10999D01*
X327505D01*
X484000Y84679D02*
X492497D01*
Y88928D01*
X491081Y90344D01*
X488249D01*
X486832Y88928D01*
Y84679D01*
Y87511D02*
X484000Y90344D01*
X492497Y98841D02*
X491081Y96009D01*
X488249Y93176D01*
X485416D01*
X484000Y94592D01*
Y97425D01*
X485416Y98841D01*
X486832D01*
X488249Y97425D01*
Y93176D01*
X491081Y101673D02*
X492497Y103090D01*
Y105922D01*
X491081Y107338D01*
X485416D01*
X484000Y105922D01*
Y103090D01*
X485416Y101673D01*
X491081D01*
X315500Y9500D02*
Y17997D01*
X311251D01*
X309835Y16581D01*
Y13749D01*
X311251Y12332D01*
X315500D01*
X312668D02*
X309835Y9500D01*
X301338Y17997D02*
X304170Y16581D01*
X307003Y13749D01*
Y10916D01*
X305586Y9500D01*
X302754D01*
X301338Y10916D01*
Y12332D01*
X302754Y13749D01*
X307003D01*
X298505Y9500D02*
X295673D01*
X297089D01*
Y17997D01*
X298505Y16581D01*
X372000Y6750D02*
Y15247D01*
X367751D01*
X366335Y13831D01*
Y10999D01*
X367751Y9582D01*
X372000D01*
X369168D02*
X366335Y6750D01*
X357838Y15247D02*
X360670Y13831D01*
X363503Y10999D01*
Y8166D01*
X362086Y6750D01*
X359254D01*
X357838Y8166D01*
Y9582D01*
X359254Y10999D01*
X363503D01*
X349341Y6750D02*
X355005D01*
X349341Y12415D01*
Y13831D01*
X350757Y15247D01*
X353589D01*
X355005Y13831D01*
D213*
X289200Y177500D02*
G03*
X289200Y177500I-1200J0D01*
G01*
D214*
X122000Y500750D02*
D03*
M02*
