G04*
G04 #@! TF.GenerationSoftware,Altium Limited,Altium Designer,21.2.2 (38)*
G04*
G04 Layer_Physical_Order=3*
G04 Layer_Color=128*
%FSLAX44Y44*%
%MOMM*%
G71*
G04*
G04 #@! TF.SameCoordinates,7819C684-4886-4163-8357-BFC2EAAA6F51*
G04*
G04*
G04 #@! TF.FilePolarity,Negative*
G04*
G01*
G75*
%ADD125C,0.5000*%
%ADD141C,1.6160*%
%ADD142C,2.2500*%
%ADD143C,1.3000*%
%ADD144O,1.3000X1.7000*%
%ADD145C,3.6000*%
%ADD146C,2.2000*%
%ADD147C,0.8000*%
%ADD149C,1.0000*%
%ADD150C,1.9200*%
G36*
X189121Y761970D02*
X89066Y661914D01*
X69974Y681006D01*
X66438Y677470D01*
X33204Y710704D01*
X42250Y719750D01*
X42250Y719750D01*
X127810Y805310D01*
X127810Y805310D01*
X136796Y814296D01*
X189121Y761970D01*
D02*
G37*
G36*
X372397Y805103D02*
X372421Y805127D01*
X457981Y719567D01*
X457957Y719543D01*
X467046Y710454D01*
X433812Y677220D01*
X430276Y680756D01*
X411184Y661664D01*
X311129Y761720D01*
X363454Y814046D01*
X372397Y805103D01*
D02*
G37*
D125*
X11750Y689250D02*
G03*
X34Y660966I28284J-28284D01*
G01*
X189034Y849966D02*
G03*
X160750Y838250I0J-40000D01*
G01*
X339250D02*
G03*
X310966Y849966I-28284J-28284D01*
G01*
X499966Y660966D02*
G03*
X488250Y689250I-40000J0D01*
G01*
X460000Y0D02*
G03*
X500000Y40000I0J40000D01*
G01*
X0Y40000D02*
G03*
X40000Y0I40000J0D01*
G01*
X0Y40000D02*
Y660966D01*
X34D01*
X11750Y689250D02*
X11750Y689250D01*
X160750Y838250D01*
X160750Y838250D02*
X160750Y838250D01*
X189034Y849966D02*
Y850000D01*
X310966D01*
Y849966D02*
Y850000D01*
X339250Y838250D02*
X339250D01*
X339250D02*
X488250Y689250D01*
X488250D01*
X499966Y660966D02*
X500000D01*
Y40000D02*
Y660966D01*
X500000Y40000D02*
X500000Y40000D01*
X460000Y0D02*
X460000Y0D01*
X40000D02*
X460000D01*
X40000D02*
X40000Y0D01*
D141*
X63208Y92744D02*
D03*
X37808D02*
D03*
X63208Y130844D02*
D03*
X37808D02*
D03*
X63208Y168944D02*
D03*
X37808D02*
D03*
X63208Y207044D02*
D03*
X37808D02*
D03*
D142*
X50570Y448090D02*
D03*
Y549690D02*
D03*
X50000Y257590D02*
D03*
Y384590D02*
D03*
X450570Y448090D02*
D03*
Y549690D02*
D03*
X450500Y257590D02*
D03*
Y384590D02*
D03*
D143*
X274250Y46500D02*
D03*
X225750D02*
D03*
D144*
X213750Y20000D02*
D03*
X286250D02*
D03*
D145*
X40000Y40000D02*
D03*
X460000D02*
D03*
X40000Y620000D02*
D03*
X460000D02*
D03*
D146*
X435000Y117000D02*
D03*
X475000D02*
D03*
D147*
X90380Y194014D02*
D03*
X72750Y186500D02*
D03*
X92620Y148387D02*
D03*
X107000Y186500D02*
D03*
X113674Y176500D02*
D03*
X306950Y572213D02*
D03*
X79500Y126465D02*
D03*
X76000Y136000D02*
D03*
X43500Y572500D02*
D03*
X119750Y307000D02*
D03*
X105577Y348250D02*
D03*
X105125Y355875D02*
D03*
X107449Y362687D02*
D03*
X104638Y371712D02*
D03*
X55750Y346500D02*
D03*
X262500Y349000D02*
D03*
X194750Y375000D02*
D03*
X304857Y356441D02*
D03*
X317250Y354000D02*
D03*
X297015Y349000D02*
D03*
X352299Y375000D02*
D03*
X343946Y365715D02*
D03*
X354256Y390146D02*
D03*
X300316Y361566D02*
D03*
X352299Y368284D02*
D03*
X365550Y381500D02*
D03*
X352327Y326911D02*
D03*
X337000Y357786D02*
D03*
X340465Y329375D02*
D03*
X328714Y357146D02*
D03*
X324077Y353007D02*
D03*
X316122Y347921D02*
D03*
X362500Y325000D02*
D03*
X404490Y338500D02*
D03*
X205500Y203500D02*
D03*
X260000Y438750D02*
D03*
X259250Y417250D02*
D03*
X252000Y123278D02*
D03*
X265750Y146250D02*
D03*
X259750Y126250D02*
D03*
X337125Y122006D02*
D03*
X344500Y116137D02*
D03*
X322000Y26750D02*
D03*
X291500Y35250D02*
D03*
X193500Y75500D02*
D03*
X367500Y159959D02*
D03*
X487500Y68500D02*
D03*
X13750Y72750D02*
D03*
X80000Y65750D02*
D03*
X44500Y334881D02*
D03*
X436502Y91250D02*
D03*
X456390Y109880D02*
D03*
X164750Y50250D02*
D03*
X147250Y19750D02*
D03*
X121250D02*
D03*
X454000Y564750D02*
D03*
X419750Y129250D02*
D03*
X298000Y189000D02*
D03*
X308000Y188750D02*
D03*
X316000Y143000D02*
D03*
X334250Y177000D02*
D03*
X324500Y147000D02*
D03*
X303000Y146250D02*
D03*
X375750Y197500D02*
D03*
X347250Y174500D02*
D03*
X351500Y192750D02*
D03*
X342500D02*
D03*
X230500Y58000D02*
D03*
X237000Y58000D02*
D03*
X243500Y58000D02*
D03*
X250000Y58000D02*
D03*
X364750Y140996D02*
D03*
X328250Y92500D02*
D03*
Y97250D02*
D03*
X423300Y106850D02*
D03*
X383500Y180750D02*
D03*
X451750Y76000D02*
D03*
X432272Y74000D02*
D03*
X469750Y336500D02*
D03*
Y447286D02*
D03*
X295750Y146250D02*
D03*
X331000Y826000D02*
D03*
X91000Y646000D02*
D03*
X16000Y676000D02*
D03*
X436000D02*
D03*
X61000Y646000D02*
D03*
X196000Y736000D02*
D03*
X361000Y706000D02*
D03*
Y646000D02*
D03*
X481000Y586000D02*
D03*
X226000Y796000D02*
D03*
X331000Y286000D02*
D03*
X316000Y736000D02*
D03*
X181000Y706000D02*
D03*
Y766000D02*
D03*
X151000Y706000D02*
D03*
X106000Y616000D02*
D03*
Y556000D02*
D03*
X31000Y106000D02*
D03*
X331000Y706000D02*
D03*
X136000Y616000D02*
D03*
X271000Y766000D02*
D03*
Y286000D02*
D03*
X331000Y646000D02*
D03*
X316000Y796000D02*
D03*
X421000Y646000D02*
D03*
X241000Y826000D02*
D03*
Y106000D02*
D03*
X136000Y376000D02*
D03*
X121000Y406000D02*
D03*
X241000Y706000D02*
D03*
X61000Y586000D02*
D03*
X166000Y736000D02*
D03*
X106000Y676000D02*
D03*
X451000Y406000D02*
D03*
X196000Y16000D02*
D03*
X451000Y706000D02*
D03*
X301000Y766000D02*
D03*
X346000Y796000D02*
D03*
X271000Y706000D02*
D03*
X166000Y796000D02*
D03*
X76000Y616000D02*
D03*
X166000D02*
D03*
X241000Y766000D02*
D03*
X301000Y706000D02*
D03*
X136000Y676000D02*
D03*
X76000D02*
D03*
X181000Y826000D02*
D03*
X121000Y646000D02*
D03*
X346000Y676000D02*
D03*
X211000Y826000D02*
D03*
X166000Y676000D02*
D03*
X31000Y226000D02*
D03*
X151000Y286000D02*
D03*
X466000Y676000D02*
D03*
X481000Y646000D02*
D03*
X256000Y736000D02*
D03*
X286000Y796000D02*
D03*
X226000Y16000D02*
D03*
X211000Y706000D02*
D03*
X226000Y736000D02*
D03*
X46000Y676000D02*
D03*
X376000D02*
D03*
X271000Y826000D02*
D03*
Y646000D02*
D03*
X196000Y796000D02*
D03*
X211000Y766000D02*
D03*
X31000Y586000D02*
D03*
X406000Y256000D02*
D03*
X256000Y796000D02*
D03*
X301000Y826000D02*
D03*
X286000Y736000D02*
D03*
X315500Y239500D02*
D03*
X177500Y467750D02*
D03*
X182750Y461250D02*
D03*
X165750Y506750D02*
D03*
X180250Y126500D02*
D03*
X122375Y112375D02*
D03*
X176000Y110250D02*
D03*
X193750Y108250D02*
D03*
X127500Y90875D02*
D03*
X129750Y101625D02*
D03*
X118250Y108250D02*
D03*
X354517Y382269D02*
D03*
X344905Y400916D02*
D03*
X381500Y391500D02*
D03*
X404500Y367500D02*
D03*
X454000Y495250D02*
D03*
X457757Y474757D02*
D03*
X454000Y466000D02*
D03*
X188000Y383500D02*
D03*
X153507Y419520D02*
D03*
X342750Y61650D02*
D03*
X292500Y97000D02*
D03*
X148000Y141750D02*
D03*
X349750Y91250D02*
D03*
X289000Y93500D02*
D03*
X430000Y591250D02*
D03*
X400750Y587000D02*
D03*
X384500Y603750D02*
D03*
X475000Y522750D02*
D03*
X339250Y521250D02*
D03*
X323266Y498274D02*
D03*
X331250Y491000D02*
D03*
X349500Y507025D02*
D03*
X368250Y535250D02*
D03*
X419520Y575278D02*
D03*
X391750Y587250D02*
D03*
X455750Y422250D02*
D03*
X357500Y614250D02*
D03*
X361500Y535250D02*
D03*
X367750Y519750D02*
D03*
X358750Y520500D02*
D03*
X370000Y527750D02*
D03*
X438750Y416500D02*
D03*
X457000Y536990D02*
D03*
X330250Y536250D02*
D03*
X368000Y478000D02*
D03*
X374000D02*
D03*
X339500Y527000D02*
D03*
X316765Y534026D02*
D03*
X317015Y539776D02*
D03*
X318000Y512500D02*
D03*
X315015Y507525D02*
D03*
X314750Y499250D02*
D03*
X297000Y532500D02*
D03*
X297015Y539026D02*
D03*
X297500Y545000D02*
D03*
X296750Y557000D02*
D03*
X325250Y503750D02*
D03*
X200238Y444250D02*
D03*
X200500Y432250D02*
D03*
X194125Y432209D02*
D03*
X208510Y469773D02*
D03*
X202750Y471500D02*
D03*
X208000Y486000D02*
D03*
X207750Y512500D02*
D03*
X202750Y520000D02*
D03*
X208000Y522500D02*
D03*
X270250Y467250D02*
D03*
X274763Y462523D02*
D03*
X208000Y543250D02*
D03*
X202750Y540250D02*
D03*
X295250Y515750D02*
D03*
X255000Y557500D02*
D03*
X288000Y552500D02*
D03*
X300500Y583000D02*
D03*
X311500Y583000D02*
D03*
X319958Y578792D02*
D03*
X260000Y467750D02*
D03*
X250000Y467750D02*
D03*
X240250D02*
D03*
X297750Y479000D02*
D03*
X400000Y532000D02*
D03*
X391000Y551000D02*
D03*
X376000Y470500D02*
D03*
X367750Y464500D02*
D03*
X362000Y455250D02*
D03*
X182250Y533750D02*
D03*
X175509Y517525D02*
D03*
X123000Y537000D02*
D03*
X179750Y546000D02*
D03*
X155500Y554750D02*
D03*
X324750Y422750D02*
D03*
X118000Y492000D02*
D03*
X156750Y479000D02*
D03*
X126250Y493250D02*
D03*
X311750Y425750D02*
D03*
X299500Y610250D02*
D03*
X395750Y562500D02*
D03*
X203500Y165250D02*
D03*
X258000Y276500D02*
D03*
X259500Y267500D02*
D03*
X195750Y340000D02*
D03*
X188500Y315250D02*
D03*
X54250Y371250D02*
D03*
X122250Y243500D02*
D03*
X130750Y310750D02*
D03*
X63253Y255513D02*
D03*
X159250Y213500D02*
D03*
X266500Y220750D02*
D03*
X226500Y195750D02*
D03*
X214750Y195750D02*
D03*
X104000Y593250D02*
D03*
X151000Y611750D02*
D03*
X143500Y612750D02*
D03*
X211500Y291750D02*
D03*
X161500Y295500D02*
D03*
X161250Y279500D02*
D03*
X161750Y261500D02*
D03*
X210750Y277250D02*
D03*
X205500Y304000D02*
D03*
X184500D02*
D03*
X168250Y303750D02*
D03*
X166750Y254250D02*
D03*
X185500D02*
D03*
X205250D02*
D03*
X216500Y611272D02*
D03*
X256000Y659750D02*
D03*
X95750Y635750D02*
D03*
X124000Y636250D02*
D03*
X135000Y626000D02*
D03*
X85250Y626500D02*
D03*
X85000Y610750D02*
D03*
X96000Y600500D02*
D03*
X66750Y576500D02*
D03*
X87250D02*
D03*
X98250Y588500D02*
D03*
X109250Y599250D02*
D03*
X47000Y582750D02*
D03*
X17250Y583250D02*
D03*
X469750Y586500D02*
D03*
X29750Y665000D02*
D03*
X451000Y654250D02*
D03*
X268500Y622250D02*
D03*
X279000Y631500D02*
D03*
X292500Y632000D02*
D03*
X307500D02*
D03*
X322250D02*
D03*
X337250D02*
D03*
X352250Y631750D02*
D03*
X272013Y403270D02*
D03*
X283014Y417270D02*
D03*
X269013Y424771D02*
D03*
X263513Y413270D02*
D03*
X316750Y560250D02*
D03*
X339750Y562750D02*
D03*
X270500Y349000D02*
D03*
X210500Y348250D02*
D03*
X177750Y448500D02*
D03*
X197260Y459272D02*
D03*
X347017Y603279D02*
D03*
X339767Y577528D02*
D03*
X338266Y603279D02*
D03*
X297764Y499774D02*
D03*
X331750Y603000D02*
D03*
X316000Y610500D02*
D03*
X319250Y584625D02*
D03*
X335000Y621750D02*
D03*
X327266Y599279D02*
D03*
X308500Y610500D02*
D03*
X424500Y621750D02*
D03*
X361000Y633750D02*
D03*
X292250Y610250D02*
D03*
X132750Y263750D02*
D03*
X252500Y401000D02*
D03*
X246750Y399500D02*
D03*
X366750Y253750D02*
D03*
X384019Y240750D02*
D03*
X366750D02*
D03*
X293250Y216750D02*
D03*
X264250Y670000D02*
D03*
X46250Y427750D02*
D03*
X167750Y140000D02*
D03*
X197375Y626250D02*
D03*
X234500Y680250D02*
D03*
X178750Y663750D02*
D03*
X205000Y648500D02*
D03*
X240250Y634750D02*
D03*
X238500Y650250D02*
D03*
X231250Y659250D02*
D03*
X218000Y659500D02*
D03*
X215000Y638500D02*
D03*
X196000Y651250D02*
D03*
X177750Y620750D02*
D03*
X178500Y655000D02*
D03*
X203750Y659500D02*
D03*
X246500Y300000D02*
D03*
X205250Y581500D02*
D03*
X456490Y371890D02*
D03*
X404490Y346490D02*
D03*
X432000Y408250D02*
D03*
X464750Y331000D02*
D03*
X444250Y336500D02*
D03*
Y327750D02*
D03*
X401340Y321090D02*
D03*
X456390Y244890D02*
D03*
X444750Y244750D02*
D03*
Y272000D02*
D03*
X451750Y272000D02*
D03*
X457290Y397290D02*
D03*
X469750Y577250D02*
D03*
X58460Y460790D02*
D03*
X152500Y483250D02*
D03*
X55190Y486190D02*
D03*
X95570Y536990D02*
D03*
Y511590D02*
D03*
X57000Y562400D02*
D03*
X357500Y812500D02*
D03*
X347500Y822500D02*
D03*
X337500Y832500D02*
D03*
X325000Y842000D02*
D03*
X310000Y845000D02*
D03*
X280000D02*
D03*
X265000D02*
D03*
X250000D02*
D03*
X295000D02*
D03*
X142500Y812500D02*
D03*
X175000Y842000D02*
D03*
X152500Y822500D02*
D03*
X162500Y832500D02*
D03*
X235000Y845000D02*
D03*
X190000D02*
D03*
X205000D02*
D03*
X220000D02*
D03*
X350500Y114250D02*
D03*
X346250Y85250D02*
D03*
X270000Y57000D02*
D03*
X434340Y661420D02*
D03*
X394712Y646430D02*
D03*
X415544Y660658D02*
D03*
X398526D02*
D03*
X383540Y668528D02*
D03*
X400304Y670052D02*
D03*
X415544D02*
D03*
X431800Y670560D02*
D03*
X438750Y683000D02*
D03*
X445516Y670052D02*
D03*
X448500Y682000D02*
D03*
X445000Y692500D02*
D03*
X454000Y711500D02*
D03*
X443250Y701250D02*
D03*
X427500Y692500D02*
D03*
X417500Y682500D02*
D03*
X405000Y680000D02*
D03*
X395000Y690000D02*
D03*
X385000Y700000D02*
D03*
X375000Y710000D02*
D03*
X365000Y720000D02*
D03*
X355000Y730000D02*
D03*
X345000Y740000D02*
D03*
X335000Y750000D02*
D03*
X325000Y760000D02*
D03*
X332500Y770000D02*
D03*
X342500Y780000D02*
D03*
X352500Y790000D02*
D03*
X362500Y800000D02*
D03*
X103000Y670746D02*
D03*
X92964Y661416D02*
D03*
X77978D02*
D03*
X72898Y670810D02*
D03*
X63000Y664500D02*
D03*
X55000Y674250D02*
D03*
X53500Y684250D02*
D03*
X72500Y693000D02*
D03*
X63500Y678250D02*
D03*
X52500Y705000D02*
D03*
X42500Y712500D02*
D03*
X82500Y682500D02*
D03*
X95000Y680000D02*
D03*
X115000Y700000D02*
D03*
X145000Y730000D02*
D03*
X167500Y770000D02*
D03*
X105000Y690000D02*
D03*
X125000Y710000D02*
D03*
X135000Y720000D02*
D03*
X155000Y740000D02*
D03*
X165000Y750000D02*
D03*
X175000Y760000D02*
D03*
X147500Y790000D02*
D03*
X157500Y780000D02*
D03*
X137500Y800000D02*
D03*
X188750Y685500D02*
D03*
X248750Y312000D02*
D03*
X173500Y242250D02*
D03*
X178500Y245751D02*
D03*
X163500Y242250D02*
D03*
X228500Y227750D02*
D03*
X217500Y107750D02*
D03*
X249250Y158250D02*
D03*
X264000Y165250D02*
D03*
X178500Y339000D02*
D03*
X149500Y302250D02*
D03*
X238250Y243750D02*
D03*
X211250Y74000D02*
D03*
X229500Y65750D02*
D03*
X292014Y501775D02*
D03*
X338000Y213750D02*
D03*
X237000Y190750D02*
D03*
X280014Y89255D02*
D03*
X402500Y572500D02*
D03*
X188750Y219750D02*
D03*
X193500Y227000D02*
D03*
X255750Y225250D02*
D03*
X203500Y244000D02*
D03*
X162500Y333000D02*
D03*
X258000Y285750D02*
D03*
X156000Y243500D02*
D03*
X151500Y248000D02*
D03*
X158500Y314000D02*
D03*
X239500Y309750D02*
D03*
X178500Y333000D02*
D03*
X169000Y333000D02*
D03*
X285000Y557500D02*
D03*
X381250Y76500D02*
D03*
X115000Y417500D02*
D03*
X155000Y64250D02*
D03*
X142250Y91750D02*
D03*
X149500Y97000D02*
D03*
X132500Y87750D02*
D03*
X119250Y101750D02*
D03*
X122000Y87750D02*
D03*
X113000Y101750D02*
D03*
X191000Y21250D02*
D03*
X200500Y21250D02*
D03*
X375500Y111500D02*
D03*
Y103500D02*
D03*
X367500D02*
D03*
X375500Y89750D02*
D03*
X367500Y89250D02*
D03*
X63250Y230750D02*
D03*
X56910Y295690D02*
D03*
X400250Y84750D02*
D03*
X56910Y321090D02*
D03*
X30000Y445750D02*
D03*
X35250Y472750D02*
D03*
X43000Y245250D02*
D03*
X203989Y548761D02*
D03*
X149500Y556750D02*
D03*
X158500Y559250D02*
D03*
X159008Y523526D02*
D03*
X153507Y520775D02*
D03*
X164508Y526276D02*
D03*
X230000Y467750D02*
D03*
X255000Y462500D02*
D03*
X265000D02*
D03*
X245000D02*
D03*
X221750Y468250D02*
D03*
X225000Y462500D02*
D03*
X156500Y455750D02*
D03*
X176750Y456000D02*
D03*
X181750Y475250D02*
D03*
X185750Y488750D02*
D03*
X179009Y494024D02*
D03*
X204000Y462750D02*
D03*
X183750Y498250D02*
D03*
X202750Y500000D02*
D03*
X205000Y507250D02*
D03*
X232750Y596500D02*
D03*
X217250D02*
D03*
X233000Y605750D02*
D03*
X217000D02*
D03*
X233000Y582000D02*
D03*
X248500Y632750D02*
D03*
X204750Y685500D02*
D03*
X246000D02*
D03*
X261750D02*
D03*
X155750Y675000D02*
D03*
X146250D02*
D03*
Y644250D02*
D03*
X155750D02*
D03*
X189250Y622750D02*
D03*
X86750Y50250D02*
D03*
X112750D02*
D03*
X138750D02*
D03*
X122000Y67250D02*
D03*
X138000Y64250D02*
D03*
X132500Y67250D02*
D03*
X149500D02*
D03*
X95250Y19750D02*
D03*
X160000Y67250D02*
D03*
X127500Y64250D02*
D03*
X260000Y619000D02*
D03*
X260000Y553750D02*
D03*
X270000D02*
D03*
X265000Y557500D02*
D03*
X275000D02*
D03*
X240000Y553750D02*
D03*
X215000Y466250D02*
D03*
X43000Y511600D02*
D03*
X297500Y510000D02*
D03*
X202750Y530000D02*
D03*
X43000Y486200D02*
D03*
X146000Y506750D02*
D03*
X208000Y477500D02*
D03*
X158500Y566000D02*
D03*
X202760Y480774D02*
D03*
X202750Y490750D02*
D03*
X217000Y582000D02*
D03*
X288250Y464750D02*
D03*
X43500Y532500D02*
D03*
X299500Y563000D02*
D03*
X484500Y572500D02*
D03*
X292000Y362250D02*
D03*
X140000Y420000D02*
D03*
X165500Y87750D02*
D03*
X105000D02*
D03*
X94500D02*
D03*
X100000Y90997D02*
D03*
X160258Y90750D02*
D03*
X155000Y87750D02*
D03*
X155758Y98255D02*
D03*
X138007Y100005D02*
D03*
X282764Y423021D02*
D03*
X294500Y394500D02*
D03*
X384000Y300000D02*
D03*
X57250Y695250D02*
D03*
X32500Y702500D02*
D03*
X22500Y692500D02*
D03*
X12500Y682500D02*
D03*
X6250Y670000D02*
D03*
X5000Y655000D02*
D03*
Y640000D02*
D03*
Y610000D02*
D03*
Y625000D02*
D03*
Y580000D02*
D03*
Y595000D02*
D03*
X495000Y580000D02*
D03*
Y595000D02*
D03*
Y610000D02*
D03*
Y625000D02*
D03*
Y640000D02*
D03*
Y655000D02*
D03*
X493750Y670000D02*
D03*
X487500Y682500D02*
D03*
X467500Y702500D02*
D03*
X477500Y692500D02*
D03*
X385318Y646938D02*
D03*
X378714Y654308D02*
D03*
X366750Y663750D02*
D03*
X348500Y654250D02*
D03*
Y663750D02*
D03*
X333000D02*
D03*
X283500Y679250D02*
D03*
X289000Y662500D02*
D03*
X293500Y671500D02*
D03*
X279000Y670500D02*
D03*
X268750Y680500D02*
D03*
X332666Y654314D02*
D03*
X297750Y655500D02*
D03*
X301500Y664500D02*
D03*
X88138Y670810D02*
D03*
X106680Y659638D02*
D03*
X105410Y648462D02*
D03*
X114804D02*
D03*
X121408Y655066D02*
D03*
X117598Y668020D02*
D03*
X129500Y665000D02*
D03*
X140000Y667750D02*
D03*
X312092Y643896D02*
D03*
Y674396D02*
D03*
X321592D02*
D03*
X162000Y668500D02*
D03*
Y651000D02*
D03*
X171450Y669798D02*
D03*
X179250Y678000D02*
D03*
X227000Y633250D02*
D03*
X247500Y616250D02*
D03*
X177500Y636250D02*
D03*
Y611250D02*
D03*
X260000Y626250D02*
D03*
X262500Y637250D02*
D03*
X259544Y648474D02*
D03*
X178000Y629250D02*
D03*
X208250Y502250D02*
D03*
X208000Y533000D02*
D03*
X207500Y443000D02*
D03*
X210000Y462500D02*
D03*
X190000Y422250D02*
D03*
X204375Y427625D02*
D03*
X204500Y421500D02*
D03*
X223261Y421521D02*
D03*
X117250Y542250D02*
D03*
X167500Y512750D02*
D03*
X156500Y306750D02*
D03*
X150500Y279250D02*
D03*
X233250Y409750D02*
D03*
X229011Y421021D02*
D03*
X227500Y409750D02*
D03*
X365000Y654250D02*
D03*
X292750Y491750D02*
D03*
X277500Y414250D02*
D03*
X344501Y426750D02*
D03*
X210000Y331250D02*
D03*
X344501Y417750D02*
D03*
X397500Y407750D02*
D03*
X137500Y394250D02*
D03*
X279500Y256500D02*
D03*
X256750Y255500D02*
D03*
X243500Y251250D02*
D03*
Y260500D02*
D03*
X393000Y19000D02*
D03*
X232250Y325250D02*
D03*
X254250Y394500D02*
D03*
X252500Y406750D02*
D03*
X126000Y307000D02*
D03*
X229000Y137750D02*
D03*
X223500Y140996D02*
D03*
X241000Y158500D02*
D03*
X292014Y188259D02*
D03*
X282500Y188250D02*
D03*
X332250Y219000D02*
D03*
X258750Y183250D02*
D03*
X274250Y180500D02*
D03*
X360250Y247500D02*
D03*
X321592Y643896D02*
D03*
X477000Y496750D02*
D03*
X280000Y553750D02*
D03*
X254083Y580750D02*
D03*
X246000Y585500D02*
D03*
X260000Y585000D02*
D03*
X250250Y600250D02*
D03*
X260750Y600250D02*
D03*
X210500Y670500D02*
D03*
X216000Y680750D02*
D03*
X238750Y696750D02*
D03*
X211500D02*
D03*
X220500D02*
D03*
X229750D02*
D03*
X192000Y584250D02*
D03*
X188750Y607000D02*
D03*
X199750Y597500D02*
D03*
X200000Y614750D02*
D03*
X191000Y591500D02*
D03*
X250500Y626000D02*
D03*
X189500Y632000D02*
D03*
X198000Y633500D02*
D03*
X174500Y645250D02*
D03*
X218500Y649500D02*
D03*
X229500Y650000D02*
D03*
X133750Y655000D02*
D03*
X138500Y649250D02*
D03*
X303500Y649750D02*
D03*
X380750Y634250D02*
D03*
X399250D02*
D03*
X414500Y630750D02*
D03*
X367750Y631000D02*
D03*
X415000Y604250D02*
D03*
X394250Y603750D02*
D03*
X126750Y575750D02*
D03*
X233500Y643750D02*
D03*
X239500Y660000D02*
D03*
X185398Y670480D02*
D03*
X169750Y655750D02*
D03*
X234000Y670500D02*
D03*
X235250Y620750D02*
D03*
X216000Y631250D02*
D03*
X255352Y669980D02*
D03*
X158500Y574750D02*
D03*
X158500Y583250D02*
D03*
X177000Y600000D02*
D03*
X143750Y556750D02*
D03*
X152000Y583250D02*
D03*
X313515Y454286D02*
D03*
X307409Y446500D02*
D03*
X307000Y440500D02*
D03*
Y431500D02*
D03*
X325250Y430750D02*
D03*
X293762Y406511D02*
D03*
X316750Y410500D02*
D03*
X241250Y419250D02*
D03*
X323250Y405750D02*
D03*
X190250Y573500D02*
D03*
X445500Y566750D02*
D03*
X419750Y144500D02*
D03*
X262500Y655000D02*
D03*
X495250Y557250D02*
D03*
X331500Y441750D02*
D03*
X315000Y460750D02*
D03*
X292000Y485000D02*
D03*
X295000Y470750D02*
D03*
X297250Y465000D02*
D03*
X315500Y479000D02*
D03*
X331250Y485750D02*
D03*
X344500Y434750D02*
D03*
X326500Y465500D02*
D03*
X357750Y479250D02*
D03*
Y473750D02*
D03*
X351250Y453000D02*
D03*
X214500Y545500D02*
D03*
X285750Y510000D02*
D03*
X250000Y474250D02*
D03*
X214250Y510000D02*
D03*
X250000Y545750D02*
D03*
X285500Y545500D02*
D03*
X273000Y545750D02*
D03*
X285500Y474500D02*
D03*
X285750Y487000D02*
D03*
X214500Y474500D02*
D03*
X214250Y487000D02*
D03*
X227000Y474250D02*
D03*
X214250Y533000D02*
D03*
X222250Y521750D02*
D03*
Y498250D02*
D03*
X238250Y482250D02*
D03*
Y498250D02*
D03*
X261750D02*
D03*
X238250Y521750D02*
D03*
X277750Y498250D02*
D03*
X364000Y9500D02*
D03*
D149*
X168270Y430750D02*
X288270Y310750D01*
X82750Y403750D02*
X109750Y430750D01*
X288270Y310750D02*
X497500Y310750D01*
X109750Y430750D02*
X168270D01*
X2750Y403750D02*
X82750D01*
D150*
X460000Y196250D02*
D03*
M02*
