G04*
G04 #@! TF.GenerationSoftware,Altium Limited,Altium Designer,21.2.2 (38)*
G04*
G04 Layer_Color=8388736*
%FSLAX44Y44*%
%MOMM*%
G71*
G04*
G04 #@! TF.SameCoordinates,7819C684-4886-4163-8357-BFC2EAAA6F51*
G04*
G04*
G04 #@! TF.FilePolarity,Negative*
G04*
G01*
G75*
%ADD17C,0.1000*%
%ADD63R,2.0000X2.0000*%
%ADD64R,2.0000X2.0000*%
%ADD65R,2.0000X2.0000*%
%ADD66R,0.6500X9.4500*%
%ADD67R,9.4500X0.6500*%
%ADD68R,10.9000X0.6500*%
%ADD69R,0.6500X10.9000*%
%ADD70R,0.7532X0.7532*%
%ADD71R,0.7532X0.7032*%
%ADD72R,0.7032X0.7532*%
%ADD73R,1.0032X1.0032*%
%ADD74C,2.0000*%
%ADD75R,0.4000X0.4500*%
%ADD76R,0.7532X0.7532*%
%ADD77R,0.5032X0.7032*%
%ADD78R,0.7032X0.5032*%
%ADD79R,0.6032X0.7032*%
%ADD80R,1.3032X0.6732*%
%ADD81R,3.2032X1.6032*%
%ADD82R,3.4032X1.2032*%
%ADD83R,2.4532X1.2532*%
%ADD84R,0.8532X1.0532*%
%ADD85R,0.6032X1.5532*%
%ADD86R,3.6032X1.5532*%
%ADD87R,0.4532X0.6532*%
%ADD88R,0.5532X0.6532*%
G04:AMPARAMS|DCode=89|XSize=1.9032mm|YSize=3.0032mm|CornerRadius=0mm|HoleSize=0mm|Usage=FLASHONLY|Rotation=225.000|XOffset=0mm|YOffset=0mm|HoleType=Round|Shape=Rectangle|*
%AMROTATEDRECTD89*
4,1,4,-0.3889,1.7347,1.7347,-0.3889,0.3889,-1.7347,-1.7347,0.3889,-0.3889,1.7347,0.0*
%
%ADD89ROTATEDRECTD89*%

G04:AMPARAMS|DCode=90|XSize=1.9032mm|YSize=3.0032mm|CornerRadius=0mm|HoleSize=0mm|Usage=FLASHONLY|Rotation=315.000|XOffset=0mm|YOffset=0mm|HoleType=Round|Shape=Rectangle|*
%AMROTATEDRECTD90*
4,1,4,-1.7347,-0.3889,0.3889,1.7347,1.7347,0.3889,-0.3889,-1.7347,-1.7347,-0.3889,0.0*
%
%ADD90ROTATEDRECTD90*%

%ADD91R,0.4500X0.4000*%
%ADD92R,0.7532X0.4532*%
%ADD93R,0.5532X0.4532*%
G04:AMPARAMS|DCode=94|XSize=0.4mm|YSize=0.45mm|CornerRadius=0mm|HoleSize=0mm|Usage=FLASHONLY|Rotation=45.000|XOffset=0mm|YOffset=0mm|HoleType=Round|Shape=Rectangle|*
%AMROTATEDRECTD94*
4,1,4,0.0177,-0.3005,-0.3005,0.0177,-0.0177,0.3005,0.3005,-0.0177,0.0177,-0.3005,0.0*
%
%ADD94ROTATEDRECTD94*%

G04:AMPARAMS|DCode=95|XSize=0.4mm|YSize=0.45mm|CornerRadius=0mm|HoleSize=0mm|Usage=FLASHONLY|Rotation=135.000|XOffset=0mm|YOffset=0mm|HoleType=Round|Shape=Rectangle|*
%AMROTATEDRECTD95*
4,1,4,0.3005,0.0177,-0.0177,-0.3005,-0.3005,-0.0177,0.0177,0.3005,0.3005,0.0177,0.0*
%
%ADD95ROTATEDRECTD95*%

%ADD96R,1.2532X2.4032*%
%ADD97R,1.2032X1.2532*%
%ADD98R,1.1532X1.0532*%
%ADD99P,1.0652X4X360.0*%
%ADD100R,1.1532X0.7532*%
%ADD101R,1.2032X2.0032*%
%ADD102R,2.2032X2.7032*%
%ADD103R,2.2032X2.2032*%
%ADD104R,1.0032X2.2032*%
%ADD105R,0.4232X0.6532*%
%ADD106R,0.6532X0.4232*%
%ADD107R,0.3932X0.6532*%
%ADD108R,0.6532X0.3932*%
%ADD109C,3.0032*%
%ADD110C,1.7272*%
%ADD111R,1.7272X1.7272*%
%ADD112C,1.8532*%
%ADD113C,1.4032*%
G04:AMPARAMS|DCode=114|XSize=1.4032mm|YSize=1.8032mm|CornerRadius=0.7016mm|HoleSize=0mm|Usage=FLASHONLY|Rotation=180.000|XOffset=0mm|YOffset=0mm|HoleType=Round|Shape=RoundedRectangle|*
%AMROUNDEDRECTD114*
21,1,1.4032,0.4000,0,0,180.0*
21,1,0.0000,1.8032,0,0,180.0*
1,1,1.4032,0.0000,0.2000*
1,1,1.4032,0.0000,0.2000*
1,1,1.4032,0.0000,-0.2000*
1,1,1.4032,0.0000,-0.2000*
%
%ADD114ROUNDEDRECTD114*%
%ADD115C,3.2032*%
%ADD116C,1.8032*%
G36*
X220000Y677000D02*
X220750Y677000D01*
Y677500D01*
X223750D01*
Y677000D01*
X226250D01*
Y664000D01*
X223750D01*
Y663500D01*
X220750D01*
Y664000D01*
X218250D01*
Y675250D01*
X220000Y677000D01*
D02*
G37*
D17*
X313000Y663750D02*
X321000D01*
X312000Y664500D02*
X322000D01*
X320250Y662750D02*
X323000Y665500D01*
X313750Y662750D02*
X320250D01*
X311000Y665500D02*
X313250Y663250D01*
X313750Y662750D01*
X320250Y655400D02*
X320750Y654900D01*
X323000Y652650D01*
X313750Y655400D02*
X320250D01*
X311000Y652650D02*
X313750Y655400D01*
X312000Y653650D02*
X322000D01*
X313000Y654400D02*
X321000D01*
X147000Y655000D02*
X155000D01*
X146000Y654250D02*
X156000D01*
X145000Y653250D02*
X147750Y656000D01*
X154250D01*
X154750Y655500D02*
X157000Y653250D01*
X154250Y656000D02*
X154750Y655500D01*
X147250Y663850D02*
X147750Y663350D01*
X145000Y666100D02*
X147250Y663850D01*
X147750Y663350D02*
X154250D01*
X157000Y666100D01*
X146000Y665100D02*
X156000D01*
X147000Y664350D02*
X155000D01*
D63*
X226500Y510000D02*
D03*
X273500Y486500D02*
D03*
Y510000D02*
D03*
Y533500D02*
D03*
X226500D02*
D03*
X250000Y510000D02*
D03*
Y533500D02*
D03*
D64*
X226500Y486500D02*
D03*
D65*
X250000D02*
D03*
D66*
X303000Y510000D02*
D03*
X197000Y510000D02*
D03*
D67*
X250000Y457000D02*
D03*
X250000Y563000D02*
D03*
D68*
X250000Y569250D02*
D03*
Y450750D02*
D03*
D69*
X190750Y510000D02*
D03*
X309250D02*
D03*
D70*
X260000Y423750D02*
D03*
Y432750D02*
D03*
X310000Y54250D02*
D03*
Y63250D02*
D03*
X299750Y431500D02*
D03*
Y440500D02*
D03*
X315750Y432500D02*
D03*
Y441500D02*
D03*
X283250Y437500D02*
D03*
Y428500D02*
D03*
X307500Y419500D02*
D03*
Y410500D02*
D03*
X325250Y446250D02*
D03*
Y437250D02*
D03*
X320500Y388250D02*
D03*
Y397250D02*
D03*
X228750Y435750D02*
D03*
Y426750D02*
D03*
X242500Y435750D02*
D03*
Y426750D02*
D03*
X273000Y396250D02*
D03*
Y387250D02*
D03*
X352500Y585750D02*
D03*
Y594750D02*
D03*
X333000Y585750D02*
D03*
Y594750D02*
D03*
X200500Y37750D02*
D03*
Y28750D02*
D03*
X191000Y37750D02*
D03*
Y28750D02*
D03*
X358000Y63250D02*
D03*
Y54250D02*
D03*
X369500Y63250D02*
D03*
Y54250D02*
D03*
X379000D02*
D03*
Y63250D02*
D03*
X388500Y54250D02*
D03*
Y63250D02*
D03*
X398000Y63250D02*
D03*
Y54250D02*
D03*
X407500Y54250D02*
D03*
Y63250D02*
D03*
X417000Y54250D02*
D03*
Y63250D02*
D03*
X210250Y596500D02*
D03*
Y587500D02*
D03*
X239750Y596500D02*
D03*
Y587500D02*
D03*
X210250Y631000D02*
D03*
Y622000D02*
D03*
X239750Y605500D02*
D03*
Y614500D02*
D03*
X332750Y471250D02*
D03*
Y462250D02*
D03*
X323500Y545000D02*
D03*
Y536000D02*
D03*
X351500Y467500D02*
D03*
Y476500D02*
D03*
X297750Y419500D02*
D03*
Y410500D02*
D03*
X268750Y439000D02*
D03*
Y430000D02*
D03*
X290500Y591000D02*
D03*
Y600000D02*
D03*
X299500Y591000D02*
D03*
Y600000D02*
D03*
X308500Y591000D02*
D03*
Y600000D02*
D03*
X317500Y591000D02*
D03*
Y600000D02*
D03*
X210250Y614500D02*
D03*
Y605500D02*
D03*
X342250Y467500D02*
D03*
Y476500D02*
D03*
X322000Y474000D02*
D03*
Y483000D02*
D03*
X342750Y585750D02*
D03*
Y594750D02*
D03*
X391000Y534500D02*
D03*
Y543500D02*
D03*
D71*
X350750Y417250D02*
D03*
Y427250D02*
D03*
X334000Y53750D02*
D03*
Y63750D02*
D03*
D72*
X380750Y408910D02*
D03*
X370750D02*
D03*
D73*
X310000Y26750D02*
D03*
Y43250D02*
D03*
X334000Y26750D02*
D03*
Y43250D02*
D03*
X358000Y43250D02*
D03*
Y26750D02*
D03*
D74*
X95000Y135000D02*
D03*
X80000Y590000D02*
D03*
X480000Y220000D02*
D03*
D75*
X260750Y614250D02*
D03*
X255250D02*
D03*
X232750Y586750D02*
D03*
X227250D02*
D03*
X222750D02*
D03*
X217250D02*
D03*
X222500Y602750D02*
D03*
X217000D02*
D03*
X233000D02*
D03*
X227500D02*
D03*
X189500Y601750D02*
D03*
X195000D02*
D03*
X188250Y596250D02*
D03*
X182750D02*
D03*
X188250Y612250D02*
D03*
X182750D02*
D03*
X261000Y592000D02*
D03*
X255500D02*
D03*
X260750Y608500D02*
D03*
X255250D02*
D03*
X254750Y655000D02*
D03*
X249250D02*
D03*
X184250D02*
D03*
X189750D02*
D03*
X251000Y675500D02*
D03*
X256500D02*
D03*
X199501D02*
D03*
X194000D02*
D03*
X189250Y617750D02*
D03*
X194750D02*
D03*
X205500Y670500D02*
D03*
X200000D02*
D03*
X203250Y665500D02*
D03*
X208750D02*
D03*
X240250D02*
D03*
X234750D02*
D03*
X239000Y670500D02*
D03*
X244500D02*
D03*
D76*
X154500Y446000D02*
D03*
X163500D02*
D03*
X154500Y437250D02*
D03*
X163500D02*
D03*
X129250Y568500D02*
D03*
X138250D02*
D03*
X164000Y574750D02*
D03*
X173000D02*
D03*
X171000Y455750D02*
D03*
X162000D02*
D03*
X395250Y570750D02*
D03*
X386250D02*
D03*
X386250Y580250D02*
D03*
X395250D02*
D03*
X163500Y535250D02*
D03*
X172500D02*
D03*
X151500Y497750D02*
D03*
X160500D02*
D03*
X151500Y506750D02*
D03*
X160500D02*
D03*
X164000Y583250D02*
D03*
X173000D02*
D03*
X164000Y566250D02*
D03*
X173000D02*
D03*
X164000Y549250D02*
D03*
X173000D02*
D03*
X323500Y527500D02*
D03*
X332500D02*
D03*
X323500Y518750D02*
D03*
X332500D02*
D03*
X324250Y560000D02*
D03*
X333250D02*
D03*
X335250Y453000D02*
D03*
X344250D02*
D03*
X229000Y379500D02*
D03*
X220000D02*
D03*
X173000Y591750D02*
D03*
X164000D02*
D03*
X173000Y557750D02*
D03*
X164000D02*
D03*
X220500Y688750D02*
D03*
X211500D02*
D03*
X229750D02*
D03*
X238750D02*
D03*
D77*
X189750Y647500D02*
D03*
Y638500D02*
D03*
X248500Y647500D02*
D03*
Y638500D02*
D03*
D78*
X181250Y643000D02*
D03*
X198250D02*
D03*
X240000Y643000D02*
D03*
X257000D02*
D03*
D79*
X307500Y659000D02*
D03*
X326500D02*
D03*
X160500Y659750D02*
D03*
X141500D02*
D03*
D80*
X317000Y668000D02*
D03*
Y650000D02*
D03*
X151000Y650750D02*
D03*
Y668750D02*
D03*
D81*
X76570Y435390D02*
D03*
Y460790D02*
D03*
Y486190D02*
D03*
Y511590D02*
D03*
Y536990D02*
D03*
Y562390D02*
D03*
X24570D02*
D03*
Y536990D02*
D03*
Y511590D02*
D03*
Y486190D02*
D03*
Y460790D02*
D03*
Y435390D02*
D03*
X76000Y244890D02*
D03*
Y270290D02*
D03*
Y295690D02*
D03*
Y321090D02*
D03*
Y346490D02*
D03*
Y371890D02*
D03*
Y397290D02*
D03*
X24000D02*
D03*
Y371890D02*
D03*
Y346490D02*
D03*
Y321090D02*
D03*
Y295690D02*
D03*
Y270290D02*
D03*
Y244890D02*
D03*
X476570Y435390D02*
D03*
Y460790D02*
D03*
Y486190D02*
D03*
Y511590D02*
D03*
Y536990D02*
D03*
Y562390D02*
D03*
X424570D02*
D03*
Y536990D02*
D03*
Y511590D02*
D03*
Y486190D02*
D03*
Y460790D02*
D03*
Y435390D02*
D03*
X476500Y244890D02*
D03*
Y270290D02*
D03*
Y295690D02*
D03*
Y321090D02*
D03*
Y346490D02*
D03*
Y371890D02*
D03*
Y397290D02*
D03*
X424500D02*
D03*
Y371890D02*
D03*
Y346490D02*
D03*
Y321090D02*
D03*
Y295690D02*
D03*
Y270290D02*
D03*
Y244890D02*
D03*
D82*
X328000Y205000D02*
D03*
Y165000D02*
D03*
X388000D02*
D03*
Y205000D02*
D03*
X112000D02*
D03*
Y165000D02*
D03*
X172000D02*
D03*
Y205000D02*
D03*
D83*
X278750Y204750D02*
D03*
Y165250D02*
D03*
X221250D02*
D03*
Y204750D02*
D03*
D84*
X164750Y27750D02*
D03*
Y42250D02*
D03*
X173250Y27750D02*
D03*
Y42250D02*
D03*
X138750Y27750D02*
D03*
Y42250D02*
D03*
X147250Y27750D02*
D03*
Y42250D02*
D03*
X112750Y27750D02*
D03*
Y42250D02*
D03*
X121250Y27750D02*
D03*
Y42250D02*
D03*
X414250D02*
D03*
Y27750D02*
D03*
X405750D02*
D03*
Y42250D02*
D03*
X388250D02*
D03*
Y27750D02*
D03*
X379750D02*
D03*
Y42250D02*
D03*
X86750Y27750D02*
D03*
Y42250D02*
D03*
X95250Y27750D02*
D03*
Y42250D02*
D03*
D85*
X250000Y45750D02*
D03*
X243500D02*
D03*
X237000D02*
D03*
X256500D02*
D03*
X263000D02*
D03*
D86*
X250000Y20000D02*
D03*
D87*
X105000Y82250D02*
D03*
Y72750D02*
D03*
X100000D02*
D03*
Y82250D02*
D03*
X160000Y82250D02*
D03*
Y72750D02*
D03*
X155000D02*
D03*
Y82250D02*
D03*
X132500D02*
D03*
Y72750D02*
D03*
X127500D02*
D03*
Y82250D02*
D03*
D88*
X110500Y82250D02*
D03*
Y72750D02*
D03*
X94500Y82250D02*
D03*
Y72750D02*
D03*
X165500Y82250D02*
D03*
Y72750D02*
D03*
X149500Y82250D02*
D03*
Y72750D02*
D03*
X138000Y82250D02*
D03*
Y72750D02*
D03*
X122000Y82250D02*
D03*
Y72750D02*
D03*
D89*
X66077Y715077D02*
D03*
X130423Y779424D02*
D03*
D90*
X434173Y715077D02*
D03*
X369827Y779424D02*
D03*
D91*
X227500Y597500D02*
D03*
Y592000D02*
D03*
X222500Y597500D02*
D03*
Y592000D02*
D03*
X220750Y638250D02*
D03*
Y643750D02*
D03*
X212500Y649250D02*
D03*
Y643750D02*
D03*
X182750Y601500D02*
D03*
Y607000D02*
D03*
X194500D02*
D03*
Y612500D02*
D03*
X255500Y597500D02*
D03*
Y603000D02*
D03*
X250000Y665750D02*
D03*
Y660250D02*
D03*
X244750Y660250D02*
D03*
Y665750D02*
D03*
X190000Y665500D02*
D03*
Y660000D02*
D03*
X246000Y681000D02*
D03*
Y675500D02*
D03*
X261750Y681000D02*
D03*
Y675500D02*
D03*
X188750Y681000D02*
D03*
Y675500D02*
D03*
X204750Y681000D02*
D03*
Y675500D02*
D03*
X197500Y660000D02*
D03*
X197500Y665500D02*
D03*
D92*
X229250Y616001D02*
D03*
X220750D02*
D03*
X229250Y626001D02*
D03*
Y621000D02*
D03*
X220750D02*
D03*
Y626001D02*
D03*
D93*
X215000Y665500D02*
D03*
Y675500D02*
D03*
Y670500D02*
D03*
X229500Y665500D02*
D03*
Y670500D02*
D03*
Y675500D02*
D03*
D94*
X433806Y688806D02*
D03*
X437694Y692695D02*
D03*
D95*
X66945Y689305D02*
D03*
X63056Y693195D02*
D03*
D96*
X95250Y617000D02*
D03*
X124750D02*
D03*
X375250Y617000D02*
D03*
X404750D02*
D03*
D97*
X110000Y632250D02*
D03*
X390000Y632250D02*
D03*
D98*
X131250Y529000D02*
D03*
Y544500D02*
D03*
X150750Y529000D02*
D03*
Y544500D02*
D03*
D99*
X110068Y653318D02*
D03*
X116432Y659682D02*
D03*
X110068Y666046D02*
D03*
X389932Y665432D02*
D03*
X383568Y659068D02*
D03*
X389932Y652704D02*
D03*
D100*
X371000Y500250D02*
D03*
Y484250D02*
D03*
D101*
X309250Y392750D02*
D03*
X284250D02*
D03*
D102*
X475000Y158500D02*
D03*
Y86500D02*
D03*
D103*
X405000Y137000D02*
D03*
Y114000D02*
D03*
X417000Y89000D02*
D03*
D104*
X338000Y493500D02*
D03*
X358000D02*
D03*
D105*
X205000Y563000D02*
D03*
X210000D02*
D03*
X215000D02*
D03*
X220000D02*
D03*
X225000D02*
D03*
X230000D02*
D03*
X235000D02*
D03*
X240000D02*
D03*
X245000D02*
D03*
X250000D02*
D03*
X255000D02*
D03*
X260000D02*
D03*
X265000D02*
D03*
X270000D02*
D03*
X275000D02*
D03*
X280000D02*
D03*
X285000D02*
D03*
X290000D02*
D03*
X295000D02*
D03*
Y457000D02*
D03*
X290000D02*
D03*
X285000D02*
D03*
X280000D02*
D03*
X275000D02*
D03*
X270000D02*
D03*
X265000D02*
D03*
X260000D02*
D03*
X255000D02*
D03*
X250000D02*
D03*
X245000D02*
D03*
X240000D02*
D03*
X235000D02*
D03*
X230000D02*
D03*
X225000D02*
D03*
X220000D02*
D03*
X215000D02*
D03*
X210000D02*
D03*
X205000D02*
D03*
D106*
X303000Y555000D02*
D03*
Y550000D02*
D03*
Y545000D02*
D03*
Y540000D02*
D03*
Y535000D02*
D03*
Y530000D02*
D03*
Y525000D02*
D03*
Y520000D02*
D03*
Y515000D02*
D03*
Y510000D02*
D03*
Y505000D02*
D03*
Y500000D02*
D03*
Y495000D02*
D03*
Y490000D02*
D03*
Y485000D02*
D03*
Y480000D02*
D03*
Y475000D02*
D03*
Y470000D02*
D03*
Y465000D02*
D03*
X197000D02*
D03*
Y470000D02*
D03*
Y475000D02*
D03*
Y480000D02*
D03*
Y485000D02*
D03*
Y490000D02*
D03*
Y495000D02*
D03*
Y500000D02*
D03*
Y505000D02*
D03*
Y510000D02*
D03*
Y515000D02*
D03*
Y520000D02*
D03*
Y525000D02*
D03*
Y530000D02*
D03*
Y535000D02*
D03*
Y540000D02*
D03*
Y545000D02*
D03*
Y550000D02*
D03*
Y555000D02*
D03*
D107*
X197500Y569250D02*
D03*
X202500D02*
D03*
X207500D02*
D03*
X212500D02*
D03*
X217500D02*
D03*
X222500D02*
D03*
X227500D02*
D03*
X232500D02*
D03*
X237500D02*
D03*
X242500D02*
D03*
X247500D02*
D03*
X252500D02*
D03*
X257500D02*
D03*
X262500D02*
D03*
X267500D02*
D03*
X272500D02*
D03*
X277500D02*
D03*
X282500D02*
D03*
X287500D02*
D03*
X292500D02*
D03*
X297500D02*
D03*
X302500D02*
D03*
Y450750D02*
D03*
X297500D02*
D03*
X292500D02*
D03*
X287500D02*
D03*
X282500D02*
D03*
X277500D02*
D03*
X272500D02*
D03*
X267500D02*
D03*
X262500D02*
D03*
X257500D02*
D03*
X252500D02*
D03*
X247500D02*
D03*
X242500D02*
D03*
X237500D02*
D03*
X232500D02*
D03*
X227500D02*
D03*
X222500D02*
D03*
X217500D02*
D03*
X212500D02*
D03*
X207500D02*
D03*
X202500D02*
D03*
X197500D02*
D03*
D108*
X309250Y562500D02*
D03*
Y557500D02*
D03*
Y552500D02*
D03*
Y547500D02*
D03*
Y542500D02*
D03*
Y537500D02*
D03*
Y532500D02*
D03*
Y527500D02*
D03*
Y522500D02*
D03*
Y517500D02*
D03*
Y512500D02*
D03*
Y507500D02*
D03*
Y502500D02*
D03*
Y497500D02*
D03*
Y492500D02*
D03*
Y487500D02*
D03*
Y482500D02*
D03*
Y477500D02*
D03*
Y472500D02*
D03*
Y467500D02*
D03*
Y462500D02*
D03*
Y457500D02*
D03*
X190750D02*
D03*
Y462500D02*
D03*
Y467500D02*
D03*
Y472500D02*
D03*
Y477500D02*
D03*
Y482500D02*
D03*
Y487500D02*
D03*
Y492500D02*
D03*
Y497500D02*
D03*
Y502500D02*
D03*
Y507500D02*
D03*
Y512500D02*
D03*
Y517500D02*
D03*
Y522500D02*
D03*
Y527500D02*
D03*
Y532500D02*
D03*
Y537500D02*
D03*
Y542500D02*
D03*
Y547500D02*
D03*
Y552500D02*
D03*
Y557500D02*
D03*
Y562500D02*
D03*
D109*
X460000Y196250D02*
D03*
D110*
X63208Y92744D02*
D03*
X63208Y130844D02*
D03*
X63208Y168944D02*
D03*
X63208Y207044D02*
D03*
D111*
X37808Y92744D02*
D03*
X37808Y130844D02*
D03*
X37808Y168944D02*
D03*
X37808Y207044D02*
D03*
D112*
X50570Y448090D02*
D03*
Y549690D02*
D03*
X50000Y257590D02*
D03*
Y384590D02*
D03*
X450570Y448090D02*
D03*
Y549690D02*
D03*
X450500Y257590D02*
D03*
Y384590D02*
D03*
D113*
X274250Y46500D02*
D03*
X225750D02*
D03*
D114*
X213750Y20000D02*
D03*
X286250D02*
D03*
D115*
X40000Y40000D02*
D03*
X460000D02*
D03*
X40000Y620000D02*
D03*
X460000D02*
D03*
D116*
X435000Y117000D02*
D03*
X475000D02*
D03*
M02*
