G04*
G04 #@! TF.GenerationSoftware,Altium Limited,Altium Designer,21.2.2 (38)*
G04*
G04 Layer_Color=8388736*
%FSLAX44Y44*%
%MOMM*%
G71*
G04*
G04 #@! TF.SameCoordinates,7819C684-4886-4163-8357-BFC2EAAA6F51*
G04*
G04*
G04 #@! TF.FilePolarity,Positive*
G04*
G01*
G75*
%ADD11C,0.1500*%
%ADD16C,0.2000*%
G36*
X241768Y388362D02*
X241983Y388344D01*
X242199Y388317D01*
X242397Y388290D01*
X242586Y388245D01*
X242766Y388200D01*
X242927Y388155D01*
X243080Y388101D01*
X243215Y388047D01*
X243341Y388002D01*
X243440Y387957D01*
X243530Y387912D01*
X243602Y387886D01*
X243647Y387859D01*
X243683Y387840D01*
X243692Y387831D01*
Y386780D01*
X243521Y386896D01*
X243359Y387004D01*
X243188Y387094D01*
X243026Y387166D01*
X242864Y387238D01*
X242703Y387292D01*
X242559Y387337D01*
X242415Y387373D01*
X242289Y387400D01*
X242172Y387418D01*
X242064Y387436D01*
X241974Y387445D01*
X241902Y387454D01*
X241642D01*
X241489Y387436D01*
X241345Y387418D01*
X241219Y387382D01*
X241093Y387346D01*
X240976Y387310D01*
X240769Y387202D01*
X240599Y387085D01*
X240455Y386941D01*
X240338Y386797D01*
X240248Y386654D01*
X240176Y386501D01*
X240113Y386357D01*
X240077Y386222D01*
X240050Y386096D01*
X240032Y385997D01*
X240023Y385916D01*
Y385862D01*
Y385853D01*
Y385844D01*
X240032Y385682D01*
X240050Y385539D01*
X240077Y385395D01*
X240122Y385269D01*
X240176Y385152D01*
X240239Y385035D01*
X240392Y384837D01*
X240563Y384666D01*
X240760Y384523D01*
X240976Y384415D01*
X241192Y384316D01*
X241408Y384244D01*
X241624Y384190D01*
X241821Y384154D01*
X241992Y384127D01*
X242145Y384109D01*
X242208D01*
X242262Y384100D01*
X243107D01*
Y383183D01*
X242325D01*
X242082Y383174D01*
X241857Y383165D01*
X241651Y383138D01*
X241453Y383102D01*
X241273Y383066D01*
X241102Y383012D01*
X240940Y382958D01*
X240796Y382895D01*
X240662Y382823D01*
X240545Y382751D01*
X240428Y382679D01*
X240329Y382598D01*
X240239Y382518D01*
X240149Y382428D01*
X240014Y382257D01*
X239906Y382086D01*
X239816Y381915D01*
X239762Y381762D01*
X239726Y381618D01*
X239699Y381501D01*
X239690Y381412D01*
X239681Y381376D01*
Y381349D01*
Y381340D01*
Y381331D01*
X239690Y381178D01*
X239708Y381034D01*
X239735Y380899D01*
X239762Y380791D01*
X239789Y380701D01*
X239816Y380629D01*
X239834Y380584D01*
X239843Y380566D01*
X239906Y380449D01*
X239978Y380332D01*
X240050Y380243D01*
X240122Y380153D01*
X240185Y380090D01*
X240239Y380036D01*
X240275Y380000D01*
X240284Y379991D01*
X240392Y379910D01*
X240509Y379838D01*
X240626Y379775D01*
X240734Y379721D01*
X240823Y379685D01*
X240895Y379658D01*
X240949Y379640D01*
X240958Y379631D01*
X240967D01*
X241120Y379586D01*
X241273Y379559D01*
X241426Y379532D01*
X241561Y379523D01*
X241678Y379514D01*
X241777Y379505D01*
X241857D01*
X242082Y379514D01*
X242307Y379541D01*
X242523Y379577D01*
X242721Y379622D01*
X242918Y379685D01*
X243098Y379748D01*
X243269Y379811D01*
X243422Y379883D01*
X243557Y379955D01*
X243683Y380018D01*
X243791Y380090D01*
X243881Y380144D01*
X243953Y380189D01*
X244006Y380225D01*
X244042Y380252D01*
X244051Y380261D01*
Y379092D01*
X243899Y379002D01*
X243728Y378930D01*
X243557Y378858D01*
X243377Y378804D01*
X243017Y378714D01*
X242847Y378678D01*
X242676Y378651D01*
X242514Y378633D01*
X242370Y378615D01*
X242235Y378606D01*
X242127Y378597D01*
X242028Y378588D01*
X241902D01*
X241633Y378597D01*
X241381Y378615D01*
X241147Y378651D01*
X240949Y378687D01*
X240859Y378705D01*
X240787Y378723D01*
X240716Y378741D01*
X240662Y378759D01*
X240617Y378768D01*
X240581Y378777D01*
X240563Y378786D01*
X240554D01*
X240329Y378867D01*
X240122Y378966D01*
X239942Y379056D01*
X239789Y379155D01*
X239664Y379235D01*
X239574Y379299D01*
X239538Y379325D01*
X239511Y379343D01*
X239502Y379361D01*
X239493D01*
X239340Y379505D01*
X239205Y379658D01*
X239088Y379811D01*
X238989Y379955D01*
X238917Y380072D01*
X238863Y380171D01*
X238845Y380207D01*
X238827Y380234D01*
X238818Y380252D01*
Y380261D01*
X238737Y380458D01*
X238674Y380665D01*
X238638Y380863D01*
X238603Y381043D01*
X238584Y381196D01*
Y381268D01*
X238575Y381322D01*
Y381367D01*
Y381403D01*
Y381421D01*
Y381429D01*
X238584Y381600D01*
X238603Y381762D01*
X238629Y381915D01*
X238656Y382041D01*
X238692Y382149D01*
X238719Y382221D01*
X238737Y382275D01*
X238746Y382293D01*
X238809Y382436D01*
X238890Y382562D01*
X238962Y382679D01*
X239034Y382787D01*
X239106Y382868D01*
X239160Y382922D01*
X239196Y382967D01*
X239205Y382976D01*
X239322Y383084D01*
X239439Y383174D01*
X239556Y383255D01*
X239673Y383327D01*
X239771Y383381D01*
X239843Y383417D01*
X239897Y383444D01*
X239906Y383453D01*
X239915D01*
X240068Y383516D01*
X240221Y383569D01*
X240374Y383605D01*
X240509Y383641D01*
X240635Y383659D01*
X240725Y383677D01*
X240760D01*
X240787Y383686D01*
X240805D01*
Y383713D01*
X240635Y383767D01*
X240473Y383830D01*
X240320Y383893D01*
X240185Y383965D01*
X240050Y384046D01*
X239933Y384136D01*
X239816Y384217D01*
X239717Y384316D01*
X239529Y384505D01*
X239376Y384702D01*
X239250Y384909D01*
X239151Y385116D01*
X239079Y385305D01*
X239016Y385494D01*
X238971Y385664D01*
X238944Y385817D01*
X238926Y385934D01*
X238917Y386033D01*
Y386069D01*
Y386096D01*
Y386105D01*
Y386114D01*
X238926Y386294D01*
X238944Y386474D01*
X238980Y386627D01*
X239007Y386762D01*
X239043Y386878D01*
X239079Y386959D01*
X239097Y387013D01*
X239106Y387031D01*
X239187Y387184D01*
X239268Y387319D01*
X239358Y387436D01*
X239439Y387544D01*
X239520Y387625D01*
X239583Y387688D01*
X239618Y387733D01*
X239636Y387742D01*
X239771Y387850D01*
X239906Y387948D01*
X240050Y388020D01*
X240176Y388092D01*
X240293Y388146D01*
X240383Y388182D01*
X240419Y388191D01*
X240446Y388200D01*
X240455Y388209D01*
X240464D01*
X240644Y388263D01*
X240832Y388299D01*
X241012Y388335D01*
X241174Y388353D01*
X241318Y388362D01*
X241381D01*
X241435Y388371D01*
X241534D01*
X241768Y388362D01*
D02*
G37*
G36*
X256253D02*
X256523Y388335D01*
X256756Y388299D01*
X256864Y388272D01*
X256954Y388254D01*
X257044Y388236D01*
X257116Y388209D01*
X257188Y388191D01*
X257242Y388173D01*
X257287Y388155D01*
X257314Y388146D01*
X257332Y388137D01*
X257341D01*
X257548Y388038D01*
X257737Y387930D01*
X257907Y387822D01*
X258060Y387715D01*
X258186Y387616D01*
X258276Y387535D01*
X258312Y387508D01*
X258339Y387481D01*
X258348Y387472D01*
X258357Y387463D01*
Y386303D01*
X258186Y386483D01*
X258105Y386555D01*
X258024Y386627D01*
X257961Y386681D01*
X257907Y386726D01*
X257871Y386753D01*
X257862Y386762D01*
X257665Y386914D01*
X257566Y386977D01*
X257485Y387031D01*
X257413Y387067D01*
X257350Y387103D01*
X257314Y387121D01*
X257305Y387130D01*
X257089Y387229D01*
X256990Y387274D01*
X256900Y387301D01*
X256828Y387328D01*
X256775Y387346D01*
X256730Y387364D01*
X256721D01*
X256496Y387418D01*
X256388Y387436D01*
X256289Y387445D01*
X256208Y387454D01*
X255956D01*
X255830Y387436D01*
X255714Y387418D01*
X255615Y387400D01*
X255525Y387382D01*
X255462Y387364D01*
X255426Y387355D01*
X255408Y387346D01*
X255291Y387301D01*
X255192Y387256D01*
X255093Y387202D01*
X255012Y387148D01*
X254949Y387103D01*
X254904Y387067D01*
X254868Y387040D01*
X254859Y387031D01*
X254778Y386950D01*
X254706Y386860D01*
X254643Y386771D01*
X254590Y386681D01*
X254545Y386609D01*
X254518Y386546D01*
X254500Y386510D01*
X254491Y386492D01*
X254446Y386366D01*
X254410Y386240D01*
X254392Y386105D01*
X254374Y385988D01*
X254365Y385880D01*
X254356Y385799D01*
Y385746D01*
Y385737D01*
Y385728D01*
Y385584D01*
X254374Y385449D01*
X254383Y385323D01*
X254401Y385215D01*
X254419Y385125D01*
X254428Y385053D01*
X254446Y385008D01*
Y384990D01*
X254482Y384864D01*
X254527Y384738D01*
X254572Y384622D01*
X254625Y384523D01*
X254671Y384433D01*
X254706Y384370D01*
X254733Y384325D01*
X254742Y384307D01*
X254823Y384181D01*
X254913Y384064D01*
X255012Y383947D01*
X255102Y383848D01*
X255174Y383758D01*
X255246Y383695D01*
X255282Y383650D01*
X255300Y383632D01*
X255435Y383507D01*
X255579Y383381D01*
X255723Y383264D01*
X255857Y383156D01*
X255983Y383066D01*
X256073Y382994D01*
X256109Y382967D01*
X256136Y382949D01*
X256154Y382940D01*
X256163Y382931D01*
X256415Y382742D01*
X256649Y382562D01*
X256855Y382410D01*
X257035Y382266D01*
X257107Y382212D01*
X257170Y382158D01*
X257233Y382104D01*
X257278Y382068D01*
X257314Y382041D01*
X257341Y382014D01*
X257359Y382005D01*
X257368Y381996D01*
X257548Y381843D01*
X257701Y381690D01*
X257836Y381546D01*
X257952Y381421D01*
X258042Y381313D01*
X258114Y381232D01*
X258150Y381178D01*
X258168Y381169D01*
Y381160D01*
X258276Y381007D01*
X258357Y380845D01*
X258438Y380701D01*
X258492Y380566D01*
X258537Y380449D01*
X258573Y380359D01*
X258582Y380323D01*
X258591Y380297D01*
X258600Y380288D01*
Y380279D01*
X258645Y380099D01*
X258672Y379919D01*
X258699Y379739D01*
X258708Y379577D01*
X258717Y379433D01*
X258726Y379370D01*
Y379316D01*
Y379281D01*
Y379244D01*
Y379226D01*
Y379218D01*
Y378750D01*
X252890D01*
Y379712D01*
X257602D01*
X257593Y379856D01*
X257584Y379982D01*
X257566Y380099D01*
X257548Y380198D01*
X257530Y380279D01*
X257521Y380332D01*
X257503Y380378D01*
Y380387D01*
X257458Y380494D01*
X257404Y380602D01*
X257341Y380701D01*
X257278Y380791D01*
X257224Y380872D01*
X257188Y380926D01*
X257152Y380971D01*
X257143Y380980D01*
X257044Y381097D01*
X256927Y381205D01*
X256819Y381313D01*
X256703Y381403D01*
X256613Y381492D01*
X256532Y381555D01*
X256478Y381591D01*
X256469Y381609D01*
X256460D01*
X256289Y381744D01*
X256100Y381879D01*
X255920Y382023D01*
X255741Y382149D01*
X255588Y382257D01*
X255525Y382311D01*
X255462Y382347D01*
X255417Y382383D01*
X255381Y382410D01*
X255363Y382419D01*
X255354Y382428D01*
X255165Y382571D01*
X254985Y382706D01*
X254823Y382832D01*
X254688Y382940D01*
X254580Y383039D01*
X254500Y383111D01*
X254446Y383156D01*
X254428Y383174D01*
X254284Y383309D01*
X254158Y383453D01*
X254050Y383578D01*
X253951Y383695D01*
X253870Y383803D01*
X253816Y383875D01*
X253780Y383929D01*
X253771Y383947D01*
X253681Y384100D01*
X253601Y384253D01*
X253538Y384397D01*
X253484Y384523D01*
X253439Y384640D01*
X253412Y384729D01*
X253394Y384756D01*
Y384783D01*
X253385Y384792D01*
Y384801D01*
X253340Y384981D01*
X253304Y385152D01*
X253286Y385332D01*
X253268Y385485D01*
X253259Y385620D01*
X253250Y385682D01*
Y385728D01*
Y385772D01*
Y385799D01*
Y385817D01*
Y385826D01*
X253259Y386051D01*
X253286Y386258D01*
X253313Y386438D01*
X253349Y386600D01*
X253394Y386735D01*
X253412Y386788D01*
X253421Y386833D01*
X253439Y386869D01*
X253448Y386896D01*
X253457Y386905D01*
Y386914D01*
X253538Y387085D01*
X253636Y387238D01*
X253726Y387373D01*
X253825Y387490D01*
X253906Y387589D01*
X253969Y387661D01*
X254014Y387697D01*
X254032Y387715D01*
X254176Y387831D01*
X254320Y387930D01*
X254464Y388011D01*
X254590Y388083D01*
X254706Y388128D01*
X254805Y388173D01*
X254841Y388182D01*
X254868Y388191D01*
X254877Y388200D01*
X254886D01*
X255075Y388254D01*
X255264Y388299D01*
X255444Y388326D01*
X255615Y388353D01*
X255758Y388362D01*
X255812D01*
X255866Y388371D01*
X255965D01*
X256253Y388362D01*
D02*
G37*
G36*
X234376D02*
X234646Y388335D01*
X234880Y388299D01*
X234988Y388272D01*
X235078Y388254D01*
X235168Y388236D01*
X235240Y388209D01*
X235312Y388191D01*
X235366Y388173D01*
X235410Y388155D01*
X235437Y388146D01*
X235455Y388137D01*
X235464D01*
X235671Y388038D01*
X235860Y387930D01*
X236031Y387822D01*
X236184Y387715D01*
X236310Y387616D01*
X236399Y387535D01*
X236436Y387508D01*
X236462Y387481D01*
X236472Y387472D01*
X236481Y387463D01*
Y386303D01*
X236310Y386483D01*
X236229Y386555D01*
X236148Y386627D01*
X236085Y386681D01*
X236031Y386726D01*
X235995Y386753D01*
X235986Y386762D01*
X235788Y386914D01*
X235689Y386977D01*
X235608Y387031D01*
X235536Y387067D01*
X235473Y387103D01*
X235437Y387121D01*
X235428Y387130D01*
X235213Y387229D01*
X235114Y387274D01*
X235024Y387301D01*
X234952Y387328D01*
X234898Y387346D01*
X234853Y387364D01*
X234844D01*
X234619Y387418D01*
X234511Y387436D01*
X234412Y387445D01*
X234331Y387454D01*
X234080D01*
X233954Y387436D01*
X233837Y387418D01*
X233738Y387400D01*
X233648Y387382D01*
X233585Y387364D01*
X233549Y387355D01*
X233531Y387346D01*
X233414Y387301D01*
X233315Y387256D01*
X233216Y387202D01*
X233136Y387148D01*
X233073Y387103D01*
X233028Y387067D01*
X232992Y387040D01*
X232983Y387031D01*
X232902Y386950D01*
X232830Y386860D01*
X232767Y386771D01*
X232713Y386681D01*
X232668Y386609D01*
X232641Y386546D01*
X232623Y386510D01*
X232614Y386492D01*
X232569Y386366D01*
X232533Y386240D01*
X232515Y386105D01*
X232497Y385988D01*
X232488Y385880D01*
X232479Y385799D01*
Y385746D01*
Y385737D01*
Y385728D01*
Y385584D01*
X232497Y385449D01*
X232506Y385323D01*
X232524Y385215D01*
X232542Y385125D01*
X232551Y385053D01*
X232569Y385008D01*
Y384990D01*
X232605Y384864D01*
X232650Y384738D01*
X232695Y384622D01*
X232749Y384523D01*
X232794Y384433D01*
X232830Y384370D01*
X232857Y384325D01*
X232866Y384307D01*
X232947Y384181D01*
X233037Y384064D01*
X233136Y383947D01*
X233225Y383848D01*
X233297Y383758D01*
X233369Y383695D01*
X233405Y383650D01*
X233423Y383632D01*
X233558Y383507D01*
X233702Y383381D01*
X233846Y383264D01*
X233981Y383156D01*
X234107Y383066D01*
X234197Y382994D01*
X234233Y382967D01*
X234259Y382949D01*
X234277Y382940D01*
X234286Y382931D01*
X234538Y382742D01*
X234772Y382562D01*
X234979Y382410D01*
X235159Y382266D01*
X235231Y382212D01*
X235294Y382158D01*
X235357Y382104D01*
X235401Y382068D01*
X235437Y382041D01*
X235464Y382014D01*
X235482Y382005D01*
X235491Y381996D01*
X235671Y381843D01*
X235824Y381690D01*
X235959Y381546D01*
X236076Y381421D01*
X236166Y381313D01*
X236238Y381232D01*
X236274Y381178D01*
X236292Y381169D01*
Y381160D01*
X236399Y381007D01*
X236481Y380845D01*
X236561Y380701D01*
X236615Y380566D01*
X236660Y380449D01*
X236696Y380359D01*
X236705Y380323D01*
X236714Y380297D01*
X236723Y380288D01*
Y380279D01*
X236768Y380099D01*
X236795Y379919D01*
X236822Y379739D01*
X236831Y379577D01*
X236840Y379433D01*
X236849Y379370D01*
Y379316D01*
Y379281D01*
Y379244D01*
Y379226D01*
Y379218D01*
Y378750D01*
X231014D01*
Y379712D01*
X235725D01*
X235716Y379856D01*
X235707Y379982D01*
X235689Y380099D01*
X235671Y380198D01*
X235653Y380279D01*
X235644Y380332D01*
X235626Y380378D01*
Y380387D01*
X235581Y380494D01*
X235527Y380602D01*
X235464Y380701D01*
X235401Y380791D01*
X235347Y380872D01*
X235312Y380926D01*
X235276Y380971D01*
X235267Y380980D01*
X235168Y381097D01*
X235051Y381205D01*
X234943Y381313D01*
X234826Y381403D01*
X234736Y381492D01*
X234655Y381555D01*
X234601Y381591D01*
X234592Y381609D01*
X234583D01*
X234412Y381744D01*
X234224Y381879D01*
X234044Y382023D01*
X233864Y382149D01*
X233711Y382257D01*
X233648Y382311D01*
X233585Y382347D01*
X233540Y382383D01*
X233504Y382410D01*
X233486Y382419D01*
X233477Y382428D01*
X233288Y382571D01*
X233109Y382706D01*
X232947Y382832D01*
X232812Y382940D01*
X232704Y383039D01*
X232623Y383111D01*
X232569Y383156D01*
X232551Y383174D01*
X232407Y383309D01*
X232281Y383453D01*
X232174Y383578D01*
X232075Y383695D01*
X231994Y383803D01*
X231940Y383875D01*
X231904Y383929D01*
X231895Y383947D01*
X231805Y384100D01*
X231724Y384253D01*
X231661Y384397D01*
X231607Y384523D01*
X231562Y384640D01*
X231535Y384729D01*
X231517Y384756D01*
Y384783D01*
X231508Y384792D01*
Y384801D01*
X231463Y384981D01*
X231427Y385152D01*
X231409Y385332D01*
X231391Y385485D01*
X231382Y385620D01*
X231373Y385682D01*
Y385728D01*
Y385772D01*
Y385799D01*
Y385817D01*
Y385826D01*
X231382Y386051D01*
X231409Y386258D01*
X231436Y386438D01*
X231472Y386600D01*
X231517Y386735D01*
X231535Y386788D01*
X231544Y386833D01*
X231562Y386869D01*
X231571Y386896D01*
X231580Y386905D01*
Y386914D01*
X231661Y387085D01*
X231760Y387238D01*
X231850Y387373D01*
X231949Y387490D01*
X232030Y387589D01*
X232093Y387661D01*
X232138Y387697D01*
X232155Y387715D01*
X232299Y387831D01*
X232443Y387930D01*
X232587Y388011D01*
X232713Y388083D01*
X232830Y388128D01*
X232929Y388173D01*
X232965Y388182D01*
X232992Y388191D01*
X233001Y388200D01*
X233010D01*
X233199Y388254D01*
X233387Y388299D01*
X233567Y388326D01*
X233738Y388353D01*
X233882Y388362D01*
X233936D01*
X233990Y388371D01*
X234089D01*
X234376Y388362D01*
D02*
G37*
G36*
X270846Y388353D02*
X271206Y388308D01*
X271557Y388245D01*
X271880Y388155D01*
X272195Y388047D01*
X272474Y387930D01*
X272735Y387804D01*
X272977Y387670D01*
X273193Y387535D01*
X273382Y387409D01*
X273544Y387292D01*
X273679Y387184D01*
X273778Y387094D01*
X273859Y387031D01*
X273904Y386986D01*
X273922Y386968D01*
X274164Y386699D01*
X274371Y386411D01*
X274551Y386114D01*
X274713Y385808D01*
X274848Y385503D01*
X274956Y385197D01*
X275045Y384900D01*
X275117Y384613D01*
X275171Y384343D01*
X275216Y384091D01*
X275243Y383866D01*
X275270Y383677D01*
Y383596D01*
X275279Y383516D01*
Y383453D01*
X275288Y383399D01*
Y383354D01*
Y383327D01*
Y383309D01*
Y383300D01*
X275270Y382913D01*
X275234Y382544D01*
X275180Y382203D01*
X275099Y381879D01*
X275009Y381573D01*
X274902Y381295D01*
X274794Y381034D01*
X274677Y380800D01*
X274569Y380593D01*
X274461Y380413D01*
X274353Y380261D01*
X274263Y380126D01*
X274182Y380027D01*
X274128Y379955D01*
X274083Y379910D01*
X274074Y379892D01*
X273841Y379667D01*
X273589Y379469D01*
X273328Y379290D01*
X273058Y379146D01*
X272789Y379020D01*
X272519Y378912D01*
X272249Y378831D01*
X271997Y378759D01*
X271763Y378705D01*
X271539Y378669D01*
X271341Y378633D01*
X271170Y378615D01*
X271035Y378606D01*
X270972D01*
X270927Y378597D01*
X270837D01*
X270550Y378606D01*
X270280Y378624D01*
X270019Y378651D01*
X269767Y378687D01*
X269543Y378723D01*
X269327Y378768D01*
X269129Y378822D01*
X268949Y378876D01*
X268787Y378921D01*
X268643Y378975D01*
X268517Y379020D01*
X268419Y379065D01*
X268338Y379092D01*
X268275Y379119D01*
X268239Y379137D01*
X268230Y379146D01*
Y380216D01*
X268428Y380108D01*
X268634Y380009D01*
X268841Y379928D01*
X269057Y379856D01*
X269264Y379793D01*
X269471Y379739D01*
X269668Y379694D01*
X269848Y379667D01*
X270028Y379640D01*
X270190Y379622D01*
X270334Y379604D01*
X270451Y379595D01*
X270559Y379586D01*
X270693D01*
X270972Y379595D01*
X271242Y379631D01*
X271494Y379685D01*
X271728Y379748D01*
X271952Y379820D01*
X272159Y379910D01*
X272348Y380000D01*
X272519Y380099D01*
X272672Y380198D01*
X272798Y380288D01*
X272914Y380378D01*
X273013Y380449D01*
X273085Y380521D01*
X273139Y380566D01*
X273175Y380602D01*
X273184Y380611D01*
X273346Y380809D01*
X273499Y381025D01*
X273625Y381250D01*
X273733Y381474D01*
X273823Y381708D01*
X273895Y381933D01*
X273957Y382158D01*
X274011Y382374D01*
X274047Y382580D01*
X274074Y382769D01*
X274101Y382940D01*
X274110Y383084D01*
X274119Y383201D01*
X274128Y383300D01*
Y383327D01*
Y383354D01*
Y383363D01*
Y383372D01*
X274119Y383704D01*
X274083Y384019D01*
X274038Y384316D01*
X273966Y384594D01*
X273895Y384846D01*
X273814Y385089D01*
X273715Y385305D01*
X273625Y385503D01*
X273535Y385682D01*
X273436Y385835D01*
X273355Y385970D01*
X273274Y386078D01*
X273211Y386168D01*
X273166Y386222D01*
X273130Y386267D01*
X273121Y386276D01*
X272923Y386474D01*
X272717Y386636D01*
X272501Y386788D01*
X272276Y386914D01*
X272051Y387013D01*
X271835Y387103D01*
X271620Y387175D01*
X271413Y387238D01*
X271215Y387283D01*
X271044Y387319D01*
X270882Y387337D01*
X270738Y387355D01*
X270630Y387364D01*
X270541Y387373D01*
X270469D01*
X270244Y387364D01*
X270019Y387346D01*
X269803Y387319D01*
X269606Y387283D01*
X269408Y387238D01*
X269219Y387193D01*
X269048Y387139D01*
X268886Y387085D01*
X268742Y387031D01*
X268616Y386977D01*
X268500Y386932D01*
X268410Y386887D01*
X268329Y386851D01*
X268275Y386824D01*
X268239Y386806D01*
X268230Y386797D01*
Y387984D01*
X268401Y388056D01*
X268580Y388110D01*
X268949Y388209D01*
X269327Y388281D01*
X269507Y388299D01*
X269677Y388326D01*
X269839Y388335D01*
X269983Y388353D01*
X270118Y388362D01*
X270235D01*
X270325Y388371D01*
X270460D01*
X270846Y388353D01*
D02*
G37*
G36*
X266297Y378750D02*
X265191D01*
Y382769D01*
X264166D01*
X264067Y382760D01*
X263968Y382751D01*
X263887Y382733D01*
X263815Y382724D01*
X263770Y382706D01*
X263734Y382697D01*
X263725D01*
X263635Y382670D01*
X263545Y382625D01*
X263464Y382589D01*
X263392Y382553D01*
X263338Y382509D01*
X263293Y382481D01*
X263266Y382463D01*
X263257Y382454D01*
X263176Y382392D01*
X263105Y382320D01*
X263033Y382248D01*
X262970Y382185D01*
X262916Y382122D01*
X262880Y382077D01*
X262853Y382041D01*
X262844Y382032D01*
X262763Y381933D01*
X262691Y381825D01*
X262619Y381717D01*
X262556Y381618D01*
X262502Y381537D01*
X262457Y381465D01*
X262430Y381421D01*
X262421Y381403D01*
X260830Y378750D01*
X259508D01*
X261288Y381591D01*
X261360Y381708D01*
X261423Y381807D01*
X261486Y381906D01*
X261531Y381987D01*
X261576Y382050D01*
X261612Y382095D01*
X261630Y382131D01*
X261639Y382140D01*
X261756Y382302D01*
X261810Y382374D01*
X261855Y382436D01*
X261891Y382481D01*
X261927Y382527D01*
X261945Y382544D01*
X261954Y382553D01*
X262071Y382688D01*
X262178Y382787D01*
X262223Y382823D01*
X262259Y382850D01*
X262277Y382868D01*
X262286Y382877D01*
X262421Y382976D01*
X262556Y383048D01*
X262610Y383075D01*
X262655Y383102D01*
X262682Y383111D01*
X262691Y383120D01*
Y383147D01*
X262520Y383201D01*
X262358Y383255D01*
X262205Y383318D01*
X262080Y383372D01*
X261972Y383417D01*
X261900Y383462D01*
X261846Y383489D01*
X261828Y383498D01*
X261684Y383587D01*
X261558Y383677D01*
X261450Y383767D01*
X261351Y383857D01*
X261279Y383929D01*
X261216Y383992D01*
X261180Y384028D01*
X261171Y384046D01*
X261073Y384172D01*
X260992Y384298D01*
X260911Y384424D01*
X260857Y384541D01*
X260812Y384640D01*
X260776Y384711D01*
X260758Y384765D01*
X260749Y384783D01*
X260695Y384945D01*
X260659Y385098D01*
X260632Y385251D01*
X260614Y385395D01*
X260605Y385512D01*
X260596Y385611D01*
Y385647D01*
Y385673D01*
Y385682D01*
Y385691D01*
X260605Y385925D01*
X260632Y386132D01*
X260668Y386321D01*
X260704Y386483D01*
X260740Y386618D01*
X260758Y386672D01*
X260776Y386716D01*
X260794Y386753D01*
X260803Y386780D01*
X260812Y386788D01*
Y386797D01*
X260902Y386968D01*
X261000Y387121D01*
X261099Y387256D01*
X261189Y387373D01*
X261279Y387463D01*
X261351Y387535D01*
X261396Y387571D01*
X261405Y387589D01*
X261414D01*
X261567Y387697D01*
X261720Y387795D01*
X261873Y387877D01*
X262017Y387939D01*
X262143Y387993D01*
X262241Y388029D01*
X262277Y388038D01*
X262304Y388047D01*
X262322Y388056D01*
X262331D01*
X262529Y388110D01*
X262727Y388146D01*
X262925Y388182D01*
X263096Y388200D01*
X263248Y388209D01*
X263311D01*
X263365Y388218D01*
X266297D01*
Y378750D01*
D02*
G37*
G36*
X248682Y388353D02*
X248943Y388317D01*
X249177Y388272D01*
X249284Y388236D01*
X249374Y388209D01*
X249464Y388182D01*
X249545Y388146D01*
X249608Y388119D01*
X249662Y388101D01*
X249707Y388074D01*
X249743Y388065D01*
X249761Y388047D01*
X249770D01*
X249986Y387912D01*
X250175Y387760D01*
X250345Y387598D01*
X250489Y387445D01*
X250606Y387301D01*
X250660Y387238D01*
X250696Y387184D01*
X250723Y387139D01*
X250750Y387103D01*
X250759Y387085D01*
X250768Y387076D01*
X250912Y386824D01*
X251038Y386555D01*
X251137Y386285D01*
X251227Y386033D01*
X251263Y385916D01*
X251290Y385808D01*
X251317Y385718D01*
X251344Y385638D01*
X251362Y385566D01*
X251371Y385521D01*
X251380Y385485D01*
Y385476D01*
X251451Y385107D01*
X251496Y384738D01*
X251532Y384370D01*
X251550Y384199D01*
X251559Y384028D01*
X251568Y383875D01*
X251577Y383731D01*
Y383605D01*
X251586Y383498D01*
Y383408D01*
Y383345D01*
Y383309D01*
Y383291D01*
X251577Y382877D01*
X251568Y382688D01*
X251559Y382500D01*
X251541Y382320D01*
X251523Y382158D01*
X251505Y382005D01*
X251487Y381861D01*
X251469Y381735D01*
X251451Y381618D01*
X251434Y381519D01*
X251416Y381438D01*
X251406Y381376D01*
X251397Y381322D01*
X251388Y381295D01*
Y381286D01*
X251308Y380971D01*
X251218Y380683D01*
X251164Y380557D01*
X251119Y380440D01*
X251074Y380323D01*
X251029Y380225D01*
X250984Y380126D01*
X250939Y380045D01*
X250903Y379982D01*
X250876Y379919D01*
X250849Y379874D01*
X250831Y379838D01*
X250813Y379820D01*
Y379811D01*
X250660Y379595D01*
X250498Y379415D01*
X250345Y379254D01*
X250193Y379128D01*
X250067Y379029D01*
X249959Y378957D01*
X249923Y378930D01*
X249896Y378912D01*
X249878Y378894D01*
X249869D01*
X249653Y378795D01*
X249437Y378714D01*
X249221Y378660D01*
X249024Y378624D01*
X248934Y378615D01*
X248853Y378606D01*
X248781Y378597D01*
X248718D01*
X248673Y378588D01*
X248601D01*
X248322Y378606D01*
X248071Y378642D01*
X247846Y378687D01*
X247639Y378750D01*
X247558Y378777D01*
X247477Y378813D01*
X247414Y378840D01*
X247360Y378858D01*
X247315Y378885D01*
X247279Y378894D01*
X247261Y378912D01*
X247252D01*
X247037Y379047D01*
X246848Y379200D01*
X246677Y379352D01*
X246533Y379514D01*
X246416Y379649D01*
X246362Y379712D01*
X246326Y379766D01*
X246299Y379802D01*
X246272Y379838D01*
X246254Y379856D01*
Y379865D01*
X246110Y380117D01*
X245985Y380368D01*
X245877Y380629D01*
X245796Y380872D01*
X245751Y380989D01*
X245724Y381088D01*
X245697Y381178D01*
X245670Y381259D01*
X245652Y381322D01*
X245643Y381376D01*
X245634Y381403D01*
Y381412D01*
X245562Y381762D01*
X245508Y382131D01*
X245472Y382481D01*
X245454Y382652D01*
X245445Y382805D01*
X245436Y382958D01*
X245427Y383093D01*
Y383210D01*
X245418Y383318D01*
Y383399D01*
Y383462D01*
Y383507D01*
Y383516D01*
X245427Y383956D01*
X245454Y384370D01*
X245490Y384756D01*
X245544Y385116D01*
X245616Y385458D01*
X245697Y385763D01*
X245787Y386060D01*
X245886Y386321D01*
X245994Y386573D01*
X246110Y386797D01*
X246236Y386995D01*
X246362Y387184D01*
X246497Y387355D01*
X246632Y387508D01*
X246767Y387643D01*
X246911Y387769D01*
X247055Y387868D01*
X247189Y387966D01*
X247324Y388047D01*
X247459Y388119D01*
X247585Y388173D01*
X247711Y388227D01*
X247936Y388299D01*
X248035Y388317D01*
X248125Y388335D01*
X248206Y388353D01*
X248277Y388362D01*
X248331Y388371D01*
X248403D01*
X248682Y388353D01*
D02*
G37*
%LPC*%
G36*
X265191Y387211D02*
X263671D01*
X263500Y387202D01*
X263347Y387193D01*
X263195Y387175D01*
X263060Y387148D01*
X262934Y387112D01*
X262817Y387076D01*
X262709Y387040D01*
X262610Y386995D01*
X262529Y386959D01*
X262457Y386914D01*
X262394Y386878D01*
X262340Y386851D01*
X262304Y386815D01*
X262277Y386797D01*
X262259Y386788D01*
X262250Y386780D01*
X262160Y386699D01*
X262089Y386609D01*
X262017Y386510D01*
X261963Y386420D01*
X261873Y386222D01*
X261819Y386033D01*
X261783Y385862D01*
X261774Y385790D01*
X261765Y385728D01*
X261756Y385673D01*
Y385638D01*
Y385611D01*
Y385602D01*
X261765Y385449D01*
X261774Y385305D01*
X261801Y385170D01*
X261828Y385062D01*
X261855Y384972D01*
X261873Y384900D01*
X261891Y384855D01*
X261900Y384837D01*
X261954Y384711D01*
X262026Y384604D01*
X262089Y384505D01*
X262152Y384424D01*
X262214Y384352D01*
X262259Y384307D01*
X262295Y384271D01*
X262304Y384262D01*
X262403Y384181D01*
X262511Y384109D01*
X262610Y384046D01*
X262709Y383992D01*
X262790Y383956D01*
X262853Y383929D01*
X262898Y383911D01*
X262916Y383902D01*
X263051Y383857D01*
X263186Y383830D01*
X263311Y383803D01*
X263437Y383794D01*
X263536Y383785D01*
X263617Y383776D01*
X265191D01*
Y387211D01*
D02*
G37*
G36*
X248511Y387454D02*
X248457D01*
X248286Y387445D01*
X248116Y387409D01*
X247963Y387355D01*
X247819Y387283D01*
X247693Y387193D01*
X247567Y387085D01*
X247450Y386959D01*
X247342Y386824D01*
X247243Y386672D01*
X247162Y386519D01*
X247001Y386177D01*
X246875Y385808D01*
X246776Y385440D01*
X246695Y385062D01*
X246632Y384693D01*
X246587Y384352D01*
X246578Y384199D01*
X246560Y384046D01*
X246551Y383911D01*
X246542Y383785D01*
Y383677D01*
X246533Y383587D01*
Y383516D01*
Y383462D01*
Y383426D01*
Y383417D01*
X246542Y383066D01*
X246551Y382724D01*
X246578Y382419D01*
X246614Y382122D01*
X246659Y381852D01*
X246713Y381600D01*
X246776Y381367D01*
X246839Y381160D01*
X246911Y380962D01*
X246992Y380773D01*
X247073Y380611D01*
X247153Y380458D01*
X247243Y380323D01*
X247333Y380198D01*
X247423Y380090D01*
X247513Y379991D01*
X247603Y379910D01*
X247693Y379829D01*
X247783Y379766D01*
X247873Y379712D01*
X248035Y379622D01*
X248188Y379568D01*
X248313Y379532D01*
X248412Y379514D01*
X248448Y379505D01*
X248493D01*
X248673Y379514D01*
X248844Y379550D01*
X248997Y379604D01*
X249150Y379667D01*
X249284Y379757D01*
X249410Y379856D01*
X249536Y379973D01*
X249644Y380108D01*
X249743Y380243D01*
X249833Y380396D01*
X249995Y380719D01*
X250130Y381070D01*
X250229Y381429D01*
X250310Y381780D01*
X250373Y382131D01*
X250417Y382454D01*
X250435Y382607D01*
X250453Y382742D01*
X250462Y382877D01*
X250471Y382994D01*
Y383093D01*
X250480Y383183D01*
Y383246D01*
Y383300D01*
Y383336D01*
Y383345D01*
X250471Y383722D01*
X250453Y384064D01*
X250426Y384397D01*
X250390Y384702D01*
X250345Y384990D01*
X250292Y385251D01*
X250229Y385494D01*
X250166Y385718D01*
X250094Y385925D01*
X250013Y386123D01*
X249923Y386294D01*
X249842Y386447D01*
X249752Y386591D01*
X249653Y386726D01*
X249563Y386842D01*
X249464Y386941D01*
X249374Y387031D01*
X249275Y387112D01*
X249186Y387175D01*
X249096Y387238D01*
X249006Y387283D01*
X248925Y387328D01*
X248772Y387391D01*
X248646Y387427D01*
X248547Y387445D01*
X248511Y387454D01*
D02*
G37*
%LPD*%
D11*
X288689Y424181D02*
G03*
X288742Y424360I-9651J2926D01*
G01*
X288633Y424002D02*
G03*
X288689Y424181I-9696J3135D01*
G01*
X288574Y423824D02*
G03*
X288633Y424002I-9746J3348D01*
G01*
X288682Y411816D02*
G03*
X288882Y412653I-20305J5276D01*
G01*
X288499Y411153D02*
G03*
X288682Y411816I-20331J5994D01*
G01*
X288320Y410578D02*
G03*
X288499Y411153I-20359J6630D01*
G01*
X288145Y410061D02*
G03*
X288320Y410578I-20391J7214D01*
G01*
X287967Y409576D02*
G03*
X288145Y410061I-20423J7773D01*
G01*
X287788Y409121D02*
G03*
X287967Y409576I-20458J8310D01*
G01*
X287610Y408695D02*
G03*
X287788Y409121I-20495J8822D01*
G01*
X287435Y408300D02*
G03*
X287610Y408695I-20532J9309D01*
G01*
X287252Y407906D02*
G03*
X287435Y408300I-20564J9800D01*
G01*
X287074Y407542D02*
G03*
X287252Y407906I-20603J10268D01*
G01*
X288797Y424566D02*
G03*
X288855Y424798I-9555J2485D01*
G01*
X288742Y424360D02*
G03*
X288797Y424566I-9603J2718D01*
G01*
X289034Y425790D02*
G03*
X289055Y425975I-9433J1192D01*
G01*
X288971Y425370D02*
G03*
X289034Y425790I-9428J1620D01*
G01*
X288912Y425058D02*
G03*
X288971Y425370I-9467J1949D01*
G01*
X288855Y424798D02*
G03*
X288912Y425058I-9510J2229D01*
G01*
X289686Y435304D02*
G03*
X289629Y435490I-9750J-2930D01*
G01*
X289740Y435118D02*
G03*
X289686Y435304I-9699J-2713D01*
G01*
X289798Y434904D02*
G03*
X289740Y435118I-9654J-2470D01*
G01*
X289856Y434663D02*
G03*
X289798Y434904I-9607J-2202D01*
G01*
X289914Y434394D02*
G03*
X289856Y434663I-9562J-1909D01*
G01*
X289977Y434041D02*
G03*
X289914Y434394I-9521J-1536D01*
G01*
X290099Y432529D02*
G03*
X289977Y434041I-9486J-0D01*
G01*
X290014Y431261D02*
G03*
X290099Y432529I-9387J1267D01*
G01*
X289950Y430854D02*
G03*
X290014Y431261I-9431J1689D01*
G01*
X289892Y430556D02*
G03*
X289950Y430854I-9474J2004D01*
G01*
X289837Y430314D02*
G03*
X289892Y430556I-9518J2267D01*
G01*
X289784Y430100D02*
G03*
X289837Y430314I-9561J2504D01*
G01*
X289725Y429887D02*
G03*
X289784Y430100I-9605J2744D01*
G01*
X289670Y429701D02*
G03*
X289725Y429887I-9655J2960D01*
G01*
X289612Y429515D02*
G03*
X289670Y429701I-9703J3178D01*
G01*
X289248Y420568D02*
G03*
X289196Y420742I-9711J-2792D01*
G01*
X289301Y420378D02*
G03*
X289248Y420568I-9665J-2574D01*
G01*
X289353Y420172D02*
G03*
X289301Y420378I-9621J-2342D01*
G01*
X289407Y419940D02*
G03*
X289353Y420172I-9577J-2087D01*
G01*
X289462Y419667D02*
G03*
X289407Y419940I-9535J-1793D01*
G01*
X289520Y419326D02*
G03*
X289462Y419667I-9495J-1434D01*
G01*
X289626Y417913D02*
G03*
X289520Y419326I-9457J-0D01*
G01*
X289540Y416640D02*
G03*
X289626Y417913I-9391J1274D01*
G01*
X289477Y416240D02*
G03*
X289540Y416640I-9436J1688D01*
G01*
X289418Y415937D02*
G03*
X289477Y416240I-9477J2008D01*
G01*
X289363Y415692D02*
G03*
X289418Y415937I-9522J2274D01*
G01*
X289306Y415466D02*
G03*
X289363Y415692I-9565J2523D01*
G01*
X289250Y415261D02*
G03*
X289306Y415466I-9612J2756D01*
G01*
X289195Y415075D02*
G03*
X289250Y415261I-9660J2972D01*
G01*
X289116Y413924D02*
G03*
X289285Y415386I-20383J3101D01*
G01*
X288882Y412653D02*
G03*
X289116Y413924I-20289J4394D01*
G01*
X286890Y407180D02*
G03*
X287074Y407542I-20634J10737D01*
G01*
X287032Y418886D02*
G03*
X287010Y419036I-7465J-1021D01*
G01*
X287053Y418716D02*
G03*
X287032Y418886I-7401J-839D01*
G01*
X287073Y418525D02*
G03*
X287053Y418716I-7336J-639D01*
G01*
X287089Y418292D02*
G03*
X287073Y418525I-7270J-399D01*
G01*
X287054Y417088D02*
G03*
X287089Y418292I-7099J811D01*
G01*
X287012Y416782D02*
G03*
X287054Y417088I-7111J1123D01*
G01*
X286973Y416559D02*
G03*
X287012Y416782I-7147J1358D01*
G01*
X286936Y416378D02*
G03*
X286973Y416559I-7187J1554D01*
G01*
X286900Y416218D02*
G03*
X286936Y416378I-7228J1731D01*
G01*
X286865Y416078D02*
G03*
X286900Y416218I-7270J1889D01*
G01*
X286827Y415939D02*
G03*
X286865Y416078I-7312J2049D01*
G01*
X262321Y449253D02*
G03*
X261284Y449291I-2518J-54954D01*
G01*
X258486Y449296D02*
G03*
X257398Y449259I1285J-55082D01*
G01*
X259785Y449311D02*
G03*
X258486Y449296I-1J-55681D01*
G01*
X261284Y449291D02*
G03*
X260087Y449310I-1495J-55555D01*
G01*
X261085Y415763D02*
G03*
X262174Y415799I-1285J55081D01*
G01*
X258796Y410198D02*
G03*
X260096Y410213I1J55681D01*
G01*
X257083Y410224D02*
G03*
X258260Y410201I1708J55409D01*
G01*
X256067Y410265D02*
G03*
X257083Y410224I2707J54806D01*
G01*
X258785Y415757D02*
G03*
X259785Y415748I1000J55731D01*
G01*
X257694Y415787D02*
G03*
X258785Y415757I2082J55203D01*
G01*
X256711Y415833D02*
G03*
X257694Y415787I3044J54595D01*
G01*
X260096Y410213D02*
G03*
X261145Y410248I-1286J55092D01*
G01*
X259785Y415748D02*
G03*
X261085Y415763I1J55681D01*
G01*
X229598Y431634D02*
G03*
X229680Y431000I9326J883D01*
G01*
X229564Y432150D02*
G03*
X229598Y431634I9438J374D01*
G01*
X229556Y432529D02*
G03*
X229564Y432150I9543J-0D01*
G01*
X229655Y433895D02*
G03*
X229556Y432529I9379J-1366D01*
G01*
X229715Y434260D02*
G03*
X229655Y433895I9442J-1749D01*
G01*
X229773Y434548D02*
G03*
X229715Y434260I9482J-2055D01*
G01*
X229828Y434785D02*
G03*
X229773Y434548I9526J-2313D01*
G01*
X229881Y434996D02*
G03*
X229828Y434785I9569J-2547D01*
G01*
X229936Y435194D02*
G03*
X229881Y434996I9613J-2771D01*
G01*
X229991Y435379D02*
G03*
X229936Y435194I9660J-2986D01*
G01*
X230046Y435551D02*
G03*
X229991Y435379I9708J-3189D01*
G01*
X229559Y433796D02*
G03*
X229473Y432529I9391J-1267D01*
G01*
X229622Y434204D02*
G03*
X229559Y433796I9436J-1689D01*
G01*
X229681Y434501D02*
G03*
X229622Y434204I9478J-2004D01*
G01*
X229735Y434743D02*
G03*
X229681Y434501I9521J-2267D01*
G01*
X229789Y434958D02*
G03*
X229735Y434743I9564J-2504D01*
G01*
X229847Y435171D02*
G03*
X229788Y434958I9608J-2745D01*
G01*
X229902Y435357D02*
G03*
X229847Y435171I9658J-2961D01*
G01*
X229961Y435543D02*
G03*
X229902Y435357I9706J-3179D01*
G01*
X229935Y429595D02*
G03*
X229996Y429410I9793J3120D01*
G01*
X229878Y429780D02*
G03*
X229935Y429595I9739J2899D01*
G01*
X229825Y429967D02*
G03*
X229878Y429780I9689J2682D01*
G01*
X229768Y430180D02*
G03*
X229825Y429967I9644J2440D01*
G01*
X229710Y430422D02*
G03*
X229768Y430180I9598J2172D01*
G01*
X229653Y430691D02*
G03*
X229710Y430422I9553J1880D01*
G01*
X229595Y431017D02*
G03*
X229653Y430691I9514J1535D01*
G01*
X229473Y432529D02*
G03*
X229595Y431017I9481J0D01*
G01*
X228879Y413076D02*
X268645Y398018D01*
X226047Y410131D02*
X270741Y393134D01*
X252610Y435031D02*
X266961Y433313D01*
X288520Y423672D02*
X288574Y423824D01*
X288464Y423521D02*
X288520Y423672D01*
X288406Y423369D02*
X288464Y423521D01*
X288345Y423219D02*
X288406Y423369D01*
X288292Y423094D02*
X288345Y423219D01*
X288238Y422969D02*
X288292Y423094D01*
X225649Y425083D02*
X227494Y420580D01*
X221329Y431571D02*
X230367Y445612D01*
X266837Y448854D02*
X267397Y448777D01*
X267952Y448695D01*
X268458Y448614D01*
X288554Y427225D02*
X288613Y427325D01*
X288493Y427125D02*
X288554Y427225D01*
X288431Y427025D02*
X288493Y427125D01*
X288368Y426926D02*
X288431Y427025D01*
X288304Y426827D02*
X288368Y426926D01*
X288239Y426728D02*
X288304Y426827D01*
X288173Y426630D02*
X288239Y426728D01*
X288106Y426532D02*
X288173Y426630D01*
X288037Y426434D02*
X288106Y426532D01*
X287968Y426336D02*
X288037Y426434D01*
X287898Y426239D02*
X287968Y426336D01*
X287826Y426142D02*
X287898Y426239D01*
X287754Y426045D02*
X287826Y426142D01*
X287680Y425949D02*
X287754Y426045D01*
X287605Y425853D02*
X287680Y425949D01*
X287530Y425757D02*
X287605Y425853D01*
X287453Y425662D02*
X287530Y425757D01*
X287375Y425567D02*
X287453Y425662D01*
X287296Y425472D02*
X287375Y425567D01*
X287216Y425378D02*
X287296Y425472D01*
X287136Y425283D02*
X287216Y425378D01*
X287136Y439775D02*
X287216Y439681D01*
X287296Y439587D01*
X287375Y439492D01*
X287453Y439397D01*
X287530Y439301D01*
X287605Y439206D01*
X287680Y439110D01*
X287754Y439013D01*
X287826Y438917D01*
X287898Y438820D01*
X287968Y438722D01*
X288037Y438625D01*
X288106Y438527D01*
X288173Y438429D01*
X288239Y438330D01*
X288304Y438231D01*
X288368Y438132D01*
X288431Y438033D01*
X288493Y437933D01*
X288554Y437834D01*
X288613Y437733D01*
X288672Y437633D01*
X288729Y437532D01*
X288672Y427426D02*
X288729Y427526D01*
X288613Y427325D02*
X288672Y427426D01*
X288262Y422903D02*
X288267Y422893D01*
X288325Y422789D01*
X288382Y422685D01*
X288439Y422575D01*
X288496Y422465D01*
X288551Y422355D01*
X288608Y422240D01*
X288662Y422124D01*
X288718Y422003D01*
X288639Y413648D02*
X288697Y413774D01*
X288578Y413522D02*
X288639Y413648D01*
X288516Y413397D02*
X288578Y413522D01*
X288461Y413290D02*
X288516Y413397D01*
X288405Y413183D02*
X288461Y413290D01*
X288348Y413076D02*
X288405Y413183D01*
X288290Y412970D02*
X288348Y413076D01*
X288230Y412864D02*
X288290Y412970D01*
X288169Y412758D02*
X288230Y412864D01*
X288107Y412653D02*
X288169Y412758D01*
X288044Y412548D02*
X288107Y412653D01*
X287980Y412443D02*
X288044Y412548D01*
X287914Y412338D02*
X287980Y412443D01*
X287847Y412234D02*
X287914Y412338D01*
X287779Y412131D02*
X287847Y412234D01*
X287710Y412027D02*
X287779Y412131D01*
X287639Y411924D02*
X287710Y412027D01*
X287567Y411821D02*
X287639Y411924D01*
X287494Y411718D02*
X287567Y411821D01*
X287433Y411633D02*
X287494Y411718D01*
X287370Y411548D02*
X287433Y411633D01*
X287307Y411464D02*
X287370Y411548D01*
X287243Y411379D02*
X287307Y411464D01*
X287178Y411295D02*
X287243Y411379D01*
X288182Y422845D02*
X288238Y422969D01*
X288124Y422721D02*
X288182Y422845D01*
X288065Y422597D02*
X288124Y422721D01*
X288004Y422474D02*
X288065Y422597D01*
X287941Y422351D02*
X288004Y422474D01*
X287877Y422228D02*
X287941Y422351D01*
X287811Y422106D02*
X287877Y422228D01*
X287743Y421985D02*
X287811Y422106D01*
X287674Y421863D02*
X287743Y421985D01*
X287618Y421767D02*
X287674Y421863D01*
X287560Y421670D02*
X287618Y421767D01*
X287502Y421574D02*
X287560Y421670D01*
X287442Y421478D02*
X287502Y421574D01*
X287382Y421382D02*
X287442Y421478D01*
X287320Y421287D02*
X287382Y421382D01*
X287258Y421191D02*
X287320Y421287D01*
X287194Y421096D02*
X287258Y421191D01*
X268266Y411033D02*
X268701Y411114D01*
X267785Y410948D02*
X268266Y411033D01*
X267300Y410867D02*
X267785Y410948D01*
X266767Y410784D02*
X267300Y410867D01*
X268320Y416422D02*
X268823Y416507D01*
X267814Y416343D02*
X268320Y416422D01*
X267257Y416262D02*
X267814Y416343D01*
X266696Y416186D02*
X267257Y416262D01*
X247510Y447878D02*
X247856Y447961D01*
X248204Y448042D01*
X246485Y447613D02*
X246824Y447704D01*
X247166Y447792D01*
X247510Y447878D01*
X219970Y432100D02*
X229132Y428538D01*
X247886Y411318D02*
X248293Y411233D01*
X247483Y411406D02*
X247886Y411318D01*
X247115Y411489D02*
X247483Y411406D01*
X246750Y411575D02*
X247115Y411489D01*
X246388Y411664D02*
X246750Y411575D01*
X247943Y417077D02*
X248335Y416987D01*
X247596Y417160D02*
X247943Y417077D01*
X247251Y417245D02*
X247596Y417160D01*
X246909Y417333D02*
X247251Y417245D01*
X246569Y417423D02*
X246909Y417333D01*
X246232Y417515D02*
X246569Y417423D01*
X226047Y409953D02*
X227494Y420580D01*
X230367D01*
X224657Y414097D02*
X225965Y424533D01*
X286452Y424542D02*
X286541Y424633D01*
X286362Y424451D02*
X286452Y424542D01*
X286271Y424360D02*
X286362Y424451D01*
X286179Y424269D02*
X286271Y424360D01*
X286086Y424179D02*
X286179Y424269D01*
X285992Y424089D02*
X286086Y424179D01*
X285897Y424000D02*
X285992Y424089D01*
X285801Y423911D02*
X285897Y424000D01*
X285705Y423822D02*
X285801Y423911D01*
X285607Y423734D02*
X285705Y423822D01*
X285508Y423646D02*
X285607Y423734D01*
X285408Y423558D02*
X285508Y423646D01*
X285308Y423471D02*
X285408Y423558D01*
X285206Y423384D02*
X285308Y423471D01*
X285104Y423297D02*
X285206Y423384D01*
X285000Y423211D02*
X285104Y423297D01*
X284896Y423125D02*
X285000Y423211D01*
X284791Y423040D02*
X284896Y423125D01*
X281385Y444304D02*
X281548Y444212D01*
X281709Y444119D01*
X281869Y444026D01*
X281996Y443951D01*
X282122Y443875D01*
X282248Y443799D01*
X282373Y443722D01*
X282497Y443645D01*
X282620Y443568D01*
X282742Y443490D01*
X282863Y443411D01*
X282983Y443333D01*
X280211Y444930D02*
X280383Y444842D01*
X280553Y444754D01*
X280722Y444666D01*
X280889Y444576D01*
X281056Y444487D01*
X281221Y444396D01*
X281385Y444304D01*
X284972Y404087D02*
X285179Y404377D01*
X284760Y403799D02*
X284972Y404087D01*
X284543Y403513D02*
X284760Y403799D01*
X284341Y403253D02*
X284543Y403513D01*
X284135Y402995D02*
X284341Y403253D01*
X283925Y402739D02*
X284135Y402995D01*
X276755Y404186D02*
X276968Y404269D01*
X276540Y404103D02*
X276755Y404186D01*
X276324Y404021D02*
X276540Y404103D01*
X276107Y403940D02*
X276324Y404021D01*
X275889Y403860D02*
X276107Y403940D01*
X275641Y403771D02*
X275889Y403860D01*
X275392Y403684D02*
X275641Y403771D01*
X275142Y403598D02*
X275392Y403684D01*
X274890Y403513D02*
X275142Y403598D01*
X274636Y403430D02*
X274890Y403513D01*
X274380Y403348D02*
X274636Y403430D01*
X274123Y403267D02*
X274380Y403348D01*
X273836Y403179D02*
X274123Y403267D01*
X273547Y403093D02*
X273836Y403179D01*
X273227Y402999D02*
X273547Y403093D01*
X270521Y404198D02*
X270982Y404345D01*
X270441Y393186D02*
X273291Y403235D01*
X270441Y404116D02*
X273454Y403092D01*
X268576Y398044D02*
X270521Y404198D01*
X234650Y423147D02*
X234755Y423061D01*
X234546Y423233D02*
X234650Y423147D01*
X234443Y423319D02*
X234546Y423233D01*
X234340Y423406D02*
X234443Y423319D01*
X234239Y423493D02*
X234340Y423406D01*
X234139Y423580D02*
X234239Y423493D01*
X234039Y423668D02*
X234139Y423580D01*
X233941Y423756D02*
X234039Y423668D01*
X233843Y423844D02*
X233941Y423756D01*
X233747Y423933D02*
X233843Y423844D01*
X233651Y424022D02*
X233747Y423933D01*
X233557Y424112D02*
X233651Y424022D01*
X233463Y424202D02*
X233557Y424112D01*
X233370Y424292D02*
X233463Y424202D01*
X233279Y424383D02*
X233370Y424292D01*
X233188Y424473D02*
X233279Y424383D01*
X233098Y424565D02*
X233188Y424473D01*
X233009Y424656D02*
X233098Y424565D01*
X227887Y441776D02*
X228812Y446131D01*
X236751Y443383D02*
X236878Y443465D01*
X237005Y443546D01*
X237133Y443627D01*
X237276Y443717D01*
X228812Y446255D02*
X236310Y443821D01*
X236589Y443333D02*
X236709Y443411D01*
X236831Y443490D01*
X236953Y443568D01*
X237076Y443645D01*
X237199Y443722D01*
X237324Y443799D01*
X237450Y443875D01*
X237576Y443951D01*
X237703Y444026D01*
X237831Y444101D01*
X237960Y444175D01*
X238122Y444268D01*
X238286Y444359D01*
X238450Y444450D01*
X238616Y444541D01*
X238783Y444630D01*
X238952Y444719D01*
X239121Y444807D01*
X239292Y444895D01*
X239464Y444982D01*
X229613Y430909D02*
X229742Y424533D01*
X228822Y428659D02*
X230626Y420580D01*
X216342Y417598D02*
X217960Y428078D01*
X288729Y437532D02*
X288785Y437431D01*
X288854Y437304D01*
X288921Y437177D01*
X288986Y437050D01*
X289050Y436922D01*
X289111Y436794D01*
X289171Y436665D01*
X289230Y436536D01*
X289286Y436407D01*
X289340Y436277D01*
X289403Y436120D01*
X289464Y435964D01*
X289521Y435806D01*
X289576Y435648D01*
X289629Y435490D01*
X289558Y429357D02*
X289612Y429515D01*
X289502Y429199D02*
X289558Y429357D01*
X289444Y429042D02*
X289502Y429199D01*
X289383Y428886D02*
X289444Y429042D01*
X289329Y428755D02*
X289383Y428886D01*
X289275Y428626D02*
X289329Y428755D01*
X289218Y428496D02*
X289275Y428626D01*
X289160Y428367D02*
X289218Y428496D01*
X289099Y428239D02*
X289160Y428367D01*
X289037Y428111D02*
X289099Y428239D01*
X288974Y427983D02*
X289037Y428111D01*
X288908Y427855D02*
X288974Y427983D01*
X288841Y427729D02*
X288908Y427855D01*
X288785Y427627D02*
X288841Y427729D01*
X288729Y427526D02*
X288785Y427627D01*
X288856Y424809D02*
X290001Y431175D01*
X288718Y422003D02*
X288772Y421882D01*
X288826Y421756D01*
X288881Y421624D01*
X288934Y421492D01*
X288987Y421355D01*
X289039Y421212D01*
X289091Y421064D01*
X289144Y420906D01*
X289196Y420742D01*
X289142Y414908D02*
X289194Y415075D01*
X289086Y414742D02*
X289142Y414908D01*
X289034Y414594D02*
X289086Y414742D01*
X288979Y414447D02*
X289034Y414594D01*
X288922Y414301D02*
X288979Y414447D01*
X288863Y414155D02*
X288922Y414301D01*
X288810Y414028D02*
X288863Y414155D01*
X288754Y413901D02*
X288810Y414028D01*
X288697Y413774D02*
X288754Y413901D01*
X272875Y447670D02*
X273214Y447579D01*
X273508Y447497D01*
X273800Y447414D01*
X274091Y447328D01*
X274380Y447242D01*
X274666Y447153D01*
X274951Y447063D01*
X275234Y446971D01*
X275515Y446878D01*
X275754Y446796D01*
X275992Y446714D01*
X276228Y446630D01*
X276463Y446545D01*
X276696Y446459D01*
X276928Y446372D01*
X277158Y446284D01*
X277386Y446194D01*
X277614Y446104D01*
X277839Y446012D01*
X278063Y445919D01*
X278248Y445840D01*
X278433Y445761D01*
X278616Y445682D01*
X278797Y445601D01*
X278978Y445520D01*
X279158Y445438D01*
X279336Y445355D01*
X279514Y445271D01*
X279690Y445187D01*
X279865Y445102D01*
X280039Y445016D01*
X280211Y444930D01*
X268458Y448614D02*
X268960Y448529D01*
X269413Y448447D01*
X269862Y448361D01*
X270309Y448272D01*
X270708Y448188D01*
X271105Y448102D01*
X271498Y448012D01*
X271846Y447930D01*
X272191Y447846D01*
X272535Y447759D01*
X272875Y447670D01*
X287054Y425189D02*
X287136Y425283D01*
X286971Y425096D02*
X287054Y425189D01*
X286887Y425003D02*
X286971Y425096D01*
X286802Y424910D02*
X286887Y425003D01*
X286716Y424817D02*
X286802Y424910D01*
X286629Y424725D02*
X286716Y424817D01*
X286541Y424633D02*
X286629Y424725D01*
X282983Y443333D02*
X283103Y443254D01*
X283222Y443174D01*
X283340Y443094D01*
X283457Y443014D01*
X283573Y442933D01*
X283688Y442852D01*
X283802Y442771D01*
X283916Y442688D01*
X284028Y442606D01*
X284140Y442523D01*
X284251Y442440D01*
X284361Y442357D01*
X284470Y442273D01*
X284578Y442189D01*
X284685Y442104D01*
X284791Y442019D01*
X284896Y441934D01*
X285000Y441848D01*
X285104Y441762D01*
X285206Y441675D01*
X285308Y441588D01*
X285408Y441501D01*
X285508Y441413D01*
X285607Y441325D01*
X285705Y441237D01*
X285801Y441148D01*
X285897Y441059D01*
X285992Y440970D01*
X286086Y440880D01*
X286179Y440789D01*
X286271Y440699D01*
X286362Y440608D01*
X286452Y440517D01*
X286541Y440425D01*
X286629Y440334D01*
X286716Y440241D01*
X286802Y440149D01*
X286887Y440056D01*
X286971Y439963D01*
X287054Y439869D01*
X287136Y439775D01*
X282254Y406943D02*
X282382Y407025D01*
X282126Y406861D02*
X282254Y406943D01*
X281996Y406780D02*
X282126Y406861D01*
X281866Y406699D02*
X281996Y406780D01*
X281735Y406619D02*
X281866Y406699D01*
X281602Y406539D02*
X281735Y406619D01*
X281469Y406460D02*
X281602Y406539D01*
X286530Y406514D02*
X286713Y406846D01*
X286341Y406185D02*
X286530Y406514D01*
X286147Y405857D02*
X286341Y406185D01*
X285963Y405557D02*
X286147Y405857D01*
X285774Y405259D02*
X285963Y405557D01*
X285580Y404963D02*
X285774Y405259D01*
X285382Y404669D02*
X285580Y404963D01*
X285179Y404377D02*
X285382Y404669D01*
X287112Y411211D02*
X287178Y411295D01*
X287046Y411127D02*
X287112Y411211D01*
X286979Y411043D02*
X287046Y411127D01*
X286910Y410960D02*
X286979Y411043D01*
X286842Y410877D02*
X286910Y410960D01*
X286772Y410794D02*
X286842Y410877D01*
X286702Y410712D02*
X286772Y410794D01*
X286630Y410629D02*
X286702Y410712D01*
X286558Y410547D02*
X286630Y410629D01*
X286486Y410465D02*
X286558Y410547D01*
X286412Y410384D02*
X286486Y410465D01*
X286338Y410303D02*
X286412Y410384D01*
X286262Y410221D02*
X286338Y410303D01*
X286187Y410141D02*
X286262Y410221D01*
X286110Y410060D02*
X286187Y410141D01*
X286032Y409980D02*
X286110Y410060D01*
X285954Y409900D02*
X286032Y409980D01*
X285875Y409820D02*
X285954Y409900D01*
X285795Y409741D02*
X285875Y409820D01*
X285715Y409661D02*
X285795Y409741D01*
X285634Y409582D02*
X285715Y409661D01*
X285552Y409504D02*
X285634Y409582D01*
X285469Y409425D02*
X285552Y409504D01*
X285386Y409347D02*
X285469Y409425D01*
X285302Y409269D02*
X285386Y409347D01*
X285217Y409192D02*
X285302Y409269D01*
X285131Y409114D02*
X285217Y409192D01*
X285045Y409037D02*
X285131Y409114D01*
X284957Y408960D02*
X285045Y409037D01*
X284870Y408884D02*
X284957Y408960D01*
X284781Y408808D02*
X284870Y408884D01*
X284692Y408732D02*
X284781Y408808D01*
X284602Y408656D02*
X284692Y408732D01*
X284511Y408581D02*
X284602Y408656D01*
X284419Y408506D02*
X284511Y408581D01*
X284327Y408431D02*
X284419Y408506D01*
X284235Y408356D02*
X284327Y408431D01*
X284141Y408282D02*
X284235Y408356D01*
X284047Y408208D02*
X284141Y408282D01*
X283952Y408134D02*
X284047Y408208D01*
X283837Y408046D02*
X283952Y408134D01*
X283721Y407959D02*
X283837Y408046D01*
X283604Y407872D02*
X283721Y407959D01*
X283486Y407785D02*
X283604Y407872D01*
X283367Y407699D02*
X283486Y407785D01*
X283248Y407613D02*
X283367Y407699D01*
X283127Y407528D02*
X283248Y407613D01*
X283005Y407443D02*
X283127Y407528D01*
X282882Y407358D02*
X283005Y407443D01*
X282758Y407274D02*
X282882Y407358D01*
X282634Y407191D02*
X282758Y407274D01*
X287129Y421002D02*
X287194Y421096D01*
X287064Y420908D02*
X287129Y421002D01*
X286997Y420813D02*
X287064Y420908D01*
X286930Y420720D02*
X286997Y420813D01*
X286861Y420626D02*
X286930Y420720D01*
X286792Y420533D02*
X286861Y420626D01*
X286721Y420440D02*
X286792Y420533D01*
X286649Y420347D02*
X286721Y420440D01*
X286577Y420255D02*
X286649Y420347D01*
X286504Y420163D02*
X286577Y420255D01*
X286429Y420071D02*
X286504Y420163D01*
X286354Y419979D02*
X286429Y420071D01*
X286278Y419888D02*
X286354Y419979D01*
X286200Y419797D02*
X286278Y419888D01*
X286122Y419706D02*
X286200Y419797D01*
X286043Y419616D02*
X286122Y419706D01*
X285963Y419526D02*
X286043Y419616D01*
X285882Y419436D02*
X285963Y419526D01*
X285799Y419347D02*
X285882Y419436D01*
X285716Y419258D02*
X285799Y419347D01*
X285633Y419169D02*
X285716Y419258D01*
X285548Y419080D02*
X285633Y419169D01*
X285462Y418992D02*
X285548Y419080D01*
X285375Y418904D02*
X285462Y418992D01*
X285288Y418817D02*
X285375Y418904D01*
X285199Y418730D02*
X285288Y418817D01*
X285110Y418643D02*
X285199Y418730D01*
X285019Y418556D02*
X285110Y418643D01*
X284928Y418470D02*
X285019Y418556D01*
X284836Y418384D02*
X284928Y418470D01*
X284743Y418298D02*
X284836Y418384D01*
X284649Y418213D02*
X284743Y418298D01*
X284555Y418128D02*
X284649Y418213D01*
X284459Y418043D02*
X284555Y418128D01*
X284362Y417959D02*
X284459Y418043D01*
X284265Y417875D02*
X284362Y417959D01*
X284167Y417792D02*
X284265Y417875D01*
X284067Y417709D02*
X284167Y417792D01*
X283967Y417626D02*
X284067Y417709D01*
X283866Y417543D02*
X283967Y417626D01*
X283765Y417461D02*
X283866Y417543D01*
X283662Y417379D02*
X283765Y417461D01*
X283559Y417298D02*
X283662Y417379D01*
X283454Y417216D02*
X283559Y417298D01*
X283349Y417136D02*
X283454Y417216D01*
X283243Y417055D02*
X283349Y417136D01*
X283136Y416975D02*
X283243Y417055D01*
X283029Y416895D02*
X283136Y416975D01*
X282920Y416816D02*
X283029Y416895D01*
X282811Y416737D02*
X282920Y416816D01*
X282701Y416659D02*
X282811Y416737D01*
X282589Y416581D02*
X282701Y416659D01*
X282478Y416503D02*
X282589Y416581D01*
X282365Y416425D02*
X282478Y416503D01*
X282252Y416348D02*
X282365Y416425D01*
X282137Y416272D02*
X282252Y416348D01*
X282022Y416195D02*
X282137Y416272D01*
X281907Y416119D02*
X282022Y416195D01*
X281790Y416044D02*
X281907Y416119D01*
X281672Y415969D02*
X281790Y416044D01*
X281554Y415894D02*
X281672Y415969D01*
X281435Y415819D02*
X281554Y415894D01*
X286712Y420272D02*
X286740Y420185D01*
X286766Y420097D01*
X286792Y420009D01*
X286817Y419922D01*
X286841Y419835D01*
X286869Y419726D01*
X286895Y419618D01*
X286920Y419509D01*
X286943Y419401D01*
X286965Y419294D01*
X286989Y419165D01*
X287010Y419036D01*
X286793Y415820D02*
X286827Y415939D01*
X286757Y415701D02*
X286793Y415820D01*
X286719Y415583D02*
X286757Y415701D01*
X286685Y415485D02*
X286719Y415583D01*
X286651Y415387D02*
X286685Y415485D01*
X286614Y415290D02*
X286651Y415387D01*
X286577Y415192D02*
X286614Y415290D01*
X286539Y415095D02*
X286577Y415192D01*
X286499Y414999D02*
X286539Y415095D01*
X286466Y414921D02*
X286499Y414999D01*
X286432Y414844D02*
X286466Y414921D01*
X286397Y414767D02*
X286432Y414844D01*
X286362Y414691D02*
X286397Y414767D01*
X286326Y414614D02*
X286362Y414691D01*
X286289Y414538D02*
X286326Y414614D01*
X286251Y414462D02*
X286289Y414538D01*
X286213Y414386D02*
X286251Y414462D01*
X286173Y414310D02*
X286213Y414386D01*
X286133Y414235D02*
X286173Y414310D01*
X286092Y414159D02*
X286133Y414235D01*
X286051Y414084D02*
X286092Y414159D01*
X286008Y414009D02*
X286051Y414084D01*
X285965Y413934D02*
X286008Y414009D01*
X285921Y413860D02*
X285965Y413934D01*
X285876Y413785D02*
X285921Y413860D01*
X285831Y413711D02*
X285876Y413785D01*
X285784Y413637D02*
X285831Y413711D01*
X285737Y413563D02*
X285784Y413637D01*
X285689Y413489D02*
X285737Y413563D01*
X285641Y413416D02*
X285689Y413489D01*
X285592Y413343D02*
X285641Y413416D01*
X285541Y413269D02*
X285592Y413343D01*
X285491Y413196D02*
X285541Y413269D01*
X285452Y413142D02*
X285491Y413196D01*
X285413Y413087D02*
X285452Y413142D01*
X285374Y413033D02*
X285413Y413087D01*
X285334Y412979D02*
X285374Y413033D01*
X285294Y412925D02*
X285334Y412979D01*
X285253Y412871D02*
X285294Y412925D01*
X285212Y412817D02*
X285253Y412871D01*
X285171Y412763D02*
X285212Y412817D01*
X285129Y412709D02*
X285171Y412763D01*
X285087Y412656D02*
X285129Y412709D01*
X285044Y412602D02*
X285087Y412656D01*
X285002Y412549D02*
X285044Y412602D01*
X284958Y412495D02*
X285002Y412549D01*
X284915Y412442D02*
X284958Y412495D01*
X284870Y412389D02*
X284915Y412442D01*
X284826Y412336D02*
X284870Y412389D01*
X284781Y412283D02*
X284826Y412336D01*
X284736Y412231D02*
X284781Y412283D01*
X284690Y412178D02*
X284736Y412231D01*
X284644Y412126D02*
X284690Y412178D01*
X284598Y412073D02*
X284644Y412126D01*
X284551Y412021D02*
X284598Y412073D01*
X284504Y411969D02*
X284551Y412021D01*
X284456Y411917D02*
X284504Y411969D01*
X284409Y411865D02*
X284456Y411917D01*
X284360Y411813D02*
X284409Y411865D01*
X284312Y411761D02*
X284360Y411813D01*
X284263Y411710D02*
X284312Y411761D01*
X284214Y411658D02*
X284263Y411710D01*
X284164Y411607D02*
X284214Y411658D01*
X284114Y411555D02*
X284164Y411607D01*
X284063Y411504D02*
X284114Y411555D01*
X284013Y411453D02*
X284063Y411504D01*
X283962Y411402D02*
X284013Y411453D01*
X283910Y411351D02*
X283962Y411402D01*
X283858Y411301D02*
X283910Y411351D01*
X283806Y411250D02*
X283858Y411301D01*
X283754Y411200D02*
X283806Y411250D01*
X283701Y411149D02*
X283754Y411200D01*
X283648Y411099D02*
X283701Y411149D01*
X283594Y411049D02*
X283648Y411099D01*
X283540Y410999D02*
X283594Y411049D01*
X283486Y410949D02*
X283540Y410999D01*
X283431Y410899D02*
X283486Y410949D01*
X283377Y410849D02*
X283431Y410899D01*
X283321Y410800D02*
X283377Y410849D01*
X283266Y410750D02*
X283321Y410800D01*
X283210Y410701D02*
X283266Y410750D01*
X283154Y410652D02*
X283210Y410701D01*
X283097Y410603D02*
X283154Y410652D01*
X283041Y410554D02*
X283097Y410603D01*
X282983Y410505D02*
X283041Y410554D01*
X282926Y410456D02*
X282983Y410505D01*
X282849Y410391D02*
X282926Y410456D01*
X282771Y410327D02*
X282849Y410391D01*
X282693Y410262D02*
X282771Y410327D01*
X282614Y410198D02*
X282693Y410262D01*
X282535Y410134D02*
X282614Y410198D01*
X282455Y410070D02*
X282535Y410134D01*
X282374Y410007D02*
X282455Y410070D01*
X282293Y409944D02*
X282374Y410007D01*
X282212Y409880D02*
X282293Y409944D01*
X282130Y409818D02*
X282212Y409880D01*
X282047Y409755D02*
X282130Y409818D01*
X281964Y409692D02*
X282047Y409755D01*
X281880Y409630D02*
X281964Y409692D01*
X281796Y409568D02*
X281880Y409630D01*
X281712Y409506D02*
X281796Y409568D01*
X281627Y409444D02*
X281712Y409506D01*
X281541Y409383D02*
X281627Y409444D01*
X281455Y409322D02*
X281541Y409383D01*
X284685Y422955D02*
X284791Y423040D01*
X284578Y422870D02*
X284685Y422955D01*
X284470Y422786D02*
X284578Y422870D01*
X284361Y422702D02*
X284470Y422786D01*
X284251Y422619D02*
X284361Y422702D01*
X284140Y422536D02*
X284251Y422619D01*
X284028Y422453D02*
X284140Y422536D01*
X283916Y422370D02*
X284028Y422453D01*
X283802Y422289D02*
X283916Y422370D01*
X283688Y422207D02*
X283802Y422289D01*
X283573Y422126D02*
X283688Y422207D01*
X283457Y422045D02*
X283573Y422126D01*
X283340Y421965D02*
X283457Y422045D01*
X283222Y421885D02*
X283340Y421965D01*
X283103Y421805D02*
X283222Y421885D01*
X282983Y421726D02*
X283103Y421805D01*
X282863Y421647D02*
X282983Y421726D01*
X282742Y421569D02*
X282863Y421647D01*
X282620Y421491D02*
X282742Y421569D01*
X282497Y421414D02*
X282620Y421491D01*
X282373Y421337D02*
X282497Y421414D01*
X282248Y421260D02*
X282373Y421337D01*
X282122Y421184D02*
X282248Y421260D01*
X281996Y421109D02*
X282122Y421184D01*
X281869Y421033D02*
X281996Y421109D01*
X281741Y420958D02*
X281869Y421033D01*
X281612Y420884D02*
X281741Y420958D01*
X281450Y420792D02*
X281612Y420884D01*
X281065Y406224D02*
X281201Y406302D01*
X280928Y406147D02*
X281065Y406224D01*
X280790Y406070D02*
X280928Y406147D01*
X280652Y405993D02*
X280790Y406070D01*
X280513Y405917D02*
X280652Y405993D01*
X280372Y405842D02*
X280513Y405917D01*
X280231Y405767D02*
X280372Y405842D01*
X280065Y405680D02*
X280231Y405767D01*
X279898Y405594D02*
X280065Y405680D01*
X279730Y405508D02*
X279898Y405594D01*
X279561Y405424D02*
X279730Y405508D01*
X279391Y405340D02*
X279561Y405424D01*
X279219Y405256D02*
X279391Y405340D01*
X279046Y405173D02*
X279219Y405256D01*
X278873Y405092D02*
X279046Y405173D01*
X278698Y405010D02*
X278873Y405092D01*
X278522Y404930D02*
X278698Y405010D01*
X278344Y404850D02*
X278522Y404930D01*
X278166Y404771D02*
X278344Y404850D01*
X277987Y404692D02*
X278166Y404771D01*
X277806Y404615D02*
X277987Y404692D01*
X277599Y404527D02*
X277806Y404615D01*
X277390Y404440D02*
X277599Y404527D01*
X277180Y404354D02*
X277390Y404440D01*
X276968Y404269D02*
X277180Y404354D01*
X277496Y406977D02*
X277624Y407042D01*
X277366Y406912D02*
X277496Y406977D01*
X277236Y406848D02*
X277366Y406912D01*
X277106Y406785D02*
X277236Y406848D01*
X276975Y406721D02*
X277106Y406785D01*
X276844Y406658D02*
X276975Y406721D01*
X276712Y406595D02*
X276844Y406658D01*
X276580Y406533D02*
X276712Y406595D01*
X276421Y406459D02*
X276580Y406533D01*
X276261Y406385D02*
X276421Y406459D01*
X276101Y406312D02*
X276261Y406385D01*
X275940Y406239D02*
X276101Y406312D01*
X275778Y406167D02*
X275940Y406239D01*
X275616Y406095D02*
X275778Y406167D01*
X275453Y406024D02*
X275616Y406095D01*
X275290Y405954D02*
X275453Y406024D01*
X275126Y405884D02*
X275290Y405954D01*
X274961Y405815D02*
X275126Y405884D01*
X274769Y405734D02*
X274961Y405815D01*
X274576Y405655D02*
X274769Y405734D01*
X274382Y405576D02*
X274576Y405655D01*
X274188Y405498D02*
X274382Y405576D01*
X273993Y405421D02*
X274188Y405498D01*
X273769Y405333D02*
X273993Y405421D01*
X273545Y405247D02*
X273769Y405333D01*
X273320Y405162D02*
X273545Y405247D01*
X273095Y405077D02*
X273320Y405162D01*
X272840Y404983D02*
X273095Y405077D01*
X272585Y404891D02*
X272840Y404983D01*
X272300Y404790D02*
X272585Y404891D01*
X272015Y404690D02*
X272300Y404790D01*
X271700Y404583D02*
X272015Y404690D01*
X271356Y404467D02*
X271700Y404583D01*
X270982Y404345D02*
X271356Y404467D01*
X281013Y415562D02*
X281165Y415653D01*
X280859Y415471D02*
X281013Y415562D01*
X280705Y415382D02*
X280859Y415471D01*
X280549Y415292D02*
X280705Y415382D01*
X280393Y415203D02*
X280549Y415292D01*
X280235Y415115D02*
X280393Y415203D01*
X280075Y415028D02*
X280235Y415115D01*
X279915Y414941D02*
X280075Y415028D01*
X279754Y414855D02*
X279915Y414941D01*
X279591Y414769D02*
X279754Y414855D01*
X279428Y414684D02*
X279591Y414769D01*
X279263Y414600D02*
X279428Y414684D01*
X279097Y414517D02*
X279263Y414600D01*
X278930Y414434D02*
X279097Y414517D01*
X278761Y414352D02*
X278930Y414434D01*
X278592Y414270D02*
X278761Y414352D01*
X278422Y414189D02*
X278592Y414270D01*
X278250Y414109D02*
X278422Y414189D01*
X278078Y414030D02*
X278250Y414109D01*
X277904Y413951D02*
X278078Y414030D01*
X277729Y413873D02*
X277904Y413951D01*
X277553Y413796D02*
X277729Y413873D01*
X277341Y413704D02*
X277553Y413796D01*
X277127Y413613D02*
X277341Y413704D01*
X276912Y413523D02*
X277127Y413613D01*
X276695Y413434D02*
X276912Y413523D01*
X276477Y413346D02*
X276695Y413434D01*
X276257Y413260D02*
X276477Y413346D01*
X276036Y413174D02*
X276257Y413260D01*
X275813Y413090D02*
X276036Y413174D01*
X275589Y413006D02*
X275813Y413090D01*
X275364Y412924D02*
X275589Y413006D01*
X275137Y412842D02*
X275364Y412924D01*
X274909Y412762D02*
X275137Y412842D01*
X274641Y412670D02*
X274909Y412762D01*
X274371Y412579D02*
X274641Y412670D01*
X274099Y412490D02*
X274371Y412579D01*
X273826Y412402D02*
X274099Y412490D01*
X273550Y412316D02*
X273826Y412402D01*
X273273Y412232D02*
X273550Y412316D01*
X272994Y412149D02*
X273273Y412232D01*
X272714Y412067D02*
X272994Y412149D01*
X272391Y411976D02*
X272714Y412067D01*
X272066Y411887D02*
X272391Y411976D01*
X271739Y411800D02*
X272066Y411887D01*
X271410Y411715D02*
X271739Y411800D01*
X271078Y411632D02*
X271410Y411715D01*
X270703Y411542D02*
X271078Y411632D01*
X270325Y411454D02*
X270703Y411542D01*
X269944Y411369D02*
X270325Y411454D01*
X269561Y411287D02*
X269944Y411369D01*
X269133Y411199D02*
X269561Y411287D01*
X268701Y411114D02*
X269133Y411199D01*
X281105Y409079D02*
X281194Y409139D01*
X281017Y409019D02*
X281105Y409079D01*
X280928Y408959D02*
X281017Y409019D01*
X280839Y408899D02*
X280928Y408959D01*
X280749Y408840D02*
X280839Y408899D01*
X280658Y408781D02*
X280749Y408840D01*
X280567Y408722D02*
X280658Y408781D01*
X280476Y408663D02*
X280567Y408722D01*
X280384Y408604D02*
X280476Y408663D01*
X280292Y408546D02*
X280384Y408604D01*
X280199Y408488D02*
X280292Y408546D01*
X280106Y408430D02*
X280199Y408488D01*
X280013Y408372D02*
X280106Y408430D01*
X279919Y408315D02*
X280013Y408372D01*
X279825Y408257D02*
X279919Y408315D01*
X279730Y408200D02*
X279825Y408257D01*
X279634Y408143D02*
X279730Y408200D01*
X279539Y408087D02*
X279634Y408143D01*
X279443Y408031D02*
X279539Y408087D01*
X279347Y407974D02*
X279443Y408031D01*
X279250Y407918D02*
X279347Y407974D01*
X279153Y407863D02*
X279250Y407918D01*
X279055Y407807D02*
X279153Y407863D01*
X278957Y407752D02*
X279055Y407807D01*
X278859Y407697D02*
X278957Y407752D01*
X278760Y407642D02*
X278859Y407697D01*
X278636Y407574D02*
X278760Y407642D01*
X278512Y407506D02*
X278636Y407574D01*
X278386Y407439D02*
X278512Y407506D01*
X278261Y407372D02*
X278386Y407439D01*
X278134Y407305D02*
X278261Y407372D01*
X278008Y407239D02*
X278134Y407305D01*
X280956Y420518D02*
X281122Y420609D01*
X280789Y420429D02*
X280956Y420518D01*
X280620Y420340D02*
X280789Y420429D01*
X280451Y420252D02*
X280620Y420340D01*
X280280Y420164D02*
X280451Y420252D01*
X280108Y420077D02*
X280280Y420164D01*
X279935Y419991D02*
X280108Y420077D01*
X279760Y419906D02*
X279935Y419991D01*
X279584Y419821D02*
X279760Y419906D01*
X279408Y419738D02*
X279584Y419821D01*
X279230Y419654D02*
X279408Y419738D01*
X279050Y419572D02*
X279230Y419654D01*
X278870Y419490D02*
X279050Y419572D01*
X278689Y419409D02*
X278870Y419490D01*
X278506Y419329D02*
X278689Y419409D01*
X278322Y419250D02*
X278506Y419329D01*
X278137Y419171D02*
X278322Y419250D01*
X277951Y419094D02*
X278137Y419171D01*
X277726Y419001D02*
X277951Y419094D01*
X277500Y418910D02*
X277726Y419001D01*
X277272Y418820D02*
X277500Y418910D01*
X277043Y418731D02*
X277272Y418820D01*
X276812Y418643D02*
X277043Y418731D01*
X276580Y418557D02*
X276812Y418643D01*
X276346Y418471D02*
X276580Y418557D01*
X276110Y418387D02*
X276346Y418471D01*
X275873Y418303D02*
X276110Y418387D01*
X275635Y418222D02*
X275873Y418303D01*
X275395Y418141D02*
X275635Y418222D01*
X275113Y418048D02*
X275395Y418141D01*
X274829Y417957D02*
X275113Y418048D01*
X274543Y417868D02*
X274829Y417957D01*
X274256Y417780D02*
X274543Y417868D01*
X273967Y417694D02*
X274256Y417780D01*
X273675Y417609D02*
X273967Y417694D01*
X273382Y417527D02*
X273675Y417609D01*
X273087Y417446D02*
X273382Y417527D01*
X272748Y417355D02*
X273087Y417446D01*
X272406Y417267D02*
X272748Y417355D01*
X272062Y417181D02*
X272406Y417267D01*
X271716Y417098D02*
X272062Y417181D01*
X271367Y417016D02*
X271716Y417098D01*
X270973Y416928D02*
X271367Y417016D01*
X270576Y416842D02*
X270973Y416928D01*
X270175Y416760D02*
X270576Y416842D01*
X269728Y416671D02*
X270175Y416760D01*
X269277Y416587D02*
X269728Y416671D01*
X268823Y416507D02*
X269277Y416587D01*
X282508Y407108D02*
X282634Y407191D01*
X282382Y407025D02*
X282508Y407108D01*
X286713Y406846D02*
X286890Y407180D01*
X277880Y407173D02*
X278008Y407239D01*
X277753Y407107D02*
X277880Y407173D01*
X277624Y407042D02*
X277753Y407107D01*
X281335Y406381D02*
X281469Y406460D01*
X281201Y406302D02*
X281335Y406381D01*
X281315Y415745D02*
X281435Y415819D01*
X281165Y415653D02*
X281315Y415745D01*
X281368Y409261D02*
X281455Y409322D01*
X281281Y409200D02*
X281368Y409261D01*
X281194Y409139D02*
X281281Y409200D01*
X281287Y420700D02*
X281450Y420792D01*
X281122Y420609D02*
X281287Y420700D01*
X283712Y402485D02*
X283925Y402739D01*
X283495Y402232D02*
X283712Y402485D01*
X283274Y401982D02*
X283495Y402232D01*
X283050Y401733D02*
X283274Y401982D01*
X282822Y401486D02*
X283050Y401733D01*
X282591Y401242D02*
X282822Y401486D01*
X282356Y400999D02*
X282591Y401242D01*
X282117Y400758D02*
X282356Y400999D01*
X281876Y400520D02*
X282117Y400758D01*
X281630Y400283D02*
X281876Y400520D01*
X280828Y399545D02*
X281107Y399795D01*
X280545Y399296D02*
X280828Y399545D01*
X280258Y399051D02*
X280545Y399296D01*
X279967Y398808D02*
X280258Y399051D01*
X279673Y398567D02*
X279967Y398808D01*
X279375Y398330D02*
X279673Y398567D01*
X279073Y398095D02*
X279375Y398330D01*
X278767Y397862D02*
X279073Y398095D01*
X278457Y397633D02*
X278767Y397862D01*
X278118Y397387D02*
X278457Y397633D01*
X277774Y397145D02*
X278118Y397387D01*
X277427Y396906D02*
X277774Y397145D01*
X277075Y396670D02*
X277427Y396906D01*
X276719Y396438D02*
X277075Y396670D01*
X276359Y396209D02*
X276719Y396438D01*
X275966Y395967D02*
X276359Y396209D01*
X275570Y395729D02*
X275966Y395967D01*
X275168Y395494D02*
X275570Y395729D01*
X274762Y395264D02*
X275168Y395494D01*
X274323Y395022D02*
X274762Y395264D01*
X273878Y394785D02*
X274323Y395022D01*
X273428Y394553D02*
X273878Y394785D01*
X272974Y394326D02*
X273428Y394553D01*
X272484Y394089D02*
X272974Y394326D01*
X271988Y393858D02*
X272484Y394089D01*
X271456Y393619D02*
X271988Y393858D01*
X270918Y393386D02*
X271456Y393619D01*
X270309Y393134D02*
X270918Y393386D01*
X281382Y400049D02*
X281630Y400283D01*
X281107Y399795D02*
X281382Y400049D01*
X262321Y449253D02*
X263251Y449202D01*
X264077Y449144D01*
X264847Y449078D01*
X265563Y449006D01*
X266226Y448931D01*
X266837Y448854D01*
X248204Y448042D02*
X248599Y448131D01*
X248996Y448217D01*
X249396Y448299D01*
X249844Y448387D01*
X250295Y448472D01*
X250749Y448552D01*
X251251Y448637D01*
X251758Y448716D01*
X252314Y448797D01*
X252875Y448873D01*
X253487Y448948D01*
X254151Y449021D01*
X254869Y449091D01*
X255640Y449155D01*
X256466Y449211D01*
X257398Y449259D01*
X259785Y449311D02*
X260087Y449310D01*
X258682Y427993D02*
X260481Y440496D01*
X266231Y410706D02*
X266767Y410784D01*
X265645Y410628D02*
X266231Y410706D01*
X265009Y410551D02*
X265645Y410628D01*
X264369Y410481D02*
X265009Y410551D01*
X263677Y410414D02*
X264369Y410481D01*
X262934Y410353D02*
X263677Y410414D01*
X262090Y410296D02*
X262934Y410353D01*
X261145Y410248D02*
X262090Y410296D01*
X266084Y416111D02*
X266696Y416186D01*
X265420Y416037D02*
X266084Y416111D01*
X264703Y415968D02*
X265420Y416037D01*
X263932Y415904D02*
X264703Y415968D01*
X263105Y415848D02*
X263932Y415904D01*
X262174Y415799D02*
X263105Y415848D01*
X258260Y410201D02*
X258796Y410198D01*
X255172Y410317D02*
X256067Y410265D01*
X254358Y410377D02*
X255172Y410317D01*
X253624Y410441D02*
X254358Y410377D01*
X252933Y410512D02*
X253624Y410441D01*
X252283Y410586D02*
X252933Y410512D01*
X251674Y410664D02*
X252283Y410586D01*
X251105Y410743D02*
X251674Y410664D01*
X250575Y410823D02*
X251105Y410743D01*
X250084Y410901D02*
X250575Y410823D01*
X249597Y410985D02*
X250084Y410901D01*
X249148Y411066D02*
X249597Y410985D01*
X248702Y411151D02*
X249148Y411066D01*
X248293Y411233D02*
X248702Y411151D01*
X255834Y415889D02*
X256711Y415833D01*
X255061Y415951D02*
X255834Y415889D01*
X254342Y416018D02*
X255061Y415951D01*
X253676Y416089D02*
X254342Y416018D01*
X253063Y416162D02*
X253676Y416089D01*
X252454Y416242D02*
X253063Y416162D01*
X251897Y416322D02*
X252454Y416242D01*
X251389Y416400D02*
X251897Y416322D01*
X250885Y416483D02*
X251389Y416400D01*
X250430Y416562D02*
X250885Y416483D01*
X249979Y416646D02*
X250430Y416562D01*
X249530Y416733D02*
X249979Y416646D01*
X249129Y416814D02*
X249530Y416733D01*
X248731Y416899D02*
X249129Y416814D01*
X248335Y416987D02*
X248731Y416899D01*
X240884Y445649D02*
X241066Y445730D01*
X241250Y445809D01*
X241435Y445887D01*
X241621Y445965D01*
X241846Y446058D01*
X242072Y446149D01*
X242300Y446239D01*
X242529Y446328D01*
X242760Y446416D01*
X242992Y446502D01*
X243226Y446588D01*
X243462Y446672D01*
X243699Y446755D01*
X243937Y446837D01*
X244177Y446918D01*
X244459Y447011D01*
X244743Y447102D01*
X245028Y447191D01*
X245316Y447279D01*
X245605Y447365D01*
X245897Y447450D01*
X246190Y447532D01*
X246485Y447613D01*
X239464Y444982D02*
X239638Y445068D01*
X239812Y445153D01*
X239988Y445238D01*
X240165Y445322D01*
X240343Y445405D01*
X240522Y445487D01*
X228709Y445888D02*
X230626Y449139D01*
X230367Y448989D02*
X240326Y445393D01*
X240522Y445487D02*
X240702Y445569D01*
X240884Y445649D01*
X232922Y424748D02*
X233009Y424656D01*
X232835Y424841D02*
X232922Y424748D01*
X232749Y424933D02*
X232835Y424841D01*
X232665Y425026D02*
X232749Y424933D01*
X232581Y425119D02*
X232665Y425026D01*
X232498Y425213D02*
X232581Y425119D01*
X232416Y425307D02*
X232498Y425213D01*
X232336Y425401D02*
X232416Y425307D01*
X232256Y425496D02*
X232336Y425401D01*
X232178Y425591D02*
X232256Y425496D01*
X232100Y425686D02*
X232178Y425591D01*
X232024Y425781D02*
X232100Y425686D01*
X231948Y425877D02*
X232024Y425781D01*
X231874Y425973D02*
X231948Y425877D01*
X231800Y426070D02*
X231874Y425973D01*
X231728Y426166D02*
X231800Y426070D01*
X231657Y426263D02*
X231728Y426166D01*
X231587Y426361D02*
X231657Y426263D01*
X231518Y426458D02*
X231587Y426361D01*
X231450Y426556D02*
X231518Y426458D01*
X231383Y426655D02*
X231450Y426556D01*
X231317Y426753D02*
X231383Y426655D01*
X231252Y426852D02*
X231317Y426753D01*
X231188Y426951D02*
X231252Y426852D01*
X231126Y427050D02*
X231188Y426951D01*
X231064Y427150D02*
X231126Y427050D01*
X231004Y427250D02*
X231064Y427150D01*
X230944Y427350D02*
X231004Y427250D01*
X230046Y435551D02*
X230100Y435710D01*
X230152Y435856D01*
X230206Y436002D01*
X230258Y436135D01*
X230311Y436268D01*
X230367Y436401D01*
X230424Y436533D01*
X230478Y436652D01*
X230533Y436772D01*
X230590Y436891D01*
X230649Y437010D01*
X230703Y437116D01*
X230758Y437222D01*
X230814Y437328D01*
X230872Y437434D01*
X230930Y437539D01*
X230990Y437645D01*
X231052Y437749D01*
X231114Y437854D01*
X231178Y437958D01*
X231235Y438050D01*
X231294Y438142D01*
X231353Y438234D01*
X231413Y438326D01*
X231475Y438417D01*
X231537Y438508D01*
X231600Y438599D01*
X231664Y438690D01*
X231729Y438780D01*
X231795Y438870D01*
X231862Y438960D01*
X231930Y439049D01*
X231998Y439139D01*
X232068Y439228D01*
X232138Y439316D01*
X232210Y439405D01*
X232282Y439493D01*
X232355Y439581D01*
X232429Y439669D01*
X232504Y439756D01*
X232580Y439843D01*
X232656Y439930D01*
X232734Y440017D01*
X232812Y440103D01*
X232891Y440189D01*
X232972Y440274D01*
X233053Y440360D01*
X233134Y440445D01*
X233217Y440530D01*
X233301Y440614D01*
X233385Y440699D01*
X233470Y440783D01*
X233556Y440866D01*
X233643Y440949D01*
X233731Y441032D01*
X233820Y441115D01*
X233909Y441198D01*
X234000Y441280D01*
X234091Y441362D01*
X234182Y441443D01*
X234275Y441524D01*
X234369Y441605D01*
X234463Y441686D01*
X234558Y441766D01*
X234654Y441846D01*
X234751Y441925D01*
X234848Y442005D01*
X234947Y442084D01*
X235046Y442162D01*
X235146Y442240D01*
X235247Y442318D01*
X235348Y442396D01*
X235450Y442473D01*
X235553Y442550D01*
X235657Y442627D01*
X235762Y442703D01*
X235867Y442779D01*
X235973Y442855D01*
X236080Y442930D01*
X236188Y443005D01*
X236296Y443079D01*
X236406Y443154D01*
X236516Y443228D01*
X236626Y443301D01*
X236751Y443383D01*
X229961Y435543D02*
X230014Y435701D01*
X230070Y435859D01*
X230128Y436016D01*
X230190Y436173D01*
X230243Y436303D01*
X230298Y436432D01*
X230354Y436562D01*
X230413Y436691D01*
X230473Y436819D01*
X230535Y436948D01*
X230599Y437076D01*
X230664Y437203D01*
X230732Y437330D01*
X230787Y437431D01*
X230843Y437532D01*
X230901Y437633D01*
X230959Y437733D01*
X231019Y437834D01*
X231079Y437933D01*
X231141Y438033D01*
X231204Y438132D01*
X231268Y438231D01*
X231333Y438330D01*
X231399Y438429D01*
X231467Y438527D01*
X231535Y438625D01*
X231604Y438722D01*
X231675Y438820D01*
X231746Y438917D01*
X231819Y439013D01*
X231892Y439110D01*
X231967Y439206D01*
X232043Y439301D01*
X232119Y439397D01*
X232197Y439492D01*
X232276Y439587D01*
X232356Y439681D01*
X232437Y439775D01*
X232519Y439869D01*
X232602Y439963D01*
X232686Y440056D01*
X232771Y440149D01*
X232857Y440241D01*
X232944Y440334D01*
X233032Y440425D01*
X233120Y440517D01*
X233211Y440608D01*
X233301Y440699D01*
X233393Y440789D01*
X233486Y440880D01*
X233580Y440970D01*
X233675Y441059D01*
X233771Y441148D01*
X233868Y441237D01*
X233965Y441325D01*
X234064Y441413D01*
X234164Y441501D01*
X234264Y441588D01*
X234366Y441675D01*
X234468Y441762D01*
X234572Y441848D01*
X234676Y441934D01*
X234781Y442019D01*
X234888Y442104D01*
X234995Y442189D01*
X235103Y442273D01*
X235212Y442357D01*
X235322Y442440D01*
X235432Y442523D01*
X235544Y442606D01*
X235657Y442688D01*
X235770Y442771D01*
X235884Y442852D01*
X236000Y442933D01*
X236116Y443014D01*
X236233Y443094D01*
X236350Y443174D01*
X236469Y443254D01*
X236589Y443333D01*
X230773Y427653D02*
X230829Y427551D01*
X230705Y427779D02*
X230773Y427653D01*
X230638Y427906D02*
X230705Y427779D01*
X230573Y428034D02*
X230638Y427906D01*
X230510Y428162D02*
X230573Y428034D01*
X230449Y428290D02*
X230510Y428162D01*
X230389Y428419D02*
X230449Y428290D01*
X230331Y428548D02*
X230389Y428419D01*
X230275Y428678D02*
X230331Y428548D01*
X230221Y428807D02*
X230275Y428678D01*
X230169Y428938D02*
X230221Y428807D01*
X230109Y429095D02*
X230169Y428938D01*
X230051Y429252D02*
X230109Y429095D01*
X229996Y429410D02*
X230051Y429252D01*
X230886Y427451D02*
X230944Y427350D01*
X230829Y427551D02*
X230886Y427451D01*
X246061Y411747D02*
X246388Y411664D01*
X245735Y411831D02*
X246061Y411747D01*
X245412Y411918D02*
X245735Y411831D01*
X245091Y412007D02*
X245412Y411918D01*
X244804Y412089D02*
X245091Y412007D01*
X244519Y412172D02*
X244804Y412089D01*
X244235Y412257D02*
X244519Y412172D01*
X243954Y412344D02*
X244235Y412257D01*
X243674Y412432D02*
X243954Y412344D01*
X243396Y412522D02*
X243674Y412432D01*
X243151Y412603D02*
X243396Y412522D01*
X242906Y412686D02*
X243151Y412603D01*
X242664Y412769D02*
X242906Y412686D01*
X242423Y412854D02*
X242664Y412769D01*
X242184Y412940D02*
X242423Y412854D01*
X241946Y413027D02*
X242184Y412940D01*
X241710Y413116D02*
X241946Y413027D01*
X241475Y413206D02*
X241710Y413116D01*
X241271Y413285D02*
X241475Y413206D01*
X241068Y413365D02*
X241271Y413285D01*
X240867Y413447D02*
X241068Y413365D01*
X245938Y417597D02*
X246232Y417515D01*
X245647Y417682D02*
X245938Y417597D01*
X245357Y417767D02*
X245647Y417682D01*
X245069Y417855D02*
X245357Y417767D01*
X244783Y417944D02*
X245069Y417855D01*
X244499Y418035D02*
X244783Y417944D01*
X244217Y418127D02*
X244499Y418035D01*
X243977Y418208D02*
X244217Y418127D01*
X243739Y418290D02*
X243977Y418208D01*
X243501Y418373D02*
X243739Y418290D01*
X243266Y418457D02*
X243501Y418373D01*
X243031Y418542D02*
X243266Y418457D01*
X242799Y418629D02*
X243031Y418542D01*
X242567Y418716D02*
X242799Y418629D01*
X242338Y418805D02*
X242567Y418716D01*
X242110Y418895D02*
X242338Y418805D01*
X241883Y418986D02*
X242110Y418895D01*
X241658Y419078D02*
X241883Y418986D01*
X241435Y419171D02*
X241658Y419078D01*
X241250Y419250D02*
X241435Y419171D01*
X241066Y419329D02*
X241250Y419250D01*
X240884Y419409D02*
X241066Y419329D01*
X240270Y413696D02*
X240468Y413612D01*
X240074Y413781D02*
X240270Y413696D01*
X239879Y413866D02*
X240074Y413781D01*
X239685Y413953D02*
X239879Y413866D01*
X239492Y414040D02*
X239685Y413953D01*
X239301Y414128D02*
X239492Y414040D01*
X239111Y414217D02*
X239301Y414128D01*
X238950Y414294D02*
X239111Y414217D01*
X238789Y414372D02*
X238950Y414294D01*
X238629Y414450D02*
X238789Y414372D01*
X238470Y414529D02*
X238629Y414450D01*
X238313Y414609D02*
X238470Y414529D01*
X238156Y414689D02*
X238313Y414609D01*
X238001Y414769D02*
X238156Y414689D01*
X237846Y414851D02*
X238001Y414769D01*
X237693Y414933D02*
X237846Y414851D01*
X237540Y415015D02*
X237693Y414933D01*
X237388Y415098D02*
X237540Y415015D01*
X237238Y415182D02*
X237388Y415098D01*
X237089Y415266D02*
X237238Y415182D01*
X236940Y415351D02*
X237089Y415266D01*
X236793Y415436D02*
X236940Y415351D01*
X236647Y415522D02*
X236793Y415436D01*
X236502Y415608D02*
X236647Y415522D01*
X236358Y415695D02*
X236502Y415608D01*
X236215Y415783D02*
X236358Y415695D01*
X236073Y415871D02*
X236215Y415783D01*
X235933Y415960D02*
X236073Y415871D01*
X235816Y416034D02*
X235933Y415960D01*
X235701Y416109D02*
X235816Y416034D01*
X235586Y416184D02*
X235701Y416109D01*
X235472Y416260D02*
X235586Y416184D01*
X235359Y416336D02*
X235472Y416260D01*
X235246Y416412D02*
X235359Y416336D01*
X235135Y416489D02*
X235246Y416412D01*
X235024Y416566D02*
X235135Y416489D01*
X234914Y416643D02*
X235024Y416566D01*
X234804Y416721D02*
X234914Y416643D01*
X234696Y416799D02*
X234804Y416721D01*
X234588Y416877D02*
X234696Y416799D01*
X234481Y416956D02*
X234588Y416877D01*
X234375Y417035D02*
X234481Y416956D01*
X234270Y417115D02*
X234375Y417035D01*
X234166Y417195D02*
X234270Y417115D01*
X234062Y417275D02*
X234166Y417195D01*
X233959Y417355D02*
X234062Y417275D01*
X233857Y417436D02*
X233959Y417355D01*
X233757Y417518D02*
X233857Y417436D01*
X233656Y417599D02*
X233757Y417518D01*
X233557Y417681D02*
X233656Y417599D01*
X233458Y417763D02*
X233557Y417681D01*
X233361Y417846D02*
X233458Y417763D01*
X233264Y417929D02*
X233361Y417846D01*
X233168Y418012D02*
X233264Y417929D01*
X233073Y418096D02*
X233168Y418012D01*
X232979Y418180D02*
X233073Y418096D01*
X232885Y418264D02*
X232979Y418180D01*
X232793Y418349D02*
X232885Y418264D01*
X232701Y418434D02*
X232793Y418349D01*
X232611Y418519D02*
X232701Y418434D01*
X232521Y418605D02*
X232611Y418519D01*
X232432Y418690D02*
X232521Y418605D01*
X232344Y418777D02*
X232432Y418690D01*
X232257Y418863D02*
X232344Y418777D01*
X232171Y418950D02*
X232257Y418863D01*
X232085Y419037D02*
X232171Y418950D01*
X232001Y419125D02*
X232085Y419037D01*
X231917Y419212D02*
X232001Y419125D01*
X231835Y419300D02*
X231917Y419212D01*
X231753Y419389D02*
X231835Y419300D01*
X231672Y419478D02*
X231753Y419389D01*
X231592Y419567D02*
X231672Y419478D01*
X231513Y419656D02*
X231592Y419567D01*
X231435Y419745D02*
X231513Y419656D01*
X231358Y419835D02*
X231435Y419745D01*
X231282Y419925D02*
X231358Y419835D01*
X231207Y420016D02*
X231282Y419925D01*
X231132Y420107D02*
X231207Y420016D01*
X231059Y420198D02*
X231132Y420107D01*
X230987Y420289D02*
X231059Y420198D01*
X230915Y420381D02*
X230987Y420289D01*
X230845Y420472D02*
X230915Y420381D01*
X230775Y420565D02*
X230845Y420472D01*
X230707Y420657D02*
X230775Y420565D01*
X230626Y420768D02*
X230707Y420657D01*
X228977Y412950D02*
X230367Y420580D01*
X240343Y419654D02*
X240522Y419572D01*
X240165Y419738D02*
X240343Y419654D01*
X239988Y419821D02*
X240165Y419738D01*
X239812Y419906D02*
X239988Y419821D01*
X239638Y419991D02*
X239812Y419906D01*
X239464Y420077D02*
X239638Y419991D01*
X239292Y420164D02*
X239464Y420077D01*
X239121Y420252D02*
X239292Y420164D01*
X238952Y420340D02*
X239121Y420252D01*
X238783Y420429D02*
X238952Y420340D01*
X238616Y420518D02*
X238783Y420429D01*
X238450Y420609D02*
X238616Y420518D01*
X238286Y420700D02*
X238450Y420609D01*
X238122Y420792D02*
X238286Y420700D01*
X237960Y420884D02*
X238122Y420792D01*
X237799Y420977D02*
X237960Y420884D01*
X237671Y421052D02*
X237799Y420977D01*
X237544Y421127D02*
X237671Y421052D01*
X237418Y421203D02*
X237544Y421127D01*
X237293Y421279D02*
X237418Y421203D01*
X237168Y421356D02*
X237293Y421279D01*
X237045Y421433D02*
X237168Y421356D01*
X236922Y421511D02*
X237045Y421433D01*
X236800Y421589D02*
X236922Y421511D01*
X236679Y421667D02*
X236800Y421589D01*
X236559Y421746D02*
X236679Y421667D01*
X236439Y421825D02*
X236559Y421746D01*
X236321Y421905D02*
X236439Y421825D01*
X236203Y421985D02*
X236321Y421905D01*
X236087Y422065D02*
X236203Y421985D01*
X235971Y422146D02*
X236087Y422065D01*
X235856Y422227D02*
X235971Y422146D01*
X235742Y422309D02*
X235856Y422227D01*
X235628Y422391D02*
X235742Y422309D01*
X235516Y422473D02*
X235628Y422391D01*
X235405Y422556D02*
X235516Y422473D01*
X235294Y422639D02*
X235405Y422556D01*
X235184Y422723D02*
X235294Y422639D01*
X235076Y422807D02*
X235184Y422723D01*
X234968Y422891D02*
X235076Y422807D01*
X234861Y422976D02*
X234968Y422891D01*
X234755Y423061D02*
X234861Y422976D01*
X240667Y413529D02*
X240867Y413447D01*
X240468Y413612D02*
X240667Y413529D01*
X240702Y419490D02*
X240884Y419409D01*
X240522Y419572D02*
X240702Y419490D01*
X218043Y428078D02*
X220192Y432015D01*
X217960Y428078D02*
X225996Y424779D01*
X224709Y414490D02*
X226047Y409953D01*
X216342Y417676D02*
X224838Y414017D01*
D16*
X490000Y40000D02*
G03*
X490000Y40000I-30000J0D01*
G01*
Y620000D02*
G03*
X490000Y620000I-30000J0D01*
G01*
X70000Y620000D02*
G03*
X70000Y620000I-30000J0D01*
G01*
Y40000D02*
G03*
X70000Y40000I-30000J0D01*
G01*
M02*
