G04*
G04 #@! TF.GenerationSoftware,Altium Limited,Altium Designer,20.2.6 (244)*
G04*
G04 Layer_Color=16711935*
%FSLAX44Y44*%
%MOMM*%
G71*
G04*
G04 #@! TF.SameCoordinates,206DDC9A-6AB5-4D35-AA82-BAB3787187E7*
G04*
G04*
G04 #@! TF.FilePolarity,Positive*
G04*
G01*
G75*
%ADD14C,0.1000*%
D14*
X110000Y464000D02*
G03*
X110000Y464000I-5000J0D01*
G01*
X722000Y360750D02*
X752000D01*
Y392750D01*
X722000D02*
X752000D01*
X722000Y360750D02*
Y392750D01*
X96000Y385000D02*
Y473000D01*
X136000Y385000D02*
Y473000D01*
X96000D02*
X136000D01*
X96000Y385000D02*
X136000D01*
X682000Y442000D02*
Y506000D01*
Y442000D02*
X744000D01*
Y506000D01*
X682000D02*
X744000D01*
X665250Y379750D02*
X674750D01*
X665250Y362250D02*
X674750D01*
Y379750D01*
X665250Y362250D02*
Y379750D01*
X640250Y379750D02*
X649750D01*
X640250Y362250D02*
X649750D01*
Y379750D01*
X640250Y362250D02*
Y379750D01*
X52250Y388250D02*
X61750D01*
X52250Y405750D02*
X61750D01*
X52250Y388250D02*
Y405750D01*
X61750Y388250D02*
Y405750D01*
X590728Y407250D02*
X600229D01*
X590728Y424750D02*
X600229D01*
X590728Y407250D02*
Y424750D01*
X600229Y407250D02*
Y424750D01*
X665250Y407250D02*
X674750D01*
X665250Y424750D02*
X674750D01*
X665250Y407250D02*
Y424750D01*
X674750Y407250D02*
Y424750D01*
X592217Y528530D02*
Y538030D01*
X609716Y528530D02*
Y538030D01*
X592217D02*
X609716D01*
X592217Y528530D02*
X609716D01*
X592217Y553930D02*
Y563430D01*
X609716Y553930D02*
Y563430D01*
X592217D02*
X609716D01*
X592217Y553930D02*
X609716D01*
X171530Y412350D02*
X181030D01*
X171530Y394850D02*
X181030D01*
Y412350D01*
X171530Y394850D02*
Y412350D01*
X690250Y379750D02*
X699750D01*
X690250Y362250D02*
X699750D01*
Y379750D01*
X690250Y362250D02*
Y379750D01*
X52401Y352250D02*
X61900D01*
X52401Y369750D02*
X61900D01*
X52401Y352250D02*
Y369750D01*
X61900Y352250D02*
Y369750D01*
X171530Y444750D02*
X181030D01*
X171530Y427250D02*
X181030D01*
Y444750D01*
X171530Y427250D02*
Y444750D01*
X52250Y483500D02*
X61750D01*
X52250Y466000D02*
X61750D01*
Y483500D01*
X52250Y466000D02*
Y483500D01*
X171530Y357250D02*
X181030D01*
X171530Y374750D02*
X181030D01*
X171530Y357250D02*
Y374750D01*
X181030Y357250D02*
Y374750D01*
X171250Y469250D02*
X180750D01*
X171250Y486750D02*
X180750D01*
X171250Y469250D02*
Y486750D01*
X180750Y469250D02*
Y486750D01*
X127250Y359500D02*
Y369000D01*
X144750Y359500D02*
Y369000D01*
X127250D02*
X144750D01*
X127250Y359500D02*
X144750D01*
X52250Y426250D02*
X61750D01*
X52250Y443750D02*
X61750D01*
X52250Y426250D02*
Y443750D01*
X61750Y426250D02*
Y443750D01*
X91000Y360000D02*
Y370000D01*
X109000Y360000D02*
Y370000D01*
X91000D02*
X109000D01*
X91000Y360000D02*
X109000D01*
X623998Y409001D02*
Y425002D01*
X615998D02*
X623998D01*
X615998Y409001D02*
Y425002D01*
Y409001D02*
X623998D01*
X648598D02*
Y425002D01*
X640599D02*
X648598D01*
X640599Y409001D02*
Y425002D01*
Y409001D02*
X648598D01*
M02*
