G04*
G04 #@! TF.GenerationSoftware,Altium Limited,Altium Designer,20.2.6 (244)*
G04*
G04 Layer_Physical_Order=2*
G04 Layer_Color=16711680*
%FSLAX44Y44*%
%MOMM*%
G71*
G04*
G04 #@! TF.SameCoordinates,206DDC9A-6AB5-4D35-AA82-BAB3787187E7*
G04*
G04*
G04 #@! TF.FilePolarity,Positive*
G04*
G01*
G75*
%ADD49C,0.1500*%
%ADD50C,0.5000*%
%ADD51C,0.3000*%
%ADD53C,1.5240*%
%ADD54R,1.5240X1.5240*%
%ADD55C,3.0000*%
%ADD56C,1.5000*%
%ADD57R,1.5000X1.5000*%
%ADD58C,0.6000*%
G36*
X795000Y690000D02*
Y10000D01*
X790000Y5000D01*
X10000D01*
X5000Y10000D01*
Y690000D01*
X10000Y695000D01*
X790000D01*
X795000Y690000D01*
D02*
G37*
%LPC*%
G36*
X535560Y670320D02*
X526270D01*
Y661030D01*
X535560D01*
Y670320D01*
D02*
G37*
G36*
X306660D02*
X297370D01*
Y661030D01*
X306660D01*
Y670320D01*
D02*
G37*
G36*
X524770D02*
X515480D01*
Y661030D01*
X524770D01*
Y670320D01*
D02*
G37*
G36*
X295870D02*
X286580D01*
Y661030D01*
X295870D01*
Y670320D01*
D02*
G37*
G36*
X500120Y669106D02*
X497836Y668805D01*
X495707Y667923D01*
X493879Y666521D01*
X492477Y664693D01*
X491595Y662564D01*
X491295Y660280D01*
X491595Y657996D01*
X492477Y655867D01*
X493879Y654039D01*
X495707Y652637D01*
X497836Y651755D01*
X500120Y651454D01*
X502404Y651755D01*
X504533Y652637D01*
X506361Y654039D01*
X507763Y655867D01*
X508645Y657996D01*
X508946Y660280D01*
X508645Y662564D01*
X507763Y664693D01*
X506361Y666521D01*
X504533Y667923D01*
X502404Y668805D01*
X500120Y669106D01*
D02*
G37*
G36*
X271220D02*
X268936Y668805D01*
X266807Y667923D01*
X264979Y666521D01*
X263577Y664693D01*
X262695Y662564D01*
X262394Y660280D01*
X262695Y657996D01*
X263577Y655867D01*
X264979Y654039D01*
X266807Y652637D01*
X268936Y651755D01*
X271220Y651454D01*
X273504Y651755D01*
X275632Y652637D01*
X277460Y654039D01*
X278863Y655867D01*
X279745Y657996D01*
X280045Y660280D01*
X279745Y662564D01*
X278863Y664693D01*
X277460Y666521D01*
X275632Y667923D01*
X273504Y668805D01*
X271220Y669106D01*
D02*
G37*
G36*
X535560Y659530D02*
X526270D01*
Y650240D01*
X535560D01*
Y659530D01*
D02*
G37*
G36*
X524770D02*
X515480D01*
Y650240D01*
X524770D01*
Y659530D01*
D02*
G37*
G36*
X306660D02*
X297370D01*
Y650240D01*
X306660D01*
Y659530D01*
D02*
G37*
G36*
X295870D02*
X286580D01*
Y650240D01*
X295870D01*
Y659530D01*
D02*
G37*
G36*
X526270Y644908D02*
Y635630D01*
X535548D01*
X535302Y637501D01*
X534290Y639943D01*
X532681Y642041D01*
X530583Y643650D01*
X528141Y644662D01*
X526270Y644908D01*
D02*
G37*
G36*
X297370D02*
Y635630D01*
X306648D01*
X306401Y637501D01*
X305390Y639943D01*
X303780Y642041D01*
X301683Y643650D01*
X299241Y644662D01*
X297370Y644908D01*
D02*
G37*
G36*
X295870D02*
X293999Y644662D01*
X291556Y643650D01*
X289459Y642041D01*
X287850Y639943D01*
X286838Y637501D01*
X286592Y635630D01*
X295870D01*
Y644908D01*
D02*
G37*
G36*
X524770D02*
X522899Y644662D01*
X520457Y643650D01*
X518359Y642041D01*
X516750Y639943D01*
X515738Y637501D01*
X515492Y635630D01*
X524770D01*
Y644908D01*
D02*
G37*
G36*
X500120Y643706D02*
X497836Y643405D01*
X495707Y642523D01*
X493879Y641121D01*
X492477Y639293D01*
X491595Y637164D01*
X491295Y634880D01*
X491595Y632596D01*
X492477Y630467D01*
X493879Y628639D01*
X495707Y627237D01*
X497836Y626355D01*
X500120Y626054D01*
X502404Y626355D01*
X504533Y627237D01*
X506361Y628639D01*
X507763Y630467D01*
X508645Y632596D01*
X508946Y634880D01*
X508645Y637164D01*
X507763Y639293D01*
X506361Y641121D01*
X504533Y642523D01*
X502404Y643405D01*
X500120Y643706D01*
D02*
G37*
G36*
X271220D02*
X268936Y643405D01*
X266807Y642523D01*
X264979Y641121D01*
X263577Y639293D01*
X262695Y637164D01*
X262394Y634880D01*
X262695Y632596D01*
X263577Y630467D01*
X264979Y628639D01*
X266807Y627237D01*
X268936Y626355D01*
X271220Y626054D01*
X273504Y626355D01*
X275632Y627237D01*
X277460Y628639D01*
X278863Y630467D01*
X279745Y632596D01*
X280045Y634880D01*
X279745Y637164D01*
X278863Y639293D01*
X277460Y641121D01*
X275632Y642523D01*
X273504Y643405D01*
X271220Y643706D01*
D02*
G37*
G36*
X535548Y634130D02*
X526270D01*
Y624852D01*
X528141Y625098D01*
X530583Y626110D01*
X532681Y627719D01*
X534290Y629817D01*
X535302Y632259D01*
X535548Y634130D01*
D02*
G37*
G36*
X306648D02*
X297370D01*
Y624852D01*
X299241Y625098D01*
X301683Y626110D01*
X303780Y627719D01*
X305390Y629817D01*
X306401Y632259D01*
X306648Y634130D01*
D02*
G37*
G36*
X524770D02*
X515492D01*
X515738Y632259D01*
X516750Y629817D01*
X518359Y627719D01*
X520457Y626110D01*
X522899Y625098D01*
X524770Y624852D01*
Y634130D01*
D02*
G37*
G36*
X295870D02*
X286592D01*
X286838Y632259D01*
X287850Y629817D01*
X289459Y627719D01*
X291556Y626110D01*
X293999Y625098D01*
X295870Y624852D01*
Y634130D01*
D02*
G37*
G36*
X749830Y679742D02*
X745162Y679375D01*
X740608Y678281D01*
X736282Y676489D01*
X732289Y674043D01*
X728728Y671002D01*
X725687Y667441D01*
X723241Y663448D01*
X721449Y659122D01*
X720355Y654568D01*
X719988Y649900D01*
X720355Y645232D01*
X721449Y640678D01*
X723241Y636352D01*
X725687Y632359D01*
X728728Y628798D01*
X732289Y625757D01*
X736282Y623311D01*
X740608Y621519D01*
X745162Y620425D01*
X749830Y620058D01*
X754498Y620425D01*
X759052Y621519D01*
X763378Y623311D01*
X767371Y625757D01*
X770931Y628798D01*
X773973Y632359D01*
X776419Y636352D01*
X778211Y640678D01*
X779305Y645232D01*
X779672Y649900D01*
X779305Y654568D01*
X778211Y659122D01*
X776419Y663448D01*
X773973Y667441D01*
X770931Y671002D01*
X767371Y674043D01*
X763378Y676489D01*
X759052Y678281D01*
X754498Y679375D01*
X749830Y679742D01*
D02*
G37*
G36*
X50080D02*
X45412Y679375D01*
X40858Y678281D01*
X36532Y676489D01*
X32539Y674043D01*
X28979Y671002D01*
X25937Y667441D01*
X23491Y663448D01*
X21699Y659122D01*
X20605Y654568D01*
X20238Y649900D01*
X20605Y645232D01*
X21699Y640678D01*
X23491Y636352D01*
X25937Y632359D01*
X28979Y628798D01*
X32539Y625757D01*
X36532Y623311D01*
X40858Y621519D01*
X45412Y620425D01*
X50080Y620058D01*
X54748Y620425D01*
X59302Y621519D01*
X63628Y623311D01*
X67621Y625757D01*
X71182Y628798D01*
X74223Y632359D01*
X76669Y636352D01*
X78461Y640678D01*
X79555Y645232D01*
X79922Y649900D01*
X79555Y654568D01*
X78461Y659122D01*
X76669Y663448D01*
X74223Y667441D01*
X71182Y671002D01*
X67621Y674043D01*
X63628Y676489D01*
X59302Y678281D01*
X54748Y679375D01*
X50080Y679742D01*
D02*
G37*
G36*
X297370Y619508D02*
Y610230D01*
X306648D01*
X306401Y612101D01*
X305390Y614543D01*
X303780Y616641D01*
X301683Y618250D01*
X299241Y619262D01*
X297370Y619508D01*
D02*
G37*
G36*
X295870D02*
X293999Y619262D01*
X291556Y618250D01*
X289459Y616641D01*
X287850Y614543D01*
X286838Y612101D01*
X286592Y610230D01*
X295870D01*
Y619508D01*
D02*
G37*
G36*
X525520Y618306D02*
X523236Y618005D01*
X521107Y617123D01*
X519279Y615721D01*
X517877Y613893D01*
X516995Y611764D01*
X516694Y609480D01*
X516995Y607196D01*
X517877Y605067D01*
X519279Y603239D01*
X521107Y601837D01*
X523236Y600955D01*
X525520Y600654D01*
X527804Y600955D01*
X529933Y601837D01*
X531761Y603239D01*
X533163Y605067D01*
X534045Y607196D01*
X534346Y609480D01*
X534045Y611764D01*
X533163Y613893D01*
X531761Y615721D01*
X529933Y617123D01*
X527804Y618005D01*
X525520Y618306D01*
D02*
G37*
G36*
X500120D02*
X497836Y618005D01*
X495707Y617123D01*
X493879Y615721D01*
X492477Y613893D01*
X491595Y611764D01*
X491295Y609480D01*
X491595Y607196D01*
X492477Y605067D01*
X493879Y603239D01*
X495707Y601837D01*
X497836Y600955D01*
X500120Y600654D01*
X502404Y600955D01*
X504533Y601837D01*
X506361Y603239D01*
X507763Y605067D01*
X508645Y607196D01*
X508946Y609480D01*
X508645Y611764D01*
X507763Y613893D01*
X506361Y615721D01*
X504533Y617123D01*
X502404Y618005D01*
X500120Y618306D01*
D02*
G37*
G36*
X271220D02*
X268936Y618005D01*
X266807Y617123D01*
X264979Y615721D01*
X263577Y613893D01*
X262695Y611764D01*
X262394Y609480D01*
X262695Y607196D01*
X263577Y605067D01*
X264979Y603239D01*
X266807Y601837D01*
X268936Y600955D01*
X271220Y600654D01*
X273504Y600955D01*
X275632Y601837D01*
X277460Y603239D01*
X278863Y605067D01*
X279745Y607196D01*
X280045Y609480D01*
X279745Y611764D01*
X278863Y613893D01*
X277460Y615721D01*
X275632Y617123D01*
X273504Y618005D01*
X271220Y618306D01*
D02*
G37*
G36*
X306648Y608730D02*
X297370D01*
Y599452D01*
X299241Y599698D01*
X301683Y600710D01*
X303780Y602319D01*
X305390Y604417D01*
X306401Y606859D01*
X306648Y608730D01*
D02*
G37*
G36*
X295870D02*
X286592D01*
X286838Y606859D01*
X287850Y604417D01*
X289459Y602319D01*
X291556Y600710D01*
X293999Y599698D01*
X295870Y599452D01*
Y608730D01*
D02*
G37*
G36*
X525520Y592906D02*
X523236Y592605D01*
X521107Y591723D01*
X519279Y590321D01*
X517877Y588493D01*
X516995Y586364D01*
X516694Y584080D01*
X516995Y581796D01*
X517877Y579667D01*
X519279Y577839D01*
X521107Y576437D01*
X523236Y575555D01*
X525520Y575255D01*
X527804Y575555D01*
X529933Y576437D01*
X531761Y577839D01*
X533163Y579667D01*
X534045Y581796D01*
X534346Y584080D01*
X534045Y586364D01*
X533163Y588493D01*
X531761Y590321D01*
X529933Y591723D01*
X527804Y592605D01*
X525520Y592906D01*
D02*
G37*
G36*
X500120D02*
X497836Y592605D01*
X495707Y591723D01*
X493879Y590321D01*
X492477Y588493D01*
X491595Y586364D01*
X491295Y584080D01*
X491595Y581796D01*
X492477Y579667D01*
X493879Y577839D01*
X495707Y576437D01*
X497836Y575555D01*
X500120Y575255D01*
X502404Y575555D01*
X504533Y576437D01*
X506361Y577839D01*
X507763Y579667D01*
X508645Y581796D01*
X508946Y584080D01*
X508645Y586364D01*
X507763Y588493D01*
X506361Y590321D01*
X504533Y591723D01*
X502404Y592605D01*
X500120Y592906D01*
D02*
G37*
G36*
X296620D02*
X294336Y592605D01*
X292207Y591723D01*
X290379Y590321D01*
X288977Y588493D01*
X288095Y586364D01*
X287794Y584080D01*
X288095Y581796D01*
X288977Y579667D01*
X290379Y577839D01*
X292207Y576437D01*
X294336Y575555D01*
X296620Y575255D01*
X298904Y575555D01*
X301033Y576437D01*
X302860Y577839D01*
X304263Y579667D01*
X305145Y581796D01*
X305445Y584080D01*
X305145Y586364D01*
X304263Y588493D01*
X302860Y590321D01*
X301033Y591723D01*
X298904Y592605D01*
X296620Y592906D01*
D02*
G37*
G36*
X271220D02*
X268936Y592605D01*
X266807Y591723D01*
X264979Y590321D01*
X263577Y588493D01*
X262695Y586364D01*
X262394Y584080D01*
X262695Y581796D01*
X263577Y579667D01*
X263727Y579471D01*
X253558Y569302D01*
X253116Y568641D01*
X252961Y567860D01*
Y554000D01*
X253116Y553220D01*
X253558Y552558D01*
X261314Y544802D01*
X261558Y544437D01*
X262437Y543558D01*
X262437Y543558D01*
X263098Y543116D01*
X263879Y542961D01*
X268408D01*
X268660Y541691D01*
X266807Y540923D01*
X264979Y539521D01*
X263577Y537693D01*
X262910Y536084D01*
X201530D01*
X200457Y535871D01*
X199547Y535263D01*
X199547Y535263D01*
X143348Y479064D01*
X143250Y479083D01*
X141592Y478753D01*
X140186Y477814D01*
X139247Y476408D01*
X138917Y474750D01*
X138978Y474443D01*
X104017Y439482D01*
X103409Y438573D01*
X103196Y437500D01*
Y379238D01*
X102936Y379064D01*
X101996Y377658D01*
X101667Y376000D01*
X101996Y374342D01*
X102936Y372936D01*
X104342Y371996D01*
X106000Y371667D01*
X107658Y371996D01*
X109064Y372936D01*
X110003Y374342D01*
X110333Y376000D01*
X110003Y377658D01*
X109064Y379064D01*
X108804Y379238D01*
Y436338D01*
X142943Y470478D01*
X143250Y470417D01*
X144908Y470747D01*
X146314Y471686D01*
X147253Y473092D01*
X147583Y474750D01*
X147481Y475265D01*
X202691Y530476D01*
X262910D01*
X263577Y528867D01*
X264979Y527039D01*
X266807Y525637D01*
X268936Y524755D01*
X271220Y524454D01*
X273504Y524755D01*
X275632Y525637D01*
X277460Y527039D01*
X278863Y528867D01*
X279745Y530996D01*
X280045Y533280D01*
X279745Y535564D01*
X278863Y537693D01*
X277460Y539521D01*
X275632Y540923D01*
X273779Y541691D01*
X274032Y542961D01*
X275895D01*
X281961Y536895D01*
Y524879D01*
X282116Y524098D01*
X282558Y523437D01*
X283437Y522558D01*
X283437Y522558D01*
X283802Y522314D01*
X286558Y519558D01*
X286558Y519558D01*
X287220Y519116D01*
X288000Y518961D01*
X288000Y518961D01*
X298955D01*
X301008Y516908D01*
X300289Y515831D01*
X298904Y516405D01*
X296620Y516706D01*
X294336Y516405D01*
X292207Y515523D01*
X290379Y514121D01*
X288977Y512293D01*
X288095Y510164D01*
X287794Y507880D01*
X288095Y505596D01*
X288977Y503467D01*
X290379Y501639D01*
X292207Y500237D01*
X294336Y499355D01*
X296620Y499054D01*
X298904Y499355D01*
X301033Y500237D01*
X302860Y501639D01*
X304263Y503467D01*
X305145Y505596D01*
X305445Y507880D01*
X305145Y510164D01*
X304571Y511549D01*
X305648Y512268D01*
X341761Y476156D01*
Y261078D01*
X341484Y261042D01*
X339327Y260148D01*
X337474Y258726D01*
X336052Y256873D01*
X335158Y254716D01*
X334853Y252400D01*
X335158Y250085D01*
X336052Y247927D01*
X337474Y246074D01*
X339327Y244652D01*
X341484Y243759D01*
X343800Y243454D01*
X346115Y243759D01*
X348273Y244652D01*
X350126Y246074D01*
X351548Y247927D01*
X352441Y250085D01*
X352746Y252400D01*
X352441Y254716D01*
X351548Y256873D01*
X350126Y258726D01*
X348273Y260148D01*
X346115Y261042D01*
X345839Y261078D01*
Y477000D01*
X345684Y477781D01*
X345242Y478442D01*
X301242Y522442D01*
X300580Y522884D01*
X299800Y523039D01*
X288845D01*
X286442Y525442D01*
X286076Y525686D01*
X286039Y525723D01*
Y537740D01*
X285884Y538520D01*
X285442Y539182D01*
X285442Y539182D01*
X278182Y546442D01*
X277520Y546884D01*
X276740Y547039D01*
X264723D01*
X264686Y547076D01*
X264442Y547442D01*
X257039Y554845D01*
Y567016D01*
X266611Y576587D01*
X266807Y576437D01*
X268936Y575555D01*
X271220Y575255D01*
X273504Y575555D01*
X275632Y576437D01*
X277460Y577839D01*
X278863Y579667D01*
X279745Y581796D01*
X280045Y584080D01*
X279745Y586364D01*
X278863Y588493D01*
X277460Y590321D01*
X275632Y591723D01*
X273504Y592605D01*
X271220Y592906D01*
D02*
G37*
G36*
X525520Y567505D02*
X523236Y567205D01*
X521107Y566323D01*
X519279Y564921D01*
X517877Y563093D01*
X516995Y560964D01*
X516694Y558680D01*
X516995Y556396D01*
X517877Y554267D01*
X519279Y552439D01*
X521107Y551037D01*
X523236Y550155D01*
X525520Y549855D01*
X527804Y550155D01*
X529933Y551037D01*
X531761Y552439D01*
X533163Y554267D01*
X534045Y556396D01*
X534346Y558680D01*
X534045Y560964D01*
X533163Y563093D01*
X531761Y564921D01*
X529933Y566323D01*
X527804Y567205D01*
X525520Y567505D01*
D02*
G37*
G36*
X500120D02*
X497836Y567205D01*
X495707Y566323D01*
X493879Y564921D01*
X492477Y563093D01*
X491595Y560964D01*
X491295Y558680D01*
X491595Y556396D01*
X492477Y554267D01*
X493879Y552439D01*
X495707Y551037D01*
X497836Y550155D01*
X500120Y549855D01*
X502404Y550155D01*
X504533Y551037D01*
X506361Y552439D01*
X507763Y554267D01*
X508645Y556396D01*
X508946Y558680D01*
X508645Y560964D01*
X507763Y563093D01*
X506361Y564921D01*
X504533Y566323D01*
X502404Y567205D01*
X500120Y567505D01*
D02*
G37*
G36*
Y516706D02*
X497836Y516405D01*
X495707Y515523D01*
X493879Y514121D01*
X492477Y512293D01*
X491595Y510164D01*
X491295Y507880D01*
X491595Y505596D01*
X492477Y503467D01*
X493879Y501639D01*
X495707Y500237D01*
X497836Y499355D01*
X500120Y499054D01*
X502404Y499355D01*
X504533Y500237D01*
X506361Y501639D01*
X507763Y503467D01*
X508645Y505596D01*
X508946Y507880D01*
X508645Y510164D01*
X507763Y512293D01*
X506361Y514121D01*
X504533Y515523D01*
X502404Y516405D01*
X500120Y516706D01*
D02*
G37*
G36*
X271220D02*
X268936Y516405D01*
X266807Y515523D01*
X264979Y514121D01*
X263577Y512293D01*
X262695Y510164D01*
X262394Y507880D01*
X262695Y505596D01*
X263577Y503467D01*
X264979Y501639D01*
X266807Y500237D01*
X268936Y499355D01*
X271220Y499054D01*
X273504Y499355D01*
X275632Y500237D01*
X277460Y501639D01*
X278863Y503467D01*
X279745Y505596D01*
X280045Y507880D01*
X279745Y510164D01*
X278863Y512293D01*
X277460Y514121D01*
X275632Y515523D01*
X273504Y516405D01*
X271220Y516706D01*
D02*
G37*
G36*
X592160Y498660D02*
X582750D01*
Y489250D01*
X592160D01*
Y498660D01*
D02*
G37*
G36*
X581250D02*
X571840D01*
Y489250D01*
X581250D01*
Y498660D01*
D02*
G37*
G36*
X607400Y497446D02*
X605084Y497142D01*
X602927Y496248D01*
X601074Y494826D01*
X599652Y492973D01*
X598758Y490815D01*
X598453Y488500D01*
X598758Y486184D01*
X599652Y484027D01*
X601074Y482174D01*
X602927Y480752D01*
X605084Y479858D01*
X607400Y479553D01*
X609715Y479858D01*
X611873Y480752D01*
X613726Y482174D01*
X615148Y484027D01*
X616042Y486184D01*
X616347Y488500D01*
X616042Y490815D01*
X615148Y492973D01*
X613726Y494826D01*
X611873Y496248D01*
X609715Y497142D01*
X607400Y497446D01*
D02*
G37*
G36*
X592160Y487750D02*
X582750D01*
Y478340D01*
X592160D01*
Y487750D01*
D02*
G37*
G36*
X296620Y491306D02*
X294336Y491005D01*
X292207Y490123D01*
X290379Y488721D01*
X288977Y486893D01*
X288095Y484764D01*
X287794Y482480D01*
X288095Y480196D01*
X288977Y478067D01*
X290379Y476239D01*
X292207Y474837D01*
X294336Y473955D01*
X296620Y473655D01*
X298904Y473955D01*
X301033Y474837D01*
X302860Y476239D01*
X304263Y478067D01*
X305145Y480196D01*
X305445Y482480D01*
X305145Y484764D01*
X304263Y486893D01*
X302860Y488721D01*
X301033Y490123D01*
X298904Y491005D01*
X296620Y491306D01*
D02*
G37*
G36*
X271220D02*
X268936Y491005D01*
X266807Y490123D01*
X264979Y488721D01*
X263577Y486893D01*
X262695Y484764D01*
X262394Y482480D01*
X262695Y480196D01*
X263577Y478067D01*
X264979Y476239D01*
X266807Y474837D01*
X268936Y473955D01*
X271220Y473655D01*
X273504Y473955D01*
X275632Y474837D01*
X277460Y476239D01*
X278863Y478067D01*
X279745Y480196D01*
X280045Y482480D01*
X279745Y484764D01*
X278863Y486893D01*
X277460Y488721D01*
X275632Y490123D01*
X273504Y491005D01*
X271220Y491306D01*
D02*
G37*
G36*
X525520D02*
X523236Y491005D01*
X521107Y490123D01*
X519279Y488721D01*
X517877Y486893D01*
X516995Y484764D01*
X516694Y482480D01*
X516995Y480196D01*
X517877Y478067D01*
X519279Y476239D01*
X521107Y474837D01*
X523236Y473955D01*
X523585Y473909D01*
X523502Y472639D01*
X515485D01*
X508435Y479689D01*
X508645Y480196D01*
X508946Y482480D01*
X508645Y484764D01*
X507763Y486893D01*
X506361Y488721D01*
X504533Y490123D01*
X502404Y491005D01*
X500120Y491306D01*
X497836Y491005D01*
X495707Y490123D01*
X493879Y488721D01*
X492477Y486893D01*
X491595Y484764D01*
X491295Y482480D01*
X491595Y480196D01*
X492477Y478067D01*
X493879Y476239D01*
X495707Y474837D01*
X497836Y473955D01*
X500120Y473655D01*
X502404Y473955D01*
X504533Y474837D01*
X506223Y476134D01*
X513198Y469158D01*
X513198Y469158D01*
X513860Y468716D01*
X514640Y468561D01*
X535555D01*
X594961Y409155D01*
Y371000D01*
X595116Y370220D01*
X595558Y369558D01*
X604961Y360155D01*
Y221000D01*
X605116Y220220D01*
X605558Y219558D01*
X612558Y212558D01*
X612558Y212558D01*
X613220Y212116D01*
X614000Y211961D01*
X614000Y211961D01*
X631600D01*
X632380Y212116D01*
X633041Y212558D01*
X639905Y219422D01*
X640126Y219252D01*
X642284Y218358D01*
X642561Y218322D01*
Y43444D01*
X636083Y36966D01*
X635091Y37064D01*
X633685Y38003D01*
X632027Y38333D01*
X630368Y38003D01*
X628963Y37064D01*
X628023Y35658D01*
X627693Y34000D01*
X628023Y32342D01*
X628963Y30936D01*
X630368Y29997D01*
X632027Y29667D01*
X633685Y29997D01*
X635091Y30936D01*
X635926Y32187D01*
X636226D01*
X637006Y32342D01*
X637668Y32784D01*
X646042Y41158D01*
X646042Y41158D01*
X646484Y41819D01*
X646639Y42600D01*
X646639Y42600D01*
Y218322D01*
X646915Y218358D01*
X649073Y219252D01*
X650926Y220674D01*
X652348Y222527D01*
X653242Y224685D01*
X653546Y227000D01*
X653242Y229316D01*
X652348Y231474D01*
X650926Y233326D01*
X649073Y234748D01*
X646915Y235642D01*
X644600Y235947D01*
X642284Y235642D01*
X640126Y234748D01*
X638274Y233326D01*
X636852Y231474D01*
X635958Y229316D01*
X635653Y227000D01*
X635958Y224685D01*
X636852Y222527D01*
X637021Y222306D01*
X630755Y216039D01*
X614845D01*
X609039Y221845D01*
Y226236D01*
X609067Y226282D01*
X610349Y226270D01*
X610558Y224685D01*
X611452Y222527D01*
X612874Y220674D01*
X614726Y219252D01*
X616884Y218358D01*
X619200Y218054D01*
X621515Y218358D01*
X623673Y219252D01*
X625526Y220674D01*
X626948Y222527D01*
X627841Y224685D01*
X628146Y227000D01*
X627841Y229316D01*
X626948Y231474D01*
X626778Y231695D01*
X633342Y238258D01*
X633342Y238258D01*
X633784Y238920D01*
X633939Y239700D01*
X633939Y239700D01*
Y359100D01*
X633784Y359881D01*
X633342Y360542D01*
X633342Y360542D01*
X616039Y377845D01*
Y411200D01*
X615884Y411980D01*
X615442Y412642D01*
X615442Y412642D01*
X544162Y483922D01*
X543500Y484364D01*
X542720Y484519D01*
X534077D01*
X534045Y484764D01*
X533163Y486893D01*
X531761Y488721D01*
X529933Y490123D01*
X527804Y491005D01*
X525520Y491306D01*
D02*
G37*
G36*
Y465905D02*
X523236Y465605D01*
X521107Y464723D01*
X519279Y463321D01*
X517877Y461493D01*
X516995Y459364D01*
X516694Y457080D01*
X516995Y454796D01*
X517877Y452667D01*
X519279Y450839D01*
X521107Y449437D01*
X523236Y448555D01*
X523585Y448509D01*
X523502Y447239D01*
X512845D01*
X507613Y452471D01*
X507763Y452667D01*
X508645Y454796D01*
X508946Y457080D01*
X508645Y459364D01*
X507763Y461493D01*
X506361Y463321D01*
X504533Y464723D01*
X502404Y465605D01*
X500120Y465905D01*
X497836Y465605D01*
X495707Y464723D01*
X493879Y463321D01*
X492477Y461493D01*
X491595Y459364D01*
X491295Y457080D01*
X491595Y454796D01*
X492477Y452667D01*
X493879Y450839D01*
X495707Y449437D01*
X497836Y448555D01*
X500120Y448255D01*
X502404Y448555D01*
X504533Y449437D01*
X504729Y449587D01*
X510558Y443758D01*
X510558Y443758D01*
X511220Y443316D01*
X512000Y443161D01*
X536955D01*
X577961Y402155D01*
Y258716D01*
X576691Y258285D01*
X575646Y259646D01*
X573524Y261275D01*
X571052Y262299D01*
X569150Y262549D01*
Y252400D01*
Y242251D01*
X571052Y242502D01*
X573524Y243525D01*
X575646Y245154D01*
X576691Y246516D01*
X577961Y246084D01*
Y240800D01*
X578116Y240020D01*
X578558Y239358D01*
X586222Y231695D01*
X586052Y231474D01*
X585158Y229316D01*
X584853Y227000D01*
X585158Y224685D01*
X586052Y222527D01*
X587474Y220674D01*
X589327Y219252D01*
X591484Y218358D01*
X591761Y218322D01*
Y43200D01*
X591916Y42420D01*
X592358Y41758D01*
X601096Y33021D01*
X601757Y32578D01*
X602478Y32435D01*
X602496Y32342D01*
X603436Y30936D01*
X604841Y29997D01*
X606500Y29667D01*
X608158Y29997D01*
X609564Y30936D01*
X610503Y32342D01*
X610833Y34000D01*
X610503Y35658D01*
X609564Y37064D01*
X608158Y38003D01*
X606500Y38333D01*
X604841Y38003D01*
X603436Y37064D01*
X602875Y37009D01*
X595839Y44045D01*
Y218322D01*
X596115Y218358D01*
X598273Y219252D01*
X600126Y220674D01*
X601548Y222527D01*
X602441Y224685D01*
X602746Y227000D01*
X602441Y229316D01*
X601548Y231474D01*
X600126Y233326D01*
X598273Y234748D01*
X596115Y235642D01*
X593800Y235947D01*
X591484Y235642D01*
X589327Y234748D01*
X589105Y234578D01*
X582039Y241645D01*
Y403000D01*
X581884Y403780D01*
X581442Y404442D01*
X581442Y404442D01*
X539242Y446642D01*
X538580Y447084D01*
X537800Y447239D01*
X527538D01*
X527455Y448509D01*
X527804Y448555D01*
X529933Y449437D01*
X531761Y450839D01*
X533163Y452667D01*
X534045Y454796D01*
X534346Y457080D01*
X534045Y459364D01*
X533163Y461493D01*
X531761Y463321D01*
X529933Y464723D01*
X527804Y465605D01*
X525520Y465905D01*
D02*
G37*
G36*
X296620D02*
X294336Y465605D01*
X292207Y464723D01*
X290379Y463321D01*
X288977Y461493D01*
X288095Y459364D01*
X287794Y457080D01*
X288095Y454796D01*
X288977Y452667D01*
X290379Y450839D01*
X292207Y449437D01*
X294336Y448555D01*
X294685Y448509D01*
X294602Y447239D01*
X273238D01*
X273155Y448509D01*
X273504Y448555D01*
X275632Y449437D01*
X277460Y450839D01*
X278863Y452667D01*
X279745Y454796D01*
X280045Y457080D01*
X279745Y459364D01*
X278863Y461493D01*
X277460Y463321D01*
X275632Y464723D01*
X273504Y465605D01*
X271220Y465905D01*
X268936Y465605D01*
X266807Y464723D01*
X264979Y463321D01*
X263577Y461493D01*
X262695Y459364D01*
X262394Y457080D01*
X262695Y454796D01*
X263577Y452667D01*
X264979Y450839D01*
X266807Y449437D01*
X268936Y448555D01*
X269285Y448509D01*
X269202Y447239D01*
X159500D01*
X158720Y447084D01*
X158058Y446642D01*
X158058Y446642D01*
X157209Y445793D01*
X156000Y446033D01*
X154342Y445703D01*
X152936Y444764D01*
X151997Y443358D01*
X151667Y441700D01*
X151997Y440042D01*
X152936Y438636D01*
X154342Y437696D01*
X156000Y437366D01*
X157658Y437696D01*
X159064Y438636D01*
X160003Y440042D01*
X160333Y441700D01*
X160291Y441913D01*
X161336Y443161D01*
X299955D01*
X308961Y434155D01*
Y421505D01*
X301229Y413773D01*
X301033Y413923D01*
X298904Y414805D01*
X296620Y415106D01*
X294336Y414805D01*
X292207Y413923D01*
X290379Y412521D01*
X288977Y410693D01*
X288095Y408564D01*
X287794Y406280D01*
X288095Y403996D01*
X288977Y401867D01*
X290379Y400039D01*
X292207Y398637D01*
X294336Y397755D01*
X296620Y397454D01*
X298904Y397755D01*
X301033Y398637D01*
X302860Y400039D01*
X304263Y401867D01*
X305145Y403996D01*
X305445Y406280D01*
X305145Y408564D01*
X304263Y410693D01*
X304112Y410889D01*
X312442Y419218D01*
X312884Y419880D01*
X313039Y420660D01*
Y435000D01*
X312884Y435780D01*
X312442Y436442D01*
X312442Y436442D01*
X302242Y446642D01*
X301580Y447084D01*
X300800Y447239D01*
X298638D01*
X298555Y448509D01*
X298904Y448555D01*
X301033Y449437D01*
X302860Y450839D01*
X304263Y452667D01*
X305145Y454796D01*
X305445Y457080D01*
X305145Y459364D01*
X304263Y461493D01*
X302860Y463321D01*
X301033Y464723D01*
X298904Y465605D01*
X296620Y465905D01*
D02*
G37*
G36*
X525520Y542105D02*
X523236Y541805D01*
X521107Y540923D01*
X519279Y539521D01*
X517877Y537693D01*
X516995Y535564D01*
X516694Y533280D01*
X516995Y530996D01*
X517877Y528867D01*
X519279Y527039D01*
X521107Y525637D01*
X523236Y524755D01*
X525520Y524454D01*
X527804Y524755D01*
X529933Y525637D01*
X531761Y527039D01*
X533163Y528867D01*
X533407Y529456D01*
X604380D01*
X620177Y513660D01*
Y450863D01*
X618580Y449267D01*
X618262Y449203D01*
X616856Y448264D01*
X615917Y446858D01*
X615587Y445200D01*
X615917Y443542D01*
X616856Y442136D01*
X618262Y441197D01*
X619921Y440867D01*
X621579Y441197D01*
X622985Y442136D01*
X623924Y443542D01*
X623987Y443859D01*
X626704Y446576D01*
X627532Y447816D01*
X627823Y449279D01*
Y515244D01*
X627823Y515244D01*
X627532Y516707D01*
X626704Y517948D01*
X626703Y517948D01*
X608668Y535984D01*
X607427Y536812D01*
X605964Y537104D01*
X533407D01*
X533163Y537693D01*
X531761Y539521D01*
X529933Y540923D01*
X527804Y541805D01*
X525520Y542105D01*
D02*
G37*
G36*
Y440505D02*
X523236Y440205D01*
X521107Y439323D01*
X519279Y437921D01*
X517877Y436093D01*
X516995Y433964D01*
X516694Y431680D01*
X516995Y429396D01*
X517877Y427267D01*
X519279Y425439D01*
X521107Y424037D01*
X523236Y423155D01*
X525520Y422854D01*
X527804Y423155D01*
X529933Y424037D01*
X531761Y425439D01*
X533163Y427267D01*
X534045Y429396D01*
X534346Y431680D01*
X534045Y433964D01*
X533163Y436093D01*
X531761Y437921D01*
X529933Y439323D01*
X527804Y440205D01*
X525520Y440505D01*
D02*
G37*
G36*
X500120D02*
X497836Y440205D01*
X495707Y439323D01*
X493879Y437921D01*
X492477Y436093D01*
X491595Y433964D01*
X491295Y431680D01*
X491595Y429396D01*
X492477Y427267D01*
X493879Y425439D01*
X495707Y424037D01*
X497836Y423155D01*
X500120Y422854D01*
X502404Y423155D01*
X504533Y424037D01*
X506361Y425439D01*
X507763Y427267D01*
X508645Y429396D01*
X508946Y431680D01*
X508645Y433964D01*
X507763Y436093D01*
X506361Y437921D01*
X504533Y439323D01*
X502404Y440205D01*
X500120Y440505D01*
D02*
G37*
G36*
X296620D02*
X294336Y440205D01*
X292207Y439323D01*
X290379Y437921D01*
X288977Y436093D01*
X288095Y433964D01*
X287794Y431680D01*
X288095Y429396D01*
X288977Y427267D01*
X290379Y425439D01*
X290452Y424335D01*
X287155Y421039D01*
X165800D01*
X165020Y420884D01*
X164358Y420442D01*
X100205Y356289D01*
X72582D01*
X72064Y357064D01*
X70658Y358003D01*
X69000Y358333D01*
X67342Y358003D01*
X65936Y357064D01*
X64997Y355658D01*
X64667Y354000D01*
X64997Y352342D01*
X65936Y350936D01*
X67342Y349997D01*
X69000Y349667D01*
X70658Y349997D01*
X72064Y350936D01*
X72916Y352211D01*
X101050D01*
X101831Y352366D01*
X102492Y352808D01*
X166645Y416961D01*
X288000D01*
X288780Y417116D01*
X289442Y417558D01*
X294697Y422814D01*
X294698Y422814D01*
X294878Y423084D01*
X296620Y422854D01*
X298904Y423155D01*
X301033Y424037D01*
X302860Y425439D01*
X304263Y427267D01*
X305145Y429396D01*
X305445Y431680D01*
X305145Y433964D01*
X304263Y436093D01*
X302860Y437921D01*
X301033Y439323D01*
X298904Y440205D01*
X296620Y440505D01*
D02*
G37*
G36*
X271220D02*
X268936Y440205D01*
X266807Y439323D01*
X264979Y437921D01*
X263577Y436093D01*
X262695Y433964D01*
X262394Y431680D01*
X262695Y429396D01*
X263577Y427267D01*
X264979Y425439D01*
X266807Y424037D01*
X268936Y423155D01*
X271220Y422854D01*
X273504Y423155D01*
X275632Y424037D01*
X277460Y425439D01*
X278863Y427267D01*
X279745Y429396D01*
X280045Y431680D01*
X279745Y433964D01*
X278863Y436093D01*
X277460Y437921D01*
X275632Y439323D01*
X273504Y440205D01*
X271220Y440505D01*
D02*
G37*
G36*
X525520Y415106D02*
X523236Y414805D01*
X521107Y413923D01*
X519279Y412521D01*
X517877Y410693D01*
X516995Y408564D01*
X516694Y406280D01*
X516995Y403996D01*
X517877Y401867D01*
X519279Y400039D01*
X521107Y398637D01*
X523236Y397755D01*
X525520Y397454D01*
X527804Y397755D01*
X529933Y398637D01*
X531761Y400039D01*
X533163Y401867D01*
X534045Y403996D01*
X534346Y406280D01*
X534045Y408564D01*
X533163Y410693D01*
X531761Y412521D01*
X529933Y413923D01*
X527804Y414805D01*
X525520Y415106D01*
D02*
G37*
G36*
X500120D02*
X497836Y414805D01*
X495707Y413923D01*
X493879Y412521D01*
X492477Y410693D01*
X491595Y408564D01*
X491295Y406280D01*
X491595Y403996D01*
X492477Y401867D01*
X493879Y400039D01*
X495707Y398637D01*
X497836Y397755D01*
X500120Y397454D01*
X502404Y397755D01*
X504533Y398637D01*
X506361Y400039D01*
X507763Y401867D01*
X508645Y403996D01*
X508946Y406280D01*
X508645Y408564D01*
X507763Y410693D01*
X506361Y412521D01*
X504533Y413923D01*
X502404Y414805D01*
X500120Y415106D01*
D02*
G37*
G36*
X271220D02*
X268936Y414805D01*
X266807Y413923D01*
X264979Y412521D01*
X263577Y410693D01*
X262695Y408564D01*
X262394Y406280D01*
X262695Y403996D01*
X263577Y401867D01*
X264979Y400039D01*
X266807Y398637D01*
X268936Y397755D01*
X271220Y397454D01*
X273504Y397755D01*
X275632Y398637D01*
X277460Y400039D01*
X278863Y401867D01*
X279745Y403996D01*
X280045Y406280D01*
X279745Y408564D01*
X278863Y410693D01*
X277460Y412521D01*
X275632Y413923D01*
X273504Y414805D01*
X271220Y415106D01*
D02*
G37*
G36*
X500120Y542105D02*
X497836Y541805D01*
X495707Y540923D01*
X493879Y539521D01*
X492477Y537693D01*
X491595Y535564D01*
X491295Y533280D01*
X491595Y530996D01*
X492477Y528867D01*
X493879Y527039D01*
X495707Y525637D01*
X497836Y524755D01*
X500120Y524454D01*
X502404Y524755D01*
X504533Y525637D01*
X506361Y527039D01*
X506519Y527246D01*
X507787Y527329D01*
X516558Y518558D01*
X517220Y518116D01*
X518000Y517961D01*
X525325D01*
X525408Y516691D01*
X523236Y516405D01*
X521107Y515523D01*
X519279Y514121D01*
X517877Y512293D01*
X516995Y510164D01*
X516694Y507880D01*
X516995Y505596D01*
X517877Y503467D01*
X519279Y501639D01*
X521107Y500237D01*
X523236Y499355D01*
X525520Y499054D01*
X527804Y499355D01*
X529933Y500237D01*
X531761Y501639D01*
X532354Y502412D01*
X533621Y502495D01*
X626961Y409155D01*
Y382000D01*
X627116Y381220D01*
X627558Y380558D01*
X655961Y352155D01*
Y243000D01*
X656116Y242220D01*
X656558Y241558D01*
X663742Y234374D01*
X663674Y233326D01*
X662252Y231474D01*
X661358Y229316D01*
X661053Y227000D01*
X661358Y224685D01*
X662252Y222527D01*
X663674Y220674D01*
X665527Y219252D01*
X667684Y218358D01*
X670000Y218054D01*
X672315Y218358D01*
X674473Y219252D01*
X676326Y220674D01*
X677748Y222527D01*
X678642Y224685D01*
X678946Y227000D01*
X678642Y229316D01*
X677748Y231474D01*
X676326Y233326D01*
X674473Y234748D01*
X672315Y235642D01*
X670000Y235947D01*
X668112Y235698D01*
X667963Y235921D01*
X667962Y235921D01*
X660039Y243845D01*
Y250373D01*
X661309Y250456D01*
X661358Y250085D01*
X662252Y247927D01*
X663674Y246074D01*
X665527Y244652D01*
X667684Y243759D01*
X670000Y243454D01*
X672315Y243759D01*
X674473Y244652D01*
X676326Y246074D01*
X677748Y247927D01*
X678642Y250085D01*
X678946Y252400D01*
X678642Y254716D01*
X677748Y256873D01*
X676326Y258726D01*
X674473Y260148D01*
X672315Y261042D01*
X670000Y261347D01*
X667684Y261042D01*
X665527Y260148D01*
X663674Y258726D01*
X662252Y256873D01*
X661358Y254716D01*
X661309Y254344D01*
X660039Y254428D01*
Y353000D01*
X660039Y353000D01*
X659884Y353780D01*
X659442Y354442D01*
X631039Y382845D01*
Y410000D01*
X630884Y410780D01*
X630442Y411442D01*
X630442Y411442D01*
X535145Y506739D01*
X534483Y507181D01*
X534259Y507225D01*
X534346Y507880D01*
X534045Y510164D01*
X533163Y512293D01*
X531761Y514121D01*
X529933Y515523D01*
X527804Y516405D01*
X525632Y516691D01*
X525715Y517961D01*
X530935D01*
X642761Y406135D01*
Y391749D01*
X641736Y391064D01*
X640797Y389658D01*
X640467Y388000D01*
X640797Y386342D01*
X641736Y384936D01*
X643142Y383997D01*
X644800Y383667D01*
X646458Y383997D01*
X647864Y384936D01*
X648803Y386342D01*
X649133Y388000D01*
X648803Y389658D01*
X647864Y391064D01*
X646839Y391749D01*
Y406979D01*
X646684Y407760D01*
X646242Y408421D01*
X646242Y408421D01*
X577497Y477166D01*
X577983Y478340D01*
X581250D01*
Y487750D01*
X571840D01*
Y484483D01*
X570667Y483997D01*
X533221Y521442D01*
X532560Y521884D01*
X531780Y522039D01*
X518845D01*
X508789Y532094D01*
X508946Y533280D01*
X508645Y535564D01*
X507763Y537693D01*
X506361Y539521D01*
X504533Y540923D01*
X502404Y541805D01*
X500120Y542105D01*
D02*
G37*
G36*
X193000Y414683D02*
X191342Y414353D01*
X189936Y413414D01*
X188997Y412008D01*
X188667Y410350D01*
X188997Y408691D01*
X189936Y407286D01*
X191342Y406346D01*
X193000Y406016D01*
X194209Y406257D01*
X207908Y392558D01*
X207908Y392558D01*
X208569Y392116D01*
X209350Y391961D01*
X209350Y391961D01*
X282655D01*
X289127Y385489D01*
X288977Y385293D01*
X288095Y383164D01*
X287794Y380880D01*
X288095Y378596D01*
X288977Y376467D01*
X290379Y374639D01*
X292207Y373237D01*
X294336Y372355D01*
X296620Y372054D01*
X298904Y372355D01*
X301033Y373237D01*
X302860Y374639D01*
X304263Y376467D01*
X305145Y378596D01*
X305445Y380880D01*
X305145Y383164D01*
X304263Y385293D01*
X302860Y387121D01*
X301033Y388523D01*
X298904Y389405D01*
X296620Y389706D01*
X294336Y389405D01*
X292207Y388523D01*
X292011Y388373D01*
X284942Y395442D01*
X284280Y395884D01*
X283500Y396039D01*
X210194D01*
X197093Y409141D01*
X197333Y410350D01*
X197003Y412008D01*
X196064Y413414D01*
X194658Y414353D01*
X193000Y414683D01*
D02*
G37*
G36*
X271220Y389706D02*
X268936Y389405D01*
X266807Y388523D01*
X264979Y387121D01*
X263577Y385293D01*
X262695Y383164D01*
X262394Y380880D01*
X262695Y378596D01*
X263577Y376467D01*
X264979Y374639D01*
X266807Y373237D01*
X268936Y372355D01*
X271220Y372054D01*
X273504Y372355D01*
X275632Y373237D01*
X277460Y374639D01*
X278863Y376467D01*
X279745Y378596D01*
X280045Y380880D01*
X279745Y383164D01*
X278863Y385293D01*
X277460Y387121D01*
X275632Y388523D01*
X273504Y389405D01*
X271220Y389706D01*
D02*
G37*
G36*
X525520D02*
X523236Y389405D01*
X521107Y388523D01*
X519279Y387121D01*
X517877Y385293D01*
X516995Y383164D01*
X516694Y380880D01*
X516995Y378596D01*
X517877Y376467D01*
X518027Y376271D01*
X513795Y372039D01*
X505404D01*
X504624Y373170D01*
X504627Y373309D01*
X506361Y374639D01*
X507763Y376467D01*
X508645Y378596D01*
X508946Y380880D01*
X508645Y383164D01*
X507763Y385293D01*
X506361Y387121D01*
X504533Y388523D01*
X502404Y389405D01*
X500120Y389706D01*
X497836Y389405D01*
X495707Y388523D01*
X493879Y387121D01*
X492477Y385293D01*
X491595Y383164D01*
X491563Y382919D01*
X481880D01*
X481100Y382764D01*
X480438Y382322D01*
X445558Y347442D01*
X445116Y346780D01*
X444961Y346000D01*
Y246845D01*
X429095Y230979D01*
X427850Y231227D01*
X427748Y231474D01*
X426326Y233326D01*
X424473Y234748D01*
X422315Y235642D01*
X420000Y235947D01*
X417684Y235642D01*
X415527Y234748D01*
X413674Y233326D01*
X412252Y231474D01*
X411358Y229316D01*
X411053Y227000D01*
X411358Y224685D01*
X412252Y222527D01*
X413674Y220674D01*
X415527Y219252D01*
X417684Y218358D01*
X420000Y218054D01*
X422315Y218358D01*
X424473Y219252D01*
X426326Y220674D01*
X427748Y222527D01*
X428642Y224685D01*
X428808Y225952D01*
X428991D01*
X429771Y226107D01*
X430433Y226549D01*
X448442Y244558D01*
X448884Y245220D01*
X449039Y246000D01*
X449039Y246000D01*
Y345155D01*
X482725Y378841D01*
X491563D01*
X491595Y378596D01*
X492477Y376467D01*
X493879Y374639D01*
X495613Y373309D01*
X495616Y373170D01*
X494836Y372039D01*
X481850D01*
X481070Y371884D01*
X480408Y371442D01*
X455558Y346592D01*
X455116Y345930D01*
X454961Y345150D01*
Y243734D01*
X425766Y214539D01*
X405344D01*
X400636Y219248D01*
X400719Y220515D01*
X400926Y220674D01*
X402348Y222527D01*
X403242Y224685D01*
X403546Y227000D01*
X403242Y229316D01*
X402348Y231474D01*
X400926Y233326D01*
X399073Y234748D01*
X396915Y235642D01*
X394600Y235947D01*
X392284Y235642D01*
X390126Y234748D01*
X388274Y233326D01*
X386852Y231474D01*
X385958Y229316D01*
X385653Y227000D01*
X385958Y224685D01*
X386852Y222527D01*
X388274Y220674D01*
X390126Y219252D01*
X392284Y218358D01*
X394600Y218054D01*
X395892Y218224D01*
X403058Y211058D01*
X403058Y211058D01*
X403719Y210616D01*
X404500Y210461D01*
X404500Y210461D01*
X426611D01*
X427392Y210616D01*
X428053Y211058D01*
X458442Y241447D01*
X458884Y242109D01*
X459039Y242889D01*
Y344305D01*
X482695Y367961D01*
X514640D01*
X515420Y368116D01*
X516082Y368558D01*
X520911Y373387D01*
X521107Y373237D01*
X523236Y372355D01*
X525520Y372054D01*
X527804Y372355D01*
X529933Y373237D01*
X531761Y374639D01*
X533163Y376467D01*
X534045Y378596D01*
X534346Y380880D01*
X534045Y383164D01*
X533163Y385293D01*
X531761Y387121D01*
X529933Y388523D01*
X527804Y389405D01*
X525520Y389706D01*
D02*
G37*
G36*
Y364305D02*
X523236Y364005D01*
X521107Y363123D01*
X519279Y361721D01*
X517877Y359893D01*
X516995Y357764D01*
X516694Y355480D01*
X516995Y353196D01*
X517877Y351067D01*
X519279Y349239D01*
X519474Y349090D01*
X519610Y347505D01*
X519178Y347039D01*
X505579D01*
X505148Y348309D01*
X506361Y349239D01*
X507763Y351067D01*
X508645Y353196D01*
X508946Y355480D01*
X508645Y357764D01*
X507763Y359893D01*
X506361Y361721D01*
X504533Y363123D01*
X502404Y364005D01*
X500120Y364305D01*
X497836Y364005D01*
X495707Y363123D01*
X493879Y361721D01*
X492477Y359893D01*
X491595Y357764D01*
X491368Y356039D01*
X476894D01*
X476114Y355884D01*
X475452Y355442D01*
X463558Y343548D01*
X463116Y342886D01*
X462961Y342106D01*
Y238845D01*
X430155Y206039D01*
X393045D01*
X376778Y222306D01*
X376948Y222527D01*
X377841Y224685D01*
X378146Y227000D01*
X377841Y229316D01*
X376948Y231474D01*
X375526Y233326D01*
X373673Y234748D01*
X371515Y235642D01*
X369200Y235947D01*
X366884Y235642D01*
X364726Y234748D01*
X362874Y233326D01*
X361452Y231474D01*
X360558Y229316D01*
X360253Y227000D01*
X360558Y224685D01*
X361452Y222527D01*
X362874Y220674D01*
X364726Y219252D01*
X366884Y218358D01*
X369200Y218054D01*
X371515Y218358D01*
X373673Y219252D01*
X373894Y219422D01*
X390758Y202558D01*
X390758Y202558D01*
X391420Y202116D01*
X392200Y201961D01*
X392200Y201961D01*
X431000D01*
X431780Y202116D01*
X432442Y202558D01*
X466442Y236558D01*
X466442Y236558D01*
X466884Y237220D01*
X467039Y238000D01*
Y341261D01*
X477739Y351961D01*
X492107D01*
X492477Y351067D01*
X493879Y349239D01*
X495092Y348309D01*
X494661Y347039D01*
X477979D01*
X477198Y346884D01*
X476537Y346442D01*
X476537Y346442D01*
X471558Y341463D01*
X471116Y340802D01*
X470961Y340021D01*
Y231845D01*
X436155Y197039D01*
X374845D01*
X359342Y212542D01*
X357942Y213942D01*
X357942Y213942D01*
X350597Y221287D01*
X351548Y222527D01*
X352441Y224685D01*
X352746Y227000D01*
X352441Y229316D01*
X351548Y231474D01*
X350126Y233326D01*
X348273Y234748D01*
X346115Y235642D01*
X343800Y235947D01*
X341484Y235642D01*
X339327Y234748D01*
X337474Y233326D01*
X336052Y231474D01*
X335158Y229316D01*
X334853Y227000D01*
X335158Y224685D01*
X336052Y222527D01*
X337474Y220674D01*
X339327Y219252D01*
X341484Y218358D01*
X343800Y218054D01*
X346115Y218358D01*
X347277Y218839D01*
X355058Y211058D01*
X355058Y211058D01*
X355861Y210255D01*
Y37749D01*
X354836Y37064D01*
X353897Y35658D01*
X353567Y34000D01*
X353897Y32342D01*
X354836Y30936D01*
X356242Y29997D01*
X357900Y29667D01*
X359558Y29997D01*
X360964Y30936D01*
X361903Y32342D01*
X362233Y34000D01*
X361903Y35658D01*
X360964Y37064D01*
X359939Y37749D01*
Y204518D01*
X361113Y205004D01*
X372558Y193558D01*
X372558Y193558D01*
X373220Y193116D01*
X374000Y192961D01*
X437000D01*
X437780Y193116D01*
X438442Y193558D01*
X474442Y229558D01*
X474442Y229558D01*
X474884Y230220D01*
X475039Y231000D01*
Y339177D01*
X478823Y342961D01*
X521000D01*
X521780Y343116D01*
X522442Y343558D01*
X524548Y345664D01*
X524548Y345664D01*
X524990Y346325D01*
X525067Y346714D01*
X525520Y346655D01*
X527804Y346955D01*
X529933Y347837D01*
X531761Y349239D01*
X533163Y351067D01*
X534045Y353196D01*
X534346Y355480D01*
X534045Y357764D01*
X533163Y359893D01*
X531761Y361721D01*
X529933Y363123D01*
X527804Y364005D01*
X525520Y364305D01*
D02*
G37*
G36*
X296620D02*
X294336Y364005D01*
X292207Y363123D01*
X290379Y361721D01*
X288977Y359893D01*
X288095Y357764D01*
X287794Y355480D01*
X288095Y353196D01*
X288977Y351067D01*
X290379Y349239D01*
X292207Y347837D01*
X294336Y346955D01*
X296620Y346655D01*
X298904Y346955D01*
X301033Y347837D01*
X302860Y349239D01*
X304263Y351067D01*
X305145Y353196D01*
X305445Y355480D01*
X305145Y357764D01*
X304263Y359893D01*
X302860Y361721D01*
X301033Y363123D01*
X298904Y364005D01*
X296620Y364305D01*
D02*
G37*
G36*
X271220D02*
X268936Y364005D01*
X266807Y363123D01*
X264979Y361721D01*
X263577Y359893D01*
X262695Y357764D01*
X262394Y355480D01*
X262695Y353196D01*
X263577Y351067D01*
X264979Y349239D01*
X266807Y347837D01*
X268936Y346955D01*
X271220Y346655D01*
X273504Y346955D01*
X275632Y347837D01*
X277460Y349239D01*
X278863Y351067D01*
X279745Y353196D01*
X280045Y355480D01*
X279745Y357764D01*
X278863Y359893D01*
X277460Y361721D01*
X275632Y363123D01*
X273504Y364005D01*
X271220Y364305D01*
D02*
G37*
G36*
X567650Y262549D02*
X565747Y262299D01*
X563276Y261275D01*
X561154Y259646D01*
X559525Y257524D01*
X558501Y255053D01*
X558251Y253150D01*
X567650D01*
Y262549D01*
D02*
G37*
G36*
X319150D02*
Y253150D01*
X328549D01*
X328298Y255053D01*
X327275Y257524D01*
X325646Y259646D01*
X323524Y261275D01*
X321052Y262299D01*
X319150Y262549D01*
D02*
G37*
G36*
X317650D02*
X315748Y262299D01*
X313276Y261275D01*
X311154Y259646D01*
X309525Y257524D01*
X308501Y255053D01*
X308251Y253150D01*
X317650D01*
Y262549D01*
D02*
G37*
G36*
X644600Y261347D02*
X642284Y261042D01*
X640126Y260148D01*
X638274Y258726D01*
X636852Y256873D01*
X635958Y254716D01*
X635653Y252400D01*
X635958Y250085D01*
X636852Y247927D01*
X638274Y246074D01*
X640126Y244652D01*
X642284Y243759D01*
X644600Y243454D01*
X646915Y243759D01*
X649073Y244652D01*
X650926Y246074D01*
X652348Y247927D01*
X653242Y250085D01*
X653546Y252400D01*
X653242Y254716D01*
X652348Y256873D01*
X650926Y258726D01*
X649073Y260148D01*
X646915Y261042D01*
X644600Y261347D01*
D02*
G37*
G36*
X593800D02*
X591484Y261042D01*
X589327Y260148D01*
X587474Y258726D01*
X586052Y256873D01*
X585158Y254716D01*
X584853Y252400D01*
X585158Y250085D01*
X586052Y247927D01*
X587474Y246074D01*
X589327Y244652D01*
X591484Y243759D01*
X593800Y243454D01*
X596115Y243759D01*
X598273Y244652D01*
X600126Y246074D01*
X601548Y247927D01*
X602441Y250085D01*
X602746Y252400D01*
X602441Y254716D01*
X601548Y256873D01*
X600126Y258726D01*
X598273Y260148D01*
X596115Y261042D01*
X593800Y261347D01*
D02*
G37*
G36*
X343800Y572239D02*
X282740D01*
X281960Y572084D01*
X281298Y571642D01*
X281298Y571642D01*
X275829Y566173D01*
X275632Y566323D01*
X273504Y567205D01*
X271220Y567505D01*
X268936Y567205D01*
X266807Y566323D01*
X264979Y564921D01*
X263577Y563093D01*
X262695Y560964D01*
X262394Y558680D01*
X262695Y556396D01*
X263577Y554267D01*
X264979Y552439D01*
X266807Y551037D01*
X268936Y550155D01*
X271220Y549855D01*
X273504Y550155D01*
X275632Y551037D01*
X277460Y552439D01*
X278863Y554267D01*
X279745Y556396D01*
X280045Y558680D01*
X279745Y560964D01*
X278863Y563093D01*
X278712Y563289D01*
X283585Y568161D01*
X293325D01*
X293578Y566891D01*
X292207Y566323D01*
X290379Y564921D01*
X288977Y563093D01*
X288095Y560964D01*
X287794Y558680D01*
X288095Y556396D01*
X288977Y554267D01*
X290379Y552439D01*
X292207Y551037D01*
X294336Y550155D01*
X296620Y549855D01*
X298904Y550155D01*
X301033Y551037D01*
X301059Y551057D01*
X367161Y484955D01*
Y261078D01*
X366884Y261042D01*
X364726Y260148D01*
X362874Y258726D01*
X361452Y256873D01*
X360558Y254716D01*
X360349Y253130D01*
X359067Y253118D01*
X359039Y253165D01*
Y480000D01*
X359039Y480000D01*
X358884Y480780D01*
X358442Y481442D01*
X306933Y532951D01*
X306271Y533393D01*
X305491Y533548D01*
X305410D01*
X305145Y535564D01*
X304263Y537693D01*
X302860Y539521D01*
X301033Y540923D01*
X298904Y541805D01*
X296620Y542105D01*
X294336Y541805D01*
X292207Y540923D01*
X290379Y539521D01*
X288977Y537693D01*
X288095Y535564D01*
X287794Y533280D01*
X288095Y530996D01*
X288977Y528867D01*
X290379Y527039D01*
X292207Y525637D01*
X294336Y524755D01*
X296620Y524454D01*
X298904Y524755D01*
X301033Y525637D01*
X302860Y527039D01*
X303911Y528409D01*
X305245Y528653D01*
X305524Y528592D01*
X354961Y479155D01*
Y248000D01*
X355116Y247220D01*
X355558Y246558D01*
X364188Y237928D01*
X364849Y237486D01*
X365630Y237331D01*
X406970D01*
X407750Y237486D01*
X408412Y237928D01*
X415305Y244822D01*
X415527Y244652D01*
X417684Y243759D01*
X420000Y243454D01*
X422315Y243759D01*
X424473Y244652D01*
X426326Y246074D01*
X427748Y247927D01*
X428642Y250085D01*
X428946Y252400D01*
X428642Y254716D01*
X427748Y256873D01*
X426326Y258726D01*
X424473Y260148D01*
X422315Y261042D01*
X420000Y261347D01*
X417684Y261042D01*
X415527Y260148D01*
X413674Y258726D01*
X412252Y256873D01*
X411358Y254716D01*
X411053Y252400D01*
X411358Y250085D01*
X412252Y247927D01*
X412421Y247706D01*
X406125Y241409D01*
X366474D01*
X364521Y243363D01*
X365241Y244439D01*
X366884Y243759D01*
X369200Y243454D01*
X371515Y243759D01*
X373673Y244652D01*
X375526Y246074D01*
X376948Y247927D01*
X377841Y250085D01*
X378146Y252400D01*
X377841Y254716D01*
X376948Y256873D01*
X375526Y258726D01*
X373673Y260148D01*
X371515Y261042D01*
X371239Y261078D01*
Y485800D01*
X371239Y485800D01*
X371084Y486581D01*
X370642Y487242D01*
X303982Y553902D01*
X304263Y554267D01*
X305145Y556396D01*
X305445Y558680D01*
X305145Y560964D01*
X304263Y563093D01*
X302860Y564921D01*
X301033Y566323D01*
X299662Y566891D01*
X299914Y568161D01*
X342955D01*
X392561Y518556D01*
Y261078D01*
X392284Y261042D01*
X390126Y260148D01*
X388274Y258726D01*
X386852Y256873D01*
X385958Y254716D01*
X385653Y252400D01*
X385958Y250085D01*
X386852Y247927D01*
X388274Y246074D01*
X390126Y244652D01*
X392284Y243759D01*
X394600Y243454D01*
X396915Y243759D01*
X399073Y244652D01*
X400926Y246074D01*
X402348Y247927D01*
X403242Y250085D01*
X403546Y252400D01*
X403242Y254716D01*
X402348Y256873D01*
X400926Y258726D01*
X399073Y260148D01*
X396915Y261042D01*
X396639Y261078D01*
Y519400D01*
X396484Y520181D01*
X396042Y520842D01*
X345242Y571642D01*
X344580Y572084D01*
X343800Y572239D01*
D02*
G37*
G36*
X567650Y251650D02*
X558251D01*
X558501Y249748D01*
X559525Y247276D01*
X561154Y245154D01*
X563276Y243525D01*
X565747Y242502D01*
X567650Y242251D01*
Y251650D01*
D02*
G37*
G36*
X328549D02*
X319150D01*
Y242251D01*
X321052Y242502D01*
X323524Y243525D01*
X325646Y245154D01*
X327275Y247276D01*
X328298Y249748D01*
X328549Y251650D01*
D02*
G37*
G36*
X317650D02*
X308251D01*
X308501Y249748D01*
X309525Y247276D01*
X311154Y245154D01*
X313276Y243525D01*
X315748Y242502D01*
X317650Y242251D01*
Y251650D01*
D02*
G37*
G36*
X577778Y235616D02*
X560038D01*
Y217876D01*
X577778D01*
Y235616D01*
D02*
G37*
G36*
X327778D02*
X310038D01*
Y217876D01*
X327778D01*
Y235616D01*
D02*
G37*
G36*
X390000Y163899D02*
X388342Y163569D01*
X386936Y162630D01*
X385997Y161224D01*
X385667Y159566D01*
X385907Y158357D01*
X381858Y154308D01*
X381416Y153646D01*
X381261Y152866D01*
Y37749D01*
X380236Y37064D01*
X379297Y35658D01*
X378967Y34000D01*
X379297Y32342D01*
X380236Y30936D01*
X381642Y29997D01*
X383300Y29667D01*
X384958Y29997D01*
X386364Y30936D01*
X387303Y32342D01*
X387633Y34000D01*
X387303Y35658D01*
X386364Y37064D01*
X385339Y37749D01*
Y152021D01*
X388791Y155473D01*
X390000Y155232D01*
X391658Y155562D01*
X393064Y156502D01*
X394003Y157907D01*
X394333Y159566D01*
X394003Y161224D01*
X393064Y162630D01*
X391658Y163569D01*
X390000Y163899D01*
D02*
G37*
G36*
X375000D02*
X373342Y163569D01*
X371936Y162630D01*
X370997Y161224D01*
X370667Y159566D01*
X370907Y158357D01*
X369158Y156608D01*
X368716Y155946D01*
X368561Y155166D01*
Y43910D01*
Y37749D01*
X367536Y37064D01*
X366597Y35658D01*
X366267Y34000D01*
X366597Y32342D01*
X367536Y30936D01*
X368942Y29997D01*
X370600Y29667D01*
X372258Y29997D01*
X373664Y30936D01*
X374603Y32342D01*
X374933Y34000D01*
X374603Y35658D01*
X373664Y37064D01*
X372639Y37749D01*
Y43910D01*
Y154321D01*
X373791Y155473D01*
X375000Y155232D01*
X376658Y155562D01*
X378064Y156502D01*
X379003Y157907D01*
X379333Y159566D01*
X379003Y161224D01*
X378064Y162630D01*
X376658Y163569D01*
X375000Y163899D01*
D02*
G37*
G36*
X619000Y158409D02*
X617342Y158079D01*
X615936Y157139D01*
X614997Y155734D01*
X614667Y154075D01*
X614997Y152417D01*
X615936Y151011D01*
X617342Y150072D01*
X617361Y150068D01*
Y37949D01*
X616336Y37264D01*
X615397Y35859D01*
X615067Y34200D01*
X615397Y32542D01*
X616336Y31136D01*
X617742Y30197D01*
X619400Y29867D01*
X621058Y30197D01*
X622464Y31136D01*
X623403Y32542D01*
X623733Y34200D01*
X623403Y35859D01*
X622464Y37264D01*
X621439Y37949D01*
Y150594D01*
X622064Y151011D01*
X623003Y152417D01*
X623333Y154075D01*
X623003Y155734D01*
X622064Y157139D01*
X620658Y158079D01*
X619000Y158409D01*
D02*
G37*
G36*
X750080Y79992D02*
X745412Y79625D01*
X740858Y78531D01*
X736532Y76739D01*
X732539Y74293D01*
X728979Y71252D01*
X725937Y67691D01*
X723491Y63698D01*
X721699Y59372D01*
X720605Y54818D01*
X720238Y50150D01*
X720605Y45482D01*
X721699Y40928D01*
X723491Y36602D01*
X725937Y32609D01*
X728979Y29049D01*
X732539Y26007D01*
X736532Y23561D01*
X740858Y21769D01*
X745412Y20675D01*
X750080Y20308D01*
X754748Y20675D01*
X759302Y21769D01*
X763628Y23561D01*
X767621Y26007D01*
X771181Y29049D01*
X774223Y32609D01*
X776669Y36602D01*
X778461Y40928D01*
X779555Y45482D01*
X779922Y50150D01*
X779555Y54818D01*
X778461Y59372D01*
X776669Y63698D01*
X774223Y67691D01*
X771181Y71252D01*
X767621Y74293D01*
X763628Y76739D01*
X759302Y78531D01*
X754748Y79625D01*
X750080Y79992D01*
D02*
G37*
G36*
X49830Y79742D02*
X45162Y79375D01*
X40608Y78281D01*
X36282Y76489D01*
X32289Y74043D01*
X28728Y71002D01*
X25687Y67441D01*
X23241Y63448D01*
X21449Y59122D01*
X20355Y54568D01*
X19988Y49900D01*
X20355Y45232D01*
X21449Y40678D01*
X23241Y36352D01*
X25687Y32359D01*
X28728Y28798D01*
X32289Y25757D01*
X36282Y23311D01*
X40608Y21519D01*
X45162Y20425D01*
X49830Y20058D01*
X54498Y20425D01*
X59052Y21519D01*
X63378Y23311D01*
X67371Y25757D01*
X70932Y28798D01*
X73973Y32359D01*
X76419Y36352D01*
X78211Y40678D01*
X79305Y45232D01*
X79672Y49900D01*
X79305Y54568D01*
X78211Y59122D01*
X76419Y63448D01*
X73973Y67441D01*
X70932Y71002D01*
X67371Y74043D01*
X63378Y76489D01*
X59052Y78281D01*
X54498Y79375D01*
X49830Y79742D01*
D02*
G37*
%LPD*%
G36*
X611961Y410355D02*
Y377000D01*
X612116Y376220D01*
X612558Y375558D01*
X629861Y358256D01*
Y240545D01*
X623894Y234578D01*
X623673Y234748D01*
X621515Y235642D01*
X619200Y235947D01*
X616884Y235642D01*
X614726Y234748D01*
X612874Y233326D01*
X611452Y231474D01*
X610558Y229316D01*
X610349Y227730D01*
X609067Y227718D01*
X609039Y227765D01*
Y251892D01*
X610309Y251975D01*
X610358Y251603D01*
X610558Y250085D01*
X611452Y247927D01*
X612874Y246074D01*
X614726Y244652D01*
X616884Y243759D01*
X619200Y243454D01*
X621515Y243759D01*
X623673Y244652D01*
X625526Y246074D01*
X626948Y247927D01*
X627841Y250085D01*
X628146Y252400D01*
X627841Y254716D01*
X626948Y256873D01*
X625526Y258726D01*
X623673Y260148D01*
X622039Y260825D01*
Y356251D01*
X623064Y356936D01*
X624003Y358342D01*
X624333Y360000D01*
X624003Y361658D01*
X623064Y363064D01*
X621658Y364003D01*
X620000Y364333D01*
X618342Y364003D01*
X616936Y363064D01*
X615997Y361658D01*
X615667Y360000D01*
X615997Y358342D01*
X616936Y356936D01*
X617961Y356251D01*
Y261184D01*
X616884Y261042D01*
X614726Y260148D01*
X612874Y258726D01*
X611452Y256873D01*
X610558Y254716D01*
X610358Y253198D01*
X610309Y252825D01*
X609039Y252908D01*
Y361000D01*
X608884Y361780D01*
X608442Y362442D01*
X608442Y362442D01*
X599039Y371845D01*
Y410000D01*
X599039Y410000D01*
X598884Y410780D01*
X598442Y411442D01*
X537842Y472042D01*
X537180Y472484D01*
X536400Y472639D01*
X527538D01*
X527455Y473909D01*
X527804Y473955D01*
X529933Y474837D01*
X531761Y476239D01*
X533163Y478067D01*
X534045Y480196D01*
X534077Y480441D01*
X541875D01*
X611961Y410355D01*
D02*
G37*
D49*
X531780Y520000D02*
X644800Y406979D01*
Y388000D02*
Y406979D01*
X619200Y252400D02*
X620000Y253200D01*
Y360000D01*
X606037Y34462D02*
X606500Y34000D01*
X602538Y34462D02*
X606037D01*
X593800Y43200D02*
X602538Y34462D01*
X619400Y34200D02*
Y153675D01*
X619000Y154075D02*
X619400Y153675D01*
X632027Y34000D02*
X632252Y34226D01*
X636226D01*
X644600Y42600D01*
X593800Y43200D02*
Y227000D01*
X644600Y42600D02*
Y227000D01*
X370600Y43910D02*
Y155166D01*
X375000Y159566D01*
X383300Y34000D02*
Y152866D01*
X390000Y159566D01*
X370600Y34000D02*
Y43910D01*
X357900Y34000D02*
Y211100D01*
X356500Y212500D02*
X357900Y211100D01*
X580000Y240800D02*
X593800Y227000D01*
X614000Y377000D02*
Y411200D01*
X542720Y482480D02*
X614000Y411200D01*
Y377000D02*
X631900Y359100D01*
Y239700D02*
Y359100D01*
X629000Y382000D02*
Y410000D01*
X658000Y243000D02*
Y353000D01*
X629000Y382000D02*
X658000Y353000D01*
X533703Y505297D02*
X629000Y410000D01*
X437000Y195000D02*
X473000Y231000D01*
X374000Y195000D02*
X437000D01*
X473000Y231000D02*
Y340021D01*
X356500Y212500D02*
X374000Y195000D01*
X397229Y219771D02*
X404500Y212500D01*
X426611D02*
X457000Y242889D01*
X404500Y212500D02*
X426611D01*
X369200Y227000D02*
X392200Y204000D01*
X431000D02*
X465000Y238000D01*
X392200Y204000D02*
X431000D01*
X658000Y243000D02*
X666521Y234479D01*
X537800Y445200D02*
X580000Y403000D01*
Y240800D02*
Y403000D01*
X597000Y371000D02*
X607000Y361000D01*
Y221000D02*
X614000Y214000D01*
X607000Y221000D02*
Y361000D01*
X619200Y227000D02*
X631900Y239700D01*
X597000Y371000D02*
Y410000D01*
X514640Y470600D02*
X536400D01*
X597000Y410000D01*
X473000Y340021D02*
X477979Y345000D01*
X457000Y345150D02*
X481850Y370000D01*
X457000Y242889D02*
Y345150D01*
X465000Y342106D02*
X476894Y354000D01*
X465000Y238000D02*
Y342106D01*
X447000Y246000D02*
Y346000D01*
X420000Y227000D02*
X420991Y227991D01*
X428991D01*
X447000Y246000D01*
X347500Y221500D02*
X356500Y212500D01*
X670000Y227000D02*
Y230718D01*
X666521Y234197D02*
X670000Y230718D01*
X666521Y234197D02*
Y234479D01*
X518000Y520000D02*
X531780D01*
X525520Y482480D02*
X542720D01*
X481850Y370000D02*
X514640D01*
X296620Y558380D02*
Y558680D01*
X369200Y252400D02*
Y485800D01*
X296620Y558380D02*
X369200Y485800D01*
X357000Y248000D02*
Y480000D01*
X296620Y533280D02*
X298391Y531509D01*
X305491D02*
X357000Y480000D01*
X298391Y531509D02*
X305491D01*
X476894Y354000D02*
X498640D01*
X477979Y345000D02*
X521000D01*
X481880Y380880D02*
X500120D01*
X447000Y346000D02*
X481880Y380880D01*
X500120Y482480D02*
X502760D01*
X514640Y470600D01*
X525520Y507880D02*
X528103Y505297D01*
X533703D01*
X512000Y445200D02*
X537800D01*
X500120Y457080D02*
X512000Y445200D01*
X288000Y521000D02*
X299800D01*
X284000Y524879D02*
Y537740D01*
Y524879D02*
X284879Y524000D01*
X285000D01*
X288000Y521000D01*
X276740Y545000D02*
X284000Y537740D01*
X263000Y545879D02*
Y546000D01*
Y545879D02*
X263879Y545000D01*
X276740D01*
X255000Y554000D02*
Y567860D01*
Y554000D02*
X263000Y546000D01*
X255000Y567860D02*
X271220Y584080D01*
X521000Y345000D02*
X523106Y347106D01*
X357000Y248000D02*
X365630Y239370D01*
X406970D01*
X420000Y252400D01*
X523106Y353066D02*
X525520Y355480D01*
X523106Y347106D02*
Y353066D01*
X498640Y354000D02*
X500120Y355480D01*
X394600Y227000D02*
X397229Y224371D01*
Y219771D02*
Y224371D01*
X514640Y370000D02*
X525520Y380880D01*
X343800Y570200D02*
X394600Y519400D01*
X282740Y570200D02*
X343800D01*
X271220Y558680D02*
X282740Y570200D01*
X394600Y252400D02*
Y519400D01*
X299800Y521000D02*
X343800Y477000D01*
Y252400D02*
Y477000D01*
X270080Y584080D02*
X271220D01*
X159500Y445200D02*
X300800D01*
X311000Y435000D01*
X296620Y406280D02*
X311000Y420660D01*
Y435000D01*
X156000Y441700D02*
X159500Y445200D01*
X614000Y214000D02*
X631600D01*
X644600Y227000D01*
X283500Y394000D02*
X296620Y380880D01*
X193000Y410350D02*
X209350Y394000D01*
X283500D01*
X165800Y419000D02*
X288000D01*
X69250Y354250D02*
X101050D01*
X165800Y419000D01*
X69000Y354000D02*
X69250Y354250D01*
X296620Y428027D02*
Y431680D01*
X293256Y424663D02*
X296620Y428027D01*
X293256Y424256D02*
Y424663D01*
X288000Y419000D02*
X293256Y424256D01*
X500120Y533280D02*
X502703Y530697D01*
X507303D01*
X518000Y520000D01*
X500120Y507880D02*
X503773D01*
D50*
X619921Y445200D02*
X624000Y449279D01*
X605964Y533280D02*
X624000Y515244D01*
Y449279D02*
Y515244D01*
X525520Y533280D02*
X605964D01*
D51*
X201530D02*
X271220D01*
X143250Y475000D02*
X201530Y533280D01*
X106000Y437500D02*
X143250Y474750D01*
X106000Y376000D02*
Y437500D01*
X143250Y474750D02*
Y475000D01*
D53*
X394600Y227000D02*
D03*
X420000D02*
D03*
Y252400D02*
D03*
X394600D02*
D03*
X369200D02*
D03*
Y227000D02*
D03*
X343800Y252400D02*
D03*
Y227000D02*
D03*
X318400Y252400D02*
D03*
X644600Y227000D02*
D03*
X670000D02*
D03*
Y252400D02*
D03*
X644600D02*
D03*
X619200D02*
D03*
Y227000D02*
D03*
X593800Y252400D02*
D03*
Y227000D02*
D03*
X568400Y252400D02*
D03*
X607400Y488500D02*
D03*
D54*
X318908Y226746D02*
D03*
X568908D02*
D03*
X582000Y488500D02*
D03*
D55*
X50000Y50000D02*
D03*
Y650000D02*
D03*
X750000D02*
D03*
Y50000D02*
D03*
D56*
X525520Y355480D02*
D03*
X500120D02*
D03*
X525520Y380880D02*
D03*
X500120D02*
D03*
X525520Y406280D02*
D03*
X500120D02*
D03*
X525520Y431680D02*
D03*
X500120D02*
D03*
X525520Y457080D02*
D03*
X500120D02*
D03*
X525520Y482480D02*
D03*
X500120D02*
D03*
X525520Y507880D02*
D03*
X500120D02*
D03*
X525520Y533280D02*
D03*
X500120D02*
D03*
X525520Y558680D02*
D03*
X500120D02*
D03*
X525520Y584080D02*
D03*
X500120D02*
D03*
X525520Y609480D02*
D03*
X500120D02*
D03*
X525520Y634880D02*
D03*
X500120D02*
D03*
Y660280D02*
D03*
X271220D02*
D03*
Y634880D02*
D03*
X296620D02*
D03*
X271220Y609480D02*
D03*
X296620D02*
D03*
X271220Y584080D02*
D03*
X296620D02*
D03*
X271220Y558680D02*
D03*
X296620D02*
D03*
X271220Y533280D02*
D03*
X296620D02*
D03*
X271220Y507880D02*
D03*
X296620D02*
D03*
X271220Y482480D02*
D03*
X296620D02*
D03*
X271220Y457080D02*
D03*
X296620D02*
D03*
X271220Y431680D02*
D03*
X296620D02*
D03*
X271220Y406280D02*
D03*
X296620D02*
D03*
X271220Y380880D02*
D03*
X296620D02*
D03*
X271220Y355480D02*
D03*
X296620D02*
D03*
D57*
X525520Y660280D02*
D03*
X296620D02*
D03*
D58*
X644800Y388000D02*
D03*
X620000Y360000D02*
D03*
X619400Y34200D02*
D03*
X606500Y34000D02*
D03*
X632027D02*
D03*
X390000Y159566D02*
D03*
X357900Y34000D02*
D03*
X383300D02*
D03*
X370600D02*
D03*
X619000Y154075D02*
D03*
X375000Y159566D02*
D03*
X619921Y445200D02*
D03*
X193000Y410350D02*
D03*
X69000Y354000D02*
D03*
X143250Y474750D02*
D03*
X106000Y376000D02*
D03*
X156000Y441700D02*
D03*
M02*
