G04*
G04 #@! TF.GenerationSoftware,Altium Limited,Altium Designer,20.2.6 (244)*
G04*
G04 Layer_Color=255*
%FSLAX44Y44*%
%MOMM*%
G71*
G04*
G04 #@! TF.SameCoordinates,206DDC9A-6AB5-4D35-AA82-BAB3787187E7*
G04*
G04*
G04 #@! TF.FilePolarity,Positive*
G04*
G01*
G75*
G04:AMPARAMS|DCode=18|XSize=2.54mm|YSize=0.635mm|CornerRadius=0.1588mm|HoleSize=0mm|Usage=FLASHONLY|Rotation=90.000|XOffset=0mm|YOffset=0mm|HoleType=Round|Shape=RoundedRectangle|*
%AMROUNDEDRECTD18*
21,1,2.5400,0.3175,0,0,90.0*
21,1,2.2225,0.6350,0,0,90.0*
1,1,0.3175,0.1588,1.1113*
1,1,0.3175,0.1588,-1.1113*
1,1,0.3175,-0.1588,-1.1113*
1,1,0.3175,-0.1588,1.1113*
%
%ADD18ROUNDEDRECTD18*%
%ADD19R,0.6350X2.5400*%
%ADD20R,0.6500X1.0600*%
%ADD21O,1.4500X0.6000*%
%ADD22R,2.2500X1.0500*%
G04:AMPARAMS|DCode=23|XSize=0.95mm|YSize=0.8mm|CornerRadius=0.1mm|HoleSize=0mm|Usage=FLASHONLY|Rotation=0.000|XOffset=0mm|YOffset=0mm|HoleType=Round|Shape=RoundedRectangle|*
%AMROUNDEDRECTD23*
21,1,0.9500,0.6000,0,0,0.0*
21,1,0.7500,0.8000,0,0,0.0*
1,1,0.2000,0.3750,-0.3000*
1,1,0.2000,-0.3750,-0.3000*
1,1,0.2000,-0.3750,0.3000*
1,1,0.2000,0.3750,0.3000*
%
%ADD23ROUNDEDRECTD23*%
G04:AMPARAMS|DCode=24|XSize=0.95mm|YSize=0.8mm|CornerRadius=0.08mm|HoleSize=0mm|Usage=FLASHONLY|Rotation=0.000|XOffset=0mm|YOffset=0mm|HoleType=Round|Shape=RoundedRectangle|*
%AMROUNDEDRECTD24*
21,1,0.9500,0.6400,0,0,0.0*
21,1,0.7900,0.8000,0,0,0.0*
1,1,0.1600,0.3950,-0.3200*
1,1,0.1600,-0.3950,-0.3200*
1,1,0.1600,-0.3950,0.3200*
1,1,0.1600,0.3950,0.3200*
%
%ADD24ROUNDEDRECTD24*%
G04:AMPARAMS|DCode=25|XSize=0.95mm|YSize=0.8mm|CornerRadius=0.1mm|HoleSize=0mm|Usage=FLASHONLY|Rotation=90.000|XOffset=0mm|YOffset=0mm|HoleType=Round|Shape=RoundedRectangle|*
%AMROUNDEDRECTD25*
21,1,0.9500,0.6000,0,0,90.0*
21,1,0.7500,0.8000,0,0,90.0*
1,1,0.2000,0.3000,0.3750*
1,1,0.2000,0.3000,-0.3750*
1,1,0.2000,-0.3000,-0.3750*
1,1,0.2000,-0.3000,0.3750*
%
%ADD25ROUNDEDRECTD25*%
G04:AMPARAMS|DCode=26|XSize=0.95mm|YSize=0.8mm|CornerRadius=0.08mm|HoleSize=0mm|Usage=FLASHONLY|Rotation=90.000|XOffset=0mm|YOffset=0mm|HoleType=Round|Shape=RoundedRectangle|*
%AMROUNDEDRECTD26*
21,1,0.9500,0.6400,0,0,90.0*
21,1,0.7900,0.8000,0,0,90.0*
1,1,0.1600,0.3200,0.3950*
1,1,0.1600,0.3200,-0.3950*
1,1,0.1600,-0.3200,-0.3950*
1,1,0.1600,-0.3200,0.3950*
%
%ADD26ROUNDEDRECTD26*%
%ADD27R,0.8000X0.9000*%
%ADD46R,1.0000X1.0000*%
%ADD47C,1.0000*%
%ADD48R,0.8000X0.8000*%
%ADD53C,1.5240*%
%ADD54R,1.5240X1.5240*%
%ADD55C,3.0000*%
%ADD56C,1.5000*%
%ADD57R,1.5000X1.5000*%
D18*
X345200Y54280D02*
D03*
X594000D02*
D03*
X94600Y215140D02*
D03*
D19*
X345200Y100000D02*
D03*
X357900Y54280D02*
D03*
Y100000D02*
D03*
X370600Y54280D02*
D03*
Y100000D02*
D03*
X383300Y54280D02*
D03*
Y100000D02*
D03*
X396000Y54280D02*
D03*
Y100000D02*
D03*
X594000D02*
D03*
X606700Y54280D02*
D03*
Y100000D02*
D03*
X619400Y54280D02*
D03*
Y100000D02*
D03*
X632100Y54280D02*
D03*
Y100000D02*
D03*
X644800Y54280D02*
D03*
Y100000D02*
D03*
X94600Y260860D02*
D03*
X107300Y215140D02*
D03*
Y260860D02*
D03*
X120000Y215140D02*
D03*
Y260860D02*
D03*
X132700Y215140D02*
D03*
Y260860D02*
D03*
X145400Y215140D02*
D03*
Y260860D02*
D03*
D20*
X737000Y387750D02*
D03*
X746500Y365750D02*
D03*
X727500D02*
D03*
D21*
X88750Y467100D02*
D03*
Y454400D02*
D03*
Y441700D02*
D03*
Y429000D02*
D03*
Y416300D02*
D03*
Y403600D02*
D03*
Y390900D02*
D03*
X143250Y467100D02*
D03*
Y454400D02*
D03*
Y441700D02*
D03*
Y429000D02*
D03*
Y416300D02*
D03*
Y403600D02*
D03*
Y390900D02*
D03*
D22*
X684250Y493750D02*
D03*
Y454250D02*
D03*
X741750D02*
D03*
Y493750D02*
D03*
D23*
X670000Y377750D02*
D03*
X645000Y377750D02*
D03*
X57000Y390250D02*
D03*
X595478Y409250D02*
D03*
X670000Y409250D02*
D03*
X176280Y410350D02*
D03*
X695000Y377750D02*
D03*
X57151Y354250D02*
D03*
X176280Y442750D02*
D03*
X57000Y481500D02*
D03*
X176280Y359250D02*
D03*
X176000Y471250D02*
D03*
X57000Y428250D02*
D03*
D24*
X670000Y364250D02*
D03*
X645000Y364250D02*
D03*
X57000Y403750D02*
D03*
X595478Y422750D02*
D03*
X670000Y422750D02*
D03*
X176280Y396850D02*
D03*
X695000Y364250D02*
D03*
X57151Y367750D02*
D03*
X176280Y429250D02*
D03*
X57000Y468000D02*
D03*
X176280Y372750D02*
D03*
X176000Y484750D02*
D03*
X57000Y441750D02*
D03*
D25*
X594217Y533280D02*
D03*
Y558680D02*
D03*
X129250Y364250D02*
D03*
D26*
X607716Y533280D02*
D03*
Y558680D02*
D03*
X142750Y364250D02*
D03*
D27*
X92000Y365000D02*
D03*
X108000D02*
D03*
D46*
X620008Y593224D02*
D03*
Y611004D02*
D03*
D47*
X750000Y600000D02*
D03*
Y100000D02*
D03*
X50000Y600000D02*
D03*
D48*
X620000Y425250D02*
D03*
Y408750D02*
D03*
X644600Y425250D02*
D03*
Y408750D02*
D03*
D53*
X394600Y227000D02*
D03*
X420000D02*
D03*
Y252400D02*
D03*
X394600D02*
D03*
X369200D02*
D03*
Y227000D02*
D03*
X343800Y252400D02*
D03*
Y227000D02*
D03*
X318400Y252400D02*
D03*
X644600Y227000D02*
D03*
X670000D02*
D03*
Y252400D02*
D03*
X644600D02*
D03*
X619200D02*
D03*
Y227000D02*
D03*
X593800Y252400D02*
D03*
Y227000D02*
D03*
X568400Y252400D02*
D03*
X607400Y488500D02*
D03*
D54*
X318908Y226746D02*
D03*
X568908D02*
D03*
X582000Y488500D02*
D03*
D55*
X50000Y50000D02*
D03*
Y650000D02*
D03*
X750000D02*
D03*
Y50000D02*
D03*
D56*
X525520Y355480D02*
D03*
X500120D02*
D03*
X525520Y380880D02*
D03*
X500120D02*
D03*
X525520Y406280D02*
D03*
X500120D02*
D03*
X525520Y431680D02*
D03*
X500120D02*
D03*
X525520Y457080D02*
D03*
X500120D02*
D03*
X525520Y482480D02*
D03*
X500120D02*
D03*
X525520Y507880D02*
D03*
X500120D02*
D03*
X525520Y533280D02*
D03*
X500120D02*
D03*
X525520Y558680D02*
D03*
X500120D02*
D03*
X525520Y584080D02*
D03*
X500120D02*
D03*
X525520Y609480D02*
D03*
X500120D02*
D03*
X525520Y634880D02*
D03*
X500120D02*
D03*
Y660280D02*
D03*
X271220D02*
D03*
Y634880D02*
D03*
X296620D02*
D03*
X271220Y609480D02*
D03*
X296620D02*
D03*
X271220Y584080D02*
D03*
X296620D02*
D03*
X271220Y558680D02*
D03*
X296620D02*
D03*
X271220Y533280D02*
D03*
X296620D02*
D03*
X271220Y507880D02*
D03*
X296620D02*
D03*
X271220Y482480D02*
D03*
X296620D02*
D03*
X271220Y457080D02*
D03*
X296620D02*
D03*
X271220Y431680D02*
D03*
X296620D02*
D03*
X271220Y406280D02*
D03*
X296620D02*
D03*
X271220Y380880D02*
D03*
X296620D02*
D03*
X271220Y355480D02*
D03*
X296620D02*
D03*
D57*
X525520Y660280D02*
D03*
X296620D02*
D03*
M02*
