G04*
G04 #@! TF.GenerationSoftware,Altium Limited,Altium Designer,20.2.6 (244)*
G04*
G04 Layer_Color=12632256*
%FSLAX44Y44*%
%MOMM*%
G71*
G04*
G04 #@! TF.SameCoordinates,206DDC9A-6AB5-4D35-AA82-BAB3787187E7*
G04*
G04*
G04 #@! TF.FilePolarity,Positive*
G04*
G01*
G75*
%ADD53C,1.5240*%
%ADD54R,1.5240X1.5240*%
%ADD55C,3.0000*%
%ADD56C,1.5000*%
%ADD57R,1.5000X1.5000*%
D53*
X394600Y227000D02*
D03*
X420000D02*
D03*
Y252400D02*
D03*
X394600D02*
D03*
X369200D02*
D03*
Y227000D02*
D03*
X343800Y252400D02*
D03*
Y227000D02*
D03*
X318400Y252400D02*
D03*
X644600Y227000D02*
D03*
X670000D02*
D03*
Y252400D02*
D03*
X644600D02*
D03*
X619200D02*
D03*
Y227000D02*
D03*
X593800Y252400D02*
D03*
Y227000D02*
D03*
X568400Y252400D02*
D03*
X607400Y488500D02*
D03*
D54*
X318908Y226746D02*
D03*
X568908D02*
D03*
X582000Y488500D02*
D03*
D55*
X50000Y50000D02*
D03*
Y650000D02*
D03*
X750000D02*
D03*
Y50000D02*
D03*
D56*
X525520Y355480D02*
D03*
X500120D02*
D03*
X525520Y380880D02*
D03*
X500120D02*
D03*
X525520Y406280D02*
D03*
X500120D02*
D03*
X525520Y431680D02*
D03*
X500120D02*
D03*
X525520Y457080D02*
D03*
X500120D02*
D03*
X525520Y482480D02*
D03*
X500120D02*
D03*
X525520Y507880D02*
D03*
X500120D02*
D03*
X525520Y533280D02*
D03*
X500120D02*
D03*
X525520Y558680D02*
D03*
X500120D02*
D03*
X525520Y584080D02*
D03*
X500120D02*
D03*
X525520Y609480D02*
D03*
X500120D02*
D03*
X525520Y634880D02*
D03*
X500120D02*
D03*
Y660280D02*
D03*
X271220D02*
D03*
Y634880D02*
D03*
X296620D02*
D03*
X271220Y609480D02*
D03*
X296620D02*
D03*
X271220Y584080D02*
D03*
X296620D02*
D03*
X271220Y558680D02*
D03*
X296620D02*
D03*
X271220Y533280D02*
D03*
X296620D02*
D03*
X271220Y507880D02*
D03*
X296620D02*
D03*
X271220Y482480D02*
D03*
X296620D02*
D03*
X271220Y457080D02*
D03*
X296620D02*
D03*
X271220Y431680D02*
D03*
X296620D02*
D03*
X271220Y406280D02*
D03*
X296620D02*
D03*
X271220Y380880D02*
D03*
X296620D02*
D03*
X271220Y355480D02*
D03*
X296620D02*
D03*
D57*
X525520Y660280D02*
D03*
X296620D02*
D03*
M02*
