G04*
G04 #@! TF.GenerationSoftware,Altium Limited,Altium Designer,20.2.6 (244)*
G04*
G04 Layer_Physical_Order=1*
G04 Layer_Color=255*
%FSLAX44Y44*%
%MOMM*%
G71*
G04*
G04 #@! TF.SameCoordinates,206DDC9A-6AB5-4D35-AA82-BAB3787187E7*
G04*
G04*
G04 #@! TF.FilePolarity,Positive*
G04*
G01*
G75*
G04:AMPARAMS|DCode=18|XSize=2.54mm|YSize=0.635mm|CornerRadius=0.1588mm|HoleSize=0mm|Usage=FLASHONLY|Rotation=90.000|XOffset=0mm|YOffset=0mm|HoleType=Round|Shape=RoundedRectangle|*
%AMROUNDEDRECTD18*
21,1,2.5400,0.3175,0,0,90.0*
21,1,2.2225,0.6350,0,0,90.0*
1,1,0.3175,0.1588,1.1113*
1,1,0.3175,0.1588,-1.1113*
1,1,0.3175,-0.1588,-1.1113*
1,1,0.3175,-0.1588,1.1113*
%
%ADD18ROUNDEDRECTD18*%
%ADD19R,0.6350X2.5400*%
%ADD20R,0.6500X1.0600*%
%ADD21O,1.4500X0.6000*%
%ADD22R,2.2500X1.0500*%
G04:AMPARAMS|DCode=23|XSize=0.95mm|YSize=0.8mm|CornerRadius=0.1mm|HoleSize=0mm|Usage=FLASHONLY|Rotation=0.000|XOffset=0mm|YOffset=0mm|HoleType=Round|Shape=RoundedRectangle|*
%AMROUNDEDRECTD23*
21,1,0.9500,0.6000,0,0,0.0*
21,1,0.7500,0.8000,0,0,0.0*
1,1,0.2000,0.3750,-0.3000*
1,1,0.2000,-0.3750,-0.3000*
1,1,0.2000,-0.3750,0.3000*
1,1,0.2000,0.3750,0.3000*
%
%ADD23ROUNDEDRECTD23*%
G04:AMPARAMS|DCode=24|XSize=0.95mm|YSize=0.8mm|CornerRadius=0.08mm|HoleSize=0mm|Usage=FLASHONLY|Rotation=0.000|XOffset=0mm|YOffset=0mm|HoleType=Round|Shape=RoundedRectangle|*
%AMROUNDEDRECTD24*
21,1,0.9500,0.6400,0,0,0.0*
21,1,0.7900,0.8000,0,0,0.0*
1,1,0.1600,0.3950,-0.3200*
1,1,0.1600,-0.3950,-0.3200*
1,1,0.1600,-0.3950,0.3200*
1,1,0.1600,0.3950,0.3200*
%
%ADD24ROUNDEDRECTD24*%
G04:AMPARAMS|DCode=25|XSize=0.95mm|YSize=0.8mm|CornerRadius=0.1mm|HoleSize=0mm|Usage=FLASHONLY|Rotation=90.000|XOffset=0mm|YOffset=0mm|HoleType=Round|Shape=RoundedRectangle|*
%AMROUNDEDRECTD25*
21,1,0.9500,0.6000,0,0,90.0*
21,1,0.7500,0.8000,0,0,90.0*
1,1,0.2000,0.3000,0.3750*
1,1,0.2000,0.3000,-0.3750*
1,1,0.2000,-0.3000,-0.3750*
1,1,0.2000,-0.3000,0.3750*
%
%ADD25ROUNDEDRECTD25*%
G04:AMPARAMS|DCode=26|XSize=0.95mm|YSize=0.8mm|CornerRadius=0.08mm|HoleSize=0mm|Usage=FLASHONLY|Rotation=90.000|XOffset=0mm|YOffset=0mm|HoleType=Round|Shape=RoundedRectangle|*
%AMROUNDEDRECTD26*
21,1,0.9500,0.6400,0,0,90.0*
21,1,0.7900,0.8000,0,0,90.0*
1,1,0.1600,0.3200,0.3950*
1,1,0.1600,0.3200,-0.3950*
1,1,0.1600,-0.3200,-0.3950*
1,1,0.1600,-0.3200,0.3950*
%
%ADD26ROUNDEDRECTD26*%
%ADD27R,0.8000X0.9000*%
%ADD46R,1.0000X1.0000*%
%ADD47C,1.0000*%
%ADD48R,0.8000X0.8000*%
%ADD49C,0.1500*%
%ADD50C,0.5000*%
%ADD51C,0.3000*%
%ADD52C,0.4200*%
%ADD53C,1.5240*%
%ADD54R,1.5240X1.5240*%
%ADD55C,3.0000*%
%ADD56C,1.5000*%
%ADD57R,1.5000X1.5000*%
%ADD58C,0.6000*%
G36*
X795000Y690000D02*
Y10000D01*
X790000Y5000D01*
X10000D01*
X5000Y10000D01*
Y690000D01*
X10000Y695000D01*
X790000D01*
X795000Y690000D01*
D02*
G37*
%LPC*%
G36*
X535560Y670320D02*
X526270D01*
Y661030D01*
X535560D01*
Y670320D01*
D02*
G37*
G36*
X306660D02*
X297370D01*
Y661030D01*
X306660D01*
Y670320D01*
D02*
G37*
G36*
X295870D02*
X286580D01*
Y661030D01*
X295870D01*
Y670320D01*
D02*
G37*
G36*
X271220Y669106D02*
X268936Y668805D01*
X266807Y667923D01*
X264979Y666521D01*
X263577Y664693D01*
X263333Y664103D01*
X258280D01*
X256817Y663812D01*
X255576Y662984D01*
X244296Y651704D01*
X243468Y650463D01*
X243176Y649000D01*
Y636060D01*
Y609480D01*
Y557500D01*
X243468Y556037D01*
X244296Y554796D01*
X262939Y536153D01*
X262695Y535564D01*
X262394Y533280D01*
X262695Y530996D01*
X263577Y528867D01*
X264979Y527039D01*
X266807Y525637D01*
X268936Y524755D01*
X271220Y524454D01*
X273504Y524755D01*
X274093Y524999D01*
X280796Y518296D01*
X282037Y517468D01*
X283500Y517177D01*
X292880D01*
X293133Y515906D01*
X292207Y515523D01*
X290379Y514121D01*
X288977Y512293D01*
X288095Y510164D01*
X287794Y507880D01*
X288095Y505596D01*
X288977Y503467D01*
X290379Y501639D01*
X292207Y500237D01*
X294336Y499355D01*
X296620Y499054D01*
X298904Y499355D01*
X301033Y500237D01*
X302860Y501639D01*
X304263Y503467D01*
X305145Y505596D01*
X305445Y507880D01*
X305145Y510164D01*
X304263Y512293D01*
X302860Y514121D01*
X301033Y515523D01*
X300107Y515906D01*
X300359Y517177D01*
X470177D01*
Y427000D01*
X470468Y425537D01*
X471296Y424296D01*
X479296Y416296D01*
X480537Y415468D01*
X482000Y415177D01*
X495415D01*
X495695Y413977D01*
X495686Y413907D01*
X493879Y412521D01*
X492477Y410693D01*
X491595Y408564D01*
X491295Y406280D01*
X491595Y403996D01*
X492477Y401867D01*
X493879Y400039D01*
X495707Y398637D01*
X497836Y397755D01*
X500120Y397454D01*
X502404Y397755D01*
X504533Y398637D01*
X506361Y400039D01*
X507763Y401867D01*
X508645Y403996D01*
X508946Y406280D01*
X508645Y408564D01*
X507763Y410693D01*
X506361Y412521D01*
X504554Y413907D01*
X504545Y413977D01*
X504825Y415177D01*
X511216D01*
X517239Y409154D01*
X516995Y408564D01*
X516694Y406280D01*
X516995Y403996D01*
X517877Y401867D01*
X519279Y400039D01*
X521107Y398637D01*
X523236Y397755D01*
X525520Y397454D01*
X527804Y397755D01*
X529933Y398637D01*
X531761Y400039D01*
X533163Y401867D01*
X534045Y403996D01*
X534346Y406280D01*
X534045Y408564D01*
X533163Y410693D01*
X531761Y412521D01*
X529933Y413923D01*
X527804Y414805D01*
X525520Y415106D01*
X523236Y414805D01*
X522646Y414561D01*
X515504Y421704D01*
X514263Y422532D01*
X512800Y422823D01*
X505215D01*
X504599Y423960D01*
X504607Y424094D01*
X506361Y425439D01*
X507763Y427267D01*
X508645Y429396D01*
X508946Y431680D01*
X508645Y433964D01*
X507763Y436093D01*
X506361Y437921D01*
X504533Y439323D01*
X502404Y440205D01*
X500120Y440505D01*
X497836Y440205D01*
X495707Y439323D01*
X493879Y437921D01*
X492477Y436093D01*
X491595Y433964D01*
X491295Y431680D01*
X491595Y429396D01*
X492477Y427267D01*
X493879Y425439D01*
X495634Y424094D01*
X495641Y423960D01*
X495025Y422823D01*
X483584D01*
X477823Y428584D01*
Y517177D01*
X496380D01*
X496633Y515906D01*
X495707Y515523D01*
X493879Y514121D01*
X492477Y512293D01*
X491595Y510164D01*
X491295Y507880D01*
X491595Y505596D01*
X492477Y503467D01*
X493879Y501639D01*
X495707Y500237D01*
X497836Y499355D01*
X500120Y499054D01*
X502404Y499355D01*
X504533Y500237D01*
X504729Y500387D01*
X511558Y493558D01*
X511558Y493558D01*
X512220Y493116D01*
X513000Y492961D01*
X545744D01*
X582334Y456371D01*
X582334Y456371D01*
X582334Y456371D01*
X586358Y452347D01*
X593439Y445266D01*
Y428040D01*
X591528D01*
X590728Y427881D01*
X590050Y427428D01*
X589597Y426750D01*
X589438Y425950D01*
Y419550D01*
X589597Y418750D01*
X590050Y418072D01*
X590728Y417619D01*
X591528Y417460D01*
X599428D01*
X600228Y417619D01*
X600906Y418072D01*
X601359Y418750D01*
X601518Y419550D01*
Y425950D01*
X601359Y426750D01*
X600906Y427428D01*
X600228Y427881D01*
X599428Y428040D01*
X597517D01*
Y446110D01*
X597362Y446891D01*
X596920Y447552D01*
X596920Y447552D01*
X593435Y451037D01*
X593921Y452211D01*
X631055D01*
X642561Y440705D01*
Y430500D01*
X639350D01*
Y420000D01*
X649850D01*
Y430500D01*
X646639D01*
Y441550D01*
X646484Y442330D01*
X646042Y442992D01*
X633342Y455692D01*
X632680Y456134D01*
X631900Y456289D01*
X588261D01*
X588261Y456289D01*
X588196Y456276D01*
X585218Y459254D01*
X585218Y459255D01*
X548030Y496442D01*
X547369Y496884D01*
X546589Y497039D01*
X513845D01*
X507613Y503271D01*
X507763Y503467D01*
X508645Y505596D01*
X508946Y507880D01*
X508645Y510164D01*
X507763Y512293D01*
X506361Y514121D01*
X504533Y515523D01*
X503607Y515906D01*
X503860Y517177D01*
X510962D01*
X512425Y517468D01*
X513666Y518296D01*
X521050Y525681D01*
X521107Y525637D01*
X523236Y524755D01*
X525520Y524454D01*
X527804Y524755D01*
X529933Y525637D01*
X531761Y527039D01*
X533163Y528867D01*
X533407Y529456D01*
X588937D01*
X589097Y528652D01*
X589595Y527908D01*
X590339Y527411D01*
X591217Y527236D01*
X597217D01*
X598095Y527411D01*
X598839Y527908D01*
X599336Y528652D01*
X599511Y529530D01*
Y537030D01*
X599336Y537908D01*
X598839Y538652D01*
X598095Y539150D01*
X597217Y539324D01*
X591217D01*
X590339Y539150D01*
X589595Y538652D01*
X589097Y537908D01*
X588937Y537104D01*
X533407D01*
X533163Y537693D01*
X531761Y539521D01*
X529933Y540923D01*
X527804Y541805D01*
X525520Y542105D01*
X523236Y541805D01*
X521107Y540923D01*
X519279Y539521D01*
X517877Y537693D01*
X516995Y535564D01*
X516694Y533280D01*
X516827Y532272D01*
X509378Y524823D01*
X505559D01*
X505128Y526093D01*
X506361Y527039D01*
X507763Y528867D01*
X508645Y530996D01*
X508946Y533280D01*
X508645Y535564D01*
X507763Y537693D01*
X506361Y539521D01*
X504533Y540923D01*
X502404Y541805D01*
X500120Y542105D01*
X497836Y541805D01*
X495707Y540923D01*
X493879Y539521D01*
X492477Y537693D01*
X491595Y535564D01*
X491295Y533280D01*
X491595Y530996D01*
X492477Y528867D01*
X493879Y527039D01*
X495112Y526093D01*
X494681Y524823D01*
X302059D01*
X301628Y526093D01*
X302860Y527039D01*
X304263Y528867D01*
X305145Y530996D01*
X305445Y533280D01*
X305145Y535564D01*
X304263Y537693D01*
X302860Y539521D01*
X301033Y540923D01*
X298904Y541805D01*
X296620Y542105D01*
X294336Y541805D01*
X292207Y540923D01*
X290379Y539521D01*
X288977Y537693D01*
X288095Y535564D01*
X287794Y533280D01*
X288095Y530996D01*
X288977Y528867D01*
X290379Y527039D01*
X291612Y526093D01*
X291181Y524823D01*
X285084D01*
X279501Y530406D01*
X279745Y530996D01*
X280045Y533280D01*
X279745Y535564D01*
X278863Y537693D01*
X277460Y539521D01*
X275632Y540923D01*
X273504Y541805D01*
X271220Y542105D01*
X268936Y541805D01*
X268346Y541561D01*
X250823Y559084D01*
Y605657D01*
X263333D01*
X263577Y605067D01*
X264979Y603239D01*
X266807Y601837D01*
X268936Y600955D01*
X271220Y600654D01*
X273504Y600955D01*
X275632Y601837D01*
X277460Y603239D01*
X278863Y605067D01*
X279745Y607196D01*
X280045Y609480D01*
X279745Y611764D01*
X278863Y613893D01*
X277460Y615721D01*
X275632Y617123D01*
X273504Y618005D01*
X271220Y618306D01*
X268936Y618005D01*
X266807Y617123D01*
X264979Y615721D01*
X263577Y613893D01*
X263333Y613303D01*
X250823D01*
Y631057D01*
X263333D01*
X263577Y630467D01*
X264979Y628639D01*
X266807Y627237D01*
X268936Y626355D01*
X271220Y626054D01*
X273504Y626355D01*
X275632Y627237D01*
X277460Y628639D01*
X278863Y630467D01*
X279745Y632596D01*
X280045Y634880D01*
X279745Y637164D01*
X278863Y639293D01*
X277460Y641121D01*
X275632Y642523D01*
X273504Y643405D01*
X271220Y643706D01*
X268936Y643405D01*
X266807Y642523D01*
X264979Y641121D01*
X263577Y639293D01*
X263333Y638703D01*
X250823D01*
Y647416D01*
X259864Y656457D01*
X263333D01*
X263577Y655867D01*
X264979Y654039D01*
X266807Y652637D01*
X268936Y651755D01*
X271220Y651454D01*
X273504Y651755D01*
X275632Y652637D01*
X277460Y654039D01*
X278863Y655867D01*
X279745Y657996D01*
X280045Y660280D01*
X279745Y662564D01*
X278863Y664693D01*
X277460Y666521D01*
X275632Y667923D01*
X273504Y668805D01*
X271220Y669106D01*
D02*
G37*
G36*
X535560Y659530D02*
X526270D01*
Y650240D01*
X535560D01*
Y659530D01*
D02*
G37*
G36*
X524770D02*
X515480D01*
Y650240D01*
X524770D01*
Y659530D01*
D02*
G37*
G36*
X306660D02*
X297370D01*
Y650240D01*
X306660D01*
Y659530D01*
D02*
G37*
G36*
X295870D02*
X286580D01*
Y650240D01*
X295870D01*
Y659530D01*
D02*
G37*
G36*
X526270Y644908D02*
Y635630D01*
X535548D01*
X535302Y637501D01*
X534290Y639943D01*
X532681Y642041D01*
X530583Y643650D01*
X528141Y644662D01*
X526270Y644908D01*
D02*
G37*
G36*
X297370D02*
Y635630D01*
X306648D01*
X306401Y637501D01*
X305390Y639943D01*
X303780Y642041D01*
X301683Y643650D01*
X299241Y644662D01*
X297370Y644908D01*
D02*
G37*
G36*
X295870D02*
X293999Y644662D01*
X291556Y643650D01*
X289459Y642041D01*
X287850Y639943D01*
X286838Y637501D01*
X286592Y635630D01*
X295870D01*
Y644908D01*
D02*
G37*
G36*
X524770D02*
X522899Y644662D01*
X520457Y643650D01*
X518359Y642041D01*
X516750Y639943D01*
X515738Y637501D01*
X515492Y635630D01*
X524770D01*
Y644908D01*
D02*
G37*
G36*
X306648Y634130D02*
X297370D01*
Y624852D01*
X299241Y625098D01*
X301683Y626110D01*
X303780Y627719D01*
X305390Y629817D01*
X306401Y632259D01*
X306648Y634130D01*
D02*
G37*
G36*
X295870D02*
X286592D01*
X286838Y632259D01*
X287850Y629817D01*
X289459Y627719D01*
X291556Y626110D01*
X293999Y625098D01*
X295870Y624852D01*
Y634130D01*
D02*
G37*
G36*
X749830Y679742D02*
X745162Y679375D01*
X740608Y678281D01*
X736282Y676489D01*
X732289Y674043D01*
X728728Y671002D01*
X725687Y667441D01*
X723241Y663448D01*
X721449Y659122D01*
X720355Y654568D01*
X719988Y649900D01*
X720355Y645232D01*
X721449Y640678D01*
X723241Y636352D01*
X725687Y632359D01*
X728728Y628798D01*
X732289Y625757D01*
X736282Y623311D01*
X740608Y621519D01*
X745162Y620425D01*
X749830Y620058D01*
X754498Y620425D01*
X759052Y621519D01*
X763378Y623311D01*
X767371Y625757D01*
X770931Y628798D01*
X773973Y632359D01*
X776419Y636352D01*
X778211Y640678D01*
X779305Y645232D01*
X779672Y649900D01*
X779305Y654568D01*
X778211Y659122D01*
X776419Y663448D01*
X773973Y667441D01*
X770931Y671002D01*
X767371Y674043D01*
X763378Y676489D01*
X759052Y678281D01*
X754498Y679375D01*
X749830Y679742D01*
D02*
G37*
G36*
X50080D02*
X45412Y679375D01*
X40858Y678281D01*
X36532Y676489D01*
X32539Y674043D01*
X28979Y671002D01*
X25937Y667441D01*
X23491Y663448D01*
X21699Y659122D01*
X20605Y654568D01*
X20238Y649900D01*
X20605Y645232D01*
X21699Y640678D01*
X23491Y636352D01*
X25937Y632359D01*
X28979Y628798D01*
X32539Y625757D01*
X36532Y623311D01*
X40858Y621519D01*
X45412Y620425D01*
X50080Y620058D01*
X54748Y620425D01*
X59302Y621519D01*
X63628Y623311D01*
X67621Y625757D01*
X71182Y628798D01*
X74223Y632359D01*
X76669Y636352D01*
X78461Y640678D01*
X79555Y645232D01*
X79922Y649900D01*
X79555Y654568D01*
X78461Y659122D01*
X76669Y663448D01*
X74223Y667441D01*
X71182Y671002D01*
X67621Y674043D01*
X63628Y676489D01*
X59302Y678281D01*
X54748Y679375D01*
X50080Y679742D01*
D02*
G37*
G36*
X297370Y619508D02*
Y610230D01*
X306648D01*
X306401Y612101D01*
X305390Y614543D01*
X303780Y616641D01*
X301683Y618250D01*
X299241Y619262D01*
X297370Y619508D01*
D02*
G37*
G36*
X295870D02*
X293999Y619262D01*
X291556Y618250D01*
X289459Y616641D01*
X287850Y614543D01*
X286838Y612101D01*
X286592Y610230D01*
X295870D01*
Y619508D01*
D02*
G37*
G36*
X500120Y618306D02*
X497836Y618005D01*
X495707Y617123D01*
X493879Y615721D01*
X492477Y613893D01*
X491595Y611764D01*
X491295Y609480D01*
X491595Y607196D01*
X492477Y605067D01*
X493879Y603239D01*
X495707Y601837D01*
X497836Y600955D01*
X500120Y600654D01*
X502404Y600955D01*
X504533Y601837D01*
X506361Y603239D01*
X507763Y605067D01*
X508645Y607196D01*
X508946Y609480D01*
X508645Y611764D01*
X507763Y613893D01*
X506361Y615721D01*
X504533Y617123D01*
X502404Y618005D01*
X500120Y618306D01*
D02*
G37*
G36*
X306648Y608730D02*
X297370D01*
Y599452D01*
X299241Y599698D01*
X301683Y600710D01*
X303780Y602319D01*
X305390Y604417D01*
X306401Y606859D01*
X306648Y608730D01*
D02*
G37*
G36*
X295870D02*
X286592D01*
X286838Y606859D01*
X287850Y604417D01*
X289459Y602319D01*
X291556Y600710D01*
X293999Y599698D01*
X295870Y599452D01*
Y608730D01*
D02*
G37*
G36*
X550012Y684824D02*
X520840D01*
X519377Y684532D01*
X518136Y683704D01*
X502994Y668561D01*
X502404Y668805D01*
X500120Y669106D01*
X497836Y668805D01*
X495707Y667923D01*
X493879Y666521D01*
X492477Y664693D01*
X491595Y662564D01*
X491295Y660280D01*
X491595Y657996D01*
X492477Y655867D01*
X493879Y654039D01*
X495707Y652637D01*
X497836Y651755D01*
X500120Y651454D01*
X502404Y651755D01*
X504533Y652637D01*
X506361Y654039D01*
X507763Y655867D01*
X508645Y657996D01*
X508946Y660280D01*
X508645Y662564D01*
X508401Y663154D01*
X514307Y669060D01*
X515480Y668574D01*
Y661030D01*
X524770D01*
Y670320D01*
X517226D01*
X516740Y671493D01*
X522424Y677177D01*
X548428D01*
X613758Y611847D01*
Y604754D01*
X616592D01*
Y599597D01*
X616508Y599528D01*
X616237Y599474D01*
X613758D01*
Y597048D01*
X585360D01*
X557704Y624704D01*
X556463Y625532D01*
X555000Y625824D01*
X532296D01*
X531865Y627094D01*
X532681Y627719D01*
X534290Y629817D01*
X535302Y632259D01*
X535548Y634130D01*
X525520D01*
X515492D01*
X515738Y632259D01*
X516750Y629817D01*
X518359Y627719D01*
X519175Y627094D01*
X518744Y625824D01*
X514584D01*
X508401Y632006D01*
X508645Y632596D01*
X508946Y634880D01*
X508645Y637164D01*
X507763Y639293D01*
X506361Y641121D01*
X504533Y642523D01*
X502404Y643405D01*
X500120Y643706D01*
X497836Y643405D01*
X495707Y642523D01*
X493879Y641121D01*
X492477Y639293D01*
X491595Y637164D01*
X491295Y634880D01*
X491595Y632596D01*
X492477Y630467D01*
X493879Y628639D01*
X495707Y627237D01*
X497836Y626355D01*
X500120Y626054D01*
X502404Y626355D01*
X502994Y626599D01*
X510296Y619296D01*
X511537Y618468D01*
X513000Y618176D01*
X520501D01*
X520508Y618164D01*
X520825Y616907D01*
X519279Y615721D01*
X517877Y613893D01*
X516995Y611764D01*
X516694Y609480D01*
X516995Y607196D01*
X517877Y605067D01*
X519279Y603239D01*
X521107Y601837D01*
X523236Y600955D01*
X525520Y600654D01*
X527804Y600955D01*
X529933Y601837D01*
X531761Y603239D01*
X533163Y605067D01*
X534045Y607196D01*
X534346Y609480D01*
X534045Y611764D01*
X533163Y613893D01*
X531761Y615721D01*
X530215Y616907D01*
X530532Y618164D01*
X530539Y618176D01*
X553416D01*
X581072Y590520D01*
X582313Y589692D01*
X583776Y589400D01*
X613758D01*
Y586974D01*
X626258D01*
Y599474D01*
X623424D01*
Y604754D01*
X626258D01*
Y617254D01*
X619165D01*
X552716Y683704D01*
X551475Y684532D01*
X550012Y684824D01*
D02*
G37*
G36*
X750000Y606373D02*
X747561Y605888D01*
X745494Y604506D01*
X744113Y602439D01*
X743628Y600000D01*
X744113Y597562D01*
X745494Y595494D01*
X747561Y594113D01*
X750000Y593628D01*
X752439Y594113D01*
X754506Y595494D01*
X755888Y597562D01*
X756373Y600000D01*
X755888Y602439D01*
X754506Y604506D01*
X752439Y605888D01*
X750000Y606373D01*
D02*
G37*
G36*
X50000D02*
X47561Y605888D01*
X45494Y604506D01*
X44113Y602439D01*
X43628Y600000D01*
X44113Y597562D01*
X45494Y595494D01*
X47561Y594113D01*
X50000Y593628D01*
X52439Y594113D01*
X54506Y595494D01*
X55887Y597562D01*
X56372Y600000D01*
X55887Y602439D01*
X54506Y604506D01*
X52439Y605888D01*
X50000Y606373D01*
D02*
G37*
G36*
X525520Y592906D02*
X523236Y592605D01*
X521107Y591723D01*
X519279Y590321D01*
X517877Y588493D01*
X516995Y586364D01*
X516694Y584080D01*
X516995Y581796D01*
X517877Y579667D01*
X519279Y577839D01*
X521107Y576437D01*
X523236Y575555D01*
X525520Y575255D01*
X527804Y575555D01*
X529933Y576437D01*
X531761Y577839D01*
X533163Y579667D01*
X534045Y581796D01*
X534346Y584080D01*
X534045Y586364D01*
X533163Y588493D01*
X531761Y590321D01*
X529933Y591723D01*
X527804Y592605D01*
X525520Y592906D01*
D02*
G37*
G36*
X500120D02*
X497836Y592605D01*
X495707Y591723D01*
X493879Y590321D01*
X492477Y588493D01*
X491595Y586364D01*
X491295Y584080D01*
X491595Y581796D01*
X492477Y579667D01*
X493879Y577839D01*
X495707Y576437D01*
X497836Y575555D01*
X500120Y575255D01*
X502404Y575555D01*
X504533Y576437D01*
X506361Y577839D01*
X507763Y579667D01*
X508645Y581796D01*
X508946Y584080D01*
X508645Y586364D01*
X507763Y588493D01*
X506361Y590321D01*
X504533Y591723D01*
X502404Y592605D01*
X500120Y592906D01*
D02*
G37*
G36*
X296620D02*
X294336Y592605D01*
X292207Y591723D01*
X290379Y590321D01*
X288977Y588493D01*
X288095Y586364D01*
X287794Y584080D01*
X288095Y581796D01*
X288977Y579667D01*
X290379Y577839D01*
X292207Y576437D01*
X294336Y575555D01*
X296620Y575255D01*
X298904Y575555D01*
X301033Y576437D01*
X302860Y577839D01*
X304263Y579667D01*
X305145Y581796D01*
X305445Y584080D01*
X305145Y586364D01*
X304263Y588493D01*
X302860Y590321D01*
X301033Y591723D01*
X298904Y592605D01*
X296620Y592906D01*
D02*
G37*
G36*
X271220D02*
X268936Y592605D01*
X266807Y591723D01*
X264979Y590321D01*
X263577Y588493D01*
X262695Y586364D01*
X262394Y584080D01*
X262695Y581796D01*
X263577Y579667D01*
X264979Y577839D01*
X266807Y576437D01*
X268936Y575555D01*
X271220Y575255D01*
X273504Y575555D01*
X275632Y576437D01*
X277460Y577839D01*
X278863Y579667D01*
X279745Y581796D01*
X280045Y584080D01*
X279745Y586364D01*
X278863Y588493D01*
X277460Y590321D01*
X275632Y591723D01*
X273504Y592605D01*
X271220Y592906D01*
D02*
G37*
G36*
X296620Y567505D02*
X294336Y567205D01*
X292207Y566323D01*
X290379Y564921D01*
X288977Y563093D01*
X288095Y560964D01*
X287794Y558680D01*
X288095Y556396D01*
X288977Y554267D01*
X290379Y552439D01*
X292207Y551037D01*
X294336Y550155D01*
X296620Y549855D01*
X298904Y550155D01*
X301033Y551037D01*
X302860Y552439D01*
X304263Y554267D01*
X305145Y556396D01*
X305445Y558680D01*
X305145Y560964D01*
X304263Y563093D01*
X302860Y564921D01*
X301033Y566323D01*
X298904Y567205D01*
X296620Y567505D01*
D02*
G37*
G36*
X271220D02*
X268936Y567205D01*
X266807Y566323D01*
X264979Y564921D01*
X263577Y563093D01*
X262695Y560964D01*
X262394Y558680D01*
X262695Y556396D01*
X263577Y554267D01*
X264979Y552439D01*
X266807Y551037D01*
X268936Y550155D01*
X271220Y549855D01*
X273504Y550155D01*
X275632Y551037D01*
X277460Y552439D01*
X278863Y554267D01*
X279745Y556396D01*
X280045Y558680D01*
X279745Y560964D01*
X278863Y563093D01*
X277460Y564921D01*
X275632Y566323D01*
X273504Y567205D01*
X271220Y567505D01*
D02*
G37*
G36*
X525520D02*
X523236Y567205D01*
X521107Y566323D01*
X519279Y564921D01*
X517877Y563093D01*
X516995Y560964D01*
X516694Y558680D01*
X516995Y556396D01*
X517877Y554267D01*
X519279Y552439D01*
X521107Y551037D01*
X522772Y550347D01*
X522520Y549077D01*
X512807D01*
X507700Y554184D01*
X507763Y554267D01*
X508645Y556396D01*
X508946Y558680D01*
X508645Y560964D01*
X507763Y563093D01*
X506361Y564921D01*
X504533Y566323D01*
X502404Y567205D01*
X500120Y567505D01*
X497836Y567205D01*
X495707Y566323D01*
X493879Y564921D01*
X492477Y563093D01*
X491595Y560964D01*
X491295Y558680D01*
X491595Y556396D01*
X492477Y554267D01*
X493879Y552439D01*
X495707Y551037D01*
X497836Y550155D01*
X500120Y549855D01*
X502404Y550155D01*
X504533Y551037D01*
X504842Y551274D01*
X510520Y545596D01*
X511182Y545154D01*
X511962Y544999D01*
X600122D01*
X604530Y540590D01*
X604527Y540262D01*
X604089Y539235D01*
X603717Y539161D01*
X603038Y538708D01*
X602585Y538030D01*
X602426Y537230D01*
Y529330D01*
X602585Y528530D01*
X603038Y527852D01*
X603717Y527399D01*
X604516Y527240D01*
X605361D01*
Y497178D01*
X605084Y497142D01*
X602927Y496248D01*
X601074Y494826D01*
X599652Y492973D01*
X598758Y490815D01*
X598453Y488500D01*
X598758Y486184D01*
X599652Y484027D01*
X601074Y482174D01*
X602927Y480752D01*
X605084Y479858D01*
X607400Y479553D01*
X609715Y479858D01*
X611873Y480752D01*
X613726Y482174D01*
X615148Y484027D01*
X616042Y486184D01*
X616347Y488500D01*
X616042Y490815D01*
X615148Y492973D01*
X613726Y494826D01*
X611873Y496248D01*
X609715Y497142D01*
X609439Y497178D01*
Y527240D01*
X610916D01*
X611716Y527399D01*
X612394Y527852D01*
X612847Y528530D01*
X613007Y529330D01*
Y537230D01*
X612847Y538030D01*
X612394Y538708D01*
X611716Y539161D01*
X610916Y539320D01*
X609756D01*
Y540288D01*
X609600Y541069D01*
X609158Y541730D01*
X602408Y548480D01*
X601747Y548922D01*
X600966Y549077D01*
X528520D01*
X528268Y550347D01*
X529933Y551037D01*
X531761Y552439D01*
X533163Y554267D01*
X534045Y556396D01*
X534058Y556499D01*
X588923D01*
Y554930D01*
X589097Y554052D01*
X589595Y553308D01*
X590339Y552811D01*
X591217Y552636D01*
X597217D01*
X598095Y552811D01*
X598839Y553308D01*
X599336Y554052D01*
X599511Y554930D01*
Y562430D01*
X599336Y563308D01*
X598839Y564052D01*
X598095Y564549D01*
X597217Y564724D01*
X591217D01*
X590339Y564549D01*
X589595Y564052D01*
X589097Y563308D01*
X588923Y562430D01*
Y560577D01*
X534096D01*
X534045Y560964D01*
X533163Y563093D01*
X531761Y564921D01*
X529933Y566323D01*
X527804Y567205D01*
X525520Y567505D01*
D02*
G37*
G36*
Y516706D02*
X523236Y516405D01*
X521107Y515523D01*
X519279Y514121D01*
X517877Y512293D01*
X516995Y510164D01*
X516694Y507880D01*
X516995Y505596D01*
X517877Y503467D01*
X519279Y501639D01*
X521107Y500237D01*
X523236Y499355D01*
X525520Y499054D01*
X527804Y499355D01*
X529933Y500237D01*
X531761Y501639D01*
X533163Y503467D01*
X534045Y505596D01*
X534346Y507880D01*
X534045Y510164D01*
X533163Y512293D01*
X531761Y514121D01*
X529933Y515523D01*
X527804Y516405D01*
X525520Y516706D01*
D02*
G37*
G36*
X271220D02*
X268936Y516405D01*
X266807Y515523D01*
X264979Y514121D01*
X263577Y512293D01*
X262695Y510164D01*
X262394Y507880D01*
X262695Y505596D01*
X263577Y503467D01*
X264979Y501639D01*
X266807Y500237D01*
X268936Y499355D01*
X271220Y499054D01*
X273504Y499355D01*
X275632Y500237D01*
X277460Y501639D01*
X278863Y503467D01*
X279745Y505596D01*
X280045Y507880D01*
X279745Y510164D01*
X278863Y512293D01*
X277460Y514121D01*
X275632Y515523D01*
X273504Y516405D01*
X271220Y516706D01*
D02*
G37*
G36*
X592160Y498660D02*
X582750D01*
Y489250D01*
X592160D01*
Y498660D01*
D02*
G37*
G36*
X581250D02*
X571840D01*
Y489250D01*
X581250D01*
Y498660D01*
D02*
G37*
G36*
X610916Y564720D02*
X604516D01*
X603717Y564561D01*
X603038Y564108D01*
X602585Y563430D01*
X602426Y562630D01*
Y554730D01*
X602585Y553930D01*
X603038Y553252D01*
X603717Y552799D01*
X604516Y552640D01*
X610916D01*
X611716Y552799D01*
X612394Y553252D01*
X612847Y553930D01*
X612937Y554383D01*
X614157Y554959D01*
X671750Y497366D01*
Y487250D01*
X682211D01*
Y480000D01*
X682366Y479220D01*
X682808Y478558D01*
X698068Y463298D01*
X697530Y462040D01*
X696981Y462040D01*
X685000D01*
Y455000D01*
X698040D01*
Y460897D01*
X698040Y461530D01*
X699299Y462068D01*
X734961Y426405D01*
Y394300D01*
X732500D01*
Y389789D01*
X725654D01*
X724874Y389634D01*
X724212Y389192D01*
X724212Y389192D01*
X702310Y367290D01*
X701040Y367338D01*
Y367450D01*
X700881Y368250D01*
X700428Y368928D01*
X699750Y369381D01*
X698950Y369540D01*
X691050D01*
X690250Y369381D01*
X689572Y368928D01*
X689119Y368250D01*
X688960Y367450D01*
Y361050D01*
X689119Y360250D01*
X689572Y359572D01*
X690250Y359119D01*
X691050Y358960D01*
X698950D01*
X699750Y359119D01*
X700428Y359572D01*
X700881Y360250D01*
X701040Y361050D01*
Y363178D01*
X703121D01*
X703902Y363334D01*
X704563Y363776D01*
X726498Y385711D01*
X732500D01*
Y381200D01*
X741500D01*
Y394300D01*
X739039D01*
Y427250D01*
X739039Y427250D01*
X738884Y428030D01*
X738442Y428692D01*
X738442Y428692D01*
X686289Y480845D01*
Y487250D01*
X696750D01*
Y491711D01*
X729250D01*
Y487250D01*
X746053D01*
X746250Y487211D01*
X746447Y487250D01*
X754250D01*
Y500250D01*
X729250D01*
Y495789D01*
X696750D01*
Y500250D01*
X679947D01*
X679750Y500289D01*
X674595D01*
X614762Y560122D01*
X614100Y560564D01*
X613320Y560719D01*
X613007D01*
Y562630D01*
X612847Y563430D01*
X612394Y564108D01*
X611716Y564561D01*
X610916Y564720D01*
D02*
G37*
G36*
X179950Y491356D02*
X176750D01*
Y485500D01*
X183356D01*
Y487950D01*
X183096Y489254D01*
X182358Y490358D01*
X181253Y491096D01*
X179950Y491356D01*
D02*
G37*
G36*
X175250D02*
X172050D01*
X170747Y491096D01*
X169642Y490358D01*
X168904Y489254D01*
X168645Y487950D01*
Y485500D01*
X175250D01*
Y491356D01*
D02*
G37*
G36*
X592160Y487750D02*
X582750D01*
Y478340D01*
X592160D01*
Y487750D01*
D02*
G37*
G36*
X581250D02*
X571840D01*
Y478340D01*
X581250D01*
Y487750D01*
D02*
G37*
G36*
X183356Y484000D02*
X176750D01*
Y478145D01*
X179950D01*
X181253Y478404D01*
X182358Y479142D01*
X183096Y480247D01*
X183356Y481550D01*
Y484000D01*
D02*
G37*
G36*
X175250D02*
X168645D01*
Y481550D01*
X168904Y480247D01*
X169642Y479142D01*
X170747Y478404D01*
X172050Y478145D01*
X175250D01*
Y484000D01*
D02*
G37*
G36*
X525520Y491306D02*
X523236Y491005D01*
X521107Y490123D01*
X519279Y488721D01*
X517877Y486893D01*
X516995Y484764D01*
X516694Y482480D01*
X516995Y480196D01*
X517877Y478067D01*
X519279Y476239D01*
X521107Y474837D01*
X523236Y473955D01*
X525520Y473655D01*
X527804Y473955D01*
X529933Y474837D01*
X531761Y476239D01*
X533163Y478067D01*
X534045Y480196D01*
X534346Y482480D01*
X534045Y484764D01*
X533163Y486893D01*
X531761Y488721D01*
X529933Y490123D01*
X527804Y491005D01*
X525520Y491306D01*
D02*
G37*
G36*
X500120D02*
X497836Y491005D01*
X495707Y490123D01*
X493879Y488721D01*
X492477Y486893D01*
X491595Y484764D01*
X491295Y482480D01*
X491595Y480196D01*
X492477Y478067D01*
X493879Y476239D01*
X495707Y474837D01*
X497836Y473955D01*
X500120Y473655D01*
X502404Y473955D01*
X504533Y474837D01*
X506361Y476239D01*
X507763Y478067D01*
X508645Y480196D01*
X508946Y482480D01*
X508645Y484764D01*
X507763Y486893D01*
X506361Y488721D01*
X504533Y490123D01*
X502404Y491005D01*
X500120Y491306D01*
D02*
G37*
G36*
X296620D02*
X294336Y491005D01*
X292207Y490123D01*
X290379Y488721D01*
X288977Y486893D01*
X288095Y484764D01*
X287794Y482480D01*
X288095Y480196D01*
X288977Y478067D01*
X290379Y476239D01*
X292207Y474837D01*
X294336Y473955D01*
X296620Y473655D01*
X298904Y473955D01*
X301033Y474837D01*
X302860Y476239D01*
X304263Y478067D01*
X305145Y480196D01*
X305445Y482480D01*
X305145Y484764D01*
X304263Y486893D01*
X302860Y488721D01*
X301033Y490123D01*
X298904Y491005D01*
X296620Y491306D01*
D02*
G37*
G36*
X271220D02*
X268936Y491005D01*
X266807Y490123D01*
X264979Y488721D01*
X263577Y486893D01*
X262695Y484764D01*
X262394Y482480D01*
X262695Y480196D01*
X263577Y478067D01*
X264979Y476239D01*
X266807Y474837D01*
X268936Y473955D01*
X271220Y473655D01*
X273504Y473955D01*
X275632Y474837D01*
X277460Y476239D01*
X278863Y478067D01*
X279745Y480196D01*
X280045Y482480D01*
X279745Y484764D01*
X278863Y486893D01*
X277460Y488721D01*
X275632Y490123D01*
X273504Y491005D01*
X271220Y491306D01*
D02*
G37*
G36*
X143250Y479083D02*
X141592Y478753D01*
X140186Y477814D01*
X139247Y476408D01*
X138917Y474750D01*
X139247Y473092D01*
X139506Y472703D01*
X139161Y471837D01*
X138848Y471403D01*
X137342Y471103D01*
X135936Y470164D01*
X134997Y468758D01*
X134667Y467100D01*
X134997Y465442D01*
X135936Y464036D01*
X137342Y463096D01*
X139000Y462766D01*
X147500D01*
X149158Y463096D01*
X150564Y464036D01*
X151503Y465442D01*
X151833Y467100D01*
X151503Y468758D01*
X150564Y470164D01*
X149158Y471103D01*
X147652Y471403D01*
X147339Y471837D01*
X146994Y472703D01*
X147253Y473092D01*
X147583Y474750D01*
X147253Y476408D01*
X146314Y477814D01*
X144908Y478753D01*
X143250Y479083D01*
D02*
G37*
G36*
X147500Y458733D02*
X139000D01*
X137342Y458403D01*
X135936Y457464D01*
X135251Y456439D01*
X132700D01*
X132700Y456439D01*
X131919Y456284D01*
X131258Y455842D01*
X112558Y437142D01*
X112116Y436480D01*
X111961Y435700D01*
Y431039D01*
X96749D01*
X96064Y432064D01*
X94658Y433003D01*
X93000Y433333D01*
X84500D01*
X82842Y433003D01*
X81436Y432064D01*
X80497Y430658D01*
X80167Y429000D01*
X80497Y427341D01*
X81436Y425936D01*
X82842Y424996D01*
X84500Y424666D01*
X93000D01*
X94658Y424996D01*
X96064Y425936D01*
X96749Y426961D01*
X113155D01*
X125258Y414858D01*
X125258Y414858D01*
X125920Y414416D01*
X126700Y414261D01*
X126700Y414261D01*
X135251D01*
X135936Y413236D01*
X137342Y412296D01*
X139000Y411967D01*
X147500D01*
X149158Y412296D01*
X150564Y413236D01*
X151249Y414261D01*
X169371D01*
X170236Y413350D01*
Y407350D01*
X170410Y406472D01*
X170908Y405728D01*
X171652Y405230D01*
X172530Y405056D01*
X180030D01*
X180908Y405230D01*
X181652Y405728D01*
X182149Y406472D01*
X182324Y407350D01*
Y408311D01*
X189251D01*
X189936Y407286D01*
X191342Y406346D01*
X193000Y406016D01*
X194658Y406346D01*
X196064Y407286D01*
X197003Y408691D01*
X197333Y410350D01*
X197003Y412008D01*
X196064Y413414D01*
X194658Y414353D01*
X193000Y414683D01*
X191342Y414353D01*
X189936Y413414D01*
X189251Y412389D01*
X182324D01*
Y413350D01*
X182149Y414228D01*
X181652Y414972D01*
X180908Y415469D01*
X180030Y415644D01*
X173870D01*
X171772Y417742D01*
X171110Y418184D01*
X170330Y418339D01*
X151249D01*
X150564Y419364D01*
X149158Y420303D01*
X147500Y420633D01*
X139000D01*
X137342Y420303D01*
X135936Y419364D01*
X135251Y418339D01*
X127545D01*
X116039Y429845D01*
Y434855D01*
X133545Y452361D01*
X135251D01*
X135936Y451336D01*
X137342Y450396D01*
X139000Y450066D01*
X147500D01*
X149158Y450396D01*
X150564Y451336D01*
X151503Y452742D01*
X151833Y454400D01*
X151503Y456058D01*
X150564Y457464D01*
X149158Y458403D01*
X147500Y458733D01*
D02*
G37*
G36*
X755540Y462040D02*
X742500D01*
Y455000D01*
X755540D01*
Y462040D01*
D02*
G37*
G36*
X741000D02*
X727960D01*
Y455000D01*
X741000D01*
Y462040D01*
D02*
G37*
G36*
X683500D02*
X670460D01*
Y455000D01*
X683500D01*
Y462040D01*
D02*
G37*
G36*
X60950Y473290D02*
X53050D01*
X52250Y473131D01*
X51572Y472678D01*
X51119Y472000D01*
X50960Y471200D01*
Y464800D01*
X51119Y464000D01*
X51572Y463322D01*
X52250Y462869D01*
X53050Y462710D01*
X59447D01*
X59527Y462589D01*
X69159Y452958D01*
X69159Y452958D01*
X69820Y452516D01*
X70601Y452361D01*
X70601Y452361D01*
X80751D01*
X81436Y451336D01*
X82842Y450396D01*
X84500Y450066D01*
X93000D01*
X94658Y450396D01*
X96064Y451336D01*
X97004Y452742D01*
X97333Y454400D01*
X97004Y456058D01*
X96064Y457464D01*
X94658Y458403D01*
X93000Y458733D01*
X84500D01*
X82842Y458403D01*
X81436Y457464D01*
X80751Y456439D01*
X71445D01*
X63040Y464844D01*
Y471200D01*
X62881Y472000D01*
X62428Y472678D01*
X61750Y473131D01*
X60950Y473290D01*
D02*
G37*
G36*
X525520Y465905D02*
X523236Y465605D01*
X521107Y464723D01*
X519279Y463321D01*
X517877Y461493D01*
X516995Y459364D01*
X516694Y457080D01*
X516995Y454796D01*
X517877Y452667D01*
X519279Y450839D01*
X521107Y449437D01*
X523236Y448555D01*
X525520Y448255D01*
X527804Y448555D01*
X529933Y449437D01*
X531761Y450839D01*
X533163Y452667D01*
X534045Y454796D01*
X534346Y457080D01*
X534045Y459364D01*
X533163Y461493D01*
X531761Y463321D01*
X529933Y464723D01*
X527804Y465605D01*
X525520Y465905D01*
D02*
G37*
G36*
X500120D02*
X497836Y465605D01*
X495707Y464723D01*
X493879Y463321D01*
X492477Y461493D01*
X491595Y459364D01*
X491295Y457080D01*
X491595Y454796D01*
X492477Y452667D01*
X493879Y450839D01*
X495707Y449437D01*
X497836Y448555D01*
X500120Y448255D01*
X502404Y448555D01*
X504533Y449437D01*
X506361Y450839D01*
X507763Y452667D01*
X508645Y454796D01*
X508946Y457080D01*
X508645Y459364D01*
X507763Y461493D01*
X506361Y463321D01*
X504533Y464723D01*
X502404Y465605D01*
X500120Y465905D01*
D02*
G37*
G36*
X296620D02*
X294336Y465605D01*
X292207Y464723D01*
X290379Y463321D01*
X288977Y461493D01*
X288095Y459364D01*
X287794Y457080D01*
X288095Y454796D01*
X288977Y452667D01*
X289127Y452471D01*
X281725Y445069D01*
X233000D01*
X232220Y444914D01*
X231558Y444472D01*
X231558Y444472D01*
X201558Y414472D01*
X201116Y413810D01*
X200961Y413030D01*
Y376845D01*
X185405Y361289D01*
X182324D01*
Y362250D01*
X182150Y363128D01*
X181652Y363872D01*
X180908Y364370D01*
X180030Y364544D01*
X172530D01*
X171652Y364370D01*
X170908Y363872D01*
X170411Y363128D01*
X170236Y362250D01*
Y356250D01*
X170411Y355372D01*
X170908Y354628D01*
X171652Y354131D01*
X172530Y353956D01*
X180030D01*
X180908Y354131D01*
X181652Y354628D01*
X182150Y355372D01*
X182324Y356250D01*
Y357211D01*
X186250D01*
X187031Y357366D01*
X187692Y357808D01*
X204442Y374558D01*
X204442Y374558D01*
X204884Y375220D01*
X205039Y376000D01*
X205039Y376000D01*
Y412185D01*
X233845Y440991D01*
X267515D01*
X267767Y439721D01*
X266807Y439323D01*
X264979Y437921D01*
X263577Y436093D01*
X262695Y433964D01*
X262394Y431680D01*
X262695Y429396D01*
X263577Y427267D01*
X264979Y425439D01*
X266807Y424037D01*
X268936Y423155D01*
X271220Y422854D01*
X273504Y423155D01*
X275632Y424037D01*
X277460Y425439D01*
X278863Y427267D01*
X279745Y429396D01*
X280045Y431680D01*
X279745Y433964D01*
X278863Y436093D01*
X277460Y437921D01*
X275632Y439323D01*
X274672Y439721D01*
X274925Y440991D01*
X282570D01*
X283350Y441146D01*
X284012Y441588D01*
X292011Y449587D01*
X292207Y449437D01*
X294336Y448555D01*
X296620Y448255D01*
X298904Y448555D01*
X301033Y449437D01*
X302860Y450839D01*
X304263Y452667D01*
X305145Y454796D01*
X305445Y457080D01*
X305145Y459364D01*
X304263Y461493D01*
X302860Y463321D01*
X301033Y464723D01*
X298904Y465605D01*
X296620Y465905D01*
D02*
G37*
G36*
X71000Y498039D02*
X70220Y497884D01*
X69558Y497442D01*
X69558Y497442D01*
X63558Y491442D01*
X63116Y490780D01*
X63046Y490430D01*
X59410Y486794D01*
X53250D01*
X52372Y486619D01*
X51628Y486122D01*
X51131Y485378D01*
X50956Y484500D01*
Y478500D01*
X51131Y477622D01*
X51628Y476878D01*
X52372Y476380D01*
X53250Y476206D01*
X60750D01*
X61628Y476380D01*
X62372Y476878D01*
X62870Y477622D01*
X63044Y478500D01*
Y484500D01*
X63018Y484633D01*
X66442Y488058D01*
X66442Y488058D01*
X66884Y488719D01*
X66954Y489070D01*
X71845Y493961D01*
X231455D01*
X263727Y461689D01*
X263577Y461493D01*
X262695Y459364D01*
X262394Y457080D01*
X262695Y454796D01*
X263577Y452667D01*
X264979Y450839D01*
X266807Y449437D01*
X268936Y448555D01*
X271220Y448255D01*
X273504Y448555D01*
X275632Y449437D01*
X277460Y450839D01*
X278863Y452667D01*
X279745Y454796D01*
X280045Y457080D01*
X279745Y459364D01*
X278863Y461493D01*
X277460Y463321D01*
X275632Y464723D01*
X273504Y465605D01*
X271220Y465905D01*
X268936Y465605D01*
X266807Y464723D01*
X266611Y464573D01*
X233742Y497442D01*
X233080Y497884D01*
X232300Y498039D01*
X71000D01*
X71000Y498039D01*
D02*
G37*
G36*
X755540Y453500D02*
X742500D01*
Y446460D01*
X755540D01*
Y453500D01*
D02*
G37*
G36*
X741000D02*
X727960D01*
Y446460D01*
X741000D01*
Y453500D01*
D02*
G37*
G36*
X698040D02*
X685000D01*
Y446460D01*
X698040D01*
Y453500D01*
D02*
G37*
G36*
X683500D02*
X670460D01*
Y446460D01*
X683500D01*
Y453500D01*
D02*
G37*
G36*
X156000Y446033D02*
X154342Y445703D01*
X152936Y444764D01*
X152401Y443963D01*
X151099D01*
X150564Y444764D01*
X149158Y445703D01*
X147500Y446033D01*
X139000D01*
X137342Y445703D01*
X135936Y444764D01*
X134997Y443358D01*
X134667Y441700D01*
X134997Y440042D01*
X135936Y438636D01*
X137342Y437696D01*
X139000Y437366D01*
X147500D01*
X149158Y437696D01*
X150564Y438636D01*
X151099Y439437D01*
X152401D01*
X152936Y438636D01*
X154342Y437696D01*
X156000Y437366D01*
X157658Y437696D01*
X159064Y438636D01*
X160003Y440042D01*
X160333Y441700D01*
X160003Y443358D01*
X159064Y444764D01*
X157658Y445703D01*
X156000Y446033D01*
D02*
G37*
G36*
X116000Y484519D02*
X115220Y484364D01*
X114558Y483922D01*
X114558Y483922D01*
X99775Y469139D01*
X96749D01*
X96064Y470164D01*
X94658Y471103D01*
X93000Y471433D01*
X84500D01*
X82842Y471103D01*
X81436Y470164D01*
X80497Y468758D01*
X80167Y467100D01*
X80497Y465442D01*
X81436Y464036D01*
X82842Y463096D01*
X84500Y462766D01*
X93000D01*
X94658Y463096D01*
X96064Y464036D01*
X96749Y465061D01*
X100620D01*
X101400Y465216D01*
X102062Y465658D01*
X116845Y480441D01*
X154075D01*
X164708Y469808D01*
X165369Y469366D01*
X166150Y469211D01*
X169956D01*
Y468250D01*
X170131Y467372D01*
X170628Y466628D01*
X171372Y466131D01*
X172250Y465956D01*
X173961D01*
Y448044D01*
X172530D01*
X171652Y447869D01*
X170908Y447372D01*
X170411Y446628D01*
X170236Y445750D01*
Y439750D01*
X170411Y438872D01*
X170908Y438128D01*
X171652Y437630D01*
X172530Y437456D01*
X180030D01*
X180908Y437630D01*
X181652Y438128D01*
X182150Y438872D01*
X182324Y439750D01*
Y445750D01*
X182150Y446628D01*
X181652Y447372D01*
X180908Y447869D01*
X180030Y448044D01*
X178039D01*
Y465956D01*
X179750D01*
X180628Y466131D01*
X181372Y466628D01*
X181870Y467372D01*
X182044Y468250D01*
Y474250D01*
X181870Y475128D01*
X181372Y475872D01*
X180628Y476370D01*
X179750Y476544D01*
X172250D01*
X171372Y476370D01*
X170628Y475872D01*
X170131Y475128D01*
X169956Y474250D01*
Y473289D01*
X166994D01*
X156362Y483922D01*
X155700Y484364D01*
X154920Y484519D01*
X116000D01*
X116000Y484519D01*
D02*
G37*
G36*
X60950Y447040D02*
X53050D01*
X52250Y446881D01*
X51572Y446428D01*
X51119Y445750D01*
X50960Y444950D01*
Y438550D01*
X51119Y437750D01*
X51572Y437072D01*
X52250Y436619D01*
X53050Y436460D01*
X60950D01*
X61750Y436619D01*
X62428Y437072D01*
X62881Y437750D01*
X63040Y438550D01*
Y439661D01*
X80751D01*
X81436Y438636D01*
X82842Y437696D01*
X84500Y437366D01*
X93000D01*
X94658Y437696D01*
X96064Y438636D01*
X97004Y440042D01*
X97333Y441700D01*
X97004Y443358D01*
X96064Y444764D01*
X94658Y445703D01*
X93000Y446033D01*
X84500D01*
X82842Y445703D01*
X81436Y444764D01*
X80751Y443739D01*
X63040D01*
Y444950D01*
X62881Y445750D01*
X62428Y446428D01*
X61750Y446881D01*
X60950Y447040D01*
D02*
G37*
G36*
X180230Y434540D02*
X172330D01*
X171530Y434381D01*
X170852Y433928D01*
X170399Y433250D01*
X170240Y432450D01*
Y431039D01*
X151249D01*
X150564Y432064D01*
X149158Y433003D01*
X147500Y433333D01*
X139000D01*
X137342Y433003D01*
X135936Y432064D01*
X134997Y430658D01*
X134667Y429000D01*
X134997Y427341D01*
X135936Y425936D01*
X137342Y424996D01*
X139000Y424666D01*
X147500D01*
X149158Y424996D01*
X150564Y425936D01*
X151249Y426961D01*
X170240D01*
Y426050D01*
X170399Y425250D01*
X170852Y424572D01*
X171530Y424119D01*
X172330Y423960D01*
X180230D01*
X181030Y424119D01*
X181708Y424572D01*
X182161Y425250D01*
X182320Y426050D01*
Y432450D01*
X182161Y433250D01*
X181708Y433928D01*
X181030Y434381D01*
X180230Y434540D01*
D02*
G37*
G36*
X673950Y429355D02*
X670750D01*
Y423500D01*
X677355D01*
Y425950D01*
X677096Y427253D01*
X676358Y428358D01*
X675253Y429096D01*
X673950Y429355D01*
D02*
G37*
G36*
X669250D02*
X666050D01*
X664747Y429096D01*
X663642Y428358D01*
X662904Y427253D01*
X662644Y425950D01*
Y423500D01*
X669250D01*
Y429355D01*
D02*
G37*
G36*
X525520Y440505D02*
X523236Y440205D01*
X521107Y439323D01*
X519279Y437921D01*
X517877Y436093D01*
X516995Y433964D01*
X516694Y431680D01*
X516995Y429396D01*
X517877Y427267D01*
X519279Y425439D01*
X521107Y424037D01*
X523236Y423155D01*
X525520Y422854D01*
X527804Y423155D01*
X529933Y424037D01*
X531761Y425439D01*
X533163Y427267D01*
X534045Y429396D01*
X534346Y431680D01*
X534045Y433964D01*
X533163Y436093D01*
X531761Y437921D01*
X529933Y439323D01*
X527804Y440205D01*
X525520Y440505D01*
D02*
G37*
G36*
X296620D02*
X294336Y440205D01*
X292207Y439323D01*
X290379Y437921D01*
X288977Y436093D01*
X288095Y433964D01*
X287794Y431680D01*
X288095Y429396D01*
X288977Y427267D01*
X290379Y425439D01*
X292207Y424037D01*
X294336Y423155D01*
X296620Y422854D01*
X298904Y423155D01*
X301033Y424037D01*
X302860Y425439D01*
X304263Y427267D01*
X305145Y429396D01*
X305445Y431680D01*
X305145Y433964D01*
X304263Y436093D01*
X302860Y437921D01*
X301033Y439323D01*
X298904Y440205D01*
X296620Y440505D01*
D02*
G37*
G36*
X619921Y449533D02*
X618262Y449203D01*
X616856Y448264D01*
X615917Y446858D01*
X615587Y445200D01*
X615917Y443542D01*
X616097Y443272D01*
Y430500D01*
X614750D01*
Y420000D01*
X625250D01*
Y430500D01*
X623744D01*
Y443272D01*
X623924Y443542D01*
X624254Y445200D01*
X623924Y446858D01*
X622985Y448264D01*
X621579Y449203D01*
X619921Y449533D01*
D02*
G37*
G36*
X677355Y422000D02*
X670750D01*
Y416144D01*
X673950D01*
X675253Y416404D01*
X676358Y417142D01*
X677096Y418247D01*
X677355Y419550D01*
Y422000D01*
D02*
G37*
G36*
X669250D02*
X662644D01*
Y419550D01*
X662904Y418247D01*
X663642Y417142D01*
X664747Y416404D01*
X666050Y416144D01*
X669250D01*
Y422000D01*
D02*
G37*
G36*
X60750Y433544D02*
X53250D01*
X52372Y433370D01*
X51628Y432872D01*
X51131Y432128D01*
X50956Y431250D01*
Y425250D01*
X50983Y425117D01*
X39558Y413692D01*
X39116Y413030D01*
X38961Y412250D01*
Y340000D01*
X39116Y339220D01*
X39558Y338558D01*
X92561Y285555D01*
Y274810D01*
X90175D01*
Y246910D01*
X99025D01*
Y274810D01*
X96639D01*
Y286400D01*
X96484Y287181D01*
X96042Y287842D01*
X96042Y287842D01*
X43039Y340845D01*
Y411405D01*
X54590Y422956D01*
X60160D01*
X65314Y417802D01*
X65558Y417437D01*
X68137Y414858D01*
X68137Y414858D01*
X68798Y414416D01*
X69579Y414261D01*
X69579Y414261D01*
X80751D01*
X81436Y413236D01*
X82842Y412296D01*
X84500Y411967D01*
X93000D01*
X94658Y412296D01*
X96064Y413236D01*
X97004Y414641D01*
X97333Y416300D01*
X97004Y417958D01*
X96064Y419364D01*
X94658Y420303D01*
X93000Y420633D01*
X84500D01*
X82842Y420303D01*
X81436Y419364D01*
X80751Y418339D01*
X70423D01*
X68686Y420076D01*
X68442Y420442D01*
X68442Y420442D01*
X63044Y425840D01*
Y431250D01*
X62870Y432128D01*
X62372Y432872D01*
X61628Y433370D01*
X60750Y433544D01*
D02*
G37*
G36*
X673750Y414544D02*
X666250D01*
X665372Y414369D01*
X664628Y413872D01*
X664130Y413128D01*
X663956Y412250D01*
Y410789D01*
X649850D01*
Y414000D01*
X639350D01*
Y403500D01*
X649850D01*
Y406711D01*
X663956D01*
Y406250D01*
X664130Y405372D01*
X664628Y404628D01*
X665372Y404130D01*
X666250Y403956D01*
X673750D01*
X674628Y404130D01*
X675372Y404628D01*
X675869Y405372D01*
X676044Y406250D01*
Y412250D01*
X675869Y413128D01*
X675372Y413872D01*
X674628Y414369D01*
X673750Y414544D01*
D02*
G37*
G36*
X599228Y414544D02*
X591728D01*
X590850Y414370D01*
X590106Y413872D01*
X589609Y413128D01*
X589434Y412250D01*
Y406250D01*
X589609Y405372D01*
X590106Y404628D01*
X590850Y404131D01*
X591728Y403956D01*
X599228D01*
X600106Y404131D01*
X600850Y404628D01*
X601348Y405372D01*
X601522Y406250D01*
Y407211D01*
X614750D01*
Y403500D01*
X625250D01*
Y414000D01*
X614750D01*
Y411289D01*
X601522D01*
Y412250D01*
X601348Y413128D01*
X600850Y413872D01*
X600106Y414370D01*
X599228Y414544D01*
D02*
G37*
G36*
X60950Y409040D02*
X53050D01*
X52250Y408881D01*
X51572Y408428D01*
X51119Y407750D01*
X50960Y406950D01*
Y400550D01*
X51119Y399750D01*
X51572Y399072D01*
X52250Y398619D01*
X53050Y398460D01*
X60950D01*
X61750Y398619D01*
X62428Y399072D01*
X62881Y399750D01*
X63040Y400550D01*
Y401561D01*
X80751D01*
X81436Y400536D01*
X82842Y399596D01*
X84500Y399267D01*
X93000D01*
X94658Y399596D01*
X96064Y400536D01*
X97004Y401941D01*
X97333Y403600D01*
X97004Y405258D01*
X96064Y406664D01*
X94658Y407603D01*
X93000Y407933D01*
X84500D01*
X82842Y407603D01*
X81436Y406664D01*
X80751Y405639D01*
X63040D01*
Y406950D01*
X62881Y407750D01*
X62428Y408428D01*
X61750Y408881D01*
X60950Y409040D01*
D02*
G37*
G36*
X180230Y403455D02*
X177030D01*
Y397600D01*
X183635D01*
Y400050D01*
X183376Y401353D01*
X182638Y402458D01*
X181533Y403196D01*
X180230Y403455D01*
D02*
G37*
G36*
X175530D02*
X172330D01*
X171027Y403196D01*
X169922Y402458D01*
X169184Y401353D01*
X168925Y400050D01*
Y397600D01*
X175530D01*
Y403455D01*
D02*
G37*
G36*
X296620Y415106D02*
X294336Y414805D01*
X292207Y413923D01*
X290379Y412521D01*
X288977Y410693D01*
X288095Y408564D01*
X287794Y406280D01*
X288095Y403996D01*
X288977Y401867D01*
X290379Y400039D01*
X292207Y398637D01*
X294336Y397755D01*
X296620Y397454D01*
X298904Y397755D01*
X301033Y398637D01*
X302860Y400039D01*
X304263Y401867D01*
X305145Y403996D01*
X305445Y406280D01*
X305145Y408564D01*
X304263Y410693D01*
X302860Y412521D01*
X301033Y413923D01*
X298904Y414805D01*
X296620Y415106D01*
D02*
G37*
G36*
X271220D02*
X268936Y414805D01*
X266807Y413923D01*
X264979Y412521D01*
X263577Y410693D01*
X262695Y408564D01*
X262394Y406280D01*
X262695Y403996D01*
X263577Y401867D01*
X264979Y400039D01*
X266807Y398637D01*
X268936Y397755D01*
X271220Y397454D01*
X273504Y397755D01*
X275632Y398637D01*
X277460Y400039D01*
X278863Y401867D01*
X279745Y403996D01*
X280045Y406280D01*
X279745Y408564D01*
X278863Y410693D01*
X277460Y412521D01*
X275632Y413923D01*
X273504Y414805D01*
X271220Y415106D01*
D02*
G37*
G36*
X93000Y396548D02*
X89500D01*
Y391650D01*
X98500D01*
X98219Y393061D01*
X96994Y394894D01*
X95162Y396118D01*
X93000Y396548D01*
D02*
G37*
G36*
X88000D02*
X84500D01*
X82339Y396118D01*
X80506Y394894D01*
X79282Y393061D01*
X79001Y391650D01*
X88000D01*
Y396548D01*
D02*
G37*
G36*
X183635Y396100D02*
X177030D01*
Y390244D01*
X180230D01*
X181533Y390503D01*
X182638Y391242D01*
X183376Y392346D01*
X183635Y393650D01*
Y396100D01*
D02*
G37*
G36*
X175530D02*
X168925D01*
Y393650D01*
X169184Y392346D01*
X169922Y391242D01*
X171027Y390503D01*
X172330Y390244D01*
X175530D01*
Y396100D01*
D02*
G37*
G36*
X98500Y390150D02*
X89500D01*
Y385251D01*
X93000D01*
X95162Y385681D01*
X96994Y386906D01*
X98219Y388738D01*
X98500Y390150D01*
D02*
G37*
G36*
X88000D02*
X79001D01*
X79282Y388738D01*
X80506Y386906D01*
X82339Y385681D01*
X84500Y385251D01*
X88000D01*
Y390150D01*
D02*
G37*
G36*
X683000Y398039D02*
X617196D01*
X616415Y397884D01*
X615754Y397442D01*
X615754Y397442D01*
X588351Y370039D01*
X284944D01*
X278712Y376271D01*
X278863Y376467D01*
X279745Y378596D01*
X280045Y380880D01*
X279745Y383164D01*
X278863Y385293D01*
X277460Y387121D01*
X275632Y388523D01*
X273504Y389405D01*
X271220Y389706D01*
X268936Y389405D01*
X266807Y388523D01*
X264979Y387121D01*
X263577Y385293D01*
X262695Y383164D01*
X262394Y380880D01*
X262695Y378596D01*
X263577Y376467D01*
X264979Y374639D01*
X266807Y373237D01*
X268936Y372355D01*
X271220Y372054D01*
X273504Y372355D01*
X275632Y373237D01*
X275829Y373387D01*
X282658Y366558D01*
X282658Y366558D01*
X283319Y366116D01*
X284100Y365961D01*
X589196D01*
X589976Y366116D01*
X590637Y366558D01*
X618040Y393961D01*
X682155D01*
X691802Y384314D01*
X691276Y383044D01*
X691250D01*
X690372Y382870D01*
X689628Y382372D01*
X689131Y381628D01*
X688956Y380750D01*
Y374750D01*
X689131Y373872D01*
X689628Y373128D01*
X690372Y372631D01*
X691250Y372456D01*
X698750D01*
X699628Y372631D01*
X700372Y373128D01*
X700870Y373872D01*
X701044Y374750D01*
Y380750D01*
X700870Y381628D01*
X700372Y382372D01*
X699628Y382870D01*
X698750Y383044D01*
X697812D01*
X697039Y384000D01*
X696884Y384780D01*
X696442Y385442D01*
X684442Y397442D01*
X683780Y397884D01*
X683000Y398039D01*
D02*
G37*
G36*
X644800Y392333D02*
X643142Y392003D01*
X641736Y391064D01*
X640797Y389658D01*
X640467Y388000D01*
X640797Y386342D01*
X641736Y384936D01*
X642666Y384314D01*
X642342Y383044D01*
X641250D01*
X640372Y382870D01*
X639628Y382372D01*
X639130Y381628D01*
X638956Y380750D01*
Y374750D01*
X639130Y373872D01*
X639628Y373128D01*
X640372Y372631D01*
X641250Y372456D01*
X648750D01*
X649628Y372631D01*
X650372Y373128D01*
X650869Y373872D01*
X651044Y374750D01*
Y375711D01*
X663956D01*
Y374750D01*
X664131Y373872D01*
X664628Y373128D01*
X665372Y372631D01*
X666250Y372456D01*
X673750D01*
X674628Y372631D01*
X675372Y373128D01*
X675870Y373872D01*
X676044Y374750D01*
Y380750D01*
X675870Y381628D01*
X675372Y382372D01*
X674628Y382869D01*
X673750Y383044D01*
X666250D01*
X665372Y382869D01*
X664628Y382372D01*
X664131Y381628D01*
X663956Y380750D01*
Y379789D01*
X651044D01*
Y380750D01*
X650869Y381628D01*
X650372Y382372D01*
X649628Y382870D01*
X648750Y383044D01*
X647039D01*
Y384385D01*
X647864Y384936D01*
X648803Y386342D01*
X649133Y388000D01*
X648803Y389658D01*
X647864Y391064D01*
X646458Y392003D01*
X644800Y392333D01*
D02*
G37*
G36*
X525520Y389706D02*
X523236Y389405D01*
X521107Y388523D01*
X519279Y387121D01*
X517877Y385293D01*
X516995Y383164D01*
X516694Y380880D01*
X516995Y378596D01*
X517877Y376467D01*
X519279Y374639D01*
X521107Y373237D01*
X523236Y372355D01*
X525520Y372054D01*
X527804Y372355D01*
X529933Y373237D01*
X531761Y374639D01*
X533163Y376467D01*
X534045Y378596D01*
X534346Y380880D01*
X534045Y383164D01*
X533163Y385293D01*
X531761Y387121D01*
X529933Y388523D01*
X527804Y389405D01*
X525520Y389706D01*
D02*
G37*
G36*
X500120D02*
X497836Y389405D01*
X495707Y388523D01*
X493879Y387121D01*
X492477Y385293D01*
X491595Y383164D01*
X491295Y380880D01*
X491595Y378596D01*
X492477Y376467D01*
X493879Y374639D01*
X495707Y373237D01*
X497836Y372355D01*
X500120Y372054D01*
X502404Y372355D01*
X504533Y373237D01*
X506361Y374639D01*
X507763Y376467D01*
X508645Y378596D01*
X508946Y380880D01*
X508645Y383164D01*
X507763Y385293D01*
X506361Y387121D01*
X504533Y388523D01*
X502404Y389405D01*
X500120Y389706D01*
D02*
G37*
G36*
X296620D02*
X294336Y389405D01*
X292207Y388523D01*
X290379Y387121D01*
X288977Y385293D01*
X288095Y383164D01*
X287794Y380880D01*
X288095Y378596D01*
X288977Y376467D01*
X290379Y374639D01*
X292207Y373237D01*
X294336Y372355D01*
X296620Y372054D01*
X298904Y372355D01*
X301033Y373237D01*
X302860Y374639D01*
X304263Y376467D01*
X305145Y378596D01*
X305445Y380880D01*
X305145Y383164D01*
X304263Y385293D01*
X302860Y387121D01*
X301033Y388523D01*
X298904Y389405D01*
X296620Y389706D01*
D02*
G37*
G36*
X147500Y407933D02*
X139000D01*
X137342Y407603D01*
X135936Y406664D01*
X134997Y405258D01*
X134667Y403600D01*
X134997Y401941D01*
X135936Y400536D01*
X137342Y399596D01*
X139000Y399267D01*
X147500D01*
X149158Y399596D01*
X150564Y400536D01*
X151249Y401561D01*
X152556D01*
X160961Y393155D01*
Y385500D01*
X161116Y384720D01*
X161558Y384058D01*
X170240Y375376D01*
Y369550D01*
X170399Y368750D01*
X170852Y368072D01*
X171530Y367619D01*
X172330Y367460D01*
X180230D01*
X181030Y367619D01*
X181708Y368072D01*
X182161Y368750D01*
X182320Y369550D01*
Y375950D01*
X182161Y376750D01*
X181708Y377428D01*
X181030Y377881D01*
X180230Y378040D01*
X173344D01*
X165039Y386345D01*
Y394000D01*
X164884Y394780D01*
X164442Y395442D01*
X164442Y395442D01*
X154842Y405042D01*
X154180Y405484D01*
X153400Y405639D01*
X151249D01*
X150564Y406664D01*
X149158Y407603D01*
X147500Y407933D01*
D02*
G37*
G36*
X648950Y369540D02*
X641050D01*
X640250Y369381D01*
X639572Y368928D01*
X639119Y368250D01*
X638960Y367450D01*
Y366289D01*
X624250D01*
X624250Y366289D01*
X623470Y366134D01*
X622808Y365692D01*
X622808Y365692D01*
X621209Y364093D01*
X620000Y364333D01*
X618342Y364003D01*
X616936Y363064D01*
X615997Y361658D01*
X615667Y360000D01*
X615997Y358342D01*
X616936Y356936D01*
X618342Y355997D01*
X620000Y355667D01*
X621658Y355997D01*
X623064Y356936D01*
X624003Y358342D01*
X624333Y360000D01*
X624093Y361209D01*
X625095Y362211D01*
X638960D01*
Y361050D01*
X639119Y360250D01*
X639572Y359572D01*
X640250Y359119D01*
X641050Y358960D01*
X648950D01*
X649750Y359119D01*
X650428Y359572D01*
X650881Y360250D01*
X651040Y361050D01*
Y367450D01*
X650881Y368250D01*
X650428Y368928D01*
X649750Y369381D01*
X648950Y369540D01*
D02*
G37*
G36*
X98540Y372040D02*
X92750D01*
Y365750D01*
X98540D01*
Y372040D01*
D02*
G37*
G36*
X91250D02*
X85460D01*
Y365750D01*
X91250D01*
Y372040D01*
D02*
G37*
G36*
X673950Y370855D02*
X670750D01*
Y365000D01*
X677355D01*
Y367450D01*
X677096Y368753D01*
X676358Y369858D01*
X675253Y370596D01*
X673950Y370855D01*
D02*
G37*
G36*
X669250D02*
X666050D01*
X664747Y370596D01*
X663642Y369858D01*
X662904Y368753D01*
X662645Y367450D01*
Y365000D01*
X669250D01*
Y370855D01*
D02*
G37*
G36*
X60750Y395544D02*
X53250D01*
X52372Y395369D01*
X51628Y394872D01*
X51131Y394128D01*
X50956Y393250D01*
Y387250D01*
X51131Y386372D01*
X51628Y385628D01*
X52372Y385131D01*
X53250Y384956D01*
X54961D01*
Y373040D01*
X53201D01*
X52401Y372881D01*
X51723Y372428D01*
X51269Y371750D01*
X51110Y370950D01*
Y364550D01*
X51269Y363750D01*
X51723Y363072D01*
X52401Y362619D01*
X53201Y362460D01*
X61101D01*
X61901Y362619D01*
X62579Y363072D01*
X63032Y363750D01*
X63191Y364550D01*
Y370950D01*
X63032Y371750D01*
X62579Y372428D01*
X61901Y372881D01*
X61101Y373040D01*
X59039D01*
Y384956D01*
X60750D01*
X61628Y385131D01*
X62372Y385628D01*
X62870Y386372D01*
X63044Y387250D01*
Y393250D01*
X62870Y394128D01*
X62372Y394872D01*
X61628Y395369D01*
X60750Y395544D01*
D02*
G37*
G36*
X106000Y380333D02*
X104342Y380003D01*
X102936Y379064D01*
X101996Y377658D01*
X101667Y376000D01*
X101996Y374342D01*
X102936Y372936D01*
X103196Y372762D01*
Y370750D01*
X102750D01*
Y359250D01*
X113250D01*
Y370750D01*
X108804D01*
Y372762D01*
X109064Y372936D01*
X110003Y374342D01*
X110333Y376000D01*
X110003Y377658D01*
X109064Y379064D01*
X107658Y380003D01*
X106000Y380333D01*
D02*
G37*
G36*
X147500Y395233D02*
X139000D01*
X137342Y394903D01*
X135936Y393964D01*
X134997Y392558D01*
X134667Y390900D01*
X134997Y389241D01*
X135936Y387836D01*
X137342Y386896D01*
X139000Y386567D01*
X141211D01*
Y370290D01*
X139550D01*
X138750Y370131D01*
X138072Y369678D01*
X137619Y369000D01*
X137460Y368200D01*
Y360300D01*
X137619Y359500D01*
X138072Y358822D01*
X138750Y358369D01*
X139550Y358210D01*
X145950D01*
X146750Y358369D01*
X147428Y358822D01*
X147881Y359500D01*
X148040Y360300D01*
Y368200D01*
X147881Y369000D01*
X147428Y369678D01*
X146750Y370131D01*
X145950Y370290D01*
X145289D01*
Y386567D01*
X147500D01*
X149158Y386896D01*
X150564Y387836D01*
X151503Y389241D01*
X151833Y390900D01*
X151503Y392558D01*
X150564Y393964D01*
X149158Y394903D01*
X147500Y395233D01*
D02*
G37*
G36*
X132250Y370294D02*
X126250D01*
X125372Y370120D01*
X124628Y369622D01*
X124130Y368878D01*
X123956Y368000D01*
Y361840D01*
X105858Y343742D01*
X105416Y343080D01*
X105261Y342300D01*
Y274810D01*
X102875D01*
Y246910D01*
X111725D01*
Y274810D01*
X109339D01*
Y341455D01*
X126116Y358233D01*
X126250Y358206D01*
X132250D01*
X133128Y358381D01*
X133872Y358878D01*
X134369Y359622D01*
X134544Y360500D01*
Y368000D01*
X134369Y368878D01*
X133872Y369622D01*
X133128Y370120D01*
X132250Y370294D01*
D02*
G37*
G36*
X98540Y364250D02*
X92750D01*
Y357960D01*
X98540D01*
Y364250D01*
D02*
G37*
G36*
X91250D02*
X85460D01*
Y357960D01*
X91250D01*
Y364250D01*
D02*
G37*
G36*
X677355Y363500D02*
X670750D01*
Y357644D01*
X673950D01*
X675253Y357904D01*
X676358Y358642D01*
X677096Y359747D01*
X677355Y361050D01*
Y363500D01*
D02*
G37*
G36*
X669250D02*
X662645D01*
Y361050D01*
X662904Y359747D01*
X663642Y358642D01*
X664747Y357904D01*
X666050Y357644D01*
X669250D01*
Y363500D01*
D02*
G37*
G36*
X60901Y359544D02*
X53401D01*
X52523Y359370D01*
X51778Y358872D01*
X51281Y358128D01*
X51107Y357250D01*
Y351250D01*
X51281Y350372D01*
X51778Y349628D01*
X52523Y349131D01*
X53401Y348956D01*
X60901D01*
X61778Y349131D01*
X62523Y349628D01*
X63020Y350372D01*
X63195Y351250D01*
Y352211D01*
X65084D01*
X65936Y350936D01*
X67342Y349997D01*
X69000Y349667D01*
X70658Y349997D01*
X72064Y350936D01*
X73003Y352342D01*
X73333Y354000D01*
X73003Y355658D01*
X72064Y357064D01*
X70658Y358003D01*
X69000Y358333D01*
X67342Y358003D01*
X65936Y357064D01*
X65418Y356289D01*
X63195D01*
Y357250D01*
X63020Y358128D01*
X62523Y358872D01*
X61778Y359370D01*
X60901Y359544D01*
D02*
G37*
G36*
X525520Y364305D02*
X523236Y364005D01*
X521107Y363123D01*
X519279Y361721D01*
X517877Y359893D01*
X516995Y357764D01*
X516694Y355480D01*
X516995Y353196D01*
X517877Y351067D01*
X519279Y349239D01*
X521107Y347837D01*
X523236Y346955D01*
X525520Y346655D01*
X527804Y346955D01*
X529933Y347837D01*
X531761Y349239D01*
X533163Y351067D01*
X534045Y353196D01*
X534346Y355480D01*
X534045Y357764D01*
X533163Y359893D01*
X531761Y361721D01*
X529933Y363123D01*
X527804Y364005D01*
X525520Y364305D01*
D02*
G37*
G36*
X500120D02*
X497836Y364005D01*
X495707Y363123D01*
X493879Y361721D01*
X492477Y359893D01*
X491595Y357764D01*
X491295Y355480D01*
X491595Y353196D01*
X492477Y351067D01*
X493879Y349239D01*
X495707Y347837D01*
X497836Y346955D01*
X500120Y346655D01*
X502404Y346955D01*
X504533Y347837D01*
X506361Y349239D01*
X507763Y351067D01*
X508645Y353196D01*
X508946Y355480D01*
X508645Y357764D01*
X507763Y359893D01*
X506361Y361721D01*
X504533Y363123D01*
X502404Y364005D01*
X500120Y364305D01*
D02*
G37*
G36*
X296620D02*
X294336Y364005D01*
X292207Y363123D01*
X290379Y361721D01*
X288977Y359893D01*
X288095Y357764D01*
X287794Y355480D01*
X288095Y353196D01*
X288977Y351067D01*
X290379Y349239D01*
X292207Y347837D01*
X294336Y346955D01*
X296620Y346655D01*
X298904Y346955D01*
X301033Y347837D01*
X302860Y349239D01*
X304263Y351067D01*
X305145Y353196D01*
X305445Y355480D01*
X305145Y357764D01*
X304263Y359893D01*
X302860Y361721D01*
X301033Y363123D01*
X298904Y364005D01*
X296620Y364305D01*
D02*
G37*
G36*
X271220D02*
X268936Y364005D01*
X266807Y363123D01*
X264979Y361721D01*
X263577Y359893D01*
X262695Y357764D01*
X262394Y355480D01*
X262695Y353196D01*
X263577Y351067D01*
X264979Y349239D01*
X266807Y347837D01*
X268936Y346955D01*
X271220Y346655D01*
X273504Y346955D01*
X275632Y347837D01*
X277460Y349239D01*
X278863Y351067D01*
X279745Y353196D01*
X280045Y355480D01*
X279745Y357764D01*
X278863Y359893D01*
X277460Y361721D01*
X275632Y363123D01*
X273504Y364005D01*
X271220Y364305D01*
D02*
G37*
G36*
X751000Y372300D02*
X742000D01*
Y359200D01*
X744461D01*
Y329745D01*
X674694Y259979D01*
X674473Y260148D01*
X672315Y261042D01*
X670000Y261347D01*
X667684Y261042D01*
X665527Y260148D01*
X663674Y258726D01*
X662252Y256873D01*
X661358Y254716D01*
X661053Y252400D01*
X661358Y250085D01*
X661634Y249418D01*
X655558Y243342D01*
X655116Y242681D01*
X654961Y241900D01*
Y159245D01*
X643358Y147642D01*
X642916Y146981D01*
X642761Y146200D01*
Y113950D01*
X640375D01*
Y86050D01*
X649225D01*
Y113950D01*
X646839D01*
Y145356D01*
X658442Y156958D01*
X658884Y157620D01*
X659039Y158400D01*
Y241056D01*
X663891Y245907D01*
X665527Y244652D01*
X667684Y243759D01*
X670000Y243454D01*
X672315Y243759D01*
X674473Y244652D01*
X676326Y246074D01*
X677748Y247927D01*
X678642Y250085D01*
X678946Y252400D01*
X678642Y254716D01*
X677748Y256873D01*
X677578Y257095D01*
X747942Y327458D01*
X748384Y328120D01*
X748539Y328900D01*
X748539Y328900D01*
Y359200D01*
X751000D01*
Y372300D01*
D02*
G37*
G36*
X569150Y262549D02*
Y253150D01*
X578549D01*
X578298Y255053D01*
X577275Y257524D01*
X575646Y259646D01*
X573524Y261275D01*
X571052Y262299D01*
X569150Y262549D01*
D02*
G37*
G36*
X567650D02*
X565747Y262299D01*
X563276Y261275D01*
X561154Y259646D01*
X559525Y257524D01*
X558501Y255053D01*
X558251Y253150D01*
X567650D01*
Y262549D01*
D02*
G37*
G36*
X319150D02*
Y253150D01*
X328549D01*
X328298Y255053D01*
X327275Y257524D01*
X325646Y259646D01*
X323524Y261275D01*
X321052Y262299D01*
X319150Y262549D01*
D02*
G37*
G36*
X317650D02*
X315748Y262299D01*
X313276Y261275D01*
X311154Y259646D01*
X309525Y257524D01*
X308501Y255053D01*
X308251Y253150D01*
X317650D01*
Y262549D01*
D02*
G37*
G36*
X137125Y274810D02*
X128275D01*
Y246910D01*
X137125D01*
Y274810D01*
D02*
G37*
G36*
X124425D02*
X115575D01*
Y246910D01*
X124425D01*
Y274810D01*
D02*
G37*
G36*
X644600Y261347D02*
X642284Y261042D01*
X640126Y260148D01*
X638274Y258726D01*
X636852Y256873D01*
X635958Y254716D01*
X635653Y252400D01*
X635958Y250085D01*
X636852Y247927D01*
X638274Y246074D01*
X640126Y244652D01*
X642284Y243759D01*
X644600Y243454D01*
X646915Y243759D01*
X649073Y244652D01*
X650926Y246074D01*
X652348Y247927D01*
X653242Y250085D01*
X653546Y252400D01*
X653242Y254716D01*
X652348Y256873D01*
X650926Y258726D01*
X649073Y260148D01*
X646915Y261042D01*
X644600Y261347D01*
D02*
G37*
G36*
X420000D02*
X417684Y261042D01*
X415527Y260148D01*
X413674Y258726D01*
X412252Y256873D01*
X411358Y254716D01*
X411053Y252400D01*
X411358Y250085D01*
X412252Y247927D01*
X412421Y247706D01*
X405558Y240842D01*
X405116Y240181D01*
X404961Y239400D01*
Y167845D01*
X395367Y158250D01*
X394196Y158876D01*
X394333Y159566D01*
X394003Y161224D01*
X393244Y162360D01*
X396042Y165158D01*
X396484Y165819D01*
X396639Y166600D01*
Y218322D01*
X396915Y218358D01*
X399073Y219252D01*
X400926Y220674D01*
X402348Y222527D01*
X403242Y224685D01*
X403546Y227000D01*
X403242Y229316D01*
X402348Y231474D01*
X400926Y233326D01*
X399073Y234748D01*
X396915Y235642D01*
X394600Y235947D01*
X392284Y235642D01*
X390126Y234748D01*
X388274Y233326D01*
X386852Y231474D01*
X386609Y230888D01*
X385339Y231140D01*
Y240256D01*
X389905Y244822D01*
X390126Y244652D01*
X392284Y243759D01*
X394600Y243454D01*
X396915Y243759D01*
X399073Y244652D01*
X400926Y246074D01*
X402348Y247927D01*
X403242Y250085D01*
X403546Y252400D01*
X403242Y254716D01*
X402348Y256873D01*
X400926Y258726D01*
X399073Y260148D01*
X396915Y261042D01*
X394600Y261347D01*
X392284Y261042D01*
X390126Y260148D01*
X388274Y258726D01*
X386852Y256873D01*
X385958Y254716D01*
X385653Y252400D01*
X385958Y250085D01*
X386852Y247927D01*
X387021Y247706D01*
X381858Y242542D01*
X381416Y241881D01*
X381261Y241100D01*
Y113950D01*
X378875D01*
Y86050D01*
X387725D01*
Y113950D01*
X385339D01*
Y156606D01*
X386609Y156991D01*
X386936Y156502D01*
X388342Y155562D01*
X390000Y155232D01*
X391658Y155562D01*
X392720Y156272D01*
X393146Y156178D01*
X393843Y155796D01*
X393961Y155690D01*
Y113950D01*
X391575D01*
Y86050D01*
X400425D01*
Y113950D01*
X398039D01*
Y155155D01*
X408442Y165558D01*
X408884Y166220D01*
X409039Y167000D01*
X409039Y167000D01*
Y238556D01*
X415305Y244822D01*
X415527Y244652D01*
X417684Y243759D01*
X420000Y243454D01*
X422315Y243759D01*
X424473Y244652D01*
X426326Y246074D01*
X427748Y247927D01*
X428642Y250085D01*
X428946Y252400D01*
X428642Y254716D01*
X427748Y256873D01*
X426326Y258726D01*
X424473Y260148D01*
X422315Y261042D01*
X420000Y261347D01*
D02*
G37*
G36*
X369200D02*
X366884Y261042D01*
X364726Y260148D01*
X362874Y258726D01*
X361452Y256873D01*
X360558Y254716D01*
X360253Y252400D01*
X360558Y250085D01*
X361452Y247927D01*
X361622Y247706D01*
X355058Y241142D01*
X354616Y240481D01*
X354461Y239700D01*
Y159566D01*
X354616Y158785D01*
X355058Y158124D01*
X368561Y144621D01*
Y113950D01*
X366175D01*
Y86050D01*
X375025D01*
Y113950D01*
X372639D01*
Y145466D01*
X372484Y146246D01*
X372042Y146908D01*
X358539Y160410D01*
Y238855D01*
X364505Y244822D01*
X364726Y244652D01*
X366884Y243759D01*
X369200Y243454D01*
X371515Y243759D01*
X373673Y244652D01*
X375526Y246074D01*
X376948Y247927D01*
X377841Y250085D01*
X378146Y252400D01*
X377841Y254716D01*
X376948Y256873D01*
X375526Y258726D01*
X373673Y260148D01*
X371515Y261042D01*
X369200Y261347D01*
D02*
G37*
G36*
X343800D02*
X341484Y261042D01*
X339327Y260148D01*
X337474Y258726D01*
X336052Y256873D01*
X335158Y254716D01*
X334853Y252400D01*
X335158Y250085D01*
X336052Y247927D01*
X336222Y247706D01*
X330558Y242042D01*
X330116Y241381D01*
X329961Y240600D01*
Y169000D01*
X330116Y168220D01*
X330558Y167558D01*
X355961Y142155D01*
Y113950D01*
X353475D01*
Y86050D01*
X362325D01*
Y113950D01*
X360039D01*
Y143000D01*
X359884Y143780D01*
X359442Y144442D01*
X334039Y169845D01*
Y224067D01*
X335309Y224320D01*
X336052Y222527D01*
X337474Y220674D01*
X339327Y219252D01*
X341484Y218358D01*
X343800Y218054D01*
X346115Y218358D01*
X348273Y219252D01*
X350126Y220674D01*
X351548Y222527D01*
X352441Y224685D01*
X352746Y227000D01*
X352441Y229316D01*
X351548Y231474D01*
X350126Y233326D01*
X348273Y234748D01*
X346115Y235642D01*
X343800Y235947D01*
X341484Y235642D01*
X339327Y234748D01*
X337474Y233326D01*
X336052Y231474D01*
X335309Y229681D01*
X334039Y229933D01*
Y239756D01*
X339105Y244822D01*
X339327Y244652D01*
X341484Y243759D01*
X343800Y243454D01*
X346115Y243759D01*
X348273Y244652D01*
X350126Y246074D01*
X351548Y247927D01*
X352441Y250085D01*
X352746Y252400D01*
X352441Y254716D01*
X351548Y256873D01*
X350126Y258726D01*
X348273Y260148D01*
X346115Y261042D01*
X343800Y261347D01*
D02*
G37*
G36*
X578549Y251650D02*
X569150D01*
Y242251D01*
X571052Y242502D01*
X573524Y243525D01*
X575646Y245154D01*
X577275Y247276D01*
X578298Y249748D01*
X578549Y251650D01*
D02*
G37*
G36*
X567650D02*
X558251D01*
X558501Y249748D01*
X559525Y247276D01*
X561154Y245154D01*
X563276Y243525D01*
X565747Y242502D01*
X567650Y242251D01*
Y251650D01*
D02*
G37*
G36*
X328549D02*
X319150D01*
Y242251D01*
X321052Y242502D01*
X323524Y243525D01*
X325646Y245154D01*
X327275Y247276D01*
X328298Y249748D01*
X328549Y251650D01*
D02*
G37*
G36*
X317650D02*
X308251D01*
X308501Y249748D01*
X309525Y247276D01*
X311154Y245154D01*
X313276Y243525D01*
X315748Y242502D01*
X317650Y242251D01*
Y251650D01*
D02*
G37*
G36*
X644600Y235947D02*
X642284Y235642D01*
X640126Y234748D01*
X638274Y233326D01*
X636852Y231474D01*
X635958Y229316D01*
X635653Y227000D01*
X635958Y224685D01*
X636852Y222527D01*
X638274Y220674D01*
X640126Y219252D01*
X642284Y218358D01*
X644600Y218054D01*
X646915Y218358D01*
X649073Y219252D01*
X650926Y220674D01*
X652348Y222527D01*
X653242Y224685D01*
X653546Y227000D01*
X653242Y229316D01*
X652348Y231474D01*
X650926Y233326D01*
X649073Y234748D01*
X646915Y235642D01*
X644600Y235947D01*
D02*
G37*
G36*
X593800D02*
X591484Y235642D01*
X589327Y234748D01*
X587474Y233326D01*
X586052Y231474D01*
X585158Y229316D01*
X584853Y227000D01*
X585158Y224685D01*
X586052Y222527D01*
X587474Y220674D01*
X589327Y219252D01*
X591484Y218358D01*
X593800Y218054D01*
X596115Y218358D01*
X598273Y219252D01*
X600126Y220674D01*
X601548Y222527D01*
X602441Y224685D01*
X602746Y227000D01*
X602441Y229316D01*
X601548Y231474D01*
X600126Y233326D01*
X598273Y234748D01*
X596115Y235642D01*
X593800Y235947D01*
D02*
G37*
G36*
X577778Y235616D02*
X560038D01*
Y217876D01*
X577778D01*
Y235616D01*
D02*
G37*
G36*
X327778D02*
X310038D01*
Y217876D01*
X327778D01*
Y235616D01*
D02*
G37*
G36*
X125715Y230380D02*
X120750D01*
Y215890D01*
X125715D01*
Y230380D01*
D02*
G37*
G36*
X113015D02*
X108050D01*
Y215890D01*
X113015D01*
Y230380D01*
D02*
G37*
G36*
X119250D02*
X114285D01*
Y215890D01*
X119250D01*
Y230380D01*
D02*
G37*
G36*
X106550D02*
X101585D01*
Y215890D01*
X106550D01*
Y230380D01*
D02*
G37*
G36*
X149825Y229090D02*
X140975D01*
Y201190D01*
X149825D01*
Y229090D01*
D02*
G37*
G36*
X137125D02*
X128275D01*
Y201190D01*
X137125D01*
Y229090D01*
D02*
G37*
G36*
X96187Y229146D02*
X93012D01*
X91905Y228925D01*
X90967Y228298D01*
X90339Y227360D01*
X90119Y226252D01*
Y204027D01*
X90339Y202920D01*
X90967Y201982D01*
X91905Y201355D01*
X93012Y201134D01*
X96187D01*
X97295Y201355D01*
X98233Y201982D01*
X98860Y202920D01*
X99080Y204027D01*
Y226252D01*
X98860Y227360D01*
X98233Y228298D01*
X97295Y228925D01*
X96187Y229146D01*
D02*
G37*
G36*
X125715Y214390D02*
X120750D01*
Y199900D01*
X125715D01*
Y214390D01*
D02*
G37*
G36*
X119250D02*
X114285D01*
Y199900D01*
X119250D01*
Y214390D01*
D02*
G37*
G36*
X113015D02*
X108050D01*
Y199900D01*
X113015D01*
Y214390D01*
D02*
G37*
G36*
X106550D02*
X101585D01*
Y199900D01*
X106550D01*
Y214390D01*
D02*
G37*
G36*
X369200Y235947D02*
X366884Y235642D01*
X364726Y234748D01*
X362874Y233326D01*
X361452Y231474D01*
X360558Y229316D01*
X360253Y227000D01*
X360558Y224685D01*
X361452Y222527D01*
X362874Y220674D01*
X364726Y219252D01*
X366884Y218358D01*
X367161Y218322D01*
Y165366D01*
X367316Y164586D01*
X367758Y163924D01*
X370907Y160775D01*
X370667Y159566D01*
X370997Y157907D01*
X371936Y156502D01*
X373342Y155562D01*
X375000Y155232D01*
X376658Y155562D01*
X378064Y156502D01*
X379003Y157907D01*
X379333Y159566D01*
X379003Y161224D01*
X378064Y162630D01*
X376658Y163569D01*
X375000Y163899D01*
X373791Y163659D01*
X371239Y166211D01*
Y218322D01*
X371515Y218358D01*
X373673Y219252D01*
X375526Y220674D01*
X376948Y222527D01*
X377841Y224685D01*
X378146Y227000D01*
X377841Y229316D01*
X376948Y231474D01*
X375526Y233326D01*
X373673Y234748D01*
X371515Y235642D01*
X369200Y235947D01*
D02*
G37*
G36*
X619200D02*
X616884Y235642D01*
X614726Y234748D01*
X612874Y233326D01*
X611452Y231474D01*
X610558Y229316D01*
X610253Y227000D01*
X610558Y224685D01*
X611452Y222527D01*
X612874Y220674D01*
X614726Y219252D01*
X616884Y218358D01*
X616961Y218348D01*
Y157824D01*
X615936Y157139D01*
X614997Y155734D01*
X614667Y154075D01*
X614997Y152417D01*
X615936Y151011D01*
X617342Y150072D01*
X619000Y149742D01*
X620658Y150072D01*
X622064Y151011D01*
X623003Y152417D01*
X623333Y154075D01*
X623003Y155734D01*
X622064Y157139D01*
X621039Y157824D01*
Y218296D01*
X621515Y218358D01*
X623673Y219252D01*
X625526Y220674D01*
X626948Y222527D01*
X627841Y224685D01*
X628146Y227000D01*
X627841Y229316D01*
X626948Y231474D01*
X625526Y233326D01*
X623673Y234748D01*
X621515Y235642D01*
X619200Y235947D01*
D02*
G37*
G36*
X599715Y115240D02*
X594750D01*
Y100750D01*
X599715D01*
Y115240D01*
D02*
G37*
G36*
X350915D02*
X345950D01*
Y100750D01*
X350915D01*
Y115240D01*
D02*
G37*
G36*
X593250D02*
X588285D01*
Y100750D01*
X593250D01*
Y115240D01*
D02*
G37*
G36*
X344450D02*
X339485D01*
Y100750D01*
X344450D01*
Y115240D01*
D02*
G37*
G36*
X594000Y100000D02*
D01*
D01*
D01*
D02*
G37*
G36*
X750000Y106373D02*
X747561Y105888D01*
X745494Y104506D01*
X744113Y102439D01*
X743628Y100000D01*
X744113Y97562D01*
X745494Y95494D01*
X747561Y94113D01*
X750000Y93628D01*
X752439Y94113D01*
X754506Y95494D01*
X755888Y97562D01*
X756373Y100000D01*
X755888Y102439D01*
X754506Y104506D01*
X752439Y105888D01*
X750000Y106373D01*
D02*
G37*
G36*
X636525Y113950D02*
X627675D01*
Y86050D01*
X636525D01*
Y113950D01*
D02*
G37*
G36*
X619200Y261347D02*
X616884Y261042D01*
X614726Y260148D01*
X612874Y258726D01*
X611452Y256873D01*
X610558Y254716D01*
X610253Y252400D01*
X610558Y250085D01*
X611452Y247927D01*
X612874Y246074D01*
X614726Y244652D01*
X616884Y243759D01*
X619200Y243454D01*
X621515Y243759D01*
X623673Y244652D01*
X623894Y244822D01*
X629861Y238856D01*
Y148802D01*
X617958Y136900D01*
X617516Y136238D01*
X617361Y135458D01*
Y113950D01*
X614975D01*
Y86050D01*
X623825D01*
Y113950D01*
X621439D01*
Y134613D01*
X633342Y146516D01*
X633342Y146516D01*
X633784Y147177D01*
X633939Y147958D01*
X633939Y147958D01*
Y239700D01*
X633939Y239700D01*
X633784Y240481D01*
X633342Y241142D01*
X633342Y241142D01*
X626778Y247706D01*
X626948Y247927D01*
X627841Y250085D01*
X628146Y252400D01*
X627841Y254716D01*
X626948Y256873D01*
X625526Y258726D01*
X623673Y260148D01*
X621515Y261042D01*
X619200Y261347D01*
D02*
G37*
G36*
X732000Y372300D02*
X723000D01*
Y359200D01*
X725461D01*
Y356495D01*
X672905Y303939D01*
X164900D01*
X164120Y303784D01*
X163458Y303342D01*
X143958Y283842D01*
X143516Y283180D01*
X143361Y282400D01*
Y274810D01*
X140975D01*
Y246910D01*
X149825D01*
Y274810D01*
X147439D01*
Y281555D01*
X165745Y299861D01*
X591761D01*
Y261078D01*
X591484Y261042D01*
X589327Y260148D01*
X587474Y258726D01*
X586052Y256873D01*
X585158Y254716D01*
X584853Y252400D01*
X585158Y250085D01*
X586052Y247927D01*
X587474Y246074D01*
X589327Y244652D01*
X591484Y243759D01*
X593800Y243454D01*
X596115Y243759D01*
X598273Y244652D01*
X598494Y244822D01*
X604661Y238655D01*
Y113950D01*
X602275D01*
Y86050D01*
X611125D01*
Y113950D01*
X608739D01*
Y239500D01*
X608584Y240280D01*
X608142Y240942D01*
X601378Y247706D01*
X601548Y247927D01*
X602441Y250085D01*
X602746Y252400D01*
X602441Y254716D01*
X601548Y256873D01*
X600126Y258726D01*
X598273Y260148D01*
X596115Y261042D01*
X595839Y261078D01*
Y299861D01*
X673750D01*
X674530Y300016D01*
X675192Y300458D01*
X728942Y354208D01*
X729384Y354870D01*
X729539Y355650D01*
X729539Y355650D01*
Y359200D01*
X732000D01*
Y372300D01*
D02*
G37*
G36*
X599715Y99250D02*
X594750D01*
Y84760D01*
X599715D01*
Y99250D01*
D02*
G37*
G36*
X593250D02*
X588285D01*
Y84760D01*
X593250D01*
Y99250D01*
D02*
G37*
G36*
X350915D02*
X345950D01*
Y84760D01*
X350915D01*
Y99250D01*
D02*
G37*
G36*
X344450D02*
X339485D01*
Y84760D01*
X344450D01*
Y99250D01*
D02*
G37*
G36*
X670000Y235947D02*
X667684Y235642D01*
X665527Y234748D01*
X663674Y233326D01*
X662252Y231474D01*
X661358Y229316D01*
X661053Y227000D01*
X661358Y224685D01*
X662252Y222527D01*
X663674Y220674D01*
X665527Y219252D01*
X667684Y218358D01*
X667961Y218322D01*
Y88000D01*
X667961Y87999D01*
Y80325D01*
X650398Y62762D01*
X649225Y63248D01*
Y68230D01*
X640375D01*
Y40330D01*
X649225D01*
Y56787D01*
X649346D01*
X650127Y56942D01*
X650788Y57384D01*
X671442Y78038D01*
X671884Y78700D01*
X672039Y79480D01*
X672039Y79480D01*
Y87999D01*
X672039Y88000D01*
X672039Y88001D01*
Y218322D01*
X672315Y218358D01*
X674473Y219252D01*
X676326Y220674D01*
X677748Y222527D01*
X678642Y224685D01*
X678946Y227000D01*
X678642Y229316D01*
X677748Y231474D01*
X676326Y233326D01*
X674473Y234748D01*
X672315Y235642D01*
X670000Y235947D01*
D02*
G37*
G36*
X420000D02*
X417684Y235642D01*
X415527Y234748D01*
X413674Y233326D01*
X412252Y231474D01*
X411358Y229316D01*
X411053Y227000D01*
X411358Y224685D01*
X412252Y222527D01*
X413674Y220674D01*
X415527Y219252D01*
X417684Y218358D01*
X417961Y218322D01*
Y79124D01*
X401598Y62762D01*
X400425Y63248D01*
Y68230D01*
X391575D01*
Y40330D01*
X400425D01*
Y56787D01*
X400546D01*
X401327Y56942D01*
X401988Y57384D01*
X421442Y76838D01*
X421884Y77499D01*
X422039Y78280D01*
X422039Y78280D01*
Y218322D01*
X422315Y218358D01*
X424473Y219252D01*
X426326Y220674D01*
X427748Y222527D01*
X428642Y224685D01*
X428946Y227000D01*
X428642Y229316D01*
X427748Y231474D01*
X426326Y233326D01*
X424473Y234748D01*
X422315Y235642D01*
X420000Y235947D01*
D02*
G37*
G36*
X595588Y68286D02*
X592412D01*
X591305Y68065D01*
X590367Y67438D01*
X589740Y66500D01*
X589519Y65392D01*
Y43168D01*
X589740Y42060D01*
X590367Y41122D01*
X591305Y40495D01*
X592412Y40274D01*
X595588D01*
X596695Y40495D01*
X597633Y41122D01*
X598260Y42060D01*
X598481Y43168D01*
Y65392D01*
X598260Y66500D01*
X597633Y67438D01*
X596695Y68065D01*
X595588Y68286D01*
D02*
G37*
G36*
X346787D02*
X343613D01*
X342505Y68065D01*
X341567Y67438D01*
X340940Y66500D01*
X340719Y65392D01*
Y43168D01*
X340940Y42060D01*
X341567Y41122D01*
X342505Y40495D01*
X343613Y40274D01*
X346787D01*
X347895Y40495D01*
X348833Y41122D01*
X349460Y42060D01*
X349681Y43168D01*
Y65392D01*
X349460Y66500D01*
X348833Y67438D01*
X347895Y68065D01*
X346787Y68286D01*
D02*
G37*
G36*
X623825Y68230D02*
X614975D01*
Y40330D01*
X617361D01*
Y37949D01*
X616336Y37264D01*
X615397Y35859D01*
X615067Y34200D01*
X615397Y32542D01*
X616336Y31136D01*
X617742Y30197D01*
X619400Y29867D01*
X621058Y30197D01*
X622464Y31136D01*
X623403Y32542D01*
X623733Y34200D01*
X623403Y35859D01*
X622464Y37264D01*
X621439Y37949D01*
Y40330D01*
X623825D01*
Y68230D01*
D02*
G37*
G36*
X636525D02*
X627675D01*
Y40330D01*
X630061D01*
Y37798D01*
X628963Y37064D01*
X628023Y35658D01*
X627693Y34000D01*
X628023Y32342D01*
X628963Y30936D01*
X630368Y29997D01*
X632027Y29667D01*
X633685Y29997D01*
X635091Y30936D01*
X636030Y32342D01*
X636360Y34000D01*
X636030Y35658D01*
X635091Y37064D01*
X634139Y37700D01*
Y40330D01*
X636525D01*
Y68230D01*
D02*
G37*
G36*
X611125D02*
X602275D01*
Y40330D01*
X604661D01*
Y37883D01*
X603436Y37064D01*
X602496Y35658D01*
X602166Y34000D01*
X602496Y32342D01*
X603436Y30936D01*
X604841Y29997D01*
X606500Y29667D01*
X608158Y29997D01*
X609564Y30936D01*
X610503Y32342D01*
X610833Y34000D01*
X610503Y35658D01*
X609564Y37064D01*
X608739Y37615D01*
Y40330D01*
X611125D01*
Y68230D01*
D02*
G37*
G36*
X387725D02*
X378875D01*
Y40330D01*
X381261D01*
Y37749D01*
X380236Y37064D01*
X379297Y35658D01*
X378967Y34000D01*
X379297Y32342D01*
X380236Y30936D01*
X381642Y29997D01*
X383300Y29667D01*
X384958Y29997D01*
X386364Y30936D01*
X387303Y32342D01*
X387633Y34000D01*
X387303Y35658D01*
X386364Y37064D01*
X385339Y37749D01*
Y40330D01*
X387725D01*
Y68230D01*
D02*
G37*
G36*
X375025D02*
X366175D01*
Y40330D01*
X368561D01*
Y37749D01*
X367536Y37064D01*
X366597Y35658D01*
X366267Y34000D01*
X366597Y32342D01*
X367536Y30936D01*
X368942Y29997D01*
X370600Y29667D01*
X372258Y29997D01*
X373664Y30936D01*
X374603Y32342D01*
X374933Y34000D01*
X374603Y35658D01*
X373664Y37064D01*
X372639Y37749D01*
Y40330D01*
X375025D01*
Y68230D01*
D02*
G37*
G36*
X362325D02*
X353475D01*
Y40330D01*
X355861D01*
Y37749D01*
X354836Y37064D01*
X353897Y35658D01*
X353567Y34000D01*
X353897Y32342D01*
X354836Y30936D01*
X356242Y29997D01*
X357900Y29667D01*
X359558Y29997D01*
X360964Y30936D01*
X361903Y32342D01*
X362233Y34000D01*
X361903Y35658D01*
X360964Y37064D01*
X359939Y37749D01*
Y40330D01*
X362325D01*
Y68230D01*
D02*
G37*
G36*
X750080Y79992D02*
X745412Y79625D01*
X740858Y78531D01*
X736532Y76739D01*
X732539Y74293D01*
X728979Y71252D01*
X725937Y67691D01*
X723491Y63698D01*
X721699Y59372D01*
X720605Y54818D01*
X720238Y50150D01*
X720605Y45482D01*
X721699Y40928D01*
X723491Y36602D01*
X725937Y32609D01*
X728979Y29049D01*
X732539Y26007D01*
X736532Y23561D01*
X740858Y21769D01*
X745412Y20675D01*
X750080Y20308D01*
X754748Y20675D01*
X759302Y21769D01*
X763628Y23561D01*
X767621Y26007D01*
X771181Y29049D01*
X774223Y32609D01*
X776669Y36602D01*
X778461Y40928D01*
X779555Y45482D01*
X779922Y50150D01*
X779555Y54818D01*
X778461Y59372D01*
X776669Y63698D01*
X774223Y67691D01*
X771181Y71252D01*
X767621Y74293D01*
X763628Y76739D01*
X759302Y78531D01*
X754748Y79625D01*
X750080Y79992D01*
D02*
G37*
G36*
X49830Y79742D02*
X45162Y79375D01*
X40608Y78281D01*
X36282Y76489D01*
X32289Y74043D01*
X28728Y71002D01*
X25687Y67441D01*
X23241Y63448D01*
X21449Y59122D01*
X20355Y54568D01*
X19988Y49900D01*
X20355Y45232D01*
X21449Y40678D01*
X23241Y36352D01*
X25687Y32359D01*
X28728Y28798D01*
X32289Y25757D01*
X36282Y23311D01*
X40608Y21519D01*
X45162Y20425D01*
X49830Y20058D01*
X54498Y20425D01*
X59052Y21519D01*
X63378Y23311D01*
X67371Y25757D01*
X70932Y28798D01*
X73973Y32359D01*
X76419Y36352D01*
X78211Y40678D01*
X79305Y45232D01*
X79672Y49900D01*
X79305Y54568D01*
X78211Y59122D01*
X76419Y63448D01*
X73973Y67441D01*
X70932Y71002D01*
X67371Y74043D01*
X63378Y76489D01*
X59052Y78281D01*
X54498Y79375D01*
X49830Y79742D01*
D02*
G37*
%LPD*%
G36*
X386852Y222527D02*
X388274Y220674D01*
X390126Y219252D01*
X392284Y218358D01*
X392561Y218322D01*
Y167444D01*
X388771Y163654D01*
X388342Y163569D01*
X386936Y162630D01*
X386609Y162141D01*
X385339Y162526D01*
Y222860D01*
X386609Y223113D01*
X386852Y222527D01*
D02*
G37*
D18*
X345200Y54280D02*
D03*
X594000D02*
D03*
X94600Y215140D02*
D03*
D19*
X345200Y100000D02*
D03*
X357900Y54280D02*
D03*
Y100000D02*
D03*
X370600Y54280D02*
D03*
Y100000D02*
D03*
X383300Y54280D02*
D03*
Y100000D02*
D03*
X396000Y54280D02*
D03*
Y100000D02*
D03*
X594000D02*
D03*
X606700Y54280D02*
D03*
Y100000D02*
D03*
X619400Y54280D02*
D03*
Y100000D02*
D03*
X632100Y54280D02*
D03*
Y100000D02*
D03*
X644800Y54280D02*
D03*
Y100000D02*
D03*
X94600Y260860D02*
D03*
X107300Y215140D02*
D03*
Y260860D02*
D03*
X120000Y215140D02*
D03*
Y260860D02*
D03*
X132700Y215140D02*
D03*
Y260860D02*
D03*
X145400Y215140D02*
D03*
Y260860D02*
D03*
D20*
X737000Y387750D02*
D03*
X746500Y365750D02*
D03*
X727500D02*
D03*
D21*
X88750Y467100D02*
D03*
Y454400D02*
D03*
Y441700D02*
D03*
Y429000D02*
D03*
Y416300D02*
D03*
Y403600D02*
D03*
Y390900D02*
D03*
X143250Y467100D02*
D03*
Y454400D02*
D03*
Y441700D02*
D03*
Y429000D02*
D03*
Y416300D02*
D03*
Y403600D02*
D03*
Y390900D02*
D03*
D22*
X684250Y493750D02*
D03*
Y454250D02*
D03*
X741750D02*
D03*
Y493750D02*
D03*
D23*
X670000Y377750D02*
D03*
X645000Y377750D02*
D03*
X57000Y390250D02*
D03*
X595478Y409250D02*
D03*
X670000Y409250D02*
D03*
X176280Y410350D02*
D03*
X695000Y377750D02*
D03*
X57151Y354250D02*
D03*
X176280Y442750D02*
D03*
X57000Y481500D02*
D03*
X176280Y359250D02*
D03*
X176000Y471250D02*
D03*
X57000Y428250D02*
D03*
D24*
X670000Y364250D02*
D03*
X645000Y364250D02*
D03*
X57000Y403750D02*
D03*
X595478Y422750D02*
D03*
X670000Y422750D02*
D03*
X176280Y396850D02*
D03*
X695000Y364250D02*
D03*
X57151Y367750D02*
D03*
X176280Y429250D02*
D03*
X57000Y468000D02*
D03*
X176280Y372750D02*
D03*
X176000Y484750D02*
D03*
X57000Y441750D02*
D03*
D25*
X594217Y533280D02*
D03*
Y558680D02*
D03*
X129250Y364250D02*
D03*
D26*
X607716Y533280D02*
D03*
Y558680D02*
D03*
X142750Y364250D02*
D03*
D27*
X92000Y365000D02*
D03*
X108000D02*
D03*
D46*
X620008Y593224D02*
D03*
Y611004D02*
D03*
D47*
X750000Y600000D02*
D03*
Y100000D02*
D03*
X50000Y600000D02*
D03*
D48*
X620000Y425250D02*
D03*
Y408750D02*
D03*
X644600Y425250D02*
D03*
Y408750D02*
D03*
D49*
X589196Y368000D02*
X617196Y396000D01*
X683000D02*
X695000Y384000D01*
X617196Y396000D02*
X683000D01*
X645000Y377750D02*
X671000D01*
X695000Y379136D02*
Y384000D01*
Y377750D02*
Y379136D01*
X644800Y388000D02*
X645871D01*
X645000Y377750D02*
Y384871D01*
X624250Y364250D02*
X647000D01*
X620000Y360000D02*
X624250Y364250D01*
X619000Y154075D02*
Y226800D01*
X606700Y34200D02*
Y54280D01*
X606500Y34000D02*
X606700Y34200D01*
X619400D02*
Y54280D01*
X632100Y34073D02*
Y54280D01*
X632027Y34000D02*
X632100Y34073D01*
X357900Y100000D02*
X358000Y100100D01*
Y143000D01*
X332000Y169000D02*
X358000Y143000D01*
X356500Y159566D02*
X370600Y145466D01*
Y106262D02*
Y145466D01*
X383300Y88480D02*
Y241100D01*
X394600Y252400D01*
X390000Y159566D02*
Y162000D01*
X394600Y166600D01*
X387566Y159566D02*
X390000D01*
X396000Y98258D02*
Y156000D01*
X407000Y167000D01*
X396000Y54280D02*
Y56401D01*
X398425Y58826D01*
X400546D01*
X420000Y78280D01*
X357900Y34000D02*
Y54280D01*
X370600Y34000D02*
Y54280D01*
X383300Y34000D02*
Y54280D01*
X631900Y147958D02*
Y239700D01*
X619400Y90992D02*
Y135458D01*
X631900Y147958D01*
X670000Y79480D02*
Y88000D01*
X670000Y88000D02*
X670000Y88000D01*
X644800Y54280D02*
Y56401D01*
X647225Y58826D01*
X649346D01*
X670000Y79480D01*
X619200Y54080D02*
X619400Y54280D01*
X606700Y89467D02*
Y239500D01*
X593800Y252400D02*
X606700Y239500D01*
X644800Y89852D02*
Y146200D01*
X657000Y158400D01*
X619000Y226800D02*
X619200Y227000D01*
X684250Y493750D02*
X741750D01*
X737000Y387750D02*
Y427250D01*
X684250Y480000D02*
Y493750D01*
Y480000D02*
X737000Y427250D01*
X670000Y252400D02*
X746500Y328900D01*
Y365750D01*
X593800Y301900D02*
X673750D01*
X727500Y355650D02*
Y365750D01*
X673750Y301900D02*
X727500Y355650D01*
X741750Y493750D02*
X746250Y489250D01*
X725654Y387750D02*
X737000D01*
X703121Y365218D02*
X725654Y387750D01*
X697000Y364250D02*
X697968Y365218D01*
X703121D01*
X657000Y241900D02*
X667500Y252400D01*
X657000Y158400D02*
Y241900D01*
X369200Y165366D02*
X375000Y159566D01*
X332000Y240600D02*
X343800Y252400D01*
X332000Y169000D02*
Y240600D01*
X356500Y239700D02*
X369200Y252400D01*
X356500Y159566D02*
Y239700D01*
X369200Y165366D02*
Y227000D01*
X394600Y166600D02*
Y227000D01*
X407000Y239400D02*
X420000Y252400D01*
X407000Y167000D02*
Y239400D01*
X420000Y78280D02*
Y227000D01*
X619200Y252400D02*
X631900Y239700D01*
X593800Y252400D02*
Y301900D01*
X164900D02*
X593800D01*
X145400Y282400D02*
X164900Y301900D01*
X667500Y252400D02*
X670000D01*
Y88000D02*
Y227000D01*
X631900Y454250D02*
X644600Y441550D01*
X588261Y454250D02*
X631900D01*
X587800Y453789D02*
X588261Y454250D01*
X644600Y408750D02*
X669500D01*
X595478Y409250D02*
X619500D01*
X587800Y453789D02*
X595478Y446110D01*
X583776Y457812D02*
X587800Y453789D01*
X644600Y425250D02*
Y441550D01*
X595478Y422750D02*
Y446110D01*
X186250Y359250D02*
X203000Y376000D01*
X176280Y359250D02*
X186250D01*
X203000Y376000D02*
Y413030D01*
X271220Y380880D02*
X284100Y368000D01*
X589196D01*
X145400Y260860D02*
Y282400D01*
X65000Y490000D02*
X71000Y496000D01*
X232300D02*
X271220Y457080D01*
X71000Y496000D02*
X232300D01*
X154920Y482480D02*
X166150Y471250D01*
X100620Y467100D02*
X116000Y482480D01*
X154920D01*
X70601Y454400D02*
X88750D01*
X57723Y468000D02*
X60969Y464754D01*
X57000Y468000D02*
X57723D01*
X60969Y464031D02*
Y464754D01*
Y464031D02*
X70601Y454400D01*
X41000Y340000D02*
X94600Y286400D01*
X41000Y340000D02*
Y412250D01*
X53155Y424405D01*
X163000Y385500D02*
Y394000D01*
X175557Y372750D02*
X176280D01*
X172311Y375996D02*
X175557Y372750D01*
X172311Y375996D02*
Y376189D01*
X163000Y385500D02*
X172311Y376189D01*
X500120Y507880D02*
X513000Y495000D01*
X546589D01*
X583776Y457812D01*
X583776D01*
X420000Y227000D02*
X421979Y228979D01*
X94600Y260860D02*
Y286400D01*
X56385Y428250D02*
X57000D01*
X53155Y425019D02*
X56385Y428250D01*
X53155Y424405D02*
Y425019D01*
X107300Y260860D02*
Y342300D01*
X125404Y360404D01*
X126019D01*
X129250Y363635D01*
Y364250D01*
X203000Y413030D02*
X233000Y443030D01*
X282570D01*
X296620Y457080D01*
X176280Y410350D02*
X193000D01*
X57151Y354250D02*
X68750D01*
X69000Y354000D01*
X607716Y536899D02*
Y540288D01*
X600966Y547038D02*
X607716Y540288D01*
X608661Y488500D02*
Y489327D01*
X607400Y488500D02*
Y528691D01*
X607716Y558680D02*
X613320D01*
X673750Y498250D01*
X511962Y547038D02*
X600966D01*
X525520Y558680D02*
X525662Y558538D01*
X595478D01*
X500320Y558680D02*
X511962Y547038D01*
X500120Y558680D02*
X500320D01*
X644600Y375750D02*
X644600Y375750D01*
X679750Y498250D02*
X684250Y493750D01*
X673750Y498250D02*
X679750D01*
X608084Y488750D02*
X608661Y489327D01*
X175665Y410350D02*
X176280D01*
X65000Y489500D02*
Y490000D01*
X60846Y485345D02*
X65000Y489500D01*
X57000Y481500D02*
X57615D01*
X60846Y484731D01*
Y485345D01*
X153400Y403600D02*
X163000Y394000D01*
X143250Y403600D02*
X153400D01*
X132700Y454400D02*
X143250D01*
X114000Y435700D02*
X132700Y454400D01*
X114000Y429000D02*
Y435700D01*
X88750Y429000D02*
X114000D01*
X126700Y416300D01*
X143250D01*
Y441700D02*
X156000D01*
X143250Y429000D02*
X176030D01*
X176280Y429250D01*
X143250Y416300D02*
X170330D01*
X172434Y414195D01*
Y413581D02*
Y414195D01*
Y413581D02*
X175665Y410350D01*
X143250Y364750D02*
Y390900D01*
X142750Y364250D02*
X143250Y364750D01*
X88750Y467100D02*
X100620D01*
X166150Y471250D02*
X176000D01*
Y443030D02*
Y471250D01*
Y443030D02*
X176280Y442750D01*
X57000Y367901D02*
Y390250D01*
Y367901D02*
X57151Y367750D01*
X69579Y416300D02*
X88750D01*
X67000Y418879D02*
X69579Y416300D01*
X67000Y418879D02*
Y419000D01*
X57000Y428250D02*
X57750D01*
X67000Y419000D01*
X57151Y403600D02*
X88750D01*
X57000Y403750D02*
X57151Y403600D01*
X57050Y441700D02*
X88750D01*
X57000Y441750D02*
X57050Y441700D01*
D50*
X474000Y521000D02*
X510962D01*
X283500D02*
X474000D01*
Y427000D02*
Y521000D01*
X482000Y419000D02*
X512800D01*
X474000Y427000D02*
X482000Y419000D01*
X512800D02*
X525520Y406280D01*
X247000Y609480D02*
Y636060D01*
X248180Y634880D02*
X271220D01*
X247000Y609480D02*
X271220D01*
X247000Y636060D02*
Y649000D01*
Y557500D02*
Y609480D01*
X258280Y660280D02*
X271220D01*
X247000Y649000D02*
X258280Y660280D01*
X247000Y557500D02*
X271220Y533280D01*
X283500Y521000D01*
X510962D02*
X523242Y533280D01*
X594217D01*
X619921Y425330D02*
Y445200D01*
X500120Y634880D02*
X513000Y622000D01*
X555000D01*
X583776Y593224D02*
X620008D01*
X555000Y622000D02*
X583776Y593224D01*
X500120Y660280D02*
X520840Y681000D01*
X550012D01*
X620008Y611004D01*
D51*
X525520Y406280D02*
X527997D01*
X619921Y445200D02*
X620732D01*
X669500Y408750D02*
X670000Y409250D01*
X619500Y409250D02*
X620000Y408750D01*
X619921Y425330D02*
X620000Y425250D01*
X595478Y409250D02*
X596728Y408000D01*
X143250Y467100D02*
Y474750D01*
X106000Y366000D02*
Y376000D01*
X106000Y376000D01*
X247000Y636060D02*
X248180Y634880D01*
X500120D02*
X501120D01*
X616508Y596724D02*
X620008Y593224D01*
X500120Y660280D02*
Y663120D01*
D52*
X620008Y593224D02*
Y611004D01*
D53*
X394600Y227000D02*
D03*
X420000D02*
D03*
Y252400D02*
D03*
X394600D02*
D03*
X369200D02*
D03*
Y227000D02*
D03*
X343800Y252400D02*
D03*
Y227000D02*
D03*
X318400Y252400D02*
D03*
X644600Y227000D02*
D03*
X670000D02*
D03*
Y252400D02*
D03*
X644600D02*
D03*
X619200D02*
D03*
Y227000D02*
D03*
X593800Y252400D02*
D03*
Y227000D02*
D03*
X568400Y252400D02*
D03*
X607400Y488500D02*
D03*
D54*
X318908Y226746D02*
D03*
X568908D02*
D03*
X582000Y488500D02*
D03*
D55*
X50000Y50000D02*
D03*
Y650000D02*
D03*
X750000D02*
D03*
Y50000D02*
D03*
D56*
X525520Y355480D02*
D03*
X500120D02*
D03*
X525520Y380880D02*
D03*
X500120D02*
D03*
X525520Y406280D02*
D03*
X500120D02*
D03*
X525520Y431680D02*
D03*
X500120D02*
D03*
X525520Y457080D02*
D03*
X500120D02*
D03*
X525520Y482480D02*
D03*
X500120D02*
D03*
X525520Y507880D02*
D03*
X500120D02*
D03*
X525520Y533280D02*
D03*
X500120D02*
D03*
X525520Y558680D02*
D03*
X500120D02*
D03*
X525520Y584080D02*
D03*
X500120D02*
D03*
X525520Y609480D02*
D03*
X500120D02*
D03*
X525520Y634880D02*
D03*
X500120D02*
D03*
Y660280D02*
D03*
X271220D02*
D03*
Y634880D02*
D03*
X296620D02*
D03*
X271220Y609480D02*
D03*
X296620D02*
D03*
X271220Y584080D02*
D03*
X296620D02*
D03*
X271220Y558680D02*
D03*
X296620D02*
D03*
X271220Y533280D02*
D03*
X296620D02*
D03*
X271220Y507880D02*
D03*
X296620D02*
D03*
X271220Y482480D02*
D03*
X296620D02*
D03*
X271220Y457080D02*
D03*
X296620D02*
D03*
X271220Y431680D02*
D03*
X296620D02*
D03*
X271220Y406280D02*
D03*
X296620D02*
D03*
X271220Y380880D02*
D03*
X296620D02*
D03*
X271220Y355480D02*
D03*
X296620D02*
D03*
D57*
X525520Y660280D02*
D03*
X296620D02*
D03*
D58*
X644800Y388000D02*
D03*
X620000Y360000D02*
D03*
X619400Y34200D02*
D03*
X606500Y34000D02*
D03*
X632027D02*
D03*
X390000Y159566D02*
D03*
X357900Y34000D02*
D03*
X383300D02*
D03*
X370600D02*
D03*
X619000Y154075D02*
D03*
X375000Y159566D02*
D03*
X619921Y445200D02*
D03*
X193000Y410350D02*
D03*
X69000Y354000D02*
D03*
X143250Y474750D02*
D03*
X106000Y376000D02*
D03*
X156000Y441700D02*
D03*
M02*
