G04*
G04 #@! TF.GenerationSoftware,Altium Limited,Altium Designer,20.2.6 (244)*
G04*
G04 Layer_Color=8388736*
%FSLAX44Y44*%
%MOMM*%
G71*
G04*
G04 #@! TF.SameCoordinates,206DDC9A-6AB5-4D35-AA82-BAB3787187E7*
G04*
G04*
G04 #@! TF.FilePolarity,Negative*
G04*
G01*
G75*
G04:AMPARAMS|DCode=29|XSize=2.6mm|YSize=0.695mm|CornerRadius=0.1888mm|HoleSize=0mm|Usage=FLASHONLY|Rotation=90.000|XOffset=0mm|YOffset=0mm|HoleType=Round|Shape=RoundedRectangle|*
%AMROUNDEDRECTD29*
21,1,2.6000,0.3175,0,0,90.0*
21,1,2.2225,0.6950,0,0,90.0*
1,1,0.3775,0.1588,1.1113*
1,1,0.3775,0.1588,-1.1113*
1,1,0.3775,-0.1588,-1.1113*
1,1,0.3775,-0.1588,1.1113*
%
%ADD29ROUNDEDRECTD29*%
%ADD30R,0.6950X2.6000*%
%ADD31R,0.7100X1.1200*%
%ADD32O,1.5100X0.6600*%
%ADD33R,2.3100X1.1100*%
G04:AMPARAMS|DCode=34|XSize=1.01mm|YSize=0.86mm|CornerRadius=0.13mm|HoleSize=0mm|Usage=FLASHONLY|Rotation=0.000|XOffset=0mm|YOffset=0mm|HoleType=Round|Shape=RoundedRectangle|*
%AMROUNDEDRECTD34*
21,1,1.0100,0.6000,0,0,0.0*
21,1,0.7500,0.8600,0,0,0.0*
1,1,0.2600,0.3750,-0.3000*
1,1,0.2600,-0.3750,-0.3000*
1,1,0.2600,-0.3750,0.3000*
1,1,0.2600,0.3750,0.3000*
%
%ADD34ROUNDEDRECTD34*%
G04:AMPARAMS|DCode=35|XSize=1.01mm|YSize=0.86mm|CornerRadius=0.11mm|HoleSize=0mm|Usage=FLASHONLY|Rotation=0.000|XOffset=0mm|YOffset=0mm|HoleType=Round|Shape=RoundedRectangle|*
%AMROUNDEDRECTD35*
21,1,1.0100,0.6400,0,0,0.0*
21,1,0.7900,0.8600,0,0,0.0*
1,1,0.2200,0.3950,-0.3200*
1,1,0.2200,-0.3950,-0.3200*
1,1,0.2200,-0.3950,0.3200*
1,1,0.2200,0.3950,0.3200*
%
%ADD35ROUNDEDRECTD35*%
%ADD36R,1.0600X1.0600*%
%ADD37C,2.0000*%
G04:AMPARAMS|DCode=38|XSize=1.01mm|YSize=0.86mm|CornerRadius=0.13mm|HoleSize=0mm|Usage=FLASHONLY|Rotation=90.000|XOffset=0mm|YOffset=0mm|HoleType=Round|Shape=RoundedRectangle|*
%AMROUNDEDRECTD38*
21,1,1.0100,0.6000,0,0,90.0*
21,1,0.7500,0.8600,0,0,90.0*
1,1,0.2600,0.3000,0.3750*
1,1,0.2600,0.3000,-0.3750*
1,1,0.2600,-0.3000,-0.3750*
1,1,0.2600,-0.3000,0.3750*
%
%ADD38ROUNDEDRECTD38*%
G04:AMPARAMS|DCode=39|XSize=1.01mm|YSize=0.86mm|CornerRadius=0.11mm|HoleSize=0mm|Usage=FLASHONLY|Rotation=90.000|XOffset=0mm|YOffset=0mm|HoleType=Round|Shape=RoundedRectangle|*
%AMROUNDEDRECTD39*
21,1,1.0100,0.6400,0,0,90.0*
21,1,0.7900,0.8600,0,0,90.0*
1,1,0.2200,0.3200,0.3950*
1,1,0.2200,0.3200,-0.3950*
1,1,0.2200,-0.3200,-0.3950*
1,1,0.2200,-0.3200,0.3950*
%
%ADD39ROUNDEDRECTD39*%
%ADD40R,0.8600X0.9600*%
%ADD41R,0.8600X0.8600*%
%ADD42C,1.5840*%
%ADD43R,1.5840X1.5840*%
%ADD44C,1.5600*%
%ADD45R,1.5600X1.5600*%
D29*
X345200Y54280D02*
D03*
X594000D02*
D03*
X94600Y215140D02*
D03*
D30*
X345200Y100000D02*
D03*
X357900Y54280D02*
D03*
Y100000D02*
D03*
X370600Y54280D02*
D03*
Y100000D02*
D03*
X383300Y54280D02*
D03*
Y100000D02*
D03*
X396000Y54280D02*
D03*
Y100000D02*
D03*
X594000D02*
D03*
X606700Y54280D02*
D03*
Y100000D02*
D03*
X619400Y54280D02*
D03*
Y100000D02*
D03*
X632100Y54280D02*
D03*
Y100000D02*
D03*
X644800Y54280D02*
D03*
Y100000D02*
D03*
X94600Y260860D02*
D03*
X107300Y215140D02*
D03*
Y260860D02*
D03*
X120000Y215140D02*
D03*
Y260860D02*
D03*
X132700Y215140D02*
D03*
Y260860D02*
D03*
X145400Y215140D02*
D03*
Y260860D02*
D03*
D31*
X737000Y387750D02*
D03*
X746500Y365750D02*
D03*
X727500D02*
D03*
D32*
X88750Y467100D02*
D03*
Y454400D02*
D03*
Y441700D02*
D03*
Y429000D02*
D03*
Y416300D02*
D03*
Y403600D02*
D03*
Y390900D02*
D03*
X143250Y467100D02*
D03*
Y454400D02*
D03*
Y441700D02*
D03*
Y429000D02*
D03*
Y416300D02*
D03*
Y403600D02*
D03*
Y390900D02*
D03*
D33*
X684250Y493750D02*
D03*
Y454250D02*
D03*
X741750D02*
D03*
Y493750D02*
D03*
D34*
X670000Y377750D02*
D03*
X645000Y377750D02*
D03*
X57000Y390250D02*
D03*
X595478Y409250D02*
D03*
X670000Y409250D02*
D03*
X176280Y410350D02*
D03*
X695000Y377750D02*
D03*
X57151Y354250D02*
D03*
X176280Y442750D02*
D03*
X57000Y481500D02*
D03*
X176280Y359250D02*
D03*
X176000Y471250D02*
D03*
X57000Y428250D02*
D03*
D35*
X670000Y364250D02*
D03*
X645000Y364250D02*
D03*
X57000Y403750D02*
D03*
X595478Y422750D02*
D03*
X670000Y422750D02*
D03*
X176280Y396850D02*
D03*
X695000Y364250D02*
D03*
X57151Y367750D02*
D03*
X176280Y429250D02*
D03*
X57000Y468000D02*
D03*
X176280Y372750D02*
D03*
X176000Y484750D02*
D03*
X57000Y441750D02*
D03*
D36*
X620008Y593224D02*
D03*
Y611004D02*
D03*
D37*
X750000Y600000D02*
D03*
Y100000D02*
D03*
X50000Y600000D02*
D03*
D38*
X594217Y533280D02*
D03*
Y558680D02*
D03*
X129250Y364250D02*
D03*
D39*
X607716Y533280D02*
D03*
Y558680D02*
D03*
X142750Y364250D02*
D03*
D40*
X92000Y365000D02*
D03*
X108000D02*
D03*
D41*
X620000Y425250D02*
D03*
Y408750D02*
D03*
X644600Y425250D02*
D03*
Y408750D02*
D03*
D42*
X394600Y227000D02*
D03*
X420000D02*
D03*
Y252400D02*
D03*
X394600D02*
D03*
X369200D02*
D03*
Y227000D02*
D03*
X343800Y252400D02*
D03*
Y227000D02*
D03*
X318400Y252400D02*
D03*
X644600Y227000D02*
D03*
X670000D02*
D03*
Y252400D02*
D03*
X644600D02*
D03*
X619200D02*
D03*
Y227000D02*
D03*
X593800Y252400D02*
D03*
Y227000D02*
D03*
X568400Y252400D02*
D03*
X607400Y488500D02*
D03*
D43*
X318908Y226746D02*
D03*
X568908D02*
D03*
X582000Y488500D02*
D03*
D44*
X525520Y355480D02*
D03*
X500120D02*
D03*
X525520Y380880D02*
D03*
X500120D02*
D03*
X525520Y406280D02*
D03*
X500120D02*
D03*
X525520Y431680D02*
D03*
X500120D02*
D03*
X525520Y457080D02*
D03*
X500120D02*
D03*
X525520Y482480D02*
D03*
X500120D02*
D03*
X525520Y507880D02*
D03*
X500120D02*
D03*
X525520Y533280D02*
D03*
X500120D02*
D03*
X525520Y558680D02*
D03*
X500120D02*
D03*
X525520Y584080D02*
D03*
X500120D02*
D03*
X525520Y609480D02*
D03*
X500120D02*
D03*
X525520Y634880D02*
D03*
X500120D02*
D03*
Y660280D02*
D03*
X271220D02*
D03*
Y634880D02*
D03*
X296620D02*
D03*
X271220Y609480D02*
D03*
X296620D02*
D03*
X271220Y584080D02*
D03*
X296620D02*
D03*
X271220Y558680D02*
D03*
X296620D02*
D03*
X271220Y533280D02*
D03*
X296620D02*
D03*
X271220Y507880D02*
D03*
X296620D02*
D03*
X271220Y482480D02*
D03*
X296620D02*
D03*
X271220Y457080D02*
D03*
X296620D02*
D03*
X271220Y431680D02*
D03*
X296620D02*
D03*
X271220Y406280D02*
D03*
X296620D02*
D03*
X271220Y380880D02*
D03*
X296620D02*
D03*
X271220Y355480D02*
D03*
X296620D02*
D03*
D45*
X525520Y660280D02*
D03*
X296620D02*
D03*
M02*
