G04*
G04 #@! TF.GenerationSoftware,Altium Limited,Altium Designer,21.4.1 (30)*
G04*
G04 Layer_Physical_Order=2*
G04 Layer_Color=32768*
%FSLAX44Y44*%
%MOMM*%
G71*
G04*
G04 #@! TF.SameCoordinates,D9E7D647-E61C-487C-AA5F-480CAE51DE59*
G04*
G04*
G04 #@! TF.FilePolarity,Negative*
G04*
G01*
G75*
%ADD45C,1.0160*%
%ADD46O,1.3000X1.7000*%
%ADD47C,1.3000*%
%ADD48C,1.4000*%
G04:AMPARAMS|DCode=49|XSize=2.324mm|YSize=2.324mm|CornerRadius=0mm|HoleSize=0mm|Usage=FLASHONLY|Rotation=0.000|XOffset=0mm|YOffset=0mm|HoleType=Round|Shape=Relief|Width=0.254mm|Gap=0.254mm|Entries=4|*
%AMTHD49*
7,0,0,2.3240,1.8160,0.2540,45*
%
%ADD49THD49*%
%ADD50C,0.8000*%
D45*
X100Y10000D02*
G03*
X10100Y-0I10000J0D01*
G01*
Y350000D02*
G03*
X100Y340000I0J-10000D01*
G01*
X500100D02*
G03*
X490100Y350000I-10000J0D01*
G01*
Y-0D02*
G03*
X500100Y10000I0J10000D01*
G01*
X100D02*
X100D01*
Y340000D01*
X100D02*
X100D01*
X10100Y350000D02*
Y350000D01*
X490100D01*
Y350000D02*
Y350000D01*
X500100Y340000D02*
X500100D01*
Y10000D02*
Y340000D01*
X500100Y10000D02*
X500100D01*
X490100Y-0D02*
Y0D01*
X10100Y-0D02*
X490100Y0D01*
D46*
X286350Y20100D02*
D03*
X213850D02*
D03*
D47*
X225850Y46600D02*
D03*
X274350D02*
D03*
D48*
X437400Y308500D02*
D03*
X37400D02*
D03*
Y257700D02*
D03*
Y232300D02*
D03*
X62800D02*
D03*
Y257700D02*
D03*
Y283100D02*
D03*
X37400D02*
D03*
X62800Y308500D02*
D03*
Y206900D02*
D03*
X37400D02*
D03*
Y333900D02*
D03*
Y67210D02*
D03*
X62800D02*
D03*
Y92610D02*
D03*
Y118010D02*
D03*
X37400D02*
D03*
X62800Y143410D02*
D03*
X37400D02*
D03*
X62800Y41810D02*
D03*
X37400D02*
D03*
Y16410D02*
D03*
X62800D02*
D03*
X37400Y92610D02*
D03*
Y168810D02*
D03*
X437400D02*
D03*
X462800Y16410D02*
D03*
X437400D02*
D03*
Y143410D02*
D03*
X462800D02*
D03*
Y92610D02*
D03*
Y67210D02*
D03*
X437400D02*
D03*
Y92610D02*
D03*
X462800Y41810D02*
D03*
X437400D02*
D03*
X462800Y118010D02*
D03*
X437400D02*
D03*
Y333900D02*
D03*
Y206900D02*
D03*
X462800D02*
D03*
Y308500D02*
D03*
X437400Y283100D02*
D03*
X462800Y232300D02*
D03*
X437400D02*
D03*
X462800Y257700D02*
D03*
X437400D02*
D03*
X462800Y283100D02*
D03*
D49*
X62800Y333900D02*
D03*
Y168810D02*
D03*
X462800D02*
D03*
Y333900D02*
D03*
D50*
X207033Y35767D02*
D03*
X241400Y60400D02*
D03*
X252300D02*
D03*
X115100Y205000D02*
D03*
Y230000D02*
D03*
X364200Y204900D02*
D03*
X363100Y230000D02*
D03*
X116200Y29300D02*
D03*
X115700Y54800D02*
D03*
X317000Y13900D02*
D03*
X336100Y37000D02*
D03*
X308300Y172500D02*
D03*
X300814Y177500D02*
D03*
X247500Y223800D02*
D03*
X286600Y113600D02*
D03*
X246100Y294500D02*
D03*
X231300Y122100D02*
D03*
X245800Y232500D02*
D03*
X387600Y336300D02*
D03*
X291050Y251900D02*
D03*
X256000Y261000D02*
D03*
X312350Y143844D02*
D03*
X259100Y323000D02*
D03*
X277500Y251700D02*
D03*
X322800Y326100D02*
D03*
X414975Y109100D02*
D03*
X390699Y157600D02*
D03*
X351999Y84800D02*
D03*
X305800Y242600D02*
D03*
X198600Y162500D02*
D03*
X202100Y54000D02*
D03*
X182100Y16000D02*
D03*
X161100Y230000D02*
D03*
X343100Y122000D02*
D03*
X168100Y263000D02*
D03*
X352100Y260000D02*
D03*
X168100Y84000D02*
D03*
X149100Y230000D02*
D03*
X167100Y187000D02*
D03*
X372300Y37000D02*
D03*
X390500Y181300D02*
D03*
X140600Y71500D02*
D03*
M02*
