G04*
G04 #@! TF.GenerationSoftware,Altium Limited,Altium Designer,21.4.1 (30)*
G04*
G04 Layer_Color=128*
%FSLAX44Y44*%
%MOMM*%
G71*
G04*
G04 #@! TF.SameCoordinates,D9E7D647-E61C-487C-AA5F-480CAE51DE59*
G04*
G04*
G04 #@! TF.FilePolarity,Positive*
G04*
G01*
G75*
%ADD18R,0.9000X0.6000*%
%ADD36R,0.8000X0.8000*%
%ADD51R,0.8000X0.8000*%
%ADD52R,0.8000X0.9000*%
%ADD53R,0.6000X0.9000*%
%ADD55R,1.0000X0.3000*%
%ADD56R,0.3000X1.0000*%
%ADD57R,1.0500X0.6000*%
%ADD58R,1.0000X0.9700*%
%ADD59R,0.9000X1.0000*%
%ADD69R,5.1000X5.1000*%
D18*
X187100Y27000D02*
D03*
Y42000D02*
D03*
X257000Y279500D02*
D03*
Y294500D02*
D03*
X233000D02*
D03*
Y279500D02*
D03*
D36*
X161100Y27500D02*
D03*
Y42500D02*
D03*
X209100Y248600D02*
D03*
Y233600D02*
D03*
X257100Y233500D02*
D03*
Y248500D02*
D03*
X181100Y187500D02*
D03*
X233100Y233600D02*
D03*
X181100Y167500D02*
D03*
Y152500D02*
D03*
X233100Y248600D02*
D03*
X181100Y202500D02*
D03*
D51*
X345000Y337900D02*
D03*
X330000D02*
D03*
X344600Y174000D02*
D03*
X329600D02*
D03*
X277500Y113600D02*
D03*
X329600Y233000D02*
D03*
X344600D02*
D03*
X403600Y56000D02*
D03*
X328600Y56000D02*
D03*
X320600Y255000D02*
D03*
X305600D02*
D03*
X262500Y113600D02*
D03*
X388600Y56000D02*
D03*
X343600Y56000D02*
D03*
D52*
X237500Y69000D02*
D03*
X256500D02*
D03*
X247000Y49000D02*
D03*
D53*
X372600Y323100D02*
D03*
X387600D02*
D03*
X287600Y323000D02*
D03*
X302600D02*
D03*
X302600Y297000D02*
D03*
X287600D02*
D03*
X387800Y296700D02*
D03*
X372800D02*
D03*
X327800Y133900D02*
D03*
X342800D02*
D03*
X327600Y154000D02*
D03*
X342600D02*
D03*
X124600Y205000D02*
D03*
X139600D02*
D03*
X124600Y230000D02*
D03*
X139600D02*
D03*
X375500Y204900D02*
D03*
X390500D02*
D03*
X375600Y230000D02*
D03*
X390600D02*
D03*
X125600Y30000D02*
D03*
X140600D02*
D03*
X125600Y55000D02*
D03*
X140600D02*
D03*
X344600Y13000D02*
D03*
X359600D02*
D03*
X344600Y36000D02*
D03*
X359600D02*
D03*
D55*
X290100Y207500D02*
D03*
Y202500D02*
D03*
Y197500D02*
D03*
Y192500D02*
D03*
Y187500D02*
D03*
Y182500D02*
D03*
Y177500D02*
D03*
Y172500D02*
D03*
Y167500D02*
D03*
Y162500D02*
D03*
Y157500D02*
D03*
Y152500D02*
D03*
Y147500D02*
D03*
Y142500D02*
D03*
X210100D02*
D03*
Y147500D02*
D03*
Y152500D02*
D03*
Y157500D02*
D03*
Y162500D02*
D03*
Y167500D02*
D03*
Y172500D02*
D03*
Y177500D02*
D03*
Y182500D02*
D03*
Y187500D02*
D03*
Y192500D02*
D03*
Y197500D02*
D03*
Y202500D02*
D03*
Y207500D02*
D03*
D56*
X282600Y135000D02*
D03*
X277600D02*
D03*
X272600D02*
D03*
X267600D02*
D03*
X262600D02*
D03*
X257600D02*
D03*
X252600D02*
D03*
X247600D02*
D03*
X242600D02*
D03*
X237600D02*
D03*
X232600D02*
D03*
X227600D02*
D03*
X222600D02*
D03*
X217600D02*
D03*
Y215000D02*
D03*
X222600D02*
D03*
X227600D02*
D03*
X232600D02*
D03*
X237600D02*
D03*
X242600D02*
D03*
X247600D02*
D03*
X252600D02*
D03*
X257600D02*
D03*
X262600D02*
D03*
X267600D02*
D03*
X272600D02*
D03*
X277600D02*
D03*
X282600D02*
D03*
D57*
X351350Y315600D02*
D03*
X322850Y306100D02*
D03*
Y296600D02*
D03*
X351350D02*
D03*
Y306100D02*
D03*
X322850Y315600D02*
D03*
D58*
X404450Y109000D02*
D03*
X328750D02*
D03*
X404450Y82000D02*
D03*
X328750Y82000D02*
D03*
X389750Y82000D02*
D03*
Y109000D02*
D03*
X343450D02*
D03*
Y82000D02*
D03*
D59*
X329350Y194750D02*
D03*
Y213250D02*
D03*
X344850D02*
D03*
Y194750D02*
D03*
D69*
X250100Y175000D02*
D03*
M02*
