G04*
G04 #@! TF.GenerationSoftware,Altium Limited,Altium Designer,21.4.1 (30)*
G04*
G04 Layer_Color=16711935*
%FSLAX44Y44*%
%MOMM*%
G71*
G04*
G04 #@! TF.SameCoordinates,D9E7D647-E61C-487C-AA5F-480CAE51DE59*
G04*
G04*
G04 #@! TF.FilePolarity,Positive*
G04*
G01*
G75*
%ADD10C,0.1000*%
%ADD38C,0.1500*%
D10*
X227348Y184202D02*
X235348D01*
X227348D02*
Y200202D01*
X235348D01*
Y184202D02*
Y200202D01*
X273098Y184251D02*
Y200252D01*
X265098D02*
X273098D01*
X265098Y184251D02*
Y200252D01*
Y184251D02*
X273098D01*
X232000Y66000D02*
X262000D01*
X232000Y52000D02*
X262000D01*
X232000D02*
Y66000D01*
X262000Y52000D02*
Y66000D01*
X328100Y290600D02*
X346100D01*
X328100Y321600D02*
X346100D01*
X328100Y290600D02*
Y321600D01*
X346100Y290600D02*
Y321600D01*
X209100Y-8150D02*
Y48850D01*
X291100D01*
Y-8150D02*
Y48850D01*
X209100Y-8150D02*
X291100D01*
D38*
X24700Y346600D02*
X75500D01*
Y194200D02*
Y346600D01*
X24700Y194200D02*
X75500D01*
X24700D02*
Y346600D01*
Y181510D02*
X75500D01*
Y3710D02*
Y181510D01*
X24700Y3710D02*
X75500D01*
X24700D02*
Y181510D01*
X424700Y3710D02*
Y181510D01*
Y3710D02*
X475500D01*
Y181510D01*
X424700D02*
X475500D01*
X424700Y194200D02*
Y346600D01*
Y194200D02*
X475500D01*
Y346600D01*
X424700D02*
X475500D01*
M02*
