G04*
G04 #@! TF.GenerationSoftware,Altium Limited,Altium Designer,21.4.1 (30)*
G04*
G04 Layer_Physical_Order=1*
G04 Layer_Color=255*
%FSLAX44Y44*%
%MOMM*%
G71*
G04*
G04 #@! TF.SameCoordinates,D9E7D647-E61C-487C-AA5F-480CAE51DE59*
G04*
G04*
G04 #@! TF.FilePolarity,Positive*
G04*
G01*
G75*
%ADD18R,0.9000X0.6000*%
%ADD19R,3.4000X1.3500*%
%ADD20R,0.4000X1.3500*%
%ADD21R,2.4400X1.1300*%
%ADD22R,1.0000X4.0000*%
%ADD23R,1.6000X3.0000*%
%ADD36R,0.8000X0.8000*%
%ADD37C,1.0000*%
%ADD38C,0.1500*%
%ADD39C,0.6000*%
G04:AMPARAMS|DCode=40|XSize=1.2mm|YSize=1.6mm|CornerRadius=0.6mm|HoleSize=0mm|Usage=FLASHONLY|Rotation=180.000|XOffset=0mm|YOffset=0mm|HoleType=Round|Shape=RoundedRectangle|*
%AMROUNDEDRECTD40*
21,1,1.2000,0.4000,0,0,180.0*
21,1,0.0000,1.6000,0,0,180.0*
1,1,1.2000,0.0000,0.2000*
1,1,1.2000,0.0000,0.2000*
1,1,1.2000,0.0000,-0.2000*
1,1,1.2000,0.0000,-0.2000*
%
%ADD40ROUNDEDRECTD40*%
%ADD41C,1.2000*%
%ADD42C,1.5240*%
%ADD43R,1.5240X1.5240*%
%ADD44C,0.4500*%
G36*
X495000Y340000D02*
Y10000D01*
X490000Y5000D01*
Y5000D01*
X10000D01*
X5000Y10000D01*
Y340000D01*
X10000Y345000D01*
X59882D01*
X60148Y343798D01*
X57676Y342775D01*
X55554Y341146D01*
X53925Y339024D01*
X52901Y336552D01*
X52719Y335170D01*
X62800D01*
X72880D01*
X72698Y336552D01*
X71675Y339024D01*
X70046Y341146D01*
X67924Y342775D01*
X65452Y343798D01*
X65718Y345000D01*
X459882D01*
X460148Y343798D01*
X457676Y342775D01*
X455554Y341146D01*
X453925Y339024D01*
X452902Y336552D01*
X452720Y335170D01*
X462800D01*
X472881D01*
X472699Y336552D01*
X471675Y339024D01*
X470046Y341146D01*
X467924Y342775D01*
X465452Y343798D01*
X465718Y345000D01*
X490000D01*
X495000Y340000D01*
D02*
G37*
%LPC*%
G36*
X446270Y342770D02*
X428530D01*
Y325030D01*
X446270D01*
Y342770D01*
D02*
G37*
G36*
X46270D02*
X28530D01*
Y325030D01*
X46270D01*
Y342770D01*
D02*
G37*
G36*
X472881Y332630D02*
X464070D01*
Y323820D01*
X465452Y324002D01*
X467924Y325025D01*
X470046Y326654D01*
X471675Y328776D01*
X472699Y331248D01*
X472881Y332630D01*
D02*
G37*
G36*
X72880D02*
X64070D01*
Y323820D01*
X65452Y324002D01*
X67924Y325025D01*
X70046Y326654D01*
X71675Y328776D01*
X72698Y331248D01*
X72880Y332630D01*
D02*
G37*
G36*
X461530D02*
X452720D01*
X452902Y331248D01*
X453925Y328776D01*
X455554Y326654D01*
X457676Y325025D01*
X460148Y324002D01*
X461530Y323820D01*
Y332630D01*
D02*
G37*
G36*
X61530D02*
X52719D01*
X52901Y331248D01*
X53925Y328776D01*
X55554Y326654D01*
X57676Y325025D01*
X60148Y324002D01*
X61530Y323820D01*
Y332630D01*
D02*
G37*
G36*
X259100Y326569D02*
X257734Y326297D01*
X256577Y325523D01*
X255803Y324366D01*
X255531Y323000D01*
X255803Y321634D01*
X256577Y320477D01*
X257734Y319703D01*
X259100Y319431D01*
X260466Y319703D01*
X261623Y320477D01*
X262397Y321634D01*
X262669Y323000D01*
X262397Y324366D01*
X261623Y325523D01*
X260466Y326297D01*
X259100Y326569D01*
D02*
G37*
G36*
X462800Y317446D02*
X460485Y317142D01*
X458327Y316248D01*
X456474Y314826D01*
X455052Y312973D01*
X454158Y310816D01*
X453854Y308500D01*
X454158Y306185D01*
X455052Y304027D01*
X456474Y302174D01*
X458327Y300752D01*
X460485Y299858D01*
X462800Y299554D01*
X465116Y299858D01*
X467273Y300752D01*
X469126Y302174D01*
X470548Y304027D01*
X471442Y306185D01*
X471747Y308500D01*
X471442Y310816D01*
X470548Y312973D01*
X469126Y314826D01*
X467273Y316248D01*
X465116Y317142D01*
X462800Y317446D01*
D02*
G37*
G36*
X62800D02*
X60484Y317142D01*
X58327Y316248D01*
X56474Y314826D01*
X55052Y312973D01*
X54158Y310816D01*
X53853Y308500D01*
X54158Y306185D01*
X55052Y304027D01*
X56474Y302174D01*
X58327Y300752D01*
X60484Y299858D01*
X62800Y299554D01*
X65115Y299858D01*
X67273Y300752D01*
X69126Y302174D01*
X70548Y304027D01*
X71442Y306185D01*
X71746Y308500D01*
X71442Y310816D01*
X70548Y312973D01*
X69126Y314826D01*
X67273Y316248D01*
X65115Y317142D01*
X62800Y317446D01*
D02*
G37*
G36*
X37400D02*
X35084Y317142D01*
X32927Y316248D01*
X31074Y314826D01*
X29652Y312973D01*
X28758Y310816D01*
X28453Y308500D01*
X28758Y306185D01*
X29652Y304027D01*
X31074Y302174D01*
X32927Y300752D01*
X35084Y299858D01*
X37400Y299554D01*
X39715Y299858D01*
X41873Y300752D01*
X43726Y302174D01*
X45148Y304027D01*
X46042Y306185D01*
X46346Y308500D01*
X46042Y310816D01*
X45148Y312973D01*
X43726Y314826D01*
X41873Y316248D01*
X39715Y317142D01*
X37400Y317446D01*
D02*
G37*
G36*
X387600Y339869D02*
X386235Y339597D01*
X385077Y338824D01*
X384303Y337666D01*
X384032Y336300D01*
X384229Y335309D01*
X383490Y334039D01*
X257000D01*
X256220Y333884D01*
X255558Y333442D01*
X255558Y333442D01*
X220620Y298504D01*
X219350Y299030D01*
Y330375D01*
X200850D01*
Y297875D01*
X218195D01*
X218721Y296605D01*
X206558Y284442D01*
X206116Y283780D01*
X205961Y283000D01*
Y172745D01*
X199171Y165955D01*
X198600Y166069D01*
X197235Y165797D01*
X196077Y165024D01*
X195303Y163866D01*
X195032Y162500D01*
X195303Y161135D01*
X196077Y159977D01*
X197235Y159203D01*
X198600Y158932D01*
X199966Y159203D01*
X201124Y159977D01*
X201897Y161135D01*
X202169Y162500D01*
X202055Y163071D01*
X209442Y170458D01*
X209442Y170458D01*
X209884Y171120D01*
X210039Y171900D01*
X210039Y171900D01*
Y173037D01*
X211309Y173563D01*
X218467Y166405D01*
Y155375D01*
X200850D01*
Y122875D01*
X218467D01*
Y66600D01*
X218797Y64942D01*
X219736Y63536D01*
X228581Y54691D01*
X227861Y53614D01*
X227743Y53664D01*
X225850Y53913D01*
X223958Y53664D01*
X222194Y52933D01*
X220679Y51771D01*
X219517Y50256D01*
X218787Y48493D01*
X218538Y46600D01*
X218787Y44707D01*
X219517Y42944D01*
X220679Y41429D01*
X222194Y40267D01*
X223958Y39537D01*
X225850Y39288D01*
X227743Y39537D01*
X229506Y40267D01*
X231021Y41429D01*
X232183Y42944D01*
X232580Y43902D01*
X233850Y43649D01*
Y37850D01*
X240350Y37850D01*
X241620Y37850D01*
X258560D01*
Y36560D01*
X261830D01*
Y45850D01*
X264370D01*
Y36560D01*
X267640D01*
Y41349D01*
X268910Y41780D01*
X269179Y41429D01*
X270694Y40267D01*
X272457Y39537D01*
X274350Y39288D01*
X276243Y39537D01*
X278006Y40267D01*
X279521Y41429D01*
X280683Y42944D01*
X281413Y44707D01*
X281663Y46600D01*
X281413Y48493D01*
X280683Y50256D01*
X279654Y51597D01*
X279969Y52867D01*
X289600D01*
X291258Y53197D01*
X292664Y54136D01*
X293603Y55542D01*
X293933Y57200D01*
X293603Y58858D01*
X292664Y60264D01*
X291258Y61203D01*
X289600Y61533D01*
X266615D01*
X264957Y61203D01*
X263551Y60264D01*
X262612Y58858D01*
X262282Y57200D01*
X262522Y55991D01*
X261671Y55140D01*
X258560D01*
Y53850D01*
X252139D01*
Y56700D01*
X252300Y56831D01*
X253666Y57103D01*
X254823Y57877D01*
X255597Y59034D01*
X255869Y60400D01*
X255755Y60971D01*
X258942Y64158D01*
X258942Y64158D01*
X259384Y64820D01*
X259539Y65600D01*
Y69650D01*
X263250D01*
Y78150D01*
X251750D01*
Y69650D01*
X255461D01*
Y66445D01*
X252871Y63855D01*
X252300Y63969D01*
X250934Y63697D01*
X249777Y62923D01*
X249003Y61766D01*
X248731Y60400D01*
X248875Y59680D01*
X248658Y59463D01*
X248216Y58802D01*
X248061Y58021D01*
Y53850D01*
X245639D01*
Y58021D01*
X245484Y58802D01*
X245042Y59463D01*
X244825Y59680D01*
X244969Y60400D01*
X244697Y61766D01*
X243923Y62923D01*
X242766Y63697D01*
X241400Y63969D01*
X240829Y63855D01*
X238039Y66645D01*
Y69550D01*
X241750D01*
Y78050D01*
X230250D01*
Y69550D01*
X233961D01*
Y65800D01*
X234116Y65020D01*
X234558Y64358D01*
X237945Y60971D01*
X237831Y60400D01*
X238103Y59034D01*
X238877Y57877D01*
X240034Y57103D01*
X241400Y56831D01*
X241561Y56699D01*
Y53992D01*
X240350Y53850D01*
X239139Y53992D01*
Y54000D01*
X238984Y54780D01*
X238542Y55442D01*
X236771Y57213D01*
X236503Y58558D01*
X235564Y59964D01*
X227133Y68395D01*
Y119750D01*
X228403Y120135D01*
X228777Y119577D01*
X229934Y118803D01*
X231300Y118531D01*
X232666Y118803D01*
X233823Y119577D01*
X234597Y120734D01*
X234869Y122100D01*
X234597Y123466D01*
X233823Y124623D01*
X233339Y124947D01*
Y178700D01*
X236600D01*
Y189200D01*
X226100D01*
Y178700D01*
X229261D01*
Y124947D01*
X228777Y124623D01*
X228403Y124065D01*
X227133Y124450D01*
Y168200D01*
X226803Y169858D01*
X225864Y171264D01*
X218133Y178995D01*
Y278005D01*
X230295Y290167D01*
X246100D01*
X247758Y290497D01*
X249164Y291436D01*
X250103Y292842D01*
X250433Y294500D01*
X250103Y296158D01*
X249164Y297564D01*
X247758Y298503D01*
X246100Y298833D01*
X228513D01*
X228485Y298862D01*
X227891Y300007D01*
X257845Y329961D01*
X280850D01*
Y297750D01*
X299350D01*
Y329961D01*
X319992D01*
X320378Y328691D01*
X320277Y328623D01*
X319503Y327466D01*
X319231Y326100D01*
X319503Y324734D01*
X320277Y323577D01*
X321434Y322803D01*
X322800Y322531D01*
X324166Y322803D01*
X325323Y323577D01*
X326097Y324734D01*
X326369Y326100D01*
X326097Y327466D01*
X325323Y328623D01*
X325222Y328691D01*
X325608Y329961D01*
X384850D01*
Y297750D01*
X403350D01*
Y329961D01*
X406155D01*
X416958Y319158D01*
X417620Y318716D01*
X418400Y318561D01*
X418400Y318561D01*
X436134D01*
X436217Y317291D01*
X435085Y317142D01*
X432927Y316248D01*
X431074Y314826D01*
X429652Y312973D01*
X428758Y310816D01*
X428454Y308500D01*
X428758Y306185D01*
X429652Y304027D01*
X431074Y302174D01*
X432927Y300752D01*
X435085Y299858D01*
X437400Y299554D01*
X439716Y299858D01*
X441873Y300752D01*
X443726Y302174D01*
X445148Y304027D01*
X446042Y306185D01*
X446347Y308500D01*
X446042Y310816D01*
X445148Y312973D01*
X443726Y314826D01*
X441873Y316248D01*
X439716Y317142D01*
X438583Y317291D01*
X438666Y318561D01*
X442555D01*
X448061Y313055D01*
Y270400D01*
X448216Y269620D01*
X448658Y268958D01*
X455222Y262394D01*
X455052Y262173D01*
X454158Y260016D01*
X453854Y257700D01*
X454158Y255385D01*
X455052Y253227D01*
X456474Y251374D01*
X458327Y249952D01*
X460485Y249058D01*
X462800Y248754D01*
X465116Y249058D01*
X467273Y249952D01*
X469126Y251374D01*
X470548Y253227D01*
X471442Y255385D01*
X471747Y257700D01*
X471442Y260016D01*
X470548Y262173D01*
X469126Y264026D01*
X467273Y265448D01*
X465116Y266342D01*
X462800Y266646D01*
X460485Y266342D01*
X458327Y265448D01*
X458106Y265278D01*
X452139Y271245D01*
Y313900D01*
X452139Y313900D01*
X451984Y314680D01*
X451542Y315342D01*
X444842Y322042D01*
X444180Y322484D01*
X443400Y322639D01*
X419245D01*
X408442Y333442D01*
X407780Y333884D01*
X407000Y334039D01*
X391710D01*
X390972Y335309D01*
X391169Y336300D01*
X390897Y337666D01*
X390123Y338824D01*
X388966Y339597D01*
X387600Y339869D01*
D02*
G37*
G36*
X115350Y330375D02*
X96850D01*
Y297875D01*
X115350D01*
Y330375D01*
D02*
G37*
G36*
X195640Y312415D02*
X189370D01*
Y291145D01*
X195640D01*
Y312415D01*
D02*
G37*
G36*
X186830D02*
X180560D01*
Y291145D01*
X186830D01*
Y312415D01*
D02*
G37*
G36*
X372000Y317533D02*
X370342Y317203D01*
X368936Y316264D01*
X367997Y314858D01*
X367667Y313200D01*
Y312290D01*
X364560D01*
Y291020D01*
X372100D01*
X379640D01*
Y312290D01*
X376333D01*
Y313200D01*
X376003Y314858D01*
X375064Y316264D01*
X373658Y317203D01*
X372000Y317533D01*
D02*
G37*
G36*
X462800Y292047D02*
X460485Y291742D01*
X458327Y290848D01*
X456474Y289426D01*
X455052Y287573D01*
X454158Y285415D01*
X453854Y283100D01*
X454158Y280784D01*
X455052Y278627D01*
X456474Y276774D01*
X458327Y275352D01*
X460485Y274458D01*
X462800Y274153D01*
X465116Y274458D01*
X467273Y275352D01*
X469126Y276774D01*
X470548Y278627D01*
X471442Y280784D01*
X471747Y283100D01*
X471442Y285415D01*
X470548Y287573D01*
X469126Y289426D01*
X467273Y290848D01*
X465116Y291742D01*
X462800Y292047D01*
D02*
G37*
G36*
X437400D02*
X435085Y291742D01*
X432927Y290848D01*
X431074Y289426D01*
X429652Y287573D01*
X428758Y285415D01*
X428454Y283100D01*
X428758Y280784D01*
X429652Y278627D01*
X431074Y276774D01*
X432927Y275352D01*
X435085Y274458D01*
X437400Y274153D01*
X439716Y274458D01*
X441873Y275352D01*
X443726Y276774D01*
X445148Y278627D01*
X446042Y280784D01*
X446347Y283100D01*
X446042Y285415D01*
X445148Y287573D01*
X443726Y289426D01*
X441873Y290848D01*
X439716Y291742D01*
X437400Y292047D01*
D02*
G37*
G36*
X62800D02*
X60484Y291742D01*
X58327Y290848D01*
X56474Y289426D01*
X55052Y287573D01*
X54158Y285415D01*
X53853Y283100D01*
X54158Y280784D01*
X55052Y278627D01*
X56474Y276774D01*
X58327Y275352D01*
X60484Y274458D01*
X62800Y274153D01*
X65115Y274458D01*
X67273Y275352D01*
X69126Y276774D01*
X70548Y278627D01*
X71442Y280784D01*
X71746Y283100D01*
X71442Y285415D01*
X70548Y287573D01*
X69126Y289426D01*
X67273Y290848D01*
X65115Y291742D01*
X62800Y292047D01*
D02*
G37*
G36*
X37400D02*
X35084Y291742D01*
X32927Y290848D01*
X31074Y289426D01*
X29652Y287573D01*
X28758Y285415D01*
X28453Y283100D01*
X28758Y280784D01*
X29652Y278627D01*
X31074Y276774D01*
X32927Y275352D01*
X35084Y274458D01*
X37400Y274153D01*
X39715Y274458D01*
X41873Y275352D01*
X43726Y276774D01*
X45148Y278627D01*
X46042Y280784D01*
X46346Y283100D01*
X46042Y285415D01*
X45148Y287573D01*
X43726Y289426D01*
X41873Y290848D01*
X39715Y291742D01*
X37400Y292047D01*
D02*
G37*
G36*
X379640Y288480D02*
X373370D01*
Y267210D01*
X379640D01*
Y288480D01*
D02*
G37*
G36*
X370830D02*
X364560D01*
Y267210D01*
X370830D01*
Y288480D01*
D02*
G37*
G36*
X400000Y280086D02*
X397389Y279743D01*
X394957Y278735D01*
X392868Y277132D01*
X391265Y275043D01*
X390257Y272610D01*
X389914Y270000D01*
X390257Y267390D01*
X391265Y264957D01*
X392868Y262868D01*
X394957Y261265D01*
X397389Y260257D01*
X400000Y259914D01*
X402611Y260257D01*
X405043Y261265D01*
X407132Y262868D01*
X408735Y264957D01*
X409743Y267390D01*
X410086Y270000D01*
X409743Y272610D01*
X408735Y275043D01*
X407132Y277132D01*
X405043Y278735D01*
X402611Y279743D01*
X400000Y280086D01*
D02*
G37*
G36*
X195640Y288605D02*
X188100D01*
X180560D01*
Y267335D01*
X183767D01*
Y263001D01*
X183767Y263000D01*
X184097Y261342D01*
X185036Y259936D01*
X186442Y258997D01*
X188100Y258667D01*
X189758Y258997D01*
X191164Y259936D01*
X191164Y259936D01*
X192104Y261342D01*
X192433Y263000D01*
Y267335D01*
X195640D01*
Y288605D01*
D02*
G37*
G36*
X174350Y311125D02*
X161850D01*
Y268625D01*
X163767D01*
Y263001D01*
X163767Y263000D01*
X164097Y261342D01*
X165036Y259936D01*
X166442Y258997D01*
X168100Y258667D01*
X169758Y258997D01*
X171164Y259936D01*
X171164Y259936D01*
X172104Y261342D01*
X172433Y263000D01*
Y268625D01*
X174350D01*
Y311125D01*
D02*
G37*
G36*
X358350Y311000D02*
X345850D01*
Y268500D01*
X347766D01*
Y260000D01*
X348096Y258342D01*
X349036Y256936D01*
X349036Y256936D01*
X350442Y255997D01*
X352100Y255667D01*
X353758Y255997D01*
X355164Y256936D01*
X356103Y258342D01*
X356433Y260000D01*
X356433Y260001D01*
Y268500D01*
X358350D01*
Y311000D01*
D02*
G37*
G36*
X62800Y266646D02*
X60484Y266342D01*
X58327Y265448D01*
X56474Y264026D01*
X55052Y262173D01*
X54158Y260016D01*
X53853Y257700D01*
X54158Y255385D01*
X55052Y253227D01*
X56474Y251374D01*
X58327Y249952D01*
X60484Y249058D01*
X62800Y248754D01*
X65115Y249058D01*
X67273Y249952D01*
X69126Y251374D01*
X70548Y253227D01*
X71442Y255385D01*
X71746Y257700D01*
X71442Y260016D01*
X70548Y262173D01*
X69126Y264026D01*
X67273Y265448D01*
X65115Y266342D01*
X62800Y266646D01*
D02*
G37*
G36*
X37400D02*
X35084Y266342D01*
X32927Y265448D01*
X31074Y264026D01*
X29652Y262173D01*
X28758Y260016D01*
X28453Y257700D01*
X28758Y255385D01*
X29652Y253227D01*
X31074Y251374D01*
X32927Y249952D01*
X35084Y249058D01*
X37400Y248754D01*
X39715Y249058D01*
X41873Y249952D01*
X43726Y251374D01*
X45148Y253227D01*
X46042Y255385D01*
X46346Y257700D01*
X46042Y260016D01*
X45148Y262173D01*
X43726Y264026D01*
X41873Y265448D01*
X39715Y266342D01*
X37400Y266646D01*
D02*
G37*
G36*
X298000Y265333D02*
X256000D01*
X254342Y265003D01*
X252936Y264064D01*
X251997Y262658D01*
X251667Y261000D01*
X251997Y259342D01*
X252936Y257936D01*
X254342Y256997D01*
X256000Y256667D01*
X290564D01*
X290689Y255397D01*
X290214Y255302D01*
X289684Y255197D01*
X288527Y254423D01*
X288203Y253939D01*
X280213D01*
X280023Y254223D01*
X278866Y254997D01*
X277500Y255269D01*
X276134Y254997D01*
X274977Y254223D01*
X274203Y253066D01*
X273931Y251700D01*
X274203Y250334D01*
X274977Y249177D01*
X276134Y248403D01*
X277500Y248131D01*
X278866Y248403D01*
X280023Y249177D01*
X280480Y249861D01*
X288203D01*
X288527Y249377D01*
X289684Y248603D01*
X291050Y248331D01*
X292416Y248603D01*
X293573Y249377D01*
X294347Y250534D01*
X294619Y251900D01*
X294347Y253266D01*
X293573Y254423D01*
X292416Y255197D01*
X291411Y255397D01*
X291536Y256667D01*
X296205D01*
X301667Y251205D01*
Y243605D01*
X301467Y242600D01*
X301797Y240942D01*
X302736Y239536D01*
X304142Y238597D01*
X305800Y238267D01*
X307458Y238597D01*
X308864Y239536D01*
X309064Y239736D01*
X310003Y241142D01*
X310333Y242800D01*
Y253000D01*
X310003Y254658D01*
X309064Y256064D01*
X301064Y264064D01*
X299658Y265003D01*
X298000Y265333D01*
D02*
G37*
G36*
X149100Y233569D02*
X147734Y233297D01*
X146577Y232523D01*
X145803Y231366D01*
X145531Y230000D01*
X145803Y228634D01*
X146577Y227477D01*
X147734Y226703D01*
X149100Y226431D01*
X150466Y226703D01*
X151623Y227477D01*
X152397Y228634D01*
X152669Y230000D01*
X152397Y231366D01*
X151623Y232523D01*
X150466Y233297D01*
X149100Y233569D01*
D02*
G37*
G36*
X110550Y237300D02*
X83650D01*
Y223500D01*
X110550D01*
Y227961D01*
X112253D01*
X112577Y227477D01*
X113734Y226703D01*
X115100Y226431D01*
X116466Y226703D01*
X117623Y227477D01*
X118397Y228634D01*
X118669Y230000D01*
X118397Y231366D01*
X117623Y232523D01*
X116466Y233297D01*
X115100Y233569D01*
X113734Y233297D01*
X112577Y232523D01*
X112253Y232039D01*
X110550D01*
Y237300D01*
D02*
G37*
G36*
X154350Y311125D02*
X141850D01*
Y268625D01*
X146061D01*
Y243000D01*
X146216Y242219D01*
X146658Y241558D01*
X151658Y236558D01*
X151658Y236558D01*
X151658Y236558D01*
X157645Y230571D01*
X157531Y230000D01*
X157803Y228634D01*
X158577Y227477D01*
X159734Y226703D01*
X161100Y226431D01*
X162466Y226703D01*
X163623Y227477D01*
X163947Y227961D01*
X169650D01*
Y223500D01*
X196550D01*
Y237300D01*
X169650D01*
Y232039D01*
X163947D01*
X163623Y232523D01*
X162466Y233297D01*
X161100Y233569D01*
X160529Y233455D01*
X154542Y239442D01*
X154542Y239442D01*
X150139Y243845D01*
Y268625D01*
X154350D01*
Y311125D01*
D02*
G37*
G36*
X462800Y241246D02*
X460485Y240942D01*
X458327Y240048D01*
X456474Y238626D01*
X455052Y236773D01*
X454158Y234615D01*
X453854Y232300D01*
X454158Y229984D01*
X455052Y227827D01*
X456474Y225974D01*
X458327Y224552D01*
X460485Y223658D01*
X462800Y223354D01*
X465116Y223658D01*
X467273Y224552D01*
X469126Y225974D01*
X470548Y227827D01*
X471442Y229984D01*
X471747Y232300D01*
X471442Y234615D01*
X470548Y236773D01*
X469126Y238626D01*
X467273Y240048D01*
X465116Y240942D01*
X462800Y241246D01*
D02*
G37*
G36*
X62800D02*
X60484Y240942D01*
X58327Y240048D01*
X56474Y238626D01*
X55052Y236773D01*
X54158Y234615D01*
X53853Y232300D01*
X54158Y229984D01*
X55052Y227827D01*
X56474Y225974D01*
X58327Y224552D01*
X60484Y223658D01*
X62800Y223354D01*
X65115Y223658D01*
X67273Y224552D01*
X69126Y225974D01*
X70548Y227827D01*
X71442Y229984D01*
X71746Y232300D01*
X71442Y234615D01*
X70548Y236773D01*
X69126Y238626D01*
X67273Y240048D01*
X65115Y240942D01*
X62800Y241246D01*
D02*
G37*
G36*
X37400D02*
X35084Y240942D01*
X32927Y240048D01*
X31074Y238626D01*
X29652Y236773D01*
X28758Y234615D01*
X28453Y232300D01*
X28758Y229984D01*
X29652Y227827D01*
X31074Y225974D01*
X32927Y224552D01*
X35084Y223658D01*
X37400Y223354D01*
X39715Y223658D01*
X41873Y224552D01*
X43726Y225974D01*
X45148Y227827D01*
X46042Y229984D01*
X46346Y232300D01*
X46042Y234615D01*
X45148Y236773D01*
X43726Y238626D01*
X41873Y240048D01*
X39715Y240942D01*
X37400Y241246D01*
D02*
G37*
G36*
X110550Y211900D02*
X83650D01*
Y198100D01*
X110550D01*
Y202961D01*
X112253D01*
X112577Y202477D01*
X113734Y201703D01*
X115100Y201431D01*
X116466Y201703D01*
X117623Y202477D01*
X118397Y203634D01*
X118669Y205000D01*
X118397Y206366D01*
X117623Y207523D01*
X116466Y208297D01*
X115100Y208569D01*
X113734Y208297D01*
X112577Y207523D01*
X112253Y207039D01*
X110550D01*
Y211900D01*
D02*
G37*
G36*
X330550Y211300D02*
X303650D01*
Y197500D01*
X330550D01*
Y202861D01*
X361353D01*
X361677Y202377D01*
X362834Y201603D01*
X364200Y201331D01*
X365566Y201603D01*
X366723Y202377D01*
X367497Y203534D01*
X367769Y204900D01*
X367497Y206266D01*
X366723Y207423D01*
X365566Y208197D01*
X364200Y208469D01*
X362834Y208197D01*
X361677Y207423D01*
X361353Y206939D01*
X330550D01*
Y211300D01*
D02*
G37*
G36*
X134350Y311125D02*
X121850D01*
Y268625D01*
X126061D01*
Y235000D01*
X126216Y234219D01*
X126658Y233558D01*
X155216Y205000D01*
X131255Y181039D01*
X107100D01*
X106320Y180884D01*
X105658Y180442D01*
X105658Y180442D01*
X88658Y163442D01*
X88216Y162780D01*
X88061Y162000D01*
Y125845D01*
X69255Y107039D01*
X49790D01*
X49790Y107039D01*
X49009Y106884D01*
X48348Y106442D01*
X42094Y100188D01*
X41873Y100358D01*
X39715Y101252D01*
X37400Y101557D01*
X35084Y101252D01*
X32927Y100358D01*
X31074Y98936D01*
X29652Y97083D01*
X28758Y94926D01*
X28453Y92610D01*
X28758Y90295D01*
X29652Y88137D01*
X31074Y86284D01*
X32927Y84862D01*
X35084Y83968D01*
X37400Y83664D01*
X39715Y83968D01*
X41873Y84862D01*
X43726Y86284D01*
X45148Y88137D01*
X46042Y90295D01*
X46346Y92610D01*
X46042Y94926D01*
X45148Y97083D01*
X44978Y97305D01*
X50634Y102961D01*
X70100D01*
X70880Y103116D01*
X71542Y103558D01*
X91542Y123558D01*
X91542Y123558D01*
X91984Y124220D01*
X92139Y125000D01*
X92139Y125000D01*
Y161155D01*
X107945Y176961D01*
X132100D01*
X132880Y177116D01*
X133542Y177558D01*
X158945Y202961D01*
X169650D01*
Y198100D01*
X196550D01*
Y211900D01*
X169650D01*
Y207039D01*
X158945D01*
X130139Y235844D01*
Y268625D01*
X134350D01*
Y311125D01*
D02*
G37*
G36*
X462800Y215847D02*
X460485Y215542D01*
X458327Y214648D01*
X456474Y213226D01*
X455052Y211373D01*
X454158Y209216D01*
X453854Y206900D01*
X454158Y204585D01*
X455052Y202427D01*
X456474Y200574D01*
X458327Y199152D01*
X460485Y198258D01*
X462800Y197953D01*
X465116Y198258D01*
X467273Y199152D01*
X469126Y200574D01*
X470548Y202427D01*
X471442Y204585D01*
X471747Y206900D01*
X471442Y209216D01*
X470548Y211373D01*
X469126Y213226D01*
X467273Y214648D01*
X465116Y215542D01*
X462800Y215847D01*
D02*
G37*
G36*
X62800D02*
X60484Y215542D01*
X58327Y214648D01*
X56474Y213226D01*
X55052Y211373D01*
X54158Y209216D01*
X53853Y206900D01*
X54158Y204585D01*
X55052Y202427D01*
X56474Y200574D01*
X58327Y199152D01*
X60484Y198258D01*
X62800Y197953D01*
X65115Y198258D01*
X67273Y199152D01*
X69126Y200574D01*
X70548Y202427D01*
X71442Y204585D01*
X71746Y206900D01*
X71442Y209216D01*
X70548Y211373D01*
X69126Y213226D01*
X67273Y214648D01*
X65115Y215542D01*
X62800Y215847D01*
D02*
G37*
G36*
X37400D02*
X35084Y215542D01*
X32927Y214648D01*
X31074Y213226D01*
X29652Y211373D01*
X28758Y209216D01*
X28453Y206900D01*
X28758Y204585D01*
X29652Y202427D01*
X31074Y200574D01*
X32927Y199152D01*
X35084Y198258D01*
X37400Y197953D01*
X39715Y198258D01*
X41873Y199152D01*
X43726Y200574D01*
X45148Y202427D01*
X46042Y204585D01*
X46346Y206900D01*
X46042Y209216D01*
X45148Y211373D01*
X43726Y213226D01*
X41873Y214648D01*
X39715Y215542D01*
X37400Y215847D01*
D02*
G37*
G36*
X338350Y311000D02*
X325850D01*
Y268500D01*
X330061D01*
Y250000D01*
X330216Y249220D01*
X330658Y248558D01*
X334758Y244458D01*
X335420Y244016D01*
X336200Y243861D01*
X379155D01*
X389650Y233366D01*
Y222900D01*
X413316D01*
X422061Y214155D01*
Y196719D01*
X420791Y196193D01*
X416550Y200434D01*
Y211300D01*
X392584D01*
X364442Y239442D01*
X363780Y239884D01*
X363000Y240039D01*
X335945D01*
X314139Y261845D01*
Y268500D01*
X318350D01*
Y311000D01*
X305850D01*
Y268500D01*
X310061D01*
Y261000D01*
X310216Y260220D01*
X310658Y259558D01*
X333658Y236558D01*
X334320Y236116D01*
X335100Y235961D01*
X362155D01*
X363310Y234806D01*
X363231Y234342D01*
X362810Y233510D01*
X361735Y233297D01*
X360577Y232523D01*
X360253Y232039D01*
X330550D01*
Y236700D01*
X303650D01*
Y222900D01*
X330550D01*
Y227961D01*
X360253D01*
X360577Y227476D01*
X361735Y226703D01*
X363100Y226431D01*
X364466Y226703D01*
X365624Y227476D01*
X366397Y228634D01*
X366611Y229709D01*
X367443Y230131D01*
X367907Y230209D01*
X389650Y208466D01*
Y197500D01*
X413695D01*
X413759Y197458D01*
X418161Y193055D01*
Y112708D01*
X416891Y112029D01*
X416341Y112397D01*
X414975Y112669D01*
X413609Y112397D01*
X412452Y111623D01*
X411678Y110466D01*
X411406Y109100D01*
X411678Y107734D01*
X412452Y106577D01*
X413609Y105803D01*
X414975Y105531D01*
X416341Y105803D01*
X416891Y106171D01*
X418161Y105492D01*
Y59010D01*
X418316Y58230D01*
X418758Y57568D01*
X429822Y46505D01*
X429652Y46283D01*
X428758Y44126D01*
X428454Y41810D01*
X428527Y41253D01*
X427324Y40660D01*
X416550Y51434D01*
Y62000D01*
X389650D01*
Y57139D01*
X365845D01*
X334139Y88845D01*
Y93500D01*
X338350D01*
Y121430D01*
X339620Y121556D01*
X339683Y121238D01*
X339803Y120634D01*
X340577Y119477D01*
X341734Y118703D01*
X343100Y118431D01*
X344466Y118703D01*
X344580Y118779D01*
X345850Y118101D01*
Y93500D01*
X347766D01*
Y85405D01*
X347666Y84899D01*
Y84800D01*
X347996Y83142D01*
X348935Y81736D01*
X350341Y80796D01*
X351999Y80467D01*
X353658Y80796D01*
X355063Y81736D01*
X356003Y83142D01*
X356017Y83212D01*
X356103Y83342D01*
X356433Y85000D01*
X356433Y85001D01*
Y93500D01*
X358350D01*
Y136000D01*
X345850D01*
Y125899D01*
X344580Y125221D01*
X344466Y125297D01*
X343100Y125569D01*
X341734Y125297D01*
X340577Y124523D01*
X339803Y123366D01*
X339683Y122762D01*
X339620Y122445D01*
X338350Y122570D01*
Y136000D01*
X325850D01*
Y93500D01*
X330061D01*
Y88000D01*
X330216Y87220D01*
X330658Y86558D01*
X363558Y53658D01*
X364220Y53216D01*
X365000Y53061D01*
X389650D01*
Y48200D01*
X407331D01*
X407345Y48191D01*
X408125Y48036D01*
X408125Y48036D01*
X414180D01*
X431658Y30558D01*
X431658Y30558D01*
X431731Y30509D01*
X431346Y29239D01*
X429714D01*
X427812Y31142D01*
X427150Y31584D01*
X426370Y31739D01*
X416550D01*
Y36600D01*
X389650D01*
Y32039D01*
X368945D01*
X314139Y86845D01*
Y93500D01*
X318350D01*
Y136000D01*
X305850D01*
Y93500D01*
X310061D01*
Y86000D01*
X310216Y85220D01*
X310658Y84558D01*
X366658Y28558D01*
X366658Y28558D01*
X367320Y28116D01*
X368100Y27961D01*
X368100Y27961D01*
X389650D01*
Y22800D01*
X416550D01*
Y27661D01*
X425525D01*
X427428Y25758D01*
X428089Y25316D01*
X428870Y25161D01*
X432147D01*
X432579Y23891D01*
X431074Y22736D01*
X429652Y20883D01*
X428758Y18726D01*
X428454Y16410D01*
X428758Y14095D01*
X429652Y11937D01*
X431074Y10084D01*
X432927Y8662D01*
X435085Y7768D01*
X437400Y7464D01*
X439716Y7768D01*
X441873Y8662D01*
X443726Y10084D01*
X445148Y11937D01*
X446042Y14095D01*
X446347Y16410D01*
X446042Y18726D01*
X445148Y20883D01*
X443726Y22736D01*
X442222Y23891D01*
X442653Y25161D01*
X457547D01*
X457979Y23891D01*
X456474Y22736D01*
X455052Y20883D01*
X454158Y18726D01*
X453854Y16410D01*
X454158Y14095D01*
X455052Y11937D01*
X456474Y10084D01*
X458327Y8662D01*
X460485Y7768D01*
X462800Y7464D01*
X465116Y7768D01*
X467273Y8662D01*
X469126Y10084D01*
X470548Y11937D01*
X471442Y14095D01*
X471747Y16410D01*
X471442Y18726D01*
X470548Y20883D01*
X469126Y22736D01*
X467273Y24158D01*
X466261Y24577D01*
X466091Y24963D01*
X466031Y26047D01*
X479542Y39558D01*
X479984Y40220D01*
X480139Y41000D01*
Y237000D01*
X479984Y237780D01*
X479542Y238442D01*
X479542Y238442D01*
X471542Y246442D01*
X470880Y246884D01*
X470100Y247039D01*
X450945D01*
X444978Y253006D01*
X445148Y253227D01*
X446042Y255385D01*
X446347Y257700D01*
X446042Y260016D01*
X445148Y262173D01*
X443726Y264026D01*
X441873Y265448D01*
X439716Y266342D01*
X437400Y266646D01*
X435085Y266342D01*
X432927Y265448D01*
X431074Y264026D01*
X429652Y262173D01*
X428758Y260016D01*
X428454Y257700D01*
X428758Y255385D01*
X429652Y253227D01*
X431074Y251374D01*
X432927Y249952D01*
X435085Y249058D01*
X437400Y248754D01*
X439716Y249058D01*
X441873Y249952D01*
X442094Y250122D01*
X448658Y243558D01*
X448658Y243558D01*
X449320Y243116D01*
X450100Y242961D01*
X450100Y242961D01*
X469255D01*
X476061Y236155D01*
Y41845D01*
X472184Y37968D01*
X471107Y38687D01*
X471442Y39495D01*
X471747Y41810D01*
X471442Y44126D01*
X470548Y46283D01*
X469126Y48136D01*
X467273Y49558D01*
X465116Y50452D01*
X462800Y50757D01*
X460485Y50452D01*
X458327Y49558D01*
X456474Y48136D01*
X455052Y46283D01*
X454158Y44126D01*
X453854Y41810D01*
X454158Y39495D01*
X455052Y37337D01*
X456474Y35484D01*
X458327Y34062D01*
X460485Y33168D01*
X462800Y32864D01*
X465116Y33168D01*
X465923Y33503D01*
X466642Y32426D01*
X463455Y29239D01*
X446854D01*
X446469Y30509D01*
X446542Y30558D01*
X450542Y34558D01*
X450542Y34558D01*
X450984Y35220D01*
X451139Y36000D01*
Y220600D01*
X450984Y221381D01*
X450542Y222042D01*
X444978Y227606D01*
X445148Y227827D01*
X446042Y229984D01*
X446347Y232300D01*
X446042Y234615D01*
X445148Y236773D01*
X443726Y238626D01*
X441873Y240048D01*
X439716Y240942D01*
X437400Y241246D01*
X435085Y240942D01*
X432927Y240048D01*
X431074Y238626D01*
X429652Y236773D01*
X428758Y234615D01*
X428454Y232300D01*
X428758Y229984D01*
X429652Y227827D01*
X431074Y225974D01*
X432927Y224552D01*
X435085Y223658D01*
X437400Y223354D01*
X439716Y223658D01*
X441873Y224552D01*
X442094Y224722D01*
X447061Y219755D01*
Y210074D01*
X445791Y209821D01*
X445148Y211373D01*
X443726Y213226D01*
X441873Y214648D01*
X439716Y215542D01*
X437400Y215847D01*
X435085Y215542D01*
X432927Y214648D01*
X431074Y213226D01*
X429652Y211373D01*
X428758Y209216D01*
X428454Y206900D01*
X428758Y204585D01*
X429652Y202427D01*
X431074Y200574D01*
X432927Y199152D01*
X435085Y198258D01*
X437400Y197953D01*
X439716Y198258D01*
X441873Y199152D01*
X443726Y200574D01*
X445148Y202427D01*
X445791Y203979D01*
X447061Y203726D01*
Y178623D01*
X446270Y177680D01*
X445791Y177680D01*
X428530D01*
Y159940D01*
X445791D01*
X446270Y159940D01*
X447061Y158998D01*
Y146584D01*
X445791Y146332D01*
X445148Y147883D01*
X443726Y149736D01*
X441873Y151158D01*
X439716Y152052D01*
X437400Y152357D01*
X435085Y152052D01*
X432927Y151158D01*
X431074Y149736D01*
X429652Y147883D01*
X428758Y145726D01*
X428454Y143410D01*
X428758Y141095D01*
X429652Y138937D01*
X431074Y137084D01*
X432927Y135662D01*
X435085Y134768D01*
X437400Y134464D01*
X439716Y134768D01*
X441873Y135662D01*
X443726Y137084D01*
X445148Y138937D01*
X445791Y140489D01*
X447061Y140236D01*
Y121184D01*
X445791Y120932D01*
X445148Y122483D01*
X443726Y124336D01*
X441873Y125758D01*
X439716Y126652D01*
X437400Y126957D01*
X435085Y126652D01*
X432927Y125758D01*
X432706Y125588D01*
X426139Y132155D01*
Y215000D01*
X425984Y215780D01*
X425542Y216442D01*
X416591Y225393D01*
X416559Y225555D01*
X416550Y225569D01*
Y236700D01*
X398397D01*
X398200Y236739D01*
X392045D01*
X381442Y247342D01*
X380780Y247784D01*
X380000Y247939D01*
X337045D01*
X334139Y250845D01*
Y268500D01*
X338350D01*
Y311000D01*
D02*
G37*
G36*
X274850Y221750D02*
X263350D01*
Y213250D01*
X267061D01*
Y205750D01*
X263850D01*
Y195250D01*
X274350D01*
Y205750D01*
X271139D01*
Y213250D01*
X274850D01*
Y221750D01*
D02*
G37*
G36*
X236850D02*
X225350D01*
Y213250D01*
X229061D01*
Y205701D01*
X226100D01*
Y195201D01*
X236600D01*
Y205701D01*
X233139D01*
Y213250D01*
X236850D01*
Y221750D01*
D02*
G37*
G36*
X167100Y190569D02*
X165734Y190297D01*
X164577Y189523D01*
X163803Y188366D01*
X163531Y187000D01*
X163803Y185634D01*
X164577Y184477D01*
X165734Y183703D01*
X167100Y183431D01*
X168466Y183703D01*
X169623Y184477D01*
X170397Y185634D01*
X170669Y187000D01*
X170397Y188366D01*
X169623Y189523D01*
X168466Y190297D01*
X167100Y190569D01*
D02*
G37*
G36*
X300814Y181069D02*
X299449Y180797D01*
X298291Y180024D01*
X297967Y179540D01*
X284800D01*
X284800Y179540D01*
X284020Y179384D01*
X283358Y178942D01*
X241758Y137342D01*
X241316Y136680D01*
X241161Y135900D01*
Y103545D01*
X234558Y96942D01*
X234116Y96280D01*
X233961Y95500D01*
Y93050D01*
X230250D01*
Y84550D01*
X241750D01*
Y93050D01*
X238447D01*
X238250Y93089D01*
X238039Y94327D01*
Y94655D01*
X244642Y101258D01*
X244642Y101258D01*
X245084Y101920D01*
X245239Y102700D01*
X245239Y102700D01*
Y135055D01*
X247327Y137143D01*
X248351Y136507D01*
X248405Y136425D01*
X248261Y135700D01*
Y103000D01*
X248416Y102220D01*
X248858Y101558D01*
X255461Y94956D01*
Y93150D01*
X251750D01*
Y84650D01*
X263250D01*
Y93150D01*
X259539D01*
Y95800D01*
X259539Y95800D01*
X259384Y96580D01*
X258942Y97242D01*
X258942Y97242D01*
X252339Y103845D01*
Y134855D01*
X287945Y170461D01*
X305453D01*
X305777Y169977D01*
X306934Y169203D01*
X308300Y168931D01*
X309666Y169203D01*
X310823Y169977D01*
X311597Y171134D01*
X311869Y172500D01*
X311597Y173866D01*
X310823Y175023D01*
X309666Y175797D01*
X308300Y176069D01*
X306934Y175797D01*
X305777Y175023D01*
X305713Y174928D01*
X304732Y174958D01*
X304111Y176135D01*
X304383Y177500D01*
X304111Y178866D01*
X303338Y180024D01*
X302180Y180797D01*
X300814Y181069D01*
D02*
G37*
G36*
X269100Y236833D02*
X231100D01*
X230681Y236750D01*
X225350D01*
Y228250D01*
X230681D01*
X231100Y228167D01*
X245497D01*
X245835Y226897D01*
X244977Y226323D01*
X244203Y225166D01*
X243931Y223800D01*
X244203Y222434D01*
X244977Y221277D01*
X245461Y220953D01*
Y205600D01*
X245616Y204820D01*
X246058Y204158D01*
X263850Y186366D01*
Y178750D01*
X274350D01*
Y189250D01*
X266734D01*
X249539Y206445D01*
Y220953D01*
X250023Y221277D01*
X250797Y222434D01*
X251069Y223800D01*
X250797Y225166D01*
X250023Y226323D01*
X249165Y226897D01*
X249503Y228167D01*
X269100D01*
X269519Y228250D01*
X274850D01*
Y236750D01*
X269519D01*
X269100Y236833D01*
D02*
G37*
G36*
X390500Y184868D02*
X389134Y184597D01*
X387977Y183823D01*
X387203Y182666D01*
X386931Y181300D01*
X387203Y179934D01*
X387977Y178776D01*
X389134Y178003D01*
X390500Y177731D01*
X391866Y178003D01*
X393023Y178776D01*
X393797Y179934D01*
X394069Y181300D01*
X393797Y182666D01*
X393023Y183823D01*
X391866Y184597D01*
X390500Y184868D01*
D02*
G37*
G36*
X464070Y178891D02*
Y170080D01*
X472881D01*
X472699Y171462D01*
X471675Y173934D01*
X470046Y176056D01*
X467924Y177685D01*
X465452Y178709D01*
X464070Y178891D01*
D02*
G37*
G36*
X64070D02*
Y170080D01*
X72880D01*
X72698Y171462D01*
X71675Y173934D01*
X70046Y176056D01*
X67924Y177685D01*
X65452Y178709D01*
X64070Y178891D01*
D02*
G37*
G36*
X461530D02*
X460148Y178709D01*
X457676Y177685D01*
X455554Y176056D01*
X453925Y173934D01*
X452902Y171462D01*
X452720Y170080D01*
X461530D01*
Y178891D01*
D02*
G37*
G36*
X61530D02*
X60148Y178709D01*
X57676Y177685D01*
X55554Y176056D01*
X53925Y173934D01*
X52901Y171462D01*
X52719Y170080D01*
X61530D01*
Y178891D01*
D02*
G37*
G36*
X46270Y177680D02*
X28530D01*
Y159940D01*
X46270D01*
Y177680D01*
D02*
G37*
G36*
X390699Y161168D02*
X389334Y160897D01*
X388176Y160123D01*
X387852Y159639D01*
X326100D01*
X326100Y159639D01*
X325319Y159484D01*
X324658Y159042D01*
X324658Y159042D01*
X312916Y147300D01*
X312350Y147413D01*
X310984Y147141D01*
X309826Y146368D01*
X309053Y145210D01*
X308781Y143844D01*
X309053Y142479D01*
X309826Y141321D01*
X310984Y140547D01*
X312350Y140276D01*
X313715Y140547D01*
X314873Y141321D01*
X315647Y142479D01*
X315918Y143844D01*
X315804Y144420D01*
X326944Y155561D01*
X383709D01*
X384850Y155250D01*
Y122750D01*
X403350D01*
Y155250D01*
X394750D01*
X394053Y156520D01*
X394268Y157600D01*
X393996Y158965D01*
X393223Y160123D01*
X392065Y160897D01*
X390699Y161168D01*
D02*
G37*
G36*
X472881Y167540D02*
X464070D01*
Y158730D01*
X465452Y158912D01*
X467924Y159935D01*
X470046Y161564D01*
X471675Y163686D01*
X472699Y166158D01*
X472881Y167540D01*
D02*
G37*
G36*
X72880D02*
X64070D01*
Y158730D01*
X65452Y158912D01*
X67924Y159935D01*
X70046Y161564D01*
X71675Y163686D01*
X72698Y166158D01*
X72880Y167540D01*
D02*
G37*
G36*
X461530D02*
X452720D01*
X452902Y166158D01*
X453925Y163686D01*
X455554Y161564D01*
X457676Y159935D01*
X460148Y158912D01*
X461530Y158730D01*
Y167540D01*
D02*
G37*
G36*
X61530D02*
X52719D01*
X52901Y166158D01*
X53925Y163686D01*
X55554Y161564D01*
X57676Y159935D01*
X60148Y158912D01*
X61530Y158730D01*
Y167540D01*
D02*
G37*
G36*
X462800Y152357D02*
X460485Y152052D01*
X458327Y151158D01*
X456474Y149736D01*
X455052Y147883D01*
X454158Y145726D01*
X453854Y143410D01*
X454158Y141095D01*
X455052Y138937D01*
X456474Y137084D01*
X458327Y135662D01*
X460485Y134768D01*
X462800Y134464D01*
X465116Y134768D01*
X467273Y135662D01*
X469126Y137084D01*
X470548Y138937D01*
X471442Y141095D01*
X471747Y143410D01*
X471442Y145726D01*
X470548Y147883D01*
X469126Y149736D01*
X467273Y151158D01*
X465116Y152052D01*
X462800Y152357D01*
D02*
G37*
G36*
X62800D02*
X60484Y152052D01*
X58327Y151158D01*
X56474Y149736D01*
X55052Y147883D01*
X54158Y145726D01*
X53853Y143410D01*
X54158Y141095D01*
X55052Y138937D01*
X56474Y137084D01*
X58327Y135662D01*
X60484Y134768D01*
X62800Y134464D01*
X65115Y134768D01*
X67273Y135662D01*
X69126Y137084D01*
X70548Y138937D01*
X71442Y141095D01*
X71746Y143410D01*
X71442Y145726D01*
X70548Y147883D01*
X69126Y149736D01*
X67273Y151158D01*
X65115Y152052D01*
X62800Y152357D01*
D02*
G37*
G36*
X37400D02*
X35084Y152052D01*
X32927Y151158D01*
X31074Y149736D01*
X29652Y147883D01*
X28758Y145726D01*
X28453Y143410D01*
X28758Y141095D01*
X29652Y138937D01*
X31074Y137084D01*
X32927Y135662D01*
X35084Y134768D01*
X37400Y134464D01*
X39715Y134768D01*
X41873Y135662D01*
X43726Y137084D01*
X45148Y138937D01*
X46042Y141095D01*
X46346Y143410D01*
X46042Y145726D01*
X45148Y147883D01*
X43726Y149736D01*
X41873Y151158D01*
X39715Y152052D01*
X37400Y152357D01*
D02*
G37*
G36*
X115350Y155375D02*
X96850D01*
Y122875D01*
X115350D01*
Y155375D01*
D02*
G37*
G36*
X299350Y155250D02*
X280850D01*
Y122750D01*
X299350D01*
Y155250D01*
D02*
G37*
G36*
X195640Y137415D02*
X189370D01*
Y116145D01*
X195640D01*
Y137415D01*
D02*
G37*
G36*
X186830D02*
X180560D01*
Y116145D01*
X186830D01*
Y137415D01*
D02*
G37*
G36*
X372006Y143733D02*
X372000D01*
X370342Y143403D01*
X368936Y142464D01*
X367997Y141058D01*
X367667Y139400D01*
Y137290D01*
X364560D01*
Y116020D01*
X372100D01*
Y114750D01*
D01*
Y116020D01*
X379640D01*
Y137290D01*
X376333D01*
Y138870D01*
X376422Y139317D01*
X376092Y140976D01*
X375153Y142381D01*
X375070Y142464D01*
X373665Y143403D01*
X372006Y143733D01*
D02*
G37*
G36*
X286600Y117169D02*
X285235Y116897D01*
X284077Y116124D01*
X283303Y114966D01*
X283032Y113600D01*
X283303Y112235D01*
X284077Y111077D01*
X285235Y110303D01*
X286600Y110032D01*
X287966Y110303D01*
X289124Y111077D01*
X289897Y112235D01*
X290169Y113600D01*
X289897Y114966D01*
X289124Y116124D01*
X287966Y116897D01*
X286600Y117169D01*
D02*
G37*
G36*
X462800Y126957D02*
X460485Y126652D01*
X458327Y125758D01*
X456474Y124336D01*
X455052Y122483D01*
X454158Y120326D01*
X453854Y118010D01*
X454158Y115695D01*
X455052Y113537D01*
X456474Y111684D01*
X458327Y110262D01*
X460485Y109368D01*
X462800Y109064D01*
X465116Y109368D01*
X467273Y110262D01*
X469126Y111684D01*
X470548Y113537D01*
X471442Y115695D01*
X471747Y118010D01*
X471442Y120326D01*
X470548Y122483D01*
X469126Y124336D01*
X467273Y125758D01*
X465116Y126652D01*
X462800Y126957D01*
D02*
G37*
G36*
X62800D02*
X60484Y126652D01*
X58327Y125758D01*
X56474Y124336D01*
X55052Y122483D01*
X54158Y120326D01*
X53853Y118010D01*
X54158Y115695D01*
X55052Y113537D01*
X56474Y111684D01*
X58327Y110262D01*
X60484Y109368D01*
X62800Y109064D01*
X65115Y109368D01*
X67273Y110262D01*
X69126Y111684D01*
X70548Y113537D01*
X71442Y115695D01*
X71746Y118010D01*
X71442Y120326D01*
X70548Y122483D01*
X69126Y124336D01*
X67273Y125758D01*
X65115Y126652D01*
X62800Y126957D01*
D02*
G37*
G36*
X37400D02*
X35084Y126652D01*
X32927Y125758D01*
X31074Y124336D01*
X29652Y122483D01*
X28758Y120326D01*
X28453Y118010D01*
X28758Y115695D01*
X29652Y113537D01*
X31074Y111684D01*
X32927Y110262D01*
X35084Y109368D01*
X37400Y109064D01*
X39715Y109368D01*
X41873Y110262D01*
X43726Y111684D01*
X45148Y113537D01*
X46042Y115695D01*
X46346Y118010D01*
X46042Y120326D01*
X45148Y122483D01*
X43726Y124336D01*
X41873Y125758D01*
X39715Y126652D01*
X37400Y126957D01*
D02*
G37*
G36*
X379640Y113480D02*
X373370D01*
Y92210D01*
X379640D01*
Y113480D01*
D02*
G37*
G36*
X370830D02*
X364560D01*
Y92210D01*
X370830D01*
Y113480D01*
D02*
G37*
G36*
X90000Y105086D02*
X87389Y104743D01*
X84957Y103735D01*
X82868Y102132D01*
X81265Y100043D01*
X80257Y97611D01*
X79914Y95000D01*
X80257Y92389D01*
X81265Y89957D01*
X82868Y87868D01*
X84957Y86265D01*
X87389Y85257D01*
X90000Y84914D01*
X92611Y85257D01*
X95043Y86265D01*
X97132Y87868D01*
X98735Y89957D01*
X99743Y92389D01*
X100086Y95000D01*
X99743Y97611D01*
X98735Y100043D01*
X97132Y102132D01*
X95043Y103735D01*
X92611Y104743D01*
X90000Y105086D01*
D02*
G37*
G36*
X462800Y101557D02*
X460485Y101252D01*
X458327Y100358D01*
X456474Y98936D01*
X455052Y97083D01*
X454158Y94926D01*
X453854Y92610D01*
X454158Y90295D01*
X455052Y88137D01*
X456474Y86284D01*
X458327Y84862D01*
X460485Y83968D01*
X462800Y83664D01*
X465116Y83968D01*
X467273Y84862D01*
X469126Y86284D01*
X470548Y88137D01*
X471442Y90295D01*
X471747Y92610D01*
X471442Y94926D01*
X470548Y97083D01*
X469126Y98936D01*
X467273Y100358D01*
X465116Y101252D01*
X462800Y101557D01*
D02*
G37*
G36*
X62800D02*
X60484Y101252D01*
X58327Y100358D01*
X56474Y98936D01*
X55052Y97083D01*
X54158Y94926D01*
X53853Y92610D01*
X54158Y90295D01*
X55052Y88137D01*
X56474Y86284D01*
X58327Y84862D01*
X60484Y83968D01*
X62800Y83664D01*
X65115Y83968D01*
X67273Y84862D01*
X69126Y86284D01*
X70548Y88137D01*
X71442Y90295D01*
X71746Y92610D01*
X71442Y94926D01*
X70548Y97083D01*
X69126Y98936D01*
X67273Y100358D01*
X65115Y101252D01*
X62800Y101557D01*
D02*
G37*
G36*
X195640Y113605D02*
X188100D01*
X180560D01*
Y92335D01*
X183767D01*
Y84001D01*
X183767Y84000D01*
X184097Y82342D01*
X185036Y80936D01*
X186442Y79997D01*
X188100Y79667D01*
X189758Y79997D01*
X191164Y80936D01*
X191164Y80936D01*
X192104Y82342D01*
X192433Y84000D01*
Y92335D01*
X195640D01*
Y113605D01*
D02*
G37*
G36*
X174350Y136125D02*
X161850D01*
Y93625D01*
X163767D01*
Y84001D01*
X163767Y84000D01*
X164097Y82342D01*
X165036Y80936D01*
X166442Y79997D01*
X168100Y79667D01*
X169758Y79997D01*
X171164Y80936D01*
X171164Y80936D01*
X172104Y82342D01*
X172433Y84000D01*
Y93625D01*
X174350D01*
Y136125D01*
D02*
G37*
G36*
X140600Y75069D02*
X139235Y74797D01*
X138077Y74024D01*
X137303Y72866D01*
X137032Y71500D01*
X137303Y70135D01*
X138077Y68977D01*
X139235Y68203D01*
X140600Y67932D01*
X141966Y68203D01*
X143124Y68977D01*
X143897Y70135D01*
X144169Y71500D01*
X143897Y72866D01*
X143124Y74024D01*
X141966Y74797D01*
X140600Y75069D01*
D02*
G37*
G36*
X462800Y76157D02*
X460485Y75852D01*
X458327Y74958D01*
X456474Y73536D01*
X455052Y71683D01*
X454158Y69526D01*
X453854Y67210D01*
X454158Y64895D01*
X455052Y62737D01*
X456474Y60884D01*
X458327Y59462D01*
X460485Y58569D01*
X462800Y58264D01*
X465116Y58569D01*
X467273Y59462D01*
X469126Y60884D01*
X470548Y62737D01*
X471442Y64895D01*
X471747Y67210D01*
X471442Y69526D01*
X470548Y71683D01*
X469126Y73536D01*
X467273Y74958D01*
X465116Y75852D01*
X462800Y76157D01*
D02*
G37*
G36*
X62800D02*
X60484Y75852D01*
X58327Y74958D01*
X56474Y73536D01*
X55052Y71683D01*
X54158Y69526D01*
X53853Y67210D01*
X54158Y64895D01*
X55052Y62737D01*
X56474Y60884D01*
X58327Y59462D01*
X60484Y58569D01*
X62800Y58264D01*
X65115Y58569D01*
X67273Y59462D01*
X69126Y60884D01*
X70548Y62737D01*
X71442Y64895D01*
X71746Y67210D01*
X71442Y69526D01*
X70548Y71683D01*
X69126Y73536D01*
X67273Y74958D01*
X65115Y75852D01*
X62800Y76157D01*
D02*
G37*
G36*
X37400D02*
X35084Y75852D01*
X32927Y74958D01*
X31074Y73536D01*
X29652Y71683D01*
X28758Y69526D01*
X28453Y67210D01*
X28758Y64895D01*
X29652Y62737D01*
X31074Y60884D01*
X32927Y59462D01*
X35084Y58569D01*
X37400Y58264D01*
X39715Y58569D01*
X41873Y59462D01*
X43726Y60884D01*
X45148Y62737D01*
X46042Y64895D01*
X46346Y67210D01*
X46042Y69526D01*
X45148Y71683D01*
X43726Y73536D01*
X41873Y74958D01*
X39715Y75852D01*
X37400Y76157D01*
D02*
G37*
G36*
X110550Y61600D02*
X83650D01*
Y47800D01*
X110550D01*
Y52661D01*
X112920D01*
X113177Y52277D01*
X114334Y51503D01*
X115700Y51231D01*
X117066Y51503D01*
X118223Y52277D01*
X118997Y53434D01*
X119269Y54800D01*
X118997Y56166D01*
X118223Y57323D01*
X117066Y58097D01*
X115700Y58369D01*
X114334Y58097D01*
X113177Y57323D01*
X112786Y56739D01*
X110550D01*
Y61600D01*
D02*
G37*
G36*
X154350Y136125D02*
X141850D01*
Y93625D01*
X146061D01*
Y66157D01*
X146216Y65377D01*
X146658Y64715D01*
X158116Y53258D01*
X158777Y52816D01*
X159558Y52661D01*
X159558Y52661D01*
X169650D01*
Y47800D01*
X196550D01*
Y51961D01*
X199253D01*
X199577Y51477D01*
X200734Y50703D01*
X202100Y50431D01*
X203466Y50703D01*
X204623Y51477D01*
X205397Y52634D01*
X205669Y54000D01*
X205397Y55366D01*
X204623Y56523D01*
X203466Y57297D01*
X202100Y57569D01*
X200734Y57297D01*
X199577Y56523D01*
X199253Y56039D01*
X196550D01*
Y61600D01*
X169650D01*
Y56739D01*
X160402D01*
X150139Y67002D01*
Y93625D01*
X154350D01*
Y136125D01*
D02*
G37*
G36*
X330550Y62000D02*
X303650D01*
Y48200D01*
X321803D01*
X322000Y48161D01*
X328055D01*
X334061Y42155D01*
Y39847D01*
X333577Y39523D01*
X332803Y38366D01*
X332531Y37000D01*
X332803Y35634D01*
X333577Y34477D01*
X334734Y33703D01*
X336100Y33431D01*
X337466Y33703D01*
X338623Y34477D01*
X339397Y35634D01*
X339669Y37000D01*
X339397Y38366D01*
X338623Y39523D01*
X338139Y39847D01*
Y43000D01*
X338139Y43000D01*
X337984Y43780D01*
X337542Y44442D01*
X330550Y51434D01*
Y62000D01*
D02*
G37*
G36*
X372300Y40568D02*
X370934Y40297D01*
X369777Y39523D01*
X369003Y38365D01*
X368731Y37000D01*
X369003Y35634D01*
X369777Y34476D01*
X370934Y33703D01*
X372300Y33431D01*
X373666Y33703D01*
X374823Y34476D01*
X375597Y35634D01*
X375869Y37000D01*
X375597Y38365D01*
X374823Y39523D01*
X373666Y40297D01*
X372300Y40568D01*
D02*
G37*
G36*
X62800Y50757D02*
X60484Y50452D01*
X58327Y49558D01*
X56474Y48136D01*
X55052Y46283D01*
X54158Y44126D01*
X53853Y41810D01*
X54158Y39495D01*
X55052Y37337D01*
X56474Y35484D01*
X58327Y34062D01*
X60484Y33168D01*
X62800Y32864D01*
X65115Y33168D01*
X67273Y34062D01*
X69126Y35484D01*
X70548Y37337D01*
X71442Y39495D01*
X71746Y41810D01*
X71442Y44126D01*
X70548Y46283D01*
X69126Y48136D01*
X67273Y49558D01*
X65115Y50452D01*
X62800Y50757D01*
D02*
G37*
G36*
X37400D02*
X35084Y50452D01*
X32927Y49558D01*
X31074Y48136D01*
X29652Y46283D01*
X28758Y44126D01*
X28453Y41810D01*
X28758Y39495D01*
X29652Y37337D01*
X31074Y35484D01*
X32927Y34062D01*
X35084Y33168D01*
X37400Y32864D01*
X39715Y33168D01*
X41873Y34062D01*
X43726Y35484D01*
X45148Y37337D01*
X46042Y39495D01*
X46346Y41810D01*
X46042Y44126D01*
X45148Y46283D01*
X43726Y48136D01*
X41873Y49558D01*
X39715Y50452D01*
X37400Y50757D01*
D02*
G37*
G36*
X110550Y36200D02*
X83650D01*
Y22400D01*
X110550D01*
Y27261D01*
X113353D01*
X113677Y26777D01*
X114834Y26003D01*
X116200Y25731D01*
X117566Y26003D01*
X118723Y26777D01*
X119497Y27934D01*
X119769Y29300D01*
X119497Y30666D01*
X118723Y31823D01*
X117566Y32597D01*
X116200Y32869D01*
X114834Y32597D01*
X113677Y31823D01*
X113353Y31339D01*
X110550D01*
Y36200D01*
D02*
G37*
G36*
X134350Y136125D02*
X121850D01*
Y93625D01*
X126061D01*
Y58000D01*
X126216Y57219D01*
X126658Y56558D01*
X156658Y26558D01*
X156658Y26558D01*
X157320Y26116D01*
X158100Y25961D01*
X169650D01*
Y22400D01*
X180061D01*
Y18847D01*
X179577Y18523D01*
X178803Y17366D01*
X178531Y16000D01*
X178803Y14634D01*
X179577Y13477D01*
X180734Y12703D01*
X182100Y12431D01*
X183466Y12703D01*
X184623Y13477D01*
X185397Y14634D01*
X185669Y16000D01*
X185397Y17366D01*
X184623Y18523D01*
X184139Y18847D01*
Y22400D01*
X196550D01*
Y36200D01*
X169650D01*
Y30039D01*
X158945D01*
X130139Y58844D01*
Y93625D01*
X134350D01*
Y136125D01*
D02*
G37*
G36*
X207033Y39335D02*
X205667Y39064D01*
X204510Y38290D01*
X203736Y37132D01*
X203465Y35767D01*
X203736Y34401D01*
X204510Y33243D01*
X205667Y32470D01*
X207033Y32198D01*
X208399Y32470D01*
X209557Y33243D01*
X209769Y33561D01*
X222655D01*
X231558Y24658D01*
X231558Y24658D01*
X231850Y24463D01*
Y12100D01*
X268350D01*
Y28100D01*
X244296D01*
X244100Y28139D01*
X233845D01*
X224942Y37042D01*
X224280Y37484D01*
X223500Y37639D01*
X209991D01*
X209557Y38290D01*
X208399Y39064D01*
X207033Y39335D01*
D02*
G37*
G36*
X286350Y29413D02*
X284457Y29164D01*
X282694Y28433D01*
X281179Y27271D01*
X280017Y25756D01*
X279286Y23993D01*
X279037Y22100D01*
Y18100D01*
X279286Y16208D01*
X280017Y14444D01*
X281179Y12930D01*
X282694Y11767D01*
X284457Y11037D01*
X286350Y10788D01*
X288242Y11037D01*
X290006Y11767D01*
X291521Y12930D01*
X292683Y14444D01*
X293413Y16208D01*
X293662Y18100D01*
Y22100D01*
X293413Y23993D01*
X292683Y25756D01*
X291521Y27271D01*
X290006Y28433D01*
X288242Y29164D01*
X286350Y29413D01*
D02*
G37*
G36*
X213850D02*
X211957Y29164D01*
X210194Y28433D01*
X208679Y27271D01*
X207517Y25756D01*
X206787Y23993D01*
X206538Y22100D01*
Y18100D01*
X206787Y16208D01*
X207517Y14444D01*
X208679Y12930D01*
X210194Y11767D01*
X211957Y11037D01*
X213850Y10788D01*
X215743Y11037D01*
X217506Y11767D01*
X219021Y12930D01*
X220183Y14444D01*
X220914Y16208D01*
X221163Y18100D01*
Y22100D01*
X220914Y23993D01*
X220183Y25756D01*
X219021Y27271D01*
X217506Y28433D01*
X215743Y29164D01*
X213850Y29413D01*
D02*
G37*
G36*
X330550Y36600D02*
X303650D01*
Y22800D01*
X315061D01*
Y16814D01*
X314477Y16423D01*
X313703Y15266D01*
X313431Y13900D01*
X313703Y12534D01*
X314477Y11377D01*
X315634Y10603D01*
X317000Y10331D01*
X318366Y10603D01*
X319523Y11377D01*
X320297Y12534D01*
X320569Y13900D01*
X320297Y15266D01*
X319523Y16423D01*
X319139Y16680D01*
Y16700D01*
X319139Y16700D01*
Y22800D01*
X330550D01*
Y36600D01*
D02*
G37*
G36*
X62800Y25357D02*
X60484Y25052D01*
X58327Y24158D01*
X56474Y22736D01*
X55052Y20883D01*
X54158Y18726D01*
X53853Y16410D01*
X54158Y14095D01*
X55052Y11937D01*
X56474Y10084D01*
X58327Y8662D01*
X60484Y7768D01*
X62800Y7464D01*
X65115Y7768D01*
X67273Y8662D01*
X69126Y10084D01*
X70548Y11937D01*
X71442Y14095D01*
X71746Y16410D01*
X71442Y18726D01*
X70548Y20883D01*
X69126Y22736D01*
X67273Y24158D01*
X65115Y25052D01*
X62800Y25357D01*
D02*
G37*
G36*
X37400D02*
X35084Y25052D01*
X32927Y24158D01*
X31074Y22736D01*
X29652Y20883D01*
X28758Y18726D01*
X28453Y16410D01*
X28758Y14095D01*
X29652Y11937D01*
X31074Y10084D01*
X32927Y8662D01*
X35084Y7768D01*
X37400Y7464D01*
X39715Y7768D01*
X41873Y8662D01*
X43726Y10084D01*
X45148Y11937D01*
X46042Y14095D01*
X46346Y16410D01*
X46042Y18726D01*
X45148Y20883D01*
X43726Y22736D01*
X41873Y24158D01*
X39715Y25052D01*
X37400Y25357D01*
D02*
G37*
%LPD*%
G36*
X429822Y122705D02*
X429652Y122483D01*
X428758Y120326D01*
X428454Y118010D01*
X428758Y115695D01*
X429652Y113537D01*
X431074Y111684D01*
X432927Y110262D01*
X435085Y109368D01*
X437400Y109064D01*
X439716Y109368D01*
X441873Y110262D01*
X443726Y111684D01*
X445148Y113537D01*
X445791Y115089D01*
X447061Y114836D01*
Y95784D01*
X445791Y95532D01*
X445148Y97083D01*
X443726Y98936D01*
X441873Y100358D01*
X439716Y101252D01*
X437400Y101557D01*
X435085Y101252D01*
X432927Y100358D01*
X431074Y98936D01*
X429652Y97083D01*
X428758Y94926D01*
X428454Y92610D01*
X428758Y90295D01*
X429652Y88137D01*
X431074Y86284D01*
X432927Y84862D01*
X435085Y83968D01*
X437400Y83664D01*
X439716Y83968D01*
X441873Y84862D01*
X443726Y86284D01*
X445148Y88137D01*
X445791Y89689D01*
X447061Y89436D01*
Y70384D01*
X445791Y70132D01*
X445148Y71683D01*
X443726Y73536D01*
X441873Y74958D01*
X439716Y75852D01*
X437400Y76157D01*
X435085Y75852D01*
X432927Y74958D01*
X431074Y73536D01*
X429652Y71683D01*
X428758Y69526D01*
X428454Y67210D01*
X428758Y64895D01*
X429652Y62737D01*
X431074Y60884D01*
X432927Y59462D01*
X435085Y58569D01*
X437400Y58264D01*
X439716Y58569D01*
X441873Y59462D01*
X443726Y60884D01*
X445148Y62737D01*
X445791Y64289D01*
X447061Y64036D01*
Y44984D01*
X445791Y44732D01*
X445148Y46283D01*
X443726Y48136D01*
X441873Y49558D01*
X439716Y50452D01*
X437400Y50757D01*
X435085Y50452D01*
X432927Y49558D01*
X432706Y49388D01*
X422239Y59855D01*
Y128491D01*
X423509Y129017D01*
X429822Y122705D01*
D02*
G37*
D18*
X231100Y217500D02*
D03*
Y232500D02*
D03*
X269100Y217500D02*
D03*
Y232500D02*
D03*
X257500Y73900D02*
D03*
Y88900D02*
D03*
X236000Y73800D02*
D03*
Y88800D02*
D03*
D19*
X250100Y20100D02*
D03*
D20*
X243600Y45850D02*
D03*
X250100D02*
D03*
X237100D02*
D03*
X263100D02*
D03*
X256600D02*
D03*
D21*
X97100Y205000D02*
D03*
Y230400D02*
D03*
X317100Y204400D02*
D03*
Y229800D02*
D03*
X97100Y29300D02*
D03*
Y54700D02*
D03*
X317100Y29700D02*
D03*
Y55100D02*
D03*
X183100Y54700D02*
D03*
Y29300D02*
D03*
X403100Y55100D02*
D03*
Y29700D02*
D03*
Y229800D02*
D03*
Y204400D02*
D03*
X183100Y230400D02*
D03*
Y205000D02*
D03*
D22*
X352100Y289750D02*
D03*
Y114750D02*
D03*
X168100Y289875D02*
D03*
Y114875D02*
D03*
X188100D02*
D03*
X148100D02*
D03*
X128100D02*
D03*
X372100Y114750D02*
D03*
X332100D02*
D03*
X312100D02*
D03*
X372100Y289750D02*
D03*
X332100D02*
D03*
X312100D02*
D03*
X188100Y289875D02*
D03*
X148100D02*
D03*
X128100D02*
D03*
D23*
X106100Y139125D02*
D03*
X210100D02*
D03*
X394100Y139000D02*
D03*
X290100D02*
D03*
X394100Y314000D02*
D03*
X290100D02*
D03*
X106100Y314125D02*
D03*
X210100D02*
D03*
D36*
X231350Y200451D02*
D03*
Y183950D02*
D03*
X269100Y184000D02*
D03*
Y200500D02*
D03*
D37*
X90000Y95000D02*
D03*
X400000Y270000D02*
D03*
D38*
X207200Y35600D02*
X223500D01*
X233000Y26100D01*
X207033Y35767D02*
X207033D01*
X233000Y26100D02*
X244100D01*
X207033Y35767D02*
X207200Y35600D01*
X244100Y26100D02*
X250100Y20100D01*
X231100Y200700D02*
X231350Y200451D01*
X231100Y200700D02*
Y217500D01*
X269100Y200500D02*
X269250Y200650D01*
X269100Y200500D02*
X269100Y200500D01*
X269100Y200500D02*
Y217500D01*
X243500Y49350D02*
X243600Y49450D01*
X242600Y50450D02*
X243600Y49450D01*
X242600Y50450D02*
X243100Y50950D01*
X243600Y45850D02*
Y58021D01*
X241400Y60222D02*
X243600Y58021D01*
X241400Y60222D02*
Y60400D01*
X236000Y65800D02*
X241400Y60400D01*
X236000Y65800D02*
Y73800D01*
X257500Y65600D02*
Y73900D01*
X250100Y45850D02*
Y58021D01*
X252300Y60221D01*
Y60400D01*
X257500Y65600D01*
X97100Y205000D02*
X115100D01*
X97100Y205000D02*
X97100Y205000D01*
X97500Y230000D02*
X115100D01*
X97100Y230400D02*
X97500Y230000D01*
X317600Y204900D02*
X364200D01*
X317100Y204400D02*
X317600Y204900D01*
X317100Y229800D02*
X317300Y230000D01*
X363100D01*
X97100Y29300D02*
X97400Y29000D01*
X97700Y29300D01*
X116200D01*
X97100Y54700D02*
X97400Y55000D01*
X115600Y54700D02*
X115700Y54800D01*
X97100Y54700D02*
X115600D01*
X97400Y55000D02*
X97500Y54900D01*
X317100Y16700D02*
X317100Y16700D01*
Y29700D01*
X317100Y14000D02*
Y16700D01*
X317000Y13900D02*
X317100Y14000D01*
X322000Y50200D02*
X328900D01*
X317100Y55100D02*
X322000Y50200D01*
X328900D02*
X336100Y43000D01*
Y37000D02*
Y43000D01*
X335750Y37350D02*
X336100Y37000D01*
X250300Y103000D02*
X257500Y95800D01*
X250300Y103000D02*
Y135700D01*
X257500Y88900D02*
Y95800D01*
X287100Y172500D02*
X308300D01*
X250300Y135700D02*
X287100Y172500D01*
X243200Y135900D02*
X284800Y177500D01*
X243200Y102700D02*
Y135900D01*
X236000Y95500D02*
X243200Y102700D01*
X236000Y88800D02*
Y95500D01*
X284800Y177500D02*
X300814D01*
X236000Y88800D02*
X238250Y91050D01*
X234200Y56900D02*
X237100Y54000D01*
X232500Y56900D02*
X234200D01*
X247500Y205600D02*
X269100Y184000D01*
X247500Y205600D02*
Y223800D01*
X237100Y45850D02*
Y54000D01*
X257000Y332000D02*
X407000D01*
X208000Y283000D02*
X257000Y332000D01*
X231300Y122100D02*
Y183900D01*
X208000Y171900D02*
Y283000D01*
X443400Y320600D02*
X450100Y313900D01*
Y270400D02*
X462800Y257700D01*
X450100Y270400D02*
Y313900D01*
X407000Y332000D02*
X418400Y320600D01*
X443400D01*
X231300Y183900D02*
X231350Y183950D01*
X198600Y162500D02*
X208000Y171900D01*
X277500Y251700D02*
X277700Y251900D01*
X291050D01*
X312350Y143844D02*
Y143850D01*
X326100Y157600D01*
X380000Y245900D02*
X391200Y234700D01*
X332100Y250000D02*
X336200Y245900D01*
X380000D01*
X478100Y41000D02*
Y237000D01*
X450100Y245000D02*
X470100D01*
X478100Y237000D01*
X437400Y257700D02*
X450100Y245000D01*
X49790Y105000D02*
X70100D01*
X90100Y125000D02*
Y162000D01*
X70100Y105000D02*
X90100Y125000D01*
X37400Y92610D02*
X49790Y105000D01*
X312100Y261000D02*
Y289750D01*
X332100Y250000D02*
Y289750D01*
X312100Y261000D02*
X335100Y238000D01*
X263100Y45850D02*
Y53685D01*
X266615Y57200D01*
X398200Y234700D02*
X403100Y229800D01*
X391200Y234700D02*
X398200D01*
X363000Y238000D02*
X391650Y209350D01*
X335100Y238000D02*
X363000D01*
X396550Y204400D02*
X403100D01*
X391650Y209300D02*
X396550Y204400D01*
X391650Y209300D02*
Y209350D01*
X148100Y66157D02*
X159558Y54700D01*
X148100Y66157D02*
Y114875D01*
X159558Y54700D02*
X183100D01*
X464300Y27200D02*
X478100Y41000D01*
X426370Y29700D02*
X428870Y27200D01*
X464300D01*
X433100Y32000D02*
X445100D01*
X415025Y50075D02*
X433100Y32000D01*
X445100D02*
X449100Y36000D01*
X326100Y157600D02*
X390699D01*
X415100Y199000D02*
X420200Y193900D01*
Y59010D02*
X437400Y41810D01*
X420200Y59010D02*
Y193900D01*
X424100Y131310D02*
X437400Y118010D01*
X424100Y131310D02*
Y215000D01*
X403100Y229800D02*
X409650D01*
X414675Y224775D01*
Y224425D02*
Y224775D01*
Y224425D02*
X424100Y215000D01*
X403100Y29700D02*
X426370D01*
X449100Y36000D02*
Y220600D01*
X408125Y50075D02*
X415025D01*
X403100Y55100D02*
X408125Y50075D01*
X415050Y199000D02*
X415100D01*
X403100Y204400D02*
X409650D01*
X415050Y199000D01*
X437400Y232300D02*
X449100Y220600D01*
X183100Y54700D02*
X183800Y54000D01*
X202100D01*
X181800Y28000D02*
X182100Y27700D01*
Y16000D02*
Y27700D01*
X90100Y162000D02*
X107100Y179000D01*
X132100D02*
X158100Y205000D01*
X107100Y179000D02*
X132100D01*
X332100Y88000D02*
X365000Y55100D01*
X403100D01*
X332100Y88000D02*
Y114750D01*
X402800Y30000D02*
X403100Y29700D01*
X368100Y30000D02*
X402800D01*
X312100Y86000D02*
Y114750D01*
Y86000D02*
X368100Y30000D01*
X153100Y238000D02*
X153100D01*
X161100Y230000D02*
X182700D01*
X153100Y238000D02*
X161100Y230000D01*
X182700D02*
X183100Y230400D01*
X148100Y243000D02*
Y289875D01*
Y243000D02*
X153100Y238000D01*
X128100Y235000D02*
X158100Y205000D01*
X183100D01*
X128100Y235000D02*
Y289875D01*
X158100Y28000D02*
X181800D01*
X128100Y58000D02*
Y114875D01*
Y58000D02*
X158100Y28000D01*
D39*
X372000Y289850D02*
Y313200D01*
Y289850D02*
X372100Y289750D01*
X222800Y66600D02*
Y168200D01*
Y66600D02*
X232500Y56900D01*
X213800Y177200D02*
X222800Y168200D01*
X213800Y279800D02*
X228500Y294500D01*
X213800Y177200D02*
Y279800D01*
X228500Y294500D02*
X246100D01*
X245800Y232500D02*
X269100D01*
X231100D02*
X245800D01*
X305800Y242600D02*
X306000Y242800D01*
Y253000D01*
X256000Y261000D02*
X298000D01*
X306000Y253000D01*
X372000Y114850D02*
Y139400D01*
X372006D02*
X372089Y139317D01*
X372000Y139400D02*
X372006D01*
X372000Y114850D02*
X372100Y114750D01*
X372000Y114650D02*
X372100Y114750D01*
X266615Y57200D02*
X289600D01*
X352100Y85000D02*
Y114750D01*
X351999Y84800D02*
Y84899D01*
X352100Y85000D01*
X352100Y85000D02*
X352100Y85000D01*
X188100Y84000D02*
Y114875D01*
X188100Y84000D02*
X188100Y84000D01*
X168100Y84000D02*
Y114875D01*
X168100Y84000D02*
X168100Y84000D01*
X352100Y260000D02*
X352100Y260000D01*
X352100Y260000D02*
Y289750D01*
X188100Y263000D02*
Y289875D01*
X188100Y263000D02*
X188100Y263000D01*
X168100Y263000D02*
Y289875D01*
X168100Y263000D02*
X168100Y263000D01*
D40*
X286350Y20100D02*
D03*
X213850D02*
D03*
D41*
X225850Y46600D02*
D03*
X274350D02*
D03*
D42*
X437400Y308500D02*
D03*
X37400D02*
D03*
Y257700D02*
D03*
Y232300D02*
D03*
X62800D02*
D03*
Y257700D02*
D03*
Y283100D02*
D03*
X37400D02*
D03*
X62800Y308500D02*
D03*
Y206900D02*
D03*
X37400D02*
D03*
X62800Y333900D02*
D03*
X37400Y67210D02*
D03*
X62800D02*
D03*
Y92610D02*
D03*
Y118010D02*
D03*
X37400D02*
D03*
X62800Y143410D02*
D03*
X37400D02*
D03*
X62800Y41810D02*
D03*
X37400D02*
D03*
Y16410D02*
D03*
X62800D02*
D03*
X37400Y92610D02*
D03*
X62800Y168810D02*
D03*
X462800Y16410D02*
D03*
X437400D02*
D03*
Y143410D02*
D03*
X462800D02*
D03*
Y92610D02*
D03*
Y67210D02*
D03*
X437400D02*
D03*
Y92610D02*
D03*
X462800Y41810D02*
D03*
X437400D02*
D03*
X462800Y118010D02*
D03*
X437400D02*
D03*
X462800Y168810D02*
D03*
X437400Y206900D02*
D03*
X462800D02*
D03*
Y308500D02*
D03*
X437400Y283100D02*
D03*
X462800Y232300D02*
D03*
X437400D02*
D03*
X462800Y257700D02*
D03*
X437400D02*
D03*
X462800Y283100D02*
D03*
Y333900D02*
D03*
D43*
X37400D02*
D03*
Y168810D02*
D03*
X437400D02*
D03*
Y333900D02*
D03*
D44*
X207033Y35767D02*
D03*
X241400Y60400D02*
D03*
X252300D02*
D03*
X115100Y205000D02*
D03*
Y230000D02*
D03*
X364200Y204900D02*
D03*
X363100Y230000D02*
D03*
X116200Y29300D02*
D03*
X115700Y54800D02*
D03*
X317000Y13900D02*
D03*
X336100Y37000D02*
D03*
X308300Y172500D02*
D03*
X300814Y177500D02*
D03*
X372000Y313200D02*
D03*
X247500Y223800D02*
D03*
X286600Y113600D02*
D03*
X165000Y245000D02*
D03*
X290000Y75000D02*
D03*
Y105000D02*
D03*
X205000Y80000D02*
D03*
Y110000D02*
D03*
X246100Y294500D02*
D03*
X231300Y122100D02*
D03*
X245800Y232500D02*
D03*
X387600Y336300D02*
D03*
X291050Y251900D02*
D03*
X256000Y261000D02*
D03*
X229000Y225000D02*
D03*
X90000Y340000D02*
D03*
X120000D02*
D03*
X150000D02*
D03*
X180000D02*
D03*
X210000D02*
D03*
X180000Y70000D02*
D03*
X415000Y15000D02*
D03*
X380000D02*
D03*
X405000Y165000D02*
D03*
Y190000D02*
D03*
X370000Y75000D02*
D03*
X420000Y335000D02*
D03*
X410000Y310000D02*
D03*
X385000Y250000D02*
D03*
X410000D02*
D03*
Y280000D02*
D03*
X385000D02*
D03*
X105000Y105000D02*
D03*
X90000Y80000D02*
D03*
X115000D02*
D03*
Y285000D02*
D03*
Y245000D02*
D03*
X85000D02*
D03*
X100000Y270000D02*
D03*
X85000Y285000D02*
D03*
X120000Y140000D02*
D03*
X150000D02*
D03*
Y170000D02*
D03*
X135000Y155000D02*
D03*
X120000Y170000D02*
D03*
X266000Y340000D02*
D03*
X235000D02*
D03*
X372089Y139317D02*
D03*
X372400Y173900D02*
D03*
X312350Y143844D02*
D03*
X259100Y323000D02*
D03*
X277500Y251700D02*
D03*
X340400Y325800D02*
D03*
X322800Y326100D02*
D03*
X297900Y162700D02*
D03*
X289600Y57200D02*
D03*
X359600Y150400D02*
D03*
X404450Y72425D02*
D03*
X310600Y70100D02*
D03*
X414975Y109100D02*
D03*
X390699Y157600D02*
D03*
X351999Y84800D02*
D03*
X173100Y42500D02*
D03*
X305800Y242600D02*
D03*
X245388Y248600D02*
D03*
X198600Y162500D02*
D03*
X202100Y54000D02*
D03*
X182100Y16000D02*
D03*
X161100Y230000D02*
D03*
X343100Y122000D02*
D03*
X188100Y263000D02*
D03*
X168100D02*
D03*
X352100Y260000D02*
D03*
X168100Y84000D02*
D03*
X188100Y84000D02*
D03*
X337200Y255100D02*
D03*
X149100Y230000D02*
D03*
X167100Y187000D02*
D03*
X167500Y167400D02*
D03*
X372300Y37000D02*
D03*
X390500Y181300D02*
D03*
X140600Y71500D02*
D03*
M02*
