G04*
G04 #@! TF.GenerationSoftware,Altium Limited,Altium Designer,21.4.1 (30)*
G04*
G04 Layer_Color=8388736*
%FSLAX44Y44*%
%MOMM*%
G71*
G04*
G04 #@! TF.SameCoordinates,D9E7D647-E61C-487C-AA5F-480CAE51DE59*
G04*
G04*
G04 #@! TF.FilePolarity,Negative*
G04*
G01*
G75*
%ADD24R,1.0032X1.0032*%
%ADD25R,1.1032X0.8032*%
%ADD26R,3.6032X1.5532*%
%ADD27R,0.6032X1.5532*%
%ADD28R,2.6432X1.3332*%
%ADD29C,2.0000*%
%ADD30R,1.2032X4.2032*%
%ADD31R,1.8032X3.2032*%
G04:AMPARAMS|DCode=32|XSize=1.4032mm|YSize=1.8032mm|CornerRadius=0.7016mm|HoleSize=0mm|Usage=FLASHONLY|Rotation=180.000|XOffset=0mm|YOffset=0mm|HoleType=Round|Shape=RoundedRectangle|*
%AMROUNDEDRECTD32*
21,1,1.4032,0.4000,0,0,180.0*
21,1,0.0000,1.8032,0,0,180.0*
1,1,1.4032,0.0000,0.2000*
1,1,1.4032,0.0000,0.2000*
1,1,1.4032,0.0000,-0.2000*
1,1,1.4032,0.0000,-0.2000*
%
%ADD32ROUNDEDRECTD32*%
%ADD33C,1.4032*%
%ADD34C,1.7272*%
%ADD35R,1.7272X1.7272*%
D24*
X231350Y200451D02*
D03*
Y183950D02*
D03*
X269100Y184000D02*
D03*
Y200500D02*
D03*
D25*
X231100Y217500D02*
D03*
Y232500D02*
D03*
X269100Y217500D02*
D03*
Y232500D02*
D03*
X257500Y73900D02*
D03*
Y88900D02*
D03*
X236000Y73800D02*
D03*
Y88800D02*
D03*
D26*
X250100Y20100D02*
D03*
D27*
X243600Y45850D02*
D03*
X250100D02*
D03*
X237100D02*
D03*
X263100D02*
D03*
X256600D02*
D03*
D28*
X97100Y205000D02*
D03*
Y230400D02*
D03*
X317100Y204400D02*
D03*
Y229800D02*
D03*
X97100Y29300D02*
D03*
Y54700D02*
D03*
X317100Y29700D02*
D03*
Y55100D02*
D03*
X183100Y54700D02*
D03*
Y29300D02*
D03*
X403100Y55100D02*
D03*
Y29700D02*
D03*
Y229800D02*
D03*
Y204400D02*
D03*
X183100Y230400D02*
D03*
Y205000D02*
D03*
D29*
X90000Y95000D02*
D03*
X400000Y270000D02*
D03*
D30*
X352100Y289750D02*
D03*
Y114750D02*
D03*
X168100Y289875D02*
D03*
Y114875D02*
D03*
X188100D02*
D03*
X148100D02*
D03*
X128100D02*
D03*
X372100Y114750D02*
D03*
X332100D02*
D03*
X312100D02*
D03*
X372100Y289750D02*
D03*
X332100D02*
D03*
X312100D02*
D03*
X188100Y289875D02*
D03*
X148100D02*
D03*
X128100D02*
D03*
D31*
X106100Y139125D02*
D03*
X210100D02*
D03*
X394100Y139000D02*
D03*
X290100D02*
D03*
X394100Y314000D02*
D03*
X290100D02*
D03*
X106100Y314125D02*
D03*
X210100D02*
D03*
D32*
X286350Y20100D02*
D03*
X213850D02*
D03*
D33*
X225850Y46600D02*
D03*
X274350D02*
D03*
D34*
X437400Y308500D02*
D03*
X37400D02*
D03*
Y257700D02*
D03*
Y232300D02*
D03*
X62800D02*
D03*
Y257700D02*
D03*
Y283100D02*
D03*
X37400D02*
D03*
X62800Y308500D02*
D03*
Y206900D02*
D03*
X37400D02*
D03*
X62800Y333900D02*
D03*
X37400Y67210D02*
D03*
X62800D02*
D03*
Y92610D02*
D03*
Y118010D02*
D03*
X37400D02*
D03*
X62800Y143410D02*
D03*
X37400D02*
D03*
X62800Y41810D02*
D03*
X37400D02*
D03*
Y16410D02*
D03*
X62800D02*
D03*
X37400Y92610D02*
D03*
X62800Y168810D02*
D03*
X462800Y16410D02*
D03*
X437400D02*
D03*
Y143410D02*
D03*
X462800D02*
D03*
Y92610D02*
D03*
Y67210D02*
D03*
X437400D02*
D03*
Y92610D02*
D03*
X462800Y41810D02*
D03*
X437400D02*
D03*
X462800Y118010D02*
D03*
X437400D02*
D03*
X462800Y168810D02*
D03*
X437400Y206900D02*
D03*
X462800D02*
D03*
Y308500D02*
D03*
X437400Y283100D02*
D03*
X462800Y232300D02*
D03*
X437400D02*
D03*
X462800Y257700D02*
D03*
X437400D02*
D03*
X462800Y283100D02*
D03*
Y333900D02*
D03*
D35*
X37400D02*
D03*
Y168810D02*
D03*
X437400D02*
D03*
Y333900D02*
D03*
M02*
