G04*
G04 #@! TF.GenerationSoftware,Altium Limited,Altium Designer,21.4.1 (30)*
G04*
G04 Layer_Physical_Order=3*
G04 Layer_Color=128*
%FSLAX44Y44*%
%MOMM*%
G71*
G04*
G04 #@! TF.SameCoordinates,D9E7D647-E61C-487C-AA5F-480CAE51DE59*
G04*
G04*
G04 #@! TF.FilePolarity,Negative*
G04*
G01*
G75*
%ADD45C,1.0160*%
%ADD46O,1.3000X1.7000*%
%ADD47C,1.3000*%
%ADD48C,1.4000*%
G04:AMPARAMS|DCode=49|XSize=2.324mm|YSize=2.324mm|CornerRadius=0mm|HoleSize=0mm|Usage=FLASHONLY|Rotation=0.000|XOffset=0mm|YOffset=0mm|HoleType=Round|Shape=Relief|Width=0.254mm|Gap=0.254mm|Entries=4|*
%AMTHD49*
7,0,0,2.3240,1.8160,0.2540,45*
%
%ADD49THD49*%
%ADD50C,0.8000*%
D45*
X100Y10000D02*
G03*
X10100Y-0I10000J0D01*
G01*
Y350000D02*
G03*
X100Y340000I0J-10000D01*
G01*
X500100D02*
G03*
X490100Y350000I-10000J0D01*
G01*
Y-0D02*
G03*
X500100Y10000I0J10000D01*
G01*
X100D02*
X100D01*
Y340000D01*
X100D02*
X100D01*
X10100Y350000D02*
Y350000D01*
X490100D01*
Y350000D02*
Y350000D01*
X500100Y340000D02*
X500100D01*
Y10000D02*
Y340000D01*
X500100Y10000D02*
X500100D01*
X490100Y-0D02*
Y0D01*
X10100Y-0D02*
X490100Y0D01*
D46*
X286350Y20100D02*
D03*
X213850D02*
D03*
D47*
X225850Y46600D02*
D03*
X274350D02*
D03*
D48*
X37400Y308500D02*
D03*
Y257700D02*
D03*
Y232300D02*
D03*
X62800D02*
D03*
Y257700D02*
D03*
Y283100D02*
D03*
X37400D02*
D03*
X62800Y308500D02*
D03*
Y206900D02*
D03*
X37400D02*
D03*
Y333900D02*
D03*
X62800D02*
D03*
X37400Y67210D02*
D03*
X62800D02*
D03*
Y92610D02*
D03*
Y118010D02*
D03*
X37400D02*
D03*
X62800Y143410D02*
D03*
X37400D02*
D03*
X62800Y41810D02*
D03*
X37400D02*
D03*
Y16410D02*
D03*
X62800D02*
D03*
X37400Y92610D02*
D03*
X62800Y168810D02*
D03*
X37400D02*
D03*
X437400D02*
D03*
X462800Y16410D02*
D03*
X437400D02*
D03*
Y143410D02*
D03*
X462800D02*
D03*
Y92610D02*
D03*
Y67210D02*
D03*
X437400D02*
D03*
Y92610D02*
D03*
X462800Y41810D02*
D03*
X437400D02*
D03*
X462800Y118010D02*
D03*
X437400D02*
D03*
X462800Y168810D02*
D03*
X437400Y333900D02*
D03*
Y206900D02*
D03*
X462800D02*
D03*
Y308500D02*
D03*
X437400Y283100D02*
D03*
X462800Y232300D02*
D03*
X437400D02*
D03*
X462800Y257700D02*
D03*
X437400D02*
D03*
X462800Y283100D02*
D03*
Y333900D02*
D03*
D49*
X437400Y308500D02*
D03*
D50*
X207033Y35767D02*
D03*
X241400Y60400D02*
D03*
X252300D02*
D03*
X115100Y205000D02*
D03*
Y230000D02*
D03*
X364200Y204900D02*
D03*
X363100Y230000D02*
D03*
X116200Y29300D02*
D03*
X115700Y54800D02*
D03*
X317000Y13900D02*
D03*
X336100Y37000D02*
D03*
X308300Y172500D02*
D03*
X300814Y177500D02*
D03*
X372000Y313200D02*
D03*
X247500Y223800D02*
D03*
X165000Y245000D02*
D03*
X290000Y75000D02*
D03*
Y105000D02*
D03*
X205000Y80000D02*
D03*
Y110000D02*
D03*
X246100Y294500D02*
D03*
X231300Y122100D02*
D03*
X291050Y251900D02*
D03*
X256000Y261000D02*
D03*
X229000Y225000D02*
D03*
X90000Y340000D02*
D03*
X120000D02*
D03*
X150000D02*
D03*
X180000D02*
D03*
X210000D02*
D03*
X180000Y70000D02*
D03*
X415000Y15000D02*
D03*
X380000D02*
D03*
X405000Y165000D02*
D03*
Y190000D02*
D03*
X370000Y75000D02*
D03*
X420000Y335000D02*
D03*
X410000Y310000D02*
D03*
X385000Y250000D02*
D03*
X410000D02*
D03*
Y280000D02*
D03*
X385000D02*
D03*
X105000Y105000D02*
D03*
X90000Y80000D02*
D03*
X115000D02*
D03*
Y285000D02*
D03*
Y245000D02*
D03*
X85000D02*
D03*
X100000Y270000D02*
D03*
X85000Y285000D02*
D03*
X120000Y140000D02*
D03*
X150000D02*
D03*
Y170000D02*
D03*
X135000Y155000D02*
D03*
X120000Y170000D02*
D03*
X266000Y340000D02*
D03*
X235000D02*
D03*
X372089Y139317D02*
D03*
X372400Y173900D02*
D03*
X312350Y143844D02*
D03*
X277500Y251700D02*
D03*
X340400Y325800D02*
D03*
X297900Y162700D02*
D03*
X289600Y57200D02*
D03*
X359600Y150400D02*
D03*
X404450Y72425D02*
D03*
X310600Y70100D02*
D03*
X390699Y157600D02*
D03*
X173100Y42500D02*
D03*
X305800Y242600D02*
D03*
X245388Y248600D02*
D03*
X198600Y162500D02*
D03*
X202100Y54000D02*
D03*
X182100Y16000D02*
D03*
X161100Y230000D02*
D03*
X188100Y263000D02*
D03*
X188100Y84000D02*
D03*
X337200Y255100D02*
D03*
X167500Y167400D02*
D03*
M02*
