G04*
G04 #@! TF.GenerationSoftware,Altium Limited,Altium Designer,21.4.1 (30)*
G04*
G04 Layer_Color=32768*
%FSLAX44Y44*%
%MOMM*%
G71*
G04*
G04 #@! TF.SameCoordinates,D9E7D647-E61C-487C-AA5F-480CAE51DE59*
G04*
G04*
G04 #@! TF.FilePolarity,Positive*
G04*
G01*
G75*
%ADD10C,0.1000*%
%ADD38C,0.1500*%
%ADD72C,0.0500*%
D10*
X225850Y178450D02*
Y205950D01*
X236850D01*
Y178450D02*
Y205950D01*
X225850Y178450D02*
X236850D01*
X263600Y178500D02*
X274600D01*
Y206000D01*
X263600D02*
X274600D01*
X263600Y178500D02*
Y206000D01*
X247000Y54000D02*
Y64000D01*
X242000Y59000D02*
X252000D01*
X337100Y301100D02*
Y311100D01*
X332100Y306100D02*
X342100D01*
D38*
X24700Y194200D02*
Y346600D01*
Y194200D02*
X75500D01*
Y346600D01*
X24700D02*
X75500D01*
X37146Y270400D02*
X62800D01*
X50100Y257700D02*
Y283100D01*
X24700Y3710D02*
Y181510D01*
Y3710D02*
X75500D01*
Y181510D01*
X24700D02*
X75500D01*
X37146Y92610D02*
X62800D01*
X50100Y79910D02*
Y105310D01*
X450100Y79910D02*
Y105310D01*
X437146Y92610D02*
X462800D01*
X424700Y181510D02*
X475500D01*
Y3710D02*
Y181510D01*
X424700Y3710D02*
X475500D01*
X424700D02*
Y181510D01*
X450100Y257700D02*
Y283100D01*
X437146Y270400D02*
X462800D01*
X424700Y346600D02*
X475500D01*
Y194200D02*
Y346600D01*
X424700Y194200D02*
X475500D01*
X424700D02*
Y346600D01*
D72*
X231350Y192200D02*
Y196200D01*
Y192200D02*
X235350D01*
X231350Y188200D02*
Y192200D01*
X227350D02*
X231350D01*
X265100Y192250D02*
X269100D01*
Y188250D02*
Y192250D01*
X273100D01*
X269100D02*
Y196250D01*
X229500Y78250D02*
X264500D01*
X229500Y39750D02*
X264500D01*
X229500D02*
Y78250D01*
X264500Y39750D02*
Y78250D01*
X316100Y289100D02*
X358100D01*
X316100Y323100D02*
X358100D01*
X316100Y289100D02*
Y323100D01*
X358100Y289100D02*
Y323100D01*
X245100Y22850D02*
X255100D01*
X250100D02*
Y27850D01*
Y17850D02*
Y22850D01*
X206100Y53850D02*
X294100D01*
X206100Y-8150D02*
Y53850D01*
Y-8150D02*
X292100D01*
X294100D01*
Y53850D01*
X352100Y186500D02*
Y221500D01*
X322100D02*
X352100D01*
X322100Y186500D02*
Y221500D01*
Y186500D02*
X352100D01*
M02*
