G04*
G04 #@! TF.GenerationSoftware,Altium Limited,Altium Designer,21.4.1 (30)*
G04*
G04 Layer_Physical_Order=4*
G04 Layer_Color=16711680*
%FSLAX44Y44*%
%MOMM*%
G71*
G04*
G04 #@! TF.SameCoordinates,D9E7D647-E61C-487C-AA5F-480CAE51DE59*
G04*
G04*
G04 #@! TF.FilePolarity,Positive*
G04*
G01*
G75*
%ADD18R,0.9000X0.6000*%
%ADD36R,0.8000X0.8000*%
%ADD37C,1.0000*%
%ADD38C,0.1500*%
%ADD39C,0.6000*%
G04:AMPARAMS|DCode=40|XSize=1.2mm|YSize=1.6mm|CornerRadius=0.6mm|HoleSize=0mm|Usage=FLASHONLY|Rotation=180.000|XOffset=0mm|YOffset=0mm|HoleType=Round|Shape=RoundedRectangle|*
%AMROUNDEDRECTD40*
21,1,1.2000,0.4000,0,0,180.0*
21,1,0.0000,1.6000,0,0,180.0*
1,1,1.2000,0.0000,0.2000*
1,1,1.2000,0.0000,0.2000*
1,1,1.2000,0.0000,-0.2000*
1,1,1.2000,0.0000,-0.2000*
%
%ADD40ROUNDEDRECTD40*%
%ADD41C,1.2000*%
%ADD42C,1.5240*%
%ADD43R,1.5240X1.5240*%
%ADD44C,0.4500*%
%ADD51R,0.8000X0.8000*%
%ADD52R,0.8000X0.9000*%
%ADD53R,0.6000X0.9000*%
%ADD54R,6.1000X6.1000*%
%ADD55R,1.0000X0.3000*%
%ADD56R,0.3000X1.0000*%
%ADD57R,1.0500X0.6000*%
%ADD58R,1.0000X0.9700*%
%ADD59R,0.9000X1.0000*%
G36*
X495000Y340000D02*
Y10000D01*
X490000Y5000D01*
Y5000D01*
X10000D01*
X5000Y10000D01*
Y340000D01*
X10000Y345000D01*
X59882D01*
X60148Y343798D01*
X57676Y342775D01*
X55554Y341146D01*
X53925Y339024D01*
X52901Y336552D01*
X52719Y335170D01*
X62800D01*
X72880D01*
X72698Y336552D01*
X71675Y339024D01*
X70046Y341146D01*
X67924Y342775D01*
X65452Y343798D01*
X65718Y345000D01*
X337422D01*
X338460Y344440D01*
X338460Y343730D01*
Y339170D01*
X345000D01*
X351540D01*
Y343730D01*
X351540Y344440D01*
X352578Y345000D01*
X459882D01*
X460148Y343798D01*
X457676Y342775D01*
X455554Y341146D01*
X453925Y339024D01*
X452902Y336552D01*
X452720Y335170D01*
X462800D01*
X472881D01*
X472699Y336552D01*
X471675Y339024D01*
X470046Y341146D01*
X467924Y342775D01*
X465452Y343798D01*
X465718Y345000D01*
X490000D01*
X495000Y340000D01*
D02*
G37*
%LPC*%
G36*
X446270Y342770D02*
X428530D01*
Y325030D01*
X446270D01*
Y342770D01*
D02*
G37*
G36*
X46270D02*
X28530D01*
Y325030D01*
X46270D01*
Y342770D01*
D02*
G37*
G36*
X472881Y332630D02*
X464070D01*
Y323820D01*
X465452Y324002D01*
X467924Y325025D01*
X470046Y326654D01*
X471675Y328776D01*
X472699Y331248D01*
X472881Y332630D01*
D02*
G37*
G36*
X72880D02*
X64070D01*
Y323820D01*
X65452Y324002D01*
X67924Y325025D01*
X70046Y326654D01*
X71675Y328776D01*
X72698Y331248D01*
X72880Y332630D01*
D02*
G37*
G36*
X461530D02*
X452720D01*
X452902Y331248D01*
X453925Y328776D01*
X455554Y326654D01*
X457676Y325025D01*
X460148Y324002D01*
X461530Y323820D01*
Y332630D01*
D02*
G37*
G36*
X61530D02*
X52719D01*
X52901Y331248D01*
X53925Y328776D01*
X55554Y326654D01*
X57676Y325025D01*
X60148Y324002D01*
X61530Y323820D01*
Y332630D01*
D02*
G37*
G36*
X387600Y340633D02*
X385942Y340304D01*
X384536Y339364D01*
X383597Y337958D01*
X383267Y336300D01*
Y323100D01*
X383350Y322682D01*
Y317350D01*
X391850D01*
Y322682D01*
X391933Y323100D01*
Y336300D01*
X391604Y337958D01*
X390664Y339364D01*
X389258Y340304D01*
X387600Y340633D01*
D02*
G37*
G36*
X335250Y343150D02*
X324750D01*
Y338778D01*
X319786Y333814D01*
X318847Y332408D01*
X318517Y330750D01*
Y319850D01*
X316350D01*
Y311620D01*
X316350Y311350D01*
Y310350D01*
X316350Y310080D01*
Y308139D01*
X313445D01*
X305604Y315980D01*
X306130Y317250D01*
X306850D01*
Y328750D01*
X298350D01*
Y317250D01*
X300561D01*
Y316100D01*
X300716Y315320D01*
X301158Y314658D01*
X311158Y304658D01*
X311820Y304216D01*
X312600Y304061D01*
X316350D01*
Y301850D01*
X316350D01*
Y300850D01*
X316350D01*
Y298639D01*
X306850D01*
Y302750D01*
X298350D01*
Y294134D01*
X281158Y276942D01*
X280716Y276280D01*
X280561Y275500D01*
Y255392D01*
X279291Y254713D01*
X278866Y254997D01*
X277500Y255269D01*
X276134Y254997D01*
X274977Y254223D01*
X274203Y253066D01*
X273931Y251700D01*
X274203Y250334D01*
X274977Y249177D01*
X275461Y248853D01*
Y221250D01*
X269639D01*
Y270400D01*
X269639Y270400D01*
X269484Y271180D01*
X269042Y271842D01*
X269042Y271842D01*
X262750Y278134D01*
Y283750D01*
X251250D01*
Y281539D01*
X238750D01*
Y283750D01*
X227250D01*
Y275250D01*
X238750D01*
Y277461D01*
X251250D01*
Y275250D01*
X259866D01*
X265561Y269555D01*
Y221250D01*
X259927D01*
X259541Y222520D01*
X260164Y222936D01*
X261103Y224342D01*
X261433Y226000D01*
Y228250D01*
X262350D01*
Y238750D01*
X251850D01*
Y236833D01*
X238350D01*
Y238850D01*
X227850D01*
Y237433D01*
X226115D01*
X224456Y237103D01*
X223051Y236164D01*
X219536Y232649D01*
X218596Y231243D01*
X218267Y229585D01*
X218596Y227927D01*
X219536Y226521D01*
X220561Y225836D01*
Y221250D01*
X214850D01*
X214850Y221250D01*
Y221250D01*
X213763Y221721D01*
X213193Y222291D01*
X213434Y223500D01*
Y228350D01*
X214350D01*
Y238850D01*
X203850D01*
Y237933D01*
X186821D01*
X186335Y239107D01*
X201290Y254062D01*
X202560Y253536D01*
Y249870D01*
X207830D01*
Y255140D01*
X205414D01*
X204735Y256410D01*
X204907Y256667D01*
X256000D01*
X257658Y256997D01*
X259064Y257936D01*
X260003Y259342D01*
X260333Y261000D01*
X260003Y262658D01*
X259064Y264064D01*
X257658Y265003D01*
X256000Y265333D01*
X202100D01*
X200442Y265003D01*
X199036Y264064D01*
X171636Y236664D01*
X165799Y230827D01*
X164421Y231245D01*
X164397Y231366D01*
X163623Y232523D01*
X162466Y233297D01*
X161100Y233569D01*
X159734Y233297D01*
X158577Y232523D01*
X157803Y231366D01*
X157531Y230000D01*
X157645Y229429D01*
X148658Y220442D01*
X148216Y219780D01*
X148061Y219000D01*
Y200845D01*
X136255Y189039D01*
X43100D01*
X42320Y188884D01*
X41658Y188442D01*
X41658Y188442D01*
X35958Y182742D01*
X35516Y182080D01*
X35361Y181300D01*
Y177680D01*
X28530D01*
Y159940D01*
X46270D01*
Y177680D01*
X39439D01*
Y180455D01*
X43945Y184961D01*
X137100D01*
X137880Y185116D01*
X138542Y185558D01*
X151542Y198558D01*
X151984Y199220D01*
X152139Y200000D01*
Y218155D01*
X154241Y220257D01*
X155412Y219632D01*
X155167Y218400D01*
Y164800D01*
X155497Y163142D01*
X156436Y161736D01*
X168986Y149186D01*
X170392Y148246D01*
X172050Y147917D01*
X175850D01*
Y147250D01*
X186350D01*
Y148167D01*
X198600D01*
X200259Y148496D01*
X201664Y149436D01*
X202349Y150461D01*
X203850D01*
Y139750D01*
X214850D01*
Y128750D01*
X225561D01*
Y125800D01*
X225716Y125020D01*
X226158Y124358D01*
X227845Y122671D01*
X227731Y122100D01*
X228003Y120734D01*
X228777Y119577D01*
X229934Y118803D01*
X231300Y118531D01*
X232666Y118803D01*
X233823Y119577D01*
X234597Y120734D01*
X234869Y122100D01*
X234597Y123466D01*
X234515Y123588D01*
X234639Y124212D01*
X234639Y124212D01*
Y128750D01*
X247950D01*
X248521Y127480D01*
X248267Y126200D01*
X248267Y126200D01*
Y118100D01*
X248597Y116442D01*
X249536Y115036D01*
X253636Y110936D01*
X255042Y109997D01*
X255960Y109814D01*
Y107060D01*
X261230D01*
Y113600D01*
Y120140D01*
X256933D01*
Y126200D01*
X256679Y127480D01*
X257247Y128750D01*
X273626D01*
X273930Y128380D01*
X274246Y127480D01*
X273497Y126358D01*
X273167Y124700D01*
Y118850D01*
X272250D01*
Y108350D01*
X282750D01*
Y109267D01*
X286600D01*
X288258Y109597D01*
X289664Y110536D01*
X290604Y111942D01*
X290933Y113600D01*
X290604Y115259D01*
X289664Y116664D01*
X288258Y117604D01*
X286600Y117934D01*
X282750D01*
Y118850D01*
X281833D01*
Y124297D01*
X281933Y124800D01*
X281603Y126458D01*
X280921Y127480D01*
X281423Y128685D01*
X281483Y128750D01*
X285350D01*
Y139750D01*
X296350D01*
Y145461D01*
X307955D01*
X308912Y144504D01*
X308781Y143844D01*
X309053Y142479D01*
X309826Y141321D01*
X310984Y140547D01*
X312350Y140276D01*
X313715Y140547D01*
X314873Y141321D01*
X315647Y142479D01*
X315695Y142725D01*
X317074Y143142D01*
X323550Y136666D01*
Y128150D01*
X332050D01*
Y139650D01*
X327451D01*
X327427Y139691D01*
X328146Y140961D01*
X349255D01*
X354061Y136155D01*
Y122494D01*
X346666Y115100D01*
X337200D01*
Y102900D01*
X341411D01*
Y88100D01*
X337560D01*
X337200Y88100D01*
X336290Y88969D01*
Y89390D01*
X330020D01*
Y82000D01*
Y74610D01*
X336290D01*
Y75031D01*
X337200Y75900D01*
X337560Y75900D01*
X341411D01*
Y61250D01*
X338350D01*
Y50750D01*
X348850D01*
Y61250D01*
X345489D01*
Y75900D01*
X349700D01*
Y80716D01*
X350970Y81436D01*
X351999Y81231D01*
X353365Y81503D01*
X354523Y82276D01*
X355296Y83434D01*
X355568Y84800D01*
X355296Y86166D01*
X354523Y87323D01*
X353365Y88097D01*
X351999Y88368D01*
X350946Y88159D01*
X349700Y88100D01*
X349700Y88100D01*
X349700Y88100D01*
X345489D01*
Y102900D01*
X349700D01*
Y112366D01*
X357542Y120208D01*
X357542Y120208D01*
X357984Y120870D01*
X358139Y121650D01*
Y137000D01*
X358139Y137000D01*
X357984Y137780D01*
X357542Y138442D01*
X357542Y138442D01*
X351542Y144442D01*
X350880Y144884D01*
X350100Y145039D01*
X327945D01*
X325907Y147077D01*
X326393Y148250D01*
X331850D01*
Y159750D01*
X329168D01*
Y159871D01*
X329013Y160652D01*
X328571Y161313D01*
X328571Y161313D01*
X326193Y163691D01*
X326719Y164961D01*
X369255D01*
X387711Y146505D01*
Y115100D01*
X383500D01*
Y102900D01*
X387711D01*
Y88100D01*
X383500D01*
Y75900D01*
X386561D01*
Y61250D01*
X383350D01*
Y50750D01*
X393850D01*
Y61250D01*
X390639D01*
Y75900D01*
X395640D01*
X396000Y75900D01*
X396910Y75031D01*
Y74610D01*
X400117D01*
Y62540D01*
X397060D01*
Y57270D01*
X410140D01*
Y62540D01*
X408783D01*
Y74610D01*
X411990D01*
Y80730D01*
X404450D01*
Y82000D01*
X403180D01*
Y89390D01*
X396910D01*
Y88969D01*
X396000Y88100D01*
X395640Y88100D01*
X391789D01*
Y102900D01*
X396000D01*
Y115100D01*
X391789D01*
Y147350D01*
X391634Y148130D01*
X391192Y148792D01*
X391192Y148792D01*
X371687Y168297D01*
X371783Y168893D01*
X372145Y169567D01*
X372400D01*
X374058Y169897D01*
X375464Y170836D01*
X376403Y172242D01*
X376733Y173900D01*
X376403Y175558D01*
X375464Y176964D01*
X374058Y177903D01*
X372400Y178233D01*
X351140D01*
Y180540D01*
X349183D01*
Y187210D01*
X351890D01*
Y193480D01*
X344850D01*
Y194750D01*
X343580D01*
Y202290D01*
X338570D01*
X338044Y203560D01*
X341484Y207000D01*
X350600D01*
Y219500D01*
X346639D01*
Y227750D01*
X349850D01*
Y238250D01*
X339350D01*
Y227750D01*
X342561D01*
Y219500D01*
X339100D01*
Y210384D01*
X337563Y208847D01*
X336390Y209333D01*
Y211980D01*
X329350D01*
X322310D01*
Y206039D01*
X320100D01*
X319320Y205884D01*
X318658Y205442D01*
X312755Y199539D01*
X308363D01*
X307837Y200809D01*
X308664Y201636D01*
X309603Y203042D01*
X309933Y204700D01*
Y249750D01*
X310850D01*
Y260250D01*
X300350D01*
Y249750D01*
X301267D01*
Y206495D01*
X300636Y205864D01*
X299751Y204539D01*
X296350D01*
Y210250D01*
X292139D01*
Y237500D01*
X292139Y237500D01*
X291984Y238280D01*
X291542Y238942D01*
X288839Y241645D01*
Y247757D01*
X290109Y248519D01*
X291050Y248331D01*
X292416Y248603D01*
X293573Y249377D01*
X294347Y250534D01*
X294619Y251900D01*
X294347Y253266D01*
X293573Y254423D01*
X293089Y254747D01*
Y269405D01*
X297545Y273861D01*
X341000D01*
X341780Y274016D01*
X342442Y274458D01*
X352542Y284558D01*
X352984Y285220D01*
X353139Y286000D01*
Y292350D01*
X357850D01*
Y294661D01*
X368550D01*
Y290950D01*
X377050D01*
Y302450D01*
X368550D01*
Y298739D01*
X357850D01*
Y300560D01*
X359140D01*
Y304830D01*
X351350D01*
Y307370D01*
X359140D01*
Y311640D01*
X357850D01*
Y313561D01*
X359300D01*
X360080Y313716D01*
X360742Y314158D01*
X367080Y320496D01*
X368350Y319970D01*
Y317350D01*
X373866D01*
X385761Y305455D01*
Y302450D01*
X383550D01*
Y290950D01*
X392050D01*
Y302450D01*
X389839D01*
Y306300D01*
X389684Y307080D01*
X389242Y307742D01*
X376889Y320095D01*
Y320850D01*
X376889Y320850D01*
X376850Y321047D01*
Y328850D01*
X368350D01*
Y325139D01*
X366800D01*
X366800Y325139D01*
X366020Y324984D01*
X365358Y324542D01*
X359120Y318304D01*
X357850Y318830D01*
Y319850D01*
X344850D01*
X344733Y321072D01*
Y331360D01*
X351540D01*
Y336630D01*
X345000D01*
X337602D01*
X337336Y336364D01*
X336520Y335143D01*
X335746Y335183D01*
X335250Y335354D01*
Y343150D01*
D02*
G37*
G36*
X462800Y317446D02*
X460485Y317142D01*
X458327Y316248D01*
X456474Y314826D01*
X455052Y312973D01*
X454158Y310816D01*
X453854Y308500D01*
X454158Y306185D01*
X455052Y304027D01*
X456474Y302174D01*
X458327Y300752D01*
X460485Y299858D01*
X462800Y299554D01*
X465116Y299858D01*
X467273Y300752D01*
X469126Y302174D01*
X470548Y304027D01*
X471442Y306185D01*
X471747Y308500D01*
X471442Y310816D01*
X470548Y312973D01*
X469126Y314826D01*
X467273Y316248D01*
X465116Y317142D01*
X462800Y317446D01*
D02*
G37*
G36*
X437400D02*
X435085Y317142D01*
X432927Y316248D01*
X431074Y314826D01*
X429652Y312973D01*
X428758Y310816D01*
X428454Y308500D01*
X428758Y306185D01*
X429652Y304027D01*
X431074Y302174D01*
X432927Y300752D01*
X435085Y299858D01*
X437400Y299554D01*
X439716Y299858D01*
X441873Y300752D01*
X443726Y302174D01*
X445148Y304027D01*
X446042Y306185D01*
X446347Y308500D01*
X446042Y310816D01*
X445148Y312973D01*
X443726Y314826D01*
X441873Y316248D01*
X439716Y317142D01*
X437400Y317446D01*
D02*
G37*
G36*
X62800D02*
X60484Y317142D01*
X58327Y316248D01*
X56474Y314826D01*
X55052Y312973D01*
X54158Y310816D01*
X53853Y308500D01*
X54158Y306185D01*
X55052Y304027D01*
X56474Y302174D01*
X58327Y300752D01*
X60484Y299858D01*
X62800Y299554D01*
X65115Y299858D01*
X67273Y300752D01*
X69126Y302174D01*
X70548Y304027D01*
X71442Y306185D01*
X71746Y308500D01*
X71442Y310816D01*
X70548Y312973D01*
X69126Y314826D01*
X67273Y316248D01*
X65115Y317142D01*
X62800Y317446D01*
D02*
G37*
G36*
X37400D02*
X35084Y317142D01*
X32927Y316248D01*
X31074Y314826D01*
X29652Y312973D01*
X28758Y310816D01*
X28453Y308500D01*
X28758Y306185D01*
X29652Y304027D01*
X31074Y302174D01*
X32927Y300752D01*
X35084Y299858D01*
X37400Y299554D01*
X39715Y299858D01*
X41873Y300752D01*
X43726Y302174D01*
X45148Y304027D01*
X46042Y306185D01*
X46346Y308500D01*
X46042Y310816D01*
X45148Y312973D01*
X43726Y314826D01*
X41873Y316248D01*
X39715Y317142D01*
X37400Y317446D01*
D02*
G37*
G36*
X240040Y300040D02*
X234270D01*
Y295770D01*
X240040D01*
Y300040D01*
D02*
G37*
G36*
X231730D02*
X225960D01*
Y295770D01*
X231730D01*
Y300040D01*
D02*
G37*
G36*
X291850Y328750D02*
X283350D01*
Y327333D01*
X259100D01*
X257442Y327003D01*
X256036Y326064D01*
X255097Y324658D01*
X254767Y323000D01*
X255097Y321342D01*
X256036Y319936D01*
X257442Y318997D01*
X259100Y318667D01*
X283267D01*
Y297000D01*
X283350Y296581D01*
Y291250D01*
X291850D01*
Y296581D01*
X291933Y297000D01*
Y322999D01*
X291933Y323000D01*
X291850Y323419D01*
Y328750D01*
D02*
G37*
G36*
X257000Y298833D02*
X246100D01*
X244442Y298503D01*
X243036Y297564D01*
X242097Y296158D01*
X241767Y294500D01*
X242097Y292842D01*
X243036Y291436D01*
X244442Y290497D01*
X246100Y290167D01*
X246100Y290167D01*
X257000D01*
X257419Y290250D01*
X262750D01*
Y298750D01*
X257419D01*
X257000Y298833D01*
D02*
G37*
G36*
X240040Y293230D02*
X234270D01*
Y288960D01*
X240040D01*
Y293230D01*
D02*
G37*
G36*
X231730D02*
X225960D01*
Y288960D01*
X231730D01*
Y293230D01*
D02*
G37*
G36*
X437400Y292047D02*
X435085Y291742D01*
X432927Y290848D01*
X431074Y289426D01*
X429652Y287573D01*
X428758Y285415D01*
X428454Y283100D01*
X428758Y280784D01*
X429652Y278627D01*
X431074Y276774D01*
X432927Y275352D01*
X435085Y274458D01*
X437400Y274153D01*
X439716Y274458D01*
X441873Y275352D01*
X443726Y276774D01*
X445148Y278627D01*
X446042Y280784D01*
X446347Y283100D01*
X446042Y285415D01*
X445148Y287573D01*
X443726Y289426D01*
X441873Y290848D01*
X439716Y291742D01*
X437400Y292047D01*
D02*
G37*
G36*
X62800D02*
X60484Y291742D01*
X58327Y290848D01*
X56474Y289426D01*
X55052Y287573D01*
X54158Y285415D01*
X53853Y283100D01*
X54158Y280784D01*
X55052Y278627D01*
X56474Y276774D01*
X58327Y275352D01*
X60484Y274458D01*
X62800Y274153D01*
X65115Y274458D01*
X67273Y275352D01*
X69126Y276774D01*
X70548Y278627D01*
X71442Y280784D01*
X71746Y283100D01*
X71442Y285415D01*
X70548Y287573D01*
X69126Y289426D01*
X67273Y290848D01*
X65115Y291742D01*
X62800Y292047D01*
D02*
G37*
G36*
X37400D02*
X35084Y291742D01*
X32927Y290848D01*
X31074Y289426D01*
X29652Y287573D01*
X28758Y285415D01*
X28453Y283100D01*
X28758Y280784D01*
X29652Y278627D01*
X31074Y276774D01*
X32927Y275352D01*
X35084Y274458D01*
X37400Y274153D01*
X39715Y274458D01*
X41873Y275352D01*
X43726Y276774D01*
X45148Y278627D01*
X46042Y280784D01*
X46346Y283100D01*
X46042Y285415D01*
X45148Y287573D01*
X43726Y289426D01*
X41873Y290848D01*
X39715Y291742D01*
X37400Y292047D01*
D02*
G37*
G36*
X400000Y280086D02*
X397389Y279743D01*
X394957Y278735D01*
X392868Y277132D01*
X391265Y275043D01*
X390257Y272610D01*
X389914Y270000D01*
X390257Y267390D01*
X391265Y264957D01*
X392868Y262868D01*
X394957Y261265D01*
X397389Y260257D01*
X400000Y259914D01*
X402611Y260257D01*
X405043Y261265D01*
X407132Y262868D01*
X408735Y264957D01*
X409743Y267390D01*
X410086Y270000D01*
X409743Y272610D01*
X408735Y275043D01*
X407132Y277132D01*
X405043Y278735D01*
X402611Y279743D01*
X400000Y280086D01*
D02*
G37*
G36*
X168100Y266569D02*
X166734Y266297D01*
X165577Y265523D01*
X164803Y264366D01*
X164531Y263000D01*
X164803Y261634D01*
X165577Y260477D01*
X166734Y259703D01*
X168100Y259431D01*
X169466Y259703D01*
X170623Y260477D01*
X171397Y261634D01*
X171669Y263000D01*
X171397Y264366D01*
X170623Y265523D01*
X169466Y266297D01*
X168100Y266569D01*
D02*
G37*
G36*
X352100Y263569D02*
X350734Y263297D01*
X349576Y262524D01*
X348803Y261366D01*
X348531Y260000D01*
X348803Y258635D01*
X349576Y257477D01*
X350734Y256703D01*
X352100Y256432D01*
X353465Y256703D01*
X354623Y257477D01*
X355397Y258635D01*
X355668Y260000D01*
X355397Y261366D01*
X354623Y262524D01*
X353465Y263297D01*
X352100Y263569D01*
D02*
G37*
G36*
X319330Y261540D02*
X314060D01*
Y256270D01*
X319330D01*
Y261540D01*
D02*
G37*
G36*
X231830Y255140D02*
X226560D01*
Y252934D01*
X215640D01*
Y255140D01*
X210370D01*
Y248600D01*
Y242060D01*
X215640D01*
Y244267D01*
X226560D01*
Y242060D01*
X231830D01*
Y248600D01*
Y255140D01*
D02*
G37*
G36*
X263640Y255040D02*
X258370D01*
Y249770D01*
X263640D01*
Y255040D01*
D02*
G37*
G36*
X462800Y266646D02*
X460485Y266342D01*
X458327Y265448D01*
X456474Y264026D01*
X455052Y262173D01*
X454158Y260016D01*
X453854Y257700D01*
X454158Y255385D01*
X455052Y253227D01*
X456474Y251374D01*
X458327Y249952D01*
X460485Y249058D01*
X462800Y248754D01*
X465116Y249058D01*
X467273Y249952D01*
X469126Y251374D01*
X470548Y253227D01*
X471442Y255385D01*
X471747Y257700D01*
X471442Y260016D01*
X470548Y262173D01*
X469126Y264026D01*
X467273Y265448D01*
X465116Y266342D01*
X462800Y266646D01*
D02*
G37*
G36*
X437400D02*
X435085Y266342D01*
X432927Y265448D01*
X431074Y264026D01*
X429652Y262173D01*
X428758Y260016D01*
X428454Y257700D01*
X428758Y255385D01*
X429652Y253227D01*
X431074Y251374D01*
X432927Y249952D01*
X435085Y249058D01*
X437400Y248754D01*
X439716Y249058D01*
X441873Y249952D01*
X443726Y251374D01*
X445148Y253227D01*
X446042Y255385D01*
X446347Y257700D01*
X446042Y260016D01*
X445148Y262173D01*
X443726Y264026D01*
X441873Y265448D01*
X439716Y266342D01*
X437400Y266646D01*
D02*
G37*
G36*
X62800D02*
X60484Y266342D01*
X58327Y265448D01*
X56474Y264026D01*
X55052Y262173D01*
X54158Y260016D01*
X53853Y257700D01*
X54158Y255385D01*
X55052Y253227D01*
X56474Y251374D01*
X58327Y249952D01*
X60484Y249058D01*
X62800Y248754D01*
X65115Y249058D01*
X67273Y249952D01*
X69126Y251374D01*
X70548Y253227D01*
X71442Y255385D01*
X71746Y257700D01*
X71442Y260016D01*
X70548Y262173D01*
X69126Y264026D01*
X67273Y265448D01*
X65115Y266342D01*
X62800Y266646D01*
D02*
G37*
G36*
X37400D02*
X35084Y266342D01*
X32927Y265448D01*
X31074Y264026D01*
X29652Y262173D01*
X28758Y260016D01*
X28453Y257700D01*
X28758Y255385D01*
X29652Y253227D01*
X31074Y251374D01*
X32927Y249952D01*
X35084Y249058D01*
X37400Y248754D01*
X39715Y249058D01*
X41873Y249952D01*
X43726Y251374D01*
X45148Y253227D01*
X46042Y255385D01*
X46346Y257700D01*
X46042Y260016D01*
X45148Y262173D01*
X43726Y264026D01*
X41873Y265448D01*
X39715Y266342D01*
X37400Y266646D01*
D02*
G37*
G36*
X319330Y253730D02*
X314060D01*
Y248460D01*
X319330D01*
Y253730D01*
D02*
G37*
G36*
X207830Y247330D02*
X202560D01*
Y242060D01*
X207830D01*
Y247330D01*
D02*
G37*
G36*
X263640Y247230D02*
X258370D01*
Y241960D01*
X263640D01*
Y247230D01*
D02*
G37*
G36*
X239640Y255140D02*
X234370D01*
Y248600D01*
Y242060D01*
X239640D01*
Y244267D01*
X244984D01*
X245488Y244167D01*
X250560D01*
Y241960D01*
X255830D01*
Y248500D01*
Y255040D01*
X250560D01*
Y252833D01*
X245892D01*
X245388Y252934D01*
X239640D01*
Y255140D01*
D02*
G37*
G36*
X327140Y261540D02*
X321870D01*
Y255000D01*
Y248460D01*
X324843D01*
X325467Y247700D01*
Y239540D01*
X323060D01*
Y234270D01*
X329600D01*
X336140D01*
Y239540D01*
X334133D01*
Y245905D01*
X340264Y252036D01*
X341204Y253442D01*
X341533Y255100D01*
X341204Y256758D01*
X340264Y258164D01*
X338858Y259104D01*
X337200Y259433D01*
X336697Y259333D01*
X327140D01*
Y261540D01*
D02*
G37*
G36*
X379850Y235750D02*
X371350D01*
Y232039D01*
X365947D01*
X365624Y232523D01*
X364466Y233297D01*
X363100Y233568D01*
X361735Y233297D01*
X360577Y232523D01*
X359803Y231365D01*
X359532Y230000D01*
X359803Y228634D01*
X360577Y227476D01*
X361735Y226703D01*
X363100Y226431D01*
X364466Y226703D01*
X365624Y227476D01*
X365947Y227961D01*
X371350D01*
Y224250D01*
X379850D01*
Y235750D01*
D02*
G37*
G36*
X128850D02*
X120350D01*
Y232039D01*
X117947D01*
X117623Y232523D01*
X116466Y233297D01*
X115100Y233569D01*
X113734Y233297D01*
X112577Y232523D01*
X111803Y231366D01*
X111531Y230000D01*
X111803Y228634D01*
X112577Y227477D01*
X113734Y226703D01*
X115100Y226431D01*
X116466Y226703D01*
X117623Y227477D01*
X117947Y227961D01*
X120350D01*
Y224250D01*
X128850D01*
Y235750D01*
D02*
G37*
G36*
X462800Y241246D02*
X460485Y240942D01*
X458327Y240048D01*
X456474Y238626D01*
X455052Y236773D01*
X454158Y234615D01*
X453854Y232300D01*
X454158Y229984D01*
X455052Y227827D01*
X456474Y225974D01*
X458327Y224552D01*
X460485Y223658D01*
X462800Y223354D01*
X465116Y223658D01*
X467273Y224552D01*
X469126Y225974D01*
X470548Y227827D01*
X471442Y229984D01*
X471747Y232300D01*
X471442Y234615D01*
X470548Y236773D01*
X469126Y238626D01*
X467273Y240048D01*
X465116Y240942D01*
X462800Y241246D01*
D02*
G37*
G36*
X437400D02*
X435085Y240942D01*
X432927Y240048D01*
X431074Y238626D01*
X429652Y236773D01*
X428758Y234615D01*
X428454Y232300D01*
X428758Y229984D01*
X429652Y227827D01*
X431074Y225974D01*
X432927Y224552D01*
X435085Y223658D01*
X437400Y223354D01*
X439716Y223658D01*
X441873Y224552D01*
X443726Y225974D01*
X445148Y227827D01*
X446042Y229984D01*
X446347Y232300D01*
X446042Y234615D01*
X445148Y236773D01*
X443726Y238626D01*
X441873Y240048D01*
X439716Y240942D01*
X437400Y241246D01*
D02*
G37*
G36*
X62800D02*
X60484Y240942D01*
X58327Y240048D01*
X56474Y238626D01*
X55052Y236773D01*
X54158Y234615D01*
X53853Y232300D01*
X54158Y229984D01*
X55052Y227827D01*
X56474Y225974D01*
X58327Y224552D01*
X60484Y223658D01*
X62800Y223354D01*
X65115Y223658D01*
X67273Y224552D01*
X69126Y225974D01*
X70548Y227827D01*
X71442Y229984D01*
X71746Y232300D01*
X71442Y234615D01*
X70548Y236773D01*
X69126Y238626D01*
X67273Y240048D01*
X65115Y240942D01*
X62800Y241246D01*
D02*
G37*
G36*
X37400D02*
X35084Y240942D01*
X32927Y240048D01*
X31074Y238626D01*
X29652Y236773D01*
X28758Y234615D01*
X28453Y232300D01*
X28758Y229984D01*
X29652Y227827D01*
X31074Y225974D01*
X32927Y224552D01*
X35084Y223658D01*
X37400Y223354D01*
X39715Y223658D01*
X41873Y224552D01*
X43726Y225974D01*
X45148Y227827D01*
X46042Y229984D01*
X46346Y232300D01*
X46042Y234615D01*
X45148Y236773D01*
X43726Y238626D01*
X41873Y240048D01*
X39715Y240942D01*
X37400Y241246D01*
D02*
G37*
G36*
X336140Y231730D02*
X329600D01*
X323060D01*
Y226460D01*
X325467D01*
Y220790D01*
X322310D01*
Y214520D01*
X329350D01*
X336390D01*
Y220790D01*
X334133D01*
Y226460D01*
X336140D01*
Y231730D01*
D02*
G37*
G36*
X128850Y210750D02*
X120350D01*
Y207039D01*
X117947D01*
X117623Y207523D01*
X116466Y208297D01*
X115100Y208569D01*
X113734Y208297D01*
X112577Y207523D01*
X111803Y206366D01*
X111531Y205000D01*
X111803Y203634D01*
X112577Y202477D01*
X113734Y201703D01*
X115100Y201431D01*
X116466Y201703D01*
X117623Y202477D01*
X117947Y202961D01*
X120350D01*
Y199250D01*
X128850D01*
Y210750D01*
D02*
G37*
G36*
X379750Y210650D02*
X371250D01*
Y206939D01*
X367047D01*
X366723Y207423D01*
X365566Y208197D01*
X364200Y208469D01*
X362834Y208197D01*
X361677Y207423D01*
X360903Y206266D01*
X360631Y204900D01*
X360903Y203534D01*
X361677Y202377D01*
X362834Y201603D01*
X364200Y201331D01*
X365566Y201603D01*
X366723Y202377D01*
X367047Y202861D01*
X371250D01*
Y199150D01*
X379750D01*
Y210650D01*
D02*
G37*
G36*
X143850Y235750D02*
X135350D01*
Y230418D01*
X135267Y230000D01*
Y205000D01*
X135350Y204582D01*
Y199250D01*
X143850D01*
Y204582D01*
X143933Y205000D01*
Y225667D01*
X149100D01*
X150758Y225997D01*
X152164Y226936D01*
X153103Y228342D01*
X153433Y230000D01*
X153103Y231658D01*
X152164Y233064D01*
X150758Y234003D01*
X149100Y234333D01*
X143850D01*
Y235750D01*
D02*
G37*
G36*
X462800Y215847D02*
X460485Y215542D01*
X458327Y214648D01*
X456474Y213226D01*
X455052Y211373D01*
X454158Y209216D01*
X453854Y206900D01*
X454158Y204585D01*
X455052Y202427D01*
X456474Y200574D01*
X458327Y199152D01*
X460485Y198258D01*
X462800Y197953D01*
X465116Y198258D01*
X467273Y199152D01*
X469126Y200574D01*
X470548Y202427D01*
X471442Y204585D01*
X471747Y206900D01*
X471442Y209216D01*
X470548Y211373D01*
X469126Y213226D01*
X467273Y214648D01*
X465116Y215542D01*
X462800Y215847D01*
D02*
G37*
G36*
X437400D02*
X435085Y215542D01*
X432927Y214648D01*
X431074Y213226D01*
X429652Y211373D01*
X428758Y209216D01*
X428454Y206900D01*
X428758Y204585D01*
X429652Y202427D01*
X431074Y200574D01*
X432927Y199152D01*
X435085Y198258D01*
X437400Y197953D01*
X439716Y198258D01*
X441873Y199152D01*
X443726Y200574D01*
X445148Y202427D01*
X446042Y204585D01*
X446347Y206900D01*
X446042Y209216D01*
X445148Y211373D01*
X443726Y213226D01*
X441873Y214648D01*
X439716Y215542D01*
X437400Y215847D01*
D02*
G37*
G36*
X62800D02*
X60484Y215542D01*
X58327Y214648D01*
X56474Y213226D01*
X55052Y211373D01*
X54158Y209216D01*
X53853Y206900D01*
X54158Y204585D01*
X55052Y202427D01*
X56474Y200574D01*
X58327Y199152D01*
X60484Y198258D01*
X62800Y197953D01*
X65115Y198258D01*
X67273Y199152D01*
X69126Y200574D01*
X70548Y202427D01*
X71442Y204585D01*
X71746Y206900D01*
X71442Y209216D01*
X70548Y211373D01*
X69126Y213226D01*
X67273Y214648D01*
X65115Y215542D01*
X62800Y215847D01*
D02*
G37*
G36*
X37400D02*
X35084Y215542D01*
X32927Y214648D01*
X31074Y213226D01*
X29652Y211373D01*
X28758Y209216D01*
X28453Y206900D01*
X28758Y204585D01*
X29652Y202427D01*
X31074Y200574D01*
X32927Y199152D01*
X35084Y198258D01*
X37400Y197953D01*
X39715Y198258D01*
X41873Y199152D01*
X43726Y200574D01*
X45148Y202427D01*
X46042Y204585D01*
X46346Y206900D01*
X46042Y209216D01*
X45148Y211373D01*
X43726Y213226D01*
X41873Y214648D01*
X39715Y215542D01*
X37400Y215847D01*
D02*
G37*
G36*
X351890Y202290D02*
X346120D01*
Y196020D01*
X351890D01*
Y202290D01*
D02*
G37*
G36*
X394850Y235750D02*
X386350D01*
Y230418D01*
X386267Y230000D01*
Y210650D01*
X386250D01*
Y205319D01*
X386167Y204900D01*
Y181300D01*
X386497Y179642D01*
X387436Y178236D01*
X388842Y177296D01*
X390500Y176967D01*
X392158Y177296D01*
X393564Y178236D01*
X394504Y179642D01*
X394833Y181300D01*
Y204497D01*
X394933Y205000D01*
Y230000D01*
X394850Y230418D01*
Y235750D01*
D02*
G37*
G36*
X464070Y178891D02*
Y170080D01*
X472881D01*
X472699Y171462D01*
X471675Y173934D01*
X470046Y176056D01*
X467924Y177685D01*
X465452Y178709D01*
X464070Y178891D01*
D02*
G37*
G36*
X64070D02*
Y170080D01*
X72880D01*
X72698Y171462D01*
X71675Y173934D01*
X70046Y176056D01*
X67924Y177685D01*
X65452Y178709D01*
X64070Y178891D01*
D02*
G37*
G36*
X461530D02*
X460148Y178709D01*
X457676Y177685D01*
X455554Y176056D01*
X453925Y173934D01*
X452902Y171462D01*
X452720Y170080D01*
X461530D01*
Y178891D01*
D02*
G37*
G36*
X61530D02*
X60148Y178709D01*
X57676Y177685D01*
X55554Y176056D01*
X53925Y173934D01*
X52901Y171462D01*
X52719Y170080D01*
X61530D01*
Y178891D01*
D02*
G37*
G36*
X462800Y292047D02*
X460485Y291742D01*
X458327Y290848D01*
X456474Y289426D01*
X455052Y287573D01*
X454158Y285415D01*
X453854Y283100D01*
X454158Y280784D01*
X455052Y278627D01*
X456474Y276774D01*
X458327Y275352D01*
X460485Y274458D01*
X462800Y274153D01*
X465116Y274458D01*
X467273Y275352D01*
X468739Y276477D01*
X477061Y268155D01*
Y168845D01*
X473861Y165644D01*
X472981Y166033D01*
X472717Y166297D01*
X472881Y167540D01*
X462800D01*
X452720D01*
X452902Y166158D01*
X453925Y163686D01*
X455554Y161564D01*
X456538Y160809D01*
X456106Y159539D01*
X447374D01*
X446270Y159940D01*
X446270Y160809D01*
Y177680D01*
X428530D01*
Y160809D01*
X428530Y159940D01*
X427426Y159539D01*
X393613D01*
X393223Y160123D01*
X392065Y160897D01*
X390699Y161168D01*
X389334Y160897D01*
X388176Y160123D01*
X387402Y158965D01*
X387131Y157600D01*
X387402Y156234D01*
X388176Y155076D01*
X389334Y154303D01*
X390699Y154031D01*
X392065Y154303D01*
X393223Y155076D01*
X393479Y155461D01*
X468600D01*
X469380Y155616D01*
X470042Y156058D01*
X480542Y166558D01*
X480542Y166558D01*
X480984Y167220D01*
X481139Y168000D01*
X481139Y168000D01*
Y269000D01*
X480984Y269780D01*
X480542Y270442D01*
X480542Y270442D01*
X471078Y279906D01*
X471442Y280784D01*
X471747Y283100D01*
X471442Y285415D01*
X470548Y287573D01*
X469126Y289426D01*
X467273Y290848D01*
X465116Y291742D01*
X462800Y292047D01*
D02*
G37*
G36*
X72880Y167540D02*
X64070D01*
Y158730D01*
X65452Y158912D01*
X67924Y159935D01*
X70046Y161564D01*
X71675Y163686D01*
X72698Y166158D01*
X72880Y167540D01*
D02*
G37*
G36*
X61530D02*
X52719D01*
X52901Y166158D01*
X53925Y163686D01*
X55554Y161564D01*
X57676Y159935D01*
X60148Y158912D01*
X61530Y158730D01*
Y167540D01*
D02*
G37*
G36*
X341330Y161040D02*
X337060D01*
Y155270D01*
X341330D01*
Y161040D01*
D02*
G37*
G36*
Y152730D02*
X337060D01*
Y146960D01*
X341330D01*
Y152730D01*
D02*
G37*
G36*
X348140Y161040D02*
X343870D01*
Y154000D01*
Y146960D01*
X348140D01*
Y149667D01*
X354205D01*
X356536Y147336D01*
X357942Y146397D01*
X359600Y146067D01*
X361258Y146397D01*
X362664Y147336D01*
X363603Y148742D01*
X363933Y150400D01*
X363603Y152058D01*
X362664Y153464D01*
X359064Y157064D01*
X357658Y158003D01*
X356000Y158333D01*
X348140D01*
Y161040D01*
D02*
G37*
G36*
X462800Y152357D02*
X460485Y152052D01*
X458327Y151158D01*
X456474Y149736D01*
X455052Y147883D01*
X454158Y145726D01*
X453854Y143410D01*
X454158Y141095D01*
X455052Y138937D01*
X456474Y137084D01*
X458327Y135662D01*
X460485Y134768D01*
X462800Y134464D01*
X465116Y134768D01*
X467273Y135662D01*
X469126Y137084D01*
X470548Y138937D01*
X471442Y141095D01*
X471747Y143410D01*
X471442Y145726D01*
X470548Y147883D01*
X469126Y149736D01*
X467273Y151158D01*
X465116Y152052D01*
X462800Y152357D01*
D02*
G37*
G36*
X437400D02*
X435085Y152052D01*
X432927Y151158D01*
X431074Y149736D01*
X429652Y147883D01*
X428758Y145726D01*
X428454Y143410D01*
X428758Y141095D01*
X429652Y138937D01*
X431074Y137084D01*
X432927Y135662D01*
X435085Y134768D01*
X437400Y134464D01*
X439716Y134768D01*
X441873Y135662D01*
X443726Y137084D01*
X445148Y138937D01*
X446042Y141095D01*
X446347Y143410D01*
X446042Y145726D01*
X445148Y147883D01*
X443726Y149736D01*
X441873Y151158D01*
X439716Y152052D01*
X437400Y152357D01*
D02*
G37*
G36*
X62800D02*
X60484Y152052D01*
X58327Y151158D01*
X56474Y149736D01*
X55052Y147883D01*
X54158Y145726D01*
X53853Y143410D01*
X54158Y141095D01*
X55052Y138937D01*
X56474Y137084D01*
X58327Y135662D01*
X60484Y134768D01*
X62800Y134464D01*
X65115Y134768D01*
X67273Y135662D01*
X69126Y137084D01*
X70548Y138937D01*
X71442Y141095D01*
X71746Y143410D01*
X71442Y145726D01*
X70548Y147883D01*
X69126Y149736D01*
X67273Y151158D01*
X65115Y152052D01*
X62800Y152357D01*
D02*
G37*
G36*
X37400D02*
X35084Y152052D01*
X32927Y151158D01*
X31074Y149736D01*
X29652Y147883D01*
X28758Y145726D01*
X28453Y143410D01*
X28758Y141095D01*
X29652Y138937D01*
X31074Y137084D01*
X32927Y135662D01*
X35084Y134768D01*
X37400Y134464D01*
X39715Y134768D01*
X41873Y135662D01*
X43726Y137084D01*
X45148Y138937D01*
X46042Y141095D01*
X46346Y143410D01*
X46042Y145726D01*
X45148Y147883D01*
X43726Y149736D01*
X41873Y151158D01*
X39715Y152052D01*
X37400Y152357D01*
D02*
G37*
G36*
X269040Y120140D02*
X263770D01*
Y114870D01*
X269040D01*
Y120140D01*
D02*
G37*
G36*
X462800Y126957D02*
X460485Y126652D01*
X458327Y125758D01*
X456474Y124336D01*
X455052Y122483D01*
X454158Y120326D01*
X453854Y118010D01*
X454158Y115695D01*
X455052Y113537D01*
X455222Y113316D01*
X447658Y105752D01*
X447216Y105090D01*
X447061Y104310D01*
Y95784D01*
X445791Y95532D01*
X445148Y97083D01*
X443726Y98936D01*
X441873Y100358D01*
X439716Y101252D01*
X437400Y101557D01*
X435085Y101252D01*
X432927Y100358D01*
X431074Y98936D01*
X429652Y97083D01*
X428758Y94926D01*
X428454Y92610D01*
X428758Y90295D01*
X429652Y88137D01*
X431074Y86284D01*
X432927Y84862D01*
X435085Y83968D01*
X437400Y83664D01*
X439716Y83968D01*
X441873Y84862D01*
X443726Y86284D01*
X445148Y88137D01*
X445791Y89689D01*
X447061Y89436D01*
Y70384D01*
X445791Y70132D01*
X445148Y71683D01*
X443726Y73536D01*
X441873Y74958D01*
X439716Y75852D01*
X437400Y76157D01*
X435085Y75852D01*
X432927Y74958D01*
X431074Y73536D01*
X429652Y71683D01*
X428758Y69526D01*
X428454Y67210D01*
X428758Y64895D01*
X429652Y62737D01*
X431074Y60884D01*
X432927Y59462D01*
X435085Y58569D01*
X437054Y58309D01*
X436971Y57039D01*
X426100D01*
X426100Y57039D01*
X425320Y56884D01*
X424658Y56442D01*
X424658Y56442D01*
X417255Y49039D01*
X411236D01*
X410140Y49460D01*
X410140Y50309D01*
Y54730D01*
X397060D01*
X397060Y49460D01*
X395964Y49039D01*
X336236D01*
X335140Y49460D01*
X335140Y50309D01*
Y54730D01*
X328600D01*
Y56000D01*
X327330D01*
Y62540D01*
X322060D01*
Y60333D01*
X316010D01*
X315033Y61310D01*
Y75990D01*
X316010Y76967D01*
X321210D01*
Y74610D01*
X327480D01*
Y82000D01*
Y89390D01*
X321210D01*
Y85633D01*
X314215D01*
X312556Y85303D01*
X311151Y84364D01*
X307636Y80849D01*
X306697Y79443D01*
X306367Y77785D01*
Y59515D01*
X306697Y57856D01*
X307636Y56451D01*
X311151Y52936D01*
X312556Y51997D01*
X314215Y51667D01*
X321162D01*
X322060Y50769D01*
X322060Y49460D01*
X320964Y49039D01*
X291011D01*
X291011Y49039D01*
X290231Y48884D01*
X289569Y48442D01*
X289569Y48442D01*
X277466Y36339D01*
X222645D01*
X205555Y53429D01*
X205669Y54000D01*
X205397Y55366D01*
X204623Y56523D01*
X203466Y57297D01*
X202100Y57569D01*
X200734Y57297D01*
X199577Y56523D01*
X198803Y55366D01*
X198531Y54000D01*
X198803Y52634D01*
X199577Y51477D01*
X200734Y50703D01*
X202100Y50431D01*
X202671Y50545D01*
X218604Y34613D01*
X218118Y33439D01*
X211098D01*
X210391Y34709D01*
X210602Y35767D01*
X210330Y37132D01*
X209557Y38290D01*
X208399Y39064D01*
X207033Y39335D01*
X205667Y39064D01*
X204510Y38290D01*
X203736Y37132D01*
X203465Y35767D01*
X203517Y35501D01*
X197055Y29039D01*
X192850D01*
Y31250D01*
X181350D01*
Y29539D01*
X166350D01*
Y32750D01*
X155850D01*
Y22250D01*
X166350D01*
Y25461D01*
X181350D01*
Y22750D01*
X192850D01*
Y24961D01*
X197381D01*
X197912Y23696D01*
X192255Y18039D01*
X184947D01*
X184623Y18523D01*
X183466Y19297D01*
X182100Y19569D01*
X180734Y19297D01*
X179577Y18523D01*
X178803Y17366D01*
X178531Y16000D01*
X178803Y14634D01*
X179577Y13477D01*
X180734Y12703D01*
X182100Y12431D01*
X183466Y12703D01*
X184623Y13477D01*
X184947Y13961D01*
X193100D01*
X193880Y14116D01*
X194542Y14558D01*
X206508Y26525D01*
X207517Y25756D01*
X206787Y23993D01*
X206538Y22100D01*
Y18100D01*
X206787Y16208D01*
X207517Y14444D01*
X208679Y12930D01*
X210194Y11767D01*
X211957Y11037D01*
X213850Y10788D01*
X215743Y11037D01*
X217506Y11767D01*
X219021Y12930D01*
X220183Y14444D01*
X220914Y16208D01*
X221163Y18100D01*
Y22100D01*
X220914Y23993D01*
X220183Y25756D01*
X219021Y27271D01*
X217952Y28091D01*
X218384Y29361D01*
X279300D01*
X280080Y29516D01*
X280742Y29958D01*
X292945Y42161D01*
X339250D01*
X340350Y41750D01*
X340350Y40891D01*
Y39039D01*
X338947D01*
X338623Y39523D01*
X337466Y40297D01*
X336100Y40569D01*
X334734Y40297D01*
X333577Y39523D01*
X332803Y38366D01*
X332531Y37000D01*
X332803Y35634D01*
X333577Y34477D01*
X334734Y33703D01*
X336100Y33431D01*
X337466Y33703D01*
X338623Y34477D01*
X338947Y34961D01*
X340350D01*
Y30250D01*
X348850D01*
X348850Y41750D01*
X349950Y42161D01*
X354250D01*
X355350Y41750D01*
X355350Y40891D01*
Y37418D01*
X355267Y37000D01*
Y14001D01*
X355350Y13581D01*
Y7250D01*
X363850D01*
Y13582D01*
X363933Y14000D01*
X363933Y14001D01*
Y32667D01*
X372300D01*
X373958Y32996D01*
X375364Y33936D01*
X376303Y35342D01*
X376633Y37000D01*
X376303Y38658D01*
X375364Y40064D01*
X374964Y40331D01*
X374938Y40427D01*
X375250Y41668D01*
X375522Y41694D01*
X389058Y28158D01*
X389720Y27716D01*
X390500Y27561D01*
X450700D01*
X451480Y27716D01*
X452142Y28158D01*
X458168Y34184D01*
X458327Y34062D01*
X460485Y33168D01*
X462800Y32864D01*
X465116Y33168D01*
X467273Y34062D01*
X469126Y35484D01*
X470548Y37337D01*
X471442Y39495D01*
X471747Y41810D01*
X471442Y44126D01*
X470548Y46283D01*
X469126Y48136D01*
X467273Y49558D01*
X465116Y50452D01*
X462800Y50757D01*
X460485Y50452D01*
X458327Y49558D01*
X456474Y48136D01*
X455052Y46283D01*
X454158Y44126D01*
X453854Y41810D01*
X454158Y39495D01*
X455052Y37337D01*
X455270Y37053D01*
X449855Y31639D01*
X437830D01*
X437746Y32909D01*
X438270Y32978D01*
X439716Y33168D01*
X441873Y34062D01*
X443726Y35484D01*
X445148Y37337D01*
X446042Y39495D01*
X446347Y41810D01*
X446042Y44126D01*
X445148Y46283D01*
X443726Y48136D01*
X441873Y49558D01*
X439716Y50452D01*
X437400Y50757D01*
X435085Y50452D01*
X432927Y49558D01*
X431074Y48136D01*
X429652Y46283D01*
X428758Y44126D01*
X428454Y41810D01*
X428758Y39495D01*
X429652Y37337D01*
X431074Y35484D01*
X432927Y34062D01*
X435085Y33168D01*
X436530Y32978D01*
X437054Y32909D01*
X436971Y31639D01*
X391345D01*
X379196Y43787D01*
X379682Y44961D01*
X418100D01*
X418880Y45116D01*
X419542Y45558D01*
X426945Y52961D01*
X443300D01*
X444080Y53116D01*
X444742Y53558D01*
X450542Y59358D01*
X450984Y60020D01*
X451139Y60800D01*
Y103465D01*
X458106Y110432D01*
X458327Y110262D01*
X460485Y109368D01*
X462800Y109064D01*
X465116Y109368D01*
X467273Y110262D01*
X469126Y111684D01*
X470548Y113537D01*
X471442Y115695D01*
X471747Y118010D01*
X471442Y120326D01*
X470548Y122483D01*
X469126Y124336D01*
X467273Y125758D01*
X465116Y126652D01*
X462800Y126957D01*
D02*
G37*
G36*
X437400D02*
X435085Y126652D01*
X432927Y125758D01*
X431074Y124336D01*
X429652Y122483D01*
X428758Y120326D01*
X428454Y118010D01*
X428758Y115695D01*
X429652Y113537D01*
X431074Y111684D01*
X432927Y110262D01*
X435085Y109368D01*
X437400Y109064D01*
X439716Y109368D01*
X441873Y110262D01*
X443726Y111684D01*
X445148Y113537D01*
X446042Y115695D01*
X446347Y118010D01*
X446042Y120326D01*
X445148Y122483D01*
X443726Y124336D01*
X441873Y125758D01*
X439716Y126652D01*
X437400Y126957D01*
D02*
G37*
G36*
X62800D02*
X60484Y126652D01*
X58327Y125758D01*
X56474Y124336D01*
X55052Y122483D01*
X54158Y120326D01*
X53853Y118010D01*
X54158Y115695D01*
X55052Y113537D01*
X56474Y111684D01*
X58327Y110262D01*
X60484Y109368D01*
X62800Y109064D01*
X65115Y109368D01*
X67273Y110262D01*
X69126Y111684D01*
X70548Y113537D01*
X71442Y115695D01*
X71746Y118010D01*
X71442Y120326D01*
X70548Y122483D01*
X69126Y124336D01*
X67273Y125758D01*
X65115Y126652D01*
X62800Y126957D01*
D02*
G37*
G36*
X37400D02*
X35084Y126652D01*
X32927Y125758D01*
X31074Y124336D01*
X29652Y122483D01*
X28758Y120326D01*
X28453Y118010D01*
X28758Y115695D01*
X29652Y113537D01*
X31074Y111684D01*
X32927Y110262D01*
X35084Y109368D01*
X37400Y109064D01*
X39715Y109368D01*
X41873Y110262D01*
X43726Y111684D01*
X45148Y113537D01*
X46042Y115695D01*
X46346Y118010D01*
X46042Y120326D01*
X45148Y122483D01*
X43726Y124336D01*
X41873Y125758D01*
X39715Y126652D01*
X37400Y126957D01*
D02*
G37*
G36*
X269040Y112330D02*
X263770D01*
Y107060D01*
X269040D01*
Y112330D01*
D02*
G37*
G36*
X410700Y115100D02*
X398200D01*
Y102900D01*
X410700D01*
Y104767D01*
X414975D01*
X416633Y105097D01*
X418039Y106036D01*
X418978Y107442D01*
X419308Y109100D01*
X418978Y110758D01*
X418039Y112164D01*
X416633Y113103D01*
X414975Y113433D01*
X410700D01*
Y115100D01*
D02*
G37*
G36*
X347050Y139650D02*
X338550D01*
Y134319D01*
X338467Y133900D01*
Y126633D01*
X333700D01*
X332042Y126303D01*
X330636Y125364D01*
X325736Y120464D01*
X324797Y119058D01*
X324467Y117400D01*
Y115100D01*
X322500D01*
Y102900D01*
X335000D01*
Y115100D01*
X334424D01*
X333898Y116370D01*
X335495Y117966D01*
X342800D01*
X344459Y118296D01*
X345864Y119236D01*
X346804Y120641D01*
X347133Y122300D01*
Y133900D01*
X347050Y134319D01*
Y139650D01*
D02*
G37*
G36*
X90000Y105086D02*
X87389Y104743D01*
X84957Y103735D01*
X82868Y102132D01*
X81265Y100043D01*
X80257Y97611D01*
X79914Y95000D01*
X80257Y92389D01*
X81265Y89957D01*
X82868Y87868D01*
X84957Y86265D01*
X87389Y85257D01*
X90000Y84914D01*
X92611Y85257D01*
X95043Y86265D01*
X97132Y87868D01*
X98735Y89957D01*
X99743Y92389D01*
X100086Y95000D01*
X99743Y97611D01*
X98735Y100043D01*
X97132Y102132D01*
X95043Y103735D01*
X92611Y104743D01*
X90000Y105086D01*
D02*
G37*
G36*
X462800Y101557D02*
X460485Y101252D01*
X458327Y100358D01*
X456474Y98936D01*
X455052Y97083D01*
X454158Y94926D01*
X453854Y92610D01*
X454158Y90295D01*
X455052Y88137D01*
X456474Y86284D01*
X458327Y84862D01*
X460485Y83968D01*
X462800Y83664D01*
X465116Y83968D01*
X467273Y84862D01*
X469126Y86284D01*
X470548Y88137D01*
X471442Y90295D01*
X471747Y92610D01*
X471442Y94926D01*
X470548Y97083D01*
X469126Y98936D01*
X467273Y100358D01*
X465116Y101252D01*
X462800Y101557D01*
D02*
G37*
G36*
X62800D02*
X60484Y101252D01*
X58327Y100358D01*
X56474Y98936D01*
X55052Y97083D01*
X54158Y94926D01*
X53853Y92610D01*
X54158Y90295D01*
X55052Y88137D01*
X56474Y86284D01*
X58327Y84862D01*
X60484Y83968D01*
X62800Y83664D01*
X65115Y83968D01*
X67273Y84862D01*
X69126Y86284D01*
X70548Y88137D01*
X71442Y90295D01*
X71746Y92610D01*
X71442Y94926D01*
X70548Y97083D01*
X69126Y98936D01*
X67273Y100358D01*
X65115Y101252D01*
X62800Y101557D01*
D02*
G37*
G36*
X37400D02*
X35084Y101252D01*
X32927Y100358D01*
X31074Y98936D01*
X29652Y97083D01*
X28758Y94926D01*
X28453Y92610D01*
X28758Y90295D01*
X29652Y88137D01*
X31074Y86284D01*
X32927Y84862D01*
X35084Y83968D01*
X37400Y83664D01*
X39715Y83968D01*
X41873Y84862D01*
X43726Y86284D01*
X45148Y88137D01*
X46042Y90295D01*
X46346Y92610D01*
X46042Y94926D01*
X45148Y97083D01*
X43726Y98936D01*
X41873Y100358D01*
X39715Y101252D01*
X37400Y101557D01*
D02*
G37*
G36*
X411990Y89390D02*
X405720D01*
Y83270D01*
X411990D01*
Y89390D01*
D02*
G37*
G36*
X168100Y87569D02*
X166734Y87297D01*
X165577Y86523D01*
X164803Y85366D01*
X164531Y84000D01*
X164803Y82634D01*
X165577Y81477D01*
X166734Y80703D01*
X168100Y80431D01*
X169466Y80703D01*
X170623Y81477D01*
X171397Y82634D01*
X171669Y84000D01*
X171397Y85366D01*
X170623Y86523D01*
X169466Y87297D01*
X168100Y87569D01*
D02*
G37*
G36*
X462800Y76157D02*
X460485Y75852D01*
X458327Y74958D01*
X456474Y73536D01*
X455052Y71683D01*
X454158Y69526D01*
X453854Y67210D01*
X454158Y64895D01*
X455052Y62737D01*
X456474Y60884D01*
X458327Y59462D01*
X460485Y58569D01*
X462800Y58264D01*
X465116Y58569D01*
X467273Y59462D01*
X469126Y60884D01*
X470548Y62737D01*
X471442Y64895D01*
X471747Y67210D01*
X471442Y69526D01*
X470548Y71683D01*
X469126Y73536D01*
X467273Y74958D01*
X465116Y75852D01*
X462800Y76157D01*
D02*
G37*
G36*
X62800D02*
X60484Y75852D01*
X58327Y74958D01*
X56474Y73536D01*
X55052Y71683D01*
X54158Y69526D01*
X53853Y67210D01*
X54158Y64895D01*
X55052Y62737D01*
X56474Y60884D01*
X58327Y59462D01*
X60484Y58569D01*
X62800Y58264D01*
X65115Y58569D01*
X67273Y59462D01*
X69126Y60884D01*
X70548Y62737D01*
X71442Y64895D01*
X71746Y67210D01*
X71442Y69526D01*
X70548Y71683D01*
X69126Y73536D01*
X67273Y74958D01*
X65115Y75852D01*
X62800Y76157D01*
D02*
G37*
G36*
X37400D02*
X35084Y75852D01*
X32927Y74958D01*
X31074Y73536D01*
X29652Y71683D01*
X28758Y69526D01*
X28453Y67210D01*
X28758Y64895D01*
X29652Y62737D01*
X31074Y60884D01*
X32927Y59462D01*
X35084Y58569D01*
X37400Y58264D01*
X39715Y58569D01*
X41873Y59462D01*
X43726Y60884D01*
X45148Y62737D01*
X46042Y64895D01*
X46346Y67210D01*
X46042Y69526D01*
X45148Y71683D01*
X43726Y73536D01*
X41873Y74958D01*
X39715Y75852D01*
X37400Y76157D01*
D02*
G37*
G36*
X335140Y62540D02*
X329870D01*
Y57270D01*
X335140D01*
Y62540D01*
D02*
G37*
G36*
X129850Y60750D02*
X121350D01*
Y56939D01*
X118480D01*
X118223Y57323D01*
X117066Y58097D01*
X115700Y58369D01*
X114334Y58097D01*
X113177Y57323D01*
X112403Y56166D01*
X112131Y54800D01*
X112403Y53434D01*
X113177Y52277D01*
X114334Y51503D01*
X115700Y51231D01*
X117066Y51503D01*
X118223Y52277D01*
X118614Y52861D01*
X121350D01*
Y49250D01*
X129850D01*
Y60750D01*
D02*
G37*
G36*
X242750Y74750D02*
X232250D01*
Y63250D01*
X236632D01*
Y63129D01*
X236787Y62348D01*
X237229Y61687D01*
X237945Y60971D01*
X237831Y60400D01*
X238103Y59034D01*
X238877Y57877D01*
X240006Y57122D01*
X240218Y56616D01*
X240460Y55976D01*
X240460Y55724D01*
Y50270D01*
X245730D01*
Y56040D01*
X243435D01*
X243075Y57310D01*
X243923Y57877D01*
X244697Y59034D01*
X244969Y60400D01*
X244697Y61766D01*
X243923Y62923D01*
X242766Y63697D01*
X242750Y63700D01*
Y74750D01*
D02*
G37*
G36*
X159830Y49040D02*
X154560D01*
Y43770D01*
X159830D01*
Y49040D01*
D02*
G37*
G36*
X194140Y47540D02*
X188370D01*
Y43270D01*
X194140D01*
Y47540D01*
D02*
G37*
G36*
X245730Y47730D02*
X240460D01*
Y41960D01*
X245730D01*
Y47730D01*
D02*
G37*
G36*
X261750Y74750D02*
X251250D01*
Y63760D01*
X250934Y63697D01*
X249777Y62923D01*
X249003Y61766D01*
X248731Y60400D01*
X249003Y59034D01*
X249777Y57877D01*
X250625Y57310D01*
X250265Y56040D01*
X248270D01*
Y49000D01*
Y41960D01*
X253540D01*
Y44667D01*
X256000D01*
X257658Y44997D01*
X259064Y45936D01*
X265995Y52867D01*
X268731D01*
X269046Y51597D01*
X268017Y50256D01*
X267286Y48493D01*
X267037Y46600D01*
X267286Y44707D01*
X268017Y42944D01*
X269179Y41429D01*
X270694Y40267D01*
X272457Y39537D01*
X274350Y39288D01*
X276243Y39537D01*
X278006Y40267D01*
X279521Y41429D01*
X280683Y42944D01*
X281413Y44707D01*
X281663Y46600D01*
X281413Y48493D01*
X280683Y50256D01*
X279654Y51597D01*
X279969Y52867D01*
X289600D01*
X291258Y53197D01*
X292664Y54136D01*
X293603Y55542D01*
X293933Y57200D01*
X293603Y58858D01*
X292664Y60264D01*
X291258Y61203D01*
X289600Y61533D01*
X264200D01*
X262542Y61203D01*
X261136Y60264D01*
X254810Y53938D01*
X253540Y54464D01*
X253540Y55882D01*
X253569Y56166D01*
X253809Y57199D01*
X254823Y57877D01*
X255597Y59034D01*
X255869Y60400D01*
X255755Y60971D01*
X256471Y61687D01*
X256471Y61687D01*
X256913Y62348D01*
X257068Y63129D01*
X258288Y63250D01*
X261750D01*
Y74750D01*
D02*
G37*
G36*
X225850Y53913D02*
X223958Y53664D01*
X222194Y52933D01*
X220679Y51771D01*
X219517Y50256D01*
X218787Y48493D01*
X218538Y46600D01*
X218787Y44707D01*
X219517Y42944D01*
X220679Y41429D01*
X222194Y40267D01*
X223958Y39537D01*
X225850Y39288D01*
X227743Y39537D01*
X229506Y40267D01*
X231021Y41429D01*
X232183Y42944D01*
X232913Y44707D01*
X233163Y46600D01*
X232913Y48493D01*
X232183Y50256D01*
X231021Y51771D01*
X229506Y52933D01*
X227743Y53664D01*
X225850Y53913D01*
D02*
G37*
G36*
X194140Y40730D02*
X188370D01*
Y36460D01*
X194140D01*
Y40730D01*
D02*
G37*
G36*
X167640Y49040D02*
X162370D01*
Y42500D01*
Y35960D01*
X167640D01*
Y38167D01*
X180060D01*
Y36460D01*
X185830D01*
Y42000D01*
Y47540D01*
X180060D01*
Y46833D01*
X167640D01*
Y49040D01*
D02*
G37*
G36*
X159830Y41230D02*
X154560D01*
Y35960D01*
X159830D01*
Y41230D01*
D02*
G37*
G36*
X62800Y50757D02*
X60484Y50452D01*
X58327Y49558D01*
X56474Y48136D01*
X55052Y46283D01*
X54158Y44126D01*
X53853Y41810D01*
X54158Y39495D01*
X55052Y37337D01*
X56474Y35484D01*
X58327Y34062D01*
X60484Y33168D01*
X62800Y32864D01*
X65115Y33168D01*
X67273Y34062D01*
X69126Y35484D01*
X70548Y37337D01*
X71442Y39495D01*
X71746Y41810D01*
X71442Y44126D01*
X70548Y46283D01*
X69126Y48136D01*
X67273Y49558D01*
X65115Y50452D01*
X62800Y50757D01*
D02*
G37*
G36*
X37400D02*
X35084Y50452D01*
X32927Y49558D01*
X31074Y48136D01*
X29652Y46283D01*
X28758Y44126D01*
X28453Y41810D01*
X28758Y39495D01*
X29652Y37337D01*
X31074Y35484D01*
X32927Y34062D01*
X35084Y33168D01*
X37400Y32864D01*
X39715Y33168D01*
X41873Y34062D01*
X43726Y35484D01*
X45148Y37337D01*
X46042Y39495D01*
X46346Y41810D01*
X46042Y44126D01*
X45148Y46283D01*
X43726Y48136D01*
X41873Y49558D01*
X39715Y50452D01*
X37400Y50757D01*
D02*
G37*
G36*
X129850Y35750D02*
X121350D01*
Y31339D01*
X119047D01*
X118723Y31823D01*
X117566Y32597D01*
X116200Y32869D01*
X114834Y32597D01*
X113677Y31823D01*
X112903Y30666D01*
X112631Y29300D01*
X112903Y27934D01*
X113677Y26777D01*
X114834Y26003D01*
X116200Y25731D01*
X117566Y26003D01*
X118723Y26777D01*
X119047Y27261D01*
X121350D01*
Y24250D01*
X129850D01*
Y35750D01*
D02*
G37*
G36*
X140600Y75834D02*
X138942Y75504D01*
X137536Y74564D01*
X136597Y73158D01*
X136267Y71500D01*
Y55000D01*
Y30000D01*
X136350Y29582D01*
Y24250D01*
X144850D01*
Y29582D01*
X144933Y30000D01*
Y55000D01*
Y71500D01*
X144604Y73158D01*
X143664Y74564D01*
X142258Y75504D01*
X140600Y75834D01*
D02*
G37*
G36*
X348850Y18750D02*
X340350D01*
Y15939D01*
X319847D01*
X319523Y16423D01*
X318366Y17197D01*
X317000Y17469D01*
X315634Y17197D01*
X314477Y16423D01*
X313703Y15266D01*
X313431Y13900D01*
X313703Y12534D01*
X314477Y11377D01*
X315634Y10603D01*
X317000Y10331D01*
X318366Y10603D01*
X319523Y11377D01*
X319847Y11861D01*
X340350D01*
Y7250D01*
X348850D01*
Y18750D01*
D02*
G37*
G36*
X286350Y29413D02*
X284457Y29164D01*
X282694Y28433D01*
X281179Y27271D01*
X280017Y25756D01*
X279286Y23993D01*
X279037Y22100D01*
Y18100D01*
X279286Y16208D01*
X280017Y14444D01*
X281179Y12930D01*
X282694Y11767D01*
X284457Y11037D01*
X286350Y10788D01*
X288242Y11037D01*
X290006Y11767D01*
X291521Y12930D01*
X292683Y14444D01*
X293413Y16208D01*
X293662Y18100D01*
Y22100D01*
X293413Y23993D01*
X292683Y25756D01*
X291521Y27271D01*
X290006Y28433D01*
X288242Y29164D01*
X286350Y29413D01*
D02*
G37*
G36*
X462800Y25357D02*
X460485Y25052D01*
X458327Y24158D01*
X456474Y22736D01*
X455052Y20883D01*
X454158Y18726D01*
X453854Y16410D01*
X454158Y14095D01*
X455052Y11937D01*
X456474Y10084D01*
X458327Y8662D01*
X460485Y7768D01*
X462800Y7464D01*
X465116Y7768D01*
X467273Y8662D01*
X469126Y10084D01*
X470548Y11937D01*
X471442Y14095D01*
X471747Y16410D01*
X471442Y18726D01*
X470548Y20883D01*
X469126Y22736D01*
X467273Y24158D01*
X465116Y25052D01*
X462800Y25357D01*
D02*
G37*
G36*
X437400D02*
X435085Y25052D01*
X432927Y24158D01*
X431074Y22736D01*
X429652Y20883D01*
X428758Y18726D01*
X428454Y16410D01*
X428758Y14095D01*
X429652Y11937D01*
X431074Y10084D01*
X432927Y8662D01*
X435085Y7768D01*
X437400Y7464D01*
X439716Y7768D01*
X441873Y8662D01*
X443726Y10084D01*
X445148Y11937D01*
X446042Y14095D01*
X446347Y16410D01*
X446042Y18726D01*
X445148Y20883D01*
X443726Y22736D01*
X441873Y24158D01*
X439716Y25052D01*
X437400Y25357D01*
D02*
G37*
G36*
X62800D02*
X60484Y25052D01*
X58327Y24158D01*
X56474Y22736D01*
X55052Y20883D01*
X54158Y18726D01*
X53853Y16410D01*
X54158Y14095D01*
X55052Y11937D01*
X56474Y10084D01*
X58327Y8662D01*
X60484Y7768D01*
X62800Y7464D01*
X65115Y7768D01*
X67273Y8662D01*
X69126Y10084D01*
X70548Y11937D01*
X71442Y14095D01*
X71746Y16410D01*
X71442Y18726D01*
X70548Y20883D01*
X69126Y22736D01*
X67273Y24158D01*
X65115Y25052D01*
X62800Y25357D01*
D02*
G37*
G36*
X37400D02*
X35084Y25052D01*
X32927Y24158D01*
X31074Y22736D01*
X29652Y20883D01*
X28758Y18726D01*
X28453Y16410D01*
X28758Y14095D01*
X29652Y11937D01*
X31074Y10084D01*
X32927Y8662D01*
X35084Y7768D01*
X37400Y7464D01*
X39715Y7768D01*
X41873Y8662D01*
X43726Y10084D01*
X45148Y11937D01*
X46042Y14095D01*
X46346Y16410D01*
X46042Y18726D01*
X45148Y20883D01*
X43726Y22736D01*
X41873Y24158D01*
X39715Y25052D01*
X37400Y25357D01*
D02*
G37*
%LPD*%
G36*
X334061Y299855D02*
Y291445D01*
X325555Y282939D01*
X294719D01*
X294254Y283718D01*
X294166Y284182D01*
X301234Y291250D01*
X306850D01*
Y294561D01*
X316350D01*
Y292350D01*
X329350D01*
Y300850D01*
X329350D01*
Y301850D01*
X329639Y302599D01*
X330945Y302971D01*
X334061Y299855D01*
D02*
G37*
G36*
X334797Y332650D02*
X335250Y332650D01*
X336067Y331718D01*
Y309615D01*
X336397Y307956D01*
X337336Y306551D01*
X340851Y303036D01*
X342257Y302097D01*
X343560Y301837D01*
Y300560D01*
X344850D01*
Y292350D01*
X349061D01*
Y286845D01*
X340155Y277939D01*
X327781D01*
X327469Y279209D01*
X327842Y279458D01*
X337542Y289158D01*
X337984Y289820D01*
X338139Y290600D01*
Y300700D01*
X338139Y300700D01*
X337984Y301480D01*
X337542Y302142D01*
X337542Y302142D01*
X332142Y307542D01*
X331480Y307984D01*
X330700Y308139D01*
X329350D01*
Y310080D01*
X329350Y310350D01*
Y311350D01*
X329350Y311620D01*
Y319850D01*
X327183D01*
Y328955D01*
X330878Y332650D01*
X334797D01*
D02*
G37*
G36*
X203850Y228350D02*
X204767D01*
Y223500D01*
X205097Y221842D01*
X206036Y220436D01*
X207442Y219496D01*
X209100Y219167D01*
X210309Y219407D01*
X213287Y216429D01*
X213287Y216429D01*
X213949Y215987D01*
X214729Y215832D01*
X214850Y214612D01*
Y210250D01*
X203850D01*
Y206540D01*
X202560D01*
X202560Y206540D01*
X201350Y206684D01*
X200600Y206833D01*
X200286Y206771D01*
X187640D01*
Y209040D01*
X182370D01*
Y202500D01*
Y195960D01*
X187640D01*
Y198104D01*
X200538D01*
X201369Y198270D01*
X202560Y198460D01*
X202560Y198460D01*
X202560Y198460D01*
X203850D01*
Y184750D01*
X202580Y184672D01*
X202453Y185308D01*
X201514Y186714D01*
X198164Y190064D01*
X196758Y191003D01*
X195100Y191333D01*
X186350D01*
Y192750D01*
X175850D01*
Y191333D01*
X167100D01*
X165442Y191003D01*
X165103Y190777D01*
X163833Y191456D01*
Y216605D01*
X176495Y229267D01*
X203850D01*
Y228350D01*
D02*
G37*
G36*
X323600Y188500D02*
X327311D01*
Y179250D01*
X324350D01*
Y172193D01*
X323177Y171707D01*
X305942Y188942D01*
X305569Y189191D01*
X305880Y190461D01*
X316600D01*
X317381Y190616D01*
X318042Y191058D01*
X319945Y192961D01*
X323600D01*
Y188500D01*
D02*
G37*
G36*
X323648Y160469D02*
X323350Y159750D01*
X323350D01*
Y151293D01*
X322177Y150807D01*
X304042Y168942D01*
X303669Y169191D01*
X303980Y170461D01*
X305453D01*
X305777Y169977D01*
X306934Y169203D01*
X308300Y168931D01*
X309666Y169203D01*
X310823Y169977D01*
X311432Y170888D01*
X312824Y171292D01*
X323648Y160469D01*
D02*
G37*
G36*
X165442Y182997D02*
X167100Y182667D01*
X175850D01*
Y182250D01*
X186350D01*
Y182667D01*
X193305D01*
X195386Y180586D01*
X196792Y179647D01*
X198387Y179329D01*
X201658Y176058D01*
X201658Y176058D01*
X202320Y175616D01*
X203100Y175461D01*
X203850D01*
Y164540D01*
X201447D01*
X201124Y165024D01*
X199966Y165797D01*
X198600Y166069D01*
X197235Y165797D01*
X196077Y165024D01*
X195303Y163866D01*
X195032Y162500D01*
X195303Y161135D01*
X196077Y159977D01*
X197235Y159203D01*
X198600Y158932D01*
X199966Y159203D01*
X201124Y159977D01*
X201447Y160461D01*
X203850D01*
Y154539D01*
X202349D01*
X201664Y155564D01*
X200259Y156503D01*
X198600Y156833D01*
X186350D01*
Y157750D01*
X175850D01*
Y156583D01*
X173845D01*
X168531Y161897D01*
X169058Y163167D01*
X174560D01*
Y160960D01*
X179830D01*
Y167500D01*
Y174040D01*
X174560D01*
Y171833D01*
X168500D01*
X166842Y171503D01*
X165436Y170564D01*
X165103Y170066D01*
X163833Y170452D01*
Y182544D01*
X165103Y183223D01*
X165442Y182997D01*
D02*
G37*
%LPC*%
G36*
X179830Y209040D02*
X174560D01*
Y203770D01*
X179830D01*
Y209040D01*
D02*
G37*
G36*
Y201230D02*
X174560D01*
Y195960D01*
X179830D01*
Y201230D01*
D02*
G37*
G36*
X187640Y174040D02*
X182370D01*
Y168770D01*
X187640D01*
Y174040D01*
D02*
G37*
G36*
Y166230D02*
X182370D01*
Y160960D01*
X187640D01*
Y166230D01*
D02*
G37*
%LPD*%
D18*
X187100Y27000D02*
D03*
Y42000D02*
D03*
X257000Y279500D02*
D03*
Y294500D02*
D03*
X233000D02*
D03*
Y279500D02*
D03*
D36*
X161100Y27500D02*
D03*
Y42500D02*
D03*
X209100Y248600D02*
D03*
Y233600D02*
D03*
X257100Y233500D02*
D03*
Y248500D02*
D03*
X181100Y187500D02*
D03*
X233100Y233600D02*
D03*
X181100Y167500D02*
D03*
Y152500D02*
D03*
X233100Y248600D02*
D03*
X181100Y202500D02*
D03*
D37*
X400000Y270000D02*
D03*
X90000Y95000D02*
D03*
D38*
X252600Y172500D02*
X262600Y162500D01*
X250100Y175000D02*
X252600Y172500D01*
X262600Y162500D02*
X290100D01*
X252600Y135000D02*
Y172500D01*
X227600Y197500D02*
X250100Y175000D01*
X222600Y202500D02*
X227600Y197500D01*
Y215000D01*
X210100Y202500D02*
X222600D01*
X186600Y27500D02*
X187100Y27000D01*
X161100Y27500D02*
X186600D01*
X187100Y27000D02*
X197900D01*
X206500Y35600D01*
X206866D01*
X207033Y35767D01*
X238671Y63129D02*
X241400Y60400D01*
X237500Y69000D02*
X238671Y67829D01*
Y63129D02*
Y67829D01*
X252300Y60400D02*
X255029Y63129D01*
Y67529D01*
X256500Y69000D01*
X359300Y315600D02*
X366800Y323100D01*
X372600D01*
X351350Y315600D02*
X359300D01*
X387800Y296700D02*
X388800Y297700D01*
X374850Y319250D02*
X387800Y306300D01*
Y296700D02*
Y306300D01*
X374850Y319250D02*
Y320850D01*
X372600Y323100D02*
X374850Y320850D01*
X325425Y137775D02*
X327800Y135400D01*
Y133900D02*
Y135400D01*
X325325Y137775D02*
X325425D01*
X315350Y147750D02*
X325325Y137775D01*
X305600Y157500D02*
X315350Y147750D01*
Y147750D02*
Y147750D01*
X290100Y157500D02*
X305600D01*
X327129Y154471D02*
Y159871D01*
Y154471D02*
X327600Y154000D01*
X290600Y182000D02*
X305000D01*
X327129Y159871D01*
X290100Y182500D02*
X290600Y182000D01*
X115100Y205000D02*
X115100Y205000D01*
X124600D01*
X116100Y230000D02*
X116100Y230000D01*
X124600D01*
X115100Y230000D02*
X116100D01*
X364200Y204900D02*
X375500D01*
X363100Y230000D02*
X375600D01*
X363100Y230000D02*
X363100Y230000D01*
X124600Y29000D02*
X125600Y30000D01*
X124300Y29300D02*
X124600Y29000D01*
X116200Y29300D02*
X124300D01*
X125500Y54900D02*
X125600Y55000D01*
X116200Y54900D02*
X125500D01*
X317000Y13900D02*
X344500D01*
X344600Y14000D01*
X336100Y38000D02*
X337100Y37000D01*
X344600D01*
X336100Y37000D02*
Y38000D01*
X308300Y172500D02*
X308300Y172500D01*
X290100Y172500D02*
X308300D01*
X290100Y177500D02*
X290100Y177500D01*
X300814D01*
X300814Y177500D01*
X260750Y277250D02*
X267600Y270400D01*
Y215000D02*
Y270400D01*
X260750Y277250D02*
Y277250D01*
X258500Y279500D02*
X260750Y277250D01*
X257000Y279500D02*
X258500D01*
X233000D02*
X257000D01*
X203100Y177500D02*
X209509D01*
X209100Y233600D02*
X209100Y233599D01*
X290100Y187500D02*
X304500D01*
X325000Y167000D01*
X242700Y215100D02*
Y221500D01*
X247068Y223368D02*
X247500Y223800D01*
X244568Y223368D02*
X247068D01*
X242700Y221500D02*
X244568Y223368D01*
X247500Y215100D02*
X247600Y215000D01*
X247500Y215100D02*
Y223800D01*
X252600Y221500D02*
X257100Y226000D01*
X252600Y215000D02*
Y221500D01*
X227600Y125800D02*
X231300Y122100D01*
X291050Y251900D02*
Y270250D01*
X325000Y167000D02*
X370100D01*
X227600Y215000D02*
Y223600D01*
X229000Y225000D01*
X290100Y202500D02*
X290400Y202800D01*
X296700Y275900D02*
X341000D01*
X291050Y270250D02*
X296700Y275900D01*
X286800Y273300D02*
X294400Y280900D01*
X286800Y240800D02*
Y273300D01*
X294400Y280900D02*
X326400D01*
X242600Y215000D02*
X242700Y215100D01*
X232600Y124212D02*
Y135000D01*
X231300Y122912D02*
X232600Y124212D01*
X231300Y122100D02*
Y122912D01*
X227600Y125800D02*
Y135000D01*
X390799Y157500D02*
X468600D01*
X390699Y157600D02*
X390799Y157500D01*
X468600D02*
X479100Y168000D01*
X322850Y306100D02*
X330700D01*
X312600D02*
X322850D01*
X302600Y316100D02*
X312600Y306100D01*
X302600Y316100D02*
Y323000D01*
X257100Y226000D02*
Y226000D01*
X252600Y126200D02*
Y135000D01*
X312350Y143844D02*
Y143950D01*
X290100Y147500D02*
X308800D01*
X312350Y143950D01*
X418100Y47000D02*
X426100Y55000D01*
X443300D02*
X449100Y60800D01*
X426100Y55000D02*
X443300D01*
X282600Y215000D02*
Y275500D01*
X301900Y294800D01*
X302700D01*
X341000Y275900D02*
X351100Y286000D01*
X326400Y280900D02*
X336100Y290600D01*
Y300700D01*
X277500Y215100D02*
Y251700D01*
Y215100D02*
X277600Y215000D01*
X351100Y286000D02*
Y296350D01*
X351350Y296600D01*
X278311Y34300D02*
X291011Y47000D01*
X202100Y54000D02*
X221800Y34300D01*
X278311D01*
X208500Y31400D02*
X279300D01*
X193100Y16000D02*
X208500Y31400D01*
X279300D02*
X292100Y44200D01*
X375900D01*
X291011Y47000D02*
X418100D01*
X375900Y44200D02*
X390500Y29600D01*
X450700D02*
X462800Y41700D01*
X390500Y29600D02*
X450700D01*
X449100Y60800D02*
Y104310D01*
X290100Y162500D02*
X297700D01*
X297900Y162700D01*
X262400Y110900D02*
X262500Y111000D01*
X277600Y124800D02*
Y135000D01*
X277600Y124800D02*
X277600Y124800D01*
X198450Y182150D02*
X203100Y177500D01*
X198450Y182150D02*
Y183650D01*
X209509Y178091D02*
X210100Y177500D01*
X195100Y184200D02*
Y187000D01*
X329350Y213250D02*
X329800Y213700D01*
X290100Y202500D02*
X303400D01*
X303700Y202800D01*
X290100Y197500D02*
X313600D01*
X320100Y204000D01*
X290100Y207500D02*
Y237500D01*
X286800Y240800D02*
X290100Y237500D01*
X198600Y152500D02*
X210100D01*
X479100Y168000D02*
Y269000D01*
X462800Y283100D02*
X465000D01*
X479100Y269000D01*
X198600Y162500D02*
X210100D01*
X449100Y104310D02*
X462800Y118010D01*
X182100Y16000D02*
X193100D01*
X462800Y41700D02*
Y41810D01*
X150100Y200000D02*
Y219000D01*
X161100Y230000D01*
X43100Y187000D02*
X137100D01*
X150100Y200000D01*
X37400Y181300D02*
X43100Y187000D01*
X37400Y168810D02*
Y181300D01*
X200600Y202500D02*
X210100D01*
X343450Y109000D02*
X343600D01*
X347825Y113225D02*
Y113375D01*
X356100Y121650D01*
X343600Y109000D02*
X347825Y113225D01*
X343450Y57150D02*
X343600Y57000D01*
X343450Y57150D02*
Y82000D01*
Y109000D01*
X356100Y121650D02*
Y137000D01*
X327100Y143000D02*
X350100D01*
X356100Y137000D01*
X302600Y167500D02*
X327100Y143000D01*
X290100Y167500D02*
X302600D01*
X370100Y167000D02*
X389750Y147350D01*
Y110000D02*
Y147350D01*
X344600Y213000D02*
Y233000D01*
Y213000D02*
X344850Y212750D01*
X329350Y174750D02*
Y194750D01*
X328600Y174000D02*
X329350Y174750D01*
X329100Y195000D02*
X329350Y194750D01*
X319100Y195000D02*
X329100D01*
X290100Y192500D02*
X316600D01*
X319100Y195000D01*
X341100Y209000D02*
X344850Y212750D01*
X340600Y209000D02*
X341100D01*
X335600Y204000D02*
X340600Y209000D01*
X320100Y204000D02*
X335600D01*
X330700Y306100D02*
X336100Y300700D01*
X305600Y296600D02*
X322850D01*
X209100Y223500D02*
X214729Y217871D01*
X216850D01*
X217600Y215000D02*
Y217122D01*
X351350Y296600D02*
X351450Y296700D01*
X371900D01*
X389750Y85000D02*
Y110000D01*
X388600Y59000D02*
Y83850D01*
X389750Y85000D01*
X222600Y215000D02*
Y229585D01*
X216850Y217871D02*
X217600Y217122D01*
D39*
X277500Y113600D02*
X286600D01*
X202100Y261000D02*
X256000D01*
X174700Y233600D02*
X202100Y261000D01*
X246100Y294500D02*
X257000D01*
X246100Y294500D02*
X246100Y294500D01*
X247000Y49000D02*
X256000D01*
X264200Y57200D01*
X289600D01*
X233100Y233600D02*
X234200Y232500D01*
X245800D02*
X256100D01*
X257100Y233500D01*
X234200Y232500D02*
X245800D01*
X387600Y323100D02*
Y336300D01*
X305600Y204700D02*
Y255000D01*
X303700Y202800D02*
X305600Y204700D01*
X344700Y173900D02*
X372400D01*
X344600Y174000D02*
X344700Y173900D01*
X310700Y77785D02*
X314215Y81300D01*
X328050D02*
X328750Y82000D01*
X314215Y81300D02*
X328050D01*
X310700Y59515D02*
Y77785D01*
X245488Y248500D02*
X257100D01*
X245388Y248600D02*
X245488Y248500D01*
X257100Y226000D02*
Y233500D01*
X252600Y118100D02*
Y126200D01*
Y118100D02*
X256700Y114000D01*
X262100D02*
X262500Y113600D01*
X256700Y114000D02*
X262100D01*
X252600Y126200D02*
X252600Y126200D01*
X259100Y323000D02*
X287600D01*
X287600Y297000D02*
Y323000D01*
X343915Y306100D02*
X351350D01*
X340400Y333300D02*
X345000Y337900D01*
X340400Y309615D02*
Y333300D01*
Y309615D02*
X343915Y306100D01*
X322850Y315600D02*
Y330750D01*
X330000Y337900D01*
X327600Y56000D02*
X328600D01*
X327600Y56000D02*
X327600Y56000D01*
X314215Y56000D02*
X327600D01*
X310700Y59515D02*
X314215Y56000D01*
X277500Y113600D02*
Y124700D01*
X277600Y124800D01*
X342600Y154000D02*
X356000D01*
X359600Y150400D01*
X333700Y122300D02*
X342800D01*
X328800Y117400D02*
X333700Y122300D01*
X328800Y109050D02*
Y117400D01*
X328750Y109000D02*
X328800Y109050D01*
X404550Y109100D02*
X414975D01*
X172050Y152250D02*
X180850D01*
X159500Y164800D02*
Y218400D01*
Y164800D02*
X172050Y152250D01*
X226115Y233100D02*
X232600D01*
X222600Y229585D02*
X226115Y233100D01*
X232600D02*
X233100Y233600D01*
X159500Y218400D02*
X174700Y233600D01*
X195100Y187000D02*
X198450Y183650D01*
X161100Y42500D02*
X185100D01*
X185600Y42000D01*
X187100D01*
X329800Y213700D02*
Y233000D01*
X337100Y255000D02*
X337200Y255100D01*
X329800Y247700D02*
X337100Y255000D01*
X329600Y233000D02*
X329800Y233200D01*
Y247700D01*
X181100Y152500D02*
X198600D01*
X180850Y152250D02*
X181100Y152500D01*
X174700Y233600D02*
X209100D01*
X233100Y248600D02*
X245388D01*
X182162Y202438D02*
X200538D01*
X200600Y202500D01*
X404450Y109000D02*
X404550Y109100D01*
X342800Y122300D02*
Y133900D01*
X139600Y230000D02*
X149100D01*
X139600Y230000D02*
X139600Y230000D01*
X180600Y187000D02*
X181100Y187500D01*
X167100Y187000D02*
X180600D01*
X182100Y187500D02*
X182600Y187000D01*
X195100D01*
X182100Y202500D02*
X182162Y202438D01*
X359600Y14001D02*
Y37000D01*
Y14001D02*
X359600Y14000D01*
X344850Y174250D02*
Y194750D01*
X344600Y174000D02*
X344850Y174250D01*
X168500Y167500D02*
X181100D01*
X209100Y223500D02*
Y233599D01*
X404450Y72425D02*
Y82000D01*
Y59850D02*
Y72425D01*
X359600Y37000D02*
X372300D01*
X140600Y30000D02*
Y55000D01*
X139600Y205000D02*
Y230000D01*
X321929Y316522D02*
X322850Y315600D01*
X390500Y204900D02*
X390600Y205000D01*
Y230000D01*
X209100Y248600D02*
X233100D01*
X390500Y181300D02*
Y204900D01*
X320600Y255000D02*
X337100D01*
X140600Y55000D02*
Y71500D01*
D40*
X286350Y20100D02*
D03*
X213850D02*
D03*
D41*
X225850Y46600D02*
D03*
X274350D02*
D03*
D42*
X437400Y308500D02*
D03*
X37400D02*
D03*
Y257700D02*
D03*
Y232300D02*
D03*
X62800D02*
D03*
Y257700D02*
D03*
Y283100D02*
D03*
X37400D02*
D03*
X62800Y308500D02*
D03*
Y206900D02*
D03*
X37400D02*
D03*
X62800Y333900D02*
D03*
X37400Y67210D02*
D03*
X62800D02*
D03*
Y92610D02*
D03*
Y118010D02*
D03*
X37400D02*
D03*
X62800Y143410D02*
D03*
X37400D02*
D03*
X62800Y41810D02*
D03*
X37400D02*
D03*
Y16410D02*
D03*
X62800D02*
D03*
X37400Y92610D02*
D03*
X62800Y168810D02*
D03*
X462800Y16410D02*
D03*
X437400D02*
D03*
Y143410D02*
D03*
X462800D02*
D03*
Y92610D02*
D03*
Y67210D02*
D03*
X437400D02*
D03*
Y92610D02*
D03*
X462800Y41810D02*
D03*
X437400D02*
D03*
X462800Y118010D02*
D03*
X437400D02*
D03*
X462800Y168810D02*
D03*
X437400Y206900D02*
D03*
X462800D02*
D03*
Y308500D02*
D03*
X437400Y283100D02*
D03*
X462800Y232300D02*
D03*
X437400D02*
D03*
X462800Y257700D02*
D03*
X437400D02*
D03*
X462800Y283100D02*
D03*
Y333900D02*
D03*
D43*
X37400D02*
D03*
Y168810D02*
D03*
X437400D02*
D03*
Y333900D02*
D03*
D44*
X207033Y35767D02*
D03*
X241400Y60400D02*
D03*
X252300D02*
D03*
X115100Y205000D02*
D03*
Y230000D02*
D03*
X364200Y204900D02*
D03*
X363100Y230000D02*
D03*
X116200Y29300D02*
D03*
X115700Y54800D02*
D03*
X317000Y13900D02*
D03*
X336100Y37000D02*
D03*
X308300Y172500D02*
D03*
X300814Y177500D02*
D03*
X372000Y313200D02*
D03*
X247500Y223800D02*
D03*
X286600Y113600D02*
D03*
X165000Y245000D02*
D03*
X290000Y75000D02*
D03*
Y105000D02*
D03*
X205000Y80000D02*
D03*
Y110000D02*
D03*
X246100Y294500D02*
D03*
X231300Y122100D02*
D03*
X245800Y232500D02*
D03*
X387600Y336300D02*
D03*
X291050Y251900D02*
D03*
X256000Y261000D02*
D03*
X229000Y225000D02*
D03*
X90000Y340000D02*
D03*
X120000D02*
D03*
X150000D02*
D03*
X180000D02*
D03*
X210000D02*
D03*
X180000Y70000D02*
D03*
X415000Y15000D02*
D03*
X380000D02*
D03*
X405000Y165000D02*
D03*
Y190000D02*
D03*
X370000Y75000D02*
D03*
X420000Y335000D02*
D03*
X410000Y310000D02*
D03*
X385000Y250000D02*
D03*
X410000D02*
D03*
Y280000D02*
D03*
X385000D02*
D03*
X105000Y105000D02*
D03*
X90000Y80000D02*
D03*
X115000D02*
D03*
Y285000D02*
D03*
Y245000D02*
D03*
X85000D02*
D03*
X100000Y270000D02*
D03*
X85000Y285000D02*
D03*
X120000Y140000D02*
D03*
X150000D02*
D03*
Y170000D02*
D03*
X135000Y155000D02*
D03*
X120000Y170000D02*
D03*
X266000Y340000D02*
D03*
X235000D02*
D03*
X372089Y139317D02*
D03*
X372400Y173900D02*
D03*
X312350Y143844D02*
D03*
X259100Y323000D02*
D03*
X277500Y251700D02*
D03*
X340400Y325800D02*
D03*
X322800Y326100D02*
D03*
X297900Y162700D02*
D03*
X289600Y57200D02*
D03*
X359600Y150400D02*
D03*
X404450Y72425D02*
D03*
X310600Y70100D02*
D03*
X414975Y109100D02*
D03*
X390699Y157600D02*
D03*
X351999Y84800D02*
D03*
X173100Y42500D02*
D03*
X305800Y242600D02*
D03*
X245388Y248600D02*
D03*
X198600Y162500D02*
D03*
X202100Y54000D02*
D03*
X182100Y16000D02*
D03*
X161100Y230000D02*
D03*
X343100Y122000D02*
D03*
X188100Y263000D02*
D03*
X168100D02*
D03*
X352100Y260000D02*
D03*
X168100Y84000D02*
D03*
X188100Y84000D02*
D03*
X337200Y255100D02*
D03*
X149100Y230000D02*
D03*
X167100Y187000D02*
D03*
X167500Y167400D02*
D03*
X372300Y37000D02*
D03*
X390500Y181300D02*
D03*
X140600Y71500D02*
D03*
D51*
X345000Y337900D02*
D03*
X330000D02*
D03*
X344600Y174000D02*
D03*
X329600D02*
D03*
X277500Y113600D02*
D03*
X329600Y233000D02*
D03*
X344600D02*
D03*
X403600Y56000D02*
D03*
X328600Y56000D02*
D03*
X320600Y255000D02*
D03*
X305600D02*
D03*
X262500Y113600D02*
D03*
X388600Y56000D02*
D03*
X343600Y56000D02*
D03*
D52*
X237500Y69000D02*
D03*
X256500D02*
D03*
X247000Y49000D02*
D03*
D53*
X372600Y323100D02*
D03*
X387600D02*
D03*
X287600Y323000D02*
D03*
X302600D02*
D03*
X302600Y297000D02*
D03*
X287600D02*
D03*
X387800Y296700D02*
D03*
X372800D02*
D03*
X327800Y133900D02*
D03*
X342800D02*
D03*
X327600Y154000D02*
D03*
X342600D02*
D03*
X124600Y205000D02*
D03*
X139600D02*
D03*
X124600Y230000D02*
D03*
X139600D02*
D03*
X375500Y204900D02*
D03*
X390500D02*
D03*
X375600Y230000D02*
D03*
X390600D02*
D03*
X125600Y30000D02*
D03*
X140600D02*
D03*
X125600Y55000D02*
D03*
X140600D02*
D03*
X344600Y13000D02*
D03*
X359600D02*
D03*
X344600Y36000D02*
D03*
X359600D02*
D03*
D54*
X250100Y175000D02*
D03*
D55*
X290100Y207500D02*
D03*
Y202500D02*
D03*
Y197500D02*
D03*
Y192500D02*
D03*
Y187500D02*
D03*
Y182500D02*
D03*
Y177500D02*
D03*
Y172500D02*
D03*
Y167500D02*
D03*
Y162500D02*
D03*
Y157500D02*
D03*
Y152500D02*
D03*
Y147500D02*
D03*
Y142500D02*
D03*
X210100D02*
D03*
Y147500D02*
D03*
Y152500D02*
D03*
Y157500D02*
D03*
Y162500D02*
D03*
Y167500D02*
D03*
Y172500D02*
D03*
Y177500D02*
D03*
Y182500D02*
D03*
Y187500D02*
D03*
Y192500D02*
D03*
Y197500D02*
D03*
Y202500D02*
D03*
Y207500D02*
D03*
D56*
X282600Y135000D02*
D03*
X277600D02*
D03*
X272600D02*
D03*
X267600D02*
D03*
X262600D02*
D03*
X257600D02*
D03*
X252600D02*
D03*
X247600D02*
D03*
X242600D02*
D03*
X237600D02*
D03*
X232600D02*
D03*
X227600D02*
D03*
X222600D02*
D03*
X217600D02*
D03*
Y215000D02*
D03*
X222600D02*
D03*
X227600D02*
D03*
X232600D02*
D03*
X237600D02*
D03*
X242600D02*
D03*
X247600D02*
D03*
X252600D02*
D03*
X257600D02*
D03*
X262600D02*
D03*
X267600D02*
D03*
X272600D02*
D03*
X277600D02*
D03*
X282600D02*
D03*
D57*
X351350Y315600D02*
D03*
X322850Y306100D02*
D03*
Y296600D02*
D03*
X351350D02*
D03*
Y306100D02*
D03*
X322850Y315600D02*
D03*
D58*
X404450Y109000D02*
D03*
X328750D02*
D03*
X404450Y82000D02*
D03*
X328750Y82000D02*
D03*
X389750Y82000D02*
D03*
Y109000D02*
D03*
X343450D02*
D03*
Y82000D02*
D03*
D59*
X329350Y194750D02*
D03*
Y213250D02*
D03*
X344850D02*
D03*
Y194750D02*
D03*
M02*
