G04*
G04 #@! TF.GenerationSoftware,Altium Limited,Altium Designer,21.4.1 (30)*
G04*
G04 Layer_Color=32896*
%FSLAX44Y44*%
%MOMM*%
G71*
G04*
G04 #@! TF.SameCoordinates,D9E7D647-E61C-487C-AA5F-480CAE51DE59*
G04*
G04*
G04 #@! TF.FilePolarity,Positive*
G04*
G01*
G75*
%ADD10C,0.1000*%
%ADD11C,0.2000*%
%ADD12C,0.2500*%
%ADD15C,0.2540*%
%ADD16C,0.1200*%
%ADD70R,3.4000X2.2750*%
%ADD71R,8.7000X6.6000*%
G36*
X234187Y337671D02*
X234427Y337651D01*
X234667Y337621D01*
X234886Y337591D01*
X235096Y337541D01*
X235295Y337491D01*
X235475Y337441D01*
X235645Y337382D01*
X235795Y337322D01*
X235934Y337272D01*
X236044Y337222D01*
X236144Y337172D01*
X236224Y337142D01*
X236274Y337112D01*
X236314Y337092D01*
X236324Y337082D01*
Y335914D01*
X236134Y336044D01*
X235954Y336164D01*
X235765Y336264D01*
X235585Y336343D01*
X235405Y336423D01*
X235226Y336483D01*
X235066Y336533D01*
X234906Y336573D01*
X234766Y336603D01*
X234637Y336623D01*
X234517Y336643D01*
X234417Y336653D01*
X234337Y336663D01*
X234048D01*
X233878Y336643D01*
X233718Y336623D01*
X233578Y336583D01*
X233439Y336543D01*
X233309Y336503D01*
X233079Y336383D01*
X232890Y336254D01*
X232730Y336094D01*
X232600Y335934D01*
X232500Y335774D01*
X232421Y335605D01*
X232351Y335445D01*
X232311Y335295D01*
X232281Y335155D01*
X232261Y335046D01*
X232251Y334956D01*
Y334896D01*
Y334886D01*
Y334876D01*
X232261Y334696D01*
X232281Y334537D01*
X232311Y334377D01*
X232361Y334237D01*
X232421Y334107D01*
X232490Y333978D01*
X232660Y333758D01*
X232850Y333568D01*
X233069Y333409D01*
X233309Y333289D01*
X233549Y333179D01*
X233788Y333099D01*
X234028Y333039D01*
X234247Y332999D01*
X234437Y332969D01*
X234607Y332949D01*
X234676D01*
X234736Y332939D01*
X235675D01*
Y331921D01*
X234806D01*
X234537Y331911D01*
X234287Y331901D01*
X234058Y331871D01*
X233838Y331831D01*
X233638Y331791D01*
X233449Y331732D01*
X233269Y331672D01*
X233109Y331602D01*
X232960Y331522D01*
X232830Y331442D01*
X232700Y331362D01*
X232590Y331272D01*
X232490Y331183D01*
X232391Y331083D01*
X232241Y330893D01*
X232121Y330703D01*
X232021Y330514D01*
X231961Y330344D01*
X231922Y330184D01*
X231891Y330055D01*
X231882Y329955D01*
X231871Y329915D01*
Y329885D01*
Y329875D01*
Y329865D01*
X231882Y329695D01*
X231901Y329535D01*
X231931Y329386D01*
X231961Y329266D01*
X231991Y329166D01*
X232021Y329086D01*
X232041Y329036D01*
X232051Y329016D01*
X232121Y328887D01*
X232201Y328757D01*
X232281Y328657D01*
X232361Y328557D01*
X232430Y328487D01*
X232490Y328428D01*
X232530Y328387D01*
X232540Y328378D01*
X232660Y328288D01*
X232790Y328208D01*
X232920Y328138D01*
X233039Y328078D01*
X233139Y328038D01*
X233219Y328008D01*
X233279Y327988D01*
X233289Y327978D01*
X233299D01*
X233469Y327928D01*
X233638Y327898D01*
X233808Y327868D01*
X233958Y327859D01*
X234088Y327849D01*
X234197Y327839D01*
X234287D01*
X234537Y327849D01*
X234786Y327878D01*
X235026Y327918D01*
X235245Y327968D01*
X235465Y328038D01*
X235665Y328108D01*
X235854Y328178D01*
X236024Y328258D01*
X236174Y328338D01*
X236314Y328408D01*
X236433Y328487D01*
X236533Y328547D01*
X236613Y328597D01*
X236673Y328637D01*
X236713Y328667D01*
X236723Y328677D01*
Y327379D01*
X236553Y327280D01*
X236364Y327200D01*
X236174Y327120D01*
X235974Y327060D01*
X235575Y326960D01*
X235385Y326920D01*
X235196Y326890D01*
X235016Y326870D01*
X234856Y326850D01*
X234706Y326840D01*
X234587Y326830D01*
X234477Y326820D01*
X234337D01*
X234038Y326830D01*
X233758Y326850D01*
X233499Y326890D01*
X233279Y326930D01*
X233179Y326950D01*
X233099Y326970D01*
X233020Y326990D01*
X232960Y327010D01*
X232910Y327020D01*
X232870Y327030D01*
X232850Y327040D01*
X232840D01*
X232590Y327130D01*
X232361Y327240D01*
X232161Y327339D01*
X231991Y327449D01*
X231852Y327539D01*
X231752Y327609D01*
X231712Y327639D01*
X231682Y327659D01*
X231672Y327679D01*
X231662D01*
X231492Y327839D01*
X231343Y328008D01*
X231213Y328178D01*
X231103Y328338D01*
X231023Y328467D01*
X230963Y328577D01*
X230943Y328617D01*
X230923Y328647D01*
X230913Y328667D01*
Y328677D01*
X230823Y328897D01*
X230753Y329126D01*
X230714Y329346D01*
X230674Y329546D01*
X230654Y329715D01*
Y329795D01*
X230644Y329855D01*
Y329905D01*
Y329945D01*
Y329965D01*
Y329975D01*
X230654Y330164D01*
X230674Y330344D01*
X230704Y330514D01*
X230734Y330653D01*
X230774Y330773D01*
X230803Y330853D01*
X230823Y330913D01*
X230833Y330933D01*
X230903Y331093D01*
X230993Y331232D01*
X231073Y331362D01*
X231153Y331482D01*
X231233Y331572D01*
X231293Y331632D01*
X231332Y331682D01*
X231343Y331692D01*
X231472Y331811D01*
X231602Y331911D01*
X231732Y332001D01*
X231862Y332081D01*
X231971Y332141D01*
X232051Y332181D01*
X232111Y332211D01*
X232121Y332221D01*
X232131D01*
X232301Y332291D01*
X232470Y332351D01*
X232640Y332390D01*
X232790Y332430D01*
X232930Y332450D01*
X233029Y332470D01*
X233069D01*
X233099Y332480D01*
X233119D01*
Y332510D01*
X232930Y332570D01*
X232750Y332640D01*
X232580Y332710D01*
X232430Y332790D01*
X232281Y332879D01*
X232151Y332979D01*
X232021Y333069D01*
X231912Y333179D01*
X231702Y333389D01*
X231532Y333608D01*
X231392Y333838D01*
X231283Y334067D01*
X231203Y334277D01*
X231133Y334487D01*
X231083Y334676D01*
X231053Y334846D01*
X231033Y334976D01*
X231023Y335086D01*
Y335126D01*
Y335155D01*
Y335165D01*
Y335175D01*
X231033Y335375D01*
X231053Y335575D01*
X231093Y335744D01*
X231123Y335894D01*
X231163Y336024D01*
X231203Y336114D01*
X231223Y336174D01*
X231233Y336194D01*
X231322Y336363D01*
X231412Y336513D01*
X231512Y336643D01*
X231602Y336763D01*
X231692Y336852D01*
X231762Y336922D01*
X231802Y336972D01*
X231822Y336982D01*
X231971Y337102D01*
X232121Y337212D01*
X232281Y337292D01*
X232421Y337371D01*
X232550Y337431D01*
X232650Y337471D01*
X232690Y337481D01*
X232720Y337491D01*
X232730Y337501D01*
X232740D01*
X232940Y337561D01*
X233149Y337601D01*
X233349Y337641D01*
X233529Y337661D01*
X233688Y337671D01*
X233758D01*
X233818Y337681D01*
X233928D01*
X234187Y337671D01*
D02*
G37*
G36*
X217887D02*
X218186Y337641D01*
X218445Y337601D01*
X218565Y337571D01*
X218665Y337551D01*
X218765Y337531D01*
X218845Y337501D01*
X218925Y337481D01*
X218985Y337461D01*
X219034Y337441D01*
X219064Y337431D01*
X219084Y337421D01*
X219094D01*
X219324Y337312D01*
X219534Y337192D01*
X219723Y337072D01*
X219893Y336952D01*
X220033Y336842D01*
X220133Y336753D01*
X220172Y336723D01*
X220202Y336693D01*
X220212Y336683D01*
X220222Y336673D01*
Y335385D01*
X220033Y335585D01*
X219943Y335665D01*
X219853Y335744D01*
X219783Y335804D01*
X219723Y335854D01*
X219683Y335884D01*
X219673Y335894D01*
X219454Y336064D01*
X219344Y336134D01*
X219254Y336194D01*
X219174Y336233D01*
X219104Y336273D01*
X219064Y336293D01*
X219054Y336303D01*
X218815Y336413D01*
X218705Y336463D01*
X218605Y336493D01*
X218525Y336523D01*
X218465Y336543D01*
X218416Y336563D01*
X218406D01*
X218156Y336623D01*
X218036Y336643D01*
X217926Y336653D01*
X217837Y336663D01*
X217557D01*
X217417Y336643D01*
X217288Y336623D01*
X217178Y336603D01*
X217078Y336583D01*
X217008Y336563D01*
X216968Y336553D01*
X216948Y336543D01*
X216818Y336493D01*
X216709Y336443D01*
X216599Y336383D01*
X216509Y336323D01*
X216439Y336273D01*
X216389Y336233D01*
X216349Y336204D01*
X216339Y336194D01*
X216249Y336104D01*
X216169Y336004D01*
X216100Y335904D01*
X216040Y335804D01*
X215990Y335724D01*
X215960Y335655D01*
X215940Y335615D01*
X215930Y335595D01*
X215880Y335455D01*
X215840Y335315D01*
X215820Y335165D01*
X215800Y335036D01*
X215790Y334916D01*
X215780Y334826D01*
Y334766D01*
Y334756D01*
Y334746D01*
Y334586D01*
X215800Y334437D01*
X215810Y334297D01*
X215830Y334177D01*
X215850Y334077D01*
X215860Y333997D01*
X215880Y333948D01*
Y333928D01*
X215920Y333788D01*
X215970Y333648D01*
X216020Y333518D01*
X216080Y333409D01*
X216130Y333309D01*
X216169Y333239D01*
X216199Y333189D01*
X216210Y333169D01*
X216299Y333029D01*
X216399Y332900D01*
X216509Y332770D01*
X216609Y332660D01*
X216689Y332560D01*
X216768Y332490D01*
X216808Y332440D01*
X216828Y332420D01*
X216978Y332281D01*
X217138Y332141D01*
X217297Y332011D01*
X217447Y331891D01*
X217587Y331791D01*
X217687Y331712D01*
X217727Y331682D01*
X217757Y331662D01*
X217777Y331652D01*
X217787Y331642D01*
X218066Y331432D01*
X218326Y331232D01*
X218555Y331063D01*
X218755Y330903D01*
X218835Y330843D01*
X218905Y330783D01*
X218974Y330723D01*
X219025Y330683D01*
X219064Y330653D01*
X219094Y330624D01*
X219114Y330614D01*
X219124Y330604D01*
X219324Y330434D01*
X219494Y330264D01*
X219643Y330104D01*
X219773Y329965D01*
X219873Y329845D01*
X219953Y329755D01*
X219993Y329695D01*
X220013Y329685D01*
Y329675D01*
X220133Y329506D01*
X220222Y329326D01*
X220312Y329166D01*
X220372Y329016D01*
X220422Y328887D01*
X220462Y328787D01*
X220472Y328747D01*
X220482Y328717D01*
X220492Y328707D01*
Y328697D01*
X220542Y328497D01*
X220572Y328298D01*
X220602Y328098D01*
X220612Y327918D01*
X220622Y327759D01*
X220632Y327689D01*
Y327629D01*
Y327589D01*
Y327549D01*
Y327529D01*
Y327519D01*
Y327000D01*
X214153D01*
Y328068D01*
X219384D01*
X219374Y328228D01*
X219364Y328368D01*
X219344Y328497D01*
X219324Y328607D01*
X219304Y328697D01*
X219294Y328757D01*
X219274Y328807D01*
Y328817D01*
X219224Y328937D01*
X219164Y329056D01*
X219094Y329166D01*
X219025Y329266D01*
X218965Y329356D01*
X218925Y329416D01*
X218885Y329466D01*
X218875Y329476D01*
X218765Y329605D01*
X218635Y329725D01*
X218515Y329845D01*
X218386Y329945D01*
X218286Y330045D01*
X218196Y330115D01*
X218136Y330154D01*
X218126Y330174D01*
X218116D01*
X217926Y330324D01*
X217717Y330474D01*
X217517Y330634D01*
X217318Y330773D01*
X217148Y330893D01*
X217078Y330953D01*
X217008Y330993D01*
X216958Y331033D01*
X216918Y331063D01*
X216898Y331073D01*
X216888Y331083D01*
X216679Y331242D01*
X216479Y331392D01*
X216299Y331532D01*
X216150Y331652D01*
X216030Y331762D01*
X215940Y331841D01*
X215880Y331891D01*
X215860Y331911D01*
X215700Y332061D01*
X215561Y332221D01*
X215441Y332360D01*
X215331Y332490D01*
X215241Y332610D01*
X215181Y332690D01*
X215141Y332750D01*
X215131Y332770D01*
X215032Y332939D01*
X214942Y333109D01*
X214872Y333269D01*
X214812Y333409D01*
X214762Y333538D01*
X214732Y333638D01*
X214712Y333668D01*
Y333698D01*
X214702Y333708D01*
Y333718D01*
X214652Y333918D01*
X214612Y334107D01*
X214592Y334307D01*
X214572Y334477D01*
X214562Y334626D01*
X214552Y334696D01*
Y334746D01*
Y334796D01*
Y334826D01*
Y334846D01*
Y334856D01*
X214562Y335106D01*
X214592Y335335D01*
X214622Y335535D01*
X214662Y335714D01*
X214712Y335864D01*
X214732Y335924D01*
X214742Y335974D01*
X214762Y336014D01*
X214772Y336044D01*
X214782Y336054D01*
Y336064D01*
X214872Y336254D01*
X214982Y336423D01*
X215082Y336573D01*
X215191Y336703D01*
X215281Y336813D01*
X215351Y336892D01*
X215401Y336932D01*
X215421Y336952D01*
X215581Y337082D01*
X215740Y337192D01*
X215900Y337282D01*
X216040Y337361D01*
X216169Y337411D01*
X216279Y337461D01*
X216319Y337471D01*
X216349Y337481D01*
X216359Y337491D01*
X216369D01*
X216579Y337551D01*
X216788Y337601D01*
X216988Y337631D01*
X217178Y337661D01*
X217337Y337671D01*
X217397D01*
X217457Y337681D01*
X217567D01*
X217887Y337671D01*
D02*
G37*
G36*
X143998Y337651D02*
X144108Y337561D01*
X144218Y337481D01*
X144328Y337401D01*
X144417Y337341D01*
X144487Y337282D01*
X144537Y337252D01*
X144557Y337242D01*
X144847Y337062D01*
X144977Y336982D01*
X145106Y336912D01*
X145206Y336852D01*
X145296Y336802D01*
X145346Y336773D01*
X145356Y336763D01*
X145366D01*
X145685Y336603D01*
X145825Y336533D01*
X145965Y336463D01*
X146074Y336413D01*
X146154Y336373D01*
X146214Y336353D01*
X146224Y336343D01*
X146234D01*
X146394Y336273D01*
X146554Y336214D01*
X146693Y336164D01*
X146813Y336124D01*
X146923Y336094D01*
X147003Y336064D01*
X147053Y336054D01*
X147073Y336044D01*
Y334836D01*
X146813Y334906D01*
X146693Y334946D01*
X146584Y334986D01*
X146494Y335016D01*
X146414Y335046D01*
X146374Y335056D01*
X146354Y335066D01*
X146214Y335126D01*
X146084Y335185D01*
X145975Y335245D01*
X145865Y335295D01*
X145775Y335335D01*
X145715Y335365D01*
X145665Y335385D01*
X145655Y335395D01*
X145535Y335465D01*
X145416Y335525D01*
X145316Y335585D01*
X145226Y335645D01*
X145146Y335685D01*
X145096Y335724D01*
X145056Y335744D01*
X145046Y335754D01*
X144946Y335824D01*
X144867Y335884D01*
X144797Y335934D01*
X144737Y335984D01*
X144697Y336024D01*
X144667Y336054D01*
X144647Y336064D01*
X144637Y336074D01*
Y327000D01*
X143439D01*
Y337741D01*
X143888D01*
X143998Y337651D01*
D02*
G37*
G36*
X224784Y337661D02*
X225114Y337611D01*
X225413Y337541D01*
X225553Y337511D01*
X225683Y337471D01*
X225792Y337431D01*
X225892Y337392D01*
X225982Y337351D01*
X226062Y337322D01*
X226122Y337292D01*
X226162Y337272D01*
X226192Y337262D01*
X226202Y337252D01*
X226481Y337072D01*
X226741Y336882D01*
X226970Y336673D01*
X227170Y336473D01*
X227260Y336383D01*
X227330Y336303D01*
X227400Y336224D01*
X227449Y336154D01*
X227489Y336104D01*
X227519Y336064D01*
X227539Y336034D01*
X227549Y336024D01*
X227749Y335714D01*
X227919Y335385D01*
X228068Y335066D01*
X228188Y334766D01*
X228248Y334626D01*
X228288Y334507D01*
X228328Y334387D01*
X228358Y334297D01*
X228388Y334217D01*
X228408Y334157D01*
X228418Y334117D01*
Y334107D01*
X228517Y333678D01*
X228587Y333249D01*
X228647Y332830D01*
X228667Y332630D01*
X228677Y332450D01*
X228687Y332271D01*
X228697Y332111D01*
X228707Y331971D01*
Y331851D01*
X228717Y331752D01*
Y331682D01*
Y331642D01*
Y331622D01*
X228707Y331213D01*
X228677Y330833D01*
X228667Y330663D01*
X228647Y330494D01*
X228627Y330334D01*
X228597Y330194D01*
X228577Y330065D01*
X228557Y329945D01*
X228538Y329845D01*
X228528Y329765D01*
X228507Y329695D01*
X228498Y329645D01*
X228488Y329615D01*
Y329605D01*
X228398Y329286D01*
X228288Y328987D01*
X228178Y328727D01*
X228128Y328617D01*
X228068Y328507D01*
X228018Y328418D01*
X227978Y328328D01*
X227939Y328258D01*
X227899Y328198D01*
X227869Y328148D01*
X227849Y328118D01*
X227829Y328098D01*
Y328088D01*
X227659Y327868D01*
X227479Y327679D01*
X227300Y327519D01*
X227130Y327379D01*
X226980Y327280D01*
X226861Y327200D01*
X226821Y327170D01*
X226791Y327160D01*
X226771Y327140D01*
X226761D01*
X226521Y327030D01*
X226271Y326960D01*
X226032Y326900D01*
X225812Y326860D01*
X225713Y326850D01*
X225623Y326840D01*
X225543Y326830D01*
X225473D01*
X225423Y326820D01*
X225343D01*
X225084Y326830D01*
X224834Y326860D01*
X224615Y326900D01*
X224415Y326950D01*
X224255Y326990D01*
X224185Y327010D01*
X224135Y327030D01*
X224085Y327050D01*
X224056Y327060D01*
X224035Y327070D01*
X224025D01*
X223806Y327180D01*
X223606Y327290D01*
X223427Y327419D01*
X223277Y327529D01*
X223147Y327639D01*
X223057Y327719D01*
X222997Y327779D01*
X222977Y327789D01*
Y327799D01*
X222818Y327978D01*
X222688Y328168D01*
X222568Y328358D01*
X222468Y328537D01*
X222388Y328687D01*
X222358Y328757D01*
X222339Y328807D01*
X222319Y328857D01*
X222299Y328887D01*
X222289Y328907D01*
Y328917D01*
X222209Y329166D01*
X222149Y329416D01*
X222099Y329655D01*
X222069Y329865D01*
X222059Y329965D01*
X222049Y330055D01*
Y330134D01*
X222039Y330204D01*
Y330254D01*
Y330304D01*
Y330324D01*
Y330334D01*
X222049Y330594D01*
X222069Y330843D01*
X222109Y331063D01*
X222149Y331262D01*
X222189Y331422D01*
X222209Y331482D01*
X222229Y331542D01*
X222239Y331582D01*
X222249Y331612D01*
X222259Y331632D01*
Y331642D01*
X222348Y331861D01*
X222438Y332051D01*
X222538Y332231D01*
X222638Y332380D01*
X222728Y332500D01*
X222798Y332590D01*
X222838Y332650D01*
X222858Y332670D01*
X223007Y332820D01*
X223167Y332949D01*
X223327Y333069D01*
X223477Y333159D01*
X223606Y333229D01*
X223716Y333289D01*
X223756Y333309D01*
X223776Y333319D01*
X223796Y333329D01*
X223806D01*
X224016Y333409D01*
X224235Y333469D01*
X224435Y333508D01*
X224634Y333538D01*
X224794Y333558D01*
X224864D01*
X224924Y333568D01*
X225044D01*
X225343Y333558D01*
X225623Y333508D01*
X225882Y333448D01*
X226122Y333369D01*
X226341Y333269D01*
X226531Y333159D01*
X226711Y333039D01*
X226870Y332920D01*
X227000Y332790D01*
X227120Y332670D01*
X227220Y332560D01*
X227300Y332470D01*
X227360Y332380D01*
X227409Y332321D01*
X227430Y332281D01*
X227439Y332261D01*
X227469D01*
X227459Y332630D01*
X227439Y332969D01*
X227400Y333269D01*
X227380Y333409D01*
X227360Y333538D01*
X227350Y333658D01*
X227330Y333758D01*
X227310Y333848D01*
X227290Y333928D01*
X227280Y333988D01*
X227270Y334027D01*
X227260Y334057D01*
Y334067D01*
X227170Y334367D01*
X227070Y334626D01*
X226970Y334866D01*
X226870Y335066D01*
X226821Y335155D01*
X226781Y335235D01*
X226741Y335295D01*
X226711Y335355D01*
X226681Y335395D01*
X226661Y335425D01*
X226641Y335445D01*
Y335455D01*
X226481Y335665D01*
X226321Y335834D01*
X226152Y335994D01*
X226002Y336114D01*
X225872Y336214D01*
X225762Y336283D01*
X225723Y336313D01*
X225693Y336333D01*
X225683Y336343D01*
X225673D01*
X225453Y336453D01*
X225233Y336533D01*
X225014Y336583D01*
X224824Y336623D01*
X224644Y336643D01*
X224575Y336653D01*
X224515Y336663D01*
X224395D01*
X224065Y336643D01*
X223746Y336593D01*
X223457Y336533D01*
X223327Y336493D01*
X223207Y336453D01*
X223087Y336413D01*
X222987Y336373D01*
X222908Y336343D01*
X222828Y336313D01*
X222768Y336283D01*
X222728Y336264D01*
X222698Y336254D01*
X222688Y336244D01*
Y337382D01*
X222948Y337481D01*
X223237Y337551D01*
X223526Y337611D01*
X223806Y337641D01*
X223936Y337661D01*
X224046D01*
X224155Y337671D01*
X224245Y337681D01*
X224604D01*
X224784Y337661D01*
D02*
G37*
G36*
X263924Y330703D02*
X259921D01*
Y331652D01*
X263924D01*
Y330703D01*
D02*
G37*
G36*
X176071Y330703D02*
X172068D01*
Y331652D01*
X176071D01*
Y330703D01*
D02*
G37*
G36*
X153691D02*
X149688D01*
Y331652D01*
X153691D01*
Y330703D01*
D02*
G37*
G36*
X139596D02*
X135593D01*
Y331652D01*
X139596D01*
Y330703D01*
D02*
G37*
G36*
X257596Y327000D02*
X256408D01*
Y334038D01*
Y334297D01*
Y334537D01*
X256418Y334756D01*
Y334966D01*
Y335145D01*
X256428Y335315D01*
Y335465D01*
X256438Y335605D01*
X256448Y335714D01*
Y335824D01*
X256458Y335904D01*
Y335974D01*
Y336024D01*
X256468Y336064D01*
Y336084D01*
Y336094D01*
X256438D01*
X256378Y335834D01*
X256318Y335615D01*
X256268Y335435D01*
X256218Y335285D01*
X256188Y335165D01*
X256158Y335086D01*
X256138Y335036D01*
X256128Y335016D01*
X252545Y327000D01*
X251936D01*
X248352Y335076D01*
X248302Y335205D01*
X248242Y335365D01*
X248192Y335535D01*
X248143Y335704D01*
X248093Y335854D01*
X248083Y335924D01*
X248063Y335974D01*
X248053Y336024D01*
X248043Y336064D01*
X248033Y336084D01*
Y336094D01*
X248003D01*
X248023Y335874D01*
X248033Y335655D01*
X248053Y335455D01*
X248063Y335265D01*
X248073Y335086D01*
X248083Y334916D01*
Y334756D01*
X248093Y334616D01*
Y334487D01*
Y334377D01*
X248103Y334277D01*
Y334197D01*
Y334137D01*
Y334087D01*
Y334057D01*
Y334047D01*
Y327000D01*
X246885D01*
Y337511D01*
X248422D01*
X251716Y330204D01*
X251756Y330124D01*
X251796Y330025D01*
X251876Y329825D01*
X251956Y329615D01*
X252036Y329406D01*
X252106Y329216D01*
X252135Y329126D01*
X252165Y329056D01*
X252185Y328996D01*
X252205Y328956D01*
X252215Y328927D01*
Y328917D01*
X252265D01*
X252315Y329096D01*
X252385Y329286D01*
X252465Y329496D01*
X252545Y329705D01*
X252624Y329885D01*
X252654Y329965D01*
X252684Y330035D01*
X252704Y330094D01*
X252724Y330134D01*
X252744Y330164D01*
Y330174D01*
X255969Y337511D01*
X257596D01*
Y327000D01*
D02*
G37*
G36*
X272000D02*
X270772D01*
Y330973D01*
X269385D01*
X269065Y330983D01*
X268766Y331013D01*
X268476Y331063D01*
X268217Y331123D01*
X267967Y331193D01*
X267738Y331272D01*
X267528Y331362D01*
X267338Y331452D01*
X267179Y331532D01*
X267029Y331622D01*
X266899Y331702D01*
X266799Y331772D01*
X266719Y331831D01*
X266660Y331881D01*
X266620Y331911D01*
X266610Y331921D01*
X266430Y332101D01*
X266270Y332301D01*
X266131Y332500D01*
X266011Y332700D01*
X265911Y332910D01*
X265821Y333109D01*
X265751Y333309D01*
X265701Y333498D01*
X265661Y333678D01*
X265621Y333848D01*
X265601Y333988D01*
X265591Y334117D01*
X265581Y334227D01*
X265571Y334297D01*
Y334347D01*
Y334367D01*
X265581Y334636D01*
X265611Y334896D01*
X265661Y335135D01*
X265711Y335365D01*
X265791Y335565D01*
X265861Y335754D01*
X265951Y335934D01*
X266031Y336084D01*
X266120Y336224D01*
X266210Y336343D01*
X266280Y336443D01*
X266350Y336533D01*
X266410Y336593D01*
X266460Y336643D01*
X266490Y336673D01*
X266500Y336683D01*
X266679Y336833D01*
X266879Y336952D01*
X267089Y337072D01*
X267298Y337162D01*
X267518Y337242D01*
X267738Y337312D01*
X267947Y337361D01*
X268157Y337411D01*
X268347Y337441D01*
X268536Y337471D01*
X268696Y337481D01*
X268836Y337501D01*
X268955D01*
X269045Y337511D01*
X272000D01*
Y327000D01*
D02*
G37*
G36*
X245188Y336393D02*
X242163D01*
Y327000D01*
X240935D01*
Y336393D01*
X237901D01*
Y337511D01*
X245188D01*
Y336393D01*
D02*
G37*
G36*
X203862Y327000D02*
X202634D01*
Y331462D01*
X201496D01*
X201386Y331452D01*
X201276Y331442D01*
X201186Y331422D01*
X201106Y331412D01*
X201056Y331392D01*
X201017Y331382D01*
X201007D01*
X200907Y331352D01*
X200807Y331302D01*
X200717Y331262D01*
X200637Y331222D01*
X200577Y331173D01*
X200527Y331143D01*
X200497Y331123D01*
X200487Y331113D01*
X200398Y331043D01*
X200318Y330963D01*
X200238Y330883D01*
X200168Y330813D01*
X200108Y330743D01*
X200068Y330693D01*
X200038Y330653D01*
X200028Y330644D01*
X199939Y330534D01*
X199859Y330414D01*
X199779Y330294D01*
X199709Y330184D01*
X199649Y330094D01*
X199599Y330015D01*
X199569Y329965D01*
X199559Y329945D01*
X197792Y327000D01*
X196325D01*
X198301Y330154D01*
X198381Y330284D01*
X198451Y330394D01*
X198521Y330504D01*
X198571Y330594D01*
X198621Y330663D01*
X198661Y330713D01*
X198681Y330753D01*
X198691Y330763D01*
X198820Y330943D01*
X198880Y331023D01*
X198930Y331093D01*
X198970Y331143D01*
X199010Y331193D01*
X199030Y331213D01*
X199040Y331222D01*
X199170Y331372D01*
X199290Y331482D01*
X199340Y331522D01*
X199380Y331552D01*
X199399Y331572D01*
X199409Y331582D01*
X199559Y331692D01*
X199709Y331772D01*
X199769Y331801D01*
X199819Y331831D01*
X199849Y331841D01*
X199859Y331851D01*
Y331881D01*
X199669Y331941D01*
X199489Y332001D01*
X199320Y332071D01*
X199180Y332131D01*
X199060Y332181D01*
X198980Y332231D01*
X198920Y332261D01*
X198900Y332271D01*
X198741Y332370D01*
X198601Y332470D01*
X198481Y332570D01*
X198371Y332670D01*
X198291Y332750D01*
X198221Y332820D01*
X198182Y332859D01*
X198172Y332879D01*
X198062Y333019D01*
X197972Y333159D01*
X197882Y333299D01*
X197822Y333428D01*
X197772Y333538D01*
X197732Y333618D01*
X197712Y333678D01*
X197703Y333698D01*
X197643Y333878D01*
X197603Y334047D01*
X197573Y334217D01*
X197553Y334377D01*
X197543Y334507D01*
X197533Y334616D01*
Y334656D01*
Y334686D01*
Y334696D01*
Y334706D01*
X197543Y334966D01*
X197573Y335195D01*
X197613Y335405D01*
X197653Y335585D01*
X197693Y335734D01*
X197712Y335794D01*
X197732Y335844D01*
X197752Y335884D01*
X197762Y335914D01*
X197772Y335924D01*
Y335934D01*
X197872Y336124D01*
X197982Y336293D01*
X198092Y336443D01*
X198192Y336573D01*
X198291Y336673D01*
X198371Y336753D01*
X198421Y336792D01*
X198431Y336813D01*
X198441D01*
X198611Y336932D01*
X198781Y337042D01*
X198950Y337132D01*
X199110Y337202D01*
X199250Y337262D01*
X199359Y337302D01*
X199399Y337312D01*
X199429Y337322D01*
X199449Y337332D01*
X199459D01*
X199679Y337392D01*
X199899Y337431D01*
X200118Y337471D01*
X200308Y337491D01*
X200478Y337501D01*
X200547D01*
X200607Y337511D01*
X203862D01*
Y327000D01*
D02*
G37*
G36*
X194877Y327000D02*
X192092D01*
X191623Y327020D01*
X191174Y327060D01*
X190755Y327140D01*
X190356Y327230D01*
X189986Y327339D01*
X189647Y327469D01*
X189337Y327599D01*
X189058Y327739D01*
X188808Y327868D01*
X188589Y328008D01*
X188409Y328128D01*
X188249Y328238D01*
X188130Y328328D01*
X188040Y328408D01*
X187990Y328447D01*
X187970Y328467D01*
X187700Y328757D01*
X187461Y329056D01*
X187251Y329376D01*
X187071Y329705D01*
X186922Y330035D01*
X186802Y330354D01*
X186702Y330673D01*
X186612Y330983D01*
X186552Y331262D01*
X186502Y331532D01*
X186472Y331772D01*
X186443Y331981D01*
Y332071D01*
X186433Y332151D01*
Y332211D01*
X186423Y332271D01*
Y332321D01*
Y332350D01*
Y332370D01*
Y332380D01*
X186443Y332850D01*
X186483Y333289D01*
X186562Y333688D01*
X186662Y334077D01*
X186792Y334427D01*
X186932Y334756D01*
X187101Y335066D01*
X187291Y335345D01*
X187491Y335605D01*
X187710Y335844D01*
X187940Y336064D01*
X188179Y336264D01*
X188429Y336433D01*
X188689Y336603D01*
X188938Y336743D01*
X189198Y336872D01*
X189467Y336982D01*
X189717Y337082D01*
X189976Y337172D01*
X190226Y337242D01*
X190465Y337302D01*
X190695Y337351D01*
X190915Y337401D01*
X191114Y337431D01*
X191304Y337461D01*
X191474Y337481D01*
X191613Y337491D01*
X191743Y337501D01*
X191843Y337511D01*
X194877D01*
Y327000D01*
D02*
G37*
G36*
X184346D02*
X181282D01*
X181012Y327010D01*
X180753Y327040D01*
X180513Y327080D01*
X180284Y327130D01*
X180064Y327190D01*
X179864Y327259D01*
X179685Y327339D01*
X179515Y327419D01*
X179365Y327489D01*
X179225Y327569D01*
X179116Y327639D01*
X179016Y327699D01*
X178946Y327749D01*
X178886Y327789D01*
X178856Y327818D01*
X178846Y327828D01*
X178676Y327988D01*
X178527Y328168D01*
X178397Y328338D01*
X178287Y328527D01*
X178187Y328707D01*
X178117Y328887D01*
X178048Y329066D01*
X177998Y329236D01*
X177958Y329396D01*
X177928Y329545D01*
X177908Y329675D01*
X177888Y329795D01*
Y329885D01*
X177878Y329955D01*
Y329995D01*
Y330015D01*
X177888Y330214D01*
X177908Y330404D01*
X177938Y330584D01*
X177978Y330753D01*
X178028Y330903D01*
X178078Y331053D01*
X178137Y331183D01*
X178197Y331302D01*
X178257Y331412D01*
X178317Y331512D01*
X178367Y331592D01*
X178417Y331662D01*
X178457Y331712D01*
X178487Y331752D01*
X178507Y331772D01*
X178517Y331782D01*
X178636Y331901D01*
X178776Y332011D01*
X178906Y332111D01*
X179056Y332191D01*
X179195Y332271D01*
X179335Y332331D01*
X179605Y332440D01*
X179725Y332470D01*
X179844Y332510D01*
X179944Y332530D01*
X180034Y332550D01*
X180114Y332560D01*
X180164Y332570D01*
X180204Y332580D01*
X180214D01*
Y332610D01*
X179914Y332730D01*
X179645Y332879D01*
X179425Y333029D01*
X179235Y333189D01*
X179156Y333259D01*
X179086Y333329D01*
X179026Y333389D01*
X178976Y333438D01*
X178936Y333488D01*
X178906Y333518D01*
X178896Y333538D01*
X178886Y333548D01*
X178796Y333678D01*
X178726Y333808D01*
X178656Y333938D01*
X178606Y334067D01*
X178517Y334327D01*
X178457Y334576D01*
X178437Y334686D01*
X178427Y334786D01*
X178407Y334876D01*
Y334956D01*
X178397Y335016D01*
Y335066D01*
Y335095D01*
Y335106D01*
X178407Y335305D01*
X178427Y335485D01*
X178467Y335664D01*
X178517Y335824D01*
X178587Y335984D01*
X178647Y336124D01*
X178726Y336254D01*
X178796Y336373D01*
X178866Y336483D01*
X178946Y336573D01*
X179006Y336653D01*
X179066Y336723D01*
X179126Y336773D01*
X179165Y336813D01*
X179186Y336832D01*
X179195Y336842D01*
X179355Y336962D01*
X179515Y337062D01*
X179695Y337152D01*
X179874Y337232D01*
X180054Y337292D01*
X180234Y337351D01*
X180573Y337431D01*
X180743Y337451D01*
X180882Y337471D01*
X181022Y337491D01*
X181132Y337501D01*
X181232Y337511D01*
X184346D01*
Y327000D01*
D02*
G37*
G36*
X169742D02*
X168514D01*
Y330973D01*
X167127D01*
X166808Y330983D01*
X166508Y331013D01*
X166219Y331063D01*
X165959Y331123D01*
X165709Y331193D01*
X165480Y331272D01*
X165270Y331362D01*
X165081Y331452D01*
X164921Y331532D01*
X164771Y331622D01*
X164641Y331702D01*
X164542Y331772D01*
X164462Y331831D01*
X164402Y331881D01*
X164362Y331911D01*
X164352Y331921D01*
X164172Y332101D01*
X164013Y332300D01*
X163873Y332500D01*
X163753Y332700D01*
X163653Y332909D01*
X163563Y333109D01*
X163493Y333309D01*
X163444Y333498D01*
X163404Y333678D01*
X163364Y333848D01*
X163344Y333988D01*
X163334Y334117D01*
X163324Y334227D01*
X163314Y334297D01*
Y334347D01*
Y334367D01*
X163324Y334636D01*
X163354Y334896D01*
X163404Y335135D01*
X163454Y335365D01*
X163533Y335565D01*
X163603Y335754D01*
X163693Y335934D01*
X163773Y336084D01*
X163863Y336223D01*
X163953Y336343D01*
X164023Y336443D01*
X164092Y336533D01*
X164152Y336593D01*
X164202Y336643D01*
X164232Y336673D01*
X164242Y336683D01*
X164422Y336832D01*
X164622Y336952D01*
X164831Y337072D01*
X165041Y337162D01*
X165260Y337242D01*
X165480Y337312D01*
X165690Y337361D01*
X165899Y337411D01*
X166089Y337441D01*
X166278Y337471D01*
X166438Y337481D01*
X166578Y337501D01*
X166698D01*
X166788Y337511D01*
X169742D01*
Y327000D01*
D02*
G37*
G36*
X158422Y337671D02*
X158662Y337651D01*
X158892Y337631D01*
X159091Y337601D01*
X159261Y337561D01*
X159341Y337551D01*
X159401Y337541D01*
X159441Y337531D01*
X159481Y337521D01*
X159501Y337511D01*
X159511D01*
X159750Y337441D01*
X159970Y337361D01*
X160169Y337272D01*
X160339Y337192D01*
X160479Y337112D01*
X160589Y337052D01*
X160629Y337022D01*
X160658Y337012D01*
X160669Y336992D01*
X160679D01*
X160858Y336862D01*
X161018Y336713D01*
X161168Y336573D01*
X161287Y336433D01*
X161377Y336313D01*
X161447Y336214D01*
X161477Y336174D01*
X161487Y336144D01*
X161507Y336134D01*
Y336124D01*
X161607Y335914D01*
X161687Y335704D01*
X161737Y335495D01*
X161777Y335305D01*
X161796Y335135D01*
X161807Y335056D01*
Y334996D01*
X161817Y334946D01*
Y334906D01*
Y334886D01*
Y334876D01*
X161807Y334666D01*
X161786Y334467D01*
X161757Y334297D01*
X161717Y334137D01*
X161677Y334017D01*
X161647Y333928D01*
X161627Y333868D01*
X161617Y333858D01*
Y333848D01*
X161537Y333688D01*
X161447Y333548D01*
X161357Y333409D01*
X161267Y333299D01*
X161188Y333199D01*
X161128Y333129D01*
X161088Y333089D01*
X161068Y333069D01*
X160928Y332949D01*
X160788Y332830D01*
X160648Y332720D01*
X160519Y332630D01*
X160409Y332550D01*
X160319Y332490D01*
X160259Y332450D01*
X160249Y332440D01*
X160239D01*
X159880Y332231D01*
X159700Y332141D01*
X159541Y332061D01*
X159411Y331981D01*
X159301Y331931D01*
X159261Y331911D01*
X159231Y331891D01*
X159221Y331881D01*
X159211D01*
X159021Y331782D01*
X158842Y331692D01*
X158672Y331602D01*
X158532Y331522D01*
X158413Y331462D01*
X158323Y331412D01*
X158263Y331382D01*
X158243Y331372D01*
X158073Y331282D01*
X157923Y331193D01*
X157794Y331113D01*
X157674Y331033D01*
X157584Y330973D01*
X157514Y330913D01*
X157464Y330883D01*
X157454Y330873D01*
X157334Y330773D01*
X157235Y330673D01*
X157145Y330574D01*
X157075Y330484D01*
X157015Y330414D01*
X156975Y330344D01*
X156955Y330304D01*
X156945Y330294D01*
X156885Y330174D01*
X156835Y330055D01*
X156805Y329925D01*
X156776Y329815D01*
X156765Y329715D01*
X156756Y329635D01*
Y329585D01*
Y329565D01*
X156765Y329416D01*
X156776Y329286D01*
X156845Y329036D01*
X156935Y328827D01*
X157035Y328657D01*
X157135Y328527D01*
X157225Y328427D01*
X157295Y328368D01*
X157304Y328358D01*
X157315Y328348D01*
X157424Y328278D01*
X157544Y328208D01*
X157814Y328108D01*
X158093Y328028D01*
X158373Y327978D01*
X158502Y327968D01*
X158622Y327948D01*
X158732Y327938D01*
X158822D01*
X158902Y327928D01*
X159011D01*
X159261Y327938D01*
X159381Y327948D01*
X159491Y327958D01*
X159590Y327968D01*
X159660Y327978D01*
X159710Y327988D01*
X159730D01*
X160020Y328048D01*
X160149Y328078D01*
X160269Y328108D01*
X160369Y328138D01*
X160439Y328158D01*
X160489Y328178D01*
X160509D01*
X160648Y328228D01*
X160778Y328278D01*
X160908Y328318D01*
X161018Y328368D01*
X161108Y328408D01*
X161178Y328437D01*
X161217Y328457D01*
X161238Y328467D01*
X161367Y328537D01*
X161477Y328607D01*
X161577Y328677D01*
X161667Y328737D01*
X161737Y328797D01*
X161796Y328837D01*
X161826Y328867D01*
X161836Y328877D01*
Y327419D01*
X161757Y327369D01*
X161667Y327319D01*
X161487Y327240D01*
X161407Y327210D01*
X161347Y327180D01*
X161297Y327170D01*
X161287Y327160D01*
X161028Y327090D01*
X160908Y327060D01*
X160798Y327030D01*
X160708Y327010D01*
X160629Y326990D01*
X160589Y326980D01*
X160569D01*
X160429Y326960D01*
X160289Y326930D01*
X160159Y326910D01*
X160050Y326900D01*
X159950Y326890D01*
X159880Y326880D01*
X159840Y326870D01*
X159820D01*
X159690Y326860D01*
X159571Y326850D01*
X159461Y326840D01*
X159371D01*
X159301Y326830D01*
X159201D01*
X158922Y326840D01*
X158662Y326850D01*
X158422Y326880D01*
X158213Y326910D01*
X158123Y326920D01*
X158033Y326930D01*
X157963Y326950D01*
X157903Y326960D01*
X157853Y326970D01*
X157814D01*
X157794Y326980D01*
X157784D01*
X157534Y327040D01*
X157315Y327110D01*
X157105Y327190D01*
X156925Y327270D01*
X156785Y327349D01*
X156726Y327379D01*
X156676Y327409D01*
X156636Y327429D01*
X156606Y327449D01*
X156596Y327459D01*
X156586D01*
X156406Y327599D01*
X156236Y327739D01*
X156097Y327888D01*
X155977Y328028D01*
X155887Y328148D01*
X155817Y328248D01*
X155797Y328288D01*
X155777Y328318D01*
X155767Y328328D01*
Y328338D01*
X155667Y328547D01*
X155588Y328767D01*
X155538Y328986D01*
X155498Y329196D01*
X155478Y329376D01*
X155468Y329456D01*
X155458Y329515D01*
Y329575D01*
Y329615D01*
Y329635D01*
Y329645D01*
X155468Y329855D01*
X155498Y330055D01*
X155528Y330234D01*
X155568Y330384D01*
X155618Y330514D01*
X155647Y330604D01*
X155677Y330663D01*
X155687Y330683D01*
X155777Y330853D01*
X155877Y331003D01*
X155977Y331153D01*
X156077Y331272D01*
X156157Y331372D01*
X156236Y331452D01*
X156276Y331492D01*
X156296Y331512D01*
X156446Y331652D01*
X156596Y331782D01*
X156746Y331901D01*
X156885Y332001D01*
X157005Y332081D01*
X157095Y332151D01*
X157135Y332171D01*
X157165Y332191D01*
X157175Y332201D01*
X157185D01*
X157564Y332420D01*
X157744Y332520D01*
X157903Y332610D01*
X158043Y332690D01*
X158153Y332740D01*
X158193Y332760D01*
X158223Y332780D01*
X158243Y332790D01*
X158253D01*
X158453Y332890D01*
X158632Y332979D01*
X158802Y333059D01*
X158942Y333139D01*
X159061Y333199D01*
X159151Y333239D01*
X159201Y333269D01*
X159221Y333279D01*
X159371Y333369D01*
X159511Y333448D01*
X159630Y333528D01*
X159740Y333598D01*
X159820Y333658D01*
X159890Y333708D01*
X159930Y333738D01*
X159940Y333748D01*
X160040Y333848D01*
X160130Y333938D01*
X160209Y334027D01*
X160269Y334107D01*
X160319Y334187D01*
X160349Y334237D01*
X160369Y334277D01*
X160379Y334287D01*
X160429Y334407D01*
X160469Y334527D01*
X160489Y334636D01*
X160509Y334746D01*
X160519Y334846D01*
X160529Y334916D01*
Y334966D01*
Y334986D01*
X160519Y335145D01*
X160499Y335285D01*
X160469Y335405D01*
X160429Y335515D01*
X160389Y335595D01*
X160359Y335664D01*
X160339Y335704D01*
X160329Y335714D01*
X160249Y335824D01*
X160169Y335924D01*
X160080Y336004D01*
X160000Y336084D01*
X159930Y336134D01*
X159870Y336184D01*
X159830Y336204D01*
X159820Y336214D01*
X159700Y336283D01*
X159571Y336333D01*
X159451Y336383D01*
X159341Y336423D01*
X159241Y336443D01*
X159171Y336463D01*
X159121Y336483D01*
X159101D01*
X158952Y336513D01*
X158802Y336533D01*
X158662Y336553D01*
X158542Y336563D01*
X158442Y336573D01*
X158293D01*
X158023Y336563D01*
X157774Y336543D01*
X157534Y336513D01*
X157304Y336473D01*
X157095Y336423D01*
X156895Y336363D01*
X156716Y336313D01*
X156556Y336254D01*
X156406Y336184D01*
X156276Y336134D01*
X156166Y336074D01*
X156077Y336024D01*
X156007Y335984D01*
X155947Y335954D01*
X155917Y335934D01*
X155907Y335924D01*
Y337312D01*
X156047Y337382D01*
X156207Y337431D01*
X156376Y337481D01*
X156556Y337521D01*
X156935Y337591D01*
X157304Y337631D01*
X157474Y337651D01*
X157634Y337661D01*
X157784Y337671D01*
X157913D01*
X158013Y337681D01*
X158163D01*
X158422Y337671D01*
D02*
G37*
G36*
X209482Y337661D02*
X209771Y337621D01*
X210030Y337571D01*
X210150Y337531D01*
X210250Y337501D01*
X210350Y337471D01*
X210440Y337431D01*
X210510Y337402D01*
X210569Y337382D01*
X210619Y337351D01*
X210659Y337342D01*
X210679Y337322D01*
X210689D01*
X210929Y337172D01*
X211138Y337002D01*
X211328Y336823D01*
X211488Y336653D01*
X211618Y336493D01*
X211678Y336423D01*
X211717Y336363D01*
X211747Y336313D01*
X211777Y336273D01*
X211787Y336254D01*
X211797Y336244D01*
X211957Y335964D01*
X212097Y335665D01*
X212207Y335365D01*
X212306Y335086D01*
X212346Y334956D01*
X212376Y334836D01*
X212406Y334736D01*
X212436Y334646D01*
X212456Y334566D01*
X212466Y334517D01*
X212476Y334477D01*
Y334467D01*
X212556Y334057D01*
X212606Y333648D01*
X212646Y333239D01*
X212666Y333049D01*
X212676Y332860D01*
X212686Y332690D01*
X212696Y332530D01*
Y332390D01*
X212706Y332271D01*
Y332171D01*
Y332101D01*
Y332061D01*
Y332041D01*
X212696Y331582D01*
X212686Y331372D01*
X212676Y331163D01*
X212656Y330963D01*
X212636Y330783D01*
X212616Y330614D01*
X212596Y330454D01*
X212576Y330314D01*
X212556Y330184D01*
X212536Y330075D01*
X212516Y329985D01*
X212506Y329915D01*
X212496Y329855D01*
X212486Y329825D01*
Y329815D01*
X212396Y329466D01*
X212297Y329146D01*
X212237Y329006D01*
X212187Y328877D01*
X212137Y328747D01*
X212087Y328637D01*
X212037Y328527D01*
X211987Y328437D01*
X211947Y328368D01*
X211917Y328298D01*
X211887Y328248D01*
X211867Y328208D01*
X211847Y328188D01*
Y328178D01*
X211678Y327938D01*
X211498Y327739D01*
X211328Y327559D01*
X211159Y327419D01*
X211019Y327309D01*
X210899Y327230D01*
X210859Y327200D01*
X210829Y327180D01*
X210809Y327160D01*
X210799D01*
X210560Y327050D01*
X210320Y326960D01*
X210080Y326900D01*
X209861Y326860D01*
X209761Y326850D01*
X209671Y326840D01*
X209591Y326830D01*
X209521D01*
X209471Y326820D01*
X209392D01*
X209082Y326840D01*
X208803Y326880D01*
X208553Y326930D01*
X208323Y327000D01*
X208234Y327030D01*
X208144Y327070D01*
X208074Y327100D01*
X208014Y327120D01*
X207964Y327150D01*
X207924Y327160D01*
X207904Y327180D01*
X207894D01*
X207655Y327329D01*
X207445Y327499D01*
X207255Y327669D01*
X207096Y327849D01*
X206966Y327998D01*
X206906Y328068D01*
X206866Y328128D01*
X206836Y328168D01*
X206806Y328208D01*
X206786Y328228D01*
Y328238D01*
X206627Y328517D01*
X206487Y328797D01*
X206367Y329086D01*
X206277Y329356D01*
X206227Y329486D01*
X206197Y329595D01*
X206167Y329695D01*
X206137Y329785D01*
X206117Y329855D01*
X206108Y329915D01*
X206098Y329945D01*
Y329955D01*
X206018Y330344D01*
X205958Y330753D01*
X205918Y331143D01*
X205898Y331332D01*
X205888Y331502D01*
X205878Y331672D01*
X205868Y331821D01*
Y331951D01*
X205858Y332071D01*
Y332161D01*
Y332231D01*
Y332281D01*
Y332291D01*
X205868Y332780D01*
X205898Y333239D01*
X205938Y333668D01*
X205998Y334067D01*
X206077Y334447D01*
X206167Y334786D01*
X206267Y335116D01*
X206377Y335405D01*
X206497Y335685D01*
X206627Y335934D01*
X206766Y336154D01*
X206906Y336363D01*
X207056Y336553D01*
X207206Y336723D01*
X207355Y336872D01*
X207515Y337012D01*
X207675Y337122D01*
X207824Y337232D01*
X207974Y337322D01*
X208124Y337402D01*
X208264Y337461D01*
X208403Y337521D01*
X208653Y337601D01*
X208763Y337621D01*
X208863Y337641D01*
X208952Y337661D01*
X209032Y337671D01*
X209092Y337681D01*
X209172D01*
X209482Y337661D01*
D02*
G37*
G36*
X130792Y337661D02*
X131081Y337621D01*
X131341Y337571D01*
X131461Y337531D01*
X131560Y337501D01*
X131660Y337471D01*
X131750Y337431D01*
X131820Y337401D01*
X131880Y337382D01*
X131930Y337351D01*
X131970Y337341D01*
X131990Y337322D01*
X132000D01*
X132239Y337172D01*
X132449Y337002D01*
X132639Y336823D01*
X132798Y336653D01*
X132928Y336493D01*
X132988Y336423D01*
X133028Y336363D01*
X133058Y336313D01*
X133088Y336273D01*
X133098Y336254D01*
X133108Y336244D01*
X133267Y335964D01*
X133407Y335664D01*
X133517Y335365D01*
X133617Y335086D01*
X133657Y334956D01*
X133687Y334836D01*
X133717Y334736D01*
X133747Y334646D01*
X133766Y334566D01*
X133777Y334517D01*
X133786Y334477D01*
Y334467D01*
X133866Y334057D01*
X133916Y333648D01*
X133956Y333239D01*
X133976Y333049D01*
X133986Y332859D01*
X133996Y332690D01*
X134006Y332530D01*
Y332390D01*
X134016Y332271D01*
Y332171D01*
Y332101D01*
Y332061D01*
Y332041D01*
X134006Y331582D01*
X133996Y331372D01*
X133986Y331163D01*
X133966Y330963D01*
X133946Y330783D01*
X133926Y330614D01*
X133906Y330454D01*
X133886Y330314D01*
X133866Y330184D01*
X133846Y330075D01*
X133826Y329985D01*
X133816Y329915D01*
X133806Y329855D01*
X133796Y329825D01*
Y329815D01*
X133707Y329466D01*
X133607Y329146D01*
X133547Y329006D01*
X133497Y328877D01*
X133447Y328747D01*
X133397Y328637D01*
X133347Y328527D01*
X133297Y328437D01*
X133257Y328368D01*
X133227Y328298D01*
X133197Y328248D01*
X133177Y328208D01*
X133158Y328188D01*
Y328178D01*
X132988Y327938D01*
X132808Y327739D01*
X132639Y327559D01*
X132469Y327419D01*
X132329Y327309D01*
X132209Y327230D01*
X132169Y327200D01*
X132139Y327180D01*
X132119Y327160D01*
X132109D01*
X131870Y327050D01*
X131630Y326960D01*
X131391Y326900D01*
X131171Y326860D01*
X131071Y326850D01*
X130982Y326840D01*
X130902Y326830D01*
X130832D01*
X130782Y326820D01*
X130702D01*
X130393Y326840D01*
X130113Y326880D01*
X129863Y326930D01*
X129634Y327000D01*
X129544Y327030D01*
X129454Y327070D01*
X129384Y327100D01*
X129324Y327120D01*
X129275Y327150D01*
X129235Y327160D01*
X129215Y327180D01*
X129205D01*
X128965Y327329D01*
X128755Y327499D01*
X128566Y327669D01*
X128406Y327849D01*
X128276Y327998D01*
X128216Y328068D01*
X128176Y328128D01*
X128146Y328168D01*
X128117Y328208D01*
X128097Y328228D01*
Y328238D01*
X127937Y328517D01*
X127797Y328797D01*
X127677Y329086D01*
X127587Y329356D01*
X127538Y329486D01*
X127508Y329595D01*
X127478Y329695D01*
X127448Y329785D01*
X127428Y329855D01*
X127418Y329915D01*
X127408Y329945D01*
Y329955D01*
X127328Y330344D01*
X127268Y330753D01*
X127228Y331143D01*
X127208Y331332D01*
X127198Y331502D01*
X127188Y331672D01*
X127178Y331821D01*
Y331951D01*
X127168Y332071D01*
Y332161D01*
Y332231D01*
Y332281D01*
Y332290D01*
X127178Y332780D01*
X127208Y333239D01*
X127248Y333668D01*
X127308Y334067D01*
X127388Y334447D01*
X127478Y334786D01*
X127577Y335116D01*
X127687Y335405D01*
X127807Y335685D01*
X127937Y335934D01*
X128077Y336154D01*
X128216Y336363D01*
X128366Y336553D01*
X128516Y336723D01*
X128666Y336872D01*
X128825Y337012D01*
X128985Y337122D01*
X129135Y337232D01*
X129284Y337322D01*
X129434Y337401D01*
X129574Y337461D01*
X129714Y337521D01*
X129963Y337601D01*
X130073Y337621D01*
X130173Y337641D01*
X130263Y337661D01*
X130343Y337671D01*
X130402Y337681D01*
X130482D01*
X130792Y337661D01*
D02*
G37*
%LPC*%
G36*
X225393Y332550D02*
X225313D01*
X225134Y332540D01*
X224974Y332520D01*
X224834Y332500D01*
X224704Y332470D01*
X224604Y332430D01*
X224525Y332410D01*
X224475Y332390D01*
X224455Y332380D01*
X224315Y332310D01*
X224185Y332241D01*
X224075Y332161D01*
X223986Y332091D01*
X223906Y332021D01*
X223856Y331961D01*
X223816Y331921D01*
X223806Y331911D01*
X223716Y331791D01*
X223636Y331662D01*
X223566Y331542D01*
X223507Y331422D01*
X223466Y331322D01*
X223437Y331232D01*
X223417Y331183D01*
X223407Y331173D01*
Y331163D01*
X223357Y330993D01*
X223327Y330823D01*
X223297Y330653D01*
X223287Y330504D01*
X223277Y330374D01*
X223267Y330264D01*
Y330224D01*
Y330194D01*
Y330184D01*
Y330174D01*
X223277Y329985D01*
X223287Y329805D01*
X223317Y329645D01*
X223337Y329506D01*
X223367Y329386D01*
X223397Y329306D01*
X223407Y329246D01*
X223417Y329236D01*
Y329226D01*
X223477Y329076D01*
X223546Y328927D01*
X223616Y328807D01*
X223686Y328697D01*
X223746Y328607D01*
X223796Y328547D01*
X223826Y328497D01*
X223836Y328487D01*
X223936Y328378D01*
X224046Y328278D01*
X224145Y328198D01*
X224245Y328128D01*
X224335Y328078D01*
X224405Y328038D01*
X224445Y328018D01*
X224465Y328008D01*
X224604Y327948D01*
X224754Y327908D01*
X224884Y327878D01*
X225014Y327859D01*
X225124Y327849D01*
X225213Y327839D01*
X225293D01*
X225463Y327849D01*
X225623Y327868D01*
X225772Y327898D01*
X225902Y327938D01*
X226002Y327978D01*
X226082Y328008D01*
X226132Y328028D01*
X226152Y328038D01*
X226292Y328118D01*
X226411Y328208D01*
X226531Y328298D01*
X226621Y328387D01*
X226701Y328467D01*
X226761Y328527D01*
X226801Y328567D01*
X226811Y328587D01*
X226910Y328727D01*
X227000Y328867D01*
X227070Y329006D01*
X227130Y329136D01*
X227180Y329246D01*
X227220Y329336D01*
X227240Y329396D01*
X227250Y329406D01*
Y329416D01*
X227300Y329595D01*
X227340Y329775D01*
X227360Y329945D01*
X227380Y330104D01*
X227390Y330234D01*
X227400Y330344D01*
Y330384D01*
Y330414D01*
Y330424D01*
Y330434D01*
X227390Y330594D01*
X227370Y330743D01*
X227350Y330883D01*
X227320Y331003D01*
X227290Y331103D01*
X227260Y331173D01*
X227250Y331222D01*
X227240Y331242D01*
X227170Y331382D01*
X227100Y331512D01*
X227030Y331632D01*
X226960Y331732D01*
X226900Y331811D01*
X226850Y331871D01*
X226811Y331911D01*
X226801Y331921D01*
X226691Y332021D01*
X226581Y332111D01*
X226471Y332191D01*
X226361Y332261D01*
X226271Y332310D01*
X226202Y332351D01*
X226162Y332370D01*
X226142Y332380D01*
X225992Y332440D01*
X225852Y332480D01*
X225713Y332510D01*
X225583Y332530D01*
X225473Y332540D01*
X225393Y332550D01*
D02*
G37*
G36*
X270772Y336393D02*
X269325D01*
X269105Y336383D01*
X268895Y336373D01*
X268696Y336343D01*
X268516Y336303D01*
X268347Y336254D01*
X268187Y336204D01*
X268037Y336134D01*
X267907Y336064D01*
X267778Y335994D01*
X267668Y335914D01*
X267468Y335734D01*
X267308Y335545D01*
X267179Y335355D01*
X267079Y335155D01*
X266999Y334966D01*
X266939Y334796D01*
X266909Y334636D01*
X266889Y334497D01*
X266869Y334397D01*
Y334357D01*
Y334327D01*
Y334317D01*
Y334307D01*
X266879Y334117D01*
X266899Y333938D01*
X266929Y333758D01*
X266969Y333608D01*
X267029Y333459D01*
X267079Y333319D01*
X267139Y333199D01*
X267199Y333089D01*
X267268Y332989D01*
X267328Y332900D01*
X267378Y332830D01*
X267428Y332770D01*
X267478Y332720D01*
X267508Y332690D01*
X267528Y332670D01*
X267538Y332660D01*
X267668Y332560D01*
X267817Y332470D01*
X267967Y332390D01*
X268127Y332331D01*
X268287Y332271D01*
X268446Y332221D01*
X268766Y332151D01*
X268906Y332131D01*
X269045Y332111D01*
X269165Y332101D01*
X269275Y332091D01*
X269365Y332081D01*
X270772D01*
Y336393D01*
D02*
G37*
G36*
X202634D02*
X200947D01*
X200757Y336383D01*
X200587Y336373D01*
X200418Y336353D01*
X200268Y336323D01*
X200128Y336283D01*
X199998Y336244D01*
X199879Y336204D01*
X199769Y336154D01*
X199679Y336114D01*
X199599Y336064D01*
X199529Y336024D01*
X199469Y335994D01*
X199429Y335954D01*
X199399Y335934D01*
X199380Y335924D01*
X199370Y335914D01*
X199270Y335824D01*
X199190Y335724D01*
X199110Y335615D01*
X199050Y335515D01*
X198950Y335295D01*
X198890Y335086D01*
X198850Y334896D01*
X198840Y334816D01*
X198831Y334746D01*
X198820Y334686D01*
Y334646D01*
Y334616D01*
Y334606D01*
X198831Y334437D01*
X198840Y334277D01*
X198870Y334127D01*
X198900Y334007D01*
X198930Y333908D01*
X198950Y333828D01*
X198970Y333778D01*
X198980Y333758D01*
X199040Y333618D01*
X199120Y333498D01*
X199190Y333389D01*
X199260Y333299D01*
X199330Y333219D01*
X199380Y333169D01*
X199419Y333129D01*
X199429Y333119D01*
X199539Y333029D01*
X199659Y332949D01*
X199769Y332879D01*
X199879Y332820D01*
X199968Y332780D01*
X200038Y332750D01*
X200088Y332730D01*
X200108Y332720D01*
X200258Y332670D01*
X200408Y332640D01*
X200547Y332610D01*
X200687Y332600D01*
X200797Y332590D01*
X200887Y332580D01*
X202634D01*
Y336393D01*
D02*
G37*
G36*
X193650Y336393D02*
X192013D01*
X191623Y336383D01*
X191254Y336343D01*
X190915Y336293D01*
X190595Y336223D01*
X190296Y336124D01*
X190016Y336024D01*
X189757Y335894D01*
X189527Y335764D01*
X189307Y335615D01*
X189108Y335455D01*
X188928Y335285D01*
X188758Y335116D01*
X188609Y334936D01*
X188479Y334746D01*
X188359Y334557D01*
X188249Y334377D01*
X188150Y334187D01*
X188070Y333997D01*
X188000Y333808D01*
X187940Y333628D01*
X187840Y333289D01*
X187810Y333129D01*
X187780Y332979D01*
X187750Y332850D01*
X187740Y332720D01*
X187730Y332620D01*
X187720Y332520D01*
X187710Y332450D01*
Y332400D01*
Y332360D01*
Y332350D01*
X187720Y331981D01*
X187760Y331632D01*
X187820Y331312D01*
X187890Y331003D01*
X187980Y330723D01*
X188080Y330464D01*
X188179Y330234D01*
X188289Y330025D01*
X188399Y329835D01*
X188499Y329675D01*
X188599Y329535D01*
X188689Y329426D01*
X188758Y329336D01*
X188818Y329266D01*
X188858Y329226D01*
X188868Y329216D01*
X189098Y329016D01*
X189337Y328847D01*
X189587Y328707D01*
X189856Y328577D01*
X190126Y328467D01*
X190385Y328377D01*
X190655Y328308D01*
X190905Y328248D01*
X191144Y328198D01*
X191364Y328168D01*
X191563Y328138D01*
X191743Y328128D01*
X191883Y328118D01*
X191993Y328108D01*
X193650D01*
Y336393D01*
D02*
G37*
G36*
X183118D02*
X181521D01*
X181342Y336373D01*
X181182Y336353D01*
X181032Y336323D01*
X180892Y336293D01*
X180763Y336254D01*
X180533Y336154D01*
X180343Y336034D01*
X180174Y335904D01*
X180044Y335764D01*
X179934Y335625D01*
X179854Y335485D01*
X179794Y335345D01*
X179744Y335215D01*
X179715Y335095D01*
X179695Y334996D01*
X179685Y334926D01*
Y334876D01*
Y334856D01*
X179695Y334696D01*
X179705Y334547D01*
X179734Y334407D01*
X179774Y334277D01*
X179814Y334147D01*
X179864Y334037D01*
X179924Y333938D01*
X179974Y333848D01*
X180024Y333758D01*
X180084Y333688D01*
X180134Y333628D01*
X180174Y333578D01*
X180214Y333538D01*
X180234Y333508D01*
X180254Y333498D01*
X180264Y333488D01*
X180373Y333399D01*
X180493Y333329D01*
X180623Y333259D01*
X180753Y333209D01*
X181022Y333119D01*
X181282Y333059D01*
X181402Y333039D01*
X181511Y333029D01*
X181611Y333019D01*
X181691Y333009D01*
X181761Y332999D01*
X183118D01*
Y336393D01*
D02*
G37*
G36*
Y331891D02*
X181701D01*
X181471Y331881D01*
X181252Y331871D01*
X181052Y331841D01*
X180863Y331811D01*
X180693Y331772D01*
X180523Y331722D01*
X180373Y331662D01*
X180234Y331602D01*
X180104Y331532D01*
X179994Y331462D01*
X179884Y331382D01*
X179784Y331302D01*
X179615Y331133D01*
X179485Y330963D01*
X179375Y330793D01*
X179295Y330624D01*
X179245Y330464D01*
X179205Y330324D01*
X179186Y330204D01*
X179165Y330114D01*
Y330055D01*
Y330045D01*
Y330035D01*
X179175Y329875D01*
X179195Y329715D01*
X179225Y329575D01*
X179255Y329436D01*
X179305Y329306D01*
X179355Y329196D01*
X179405Y329086D01*
X179465Y328986D01*
X179525Y328907D01*
X179575Y328827D01*
X179625Y328767D01*
X179675Y328717D01*
X179705Y328667D01*
X179734Y328637D01*
X179755Y328627D01*
X179764Y328617D01*
X179884Y328527D01*
X180004Y328447D01*
X180144Y328377D01*
X180284Y328328D01*
X180563Y328228D01*
X180833Y328168D01*
X180962Y328148D01*
X181072Y328138D01*
X181182Y328128D01*
X181272Y328118D01*
X181352Y328108D01*
X183118D01*
Y331891D01*
D02*
G37*
G36*
X168514Y336393D02*
X167067D01*
X166847Y336383D01*
X166638Y336373D01*
X166438Y336343D01*
X166259Y336303D01*
X166089Y336254D01*
X165929Y336204D01*
X165779Y336134D01*
X165650Y336064D01*
X165520Y335994D01*
X165410Y335914D01*
X165210Y335734D01*
X165051Y335545D01*
X164921Y335355D01*
X164821Y335155D01*
X164741Y334966D01*
X164681Y334796D01*
X164651Y334636D01*
X164631Y334497D01*
X164611Y334397D01*
Y334357D01*
Y334327D01*
Y334317D01*
Y334307D01*
X164622Y334117D01*
X164641Y333938D01*
X164671Y333758D01*
X164711Y333608D01*
X164771Y333459D01*
X164821Y333319D01*
X164881Y333199D01*
X164941Y333089D01*
X165011Y332989D01*
X165071Y332900D01*
X165121Y332830D01*
X165170Y332770D01*
X165220Y332720D01*
X165250Y332690D01*
X165270Y332670D01*
X165280Y332660D01*
X165410Y332560D01*
X165560Y332470D01*
X165709Y332390D01*
X165869Y332331D01*
X166029Y332271D01*
X166189Y332221D01*
X166508Y332151D01*
X166648Y332131D01*
X166788Y332111D01*
X166907Y332101D01*
X167017Y332091D01*
X167107Y332081D01*
X168514D01*
Y336393D01*
D02*
G37*
G36*
X209292Y336663D02*
X209232D01*
X209042Y336653D01*
X208853Y336613D01*
X208683Y336553D01*
X208523Y336473D01*
X208383Y336373D01*
X208244Y336254D01*
X208114Y336114D01*
X207994Y335964D01*
X207884Y335794D01*
X207794Y335625D01*
X207615Y335245D01*
X207475Y334836D01*
X207365Y334427D01*
X207275Y334007D01*
X207206Y333598D01*
X207156Y333219D01*
X207146Y333049D01*
X207126Y332879D01*
X207116Y332730D01*
X207106Y332590D01*
Y332470D01*
X207096Y332370D01*
Y332291D01*
Y332231D01*
Y332191D01*
Y332181D01*
X207106Y331791D01*
X207116Y331412D01*
X207146Y331073D01*
X207186Y330743D01*
X207236Y330444D01*
X207295Y330164D01*
X207365Y329905D01*
X207435Y329675D01*
X207515Y329456D01*
X207605Y329246D01*
X207695Y329066D01*
X207785Y328897D01*
X207884Y328747D01*
X207984Y328607D01*
X208084Y328487D01*
X208184Y328378D01*
X208284Y328288D01*
X208383Y328198D01*
X208483Y328128D01*
X208583Y328068D01*
X208763Y327968D01*
X208932Y327908D01*
X209072Y327868D01*
X209182Y327849D01*
X209222Y327839D01*
X209272D01*
X209471Y327849D01*
X209661Y327888D01*
X209831Y327948D01*
X210000Y328018D01*
X210150Y328118D01*
X210290Y328228D01*
X210430Y328358D01*
X210550Y328507D01*
X210659Y328657D01*
X210759Y328827D01*
X210939Y329186D01*
X211089Y329575D01*
X211198Y329975D01*
X211288Y330364D01*
X211358Y330753D01*
X211408Y331113D01*
X211428Y331282D01*
X211448Y331432D01*
X211458Y331582D01*
X211468Y331712D01*
Y331821D01*
X211478Y331921D01*
Y331991D01*
Y332051D01*
Y332091D01*
Y332101D01*
X211468Y332520D01*
X211448Y332900D01*
X211418Y333269D01*
X211378Y333608D01*
X211328Y333928D01*
X211268Y334217D01*
X211198Y334487D01*
X211129Y334736D01*
X211049Y334966D01*
X210959Y335185D01*
X210859Y335375D01*
X210769Y335545D01*
X210669Y335704D01*
X210560Y335854D01*
X210460Y335984D01*
X210350Y336094D01*
X210250Y336194D01*
X210140Y336283D01*
X210040Y336353D01*
X209941Y336423D01*
X209841Y336473D01*
X209751Y336523D01*
X209581Y336593D01*
X209442Y336633D01*
X209332Y336653D01*
X209292Y336663D01*
D02*
G37*
G36*
X130602Y336663D02*
X130542D01*
X130353Y336653D01*
X130163Y336613D01*
X129993Y336553D01*
X129833Y336473D01*
X129694Y336373D01*
X129554Y336254D01*
X129424Y336114D01*
X129304Y335964D01*
X129195Y335794D01*
X129105Y335625D01*
X128925Y335245D01*
X128785Y334836D01*
X128676Y334427D01*
X128586Y334007D01*
X128516Y333598D01*
X128466Y333219D01*
X128456Y333049D01*
X128436Y332879D01*
X128426Y332730D01*
X128416Y332590D01*
Y332470D01*
X128406Y332370D01*
Y332290D01*
Y332231D01*
Y332191D01*
Y332181D01*
X128416Y331791D01*
X128426Y331412D01*
X128456Y331073D01*
X128496Y330743D01*
X128546Y330444D01*
X128606Y330164D01*
X128676Y329905D01*
X128745Y329675D01*
X128825Y329456D01*
X128915Y329246D01*
X129005Y329066D01*
X129095Y328897D01*
X129195Y328747D01*
X129295Y328607D01*
X129394Y328487D01*
X129494Y328377D01*
X129594Y328288D01*
X129694Y328198D01*
X129794Y328128D01*
X129893Y328068D01*
X130073Y327968D01*
X130243Y327908D01*
X130382Y327868D01*
X130492Y327849D01*
X130532Y327839D01*
X130582D01*
X130782Y327849D01*
X130971Y327888D01*
X131141Y327948D01*
X131311Y328018D01*
X131461Y328118D01*
X131600Y328228D01*
X131740Y328358D01*
X131860Y328507D01*
X131970Y328657D01*
X132070Y328827D01*
X132249Y329186D01*
X132399Y329575D01*
X132509Y329975D01*
X132599Y330364D01*
X132668Y330753D01*
X132718Y331113D01*
X132738Y331282D01*
X132758Y331432D01*
X132768Y331582D01*
X132778Y331712D01*
Y331821D01*
X132788Y331921D01*
Y331991D01*
Y332051D01*
Y332091D01*
Y332101D01*
X132778Y332520D01*
X132758Y332900D01*
X132728Y333269D01*
X132688Y333608D01*
X132639Y333928D01*
X132579Y334217D01*
X132509Y334487D01*
X132439Y334736D01*
X132359Y334966D01*
X132269Y335185D01*
X132169Y335375D01*
X132079Y335545D01*
X131980Y335704D01*
X131870Y335854D01*
X131770Y335984D01*
X131660Y336094D01*
X131560Y336194D01*
X131451Y336283D01*
X131351Y336353D01*
X131251Y336423D01*
X131151Y336473D01*
X131061Y336523D01*
X130892Y336593D01*
X130752Y336633D01*
X130642Y336653D01*
X130602Y336663D01*
D02*
G37*
%LPD*%
D10*
X379100Y67000D02*
Y71000D01*
X377100Y69000D02*
X381100D01*
X352100Y95000D02*
X356100D01*
X354100Y93000D02*
Y97000D01*
D11*
X169100Y20000D02*
Y50000D01*
X153100Y20000D02*
X169100D01*
X153100Y50000D02*
X169100D01*
X153100Y20000D02*
Y50000D01*
X322500Y345900D02*
X352500D01*
Y329900D02*
Y345900D01*
X322500Y329900D02*
Y345900D01*
Y329900D02*
X352500D01*
X201100Y226100D02*
Y256100D01*
X217100D01*
X201100Y226100D02*
X217100D01*
Y256100D01*
X322100Y182000D02*
X352100D01*
Y166000D02*
Y182000D01*
X322100Y166000D02*
Y182000D01*
Y166000D02*
X352100D01*
X249100Y226000D02*
Y256000D01*
X265100D01*
X249100Y226000D02*
X265100D01*
Y256000D01*
X232000Y52000D02*
Y62000D01*
Y52000D02*
X239000D01*
X262000D02*
Y62000D01*
X255000Y52000D02*
X262000D01*
X179100Y48500D02*
X195100D01*
X179100Y20500D02*
Y48500D01*
Y20500D02*
X195100D01*
Y48500D01*
X366100Y315100D02*
Y331100D01*
Y315100D02*
X394100D01*
Y331100D01*
X366100D02*
X394100D01*
X281100Y315000D02*
X309100D01*
X281100D02*
Y331000D01*
X309100D01*
Y315000D02*
Y331000D01*
X309100Y289000D02*
Y305000D01*
X281100D02*
X309100D01*
X281100Y289000D02*
Y305000D01*
Y289000D02*
X309100D01*
X366300Y288700D02*
Y304700D01*
Y288700D02*
X394300D01*
Y304700D01*
X366300D02*
X394300D01*
X349300Y125900D02*
Y141900D01*
X321300D02*
X349300D01*
X321300Y125900D02*
Y141900D01*
Y125900D02*
X349300D01*
X321100Y146000D02*
Y162000D01*
Y146000D02*
X349100D01*
Y162000D01*
X321100D02*
X349100D01*
X118100Y197000D02*
Y213000D01*
Y197000D02*
X146100D01*
Y213000D01*
X118100D02*
X146100D01*
X118100Y222000D02*
X146100D01*
X118100D02*
Y238000D01*
X146100D01*
Y222000D02*
Y238000D01*
X369000Y212900D02*
X397000D01*
Y196900D02*
Y212900D01*
X369000Y196900D02*
X397000D01*
X369000D02*
Y212900D01*
X397100Y222000D02*
Y238000D01*
X369100D02*
X397100D01*
X369100Y222000D02*
Y238000D01*
Y222000D02*
X397100D01*
X119100Y38000D02*
X147100D01*
Y22000D02*
Y38000D01*
X119100Y22000D02*
X147100D01*
X119100D02*
Y38000D01*
Y47000D02*
X147100D01*
X119100D02*
Y63000D01*
X147100D01*
Y47000D02*
Y63000D01*
X366100Y5000D02*
Y21000D01*
X338100D02*
X366100D01*
X338100Y5000D02*
Y21000D01*
Y5000D02*
X366100D01*
X338100Y28000D02*
Y44000D01*
Y28000D02*
X366100D01*
Y44000D01*
X338100D02*
X366100D01*
X249000Y273000D02*
Y301000D01*
X265000D01*
Y273000D02*
Y301000D01*
X249000Y273000D02*
X265000D01*
X225000D02*
X241000D01*
Y301000D01*
X225000D02*
X241000D01*
X225000Y273000D02*
Y301000D01*
X294100Y213000D02*
Y215000D01*
Y131000D02*
Y137000D01*
X288100Y131000D02*
X294100D01*
X206100D02*
X212100D01*
X206100D02*
Y137000D01*
Y213000D02*
Y219000D01*
X212100D01*
X288100D02*
X290100D01*
X294100Y215000D01*
X332100Y290600D02*
Y321600D01*
X342100Y290600D02*
Y321600D01*
X332100Y290600D02*
X342100D01*
X332100Y321600D02*
X342100D01*
X322100Y225000D02*
X352100D01*
X322100D02*
Y241000D01*
X352100Y225000D02*
Y241000D01*
X322100D02*
X352100D01*
X377100Y73000D02*
Y91000D01*
Y73000D02*
X381100D01*
X377100Y91000D02*
X381100D01*
X413100D01*
Y73000D02*
Y91000D01*
X381100Y73000D02*
X413100D01*
X381100D02*
Y91000D01*
X352100Y73000D02*
Y91000D01*
X320100D02*
X352100D01*
X320100Y73000D02*
Y91000D01*
Y73000D02*
X352100D01*
X356100D01*
X352100Y91000D02*
X356100D01*
Y73000D02*
Y91000D01*
X381100Y48000D02*
X411100D01*
X381100D02*
Y64000D01*
X411100Y48000D02*
Y64000D01*
X381100D02*
X411100D01*
X321100Y48000D02*
X351100D01*
X321100D02*
Y64000D01*
X351100Y48000D02*
Y64000D01*
X321100D02*
X351100D01*
X298100Y263000D02*
X328100D01*
Y247000D02*
Y263000D01*
X298100Y247000D02*
Y263000D01*
Y247000D02*
X328100D01*
X173100Y145000D02*
Y175000D01*
X189100D01*
X173100Y145000D02*
X189100D01*
Y175000D01*
X255000Y121600D02*
X285000D01*
Y105600D02*
Y121600D01*
X255000Y105600D02*
Y121600D01*
Y105600D02*
X285000D01*
X225100Y226100D02*
Y256100D01*
X241100D01*
X225100Y226100D02*
X241100D01*
Y256100D01*
X173100Y180000D02*
Y210000D01*
X189100D01*
X173100Y180000D02*
X189100D01*
Y210000D01*
X413100Y100000D02*
Y118000D01*
X381100D02*
X413100D01*
X381100Y100000D02*
Y118000D01*
Y100000D02*
X413100D01*
X320100D02*
Y118000D01*
Y100000D02*
X352100D01*
Y118000D01*
X320100D02*
X352100D01*
X336100Y191500D02*
X338100D01*
X327100Y202000D02*
Y206000D01*
X336100Y216000D02*
X338100D01*
X347100Y202000D02*
Y206000D01*
D12*
X352600Y324100D02*
G03*
X352600Y324100I-1250J0D01*
G01*
D15*
X302100Y213000D02*
G03*
X302100Y213000I-1000J0D01*
G01*
X24446Y346092D02*
X75500D01*
Y194200D02*
Y346092D01*
X24446Y194200D02*
X75500D01*
X24446D02*
Y346092D01*
X16626Y325772D02*
Y341012D01*
X24246Y333392D01*
X16626Y325772D02*
X24246Y333392D01*
X24446Y181002D02*
X75500D01*
Y3710D02*
Y181002D01*
X16100Y160990D02*
X23720Y168610D01*
X16100Y176230D02*
X23720Y168610D01*
X16100Y160990D02*
Y176230D01*
X24446Y3710D02*
X75500D01*
X24446D02*
Y181002D01*
X424446Y3710D02*
Y181002D01*
Y3710D02*
X475500D01*
X416100Y160990D02*
Y176230D01*
X423720Y168610D01*
X416100Y160990D02*
X423720Y168610D01*
X475500Y3710D02*
Y181002D01*
X424446D02*
X475500D01*
X416626Y325772D02*
X424246Y333392D01*
X416626Y341012D02*
X424246Y333392D01*
X416626Y325772D02*
Y341012D01*
X424446Y194200D02*
Y346092D01*
Y194200D02*
X475500D01*
Y346092D01*
X424446D02*
X475500D01*
D16*
X242022Y305351D02*
Y313849D01*
X237773D01*
X236357Y312432D01*
Y309600D01*
X237773Y308184D01*
X242022D01*
X239189D02*
X236357Y305351D01*
X233524D02*
X230692D01*
X232108D01*
Y313849D01*
X233524Y312432D01*
X220778Y313849D02*
X226443D01*
Y309600D01*
X223611Y311016D01*
X222195D01*
X220778Y309600D01*
Y306768D01*
X222195Y305351D01*
X225027D01*
X226443Y306768D01*
X269622Y305751D02*
Y314249D01*
X265373D01*
X263957Y312832D01*
Y310000D01*
X265373Y308584D01*
X269622D01*
X266789D02*
X263957Y305751D01*
X261124D02*
X258292D01*
X259708D01*
Y314249D01*
X261124Y312832D01*
X248378Y305751D02*
X254043D01*
X248378Y311416D01*
Y312832D01*
X249795Y314249D01*
X252627D01*
X254043Y312832D01*
X247665Y87249D02*
Y78751D01*
X243416D01*
X242000Y80168D01*
Y85832D01*
X243416Y87249D01*
X247665D01*
X239168Y78751D02*
X236335D01*
X237751D01*
Y87249D01*
X239168Y85832D01*
X283357Y242632D02*
X284773Y244049D01*
X287605D01*
X289022Y242632D01*
Y236968D01*
X287605Y235551D01*
X284773D01*
X283357Y236968D01*
X280524Y235551D02*
X277692D01*
X279108D01*
Y244049D01*
X280524Y242632D01*
X273443D02*
X272027Y244049D01*
X269195D01*
X267778Y242632D01*
Y236968D01*
X269195Y235551D01*
X272027D01*
X273443Y236968D01*
Y242632D01*
X213057Y266932D02*
X214473Y268349D01*
X217305D01*
X218722Y266932D01*
Y261268D01*
X217305Y259851D01*
X214473D01*
X213057Y261268D01*
X210224Y259851D02*
X207392D01*
X208808D01*
Y268349D01*
X210224Y266932D01*
X203143D02*
X201727Y268349D01*
X198895D01*
X197478Y266932D01*
Y265516D01*
X198895Y264100D01*
X200311D01*
X198895D01*
X197478Y262684D01*
Y261268D01*
X198895Y259851D01*
X201727D01*
X203143Y261268D01*
X367800Y84932D02*
X369216Y86349D01*
X372049D01*
X373465Y84932D01*
Y79268D01*
X372049Y77851D01*
X369216D01*
X367800Y79268D01*
X364968Y77851D02*
X362135D01*
X363551D01*
Y86349D01*
X364968Y84932D01*
X311216Y84832D02*
X312632Y86249D01*
X315465D01*
X316881Y84832D01*
Y79168D01*
X315465Y77751D01*
X312632D01*
X311216Y79168D01*
X302719Y77751D02*
X308384D01*
X302719Y83416D01*
Y84832D01*
X304135Y86249D01*
X306968D01*
X308384Y84832D01*
X406516Y43832D02*
X407932Y45249D01*
X410765D01*
X412181Y43832D01*
Y38168D01*
X410765Y36751D01*
X407932D01*
X406516Y38168D01*
X403684Y43832D02*
X402268Y45249D01*
X399435D01*
X398019Y43832D01*
Y42416D01*
X399435Y41000D01*
X400851D01*
X399435D01*
X398019Y39584D01*
Y38168D01*
X399435Y36751D01*
X402268D01*
X403684Y38168D01*
X309516Y56832D02*
X310932Y58249D01*
X313765D01*
X315181Y56832D01*
Y51168D01*
X313765Y49751D01*
X310932D01*
X309516Y51168D01*
X302435Y49751D02*
Y58249D01*
X306684Y54000D01*
X301019D01*
X317416Y272832D02*
X318832Y274249D01*
X321665D01*
X323081Y272832D01*
Y267168D01*
X321665Y265751D01*
X318832D01*
X317416Y267168D01*
X308919Y274249D02*
X314584D01*
Y270000D01*
X311751Y271416D01*
X310335D01*
X308919Y270000D01*
Y267168D01*
X310335Y265751D01*
X313168D01*
X314584Y267168D01*
X182216Y138932D02*
X183632Y140349D01*
X186465D01*
X187881Y138932D01*
Y133268D01*
X186465Y131851D01*
X183632D01*
X182216Y133268D01*
X173719Y140349D02*
X176551Y138932D01*
X179384Y136100D01*
Y133268D01*
X177968Y131851D01*
X175135D01*
X173719Y133268D01*
Y134684D01*
X175135Y136100D01*
X179384D01*
X244416Y117432D02*
X245832Y118849D01*
X248665D01*
X250081Y117432D01*
Y111768D01*
X248665Y110351D01*
X245832D01*
X244416Y111768D01*
X241584Y118849D02*
X235919D01*
Y117432D01*
X241584Y111768D01*
Y110351D01*
X235116Y266632D02*
X236532Y268049D01*
X239365D01*
X240781Y266632D01*
Y260968D01*
X239365Y259551D01*
X236532D01*
X235116Y260968D01*
X232284Y266632D02*
X230868Y268049D01*
X228035D01*
X226619Y266632D01*
Y265216D01*
X228035Y263800D01*
X226619Y262384D01*
Y260968D01*
X228035Y259551D01*
X230868D01*
X232284Y260968D01*
Y262384D01*
X230868Y263800D01*
X232284Y265216D01*
Y266632D01*
X230868Y263800D02*
X228035D01*
X183516Y221832D02*
X184932Y223249D01*
X187765D01*
X189181Y221832D01*
Y216168D01*
X187765Y214751D01*
X184932D01*
X183516Y216168D01*
X180684D02*
X179268Y214751D01*
X176435D01*
X175019Y216168D01*
Y221832D01*
X176435Y223249D01*
X179268D01*
X180684Y221832D01*
Y220416D01*
X179268Y219000D01*
X175019D01*
X164433Y60259D02*
X165849Y58843D01*
Y56011D01*
X164433Y54595D01*
X158768D01*
X157351Y56011D01*
Y58843D01*
X158768Y60259D01*
X157351Y63092D02*
Y65924D01*
Y64508D01*
X165849D01*
X164433Y63092D01*
X157351Y70173D02*
Y73005D01*
Y71589D01*
X165849D01*
X164433Y70173D01*
X371957Y341832D02*
X373373Y343249D01*
X376205D01*
X377622Y341832D01*
Y336168D01*
X376205Y334751D01*
X373373D01*
X371957Y336168D01*
X369124Y334751D02*
X366292D01*
X367708D01*
Y343249D01*
X369124Y341832D01*
X356378Y334751D02*
X362043D01*
X356378Y340416D01*
Y341832D01*
X357795Y343249D01*
X360627D01*
X362043Y341832D01*
X370957Y176832D02*
X372373Y178249D01*
X375205D01*
X376622Y176832D01*
Y171168D01*
X375205Y169751D01*
X372373D01*
X370957Y171168D01*
X368124Y169751D02*
X365292D01*
X366708D01*
Y178249D01*
X368124Y176832D01*
X355378Y178249D02*
X361043D01*
Y174000D01*
X358211Y175416D01*
X356795D01*
X355378Y174000D01*
Y171168D01*
X356795Y169751D01*
X359627D01*
X361043Y171168D01*
X362632Y227943D02*
X364049Y226527D01*
Y223695D01*
X362632Y222278D01*
X356968D01*
X355551Y223695D01*
Y226527D01*
X356968Y227943D01*
X355551Y230776D02*
Y233608D01*
Y232192D01*
X364049D01*
X362632Y230776D01*
X355551Y242105D02*
X364049D01*
X359800Y237857D01*
Y243522D01*
X18765Y320249D02*
Y311751D01*
Y316000D01*
X13100D01*
Y320249D01*
Y311751D01*
X10268D02*
X7435D01*
X8851D01*
Y320249D01*
X10268Y318832D01*
X20181Y156249D02*
Y147751D01*
Y152000D01*
X14516D01*
Y156249D01*
Y147751D01*
X6019D02*
X11684D01*
X6019Y153416D01*
Y154832D01*
X7435Y156249D01*
X10268D01*
X11684Y154832D01*
X494181Y319249D02*
Y310751D01*
Y315000D01*
X488516D01*
Y319249D01*
Y310751D01*
X485684Y317832D02*
X484268Y319249D01*
X481435D01*
X480019Y317832D01*
Y316416D01*
X481435Y315000D01*
X482851D01*
X481435D01*
X480019Y313584D01*
Y312168D01*
X481435Y310751D01*
X484268D01*
X485684Y312168D01*
X493181Y154249D02*
Y145751D01*
Y150000D01*
X487516D01*
Y154249D01*
Y145751D01*
X480435D02*
Y154249D01*
X484684Y150000D01*
X479019D01*
X402765Y129249D02*
Y120751D01*
X397100D01*
X394268D02*
X391435D01*
X392851D01*
Y129249D01*
X394268Y127832D01*
X316181Y112249D02*
Y103751D01*
X310516D01*
X302019D02*
X307684D01*
X302019Y109416D01*
Y110832D01*
X303435Y112249D01*
X306268D01*
X307684Y110832D01*
X182751Y52919D02*
X191249D01*
Y57168D01*
X189832Y58584D01*
X187000D01*
X185584Y57168D01*
Y52919D01*
Y55751D02*
X182751Y58584D01*
X189832Y61416D02*
X191249Y62832D01*
Y65665D01*
X189832Y67081D01*
X188416D01*
X187000Y65665D01*
Y64249D01*
Y65665D01*
X185584Y67081D01*
X184168D01*
X182751Y65665D01*
Y62832D01*
X184168Y61416D01*
X412181Y318751D02*
Y327249D01*
X407932D01*
X406516Y325832D01*
Y323000D01*
X407932Y321584D01*
X412181D01*
X409349D02*
X406516Y318751D01*
X399435D02*
Y327249D01*
X403684Y323000D01*
X398019D01*
X301681Y333851D02*
Y342349D01*
X297432D01*
X296016Y340932D01*
Y338100D01*
X297432Y336684D01*
X301681D01*
X298849D02*
X296016Y333851D01*
X287519Y342349D02*
X293184D01*
Y338100D01*
X290351Y339516D01*
X288935D01*
X287519Y338100D01*
Y335268D01*
X288935Y333851D01*
X291768D01*
X293184Y335268D01*
X300081Y276751D02*
Y285249D01*
X295832D01*
X294416Y283832D01*
Y281000D01*
X295832Y279584D01*
X300081D01*
X297249D02*
X294416Y276751D01*
X285919Y285249D02*
X288751Y283832D01*
X291584Y281000D01*
Y278168D01*
X290168Y276751D01*
X287335D01*
X285919Y278168D01*
Y279584D01*
X287335Y281000D01*
X291584D01*
X413481Y292951D02*
Y301449D01*
X409232D01*
X407816Y300032D01*
Y297200D01*
X409232Y295784D01*
X413481D01*
X410649D02*
X407816Y292951D01*
X404984Y301449D02*
X399319D01*
Y300032D01*
X404984Y294368D01*
Y292951D01*
X366381Y129651D02*
Y138149D01*
X362132D01*
X360716Y136732D01*
Y133900D01*
X362132Y132484D01*
X366381D01*
X363549D02*
X360716Y129651D01*
X357884Y136732D02*
X356468Y138149D01*
X353635D01*
X352219Y136732D01*
Y135316D01*
X353635Y133900D01*
X352219Y132484D01*
Y131068D01*
X353635Y129651D01*
X356468D01*
X357884Y131068D01*
Y132484D01*
X356468Y133900D01*
X357884Y135316D01*
Y136732D01*
X356468Y133900D02*
X353635D01*
X366181Y149751D02*
Y158249D01*
X361932D01*
X360516Y156832D01*
Y154000D01*
X361932Y152584D01*
X366181D01*
X363349D02*
X360516Y149751D01*
X357684Y151168D02*
X356268Y149751D01*
X353435D01*
X352019Y151168D01*
Y156832D01*
X353435Y158249D01*
X356268D01*
X357684Y156832D01*
Y155416D01*
X356268Y154000D01*
X352019D01*
X113822Y201051D02*
Y209549D01*
X109573D01*
X108157Y208132D01*
Y205300D01*
X109573Y203884D01*
X113822D01*
X110989D02*
X108157Y201051D01*
X105324D02*
X102492D01*
X103908D01*
Y209549D01*
X105324Y208132D01*
X98243D02*
X96827Y209549D01*
X93995D01*
X92578Y208132D01*
Y202468D01*
X93995Y201051D01*
X96827D01*
X98243Y202468D01*
Y208132D01*
X112305Y225751D02*
Y234249D01*
X108057D01*
X106641Y232832D01*
Y230000D01*
X108057Y228584D01*
X112305D01*
X109473D02*
X106641Y225751D01*
X103808D02*
X100976D01*
X102392D01*
Y234249D01*
X103808Y232832D01*
X96727Y225751D02*
X93895D01*
X95311D01*
Y234249D01*
X96727Y232832D01*
X393922Y184751D02*
Y193249D01*
X389673D01*
X388257Y191832D01*
Y189000D01*
X389673Y187584D01*
X393922D01*
X391089D02*
X388257Y184751D01*
X385424D02*
X382592D01*
X384008D01*
Y193249D01*
X385424Y191832D01*
X378343D02*
X376927Y193249D01*
X374095D01*
X372678Y191832D01*
Y190416D01*
X374095Y189000D01*
X375511D01*
X374095D01*
X372678Y187584D01*
Y186168D01*
X374095Y184751D01*
X376927D01*
X378343Y186168D01*
X396722Y240751D02*
Y249249D01*
X392473D01*
X391057Y247832D01*
Y245000D01*
X392473Y243584D01*
X396722D01*
X393889D02*
X391057Y240751D01*
X388224D02*
X385392D01*
X386808D01*
Y249249D01*
X388224Y247832D01*
X376895Y240751D02*
Y249249D01*
X381143Y245000D01*
X375478D01*
X113722Y25751D02*
Y34249D01*
X109473D01*
X108057Y32832D01*
Y30000D01*
X109473Y28584D01*
X113722D01*
X110889D02*
X108057Y25751D01*
X105224D02*
X102392D01*
X103808D01*
Y34249D01*
X105224Y32832D01*
X92478Y34249D02*
X95311Y32832D01*
X98143Y30000D01*
Y27168D01*
X96727Y25751D01*
X93895D01*
X92478Y27168D01*
Y28584D01*
X93895Y30000D01*
X98143D01*
X113722Y51751D02*
Y60249D01*
X109473D01*
X108057Y58832D01*
Y56000D01*
X109473Y54584D01*
X113722D01*
X110889D02*
X108057Y51751D01*
X105224D02*
X102392D01*
X103808D01*
Y60249D01*
X105224Y58832D01*
X98143Y60249D02*
X92478D01*
Y58832D01*
X98143Y53168D01*
Y51751D01*
X390722Y7751D02*
Y16249D01*
X386473D01*
X385057Y14832D01*
Y12000D01*
X386473Y10584D01*
X390722D01*
X387889D02*
X385057Y7751D01*
X382224D02*
X379392D01*
X380808D01*
Y16249D01*
X382224Y14832D01*
X375143D02*
X373727Y16249D01*
X370895D01*
X369478Y14832D01*
Y13416D01*
X370895Y12000D01*
X369478Y10584D01*
Y9168D01*
X370895Y7751D01*
X373727D01*
X375143Y9168D01*
Y10584D01*
X373727Y12000D01*
X375143Y13416D01*
Y14832D01*
X373727Y12000D02*
X370895D01*
X332014Y32751D02*
Y41249D01*
X327765D01*
X326349Y39832D01*
Y37000D01*
X327765Y35584D01*
X332014D01*
X329181D02*
X326349Y32751D01*
X317851D02*
X323516D01*
X317851Y38416D01*
Y39832D01*
X319268Y41249D01*
X322100D01*
X323516Y39832D01*
X315019Y32751D02*
X312187D01*
X313603D01*
Y41249D01*
X315019Y39832D01*
X308665Y227249D02*
Y220168D01*
X307249Y218751D01*
X304416D01*
X303000Y220168D01*
Y227249D01*
X300168Y218751D02*
X297335D01*
X298751D01*
Y227249D01*
X300168Y225832D01*
X344581Y287349D02*
Y280268D01*
X343165Y278851D01*
X340332D01*
X338916Y280268D01*
Y287349D01*
X330419Y278851D02*
X336084D01*
X330419Y284516D01*
Y285932D01*
X331835Y287349D01*
X334668D01*
X336084Y285932D01*
X360549Y199335D02*
X352051Y205000D01*
X360549D02*
X352051Y199335D01*
Y207832D02*
Y210665D01*
Y209249D01*
X360549D01*
X359132Y207832D01*
D70*
X106000Y333375D02*
D03*
D71*
X132500Y279000D02*
D03*
M02*
