G04*
G04 #@! TF.GenerationSoftware,Altium Limited,Altium Designer,21.4.1 (30)*
G04*
G04 Layer_Color=65535*
%FSLAX44Y44*%
%MOMM*%
G71*
G04*
G04 #@! TF.SameCoordinates,D9E7D647-E61C-487C-AA5F-480CAE51DE59*
G04*
G04*
G04 #@! TF.FilePolarity,Positive*
G04*
G01*
G75*
%ADD10C,0.1000*%
%ADD11C,0.2000*%
%ADD12C,0.2500*%
%ADD13C,0.3000*%
%ADD14C,0.3500*%
%ADD15C,0.2540*%
%ADD16C,0.1200*%
G36*
X207417Y280671D02*
X207547D01*
X207696Y280661D01*
X207856Y280651D01*
X208026Y280631D01*
X208395Y280591D01*
X208774Y280521D01*
X208954Y280481D01*
X209124Y280431D01*
X209284Y280382D01*
X209423Y280312D01*
Y278924D01*
X209413Y278934D01*
X209383Y278954D01*
X209323Y278984D01*
X209254Y279024D01*
X209164Y279074D01*
X209054Y279134D01*
X208924Y279184D01*
X208774Y279254D01*
X208615Y279313D01*
X208435Y279363D01*
X208235Y279423D01*
X208026Y279473D01*
X207796Y279513D01*
X207556Y279543D01*
X207307Y279563D01*
X207038Y279573D01*
X206888D01*
X206788Y279563D01*
X206668Y279553D01*
X206528Y279533D01*
X206379Y279513D01*
X206229Y279483D01*
X206209D01*
X206159Y279463D01*
X206089Y279443D01*
X205989Y279423D01*
X205879Y279383D01*
X205760Y279333D01*
X205630Y279283D01*
X205510Y279214D01*
X205500Y279204D01*
X205460Y279184D01*
X205400Y279134D01*
X205331Y279084D01*
X205251Y279004D01*
X205161Y278924D01*
X205081Y278824D01*
X205001Y278715D01*
X204991Y278704D01*
X204971Y278664D01*
X204941Y278595D01*
X204901Y278515D01*
X204861Y278405D01*
X204831Y278285D01*
X204811Y278146D01*
X204801Y277986D01*
Y277966D01*
Y277916D01*
X204811Y277846D01*
X204821Y277746D01*
X204841Y277636D01*
X204861Y277527D01*
X204901Y277407D01*
X204951Y277287D01*
X204961Y277277D01*
X204981Y277237D01*
X205011Y277187D01*
X205061Y277107D01*
X205121Y277027D01*
X205201Y276938D01*
X205291Y276848D01*
X205390Y276748D01*
X205400Y276738D01*
X205440Y276708D01*
X205510Y276658D01*
X205590Y276598D01*
X205700Y276528D01*
X205820Y276448D01*
X205959Y276369D01*
X206109Y276279D01*
X206129Y276269D01*
X206179Y276239D01*
X206269Y276199D01*
X206389Y276139D01*
X206528Y276059D01*
X206698Y275979D01*
X206878Y275889D01*
X207077Y275790D01*
X207087D01*
X207107Y275780D01*
X207137Y275760D01*
X207177Y275740D01*
X207287Y275690D01*
X207427Y275610D01*
X207586Y275520D01*
X207766Y275420D01*
X208146Y275201D01*
X208155D01*
X208165Y275191D01*
X208195Y275171D01*
X208235Y275151D01*
X208325Y275081D01*
X208445Y275001D01*
X208585Y274901D01*
X208734Y274781D01*
X208884Y274652D01*
X209034Y274512D01*
X209054Y274492D01*
X209094Y274452D01*
X209174Y274372D01*
X209254Y274272D01*
X209353Y274153D01*
X209453Y274003D01*
X209553Y273853D01*
X209643Y273683D01*
X209653Y273664D01*
X209683Y273604D01*
X209713Y273514D01*
X209763Y273384D01*
X209802Y273234D01*
X209832Y273055D01*
X209862Y272855D01*
X209872Y272645D01*
Y272635D01*
Y272615D01*
Y272575D01*
Y272516D01*
X209862Y272456D01*
X209852Y272376D01*
X209832Y272196D01*
X209792Y271987D01*
X209743Y271767D01*
X209663Y271547D01*
X209563Y271338D01*
Y271328D01*
X209553Y271318D01*
X209533Y271288D01*
X209513Y271248D01*
X209443Y271148D01*
X209353Y271028D01*
X209233Y270888D01*
X209094Y270739D01*
X208924Y270599D01*
X208744Y270459D01*
X208734D01*
X208724Y270449D01*
X208694Y270429D01*
X208655Y270409D01*
X208605Y270379D01*
X208545Y270349D01*
X208405Y270270D01*
X208225Y270190D01*
X208016Y270110D01*
X207796Y270040D01*
X207547Y269980D01*
X207537D01*
X207517Y269970D01*
X207477D01*
X207427Y269960D01*
X207367Y269950D01*
X207297Y269930D01*
X207207Y269920D01*
X207117Y269910D01*
X206908Y269880D01*
X206668Y269850D01*
X206409Y269840D01*
X206129Y269830D01*
X206029D01*
X205959Y269840D01*
X205870D01*
X205760Y269850D01*
X205640Y269860D01*
X205510Y269870D01*
X205490D01*
X205450Y269880D01*
X205380Y269890D01*
X205281Y269900D01*
X205171Y269910D01*
X205041Y269930D01*
X204901Y269960D01*
X204762Y269980D01*
X204742D01*
X204702Y269990D01*
X204622Y270010D01*
X204532Y270030D01*
X204422Y270060D01*
X204302Y270090D01*
X204043Y270160D01*
X204033Y270170D01*
X203983Y270180D01*
X203923Y270210D01*
X203843Y270240D01*
X203664Y270319D01*
X203574Y270369D01*
X203494Y270419D01*
Y271877D01*
X203504Y271867D01*
X203534Y271837D01*
X203594Y271797D01*
X203664Y271737D01*
X203753Y271677D01*
X203853Y271607D01*
X203963Y271537D01*
X204093Y271467D01*
X204113Y271457D01*
X204153Y271437D01*
X204223Y271408D01*
X204312Y271368D01*
X204422Y271318D01*
X204552Y271278D01*
X204682Y271228D01*
X204821Y271178D01*
X204841D01*
X204891Y271158D01*
X204961Y271138D01*
X205061Y271108D01*
X205181Y271078D01*
X205310Y271048D01*
X205600Y270988D01*
X205620D01*
X205670Y270978D01*
X205740Y270968D01*
X205840Y270958D01*
X205949Y270948D01*
X206069Y270938D01*
X206319Y270928D01*
X206429D01*
X206508Y270938D01*
X206598D01*
X206708Y270948D01*
X206828Y270968D01*
X206958Y270978D01*
X207237Y271028D01*
X207517Y271108D01*
X207786Y271208D01*
X207906Y271278D01*
X208016Y271348D01*
X208026Y271358D01*
X208036Y271368D01*
X208106Y271427D01*
X208195Y271527D01*
X208295Y271657D01*
X208395Y271827D01*
X208485Y272036D01*
X208555Y272286D01*
X208565Y272416D01*
X208575Y272565D01*
Y272585D01*
Y272635D01*
X208565Y272715D01*
X208555Y272815D01*
X208525Y272925D01*
X208495Y273055D01*
X208445Y273174D01*
X208385Y273294D01*
X208375Y273304D01*
X208355Y273344D01*
X208315Y273414D01*
X208255Y273484D01*
X208185Y273574D01*
X208096Y273673D01*
X207996Y273773D01*
X207876Y273873D01*
X207866Y273883D01*
X207816Y273913D01*
X207746Y273973D01*
X207656Y274033D01*
X207537Y274113D01*
X207407Y274193D01*
X207257Y274282D01*
X207087Y274372D01*
X207067Y274382D01*
X207008Y274412D01*
X206918Y274462D01*
X206798Y274522D01*
X206658Y274602D01*
X206488Y274692D01*
X206309Y274781D01*
X206119Y274881D01*
X206109D01*
X206099Y274891D01*
X206069Y274911D01*
X206029Y274931D01*
X205919Y274981D01*
X205790Y275061D01*
X205630Y275141D01*
X205450Y275231D01*
X205091Y275440D01*
X205081D01*
X205071Y275450D01*
X205011Y275490D01*
X204921Y275550D01*
X204811Y275630D01*
X204682Y275720D01*
X204542Y275830D01*
X204402Y275949D01*
X204262Y276069D01*
X204242Y276089D01*
X204202Y276129D01*
X204143Y276199D01*
X204063Y276299D01*
X203973Y276409D01*
X203883Y276548D01*
X203793Y276688D01*
X203713Y276848D01*
Y276858D01*
X203703Y276868D01*
X203683Y276928D01*
X203654Y277017D01*
X203614Y277137D01*
X203574Y277297D01*
X203544Y277467D01*
X203524Y277666D01*
X203514Y277876D01*
Y277886D01*
Y277906D01*
Y277946D01*
X203524Y277996D01*
Y278056D01*
X203534Y278136D01*
X203554Y278305D01*
X203594Y278495D01*
X203643Y278704D01*
X203723Y278914D01*
X203823Y279124D01*
Y279134D01*
X203843Y279144D01*
X203853Y279174D01*
X203883Y279214D01*
X203953Y279313D01*
X204043Y279433D01*
X204163Y279573D01*
X204312Y279713D01*
X204472Y279862D01*
X204652Y279992D01*
X204662D01*
X204672Y280012D01*
X204702Y280022D01*
X204742Y280052D01*
X204851Y280112D01*
X204991Y280192D01*
X205161Y280272D01*
X205360Y280361D01*
X205580Y280441D01*
X205820Y280511D01*
X205830D01*
X205850Y280521D01*
X205889Y280531D01*
X205929Y280541D01*
X205989Y280551D01*
X206069Y280561D01*
X206239Y280601D01*
X206439Y280631D01*
X206668Y280651D01*
X206908Y280671D01*
X207167Y280681D01*
X207317D01*
X207417Y280671D01*
D02*
G37*
G36*
X219655Y274242D02*
Y274232D01*
Y274193D01*
Y274133D01*
X219645Y274053D01*
Y273953D01*
X219625Y273833D01*
X219615Y273703D01*
X219595Y273554D01*
X219565Y273394D01*
X219535Y273224D01*
X219445Y272845D01*
X219385Y272645D01*
X219326Y272446D01*
X219246Y272246D01*
X219156Y272036D01*
X219056Y271827D01*
X218946Y271627D01*
X218817Y271427D01*
X218677Y271228D01*
X218527Y271038D01*
X218357Y270858D01*
X218178Y270679D01*
X217968Y270519D01*
X217748Y270369D01*
X217509Y270240D01*
X217259Y270120D01*
X216980Y270020D01*
X216680Y269940D01*
X216361Y269880D01*
X216021Y269840D01*
X215662Y269830D01*
X215572D01*
X215502Y269840D01*
X215413Y269850D01*
X215313Y269860D01*
X215193Y269870D01*
X215063Y269900D01*
X214923Y269930D01*
X214774Y269960D01*
X214454Y270050D01*
X214275Y270120D01*
X214105Y270190D01*
X213925Y270270D01*
X213745Y270359D01*
X213566Y270469D01*
X213386Y270589D01*
X213216Y270719D01*
X213047Y270868D01*
X212877Y271028D01*
X212717Y271208D01*
X212568Y271408D01*
X212428Y271627D01*
X212298Y271857D01*
X212178Y272116D01*
X212078Y272386D01*
X211999Y272675D01*
X211929Y272995D01*
X211869Y273334D01*
X211839Y273693D01*
X211829Y274083D01*
Y280511D01*
X213067D01*
Y274163D01*
Y274153D01*
Y274123D01*
Y274083D01*
X213077Y274023D01*
Y273953D01*
X213087Y273863D01*
X213097Y273763D01*
X213107Y273654D01*
X213147Y273414D01*
X213207Y273144D01*
X213296Y272845D01*
X213406Y272546D01*
X213556Y272246D01*
X213636Y272096D01*
X213736Y271957D01*
X213835Y271817D01*
X213955Y271677D01*
X214075Y271557D01*
X214215Y271437D01*
X214364Y271328D01*
X214524Y271228D01*
X214704Y271138D01*
X214893Y271068D01*
X215093Y271008D01*
X215313Y270968D01*
X215542Y270938D01*
X215792Y270928D01*
X215862D01*
X215902Y270938D01*
X215961D01*
X216031Y270948D01*
X216201Y270978D01*
X216401Y271028D01*
X216630Y271098D01*
X216860Y271188D01*
X217110Y271318D01*
X217229Y271397D01*
X217359Y271487D01*
X217479Y271587D01*
X217599Y271687D01*
X217708Y271807D01*
X217818Y271947D01*
X217918Y272086D01*
X218018Y272246D01*
X218108Y272416D01*
X218188Y272605D01*
X218258Y272805D01*
X218317Y273025D01*
X218367Y273254D01*
X218397Y273504D01*
X218417Y273773D01*
X218427Y274053D01*
Y280511D01*
X219655D01*
Y274242D01*
D02*
G37*
G36*
X201228Y270000D02*
X200000D01*
Y280511D01*
X201228D01*
Y270000D01*
D02*
G37*
G36*
X225205Y280671D02*
X225285Y280661D01*
X225375Y280641D01*
X225475Y280621D01*
X225584Y280601D01*
X225834Y280521D01*
X225974Y280461D01*
X226113Y280401D01*
X226263Y280322D01*
X226413Y280232D01*
X226563Y280122D01*
X226722Y280012D01*
X226882Y279872D01*
X227032Y279723D01*
X227181Y279553D01*
X227331Y279363D01*
X227471Y279154D01*
X227611Y278934D01*
X227740Y278685D01*
X227860Y278405D01*
X227970Y278116D01*
X228070Y277786D01*
X228160Y277447D01*
X228240Y277067D01*
X228300Y276668D01*
X228340Y276239D01*
X228369Y275780D01*
X228379Y275291D01*
Y275281D01*
Y275231D01*
Y275161D01*
Y275071D01*
X228369Y274951D01*
Y274821D01*
X228359Y274672D01*
X228349Y274502D01*
X228340Y274332D01*
X228319Y274143D01*
X228280Y273753D01*
X228220Y273344D01*
X228140Y272955D01*
Y272945D01*
X228130Y272915D01*
X228120Y272855D01*
X228100Y272785D01*
X228070Y272695D01*
X228040Y272595D01*
X228010Y272486D01*
X227960Y272356D01*
X227870Y272086D01*
X227750Y271797D01*
X227611Y271517D01*
X227451Y271238D01*
Y271228D01*
X227431Y271208D01*
X227401Y271168D01*
X227371Y271128D01*
X227331Y271068D01*
X227271Y270998D01*
X227142Y270849D01*
X226982Y270669D01*
X226792Y270499D01*
X226583Y270329D01*
X226343Y270180D01*
X226333D01*
X226313Y270160D01*
X226273Y270150D01*
X226223Y270120D01*
X226163Y270100D01*
X226094Y270070D01*
X226004Y270030D01*
X225914Y270000D01*
X225684Y269930D01*
X225435Y269880D01*
X225155Y269840D01*
X224846Y269820D01*
X224766D01*
X224716Y269830D01*
X224646D01*
X224566Y269840D01*
X224476Y269850D01*
X224377Y269860D01*
X224157Y269900D01*
X223917Y269960D01*
X223678Y270050D01*
X223438Y270160D01*
X223428D01*
X223408Y270180D01*
X223378Y270200D01*
X223338Y270230D01*
X223219Y270309D01*
X223079Y270419D01*
X222909Y270559D01*
X222740Y270739D01*
X222560Y270938D01*
X222390Y271178D01*
Y271188D01*
X222370Y271208D01*
X222350Y271248D01*
X222320Y271298D01*
X222290Y271368D01*
X222250Y271437D01*
X222200Y271527D01*
X222150Y271637D01*
X222101Y271747D01*
X222051Y271877D01*
X222001Y272006D01*
X221941Y272146D01*
X221841Y272466D01*
X221751Y272815D01*
Y272825D01*
X221741Y272855D01*
X221731Y272915D01*
X221721Y272985D01*
X221701Y273074D01*
X221681Y273184D01*
X221661Y273314D01*
X221641Y273454D01*
X221621Y273613D01*
X221602Y273783D01*
X221581Y273963D01*
X221562Y274163D01*
X221552Y274372D01*
X221542Y274582D01*
X221532Y275041D01*
Y275061D01*
Y275101D01*
Y275171D01*
Y275271D01*
X221542Y275390D01*
Y275530D01*
X221552Y275690D01*
X221562Y275860D01*
X221572Y276049D01*
X221591Y276239D01*
X221631Y276648D01*
X221681Y277057D01*
X221761Y277467D01*
Y277477D01*
X221771Y277517D01*
X221781Y277567D01*
X221801Y277646D01*
X221831Y277736D01*
X221861Y277836D01*
X221891Y277956D01*
X221931Y278086D01*
X222031Y278365D01*
X222141Y278664D01*
X222280Y278964D01*
X222440Y279244D01*
X222450Y279254D01*
X222460Y279273D01*
X222490Y279313D01*
X222520Y279363D01*
X222560Y279423D01*
X222620Y279493D01*
X222749Y279653D01*
X222909Y279823D01*
X223099Y280002D01*
X223308Y280172D01*
X223548Y280322D01*
X223558D01*
X223578Y280342D01*
X223618Y280352D01*
X223668Y280382D01*
X223728Y280401D01*
X223798Y280431D01*
X223887Y280471D01*
X223987Y280501D01*
X224087Y280531D01*
X224207Y280571D01*
X224466Y280621D01*
X224756Y280661D01*
X225065Y280681D01*
X225145D01*
X225205Y280671D01*
D02*
G37*
G36*
X224228Y166000D02*
X223000D01*
Y176511D01*
X224228D01*
Y166000D01*
D02*
G37*
G36*
X231555Y176671D02*
X231615D01*
X231764Y176661D01*
X231954Y176641D01*
X232164Y176601D01*
X232403Y176561D01*
X232663Y176501D01*
X232932Y176421D01*
X233222Y176322D01*
X233511Y176202D01*
X233801Y176062D01*
X234090Y175892D01*
X234380Y175703D01*
X234649Y175473D01*
X234909Y175214D01*
X234929Y175194D01*
X234969Y175144D01*
X235029Y175064D01*
X235118Y174944D01*
X235218Y174804D01*
X235328Y174625D01*
X235448Y174415D01*
X235578Y174185D01*
X235697Y173926D01*
X235817Y173636D01*
X235927Y173317D01*
X236027Y172978D01*
X236117Y172608D01*
X236176Y172229D01*
X236226Y171810D01*
X236236Y171380D01*
Y171370D01*
Y171350D01*
Y171320D01*
Y171271D01*
Y171211D01*
X236226Y171131D01*
Y171051D01*
X236216Y170961D01*
X236196Y170742D01*
X236166Y170492D01*
X236127Y170212D01*
X236067Y169913D01*
X235997Y169594D01*
X235907Y169264D01*
X235797Y168925D01*
X235657Y168585D01*
X235508Y168246D01*
X235318Y167927D01*
X235108Y167607D01*
X234869Y167318D01*
X234849Y167298D01*
X234809Y167258D01*
X234729Y167178D01*
X234619Y167088D01*
X234480Y166968D01*
X234320Y166849D01*
X234130Y166709D01*
X233901Y166579D01*
X233661Y166439D01*
X233382Y166299D01*
X233082Y166180D01*
X232763Y166060D01*
X232413Y165970D01*
X232034Y165890D01*
X231645Y165850D01*
X231225Y165830D01*
X231126D01*
X231076Y165840D01*
X231006D01*
X230856Y165850D01*
X230666Y165880D01*
X230447Y165910D01*
X230207Y165950D01*
X229938Y166010D01*
X229658Y166090D01*
X229369Y166190D01*
X229069Y166309D01*
X228770Y166449D01*
X228470Y166619D01*
X228181Y166819D01*
X227901Y167038D01*
X227642Y167298D01*
X227632Y167318D01*
X227582Y167368D01*
X227522Y167447D01*
X227432Y167567D01*
X227332Y167707D01*
X227222Y167887D01*
X227103Y168096D01*
X226973Y168326D01*
X226853Y168585D01*
X226723Y168875D01*
X226614Y169194D01*
X226514Y169534D01*
X226424Y169903D01*
X226364Y170282D01*
X226324Y170702D01*
X226304Y171131D01*
Y171141D01*
Y171161D01*
Y171191D01*
Y171241D01*
X226314Y171301D01*
Y171370D01*
Y171460D01*
X226324Y171550D01*
X226344Y171770D01*
X226374Y172009D01*
X226424Y172289D01*
X226474Y172588D01*
X226544Y172908D01*
X226633Y173237D01*
X226753Y173566D01*
X226883Y173906D01*
X227043Y174245D01*
X227222Y174565D01*
X227432Y174884D01*
X227672Y175174D01*
X227692Y175194D01*
X227732Y175243D01*
X227811Y175313D01*
X227921Y175413D01*
X228061Y175523D01*
X228231Y175653D01*
X228430Y175783D01*
X228650Y175932D01*
X228899Y176072D01*
X229189Y176202D01*
X229488Y176332D01*
X229828Y176441D01*
X230187Y176541D01*
X230567Y176621D01*
X230976Y176661D01*
X231405Y176681D01*
X231505D01*
X231555Y176671D01*
D02*
G37*
G36*
X241238D02*
X241317Y176661D01*
X241407Y176641D01*
X241507Y176621D01*
X241617Y176601D01*
X241866Y176521D01*
X242006Y176461D01*
X242146Y176402D01*
X242296Y176322D01*
X242445Y176232D01*
X242595Y176122D01*
X242755Y176012D01*
X242915Y175872D01*
X243064Y175723D01*
X243214Y175553D01*
X243364Y175363D01*
X243503Y175154D01*
X243643Y174934D01*
X243773Y174685D01*
X243893Y174405D01*
X244003Y174116D01*
X244102Y173786D01*
X244192Y173447D01*
X244272Y173067D01*
X244332Y172668D01*
X244372Y172239D01*
X244402Y171780D01*
X244412Y171291D01*
Y171281D01*
Y171231D01*
Y171161D01*
Y171071D01*
X244402Y170951D01*
Y170821D01*
X244392Y170672D01*
X244382Y170502D01*
X244372Y170332D01*
X244352Y170143D01*
X244312Y169753D01*
X244252Y169344D01*
X244172Y168955D01*
Y168945D01*
X244162Y168915D01*
X244152Y168855D01*
X244132Y168785D01*
X244102Y168695D01*
X244072Y168595D01*
X244042Y168486D01*
X243993Y168356D01*
X243903Y168086D01*
X243783Y167797D01*
X243643Y167517D01*
X243484Y167238D01*
Y167228D01*
X243463Y167208D01*
X243434Y167168D01*
X243404Y167128D01*
X243364Y167068D01*
X243304Y166998D01*
X243174Y166849D01*
X243014Y166669D01*
X242825Y166499D01*
X242615Y166329D01*
X242376Y166180D01*
X242365D01*
X242346Y166160D01*
X242306Y166150D01*
X242256Y166120D01*
X242196Y166100D01*
X242126Y166070D01*
X242036Y166030D01*
X241946Y166000D01*
X241717Y165930D01*
X241467Y165880D01*
X241188Y165840D01*
X240878Y165820D01*
X240798D01*
X240748Y165830D01*
X240679D01*
X240599Y165840D01*
X240509Y165850D01*
X240409Y165860D01*
X240189Y165900D01*
X239950Y165960D01*
X239710Y166050D01*
X239471Y166160D01*
X239461D01*
X239441Y166180D01*
X239411Y166200D01*
X239371Y166230D01*
X239251Y166309D01*
X239111Y166419D01*
X238942Y166559D01*
X238772Y166739D01*
X238592Y166938D01*
X238423Y167178D01*
Y167188D01*
X238403Y167208D01*
X238383Y167248D01*
X238353Y167298D01*
X238323Y167368D01*
X238283Y167437D01*
X238233Y167527D01*
X238183Y167637D01*
X238133Y167747D01*
X238083Y167877D01*
X238033Y168006D01*
X237973Y168146D01*
X237873Y168466D01*
X237784Y168815D01*
Y168825D01*
X237774Y168855D01*
X237764Y168915D01*
X237754Y168985D01*
X237734Y169074D01*
X237714Y169184D01*
X237694Y169314D01*
X237674Y169454D01*
X237654Y169614D01*
X237634Y169783D01*
X237614Y169963D01*
X237594Y170163D01*
X237584Y170372D01*
X237574Y170582D01*
X237564Y171041D01*
Y171061D01*
Y171101D01*
Y171171D01*
Y171271D01*
X237574Y171390D01*
Y171530D01*
X237584Y171690D01*
X237594Y171859D01*
X237604Y172049D01*
X237624Y172239D01*
X237664Y172648D01*
X237714Y173057D01*
X237794Y173467D01*
Y173477D01*
X237804Y173517D01*
X237814Y173566D01*
X237834Y173646D01*
X237864Y173736D01*
X237894Y173836D01*
X237923Y173956D01*
X237963Y174086D01*
X238063Y174365D01*
X238173Y174664D01*
X238313Y174964D01*
X238472Y175243D01*
X238482Y175254D01*
X238492Y175273D01*
X238522Y175313D01*
X238552Y175363D01*
X238592Y175423D01*
X238652Y175493D01*
X238782Y175653D01*
X238942Y175823D01*
X239131Y176002D01*
X239341Y176172D01*
X239580Y176322D01*
X239590D01*
X239610Y176342D01*
X239650Y176352D01*
X239700Y176381D01*
X239760Y176402D01*
X239830Y176431D01*
X239920Y176471D01*
X240020Y176501D01*
X240119Y176531D01*
X240239Y176571D01*
X240499Y176621D01*
X240788Y176661D01*
X241098Y176681D01*
X241178D01*
X241238Y176671D01*
D02*
G37*
G36*
X281236Y166000D02*
X280038D01*
Y175074D01*
X280028Y175064D01*
X280008Y175054D01*
X279978Y175024D01*
X279938Y174984D01*
X279878Y174934D01*
X279808Y174884D01*
X279728Y174824D01*
X279629Y174754D01*
X279619Y174744D01*
X279579Y174724D01*
X279529Y174685D01*
X279449Y174645D01*
X279359Y174585D01*
X279259Y174525D01*
X279139Y174465D01*
X279020Y174395D01*
X279010Y174385D01*
X278960Y174365D01*
X278900Y174335D01*
X278810Y174295D01*
X278700Y174245D01*
X278590Y174185D01*
X278461Y174125D01*
X278321Y174066D01*
X278301Y174056D01*
X278261Y174046D01*
X278181Y174016D01*
X278091Y173986D01*
X277981Y173946D01*
X277862Y173906D01*
X277602Y173836D01*
Y175044D01*
X277622Y175054D01*
X277672Y175064D01*
X277752Y175094D01*
X277862Y175124D01*
X277981Y175164D01*
X278121Y175214D01*
X278281Y175273D01*
X278441Y175343D01*
X278451D01*
X278461Y175353D01*
X278521Y175373D01*
X278600Y175413D01*
X278710Y175463D01*
X278850Y175533D01*
X278990Y175603D01*
X279309Y175763D01*
X279319D01*
X279329Y175773D01*
X279379Y175802D01*
X279469Y175852D01*
X279569Y175912D01*
X279698Y175982D01*
X279828Y176062D01*
X280118Y176242D01*
X280138Y176252D01*
X280188Y176282D01*
X280257Y176342D01*
X280347Y176402D01*
X280457Y176481D01*
X280567Y176561D01*
X280677Y176651D01*
X280786Y176741D01*
X281236D01*
Y166000D01*
D02*
G37*
G36*
X263228D02*
X262000D01*
Y176511D01*
X263228D01*
Y166000D01*
D02*
G37*
G36*
X270555Y176671D02*
X270615D01*
X270764Y176661D01*
X270954Y176641D01*
X271164Y176601D01*
X271403Y176561D01*
X271663Y176501D01*
X271932Y176421D01*
X272222Y176322D01*
X272511Y176202D01*
X272801Y176062D01*
X273090Y175892D01*
X273380Y175703D01*
X273649Y175473D01*
X273909Y175214D01*
X273929Y175194D01*
X273969Y175144D01*
X274029Y175064D01*
X274118Y174944D01*
X274218Y174804D01*
X274328Y174625D01*
X274448Y174415D01*
X274578Y174185D01*
X274697Y173926D01*
X274817Y173636D01*
X274927Y173317D01*
X275027Y172978D01*
X275117Y172608D01*
X275177Y172229D01*
X275226Y171810D01*
X275236Y171380D01*
Y171370D01*
Y171350D01*
Y171320D01*
Y171271D01*
Y171211D01*
X275226Y171131D01*
Y171051D01*
X275216Y170961D01*
X275196Y170742D01*
X275166Y170492D01*
X275127Y170212D01*
X275067Y169913D01*
X274997Y169594D01*
X274907Y169264D01*
X274797Y168925D01*
X274657Y168585D01*
X274508Y168246D01*
X274318Y167927D01*
X274108Y167607D01*
X273869Y167318D01*
X273849Y167298D01*
X273809Y167258D01*
X273729Y167178D01*
X273619Y167088D01*
X273479Y166968D01*
X273320Y166849D01*
X273130Y166709D01*
X272901Y166579D01*
X272661Y166439D01*
X272381Y166299D01*
X272082Y166180D01*
X271763Y166060D01*
X271413Y165970D01*
X271034Y165890D01*
X270645Y165850D01*
X270225Y165830D01*
X270126D01*
X270076Y165840D01*
X270006D01*
X269856Y165850D01*
X269666Y165880D01*
X269447Y165910D01*
X269207Y165950D01*
X268938Y166010D01*
X268658Y166090D01*
X268369Y166190D01*
X268069Y166309D01*
X267770Y166449D01*
X267470Y166619D01*
X267181Y166819D01*
X266901Y167038D01*
X266642Y167298D01*
X266632Y167318D01*
X266582Y167368D01*
X266522Y167447D01*
X266432Y167567D01*
X266332Y167707D01*
X266222Y167887D01*
X266103Y168096D01*
X265973Y168326D01*
X265853Y168585D01*
X265723Y168875D01*
X265614Y169194D01*
X265514Y169534D01*
X265424Y169903D01*
X265364Y170282D01*
X265324Y170702D01*
X265304Y171131D01*
Y171141D01*
Y171161D01*
Y171191D01*
Y171241D01*
X265314Y171301D01*
Y171370D01*
Y171460D01*
X265324Y171550D01*
X265344Y171770D01*
X265374Y172009D01*
X265424Y172289D01*
X265474Y172588D01*
X265544Y172908D01*
X265634Y173237D01*
X265753Y173566D01*
X265883Y173906D01*
X266043Y174245D01*
X266222Y174565D01*
X266432Y174884D01*
X266672Y175174D01*
X266692Y175194D01*
X266732Y175243D01*
X266811Y175313D01*
X266921Y175413D01*
X267061Y175523D01*
X267231Y175653D01*
X267430Y175783D01*
X267650Y175932D01*
X267899Y176072D01*
X268189Y176202D01*
X268488Y176332D01*
X268828Y176441D01*
X269187Y176541D01*
X269566Y176621D01*
X269976Y176661D01*
X270405Y176681D01*
X270505D01*
X270555Y176671D01*
D02*
G37*
G36*
X264812Y138688D02*
X271029D01*
Y124566D01*
X230650D01*
Y138688D01*
X243006D01*
D01*
X247692D01*
X247277Y138675D01*
X246874Y138636D01*
X246485Y138584D01*
X246122Y138506D01*
X245758Y138415D01*
X245434Y138324D01*
X245122Y138221D01*
X244837Y138117D01*
X244577Y138000D01*
X244356Y137896D01*
X244149Y137805D01*
X243980Y137715D01*
X243850Y137637D01*
X243746Y137585D01*
X243694Y137546D01*
X243668Y137533D01*
Y134885D01*
X243967Y135132D01*
X244278Y135352D01*
X244577Y135534D01*
X244876Y135690D01*
X245161Y135833D01*
X245447Y135949D01*
X245706Y136040D01*
X245966Y136118D01*
X246186Y136170D01*
X246394Y136209D01*
X246589Y136248D01*
X246744Y136261D01*
X246874Y136274D01*
X246965Y136287D01*
X247043D01*
X247407Y136274D01*
X247718Y136222D01*
X247978Y136144D01*
X248185Y136066D01*
X248354Y135975D01*
X248471Y135910D01*
X248536Y135858D01*
X248562Y135833D01*
X248730Y135651D01*
X248847Y135443D01*
X248938Y135223D01*
X248990Y135015D01*
X249029Y134820D01*
X249042Y134664D01*
X249055Y134600D01*
Y134560D01*
Y134535D01*
Y134522D01*
Y134353D01*
X249029Y134197D01*
X249003Y134054D01*
X248977Y133925D01*
X248951Y133821D01*
X248925Y133730D01*
X248912Y133678D01*
X248899Y133665D01*
X248834Y133522D01*
X248769Y133379D01*
X248691Y133250D01*
X248613Y133133D01*
X248549Y133029D01*
X248497Y132951D01*
X248458Y132899D01*
X248445Y132886D01*
X248328Y132743D01*
X248198Y132601D01*
X248068Y132471D01*
X247952Y132354D01*
X247835Y132250D01*
X247757Y132172D01*
X247705Y132120D01*
X247679Y132107D01*
X247510Y131965D01*
X247329Y131822D01*
X247147Y131679D01*
X246978Y131549D01*
X246835Y131446D01*
X246731Y131368D01*
X246654Y131316D01*
X246641Y131290D01*
X246628D01*
X246199Y130978D01*
X245992Y130822D01*
X245810Y130680D01*
X245654Y130550D01*
X245525Y130459D01*
X245447Y130394D01*
X245434Y130368D01*
X245421D01*
X245187Y130174D01*
X244966Y129979D01*
X244772Y129771D01*
X244603Y129589D01*
X244460Y129434D01*
X244343Y129317D01*
X244304Y129265D01*
X244278Y129226D01*
X244265Y129213D01*
X244252Y129200D01*
X244058Y128940D01*
X243889Y128694D01*
X243733Y128434D01*
X243603Y128201D01*
X243500Y128006D01*
X243461Y127915D01*
X243422Y127850D01*
X243396Y127785D01*
X243370Y127746D01*
X243357Y127720D01*
Y127707D01*
X243240Y127383D01*
X243149Y127058D01*
X243097Y126747D01*
X243045Y126461D01*
X243032Y126319D01*
X243019Y126202D01*
Y126098D01*
X243006Y126007D01*
Y124800D01*
X252131D01*
D01*
X252105D01*
Y127292D01*
X246316D01*
X246329Y127396D01*
X246342Y127487D01*
X246407Y127669D01*
X246446Y127746D01*
X246472Y127798D01*
X246485Y127837D01*
X246498Y127850D01*
X246667Y128071D01*
X246744Y128175D01*
X246835Y128265D01*
X246900Y128343D01*
X246965Y128408D01*
X247004Y128447D01*
X247017Y128460D01*
X247264Y128694D01*
X247393Y128798D01*
X247510Y128889D01*
X247614Y128966D01*
X247692Y129031D01*
X247744Y129070D01*
X247757Y129083D01*
X248081Y129317D01*
X248224Y129434D01*
X248354Y129524D01*
X248471Y129615D01*
X248562Y129680D01*
X248613Y129719D01*
X248640Y129732D01*
X248899Y129914D01*
X249133Y130083D01*
X249353Y130238D01*
X249548Y130394D01*
X249717Y130511D01*
X249847Y130615D01*
X249925Y130667D01*
X249937Y130693D01*
X249950D01*
X250184Y130887D01*
X250392Y131082D01*
X250586Y131264D01*
X250742Y131433D01*
X250885Y131575D01*
X250976Y131692D01*
X251041Y131770D01*
X251067Y131796D01*
X251235Y132029D01*
X251391Y132263D01*
X251521Y132484D01*
X251625Y132691D01*
X251716Y132873D01*
X251780Y133016D01*
X251807Y133068D01*
X251819Y133107D01*
X251832Y133120D01*
Y133133D01*
X251936Y133418D01*
X252001Y133704D01*
X252053Y133989D01*
X252092Y134249D01*
X252118Y134470D01*
Y134573D01*
X252131Y134651D01*
Y134807D01*
X252118Y135132D01*
X252079Y135443D01*
X252027Y135716D01*
X251975Y135949D01*
X251923Y136144D01*
X251897Y136222D01*
X251871Y136287D01*
X251845Y136352D01*
X251832Y136391D01*
X251819Y136404D01*
Y136417D01*
X251703Y136676D01*
X251560Y136910D01*
X251417Y137118D01*
X251274Y137299D01*
X251145Y137442D01*
X251041Y137546D01*
X250976Y137611D01*
X250963Y137637D01*
X250950D01*
X250729Y137818D01*
X250496Y137974D01*
X250262Y138104D01*
X250041Y138221D01*
X249847Y138299D01*
X249756Y138337D01*
X249691Y138364D01*
X249626Y138389D01*
X249587Y138402D01*
X249561Y138415D01*
X249548D01*
X249237Y138506D01*
X248912Y138571D01*
X248601Y138623D01*
X248315Y138649D01*
X248185Y138662D01*
X248068Y138675D01*
X247965D01*
X247874Y138688D01*
X252131D01*
Y137637D01*
Y138688D01*
X254156D01*
D01*
X261437D01*
X260840Y138662D01*
X260282Y138597D01*
X259750Y138506D01*
X259257Y138377D01*
X258789Y138221D01*
X258348Y138039D01*
X257959Y137857D01*
X257595Y137676D01*
X257271Y137481D01*
X256998Y137299D01*
X256752Y137118D01*
X256544Y136975D01*
X256388Y136845D01*
X256271Y136741D01*
X256206Y136676D01*
X256180Y136650D01*
X255830Y136261D01*
X255519Y135833D01*
X255246Y135404D01*
X255012Y134963D01*
X254818Y134509D01*
X254649Y134067D01*
X254519Y133639D01*
X254415Y133224D01*
X254324Y132834D01*
X254260Y132471D01*
X254221Y132159D01*
X254182Y131874D01*
Y131757D01*
X254169Y131640D01*
Y131549D01*
X254156Y131471D01*
Y131329D01*
X254182Y130771D01*
X254234Y130238D01*
X254324Y129732D01*
X254441Y129265D01*
X254571Y128824D01*
X254727Y128421D01*
X254883Y128045D01*
X255051Y127720D01*
X255220Y127422D01*
X255376Y127149D01*
X255532Y126929D01*
X255661Y126747D01*
X255778Y126604D01*
X255869Y126500D01*
X255921Y126435D01*
X255947Y126410D01*
X256297Y126085D01*
X256674Y125799D01*
X257076Y125553D01*
X257479Y125345D01*
X257894Y125163D01*
X258309Y125021D01*
X258711Y124891D01*
X259101Y124800D01*
X259477Y124722D01*
X259815Y124670D01*
X260113Y124618D01*
X260386Y124592D01*
X260503D01*
X260606Y124579D01*
X260697D01*
X260762Y124566D01*
X254156D01*
X264812D01*
Y128175D01*
Y128097D01*
X264526Y127941D01*
X264241Y127811D01*
X263955Y127694D01*
X263670Y127591D01*
X263384Y127500D01*
X263111Y127435D01*
X262852Y127370D01*
X262605Y127331D01*
X262372Y127292D01*
X262164Y127266D01*
X261982Y127240D01*
X261827Y127227D01*
X261697Y127214D01*
X261515D01*
X261165Y127227D01*
X260840Y127266D01*
X260529Y127318D01*
X260243Y127396D01*
X259984Y127487D01*
X259724Y127591D01*
X259503Y127694D01*
X259296Y127798D01*
X259114Y127902D01*
X258958Y128019D01*
X258815Y128110D01*
X258711Y128201D01*
X258621Y128279D01*
X258556Y128330D01*
X258517Y128369D01*
X258504Y128382D01*
X258309Y128616D01*
X258140Y128863D01*
X257998Y129109D01*
X257868Y129382D01*
X257764Y129641D01*
X257673Y129901D01*
X257595Y130161D01*
X257543Y130407D01*
X257491Y130641D01*
X257465Y130861D01*
X257439Y131056D01*
X257414Y131225D01*
Y131355D01*
X257401Y131458D01*
Y131523D01*
Y131549D01*
X257414Y131926D01*
X257453Y132289D01*
X257504Y132627D01*
X257582Y132938D01*
X257673Y133237D01*
X257777Y133496D01*
X257881Y133743D01*
X257998Y133976D01*
X258102Y134171D01*
X258205Y134340D01*
X258309Y134496D01*
X258400Y134612D01*
X258478Y134703D01*
X258530Y134781D01*
X258569Y134820D01*
X258582Y134833D01*
X258815Y135041D01*
X259049Y135235D01*
X259309Y135391D01*
X259568Y135534D01*
X259828Y135651D01*
X260087Y135742D01*
X260334Y135820D01*
X260581Y135884D01*
X260801Y135936D01*
X261009Y135975D01*
X261204Y136001D01*
X261359Y136027D01*
X261502D01*
X261593Y136040D01*
X261684D01*
X262008Y136027D01*
X262320Y136001D01*
X262618Y135962D01*
X262917Y135910D01*
X263189Y135845D01*
X263449Y135781D01*
X263683Y135703D01*
X263903Y135638D01*
X264111Y135560D01*
X264280Y135482D01*
X264435Y135417D01*
X264565Y135352D01*
X264669Y135300D01*
X264747Y135261D01*
X264799Y135235D01*
X264812Y135223D01*
Y138221D01*
Y138182D01*
X264552Y138273D01*
X264267Y138350D01*
X263709Y138480D01*
X263137Y138571D01*
X262865Y138597D01*
X262605Y138623D01*
X262372Y138649D01*
X262138Y138662D01*
X261943Y138675D01*
X261775D01*
X261632Y138688D01*
X264812D01*
D01*
D02*
G37*
G36*
Y124566D02*
X260905D01*
X261346Y124579D01*
X261762Y124592D01*
X262164Y124631D01*
X262540Y124683D01*
X262878Y124735D01*
X263202Y124787D01*
X263501Y124852D01*
X263761Y124930D01*
X264007Y124995D01*
X264215Y125060D01*
X264396Y125112D01*
X264539Y125163D01*
X264656Y125215D01*
X264747Y125254D01*
X264799Y125267D01*
X264812Y125280D01*
Y124566D01*
D02*
G37*
G36*
X280417Y105851D02*
X280546D01*
X280696Y105841D01*
X280856Y105831D01*
X281026Y105811D01*
X281395Y105771D01*
X281774Y105701D01*
X281954Y105661D01*
X282124Y105611D01*
X282283Y105561D01*
X282423Y105491D01*
Y104104D01*
X282413Y104114D01*
X282383Y104134D01*
X282323Y104164D01*
X282253Y104204D01*
X282164Y104254D01*
X282054Y104313D01*
X281924Y104363D01*
X281774Y104433D01*
X281615Y104493D01*
X281435Y104543D01*
X281235Y104603D01*
X281026Y104653D01*
X280796Y104693D01*
X280557Y104723D01*
X280307Y104743D01*
X280037Y104753D01*
X279888D01*
X279788Y104743D01*
X279668Y104733D01*
X279528Y104713D01*
X279379Y104693D01*
X279229Y104663D01*
X279209D01*
X279159Y104643D01*
X279089Y104623D01*
X278989Y104603D01*
X278880Y104563D01*
X278760Y104513D01*
X278630Y104463D01*
X278510Y104393D01*
X278500Y104383D01*
X278460Y104363D01*
X278400Y104313D01*
X278330Y104263D01*
X278251Y104184D01*
X278161Y104104D01*
X278081Y104004D01*
X278001Y103894D01*
X277991Y103884D01*
X277971Y103844D01*
X277941Y103774D01*
X277901Y103694D01*
X277861Y103585D01*
X277831Y103465D01*
X277811Y103325D01*
X277801Y103165D01*
Y103146D01*
Y103096D01*
X277811Y103026D01*
X277821Y102926D01*
X277841Y102816D01*
X277861Y102706D01*
X277901Y102586D01*
X277951Y102467D01*
X277961Y102457D01*
X277981Y102417D01*
X278011Y102367D01*
X278061Y102287D01*
X278121Y102207D01*
X278201Y102117D01*
X278291Y102028D01*
X278390Y101928D01*
X278400Y101918D01*
X278440Y101888D01*
X278510Y101838D01*
X278590Y101778D01*
X278700Y101708D01*
X278820Y101628D01*
X278959Y101548D01*
X279109Y101459D01*
X279129Y101448D01*
X279179Y101419D01*
X279269Y101379D01*
X279389Y101319D01*
X279528Y101239D01*
X279698Y101159D01*
X279878Y101069D01*
X280077Y100969D01*
X280087D01*
X280107Y100959D01*
X280137Y100939D01*
X280177Y100919D01*
X280287Y100870D01*
X280427Y100790D01*
X280586Y100700D01*
X280766Y100600D01*
X281145Y100380D01*
X281155D01*
X281165Y100370D01*
X281195Y100350D01*
X281235Y100330D01*
X281325Y100261D01*
X281445Y100181D01*
X281585Y100081D01*
X281734Y99961D01*
X281884Y99831D01*
X282034Y99692D01*
X282054Y99672D01*
X282094Y99632D01*
X282174Y99552D01*
X282253Y99452D01*
X282353Y99332D01*
X282453Y99183D01*
X282553Y99033D01*
X282643Y98863D01*
X282653Y98843D01*
X282683Y98783D01*
X282713Y98693D01*
X282763Y98564D01*
X282803Y98414D01*
X282833Y98234D01*
X282862Y98035D01*
X282872Y97825D01*
Y97815D01*
Y97795D01*
Y97755D01*
Y97695D01*
X282862Y97635D01*
X282852Y97555D01*
X282833Y97376D01*
X282792Y97166D01*
X282743Y96946D01*
X282663Y96727D01*
X282563Y96517D01*
Y96507D01*
X282553Y96497D01*
X282533Y96467D01*
X282513Y96427D01*
X282443Y96328D01*
X282353Y96208D01*
X282234Y96068D01*
X282094Y95918D01*
X281924Y95779D01*
X281744Y95639D01*
X281734D01*
X281724Y95629D01*
X281695Y95609D01*
X281655Y95589D01*
X281605Y95559D01*
X281545Y95529D01*
X281405Y95449D01*
X281225Y95369D01*
X281016Y95289D01*
X280796Y95220D01*
X280546Y95160D01*
X280536D01*
X280517Y95150D01*
X280477D01*
X280427Y95140D01*
X280367Y95130D01*
X280297Y95110D01*
X280207Y95100D01*
X280117Y95090D01*
X279908Y95060D01*
X279668Y95030D01*
X279409Y95020D01*
X279129Y95010D01*
X279029D01*
X278959Y95020D01*
X278869D01*
X278760Y95030D01*
X278640Y95040D01*
X278510Y95050D01*
X278490D01*
X278450Y95060D01*
X278380Y95070D01*
X278281Y95080D01*
X278171Y95090D01*
X278041Y95110D01*
X277901Y95140D01*
X277761Y95160D01*
X277742D01*
X277702Y95170D01*
X277622Y95190D01*
X277532Y95210D01*
X277422Y95240D01*
X277302Y95269D01*
X277043Y95339D01*
X277033Y95349D01*
X276983Y95359D01*
X276923Y95389D01*
X276843Y95419D01*
X276663Y95499D01*
X276574Y95549D01*
X276494Y95599D01*
Y97056D01*
X276504Y97046D01*
X276534Y97016D01*
X276594Y96976D01*
X276663Y96917D01*
X276753Y96857D01*
X276853Y96787D01*
X276963Y96717D01*
X277093Y96647D01*
X277113Y96637D01*
X277153Y96617D01*
X277222Y96587D01*
X277312Y96547D01*
X277422Y96497D01*
X277552Y96457D01*
X277682Y96407D01*
X277821Y96358D01*
X277841D01*
X277891Y96338D01*
X277961Y96318D01*
X278061Y96288D01*
X278181Y96258D01*
X278311Y96228D01*
X278600Y96168D01*
X278620D01*
X278670Y96158D01*
X278740Y96148D01*
X278840Y96138D01*
X278949Y96128D01*
X279069Y96118D01*
X279319Y96108D01*
X279429D01*
X279508Y96118D01*
X279598D01*
X279708Y96128D01*
X279828Y96148D01*
X279958Y96158D01*
X280237Y96208D01*
X280517Y96288D01*
X280786Y96388D01*
X280906Y96457D01*
X281016Y96527D01*
X281026Y96537D01*
X281036Y96547D01*
X281105Y96607D01*
X281195Y96707D01*
X281295Y96837D01*
X281395Y97006D01*
X281485Y97216D01*
X281555Y97466D01*
X281565Y97595D01*
X281575Y97745D01*
Y97765D01*
Y97815D01*
X281565Y97895D01*
X281555Y97995D01*
X281525Y98104D01*
X281495Y98234D01*
X281445Y98354D01*
X281385Y98474D01*
X281375Y98484D01*
X281355Y98524D01*
X281315Y98594D01*
X281255Y98664D01*
X281185Y98753D01*
X281096Y98853D01*
X280996Y98953D01*
X280876Y99053D01*
X280866Y99063D01*
X280816Y99093D01*
X280746Y99153D01*
X280656Y99213D01*
X280536Y99292D01*
X280407Y99372D01*
X280257Y99462D01*
X280087Y99552D01*
X280067Y99562D01*
X280007Y99592D01*
X279918Y99642D01*
X279798Y99702D01*
X279658Y99782D01*
X279488Y99871D01*
X279309Y99961D01*
X279119Y100061D01*
X279109D01*
X279099Y100071D01*
X279069Y100091D01*
X279029Y100111D01*
X278919Y100161D01*
X278790Y100241D01*
X278630Y100321D01*
X278450Y100410D01*
X278091Y100620D01*
X278081D01*
X278071Y100630D01*
X278011Y100670D01*
X277921Y100730D01*
X277811Y100810D01*
X277682Y100899D01*
X277542Y101009D01*
X277402Y101129D01*
X277262Y101249D01*
X277242Y101269D01*
X277202Y101309D01*
X277143Y101379D01*
X277063Y101478D01*
X276973Y101588D01*
X276883Y101728D01*
X276793Y101868D01*
X276713Y102028D01*
Y102037D01*
X276703Y102047D01*
X276683Y102107D01*
X276653Y102197D01*
X276614Y102317D01*
X276574Y102477D01*
X276544Y102646D01*
X276524Y102846D01*
X276514Y103056D01*
Y103066D01*
Y103086D01*
Y103125D01*
X276524Y103175D01*
Y103235D01*
X276534Y103315D01*
X276554Y103485D01*
X276594Y103674D01*
X276644Y103884D01*
X276723Y104094D01*
X276823Y104303D01*
Y104313D01*
X276843Y104323D01*
X276853Y104353D01*
X276883Y104393D01*
X276953Y104493D01*
X277043Y104613D01*
X277163Y104753D01*
X277312Y104892D01*
X277472Y105042D01*
X277652Y105172D01*
X277662D01*
X277672Y105192D01*
X277702Y105202D01*
X277742Y105232D01*
X277851Y105292D01*
X277991Y105372D01*
X278161Y105451D01*
X278360Y105541D01*
X278580Y105621D01*
X278820Y105691D01*
X278830D01*
X278850Y105701D01*
X278890Y105711D01*
X278929Y105721D01*
X278989Y105731D01*
X279069Y105741D01*
X279239Y105781D01*
X279438Y105811D01*
X279668Y105831D01*
X279908Y105851D01*
X280167Y105861D01*
X280317D01*
X280417Y105851D01*
D02*
G37*
G36*
X292655Y99422D02*
Y99412D01*
Y99372D01*
Y99312D01*
X292645Y99232D01*
Y99133D01*
X292625Y99013D01*
X292615Y98883D01*
X292595Y98733D01*
X292565Y98574D01*
X292535Y98404D01*
X292445Y98025D01*
X292385Y97825D01*
X292325Y97625D01*
X292246Y97426D01*
X292156Y97216D01*
X292056Y97006D01*
X291946Y96807D01*
X291816Y96607D01*
X291677Y96407D01*
X291527Y96218D01*
X291357Y96038D01*
X291178Y95858D01*
X290968Y95699D01*
X290748Y95549D01*
X290509Y95419D01*
X290259Y95300D01*
X289980Y95200D01*
X289680Y95120D01*
X289361Y95060D01*
X289021Y95020D01*
X288662Y95010D01*
X288572D01*
X288502Y95020D01*
X288412Y95030D01*
X288313Y95040D01*
X288193Y95050D01*
X288063Y95080D01*
X287923Y95110D01*
X287774Y95140D01*
X287454Y95230D01*
X287274Y95300D01*
X287105Y95369D01*
X286925Y95449D01*
X286745Y95539D01*
X286566Y95649D01*
X286386Y95769D01*
X286216Y95898D01*
X286047Y96048D01*
X285877Y96208D01*
X285717Y96388D01*
X285568Y96587D01*
X285428Y96807D01*
X285298Y97036D01*
X285178Y97296D01*
X285078Y97565D01*
X284999Y97855D01*
X284929Y98174D01*
X284869Y98514D01*
X284839Y98873D01*
X284829Y99262D01*
Y105691D01*
X286067D01*
Y99342D01*
Y99332D01*
Y99302D01*
Y99262D01*
X286077Y99202D01*
Y99133D01*
X286087Y99043D01*
X286097Y98943D01*
X286107Y98833D01*
X286147Y98594D01*
X286206Y98324D01*
X286296Y98025D01*
X286406Y97725D01*
X286556Y97426D01*
X286636Y97276D01*
X286735Y97136D01*
X286835Y96996D01*
X286955Y96857D01*
X287075Y96737D01*
X287215Y96617D01*
X287364Y96507D01*
X287524Y96407D01*
X287704Y96318D01*
X287893Y96248D01*
X288093Y96188D01*
X288313Y96148D01*
X288542Y96118D01*
X288792Y96108D01*
X288862D01*
X288902Y96118D01*
X288962D01*
X289031Y96128D01*
X289201Y96158D01*
X289401Y96208D01*
X289630Y96278D01*
X289860Y96368D01*
X290110Y96497D01*
X290229Y96577D01*
X290359Y96667D01*
X290479Y96767D01*
X290599Y96867D01*
X290708Y96986D01*
X290818Y97126D01*
X290918Y97266D01*
X291018Y97426D01*
X291108Y97595D01*
X291188Y97785D01*
X291257Y97985D01*
X291317Y98204D01*
X291367Y98434D01*
X291397Y98683D01*
X291417Y98953D01*
X291427Y99232D01*
Y105691D01*
X292655D01*
Y99422D01*
D02*
G37*
G36*
X297766Y105851D02*
X297836D01*
X297995Y105841D01*
X298175Y105821D01*
X298375Y105781D01*
X298584Y105741D01*
X298784Y105681D01*
X298794D01*
X298804Y105671D01*
X298834Y105661D01*
X298874Y105651D01*
X298974Y105611D01*
X299103Y105551D01*
X299243Y105471D01*
X299403Y105392D01*
X299553Y105282D01*
X299702Y105162D01*
X299722Y105152D01*
X299762Y105102D01*
X299832Y105032D01*
X299922Y104942D01*
X300012Y104823D01*
X300112Y104693D01*
X300201Y104543D01*
X300291Y104373D01*
X300301Y104353D01*
X300321Y104293D01*
X300361Y104204D01*
X300401Y104074D01*
X300431Y103924D01*
X300471Y103754D01*
X300491Y103555D01*
X300501Y103355D01*
Y103345D01*
Y103335D01*
Y103305D01*
Y103265D01*
X300491Y103155D01*
X300471Y103026D01*
X300441Y102856D01*
X300391Y102666D01*
X300321Y102457D01*
X300241Y102247D01*
X300132Y102017D01*
X299992Y101788D01*
X299822Y101568D01*
X299613Y101359D01*
X299503Y101249D01*
X299373Y101159D01*
X299243Y101059D01*
X299093Y100969D01*
X298944Y100890D01*
X298774Y100820D01*
X298594Y100750D01*
X298405Y100690D01*
Y100660D01*
X298425D01*
X298455Y100650D01*
X298494D01*
X298594Y100630D01*
X298734Y100610D01*
X298884Y100570D01*
X299053Y100530D01*
X299223Y100470D01*
X299393Y100400D01*
X299403D01*
X299413Y100390D01*
X299473Y100360D01*
X299553Y100321D01*
X299662Y100261D01*
X299792Y100181D01*
X299922Y100091D01*
X300052Y99991D01*
X300182Y99871D01*
X300191Y99861D01*
X300231Y99811D01*
X300291Y99752D01*
X300371Y99662D01*
X300451Y99542D01*
X300531Y99412D01*
X300621Y99272D01*
X300691Y99113D01*
X300701Y99093D01*
X300721Y99033D01*
X300751Y98953D01*
X300790Y98833D01*
X300820Y98693D01*
X300850Y98524D01*
X300870Y98344D01*
X300880Y98154D01*
Y98144D01*
Y98124D01*
Y98084D01*
Y98035D01*
X300870Y97975D01*
Y97895D01*
X300850Y97725D01*
X300810Y97526D01*
X300770Y97306D01*
X300701Y97076D01*
X300611Y96857D01*
Y96847D01*
X300601Y96827D01*
X300581Y96797D01*
X300561Y96757D01*
X300501Y96647D01*
X300421Y96517D01*
X300311Y96358D01*
X300182Y96188D01*
X300032Y96018D01*
X299862Y95858D01*
X299852D01*
X299842Y95838D01*
X299812Y95819D01*
X299772Y95789D01*
X299672Y95719D01*
X299533Y95629D01*
X299363Y95519D01*
X299163Y95419D01*
X298934Y95309D01*
X298684Y95220D01*
X298674D01*
X298654Y95210D01*
X298614Y95200D01*
X298564Y95190D01*
X298505Y95170D01*
X298425Y95150D01*
X298345Y95130D01*
X298245Y95110D01*
X298025Y95070D01*
X297766Y95030D01*
X297486Y95010D01*
X297187Y95000D01*
X297047D01*
X296937Y95010D01*
X296817Y95020D01*
X296668Y95030D01*
X296508Y95050D01*
X296328Y95070D01*
X296139Y95100D01*
X295949Y95140D01*
X295550Y95240D01*
X295350Y95300D01*
X295161Y95379D01*
X294971Y95459D01*
X294801Y95559D01*
Y96857D01*
X294811Y96847D01*
X294851Y96817D01*
X294911Y96777D01*
X294991Y96727D01*
X295091Y96667D01*
X295210Y96587D01*
X295350Y96517D01*
X295500Y96437D01*
X295670Y96358D01*
X295859Y96288D01*
X296059Y96218D01*
X296278Y96148D01*
X296498Y96098D01*
X296738Y96058D01*
X296987Y96028D01*
X297237Y96018D01*
X297327D01*
X297436Y96028D01*
X297566Y96038D01*
X297716Y96048D01*
X297886Y96078D01*
X298055Y96108D01*
X298225Y96158D01*
X298235D01*
X298245Y96168D01*
X298305Y96188D01*
X298385Y96218D01*
X298484Y96258D01*
X298604Y96318D01*
X298734Y96388D01*
X298864Y96467D01*
X298984Y96557D01*
X298994Y96567D01*
X299034Y96607D01*
X299093Y96667D01*
X299163Y96737D01*
X299243Y96837D01*
X299323Y96937D01*
X299403Y97066D01*
X299473Y97196D01*
X299483Y97216D01*
X299503Y97266D01*
X299533Y97346D01*
X299563Y97446D01*
X299593Y97565D01*
X299622Y97715D01*
X299643Y97875D01*
X299653Y98045D01*
Y98055D01*
Y98064D01*
Y98095D01*
X299643Y98134D01*
X299632Y98234D01*
X299603Y98364D01*
X299563Y98524D01*
X299503Y98693D01*
X299403Y98883D01*
X299283Y99073D01*
X299133Y99262D01*
X299034Y99362D01*
X298934Y99452D01*
X298824Y99542D01*
X298694Y99622D01*
X298564Y99702D01*
X298415Y99782D01*
X298255Y99851D01*
X298075Y99911D01*
X297886Y99971D01*
X297686Y100011D01*
X297466Y100051D01*
X297237Y100081D01*
X296987Y100091D01*
X296718Y100101D01*
X295849D01*
Y101119D01*
X296788D01*
X296847Y101129D01*
X296917D01*
X297087Y101149D01*
X297277Y101179D01*
X297496Y101219D01*
X297736Y101279D01*
X297976Y101359D01*
X298215Y101468D01*
X298455Y101588D01*
X298674Y101748D01*
X298864Y101938D01*
X299034Y102157D01*
X299103Y102287D01*
X299163Y102417D01*
X299213Y102556D01*
X299243Y102716D01*
X299263Y102876D01*
X299273Y103056D01*
Y103066D01*
Y103076D01*
Y103135D01*
X299263Y103225D01*
X299243Y103335D01*
X299213Y103475D01*
X299173Y103625D01*
X299103Y103784D01*
X299024Y103954D01*
X298924Y104114D01*
X298794Y104274D01*
X298634Y104433D01*
X298445Y104563D01*
X298215Y104683D01*
X298085Y104723D01*
X297945Y104763D01*
X297806Y104803D01*
X297646Y104823D01*
X297476Y104842D01*
X297187D01*
X297107Y104832D01*
X297007Y104823D01*
X296887Y104803D01*
X296758Y104782D01*
X296618Y104753D01*
X296458Y104713D01*
X296298Y104663D01*
X296119Y104603D01*
X295939Y104523D01*
X295759Y104443D01*
X295570Y104343D01*
X295390Y104223D01*
X295200Y104094D01*
Y105262D01*
X295210Y105272D01*
X295250Y105292D01*
X295300Y105322D01*
X295380Y105351D01*
X295480Y105401D01*
X295590Y105451D01*
X295730Y105501D01*
X295879Y105561D01*
X296049Y105621D01*
X296229Y105671D01*
X296428Y105721D01*
X296638Y105771D01*
X296857Y105801D01*
X297097Y105831D01*
X297337Y105851D01*
X297596Y105861D01*
X297706D01*
X297766Y105851D01*
D02*
G37*
G36*
X274228Y95180D02*
X273000D01*
Y105691D01*
X274228D01*
Y95180D01*
D02*
G37*
G36*
X205217Y106271D02*
X205347D01*
X205496Y106261D01*
X205656Y106251D01*
X205826Y106231D01*
X206195Y106191D01*
X206574Y106121D01*
X206754Y106081D01*
X206924Y106031D01*
X207083Y105982D01*
X207223Y105912D01*
Y104524D01*
X207213Y104534D01*
X207183Y104554D01*
X207123Y104584D01*
X207054Y104624D01*
X206964Y104674D01*
X206854Y104734D01*
X206724Y104784D01*
X206574Y104853D01*
X206415Y104913D01*
X206235Y104963D01*
X206035Y105023D01*
X205826Y105073D01*
X205596Y105113D01*
X205357Y105143D01*
X205107Y105163D01*
X204837Y105173D01*
X204688D01*
X204588Y105163D01*
X204468Y105153D01*
X204328Y105133D01*
X204179Y105113D01*
X204029Y105083D01*
X204009D01*
X203959Y105063D01*
X203889Y105043D01*
X203789Y105023D01*
X203680Y104983D01*
X203560Y104933D01*
X203430Y104883D01*
X203310Y104814D01*
X203300Y104804D01*
X203260Y104784D01*
X203200Y104734D01*
X203130Y104684D01*
X203051Y104604D01*
X202961Y104524D01*
X202881Y104424D01*
X202801Y104314D01*
X202791Y104305D01*
X202771Y104265D01*
X202741Y104195D01*
X202701Y104115D01*
X202661Y104005D01*
X202631Y103885D01*
X202611Y103745D01*
X202601Y103586D01*
Y103566D01*
Y103516D01*
X202611Y103446D01*
X202621Y103346D01*
X202641Y103236D01*
X202661Y103127D01*
X202701Y103007D01*
X202751Y102887D01*
X202761Y102877D01*
X202781Y102837D01*
X202811Y102787D01*
X202861Y102707D01*
X202921Y102627D01*
X203001Y102538D01*
X203091Y102448D01*
X203190Y102348D01*
X203200Y102338D01*
X203240Y102308D01*
X203310Y102258D01*
X203390Y102198D01*
X203500Y102128D01*
X203620Y102049D01*
X203759Y101969D01*
X203909Y101879D01*
X203929Y101869D01*
X203979Y101839D01*
X204069Y101799D01*
X204189Y101739D01*
X204328Y101659D01*
X204498Y101579D01*
X204678Y101489D01*
X204877Y101390D01*
X204887D01*
X204907Y101380D01*
X204937Y101360D01*
X204977Y101340D01*
X205087Y101290D01*
X205227Y101210D01*
X205387Y101120D01*
X205566Y101020D01*
X205945Y100801D01*
X205956D01*
X205965Y100791D01*
X205995Y100771D01*
X206035Y100751D01*
X206125Y100681D01*
X206245Y100601D01*
X206385Y100501D01*
X206534Y100381D01*
X206684Y100252D01*
X206834Y100112D01*
X206854Y100092D01*
X206894Y100052D01*
X206974Y99972D01*
X207054Y99872D01*
X207153Y99753D01*
X207253Y99603D01*
X207353Y99453D01*
X207443Y99283D01*
X207453Y99263D01*
X207483Y99204D01*
X207513Y99114D01*
X207563Y98984D01*
X207603Y98834D01*
X207633Y98655D01*
X207662Y98455D01*
X207672Y98245D01*
Y98235D01*
Y98215D01*
Y98175D01*
Y98116D01*
X207662Y98056D01*
X207652Y97976D01*
X207633Y97796D01*
X207593Y97586D01*
X207543Y97367D01*
X207463Y97147D01*
X207363Y96938D01*
Y96928D01*
X207353Y96918D01*
X207333Y96888D01*
X207313Y96848D01*
X207243Y96748D01*
X207153Y96628D01*
X207034Y96488D01*
X206894Y96339D01*
X206724Y96199D01*
X206544Y96059D01*
X206534D01*
X206525Y96049D01*
X206495Y96029D01*
X206455Y96009D01*
X206405Y95979D01*
X206345Y95949D01*
X206205Y95870D01*
X206025Y95790D01*
X205816Y95710D01*
X205596Y95640D01*
X205347Y95580D01*
X205337D01*
X205317Y95570D01*
X205277D01*
X205227Y95560D01*
X205167Y95550D01*
X205097Y95530D01*
X205007Y95520D01*
X204917Y95510D01*
X204708Y95480D01*
X204468Y95450D01*
X204209Y95440D01*
X203929Y95430D01*
X203829D01*
X203759Y95440D01*
X203669D01*
X203560Y95450D01*
X203440Y95460D01*
X203310Y95470D01*
X203290D01*
X203250Y95480D01*
X203180Y95490D01*
X203081Y95500D01*
X202971Y95510D01*
X202841Y95530D01*
X202701Y95560D01*
X202561Y95580D01*
X202542D01*
X202502Y95590D01*
X202422Y95610D01*
X202332Y95630D01*
X202222Y95660D01*
X202102Y95690D01*
X201843Y95760D01*
X201833Y95770D01*
X201783Y95780D01*
X201723Y95810D01*
X201643Y95840D01*
X201464Y95919D01*
X201374Y95969D01*
X201294Y96019D01*
Y97477D01*
X201304Y97467D01*
X201334Y97437D01*
X201394Y97397D01*
X201464Y97337D01*
X201553Y97277D01*
X201653Y97207D01*
X201763Y97137D01*
X201893Y97067D01*
X201913Y97057D01*
X201953Y97037D01*
X202022Y97008D01*
X202112Y96968D01*
X202222Y96918D01*
X202352Y96878D01*
X202482Y96828D01*
X202621Y96778D01*
X202641D01*
X202691Y96758D01*
X202761Y96738D01*
X202861Y96708D01*
X202981Y96678D01*
X203111Y96648D01*
X203400Y96588D01*
X203420D01*
X203470Y96578D01*
X203540Y96568D01*
X203640Y96558D01*
X203749Y96548D01*
X203869Y96538D01*
X204119Y96528D01*
X204228D01*
X204308Y96538D01*
X204398D01*
X204508Y96548D01*
X204628Y96568D01*
X204758Y96578D01*
X205037Y96628D01*
X205317Y96708D01*
X205586Y96808D01*
X205706Y96878D01*
X205816Y96948D01*
X205826Y96958D01*
X205836Y96968D01*
X205906Y97028D01*
X205995Y97127D01*
X206095Y97257D01*
X206195Y97427D01*
X206285Y97636D01*
X206355Y97886D01*
X206365Y98016D01*
X206375Y98165D01*
Y98185D01*
Y98235D01*
X206365Y98315D01*
X206355Y98415D01*
X206325Y98525D01*
X206295Y98655D01*
X206245Y98774D01*
X206185Y98894D01*
X206175Y98904D01*
X206155Y98944D01*
X206115Y99014D01*
X206055Y99084D01*
X205985Y99174D01*
X205896Y99274D01*
X205796Y99373D01*
X205676Y99473D01*
X205666Y99483D01*
X205616Y99513D01*
X205546Y99573D01*
X205456Y99633D01*
X205337Y99713D01*
X205207Y99792D01*
X205057Y99882D01*
X204887Y99972D01*
X204867Y99982D01*
X204807Y100012D01*
X204718Y100062D01*
X204598Y100122D01*
X204458Y100202D01*
X204288Y100292D01*
X204109Y100381D01*
X203919Y100481D01*
X203909D01*
X203899Y100491D01*
X203869Y100511D01*
X203829Y100531D01*
X203720Y100581D01*
X203590Y100661D01*
X203430Y100741D01*
X203250Y100831D01*
X202891Y101040D01*
X202881D01*
X202871Y101050D01*
X202811Y101090D01*
X202721Y101150D01*
X202611Y101230D01*
X202482Y101320D01*
X202342Y101430D01*
X202202Y101549D01*
X202062Y101669D01*
X202042Y101689D01*
X202003Y101729D01*
X201943Y101799D01*
X201863Y101899D01*
X201773Y102009D01*
X201683Y102148D01*
X201593Y102288D01*
X201513Y102448D01*
Y102458D01*
X201503Y102468D01*
X201483Y102528D01*
X201453Y102618D01*
X201414Y102737D01*
X201374Y102897D01*
X201344Y103067D01*
X201324Y103266D01*
X201314Y103476D01*
Y103486D01*
Y103506D01*
Y103546D01*
X201324Y103596D01*
Y103656D01*
X201334Y103736D01*
X201354Y103905D01*
X201394Y104095D01*
X201444Y104305D01*
X201523Y104514D01*
X201623Y104724D01*
Y104734D01*
X201643Y104744D01*
X201653Y104774D01*
X201683Y104814D01*
X201753Y104913D01*
X201843Y105033D01*
X201963Y105173D01*
X202112Y105313D01*
X202272Y105462D01*
X202452Y105592D01*
X202462D01*
X202472Y105612D01*
X202502Y105622D01*
X202542Y105652D01*
X202651Y105712D01*
X202791Y105792D01*
X202961Y105872D01*
X203160Y105962D01*
X203380Y106041D01*
X203620Y106111D01*
X203630D01*
X203650Y106121D01*
X203689Y106131D01*
X203729Y106141D01*
X203789Y106151D01*
X203869Y106161D01*
X204039Y106201D01*
X204238Y106231D01*
X204468Y106251D01*
X204708Y106271D01*
X204967Y106281D01*
X205117D01*
X205217Y106271D01*
D02*
G37*
G36*
X217455Y99842D02*
Y99832D01*
Y99792D01*
Y99733D01*
X217445Y99653D01*
Y99553D01*
X217425Y99433D01*
X217415Y99303D01*
X217395Y99154D01*
X217365Y98994D01*
X217335Y98824D01*
X217245Y98445D01*
X217185Y98245D01*
X217125Y98046D01*
X217046Y97846D01*
X216956Y97636D01*
X216856Y97427D01*
X216746Y97227D01*
X216616Y97028D01*
X216477Y96828D01*
X216327Y96638D01*
X216157Y96459D01*
X215978Y96279D01*
X215768Y96119D01*
X215548Y95969D01*
X215309Y95840D01*
X215059Y95720D01*
X214780Y95620D01*
X214480Y95540D01*
X214161Y95480D01*
X213821Y95440D01*
X213462Y95430D01*
X213372D01*
X213302Y95440D01*
X213213Y95450D01*
X213113Y95460D01*
X212993Y95470D01*
X212863Y95500D01*
X212723Y95530D01*
X212574Y95560D01*
X212254Y95650D01*
X212075Y95720D01*
X211905Y95790D01*
X211725Y95870D01*
X211546Y95959D01*
X211366Y96069D01*
X211186Y96189D01*
X211016Y96319D01*
X210847Y96468D01*
X210677Y96628D01*
X210517Y96808D01*
X210368Y97008D01*
X210228Y97227D01*
X210098Y97457D01*
X209978Y97716D01*
X209879Y97986D01*
X209799Y98275D01*
X209729Y98595D01*
X209669Y98934D01*
X209639Y99293D01*
X209629Y99683D01*
Y106111D01*
X210867D01*
Y99763D01*
Y99753D01*
Y99723D01*
Y99683D01*
X210877Y99623D01*
Y99553D01*
X210887Y99463D01*
X210897Y99363D01*
X210907Y99254D01*
X210947Y99014D01*
X211007Y98744D01*
X211096Y98445D01*
X211206Y98146D01*
X211356Y97846D01*
X211436Y97696D01*
X211535Y97556D01*
X211635Y97417D01*
X211755Y97277D01*
X211875Y97157D01*
X212015Y97037D01*
X212164Y96928D01*
X212324Y96828D01*
X212504Y96738D01*
X212694Y96668D01*
X212893Y96608D01*
X213113Y96568D01*
X213342Y96538D01*
X213592Y96528D01*
X213662D01*
X213702Y96538D01*
X213762D01*
X213831Y96548D01*
X214001Y96578D01*
X214201Y96628D01*
X214430Y96698D01*
X214660Y96788D01*
X214909Y96918D01*
X215029Y96997D01*
X215159Y97087D01*
X215279Y97187D01*
X215399Y97287D01*
X215508Y97407D01*
X215618Y97547D01*
X215718Y97686D01*
X215818Y97846D01*
X215908Y98016D01*
X215988Y98205D01*
X216057Y98405D01*
X216117Y98625D01*
X216167Y98854D01*
X216197Y99104D01*
X216217Y99373D01*
X216227Y99653D01*
Y106111D01*
X217455D01*
Y99842D01*
D02*
G37*
G36*
X222736Y106271D02*
X222795D01*
X222955Y106261D01*
X223145Y106231D01*
X223344Y106201D01*
X223554Y106151D01*
X223764Y106091D01*
X223774D01*
X223784Y106081D01*
X223814Y106071D01*
X223854Y106061D01*
X223963Y106011D01*
X224093Y105962D01*
X224233Y105882D01*
X224393Y105792D01*
X224552Y105682D01*
X224712Y105552D01*
X224732Y105532D01*
X224782Y105492D01*
X224852Y105413D01*
X224942Y105303D01*
X225051Y105173D01*
X225151Y105023D01*
X225261Y104853D01*
X225351Y104664D01*
Y104654D01*
X225361Y104644D01*
X225371Y104614D01*
X225391Y104574D01*
X225401Y104524D01*
X225421Y104464D01*
X225471Y104314D01*
X225511Y104135D01*
X225541Y103935D01*
X225571Y103706D01*
X225581Y103456D01*
Y103446D01*
Y103426D01*
Y103396D01*
Y103346D01*
Y103296D01*
X225571Y103226D01*
X225560Y103077D01*
X225541Y102907D01*
X225521Y102707D01*
X225481Y102518D01*
X225431Y102318D01*
Y102308D01*
X225421Y102298D01*
Y102268D01*
X225401Y102238D01*
X225371Y102138D01*
X225321Y102009D01*
X225261Y101869D01*
X225191Y101709D01*
X225101Y101539D01*
X225002Y101370D01*
X224991Y101350D01*
X224952Y101290D01*
X224892Y101210D01*
X224802Y101090D01*
X224692Y100961D01*
X224572Y100821D01*
X224433Y100661D01*
X224273Y100511D01*
X224253Y100491D01*
X224193Y100441D01*
X224103Y100361D01*
X223983Y100252D01*
X223834Y100132D01*
X223654Y99992D01*
X223454Y99842D01*
X223245Y99683D01*
X223235Y99673D01*
X223215Y99663D01*
X223175Y99633D01*
X223125Y99593D01*
X223055Y99553D01*
X222985Y99493D01*
X222815Y99373D01*
X222616Y99234D01*
X222416Y99074D01*
X222206Y98924D01*
X222017Y98774D01*
X222007D01*
X221997Y98754D01*
X221937Y98715D01*
X221847Y98645D01*
X221747Y98545D01*
X221618Y98445D01*
X221498Y98325D01*
X221368Y98205D01*
X221258Y98076D01*
X221248Y98066D01*
X221208Y98016D01*
X221168Y97956D01*
X221108Y97866D01*
X221039Y97766D01*
X220969Y97656D01*
X220909Y97537D01*
X220859Y97417D01*
Y97407D01*
X220839Y97357D01*
X220829Y97297D01*
X220809Y97207D01*
X220789Y97097D01*
X220769Y96968D01*
X220759Y96828D01*
X220749Y96668D01*
X225980D01*
Y95600D01*
X219501D01*
Y96119D01*
Y96129D01*
Y96149D01*
Y96189D01*
Y96229D01*
Y96289D01*
X219511Y96359D01*
X219521Y96518D01*
X219531Y96698D01*
X219561Y96898D01*
X219591Y97097D01*
X219641Y97297D01*
Y97307D01*
X219651Y97317D01*
X219661Y97347D01*
X219671Y97387D01*
X219711Y97487D01*
X219761Y97616D01*
X219821Y97766D01*
X219911Y97926D01*
X220000Y98105D01*
X220120Y98275D01*
Y98285D01*
X220140Y98295D01*
X220180Y98355D01*
X220260Y98445D01*
X220360Y98565D01*
X220490Y98705D01*
X220639Y98864D01*
X220809Y99034D01*
X221009Y99204D01*
X221019Y99214D01*
X221039Y99224D01*
X221068Y99254D01*
X221108Y99283D01*
X221158Y99323D01*
X221228Y99383D01*
X221298Y99443D01*
X221378Y99503D01*
X221578Y99663D01*
X221807Y99832D01*
X222067Y100032D01*
X222346Y100242D01*
X222356Y100252D01*
X222376Y100262D01*
X222406Y100282D01*
X222446Y100312D01*
X222546Y100392D01*
X222686Y100491D01*
X222835Y100611D01*
X222995Y100741D01*
X223155Y100881D01*
X223305Y101020D01*
X223325Y101040D01*
X223364Y101090D01*
X223444Y101160D01*
X223524Y101260D01*
X223624Y101370D01*
X223734Y101500D01*
X223834Y101629D01*
X223923Y101769D01*
X223933Y101789D01*
X223963Y101839D01*
X224003Y101909D01*
X224053Y102009D01*
X224113Y102118D01*
X224163Y102248D01*
X224213Y102388D01*
X224253Y102528D01*
Y102548D01*
X224273Y102598D01*
X224283Y102677D01*
X224303Y102777D01*
X224323Y102897D01*
X224333Y103037D01*
X224353Y103187D01*
Y103346D01*
Y103356D01*
Y103366D01*
Y103426D01*
X224343Y103516D01*
X224333Y103636D01*
X224313Y103765D01*
X224293Y103915D01*
X224253Y104055D01*
X224203Y104195D01*
X224193Y104215D01*
X224173Y104255D01*
X224143Y104325D01*
X224093Y104404D01*
X224033Y104504D01*
X223963Y104604D01*
X223883Y104704D01*
X223794Y104794D01*
X223784Y104804D01*
X223744Y104833D01*
X223694Y104874D01*
X223624Y104923D01*
X223534Y104983D01*
X223424Y105043D01*
X223314Y105093D01*
X223185Y105143D01*
X223165Y105153D01*
X223125Y105163D01*
X223055Y105183D01*
X222955Y105203D01*
X222845Y105223D01*
X222716Y105243D01*
X222576Y105263D01*
X222296D01*
X222206Y105253D01*
X222097Y105243D01*
X221977Y105223D01*
X221727Y105163D01*
X221717D01*
X221667Y105143D01*
X221608Y105123D01*
X221528Y105093D01*
X221428Y105063D01*
X221318Y105013D01*
X221078Y104903D01*
X221068Y104893D01*
X221029Y104874D01*
X220959Y104833D01*
X220879Y104794D01*
X220789Y104734D01*
X220679Y104664D01*
X220460Y104494D01*
X220450Y104484D01*
X220410Y104454D01*
X220350Y104404D01*
X220280Y104344D01*
X220190Y104265D01*
X220100Y104185D01*
X219911Y103985D01*
Y105273D01*
X219921Y105283D01*
X219930Y105293D01*
X219960Y105323D01*
X220000Y105353D01*
X220100Y105442D01*
X220240Y105552D01*
X220410Y105672D01*
X220599Y105792D01*
X220809Y105912D01*
X221039Y106021D01*
X221049D01*
X221068Y106031D01*
X221098Y106041D01*
X221148Y106061D01*
X221208Y106081D01*
X221288Y106101D01*
X221368Y106131D01*
X221468Y106151D01*
X221568Y106171D01*
X221687Y106201D01*
X221947Y106241D01*
X222246Y106271D01*
X222566Y106281D01*
X222676D01*
X222736Y106271D01*
D02*
G37*
G36*
X199028Y95600D02*
X197800D01*
Y106111D01*
X199028D01*
Y95600D01*
D02*
G37*
G36*
X265212Y314688D02*
X271429D01*
Y300566D01*
X231050D01*
Y314688D01*
X243406D01*
D01*
X248092D01*
X247677Y314675D01*
X247274Y314636D01*
X246885Y314584D01*
X246521Y314506D01*
X246158Y314415D01*
X245834Y314324D01*
X245522Y314221D01*
X245236Y314117D01*
X244977Y314000D01*
X244756Y313896D01*
X244549Y313805D01*
X244380Y313715D01*
X244250Y313637D01*
X244146Y313585D01*
X244094Y313546D01*
X244068Y313533D01*
Y310885D01*
X244367Y311132D01*
X244678Y311352D01*
X244977Y311534D01*
X245275Y311690D01*
X245561Y311833D01*
X245847Y311949D01*
X246106Y312040D01*
X246366Y312118D01*
X246586Y312170D01*
X246794Y312209D01*
X246989Y312248D01*
X247145Y312261D01*
X247274Y312274D01*
X247365Y312287D01*
X247443D01*
X247806Y312274D01*
X248118Y312222D01*
X248378Y312144D01*
X248585Y312066D01*
X248754Y311975D01*
X248871Y311910D01*
X248936Y311859D01*
X248962Y311833D01*
X249130Y311651D01*
X249247Y311443D01*
X249338Y311222D01*
X249390Y311015D01*
X249429Y310820D01*
X249442Y310664D01*
X249455Y310599D01*
Y310560D01*
Y310535D01*
Y310522D01*
Y310353D01*
X249429Y310197D01*
X249403Y310054D01*
X249377Y309925D01*
X249351Y309821D01*
X249325Y309730D01*
X249312Y309678D01*
X249299Y309665D01*
X249234Y309522D01*
X249169Y309379D01*
X249091Y309250D01*
X249014Y309133D01*
X248949Y309029D01*
X248897Y308951D01*
X248858Y308899D01*
X248845Y308886D01*
X248728Y308743D01*
X248598Y308601D01*
X248468Y308471D01*
X248352Y308354D01*
X248235Y308250D01*
X248157Y308172D01*
X248105Y308120D01*
X248079Y308107D01*
X247910Y307965D01*
X247729Y307822D01*
X247547Y307679D01*
X247378Y307549D01*
X247235Y307446D01*
X247132Y307368D01*
X247054Y307316D01*
X247041Y307290D01*
X247028D01*
X246599Y306978D01*
X246392Y306822D01*
X246210Y306680D01*
X246054Y306550D01*
X245924Y306459D01*
X245847Y306394D01*
X245834Y306368D01*
X245821D01*
X245587Y306173D01*
X245366Y305979D01*
X245172Y305771D01*
X245003Y305589D01*
X244860Y305434D01*
X244743Y305317D01*
X244704Y305265D01*
X244678Y305226D01*
X244665Y305213D01*
X244653Y305200D01*
X244458Y304940D01*
X244289Y304694D01*
X244133Y304434D01*
X244004Y304201D01*
X243900Y304006D01*
X243861Y303915D01*
X243822Y303850D01*
X243796Y303785D01*
X243770Y303746D01*
X243757Y303720D01*
Y303707D01*
X243640Y303383D01*
X243549Y303058D01*
X243497Y302747D01*
X243445Y302461D01*
X243432Y302319D01*
X243419Y302202D01*
Y302098D01*
X243406Y302007D01*
Y300800D01*
X252531D01*
X252505D01*
Y303292D01*
X246716D01*
X246729Y303396D01*
X246742Y303487D01*
X246807Y303668D01*
X246846Y303746D01*
X246872Y303798D01*
X246885Y303837D01*
X246898Y303850D01*
X247067Y304071D01*
X247145Y304175D01*
X247235Y304265D01*
X247300Y304343D01*
X247365Y304408D01*
X247404Y304447D01*
X247417Y304460D01*
X247664Y304694D01*
X247794Y304798D01*
X247910Y304888D01*
X248014Y304966D01*
X248092Y305031D01*
X248144Y305070D01*
X248157Y305083D01*
X248481Y305317D01*
X248624Y305434D01*
X248754Y305525D01*
X248871Y305615D01*
X248962Y305680D01*
X249014Y305719D01*
X249039Y305732D01*
X249299Y305914D01*
X249533Y306083D01*
X249753Y306238D01*
X249948Y306394D01*
X250117Y306511D01*
X250247Y306615D01*
X250324Y306667D01*
X250337Y306693D01*
X250350D01*
X250584Y306887D01*
X250792Y307082D01*
X250986Y307264D01*
X251142Y307432D01*
X251285Y307575D01*
X251376Y307692D01*
X251441Y307770D01*
X251467Y307796D01*
X251635Y308029D01*
X251791Y308263D01*
X251921Y308484D01*
X252025Y308692D01*
X252116Y308873D01*
X252181Y309016D01*
X252206Y309068D01*
X252220Y309107D01*
X252232Y309120D01*
Y309133D01*
X252336Y309418D01*
X252401Y309704D01*
X252453Y309989D01*
X252492Y310249D01*
X252518Y310470D01*
Y310574D01*
X252531Y310651D01*
Y310807D01*
X252518Y311132D01*
X252479Y311443D01*
X252427Y311716D01*
X252375Y311949D01*
X252323Y312144D01*
X252297Y312222D01*
X252271Y312287D01*
X252245Y312352D01*
X252232Y312391D01*
X252220Y312404D01*
Y312417D01*
X252103Y312676D01*
X251960Y312910D01*
X251817Y313118D01*
X251674Y313299D01*
X251544Y313442D01*
X251441Y313546D01*
X251376Y313611D01*
X251363Y313637D01*
X251350D01*
X251129Y313818D01*
X250896Y313974D01*
X250662Y314104D01*
X250441Y314221D01*
X250247Y314299D01*
X250156Y314338D01*
X250091Y314363D01*
X250026Y314389D01*
X249987Y314402D01*
X249961Y314415D01*
X249948D01*
X249637Y314506D01*
X249312Y314571D01*
X249001Y314623D01*
X248715Y314649D01*
X248585Y314662D01*
X248468Y314675D01*
X248365D01*
X248274Y314688D01*
X252531D01*
Y313637D01*
Y314688D01*
X254556D01*
D01*
X261837D01*
X261240Y314662D01*
X260682Y314597D01*
X260150Y314506D01*
X259657Y314377D01*
X259189Y314221D01*
X258748Y314039D01*
X258359Y313857D01*
X257995Y313676D01*
X257671Y313481D01*
X257398Y313299D01*
X257152Y313118D01*
X256944Y312975D01*
X256788Y312845D01*
X256671Y312741D01*
X256607Y312676D01*
X256581Y312650D01*
X256230Y312261D01*
X255919Y311833D01*
X255646Y311404D01*
X255412Y310963D01*
X255218Y310509D01*
X255049Y310067D01*
X254919Y309639D01*
X254815Y309224D01*
X254725Y308834D01*
X254660Y308471D01*
X254621Y308159D01*
X254582Y307874D01*
Y307757D01*
X254569Y307640D01*
Y307549D01*
X254556Y307471D01*
Y307329D01*
X254582Y306770D01*
X254634Y306238D01*
X254725Y305732D01*
X254841Y305265D01*
X254971Y304824D01*
X255127Y304421D01*
X255283Y304045D01*
X255451Y303720D01*
X255620Y303422D01*
X255776Y303149D01*
X255932Y302929D01*
X256061Y302747D01*
X256178Y302604D01*
X256269Y302500D01*
X256321Y302435D01*
X256347Y302409D01*
X256697Y302085D01*
X257074Y301799D01*
X257476Y301553D01*
X257878Y301345D01*
X258294Y301163D01*
X258709Y301021D01*
X259111Y300891D01*
X259501Y300800D01*
X259877Y300722D01*
X260215Y300670D01*
X260513Y300618D01*
X260786Y300592D01*
X260903D01*
X261007Y300579D01*
X261097D01*
X261162Y300566D01*
X254556D01*
X265212D01*
Y304175D01*
Y304097D01*
X264926Y303941D01*
X264641Y303811D01*
X264355Y303694D01*
X264070Y303591D01*
X263784Y303500D01*
X263512Y303435D01*
X263252Y303370D01*
X263005Y303331D01*
X262772Y303292D01*
X262564Y303266D01*
X262382Y303240D01*
X262227Y303227D01*
X262097Y303214D01*
X261915D01*
X261565Y303227D01*
X261240Y303266D01*
X260929Y303318D01*
X260643Y303396D01*
X260383Y303487D01*
X260124Y303591D01*
X259903Y303694D01*
X259696Y303798D01*
X259514Y303902D01*
X259358Y304019D01*
X259215Y304110D01*
X259111Y304201D01*
X259021Y304279D01*
X258956Y304330D01*
X258917Y304369D01*
X258904Y304382D01*
X258709Y304616D01*
X258540Y304863D01*
X258398Y305109D01*
X258268Y305382D01*
X258164Y305641D01*
X258073Y305901D01*
X257995Y306161D01*
X257943Y306407D01*
X257892Y306641D01*
X257866Y306861D01*
X257840Y307056D01*
X257814Y307225D01*
Y307355D01*
X257801Y307458D01*
Y307523D01*
Y307549D01*
X257814Y307926D01*
X257852Y308289D01*
X257904Y308627D01*
X257982Y308938D01*
X258073Y309237D01*
X258177Y309496D01*
X258281Y309743D01*
X258398Y309976D01*
X258501Y310171D01*
X258605Y310340D01*
X258709Y310496D01*
X258800Y310612D01*
X258878Y310703D01*
X258930Y310781D01*
X258969Y310820D01*
X258982Y310833D01*
X259215Y311041D01*
X259449Y311235D01*
X259709Y311391D01*
X259968Y311534D01*
X260228Y311651D01*
X260487Y311742D01*
X260734Y311819D01*
X260981Y311884D01*
X261201Y311936D01*
X261409Y311975D01*
X261604Y312001D01*
X261759Y312027D01*
X261902D01*
X261993Y312040D01*
X262084D01*
X262408Y312027D01*
X262720Y312001D01*
X263018Y311962D01*
X263317Y311910D01*
X263589Y311845D01*
X263849Y311781D01*
X264083Y311703D01*
X264303Y311638D01*
X264511Y311560D01*
X264680Y311482D01*
X264835Y311417D01*
X264965Y311352D01*
X265069Y311300D01*
X265147Y311261D01*
X265199Y311235D01*
X265212Y311222D01*
Y314221D01*
Y314182D01*
X264952Y314273D01*
X264667Y314350D01*
X264109Y314480D01*
X263538Y314571D01*
X263265Y314597D01*
X263005Y314623D01*
X262772Y314649D01*
X262538Y314662D01*
X262343Y314675D01*
X262175D01*
X262032Y314688D01*
X265212D01*
D01*
D02*
G37*
G36*
Y300566D02*
X261305D01*
X261746Y300579D01*
X262162Y300592D01*
X262564Y300631D01*
X262940Y300683D01*
X263278Y300735D01*
X263602Y300787D01*
X263901Y300852D01*
X264160Y300930D01*
X264407Y300995D01*
X264615Y301060D01*
X264797Y301112D01*
X264939Y301163D01*
X265056Y301215D01*
X265147Y301254D01*
X265199Y301267D01*
X265212Y301280D01*
Y300566D01*
D02*
G37*
G36*
X281417Y280671D02*
X281547D01*
X281696Y280661D01*
X281856Y280651D01*
X282026Y280631D01*
X282395Y280591D01*
X282774Y280521D01*
X282954Y280481D01*
X283124Y280431D01*
X283284Y280382D01*
X283423Y280312D01*
Y278924D01*
X283413Y278934D01*
X283383Y278954D01*
X283323Y278984D01*
X283253Y279024D01*
X283164Y279074D01*
X283054Y279134D01*
X282924Y279184D01*
X282774Y279254D01*
X282615Y279313D01*
X282435Y279363D01*
X282235Y279423D01*
X282026Y279473D01*
X281796Y279513D01*
X281556Y279543D01*
X281307Y279563D01*
X281038Y279573D01*
X280888D01*
X280788Y279563D01*
X280668Y279553D01*
X280528Y279533D01*
X280379Y279513D01*
X280229Y279483D01*
X280209D01*
X280159Y279463D01*
X280089Y279443D01*
X279989Y279423D01*
X279879Y279383D01*
X279760Y279333D01*
X279630Y279283D01*
X279510Y279214D01*
X279500Y279204D01*
X279460Y279184D01*
X279400Y279134D01*
X279331Y279084D01*
X279251Y279004D01*
X279161Y278924D01*
X279081Y278824D01*
X279001Y278715D01*
X278991Y278704D01*
X278971Y278664D01*
X278941Y278595D01*
X278901Y278515D01*
X278861Y278405D01*
X278831Y278285D01*
X278811Y278146D01*
X278801Y277986D01*
Y277966D01*
Y277916D01*
X278811Y277846D01*
X278821Y277746D01*
X278841Y277636D01*
X278861Y277527D01*
X278901Y277407D01*
X278951Y277287D01*
X278961Y277277D01*
X278981Y277237D01*
X279011Y277187D01*
X279061Y277107D01*
X279121Y277027D01*
X279201Y276938D01*
X279291Y276848D01*
X279390Y276748D01*
X279400Y276738D01*
X279440Y276708D01*
X279510Y276658D01*
X279590Y276598D01*
X279700Y276528D01*
X279820Y276448D01*
X279959Y276369D01*
X280109Y276279D01*
X280129Y276269D01*
X280179Y276239D01*
X280269Y276199D01*
X280389Y276139D01*
X280528Y276059D01*
X280698Y275979D01*
X280878Y275889D01*
X281077Y275790D01*
X281087D01*
X281107Y275780D01*
X281137Y275760D01*
X281177Y275740D01*
X281287Y275690D01*
X281427Y275610D01*
X281586Y275520D01*
X281766Y275420D01*
X282146Y275201D01*
X282155D01*
X282166Y275191D01*
X282195Y275171D01*
X282235Y275151D01*
X282325Y275081D01*
X282445Y275001D01*
X282585Y274901D01*
X282734Y274781D01*
X282884Y274652D01*
X283034Y274512D01*
X283054Y274492D01*
X283094Y274452D01*
X283174Y274372D01*
X283253Y274272D01*
X283353Y274153D01*
X283453Y274003D01*
X283553Y273853D01*
X283643Y273683D01*
X283653Y273664D01*
X283683Y273604D01*
X283713Y273514D01*
X283763Y273384D01*
X283803Y273234D01*
X283832Y273055D01*
X283862Y272855D01*
X283872Y272645D01*
Y272635D01*
Y272615D01*
Y272575D01*
Y272516D01*
X283862Y272456D01*
X283852Y272376D01*
X283832Y272196D01*
X283792Y271987D01*
X283743Y271767D01*
X283663Y271547D01*
X283563Y271338D01*
Y271328D01*
X283553Y271318D01*
X283533Y271288D01*
X283513Y271248D01*
X283443Y271148D01*
X283353Y271028D01*
X283234Y270888D01*
X283094Y270739D01*
X282924Y270599D01*
X282744Y270459D01*
X282734D01*
X282724Y270449D01*
X282694Y270429D01*
X282655Y270409D01*
X282605Y270379D01*
X282545Y270349D01*
X282405Y270270D01*
X282225Y270190D01*
X282016Y270110D01*
X281796Y270040D01*
X281547Y269980D01*
X281537D01*
X281517Y269970D01*
X281477D01*
X281427Y269960D01*
X281367Y269950D01*
X281297Y269930D01*
X281207Y269920D01*
X281117Y269910D01*
X280908Y269880D01*
X280668Y269850D01*
X280409Y269840D01*
X280129Y269830D01*
X280029D01*
X279959Y269840D01*
X279869D01*
X279760Y269850D01*
X279640Y269860D01*
X279510Y269870D01*
X279490D01*
X279450Y269880D01*
X279380Y269890D01*
X279281Y269900D01*
X279171Y269910D01*
X279041Y269930D01*
X278901Y269960D01*
X278762Y269980D01*
X278742D01*
X278702Y269990D01*
X278622Y270010D01*
X278532Y270030D01*
X278422Y270060D01*
X278302Y270090D01*
X278043Y270160D01*
X278033Y270170D01*
X277983Y270180D01*
X277923Y270210D01*
X277843Y270240D01*
X277663Y270319D01*
X277574Y270369D01*
X277494Y270419D01*
Y271877D01*
X277504Y271867D01*
X277534Y271837D01*
X277594Y271797D01*
X277663Y271737D01*
X277753Y271677D01*
X277853Y271607D01*
X277963Y271537D01*
X278093Y271467D01*
X278113Y271457D01*
X278153Y271437D01*
X278223Y271408D01*
X278312Y271368D01*
X278422Y271318D01*
X278552Y271278D01*
X278682Y271228D01*
X278821Y271178D01*
X278841D01*
X278891Y271158D01*
X278961Y271138D01*
X279061Y271108D01*
X279181Y271078D01*
X279310Y271048D01*
X279600Y270988D01*
X279620D01*
X279670Y270978D01*
X279740Y270968D01*
X279840Y270958D01*
X279949Y270948D01*
X280069Y270938D01*
X280319Y270928D01*
X280429D01*
X280508Y270938D01*
X280598D01*
X280708Y270948D01*
X280828Y270968D01*
X280958Y270978D01*
X281237Y271028D01*
X281517Y271108D01*
X281786Y271208D01*
X281906Y271278D01*
X282016Y271348D01*
X282026Y271358D01*
X282036Y271368D01*
X282106Y271427D01*
X282195Y271527D01*
X282295Y271657D01*
X282395Y271827D01*
X282485Y272036D01*
X282555Y272286D01*
X282565Y272416D01*
X282575Y272565D01*
Y272585D01*
Y272635D01*
X282565Y272715D01*
X282555Y272815D01*
X282525Y272925D01*
X282495Y273055D01*
X282445Y273174D01*
X282385Y273294D01*
X282375Y273304D01*
X282355Y273344D01*
X282315Y273414D01*
X282255Y273484D01*
X282185Y273574D01*
X282096Y273673D01*
X281996Y273773D01*
X281876Y273873D01*
X281866Y273883D01*
X281816Y273913D01*
X281746Y273973D01*
X281656Y274033D01*
X281537Y274113D01*
X281407Y274193D01*
X281257Y274282D01*
X281087Y274372D01*
X281067Y274382D01*
X281007Y274412D01*
X280918Y274462D01*
X280798Y274522D01*
X280658Y274602D01*
X280488Y274692D01*
X280309Y274781D01*
X280119Y274881D01*
X280109D01*
X280099Y274891D01*
X280069Y274911D01*
X280029Y274931D01*
X279919Y274981D01*
X279790Y275061D01*
X279630Y275141D01*
X279450Y275231D01*
X279091Y275440D01*
X279081D01*
X279071Y275450D01*
X279011Y275490D01*
X278921Y275550D01*
X278811Y275630D01*
X278682Y275720D01*
X278542Y275830D01*
X278402Y275949D01*
X278262Y276069D01*
X278242Y276089D01*
X278202Y276129D01*
X278143Y276199D01*
X278063Y276299D01*
X277973Y276409D01*
X277883Y276548D01*
X277793Y276688D01*
X277713Y276848D01*
Y276858D01*
X277703Y276868D01*
X277683Y276928D01*
X277654Y277017D01*
X277614Y277137D01*
X277574Y277297D01*
X277544Y277467D01*
X277524Y277666D01*
X277514Y277876D01*
Y277886D01*
Y277906D01*
Y277946D01*
X277524Y277996D01*
Y278056D01*
X277534Y278136D01*
X277554Y278305D01*
X277594Y278495D01*
X277644Y278704D01*
X277723Y278914D01*
X277823Y279124D01*
Y279134D01*
X277843Y279144D01*
X277853Y279174D01*
X277883Y279214D01*
X277953Y279313D01*
X278043Y279433D01*
X278163Y279573D01*
X278312Y279713D01*
X278472Y279862D01*
X278652Y279992D01*
X278662D01*
X278672Y280012D01*
X278702Y280022D01*
X278742Y280052D01*
X278851Y280112D01*
X278991Y280192D01*
X279161Y280272D01*
X279361Y280361D01*
X279580Y280441D01*
X279820Y280511D01*
X279830D01*
X279850Y280521D01*
X279890Y280531D01*
X279929Y280541D01*
X279989Y280551D01*
X280069Y280561D01*
X280239Y280601D01*
X280438Y280631D01*
X280668Y280651D01*
X280908Y280671D01*
X281167Y280681D01*
X281317D01*
X281417Y280671D01*
D02*
G37*
G36*
X293655Y274242D02*
Y274232D01*
Y274193D01*
Y274133D01*
X293645Y274053D01*
Y273953D01*
X293625Y273833D01*
X293615Y273703D01*
X293595Y273554D01*
X293565Y273394D01*
X293535Y273224D01*
X293445Y272845D01*
X293385Y272645D01*
X293326Y272446D01*
X293246Y272246D01*
X293156Y272036D01*
X293056Y271827D01*
X292946Y271627D01*
X292817Y271427D01*
X292677Y271228D01*
X292527Y271038D01*
X292357Y270858D01*
X292178Y270679D01*
X291968Y270519D01*
X291748Y270369D01*
X291509Y270240D01*
X291259Y270120D01*
X290980Y270020D01*
X290680Y269940D01*
X290361Y269880D01*
X290021Y269840D01*
X289662Y269830D01*
X289572D01*
X289502Y269840D01*
X289412Y269850D01*
X289313Y269860D01*
X289193Y269870D01*
X289063Y269900D01*
X288923Y269930D01*
X288774Y269960D01*
X288454Y270050D01*
X288275Y270120D01*
X288105Y270190D01*
X287925Y270270D01*
X287745Y270359D01*
X287566Y270469D01*
X287386Y270589D01*
X287216Y270719D01*
X287047Y270868D01*
X286877Y271028D01*
X286717Y271208D01*
X286568Y271408D01*
X286428Y271627D01*
X286298Y271857D01*
X286178Y272116D01*
X286078Y272386D01*
X285999Y272675D01*
X285929Y272995D01*
X285869Y273334D01*
X285839Y273693D01*
X285829Y274083D01*
Y280511D01*
X287067D01*
Y274163D01*
Y274153D01*
Y274123D01*
Y274083D01*
X287077Y274023D01*
Y273953D01*
X287087Y273863D01*
X287097Y273763D01*
X287107Y273654D01*
X287147Y273414D01*
X287206Y273144D01*
X287296Y272845D01*
X287406Y272546D01*
X287556Y272246D01*
X287636Y272096D01*
X287736Y271957D01*
X287835Y271817D01*
X287955Y271677D01*
X288075Y271557D01*
X288215Y271437D01*
X288364Y271328D01*
X288524Y271228D01*
X288704Y271138D01*
X288894Y271068D01*
X289093Y271008D01*
X289313Y270968D01*
X289542Y270938D01*
X289792Y270928D01*
X289862D01*
X289902Y270938D01*
X289961D01*
X290031Y270948D01*
X290201Y270978D01*
X290401Y271028D01*
X290630Y271098D01*
X290860Y271188D01*
X291110Y271318D01*
X291229Y271397D01*
X291359Y271487D01*
X291479Y271587D01*
X291599Y271687D01*
X291708Y271807D01*
X291818Y271947D01*
X291918Y272086D01*
X292018Y272246D01*
X292108Y272416D01*
X292188Y272605D01*
X292257Y272805D01*
X292317Y273025D01*
X292367Y273254D01*
X292397Y273504D01*
X292417Y273773D01*
X292427Y274053D01*
Y280511D01*
X293655D01*
Y274242D01*
D02*
G37*
G36*
X300203Y270000D02*
X299005D01*
Y279074D01*
X298995Y279064D01*
X298976Y279054D01*
X298946Y279024D01*
X298906Y278984D01*
X298846Y278934D01*
X298776Y278884D01*
X298696Y278824D01*
X298596Y278754D01*
X298586Y278744D01*
X298546Y278724D01*
X298496Y278685D01*
X298417Y278645D01*
X298327Y278585D01*
X298227Y278525D01*
X298107Y278465D01*
X297987Y278395D01*
X297977Y278385D01*
X297927Y278365D01*
X297868Y278335D01*
X297778Y278295D01*
X297668Y278245D01*
X297558Y278185D01*
X297428Y278125D01*
X297288Y278066D01*
X297269Y278056D01*
X297229Y278046D01*
X297149Y278016D01*
X297059Y277986D01*
X296949Y277946D01*
X296829Y277906D01*
X296570Y277836D01*
Y279044D01*
X296590Y279054D01*
X296640Y279064D01*
X296719Y279094D01*
X296829Y279124D01*
X296949Y279164D01*
X297089Y279214D01*
X297249Y279273D01*
X297408Y279343D01*
X297418D01*
X297428Y279353D01*
X297488Y279373D01*
X297568Y279413D01*
X297678Y279463D01*
X297817Y279533D01*
X297957Y279603D01*
X298277Y279763D01*
X298287D01*
X298297Y279773D01*
X298347Y279802D01*
X298436Y279852D01*
X298536Y279912D01*
X298666Y279982D01*
X298796Y280062D01*
X299085Y280242D01*
X299105Y280252D01*
X299155Y280282D01*
X299225Y280342D01*
X299315Y280401D01*
X299425Y280481D01*
X299534Y280561D01*
X299644Y280651D01*
X299754Y280741D01*
X300203D01*
Y270000D01*
D02*
G37*
G36*
X275228D02*
X274000D01*
Y280511D01*
X275228D01*
Y270000D01*
D02*
G37*
%LPC*%
G36*
X225005Y279663D02*
X224946D01*
X224906Y279653D01*
X224796Y279633D01*
X224656Y279593D01*
X224486Y279523D01*
X224396Y279473D01*
X224297Y279423D01*
X224197Y279353D01*
X224097Y279283D01*
X223987Y279194D01*
X223887Y279094D01*
X223778Y278984D01*
X223678Y278854D01*
X223568Y278704D01*
X223468Y278545D01*
X223378Y278375D01*
X223279Y278185D01*
X223189Y277966D01*
X223109Y277736D01*
X223039Y277487D01*
X222969Y277217D01*
X222909Y276928D01*
X222859Y276608D01*
X222819Y276269D01*
X222789Y275900D01*
X222769Y275520D01*
X222759Y275101D01*
Y275091D01*
Y275051D01*
Y274991D01*
Y274921D01*
X222769Y274821D01*
Y274712D01*
X222779Y274582D01*
X222789Y274432D01*
X222809Y274282D01*
X222829Y274113D01*
X222879Y273753D01*
X222949Y273364D01*
X223039Y272975D01*
X223149Y272575D01*
X223298Y272186D01*
X223478Y271827D01*
X223578Y271657D01*
X223688Y271507D01*
X223808Y271358D01*
X223947Y271228D01*
X224087Y271118D01*
X224237Y271018D01*
X224407Y270948D01*
X224576Y270888D01*
X224766Y270849D01*
X224965Y270839D01*
X225015D01*
X225055Y270849D01*
X225165Y270868D01*
X225305Y270908D01*
X225475Y270968D01*
X225654Y271068D01*
X225754Y271128D01*
X225854Y271198D01*
X225954Y271288D01*
X226054Y271378D01*
X226153Y271487D01*
X226253Y271607D01*
X226353Y271747D01*
X226453Y271897D01*
X226543Y272066D01*
X226632Y272246D01*
X226722Y272456D01*
X226802Y272675D01*
X226872Y272905D01*
X226942Y273164D01*
X227002Y273444D01*
X227052Y273743D01*
X227092Y274073D01*
X227122Y274412D01*
X227132Y274791D01*
X227142Y275181D01*
Y275191D01*
Y275231D01*
Y275291D01*
Y275370D01*
X227132Y275470D01*
Y275590D01*
X227122Y275730D01*
X227112Y275879D01*
X227092Y276049D01*
X227082Y276219D01*
X227032Y276598D01*
X226962Y277008D01*
X226872Y277427D01*
X226762Y277836D01*
X226623Y278245D01*
X226443Y278625D01*
X226353Y278794D01*
X226243Y278964D01*
X226123Y279114D01*
X225994Y279254D01*
X225854Y279373D01*
X225714Y279473D01*
X225554Y279553D01*
X225385Y279613D01*
X225195Y279653D01*
X225005Y279663D01*
D02*
G37*
G36*
X231315Y175573D02*
X231245D01*
X231155Y175563D01*
X231036Y175553D01*
X230896Y175533D01*
X230736Y175513D01*
X230557Y175473D01*
X230357Y175423D01*
X230147Y175363D01*
X229928Y175283D01*
X229708Y175184D01*
X229478Y175064D01*
X229259Y174934D01*
X229029Y174774D01*
X228820Y174585D01*
X228620Y174375D01*
X228610Y174365D01*
X228580Y174315D01*
X228530Y174255D01*
X228460Y174156D01*
X228380Y174036D01*
X228291Y173896D01*
X228201Y173726D01*
X228111Y173537D01*
X228011Y173317D01*
X227921Y173087D01*
X227831Y172828D01*
X227752Y172548D01*
X227692Y172249D01*
X227632Y171929D01*
X227602Y171600D01*
X227592Y171241D01*
Y171231D01*
Y171221D01*
Y171191D01*
Y171151D01*
X227602Y171051D01*
X227612Y170921D01*
X227622Y170751D01*
X227642Y170562D01*
X227672Y170352D01*
X227722Y170123D01*
X227771Y169873D01*
X227841Y169624D01*
X227921Y169364D01*
X228021Y169095D01*
X228131Y168835D01*
X228271Y168585D01*
X228420Y168336D01*
X228600Y168106D01*
X228610Y168096D01*
X228650Y168056D01*
X228700Y167996D01*
X228780Y167927D01*
X228880Y167837D01*
X229009Y167737D01*
X229149Y167627D01*
X229309Y167517D01*
X229488Y167407D01*
X229688Y167298D01*
X229898Y167198D01*
X230137Y167108D01*
X230387Y167038D01*
X230646Y166978D01*
X230926Y166938D01*
X231225Y166928D01*
X231305D01*
X231395Y166938D01*
X231515Y166948D01*
X231655Y166958D01*
X231824Y166988D01*
X232014Y167018D01*
X232214Y167068D01*
X232423Y167128D01*
X232653Y167208D01*
X232872Y167298D01*
X233102Y167407D01*
X233332Y167537D01*
X233551Y167687D01*
X233751Y167857D01*
X233951Y168056D01*
X233960Y168066D01*
X233990Y168106D01*
X234040Y168176D01*
X234110Y168266D01*
X234180Y168376D01*
X234270Y168515D01*
X234360Y168685D01*
X234450Y168875D01*
X234539Y169084D01*
X234629Y169324D01*
X234719Y169584D01*
X234789Y169863D01*
X234859Y170163D01*
X234909Y170492D01*
X234939Y170841D01*
X234949Y171211D01*
Y171221D01*
Y171231D01*
Y171261D01*
Y171301D01*
Y171350D01*
X234939Y171410D01*
Y171550D01*
X234919Y171730D01*
X234899Y171929D01*
X234869Y172159D01*
X234829Y172399D01*
X234779Y172648D01*
X234709Y172918D01*
X234639Y173187D01*
X234539Y173447D01*
X234430Y173716D01*
X234300Y173966D01*
X234150Y174215D01*
X233980Y174435D01*
X233970Y174445D01*
X233941Y174485D01*
X233881Y174545D01*
X233801Y174615D01*
X233701Y174694D01*
X233581Y174794D01*
X233441Y174894D01*
X233282Y175004D01*
X233102Y175114D01*
X232902Y175214D01*
X232683Y175313D01*
X232443Y175393D01*
X232194Y175473D01*
X231914Y175523D01*
X231625Y175563D01*
X231315Y175573D01*
D02*
G37*
G36*
X241038Y175663D02*
X240978D01*
X240938Y175653D01*
X240828Y175633D01*
X240688Y175593D01*
X240519Y175523D01*
X240429Y175473D01*
X240329Y175423D01*
X240229Y175353D01*
X240130Y175283D01*
X240020Y175194D01*
X239920Y175094D01*
X239810Y174984D01*
X239710Y174854D01*
X239600Y174704D01*
X239501Y174545D01*
X239411Y174375D01*
X239311Y174185D01*
X239221Y173966D01*
X239141Y173736D01*
X239071Y173487D01*
X239002Y173217D01*
X238942Y172928D01*
X238892Y172608D01*
X238852Y172269D01*
X238822Y171900D01*
X238802Y171520D01*
X238792Y171101D01*
Y171091D01*
Y171051D01*
Y170991D01*
Y170921D01*
X238802Y170821D01*
Y170712D01*
X238812Y170582D01*
X238822Y170432D01*
X238842Y170282D01*
X238862Y170113D01*
X238912Y169753D01*
X238981Y169364D01*
X239071Y168975D01*
X239181Y168575D01*
X239331Y168186D01*
X239511Y167827D01*
X239610Y167657D01*
X239720Y167507D01*
X239840Y167358D01*
X239980Y167228D01*
X240119Y167118D01*
X240269Y167018D01*
X240439Y166948D01*
X240609Y166888D01*
X240798Y166849D01*
X240998Y166838D01*
X241048D01*
X241088Y166849D01*
X241198Y166868D01*
X241337Y166908D01*
X241507Y166968D01*
X241687Y167068D01*
X241786Y167128D01*
X241886Y167198D01*
X241986Y167288D01*
X242086Y167377D01*
X242186Y167487D01*
X242286Y167607D01*
X242385Y167747D01*
X242485Y167897D01*
X242575Y168066D01*
X242665Y168246D01*
X242755Y168456D01*
X242835Y168675D01*
X242904Y168905D01*
X242974Y169164D01*
X243034Y169444D01*
X243084Y169743D01*
X243124Y170073D01*
X243154Y170412D01*
X243164Y170791D01*
X243174Y171181D01*
Y171191D01*
Y171231D01*
Y171291D01*
Y171370D01*
X243164Y171470D01*
Y171590D01*
X243154Y171730D01*
X243144Y171880D01*
X243124Y172049D01*
X243114Y172219D01*
X243064Y172598D01*
X242994Y173008D01*
X242904Y173427D01*
X242795Y173836D01*
X242655Y174245D01*
X242475Y174625D01*
X242385Y174794D01*
X242276Y174964D01*
X242156Y175114D01*
X242026Y175254D01*
X241886Y175373D01*
X241747Y175473D01*
X241587Y175553D01*
X241417Y175613D01*
X241227Y175653D01*
X241038Y175663D01*
D02*
G37*
G36*
X270315Y175573D02*
X270245D01*
X270156Y175563D01*
X270036Y175553D01*
X269896Y175533D01*
X269736Y175513D01*
X269557Y175473D01*
X269357Y175423D01*
X269147Y175363D01*
X268928Y175283D01*
X268708Y175184D01*
X268479Y175064D01*
X268259Y174934D01*
X268029Y174774D01*
X267820Y174585D01*
X267620Y174375D01*
X267610Y174365D01*
X267580Y174315D01*
X267530Y174255D01*
X267460Y174156D01*
X267380Y174036D01*
X267291Y173896D01*
X267201Y173726D01*
X267111Y173537D01*
X267011Y173317D01*
X266921Y173087D01*
X266831Y172828D01*
X266751Y172548D01*
X266692Y172249D01*
X266632Y171929D01*
X266602Y171600D01*
X266592Y171241D01*
Y171231D01*
Y171221D01*
Y171191D01*
Y171151D01*
X266602Y171051D01*
X266612Y170921D01*
X266622Y170751D01*
X266642Y170562D01*
X266672Y170352D01*
X266722Y170123D01*
X266772Y169873D01*
X266841Y169624D01*
X266921Y169364D01*
X267021Y169095D01*
X267131Y168835D01*
X267271Y168585D01*
X267420Y168336D01*
X267600Y168106D01*
X267610Y168096D01*
X267650Y168056D01*
X267700Y167996D01*
X267780Y167927D01*
X267880Y167837D01*
X268009Y167737D01*
X268149Y167627D01*
X268309Y167517D01*
X268488Y167407D01*
X268688Y167298D01*
X268898Y167198D01*
X269137Y167108D01*
X269387Y167038D01*
X269646Y166978D01*
X269926Y166938D01*
X270225Y166928D01*
X270305D01*
X270395Y166938D01*
X270515Y166948D01*
X270655Y166958D01*
X270824Y166988D01*
X271014Y167018D01*
X271214Y167068D01*
X271423Y167128D01*
X271653Y167208D01*
X271872Y167298D01*
X272102Y167407D01*
X272332Y167537D01*
X272551Y167687D01*
X272751Y167857D01*
X272950Y168056D01*
X272960Y168066D01*
X272990Y168106D01*
X273040Y168176D01*
X273110Y168266D01*
X273180Y168376D01*
X273270Y168515D01*
X273360Y168685D01*
X273450Y168875D01*
X273539Y169084D01*
X273629Y169324D01*
X273719Y169584D01*
X273789Y169863D01*
X273859Y170163D01*
X273909Y170492D01*
X273939Y170841D01*
X273949Y171211D01*
Y171221D01*
Y171231D01*
Y171261D01*
Y171301D01*
Y171350D01*
X273939Y171410D01*
Y171550D01*
X273919Y171730D01*
X273899Y171929D01*
X273869Y172159D01*
X273829Y172399D01*
X273779Y172648D01*
X273709Y172918D01*
X273639Y173187D01*
X273539Y173447D01*
X273430Y173716D01*
X273300Y173966D01*
X273150Y174215D01*
X272980Y174435D01*
X272970Y174445D01*
X272941Y174485D01*
X272881Y174545D01*
X272801Y174615D01*
X272701Y174694D01*
X272581Y174794D01*
X272441Y174894D01*
X272282Y175004D01*
X272102Y175114D01*
X271902Y175214D01*
X271683Y175313D01*
X271443Y175393D01*
X271194Y175473D01*
X270914Y175523D01*
X270625Y175563D01*
X270315Y175573D01*
D02*
G37*
G36*
X240670Y138467D02*
X237594D01*
Y124800D01*
X240670D01*
Y138467D01*
D02*
G37*
G36*
X241070Y314467D02*
X237994D01*
Y300800D01*
X241070D01*
Y314467D01*
D02*
G37*
%LPD*%
D10*
X227600Y189700D02*
X235100D01*
X227600Y194701D02*
X235100D01*
X227600D02*
X231350Y189700D01*
X235100Y194701D01*
X269100Y189750D02*
X272850Y194750D01*
X265350D02*
X269100Y189750D01*
X265350Y194750D02*
X272850D01*
X265350Y189750D02*
X272850D01*
X198100Y118625D02*
X202100D01*
Y109625D02*
Y118625D01*
X95100Y109625D02*
X114100D01*
Y118625D01*
X95100Y109625D02*
Y164625D01*
X221100D01*
Y109625D02*
Y164625D01*
X202100Y109625D02*
X221100D01*
X114100Y118625D02*
X118100D01*
X298100Y118500D02*
X302100D01*
X386100Y109500D02*
X405100D01*
Y164500D01*
X279100D02*
X405100D01*
X279100Y109500D02*
Y164500D01*
X298100Y109500D02*
Y118500D01*
X279100Y109500D02*
X298100D01*
X386100D02*
Y118500D01*
X382100D02*
X386100D01*
X298100Y293500D02*
X302100D01*
X386100Y284500D02*
X405100D01*
Y339500D01*
X279100D02*
X405100D01*
X279100Y284500D02*
Y339500D01*
X298100Y284500D02*
Y293500D01*
X279100Y284500D02*
X298100D01*
X386100D02*
Y293500D01*
X382100D02*
X386100D01*
X198100Y293625D02*
X202100D01*
Y284625D02*
Y293625D01*
X95100Y284625D02*
X114100D01*
Y293625D01*
X95100Y284625D02*
Y339625D01*
X221100D01*
Y284625D02*
Y339625D01*
X202100Y284625D02*
X221100D01*
X114100Y293625D02*
X118100D01*
D11*
X239100Y211000D02*
Y239000D01*
X223100D02*
X239100D01*
X223100Y211000D02*
Y239000D01*
Y211000D02*
X239100D01*
X277100D02*
Y239000D01*
X261100D02*
X277100D01*
X261100Y211000D02*
Y239000D01*
Y211000D02*
X277100D01*
X265500Y67400D02*
Y95400D01*
X249500D02*
X265500D01*
X249500Y67400D02*
Y95400D01*
Y67400D02*
X265500D01*
X244000Y67300D02*
Y95300D01*
X228000D02*
X244000D01*
X228000Y67300D02*
Y95300D01*
Y67300D02*
X244000D01*
X289100Y30850D02*
Y49850D01*
X283100D02*
X289100D01*
X211100Y30850D02*
Y49850D01*
X217100D01*
X211100Y850D02*
Y9850D01*
X289100Y850D02*
Y9850D01*
X90100Y71500D02*
Y78500D01*
X190100Y71500D02*
Y78500D01*
Y5500D02*
Y12500D01*
X90100Y5000D02*
Y12000D01*
Y5000D02*
X190100D01*
X90100Y79000D02*
X190100D01*
X310100Y79400D02*
X410100D01*
X310100Y5400D02*
X410100D01*
X310100D02*
Y12400D01*
X410100Y5900D02*
Y12900D01*
Y71900D02*
Y78900D01*
X310100Y71900D02*
Y78900D01*
Y246600D02*
Y253600D01*
X410100Y246600D02*
Y253600D01*
Y180600D02*
Y187600D01*
X310100Y180100D02*
Y187100D01*
Y180100D02*
X410100D01*
X310100Y254100D02*
X410100D01*
X90100Y247200D02*
Y254200D01*
X190100Y247200D02*
Y254200D01*
Y181200D02*
Y188200D01*
X90100Y180700D02*
Y187700D01*
Y180700D02*
X190100D01*
X90100Y254700D02*
X190100D01*
D12*
X229900Y142300D02*
X269900D01*
X229900Y120300D02*
X269900D01*
Y131300D02*
Y142300D01*
X229900Y131300D02*
Y142300D01*
X269900Y120300D02*
Y131300D01*
X229900Y120300D02*
Y131300D01*
X230300Y318300D02*
X270300D01*
X230300Y296300D02*
X270300D01*
X230300Y307300D02*
Y318300D01*
Y296300D02*
Y307300D01*
X270300D02*
Y318300D01*
Y296300D02*
Y307300D01*
D13*
X231900Y140100D02*
X268000D01*
X232300Y316100D02*
X268400D01*
D14*
X230600Y123000D02*
X268500D01*
X231000Y299000D02*
X268900D01*
D15*
X325300Y190000D02*
X344900D01*
X329900D02*
Y195000D01*
Y185000D02*
Y190000D01*
X325300D02*
Y190400D01*
X329900Y195000D01*
X325300Y189600D02*
Y190000D01*
Y189600D02*
X329900Y185000D01*
X327600Y187300D02*
Y192700D01*
X325300Y14000D02*
X344900D01*
X329900D02*
Y19000D01*
Y9000D02*
Y14000D01*
X325300D02*
Y14400D01*
X329900Y19000D01*
X325300Y13600D02*
Y14000D01*
Y13600D02*
X329900Y9000D01*
X327600Y11300D02*
Y16700D01*
X105300Y15000D02*
X124900D01*
X109900D02*
Y20000D01*
Y10000D02*
Y15000D01*
X105300D02*
Y15400D01*
X109900Y20000D01*
X105300Y14600D02*
Y15000D01*
Y14600D02*
X109900Y10000D01*
X107600Y12300D02*
Y17700D01*
X107800Y187300D02*
Y192700D01*
X105500Y189600D02*
X110100Y185000D01*
X105500Y189600D02*
Y190000D01*
Y190400D02*
X110100Y195000D01*
X105500Y190000D02*
Y190400D01*
X110100Y185000D02*
Y190000D01*
Y195000D01*
X105500Y190000D02*
X125100D01*
X116325Y29158D02*
Y24079D01*
X118864Y21540D01*
X129021D01*
X131560Y24079D01*
Y29158D01*
X129021Y31697D01*
X118864D01*
X116325Y29158D01*
X131560Y36775D02*
X116325D01*
X131560Y46932D01*
X116325D01*
X336325Y29158D02*
Y24079D01*
X338864Y21540D01*
X349021D01*
X351560Y24079D01*
Y29158D01*
X349021Y31697D01*
X338864D01*
X336325Y29158D01*
X351560Y36775D02*
X336325D01*
X351560Y46932D01*
X336325D01*
Y204158D02*
Y199079D01*
X338864Y196540D01*
X349021D01*
X351560Y199079D01*
Y204158D01*
X349021Y206697D01*
X338864D01*
X336325Y204158D01*
X351560Y211775D02*
X336325D01*
X351560Y221932D01*
X336325D01*
X116325Y204158D02*
Y199079D01*
X118864Y196540D01*
X129021D01*
X131560Y199079D01*
Y204158D01*
X129021Y206697D01*
X118864D01*
X116325Y204158D01*
X131560Y211775D02*
X116325D01*
X131560Y221932D01*
X116325D01*
D16*
X480300Y319697D02*
Y311200D01*
Y315449D01*
X485965D01*
Y319697D01*
Y311200D01*
X488797Y318281D02*
X490214Y319697D01*
X493046D01*
X494462Y318281D01*
Y316865D01*
X493046Y315449D01*
X491630D01*
X493046D01*
X494462Y314032D01*
Y312616D01*
X493046Y311200D01*
X490214D01*
X488797Y312616D01*
X480300Y153697D02*
Y145200D01*
Y149449D01*
X485965D01*
Y153697D01*
Y145200D01*
X493046D02*
Y153697D01*
X488797Y149449D01*
X494462D01*
X7300Y155697D02*
Y147200D01*
Y151449D01*
X12965D01*
Y155697D01*
Y147200D01*
X21462D02*
X15797D01*
X21462Y152865D01*
Y154281D01*
X20046Y155697D01*
X17213D01*
X15797Y154281D01*
X9300Y319697D02*
Y311200D01*
Y315449D01*
X14965D01*
Y319697D01*
Y311200D01*
X17797D02*
X20630D01*
X19214D01*
Y319697D01*
X17797Y318281D01*
X206319Y68451D02*
Y76949D01*
X210568D01*
X211984Y75532D01*
Y72700D01*
X210568Y71284D01*
X206319D01*
X209151D02*
X211984Y68451D01*
X220481D02*
X214816D01*
X220481Y74116D01*
Y75532D01*
X219065Y76949D01*
X216232D01*
X214816Y75532D01*
X273335Y69551D02*
Y78049D01*
X277584D01*
X279000Y76632D01*
Y73800D01*
X277584Y72384D01*
X273335D01*
X276168D02*
X279000Y69551D01*
X281832D02*
X284665D01*
X283249D01*
Y78049D01*
X281832Y76632D01*
X208919Y205249D02*
Y196751D01*
X213168D01*
X214584Y198168D01*
Y203832D01*
X213168Y205249D01*
X208919D01*
X223081Y196751D02*
X217416D01*
X223081Y202416D01*
Y203832D01*
X221665Y205249D01*
X218832D01*
X217416Y203832D01*
X280019Y206249D02*
Y197751D01*
X284268D01*
X285684Y199168D01*
Y204832D01*
X284268Y206249D01*
X280019D01*
X288516Y204832D02*
X289932Y206249D01*
X292765D01*
X294181Y204832D01*
Y203416D01*
X292765Y202000D01*
X291349D01*
X292765D01*
X294181Y200584D01*
Y199168D01*
X292765Y197751D01*
X289932D01*
X288516Y199168D01*
X215600Y62149D02*
X212768D01*
X214184D01*
Y55068D01*
X212768Y53651D01*
X211351D01*
X209935Y55068D01*
X218432Y53651D02*
X221265D01*
X219849D01*
Y62149D01*
X218432Y60732D01*
X82684Y339249D02*
X79851D01*
X81268D01*
Y332168D01*
X79851Y330751D01*
X78435D01*
X77019Y332168D01*
X91181Y330751D02*
X85516D01*
X91181Y336416D01*
Y337832D01*
X89765Y339249D01*
X86932D01*
X85516Y337832D01*
X414684Y339249D02*
X411851D01*
X413268D01*
Y332168D01*
X411851Y330751D01*
X410435D01*
X409019Y332168D01*
X417516Y337832D02*
X418932Y339249D01*
X421765D01*
X423181Y337832D01*
Y336416D01*
X421765Y335000D01*
X420349D01*
X421765D01*
X423181Y333584D01*
Y332168D01*
X421765Y330751D01*
X418932D01*
X417516Y332168D01*
X82684Y164249D02*
X79851D01*
X81268D01*
Y157168D01*
X79851Y155751D01*
X78435D01*
X77019Y157168D01*
X89765Y155751D02*
Y164249D01*
X85516Y160000D01*
X91181D01*
X414684Y164249D02*
X411851D01*
X413268D01*
Y157168D01*
X411851Y155751D01*
X410435D01*
X409019Y157168D01*
X423181Y164249D02*
X417516D01*
Y160000D01*
X420349Y161416D01*
X421765D01*
X423181Y160000D01*
Y157168D01*
X421765Y155751D01*
X418932D01*
X417516Y157168D01*
X218478Y242751D02*
Y251249D01*
X222727D01*
X224143Y249832D01*
Y247000D01*
X222727Y245584D01*
X218478D01*
X221311D02*
X224143Y242751D01*
X226976D02*
X229808D01*
X228392D01*
Y251249D01*
X226976Y249832D01*
X234057Y244168D02*
X235473Y242751D01*
X238305D01*
X239722Y244168D01*
Y249832D01*
X238305Y251249D01*
X235473D01*
X234057Y249832D01*
Y248416D01*
X235473Y247000D01*
X239722D01*
X259770Y242751D02*
Y251249D01*
X264019D01*
X265435Y249832D01*
Y247000D01*
X264019Y245584D01*
X259770D01*
X262603D02*
X265435Y242751D01*
X273932D02*
X268268D01*
X273932Y248416D01*
Y249832D01*
X272516Y251249D01*
X269684D01*
X268268Y249832D01*
X276765D02*
X278181Y251249D01*
X281014D01*
X282430Y249832D01*
Y244168D01*
X281014Y242751D01*
X278181D01*
X276765Y244168D01*
Y249832D01*
X94651Y265432D02*
X93235Y266849D01*
X90403D01*
X88987Y265432D01*
Y264016D01*
X90403Y262600D01*
X93235D01*
X94651Y261184D01*
Y259768D01*
X93235Y258351D01*
X90403D01*
X88987Y259768D01*
X97484Y266849D02*
Y258351D01*
X100316Y261184D01*
X103149Y258351D01*
Y266849D01*
X105981Y258351D02*
X108813D01*
X107397D01*
Y266849D01*
X105981Y265432D01*
X371935Y263932D02*
X370519Y265349D01*
X367687D01*
X366270Y263932D01*
Y262516D01*
X367687Y261100D01*
X370519D01*
X371935Y259684D01*
Y258268D01*
X370519Y256851D01*
X367687D01*
X366270Y258268D01*
X374768Y265349D02*
Y256851D01*
X377600Y259684D01*
X380432Y256851D01*
Y265349D01*
X388930Y256851D02*
X383265D01*
X388930Y262516D01*
Y263932D01*
X387514Y265349D01*
X384681D01*
X383265Y263932D01*
X108335Y89832D02*
X106919Y91249D01*
X104087D01*
X102670Y89832D01*
Y88416D01*
X104087Y87000D01*
X106919D01*
X108335Y85584D01*
Y84168D01*
X106919Y82751D01*
X104087D01*
X102670Y84168D01*
X111168Y91249D02*
Y82751D01*
X114000Y85584D01*
X116832Y82751D01*
Y91249D01*
X119665Y89832D02*
X121081Y91249D01*
X123913D01*
X125330Y89832D01*
Y88416D01*
X123913Y87000D01*
X122497D01*
X123913D01*
X125330Y85584D01*
Y84168D01*
X123913Y82751D01*
X121081D01*
X119665Y84168D01*
X395435Y89832D02*
X394019Y91249D01*
X391186D01*
X389770Y89832D01*
Y88416D01*
X391186Y87000D01*
X394019D01*
X395435Y85584D01*
Y84168D01*
X394019Y82751D01*
X391186D01*
X389770Y84168D01*
X398268Y91249D02*
Y82751D01*
X401100Y85584D01*
X403932Y82751D01*
Y91249D01*
X411013Y82751D02*
Y91249D01*
X406765Y87000D01*
X412430D01*
M02*
