G04*
G04 #@! TF.GenerationSoftware,Altium Limited,Altium Designer,22.4.2 (48)*
G04*
G04 Layer_Physical_Order=4*
G04 Layer_Color=16711680*
%FSLAX44Y44*%
%MOMM*%
G71*
G04*
G04 #@! TF.SameCoordinates,FFC21B23-D813-4AC5-8D0E-201BBD69237A*
G04*
G04*
G04 #@! TF.FilePolarity,Positive*
G04*
G01*
G75*
%ADD62C,1.2700*%
%ADD66R,1.5240X1.5240*%
%ADD67C,1.5240*%
%ADD68R,1.5240X1.5240*%
%ADD69O,1.9050X0.9910*%
%ADD70C,1.4500*%
%ADD73C,0.3000*%
%ADD74C,0.5000*%
%ADD75C,0.8000*%
%ADD77C,0.4500*%
%ADD81C,0.6500*%
G36*
X496621Y797178D02*
X497178Y796621D01*
X497451Y795960D01*
X497460Y540762D01*
X496190Y540179D01*
X495823Y540495D01*
Y555000D01*
X495532Y556463D01*
X494704Y557704D01*
X467703Y584704D01*
X467474Y585853D01*
X466424Y587425D01*
X464853Y588474D01*
X463000Y588843D01*
X461147Y588474D01*
X460843Y588272D01*
X459573Y588951D01*
Y627172D01*
X460224Y628147D01*
X460593Y630000D01*
X460224Y631853D01*
X459174Y633425D01*
X457603Y634474D01*
X455750Y634843D01*
X453897Y634474D01*
X452325Y633425D01*
X451276Y631853D01*
X451076Y630850D01*
X449806Y630975D01*
Y649017D01*
X449727Y649416D01*
X449843Y650000D01*
X449474Y651853D01*
X448425Y653425D01*
X446853Y654474D01*
X445000Y654843D01*
X443147Y654474D01*
X441575Y653425D01*
X440526Y651853D01*
X440157Y650000D01*
X440526Y648147D01*
X441575Y646575D01*
X442159Y646185D01*
Y491795D01*
X441508Y490821D01*
X441139Y488967D01*
X441508Y487114D01*
X442558Y485543D01*
X444129Y484493D01*
X445983Y484124D01*
X447836Y484493D01*
X449407Y485543D01*
X450457Y487114D01*
X450826Y488967D01*
X450457Y490821D01*
X449806Y491795D01*
Y502025D01*
X451076Y502150D01*
X451276Y501147D01*
X452325Y499576D01*
X453897Y498526D01*
X455750Y498157D01*
X457603Y498526D01*
X459174Y499576D01*
X460224Y501147D01*
X460593Y503000D01*
X460224Y504853D01*
X459573Y505828D01*
Y579049D01*
X460843Y579728D01*
X461147Y579526D01*
X462296Y579297D01*
X488177Y553416D01*
Y539828D01*
X487526Y538853D01*
X487157Y537000D01*
X487526Y535147D01*
X488576Y533575D01*
X490147Y532526D01*
X492000Y532157D01*
X493853Y532526D01*
X495425Y533575D01*
X496190Y534721D01*
X497460Y534336D01*
X497467Y336116D01*
X496197Y335991D01*
X496163Y336164D01*
X494947Y337983D01*
X478609Y354322D01*
X476789Y355537D01*
X474643Y355964D01*
X454922D01*
X454725Y356004D01*
X436402D01*
X436066Y355937D01*
X435581Y356033D01*
X414994D01*
X412849Y355606D01*
X411029Y354391D01*
X409814Y352572D01*
X409387Y350426D01*
X409814Y348280D01*
X411029Y346460D01*
X412849Y345245D01*
X414994Y344818D01*
X435581D01*
X435917Y344885D01*
X436402Y344788D01*
X454566D01*
X454764Y344749D01*
X472321D01*
X475872Y341198D01*
X475152Y340121D01*
X474289Y340479D01*
X472240Y340748D01*
X470191Y340479D01*
X468281Y339688D01*
X466641Y338429D01*
X465383Y336790D01*
X464592Y334880D01*
X464322Y332831D01*
X464592Y330781D01*
X465383Y328872D01*
X466641Y327232D01*
X468281Y325974D01*
X470191Y325183D01*
X472240Y324913D01*
X474289Y325183D01*
X476199Y325974D01*
X477839Y327232D01*
X479097Y328872D01*
X479888Y330781D01*
X480158Y332831D01*
X479888Y334880D01*
X479530Y335743D01*
X480607Y336462D01*
X485374Y331695D01*
Y277920D01*
X471703Y264249D01*
X470118Y264040D01*
X467899Y263121D01*
X465994Y261659D01*
X464532Y259754D01*
X463614Y257535D01*
X463300Y255155D01*
X463448Y254034D01*
X455417Y246003D01*
X452704D01*
X452511Y246247D01*
X452715Y247969D01*
X453603Y248650D01*
X455065Y250555D01*
X455984Y252774D01*
X456297Y255155D01*
X455984Y257535D01*
X455065Y259754D01*
X453603Y261659D01*
X451698Y263121D01*
X449479Y264040D01*
X447099Y264353D01*
X444718Y264040D01*
X442499Y263121D01*
X440594Y261659D01*
X439132Y259754D01*
X438214Y257535D01*
X437900Y255155D01*
X438214Y252774D01*
X439132Y250555D01*
X440594Y248650D01*
X441483Y247969D01*
X441687Y246247D01*
X441493Y246003D01*
X432076D01*
X430819Y246035D01*
X430819Y247273D01*
Y264275D01*
X412579D01*
X412579Y246035D01*
X411322Y246003D01*
X367364D01*
X365218Y245576D01*
X363522Y244443D01*
X362712Y245429D01*
X405802Y288519D01*
X406630Y289759D01*
X406921Y291222D01*
Y380063D01*
X408041Y380661D01*
X408245Y380526D01*
X410098Y380157D01*
X411951Y380526D01*
X413523Y381575D01*
X414572Y383147D01*
X414941Y385000D01*
X414572Y386853D01*
X413823Y387974D01*
Y395063D01*
X414944Y395661D01*
X415147Y395526D01*
X417000Y395157D01*
X418853Y395526D01*
X420425Y396575D01*
X421474Y398147D01*
X421843Y400000D01*
X421474Y401853D01*
X420823Y402828D01*
Y409328D01*
X421042Y409547D01*
X421870Y410787D01*
X422161Y412250D01*
Y511142D01*
X423431Y511267D01*
X423555Y510648D01*
X424715Y508911D01*
X426451Y507751D01*
X427500Y507542D01*
Y512696D01*
Y517850D01*
X426451Y517642D01*
X424715Y516481D01*
X423555Y514745D01*
X423431Y514126D01*
X422161Y514250D01*
Y583364D01*
X421870Y584827D01*
X421042Y586068D01*
X419777Y587332D01*
X419474Y588853D01*
X418425Y590424D01*
X416853Y591474D01*
X415000Y591843D01*
X413147Y591474D01*
X411576Y590424D01*
X410706Y589123D01*
X410239Y589021D01*
X409761D01*
X409294Y589123D01*
X408425Y590424D01*
X406853Y591474D01*
X405000Y591843D01*
X403147Y591474D01*
X402093Y590771D01*
X400823Y591411D01*
Y621172D01*
X401474Y622147D01*
X401843Y624000D01*
X401474Y625853D01*
X400424Y627425D01*
X398853Y628474D01*
X397000Y628843D01*
X395147Y628474D01*
X393575Y627425D01*
X392526Y625853D01*
X392157Y624000D01*
X392526Y622147D01*
X393177Y621172D01*
Y532434D01*
X393468Y530971D01*
X394296Y529731D01*
X399275Y524752D01*
Y448037D01*
X398154Y447438D01*
X397951Y447574D01*
X396098Y447942D01*
X394245Y447574D01*
X392698Y446540D01*
X387496D01*
X386033Y446249D01*
X384793Y445420D01*
X382264Y442892D01*
X316327D01*
X315353Y443543D01*
X313500Y443912D01*
X311646Y443543D01*
X310672Y442892D01*
X239068D01*
X237605Y442601D01*
X236365Y441772D01*
X204796Y410204D01*
X203968Y408963D01*
X203677Y407500D01*
Y296084D01*
X196296Y288703D01*
X195147Y288474D01*
X193575Y287425D01*
X192526Y285853D01*
X192157Y284000D01*
X192526Y282147D01*
X193575Y280575D01*
X195147Y279526D01*
X197000Y279157D01*
X198853Y279526D01*
X200425Y280575D01*
X201474Y282147D01*
X201703Y283296D01*
X210204Y291796D01*
X211032Y293037D01*
X211324Y294500D01*
Y405916D01*
X240652Y435245D01*
X310672D01*
X311646Y434594D01*
X313500Y434225D01*
X315353Y434594D01*
X316327Y435245D01*
X383848D01*
X385311Y435536D01*
X386552Y436365D01*
X389080Y438893D01*
X393843D01*
X394245Y438625D01*
X396098Y438256D01*
X397951Y438625D01*
X398154Y438761D01*
X399275Y438162D01*
Y292806D01*
X334834Y228365D01*
X333685Y228137D01*
X332113Y227087D01*
X331063Y225516D01*
X330695Y223662D01*
X331063Y221809D01*
X332113Y220238D01*
X333685Y219188D01*
X335538Y218819D01*
X337391Y219188D01*
X338962Y220238D01*
X340012Y221809D01*
X340241Y222958D01*
X348956Y231673D01*
X349943Y230864D01*
X348809Y229167D01*
X348382Y227022D01*
X348809Y224876D01*
X350025Y223056D01*
X351844Y221841D01*
X353990Y221414D01*
X356136Y221841D01*
X357955Y223056D01*
X369687Y234788D01*
X457739D01*
X459885Y235215D01*
X461705Y236430D01*
X471378Y246103D01*
X472499Y245956D01*
X474879Y246269D01*
X477098Y247188D01*
X479003Y248650D01*
X480465Y250555D01*
X481384Y252774D01*
X481697Y255155D01*
X481384Y257535D01*
X481228Y257912D01*
X494947Y271632D01*
X496163Y273451D01*
X496199Y273635D01*
X497469Y273510D01*
X497479Y4500D01*
Y4106D01*
X497178Y3379D01*
X496621Y2822D01*
X495931Y2537D01*
X495578Y2548D01*
X495539Y2541D01*
X495500Y2549D01*
X4500Y2521D01*
X4106D01*
X3379Y2822D01*
X2822Y3379D01*
X2537Y4069D01*
X2548Y4422D01*
X2541Y4461D01*
X2549Y4500D01*
X2521Y795500D01*
Y795894D01*
X2822Y796621D01*
X3379Y797178D01*
X4069Y797463D01*
X4422Y797452D01*
X4461Y797459D01*
X4500Y797451D01*
X150960D01*
X151621Y797178D01*
X152177Y796621D01*
X152291Y796347D01*
Y730000D01*
X152485Y729025D01*
X153038Y728198D01*
X153865Y727645D01*
X154840Y727451D01*
X160359D01*
X320500Y727423D01*
X320624Y727448D01*
X320750Y727436D01*
X320905Y727451D01*
X324840D01*
X325815Y727645D01*
X326642Y728198D01*
Y728198D01*
X327195Y729025D01*
X327389Y730000D01*
Y733107D01*
X327488Y733525D01*
X327519Y734409D01*
X327512Y734454D01*
X327521Y734500D01*
Y795894D01*
X327822Y796621D01*
X328379Y797178D01*
X329040Y797451D01*
X495500Y797479D01*
X495894D01*
X496621Y797178D01*
D02*
G37*
%LPC*%
G36*
X363000Y786154D02*
Y782000D01*
X367154D01*
X366945Y783048D01*
X365785Y784785D01*
X364048Y785945D01*
X363000Y786154D01*
D02*
G37*
G36*
X361000D02*
X359952Y785945D01*
X358215Y784785D01*
X357055Y783048D01*
X356846Y782000D01*
X361000D01*
Y786154D01*
D02*
G37*
G36*
X114000Y785154D02*
Y781000D01*
X118154D01*
X117945Y782048D01*
X116785Y783785D01*
X115048Y784945D01*
X114000Y785154D01*
D02*
G37*
G36*
X112000D02*
X110952Y784945D01*
X109215Y783785D01*
X108055Y782048D01*
X107846Y781000D01*
X112000D01*
Y785154D01*
D02*
G37*
G36*
X83961Y780843D02*
X82107Y780474D01*
X80536Y779425D01*
X80231Y778967D01*
X78960D01*
X78655Y779425D01*
X77084Y780474D01*
X75230Y780843D01*
X73377Y780474D01*
X71806Y779425D01*
X70756Y777853D01*
X70387Y776000D01*
X70756Y774147D01*
X71806Y772575D01*
X73377Y771526D01*
X75230Y771157D01*
X77084Y771526D01*
X78655Y772575D01*
X78960Y773033D01*
X80231D01*
X80536Y772575D01*
X82107Y771526D01*
X83961Y771157D01*
X85814Y771526D01*
X87385Y772575D01*
X88435Y774147D01*
X88804Y776000D01*
X88435Y777853D01*
X87385Y779425D01*
X85814Y780474D01*
X83961Y780843D01*
D02*
G37*
G36*
X367154Y780000D02*
X356846D01*
X357055Y778952D01*
X357755Y777904D01*
X356484Y777055D01*
X355324Y775318D01*
X355115Y774270D01*
X365423D01*
X365215Y775318D01*
X364515Y776366D01*
X365785Y777215D01*
X366945Y778952D01*
X367154Y780000D01*
D02*
G37*
G36*
X118154Y779000D02*
X107846D01*
X108055Y777952D01*
X108708Y776974D01*
X109123Y776000D01*
X108708Y775026D01*
X108055Y774048D01*
X107846Y773000D01*
X118154D01*
X117945Y774048D01*
X117292Y775026D01*
X116877Y776000D01*
X117292Y776974D01*
X117945Y777952D01*
X118154Y779000D01*
D02*
G37*
G36*
X365423Y772270D02*
X361269D01*
Y768116D01*
X362318Y768325D01*
X364054Y769485D01*
X365215Y771222D01*
X365423Y772270D01*
D02*
G37*
G36*
X359269D02*
X355115D01*
X355324Y771222D01*
X356484Y769485D01*
X358221Y768325D01*
X359269Y768116D01*
Y772270D01*
D02*
G37*
G36*
X118154Y771000D02*
X107846D01*
X108055Y769952D01*
X108708Y768974D01*
X109123Y768000D01*
X108708Y767026D01*
X108055Y766048D01*
X107846Y765000D01*
X118154D01*
X117945Y766048D01*
X117292Y767026D01*
X116877Y768000D01*
X117292Y768974D01*
X117945Y769952D01*
X118154Y771000D01*
D02*
G37*
G36*
Y763000D02*
X114000D01*
Y758846D01*
X115048Y759055D01*
X116785Y760215D01*
X117945Y761952D01*
X118154Y763000D01*
D02*
G37*
G36*
X112000D02*
X107846D01*
X108055Y761952D01*
X109215Y760215D01*
X110952Y759055D01*
X112000Y758846D01*
Y763000D01*
D02*
G37*
G36*
X103108Y733118D02*
Y728964D01*
X107262D01*
X107053Y730012D01*
X105893Y731749D01*
X104156Y732909D01*
X103108Y733118D01*
D02*
G37*
G36*
X101108D02*
X100060Y732909D01*
X98323Y731749D01*
X97163Y730012D01*
X96954Y728964D01*
X101108D01*
Y733118D01*
D02*
G37*
G36*
X107262Y726964D02*
X103108D01*
Y722810D01*
X104156Y723019D01*
X105893Y724179D01*
X107053Y725916D01*
X107262Y726964D01*
D02*
G37*
G36*
X101108D02*
X96954D01*
X97163Y725916D01*
X98323Y724179D01*
X100060Y723019D01*
X101108Y722810D01*
Y726964D01*
D02*
G37*
G36*
X114000Y724154D02*
Y720000D01*
X118154D01*
X117945Y721048D01*
X116785Y722785D01*
X115048Y723945D01*
X114000Y724154D01*
D02*
G37*
G36*
X112000D02*
X110952Y723945D01*
X109215Y722785D01*
X108055Y721048D01*
X107846Y720000D01*
X112000D01*
Y724154D01*
D02*
G37*
G36*
X118154Y718000D02*
X114000D01*
Y713846D01*
X115048Y714055D01*
X116785Y715215D01*
X117945Y716952D01*
X118154Y718000D01*
D02*
G37*
G36*
X112000D02*
X107846D01*
X108055Y716952D01*
X109215Y715215D01*
X110952Y714055D01*
X112000Y713846D01*
Y718000D01*
D02*
G37*
G36*
X92845Y708998D02*
X90991Y708630D01*
X89420Y707580D01*
X88370Y706009D01*
X88002Y704155D01*
X88370Y702302D01*
X89420Y700731D01*
X90991Y699681D01*
X92845Y699312D01*
X94698Y699681D01*
X96269Y700731D01*
X97319Y702302D01*
X97688Y704155D01*
X97319Y706009D01*
X96269Y707580D01*
X94698Y708630D01*
X92845Y708998D01*
D02*
G37*
G36*
X116378Y705417D02*
X114525Y705049D01*
X112953Y703999D01*
X111904Y702427D01*
X111535Y700574D01*
X111904Y698721D01*
X112953Y697150D01*
X114525Y696100D01*
X116378Y695731D01*
X118231Y696100D01*
X119803Y697150D01*
X120852Y698721D01*
X121221Y700574D01*
X120852Y702427D01*
X119803Y703999D01*
X118231Y705049D01*
X116378Y705417D01*
D02*
G37*
G36*
X404000Y716843D02*
X402147Y716474D01*
X400575Y715425D01*
X399526Y713853D01*
X399157Y712000D01*
X399526Y710147D01*
X400575Y708575D01*
X402147Y707526D01*
X404000Y707157D01*
X405853Y707526D01*
X406828Y708177D01*
X437259D01*
X451297Y694139D01*
X451526Y692990D01*
X452575Y691419D01*
X454147Y690369D01*
X456000Y690000D01*
X457853Y690369D01*
X459425Y691419D01*
X460474Y692990D01*
X460843Y694843D01*
X460474Y696696D01*
X459425Y698268D01*
X457853Y699317D01*
X456704Y699546D01*
X441547Y714704D01*
X440306Y715532D01*
X438843Y715823D01*
X406828D01*
X405853Y716474D01*
X404000Y716843D01*
D02*
G37*
G36*
X109000Y692843D02*
X107147Y692474D01*
X105576Y691425D01*
X104526Y689853D01*
X104157Y688000D01*
X104526Y686147D01*
X105576Y684575D01*
X107147Y683526D01*
X109000Y683157D01*
X110853Y683526D01*
X112425Y684575D01*
X113474Y686147D01*
X113843Y688000D01*
X113474Y689853D01*
X112425Y691425D01*
X110853Y692474D01*
X109000Y692843D01*
D02*
G37*
G36*
X404000Y704843D02*
X402147Y704474D01*
X400575Y703425D01*
X399526Y701853D01*
X399157Y700000D01*
X399526Y698147D01*
X400575Y696575D01*
X402147Y695526D01*
X402368Y695482D01*
X402636Y694133D01*
X401575Y693425D01*
X400526Y691853D01*
X400297Y690704D01*
X383122Y673530D01*
X382294Y672289D01*
X382003Y670826D01*
Y598712D01*
X381352Y597737D01*
X380983Y595884D01*
X381352Y594031D01*
X382385Y592484D01*
Y585960D01*
X382427Y585752D01*
Y581834D01*
X373296Y572703D01*
X372147Y572474D01*
X370575Y571425D01*
X369526Y569853D01*
X369157Y568000D01*
X369526Y566147D01*
X370575Y564576D01*
X372147Y563526D01*
X374000Y563157D01*
X375853Y563526D01*
X377425Y564576D01*
X378474Y566147D01*
X378703Y567296D01*
X388954Y577546D01*
X389782Y578787D01*
X390073Y580250D01*
Y585919D01*
X390032Y586127D01*
Y593629D01*
X390300Y594031D01*
X390669Y595884D01*
X390300Y597737D01*
X389649Y598712D01*
Y669242D01*
X405704Y685297D01*
X406853Y685526D01*
X408425Y686575D01*
X409474Y688147D01*
X409843Y690000D01*
X409474Y691853D01*
X408425Y693425D01*
X407370Y694129D01*
X407093Y695517D01*
X407135Y695698D01*
X407568Y696177D01*
X434985D01*
X451375Y679786D01*
X451710Y678105D01*
X452759Y676533D01*
X454331Y675484D01*
X456184Y675115D01*
X458037Y675484D01*
X459609Y676533D01*
X460658Y678105D01*
X461027Y679958D01*
X460658Y681811D01*
X459609Y683383D01*
X458037Y684432D01*
X457421Y684555D01*
X439272Y702704D01*
X438032Y703532D01*
X436569Y703823D01*
X406828D01*
X405853Y704474D01*
X404000Y704843D01*
D02*
G37*
G36*
X21000Y666154D02*
Y662000D01*
X25154D01*
X24945Y663048D01*
X23785Y664785D01*
X22048Y665945D01*
X21000Y666154D01*
D02*
G37*
G36*
X19000D02*
X17952Y665945D01*
X16215Y664785D01*
X15055Y663048D01*
X14846Y662000D01*
X19000D01*
Y666154D01*
D02*
G37*
G36*
X25154Y660000D02*
X21000D01*
Y655846D01*
X22048Y656055D01*
X23785Y657215D01*
X24945Y658952D01*
X25154Y660000D01*
D02*
G37*
G36*
X19000D02*
X14846D01*
X15055Y658952D01*
X16215Y657215D01*
X17952Y656055D01*
X19000Y655846D01*
Y660000D01*
D02*
G37*
G36*
X434566Y654720D02*
Y650566D01*
X438720D01*
X438511Y651614D01*
X437351Y653351D01*
X435614Y654511D01*
X434566Y654720D01*
D02*
G37*
G36*
X432566D02*
X431517Y654511D01*
X429781Y653351D01*
X428620Y651614D01*
X428412Y650566D01*
X432566D01*
Y654720D01*
D02*
G37*
G36*
X87884Y656607D02*
X86031Y656238D01*
X84459Y655189D01*
X83410Y653617D01*
X83041Y651764D01*
X83410Y649911D01*
X84459Y648339D01*
X86031Y647290D01*
X87884Y646921D01*
X89737Y647290D01*
X91309Y648339D01*
X92358Y649911D01*
X92727Y651764D01*
X92358Y653617D01*
X91309Y655189D01*
X89737Y656238D01*
X87884Y656607D01*
D02*
G37*
G36*
X438720Y648566D02*
X434566D01*
Y644412D01*
X435614Y644621D01*
X437351Y645781D01*
X438511Y647517D01*
X438720Y648566D01*
D02*
G37*
G36*
X432566D02*
X428412D01*
X428620Y647517D01*
X429781Y645781D01*
X431517Y644621D01*
X432566Y644412D01*
Y648566D01*
D02*
G37*
G36*
X80487Y631666D02*
Y627512D01*
X84642D01*
X84433Y628561D01*
X83273Y630298D01*
X81536Y631458D01*
X80487Y631666D01*
D02*
G37*
G36*
X78488D02*
X77439Y631458D01*
X75703Y630298D01*
X74542Y628561D01*
X74334Y627512D01*
X78488D01*
Y631666D01*
D02*
G37*
G36*
X84642Y625512D02*
X80487D01*
Y621358D01*
X81536Y621567D01*
X83273Y622727D01*
X84433Y624464D01*
X84642Y625512D01*
D02*
G37*
G36*
X78488D02*
X74334D01*
X74542Y624464D01*
X75703Y622727D01*
X77439Y621567D01*
X78488Y621358D01*
Y625512D01*
D02*
G37*
G36*
X21000Y618154D02*
Y614000D01*
X25154D01*
X24945Y615048D01*
X23785Y616785D01*
X22048Y617945D01*
X21000Y618154D01*
D02*
G37*
G36*
X19000D02*
X17952Y617945D01*
X16215Y616785D01*
X15055Y615048D01*
X14846Y614000D01*
X19000D01*
Y618154D01*
D02*
G37*
G36*
X25154Y612000D02*
X21000D01*
Y607846D01*
X22048Y608055D01*
X23785Y609215D01*
X24945Y610952D01*
X25154Y612000D01*
D02*
G37*
G36*
X19000D02*
X14846D01*
X15055Y610952D01*
X16215Y609215D01*
X17952Y608055D01*
X19000Y607846D01*
Y612000D01*
D02*
G37*
G36*
X29874Y569022D02*
X21254D01*
Y560402D01*
X29874D01*
Y569022D01*
D02*
G37*
G36*
X19254D02*
X10634D01*
Y560402D01*
X19254D01*
Y569022D01*
D02*
G37*
G36*
X110409Y559679D02*
Y555525D01*
X114563D01*
X114355Y556573D01*
X113195Y558310D01*
X111458Y559470D01*
X110409Y559679D01*
D02*
G37*
G36*
X108409D02*
X107361Y559470D01*
X105624Y558310D01*
X104464Y556573D01*
X104256Y555525D01*
X108409D01*
Y559679D01*
D02*
G37*
G36*
X29874Y558402D02*
X21254D01*
Y549782D01*
X29874D01*
Y558402D01*
D02*
G37*
G36*
X19254D02*
X10634D01*
Y549782D01*
X19254D01*
Y558402D01*
D02*
G37*
G36*
X366000Y546843D02*
X364147Y546474D01*
X362575Y545425D01*
X361526Y543853D01*
X361157Y542000D01*
X361526Y540147D01*
X362575Y538576D01*
X363877Y537706D01*
X363979Y537239D01*
Y536761D01*
X363877Y536294D01*
X362575Y535425D01*
X361526Y533853D01*
X361157Y532000D01*
X361526Y530147D01*
X362575Y528575D01*
X364147Y527526D01*
X366000Y527157D01*
X367853Y527526D01*
X369425Y528575D01*
X370474Y530147D01*
X370843Y532000D01*
X370474Y533853D01*
X369425Y535425D01*
X368123Y536294D01*
X368021Y536761D01*
Y537239D01*
X368123Y537706D01*
X369425Y538576D01*
X370474Y540147D01*
X370843Y542000D01*
X370474Y543853D01*
X369425Y545425D01*
X367853Y546474D01*
X366000Y546843D01*
D02*
G37*
G36*
X20254Y543201D02*
X17873Y542887D01*
X15655Y541968D01*
X13750Y540507D01*
X12288Y538601D01*
X11369Y536383D01*
X11055Y534002D01*
X11369Y531621D01*
X12288Y529403D01*
X13750Y527497D01*
X15655Y526036D01*
X17873Y525117D01*
X20254Y524803D01*
X22635Y525117D01*
X24853Y526036D01*
X26758Y527497D01*
X28220Y529403D01*
X29139Y531621D01*
X29453Y534002D01*
X29139Y536383D01*
X28220Y538601D01*
X26758Y540507D01*
X24853Y541968D01*
X22635Y542887D01*
X20254Y543201D01*
D02*
G37*
G36*
X78500Y525850D02*
Y521696D01*
X82654D01*
X82445Y522745D01*
X81285Y524481D01*
X79548Y525642D01*
X78500Y525850D01*
D02*
G37*
G36*
X76500D02*
X75452Y525642D01*
X73715Y524481D01*
X72555Y522745D01*
X72346Y521696D01*
X76500D01*
Y525850D01*
D02*
G37*
G36*
X82654Y519696D02*
X78500D01*
Y515542D01*
X79548Y515751D01*
X81285Y516911D01*
X82445Y518648D01*
X82654Y519696D01*
D02*
G37*
G36*
X76500D02*
X72346D01*
X72555Y518648D01*
X73715Y516911D01*
X75452Y515751D01*
X76500Y515542D01*
Y519696D01*
D02*
G37*
G36*
X429500Y517850D02*
Y513696D01*
X433654D01*
X433445Y514745D01*
X432285Y516481D01*
X430548Y517642D01*
X429500Y517850D01*
D02*
G37*
G36*
X433654Y511696D02*
X429500D01*
Y507542D01*
X430548Y507751D01*
X432285Y508911D01*
X433445Y510648D01*
X433654Y511696D01*
D02*
G37*
G36*
X114563Y553525D02*
X104256D01*
X104464Y552477D01*
X105624Y550740D01*
X105664Y550713D01*
X105342Y549402D01*
X103879Y548425D01*
X102830Y546853D01*
X102461Y545000D01*
X102830Y543147D01*
X103879Y541575D01*
X105451Y540526D01*
X106600Y540297D01*
X107177Y539720D01*
Y503196D01*
X106003Y502710D01*
X103266Y505447D01*
Y509776D01*
X103821Y510607D01*
X104190Y512460D01*
X103821Y514313D01*
X102772Y515885D01*
X101200Y516934D01*
X99347Y517303D01*
X97494Y516934D01*
X95922Y515885D01*
X94873Y514313D01*
X94504Y512460D01*
X94873Y510607D01*
X95619Y509489D01*
Y503863D01*
X95910Y502400D01*
X96739Y501160D01*
X100927Y496972D01*
Y494371D01*
X99753Y493885D01*
X95261Y498377D01*
X94898Y500201D01*
X93849Y501773D01*
X92277Y502822D01*
X90424Y503191D01*
X88571Y502822D01*
X86999Y501773D01*
X85950Y500201D01*
X85581Y498348D01*
X85950Y496495D01*
X86999Y494923D01*
X88571Y493874D01*
X89044Y493779D01*
X92109Y490715D01*
X91479Y489549D01*
X90000Y489843D01*
X88147Y489474D01*
X86575Y488425D01*
X85526Y486853D01*
X85157Y485000D01*
X85526Y483147D01*
X86575Y481575D01*
X88147Y480526D01*
X90000Y480157D01*
X91853Y480526D01*
X93425Y481575D01*
X93459Y481626D01*
X94729Y481241D01*
Y475759D01*
X93459Y475374D01*
X93425Y475425D01*
X91853Y476474D01*
X90000Y476843D01*
X88147Y476474D01*
X86575Y475425D01*
X86154Y474795D01*
X84958Y475290D01*
X85223Y476620D01*
X84854Y478474D01*
X83804Y480045D01*
X82233Y481095D01*
X80380Y481463D01*
X78526Y481095D01*
X76955Y480045D01*
X76921Y479993D01*
X75573Y480262D01*
X75532Y480463D01*
X74704Y481704D01*
X72497Y483910D01*
X72915Y485288D01*
X73722Y485449D01*
X75459Y486609D01*
X76619Y488346D01*
X76828Y489394D01*
X71674D01*
Y490394D01*
X70674D01*
Y495548D01*
X69625Y495340D01*
X67889Y494179D01*
X66728Y492443D01*
X66568Y491636D01*
X65190Y491217D01*
X45704Y510704D01*
X44463Y511532D01*
X43000Y511823D01*
X28791D01*
X28220Y513201D01*
X26758Y515107D01*
X24853Y516568D01*
X22635Y517487D01*
X20254Y517801D01*
X17873Y517487D01*
X15655Y516568D01*
X13750Y515107D01*
X12288Y513201D01*
X11369Y510983D01*
X11055Y508602D01*
X11369Y506221D01*
X12288Y504003D01*
X13750Y502098D01*
X15655Y500636D01*
X17873Y499717D01*
X20254Y499403D01*
X22635Y499717D01*
X24853Y500636D01*
X26758Y502098D01*
X28220Y504003D01*
X28292Y504177D01*
X41416D01*
X68177Y477416D01*
Y464228D01*
X67526Y463253D01*
X67157Y461400D01*
X67526Y459547D01*
X68576Y457975D01*
X70147Y456926D01*
X72000Y456557D01*
X73853Y456926D01*
X75157Y457796D01*
X76427Y457363D01*
Y212578D01*
X75776Y211603D01*
X75407Y209750D01*
X75776Y207897D01*
X76825Y206325D01*
X78397Y205276D01*
X80250Y204907D01*
X82103Y205276D01*
X83675Y206325D01*
X84724Y207897D01*
X85093Y209750D01*
X84724Y211603D01*
X84073Y212578D01*
Y230968D01*
X85343Y231647D01*
X85886Y231284D01*
X87739Y230916D01*
X89593Y231284D01*
X91164Y232334D01*
X92213Y233906D01*
X92582Y235759D01*
X92213Y237612D01*
X91164Y239183D01*
X89593Y240233D01*
X87739Y240602D01*
X85886Y240233D01*
X85343Y239871D01*
X84073Y240550D01*
Y327134D01*
X85343Y327519D01*
X86215Y326215D01*
X87952Y325055D01*
X89000Y324846D01*
Y330000D01*
Y335154D01*
X87952Y334945D01*
X86215Y333785D01*
X85343Y332481D01*
X84073Y332866D01*
Y470937D01*
X85343Y471062D01*
X85526Y470147D01*
X86575Y468575D01*
X88147Y467526D01*
X90000Y467157D01*
X91853Y467526D01*
X93425Y468575D01*
X93459Y468626D01*
X94729Y468241D01*
Y334485D01*
X93459Y334003D01*
X92048Y334945D01*
X91000Y335154D01*
Y330000D01*
Y324846D01*
X92048Y325055D01*
X93459Y325997D01*
X94729Y325515D01*
Y193677D01*
X93620Y192569D01*
X93147Y192474D01*
X91575Y191425D01*
X90526Y189853D01*
X90157Y188000D01*
X90526Y186147D01*
X91575Y184575D01*
X93147Y183526D01*
X95000Y183157D01*
X96853Y183526D01*
X98425Y184575D01*
X99474Y186147D01*
X99837Y187971D01*
X101256Y189390D01*
X102084Y190630D01*
X102375Y192093D01*
Y213937D01*
X103549Y214423D01*
X108110Y209862D01*
X108338Y208713D01*
X109388Y207142D01*
X110959Y206092D01*
X112813Y205723D01*
X114666Y206092D01*
X116237Y207142D01*
X117287Y208713D01*
X117656Y210566D01*
X117287Y212420D01*
X116237Y213991D01*
X114666Y215041D01*
X113517Y215269D01*
X108573Y220213D01*
Y230813D01*
X109693Y231411D01*
X109897Y231276D01*
X111750Y230907D01*
X113603Y231276D01*
X115175Y232325D01*
X116224Y233897D01*
X116593Y235750D01*
X116224Y237603D01*
X115175Y239175D01*
X113603Y240224D01*
X111750Y240593D01*
X109897Y240224D01*
X109693Y240089D01*
X108573Y240687D01*
Y250360D01*
X109747Y250846D01*
X134099Y226494D01*
Y225162D01*
X134077Y225140D01*
X133248Y223900D01*
X132957Y222437D01*
Y217268D01*
X131924Y215721D01*
X131555Y213868D01*
X131924Y212015D01*
X132575Y211040D01*
Y91602D01*
X132866Y90139D01*
X133694Y88898D01*
X141296Y81296D01*
X142537Y80468D01*
X144000Y80177D01*
X319172D01*
X320147Y79526D01*
X322000Y79157D01*
X323853Y79526D01*
X325424Y80576D01*
X326474Y82147D01*
X326843Y84000D01*
X326474Y85853D01*
X325424Y87425D01*
X323853Y88474D01*
X322000Y88843D01*
X320147Y88474D01*
X319172Y87823D01*
X145584D01*
X140221Y93186D01*
Y211040D01*
X140872Y212015D01*
X141241Y213868D01*
X140872Y215721D01*
X140604Y216123D01*
Y220853D01*
X140626Y220874D01*
X141454Y222115D01*
X141745Y223578D01*
Y228078D01*
X141454Y229541D01*
X140626Y230782D01*
X114823Y256584D01*
Y262288D01*
X116093Y262814D01*
X186120Y192787D01*
X186349Y191638D01*
X187399Y190067D01*
X188970Y189017D01*
X190823Y188648D01*
X192677Y189017D01*
X194248Y190067D01*
X195298Y191638D01*
X195666Y193491D01*
X195298Y195345D01*
X194248Y196916D01*
X192677Y197966D01*
X191527Y198195D01*
X121823Y267898D01*
Y541172D01*
X122474Y542147D01*
X122843Y544000D01*
X122474Y545853D01*
X121425Y547425D01*
X119853Y548474D01*
X118000Y548843D01*
X116147Y548474D01*
X114575Y547425D01*
X113577Y545930D01*
X113364Y545739D01*
X113200Y545689D01*
X111838Y546556D01*
X111778Y546853D01*
X110897Y548173D01*
X111191Y549527D01*
X111458Y549580D01*
X113195Y550740D01*
X114355Y552477D01*
X114563Y553525D01*
D02*
G37*
G36*
X72674Y495548D02*
Y491394D01*
X76828D01*
X76619Y492443D01*
X75459Y494179D01*
X73722Y495340D01*
X72674Y495548D01*
D02*
G37*
G36*
X355838Y478610D02*
Y474456D01*
X359992D01*
X359783Y475504D01*
X358623Y477241D01*
X356886Y478401D01*
X355838Y478610D01*
D02*
G37*
G36*
X353838D02*
X352790Y478401D01*
X351053Y477241D01*
X349893Y475504D01*
X349684Y474456D01*
X353838D01*
Y478610D01*
D02*
G37*
G36*
X370000Y476154D02*
Y472000D01*
X374154D01*
X373945Y473048D01*
X372785Y474785D01*
X371048Y475945D01*
X370000Y476154D01*
D02*
G37*
G36*
X368000D02*
X366952Y475945D01*
X365215Y474785D01*
X364055Y473048D01*
X363846Y472000D01*
X368000D01*
Y476154D01*
D02*
G37*
G36*
X29874Y479112D02*
X21254D01*
Y470492D01*
X29874D01*
Y479112D01*
D02*
G37*
G36*
X19254D02*
X10634D01*
Y470492D01*
X19254D01*
Y479112D01*
D02*
G37*
G36*
X353838Y472456D02*
X349684D01*
X349893Y471408D01*
X350883Y469926D01*
X349987Y469113D01*
X348250Y470273D01*
X347202Y470482D01*
Y466328D01*
X351356D01*
X351147Y467376D01*
X350157Y468858D01*
X351053Y469671D01*
X352790Y468511D01*
X353838Y468302D01*
Y472456D01*
D02*
G37*
G36*
X359992D02*
X355838D01*
Y468302D01*
X356886Y468511D01*
X358623Y469671D01*
X359783Y471408D01*
X359992Y472456D01*
D02*
G37*
G36*
X345202Y470482D02*
X344154Y470273D01*
X342417Y469113D01*
X341257Y467376D01*
X341048Y466328D01*
X345202D01*
Y470482D01*
D02*
G37*
G36*
X374154Y470000D02*
X370000D01*
Y465846D01*
X371048Y466055D01*
X372785Y467215D01*
X373945Y468952D01*
X374154Y470000D01*
D02*
G37*
G36*
X368000D02*
X363846D01*
X364055Y468952D01*
X365215Y467215D01*
X366952Y466055D01*
X368000Y465846D01*
Y470000D01*
D02*
G37*
G36*
X351356Y464328D02*
X347202D01*
Y460174D01*
X348250Y460383D01*
X349987Y461543D01*
X351147Y463280D01*
X351356Y464328D01*
D02*
G37*
G36*
X345202D02*
X341048D01*
X341257Y463280D01*
X342417Y461543D01*
X344154Y460383D01*
X345202Y460174D01*
Y464328D01*
D02*
G37*
G36*
X29874Y468492D02*
X21254D01*
Y459872D01*
X29874D01*
Y468492D01*
D02*
G37*
G36*
X19254D02*
X10634D01*
Y459872D01*
X19254D01*
Y468492D01*
D02*
G37*
G36*
X20254Y453291D02*
X17873Y452977D01*
X15655Y452058D01*
X13750Y450597D01*
X12288Y448691D01*
X11369Y446473D01*
X11055Y444092D01*
X11369Y441711D01*
X12288Y439493D01*
X13750Y437588D01*
X15655Y436126D01*
X17873Y435207D01*
X20254Y434893D01*
X22635Y435207D01*
X24853Y436126D01*
X26758Y437588D01*
X28220Y439493D01*
X29139Y441711D01*
X29453Y444092D01*
X29139Y446473D01*
X28220Y448691D01*
X26758Y450597D01*
X24853Y452058D01*
X22635Y452977D01*
X20254Y453291D01*
D02*
G37*
G36*
X306120Y432120D02*
X287880D01*
Y413880D01*
X306120D01*
Y432120D01*
D02*
G37*
G36*
X322400Y432199D02*
X320019Y431885D01*
X317801Y430966D01*
X315896Y429504D01*
X314434Y427599D01*
X313515Y425381D01*
X313201Y423000D01*
X313515Y420619D01*
X314434Y418401D01*
X315896Y416496D01*
X317801Y415034D01*
X320019Y414115D01*
X322400Y413801D01*
X324781Y414115D01*
X326999Y415034D01*
X328904Y416496D01*
X330366Y418401D01*
X331285Y420619D01*
X331599Y423000D01*
X331285Y425381D01*
X330366Y427599D01*
X328904Y429504D01*
X326999Y430966D01*
X324781Y431885D01*
X322400Y432199D01*
D02*
G37*
G36*
X24855Y414566D02*
X15715D01*
X13196Y414066D01*
X11061Y412639D01*
X9635Y410504D01*
X9133Y407985D01*
X9635Y405466D01*
X11061Y403331D01*
X13196Y401905D01*
X15715Y401404D01*
X24855D01*
X27374Y401905D01*
X29509Y403331D01*
X30935Y405466D01*
X31436Y407985D01*
X30935Y410504D01*
X29509Y412639D01*
X27374Y414066D01*
X24855Y414566D01*
D02*
G37*
G36*
X378000Y419599D02*
X375619Y419285D01*
X373401Y418366D01*
X371496Y416904D01*
X370034Y414999D01*
X369115Y412781D01*
X368801Y410400D01*
X369115Y408019D01*
X370034Y405801D01*
X371496Y403895D01*
X373401Y402434D01*
X375619Y401515D01*
X378000Y401201D01*
X380381Y401515D01*
X382599Y402434D01*
X384505Y403895D01*
X385966Y405801D01*
X386885Y408019D01*
X387199Y410400D01*
X386885Y412781D01*
X385966Y414999D01*
X384505Y416904D01*
X382599Y418366D01*
X380381Y419285D01*
X378000Y419599D01*
D02*
G37*
G36*
Y394199D02*
X375619Y393885D01*
X373401Y392966D01*
X371496Y391504D01*
X371015Y390878D01*
X370974D01*
X369994Y391073D01*
X331250D01*
X329787Y390782D01*
X328546Y389954D01*
X308594Y370001D01*
X246054D01*
X245080Y370652D01*
X243226Y371021D01*
X241373Y370652D01*
X239802Y369603D01*
X238752Y368031D01*
X238383Y366178D01*
X238752Y364325D01*
X239802Y362753D01*
X241373Y361704D01*
X243226Y361335D01*
X245080Y361704D01*
X246054Y362355D01*
X310178D01*
X311641Y362646D01*
X312882Y363474D01*
X332834Y383427D01*
X350963D01*
X351396Y382157D01*
X350526Y380853D01*
X350157Y379000D01*
X350526Y377147D01*
X350922Y376554D01*
Y308689D01*
X341900Y299668D01*
X340000Y299918D01*
X337951Y299648D01*
X336041Y298857D01*
X334401Y297599D01*
X333143Y295959D01*
X332352Y294049D01*
X332082Y292000D01*
X332352Y289951D01*
X333143Y288041D01*
X334401Y286401D01*
X336041Y285143D01*
X337951Y284352D01*
X340000Y284082D01*
X342049Y284352D01*
X343959Y285143D01*
X345599Y286401D01*
X346857Y288041D01*
X347648Y289951D01*
X347918Y292000D01*
X347668Y293900D01*
X357884Y304116D01*
X357884Y304116D01*
X358768Y305439D01*
X359078Y307000D01*
Y376554D01*
X359474Y377147D01*
X359843Y379000D01*
X359474Y380853D01*
X358604Y382157D01*
X359037Y383427D01*
X369008D01*
X369115Y382619D01*
X370034Y380401D01*
X371496Y378495D01*
X373401Y377034D01*
X375619Y376115D01*
X378000Y375801D01*
X380381Y376115D01*
X382599Y377034D01*
X384505Y378495D01*
X385966Y380401D01*
X386885Y382619D01*
X387199Y385000D01*
X386885Y387381D01*
X385966Y389599D01*
X384505Y391504D01*
X382599Y392966D01*
X380381Y393885D01*
X378000Y394199D01*
D02*
G37*
G36*
X47285Y406810D02*
X45001Y406510D01*
X42872Y405628D01*
X41044Y404226D01*
X39642Y402398D01*
X38760Y400269D01*
X38459Y397985D01*
X38760Y395701D01*
X39642Y393572D01*
X41044Y391744D01*
X42872Y390342D01*
X45001Y389460D01*
X47285Y389160D01*
X49569Y389460D01*
X51698Y390342D01*
X53526Y391744D01*
X54928Y393572D01*
X55810Y395701D01*
X56111Y397985D01*
X55810Y400269D01*
X54928Y402398D01*
X53526Y404226D01*
X51698Y405628D01*
X49569Y406510D01*
X47285Y406810D01*
D02*
G37*
G36*
X62976Y382090D02*
Y377936D01*
X67130D01*
X66921Y378984D01*
X65761Y380721D01*
X64024Y381881D01*
X62976Y382090D01*
D02*
G37*
G36*
X60976D02*
X59928Y381881D01*
X58191Y380721D01*
X57031Y378984D01*
X56822Y377936D01*
X60976D01*
Y382090D01*
D02*
G37*
G36*
X67130Y375936D02*
X62976D01*
Y371782D01*
X64024Y371991D01*
X65761Y373151D01*
X66921Y374888D01*
X67130Y375936D01*
D02*
G37*
G36*
X60976D02*
X56822D01*
X57031Y374888D01*
X58191Y373151D01*
X59928Y371991D01*
X60976Y371782D01*
Y375936D01*
D02*
G37*
G36*
X62000Y365154D02*
Y361000D01*
X66154D01*
X65945Y362048D01*
X64785Y363785D01*
X63048Y364945D01*
X62000Y365154D01*
D02*
G37*
G36*
X60000D02*
X58952Y364945D01*
X57215Y363785D01*
X56055Y362048D01*
X55846Y361000D01*
X60000D01*
Y365154D01*
D02*
G37*
G36*
X66154Y359000D02*
X62000D01*
Y354846D01*
X63048Y355055D01*
X64785Y356215D01*
X65945Y357952D01*
X66154Y359000D01*
D02*
G37*
G36*
X60000D02*
X55846D01*
X56055Y357952D01*
X57215Y356215D01*
X58952Y355055D01*
X60000Y354846D01*
Y359000D01*
D02*
G37*
G36*
X387120Y368720D02*
X368880D01*
Y350480D01*
X387120D01*
Y368720D01*
D02*
G37*
G36*
X313000Y352154D02*
Y348000D01*
X317154D01*
X316945Y349048D01*
X315785Y350785D01*
X314048Y351945D01*
X313000Y352154D01*
D02*
G37*
G36*
X311000D02*
X309952Y351945D01*
X308215Y350785D01*
X307055Y349048D01*
X306846Y348000D01*
X311000D01*
Y352154D01*
D02*
G37*
G36*
X317154Y346000D02*
X313000D01*
Y341846D01*
X314048Y342055D01*
X315785Y343215D01*
X316945Y344952D01*
X317154Y346000D01*
D02*
G37*
G36*
X311000D02*
X306846D01*
X307055Y344952D01*
X308215Y343215D01*
X309952Y342055D01*
X311000Y341846D01*
Y346000D01*
D02*
G37*
G36*
X47285Y356810D02*
X45001Y356510D01*
X42872Y355628D01*
X41044Y354226D01*
X39642Y352398D01*
X38760Y350269D01*
X38459Y347985D01*
X38760Y345701D01*
X39642Y343572D01*
X41044Y341744D01*
X42872Y340342D01*
X45001Y339460D01*
X47285Y339160D01*
X49569Y339460D01*
X51698Y340342D01*
X53526Y341744D01*
X54928Y343572D01*
X55810Y345701D01*
X56111Y347985D01*
X55810Y350269D01*
X54928Y352398D01*
X53526Y354226D01*
X51698Y355628D01*
X49569Y356510D01*
X47285Y356810D01*
D02*
G37*
G36*
X24855Y344566D02*
X15715D01*
X13196Y344066D01*
X11061Y342639D01*
X9635Y340504D01*
X9133Y337985D01*
X9635Y335466D01*
X11061Y333331D01*
X13196Y331904D01*
X15715Y331404D01*
X24855D01*
X27374Y331904D01*
X29509Y333331D01*
X30935Y335466D01*
X31436Y337985D01*
X30935Y340504D01*
X29509Y342639D01*
X27374Y344066D01*
X24855Y344566D01*
D02*
G37*
G36*
X297000Y329154D02*
Y325000D01*
X301154D01*
X300945Y326048D01*
X299785Y327785D01*
X298048Y328945D01*
X297000Y329154D01*
D02*
G37*
G36*
X295000D02*
X293952Y328945D01*
X292215Y327785D01*
X291055Y326048D01*
X290846Y325000D01*
X295000D01*
Y329154D01*
D02*
G37*
G36*
X420925Y340748D02*
X418875Y340479D01*
X416966Y339688D01*
X415326Y338429D01*
X414068Y336790D01*
X413277Y334880D01*
X413007Y332831D01*
X413277Y330781D01*
X414068Y328872D01*
X415326Y327232D01*
X416966Y325974D01*
X418875Y325183D01*
X420925Y324913D01*
X422974Y325183D01*
X424883Y325974D01*
X426523Y327232D01*
X427782Y328872D01*
X428573Y330781D01*
X428842Y332831D01*
X428573Y334880D01*
X427782Y336790D01*
X426523Y338429D01*
X424883Y339688D01*
X422974Y340479D01*
X420925Y340748D01*
D02*
G37*
G36*
X178800Y328750D02*
Y324596D01*
X182954D01*
X182745Y325644D01*
X181585Y327381D01*
X179848Y328541D01*
X178800Y328750D01*
D02*
G37*
G36*
X22000Y328154D02*
Y324000D01*
X26154D01*
X25945Y325048D01*
X24785Y326785D01*
X23048Y327945D01*
X22000Y328154D01*
D02*
G37*
G36*
X20000D02*
X18952Y327945D01*
X17215Y326785D01*
X16055Y325048D01*
X15846Y324000D01*
X20000D01*
Y328154D01*
D02*
G37*
G36*
X301154Y323000D02*
X297000D01*
Y318846D01*
X298048Y319055D01*
X299785Y320215D01*
X300945Y321952D01*
X301154Y323000D01*
D02*
G37*
G36*
X295000D02*
X290846D01*
X291055Y321952D01*
X292215Y320215D01*
X293952Y319055D01*
X295000Y318846D01*
Y323000D01*
D02*
G37*
G36*
X182954Y322596D02*
X178800D01*
Y318442D01*
X179848Y318651D01*
X181585Y319811D01*
X182745Y321548D01*
X182954Y322596D01*
D02*
G37*
G36*
X168910Y336567D02*
X167057Y336198D01*
X165485Y335149D01*
X164436Y333577D01*
X164067Y331724D01*
X164436Y329871D01*
X165470Y328322D01*
Y311010D01*
X164723Y310511D01*
X163674Y308939D01*
X163305Y307086D01*
X163674Y305233D01*
X164467Y304045D01*
X164337Y302723D01*
X164230Y302463D01*
X163215Y301785D01*
X162055Y300048D01*
X161846Y299000D01*
X172154D01*
X171945Y300048D01*
X170785Y301785D01*
X170918Y303224D01*
X171573Y303661D01*
X172622Y305233D01*
X172991Y307086D01*
X172622Y308939D01*
X171588Y310488D01*
Y321407D01*
X172855Y321548D01*
X174015Y319811D01*
X175752Y318651D01*
X176800Y318442D01*
Y323596D01*
Y328750D01*
X175752Y328541D01*
X174015Y327381D01*
X172855Y325644D01*
X171588Y325785D01*
Y327800D01*
X172335Y328299D01*
X173384Y329871D01*
X173753Y331724D01*
X173384Y333577D01*
X172335Y335149D01*
X170763Y336198D01*
X168910Y336567D01*
D02*
G37*
G36*
X26154Y322000D02*
X22000D01*
Y317846D01*
X23048Y318055D01*
X24785Y319215D01*
X25945Y320952D01*
X26154Y322000D01*
D02*
G37*
G36*
X20000D02*
X15846D01*
X16055Y320952D01*
X17215Y319215D01*
X18952Y318055D01*
X20000Y317846D01*
Y322000D01*
D02*
G37*
G36*
X180000Y303154D02*
Y299000D01*
X184154D01*
X183945Y300048D01*
X182785Y301785D01*
X181048Y302945D01*
X180000Y303154D01*
D02*
G37*
G36*
X178000D02*
X176952Y302945D01*
X175215Y301785D01*
X174055Y300048D01*
X173846Y299000D01*
X178000D01*
Y303154D01*
D02*
G37*
G36*
X143670Y345673D02*
X141817Y345304D01*
X140246Y344255D01*
X139196Y342683D01*
X138967Y341534D01*
X136736Y339304D01*
X135908Y338063D01*
X135617Y336600D01*
Y303746D01*
X134966Y302771D01*
X134597Y300918D01*
X134966Y299065D01*
X136016Y297493D01*
X137587Y296444D01*
X139440Y296075D01*
X141293Y296444D01*
X142865Y297493D01*
X143914Y299065D01*
X144283Y300918D01*
X143914Y302771D01*
X143264Y303746D01*
Y335016D01*
X144374Y336127D01*
X145523Y336356D01*
X147095Y337405D01*
X148144Y338977D01*
X148513Y340830D01*
X148144Y342683D01*
X147095Y344255D01*
X145523Y345304D01*
X143670Y345673D01*
D02*
G37*
G36*
X184154Y297000D02*
X180000D01*
Y292846D01*
X181048Y293055D01*
X182785Y294215D01*
X183945Y295952D01*
X184154Y297000D01*
D02*
G37*
G36*
X178000D02*
X173846D01*
X174055Y295952D01*
X175215Y294215D01*
X176952Y293055D01*
X178000Y292846D01*
Y297000D01*
D02*
G37*
G36*
X172154D02*
X168000D01*
Y292846D01*
X169048Y293055D01*
X170785Y294215D01*
X171945Y295952D01*
X172154Y297000D01*
D02*
G37*
G36*
X166000D02*
X161846D01*
X162055Y295952D01*
X163215Y294215D01*
X164952Y293055D01*
X166000Y292846D01*
Y297000D01*
D02*
G37*
G36*
X33000Y295154D02*
Y291000D01*
X37154D01*
X36945Y292048D01*
X35785Y293785D01*
X34048Y294945D01*
X33000Y295154D01*
D02*
G37*
G36*
X31000D02*
X29952Y294945D01*
X28215Y293785D01*
X27055Y292048D01*
X26846Y291000D01*
X31000D01*
Y295154D01*
D02*
G37*
G36*
X481619Y304915D02*
X463379D01*
Y286675D01*
X481619D01*
Y304915D01*
D02*
G37*
G36*
X447099Y304993D02*
X444718Y304680D01*
X442499Y303761D01*
X440594Y302299D01*
X439132Y300394D01*
X438214Y298176D01*
X437900Y295795D01*
X438214Y293414D01*
X439132Y291195D01*
X440594Y289290D01*
X442499Y287828D01*
X444718Y286910D01*
X447099Y286596D01*
X449479Y286910D01*
X451698Y287828D01*
X453603Y289290D01*
X455065Y291195D01*
X455984Y293414D01*
X456297Y295795D01*
X455984Y298176D01*
X455065Y300394D01*
X453603Y302299D01*
X451698Y303761D01*
X449479Y304680D01*
X447099Y304993D01*
D02*
G37*
G36*
X421699D02*
X419318Y304680D01*
X417099Y303761D01*
X415194Y302299D01*
X413732Y300394D01*
X412813Y298176D01*
X412500Y295795D01*
X412813Y293414D01*
X413732Y291195D01*
X415194Y289290D01*
X417099Y287828D01*
X419318Y286910D01*
X421699Y286596D01*
X424080Y286910D01*
X426298Y287828D01*
X428203Y289290D01*
X429665Y291195D01*
X430584Y293414D01*
X430897Y295795D01*
X430584Y298176D01*
X429665Y300394D01*
X428203Y302299D01*
X426298Y303761D01*
X424080Y304680D01*
X421699Y304993D01*
D02*
G37*
G36*
X317000Y300918D02*
X314951Y300648D01*
X313041Y299857D01*
X311401Y298599D01*
X310143Y296959D01*
X309352Y295049D01*
X309082Y293000D01*
X309352Y290951D01*
X310143Y289041D01*
X311401Y287401D01*
X313041Y286143D01*
X314951Y285352D01*
X317000Y285082D01*
X319049Y285352D01*
X320959Y286143D01*
X322599Y287401D01*
X323857Y289041D01*
X324648Y290951D01*
X324918Y293000D01*
X324648Y295049D01*
X323857Y296959D01*
X322599Y298599D01*
X320959Y299857D01*
X319049Y300648D01*
X317000Y300918D01*
D02*
G37*
G36*
X37154Y289000D02*
X33000D01*
Y284846D01*
X34048Y285055D01*
X35785Y286215D01*
X36945Y287952D01*
X37154Y289000D01*
D02*
G37*
G36*
X31000D02*
X26846D01*
X27055Y287952D01*
X28215Y286215D01*
X29952Y285055D01*
X31000Y284846D01*
Y289000D01*
D02*
G37*
G36*
X360000Y277843D02*
X358147Y277474D01*
X356575Y276425D01*
X355526Y274853D01*
X355157Y273000D01*
X355526Y271147D01*
X356575Y269575D01*
X358147Y268526D01*
X360000Y268157D01*
X361853Y268526D01*
X363424Y269575D01*
X364474Y271147D01*
X364843Y273000D01*
X364474Y274853D01*
X363424Y276425D01*
X361853Y277474D01*
X360000Y277843D01*
D02*
G37*
G36*
X342246Y277688D02*
X340393Y277319D01*
X338822Y276269D01*
X337772Y274698D01*
X337403Y272845D01*
X337772Y270991D01*
X338822Y269420D01*
X340393Y268370D01*
X342246Y268001D01*
X344100Y268370D01*
X345671Y269420D01*
X346721Y270991D01*
X347089Y272845D01*
X346721Y274698D01*
X345671Y276269D01*
X344100Y277319D01*
X342246Y277688D01*
D02*
G37*
G36*
X158000Y270154D02*
Y266000D01*
X162154D01*
X161945Y267048D01*
X160785Y268785D01*
X159048Y269945D01*
X158000Y270154D01*
D02*
G37*
G36*
X156000D02*
X154952Y269945D01*
X153215Y268785D01*
X152055Y267048D01*
X151846Y266000D01*
X156000D01*
Y270154D01*
D02*
G37*
G36*
X145000D02*
Y266000D01*
X149154D01*
X148945Y267048D01*
X147785Y268785D01*
X146048Y269945D01*
X145000Y270154D01*
D02*
G37*
G36*
X143000D02*
X141952Y269945D01*
X140215Y268785D01*
X139055Y267048D01*
X138846Y266000D01*
X143000D01*
Y270154D01*
D02*
G37*
G36*
X315000Y266154D02*
Y262000D01*
X319154D01*
X318945Y263048D01*
X317785Y264785D01*
X316048Y265945D01*
X315000Y266154D01*
D02*
G37*
G36*
X313000D02*
X311952Y265945D01*
X310215Y264785D01*
X309055Y263048D01*
X308846Y262000D01*
X313000D01*
Y266154D01*
D02*
G37*
G36*
X67000Y264154D02*
Y260000D01*
X71154D01*
X70945Y261048D01*
X69785Y262785D01*
X68048Y263945D01*
X67000Y264154D01*
D02*
G37*
G36*
X65000D02*
X63952Y263945D01*
X62215Y262785D01*
X61055Y261048D01*
X60846Y260000D01*
X65000D01*
Y264154D01*
D02*
G37*
G36*
X162154Y264000D02*
X158000D01*
Y259846D01*
X159048Y260055D01*
X160785Y261215D01*
X161945Y262952D01*
X162154Y264000D01*
D02*
G37*
G36*
X156000D02*
X151846D01*
X152055Y262952D01*
X153215Y261215D01*
X154952Y260055D01*
X156000Y259846D01*
Y264000D01*
D02*
G37*
G36*
X149154D02*
X145000D01*
Y259846D01*
X146048Y260055D01*
X147785Y261215D01*
X148945Y262952D01*
X149154Y264000D01*
D02*
G37*
G36*
X143000D02*
X138846D01*
X139055Y262952D01*
X140215Y261215D01*
X141952Y260055D01*
X143000Y259846D01*
Y264000D01*
D02*
G37*
G36*
X319154Y260000D02*
X315000D01*
Y255846D01*
X316048Y256055D01*
X317785Y257215D01*
X318945Y258952D01*
X319154Y260000D01*
D02*
G37*
G36*
X313000D02*
X308846D01*
X309055Y258952D01*
X310215Y257215D01*
X311952Y256055D01*
X313000Y255846D01*
Y260000D01*
D02*
G37*
G36*
X71154Y258000D02*
X67000D01*
Y253846D01*
X68048Y254055D01*
X69785Y255215D01*
X70945Y256952D01*
X71154Y258000D01*
D02*
G37*
G36*
X65000D02*
X60846D01*
X61055Y256952D01*
X62215Y255215D01*
X63952Y254055D01*
X65000Y253846D01*
Y258000D01*
D02*
G37*
G36*
X308000Y245154D02*
Y241000D01*
X312154D01*
X311945Y242048D01*
X310785Y243785D01*
X309048Y244945D01*
X308000Y245154D01*
D02*
G37*
G36*
X306000D02*
X304952Y244945D01*
X303215Y243785D01*
X302055Y242048D01*
X301846Y241000D01*
X306000D01*
Y245154D01*
D02*
G37*
G36*
X62000D02*
Y241000D01*
X66154D01*
X65945Y242048D01*
X64785Y243785D01*
X63048Y244945D01*
X62000Y245154D01*
D02*
G37*
G36*
X60000D02*
X58952Y244945D01*
X57215Y243785D01*
X56055Y242048D01*
X55846Y241000D01*
X60000D01*
Y245154D01*
D02*
G37*
G36*
X312154Y239000D02*
X308000D01*
Y234846D01*
X309048Y235055D01*
X310785Y236215D01*
X311945Y237952D01*
X312154Y239000D01*
D02*
G37*
G36*
X306000D02*
X301846D01*
X302055Y237952D01*
X303215Y236215D01*
X304952Y235055D01*
X306000Y234846D01*
Y239000D01*
D02*
G37*
G36*
X66154D02*
X62000D01*
Y234846D01*
X63048Y235055D01*
X64785Y236215D01*
X65945Y237952D01*
X66154Y239000D01*
D02*
G37*
G36*
X60000D02*
X55846D01*
X56055Y237952D01*
X57215Y236215D01*
X58952Y235055D01*
X60000Y234846D01*
Y239000D01*
D02*
G37*
G36*
X217967Y226171D02*
Y222017D01*
X222121D01*
X221912Y223066D01*
X220752Y224802D01*
X219016Y225963D01*
X217967Y226171D01*
D02*
G37*
G36*
X215967D02*
X214919Y225963D01*
X213182Y224802D01*
X212022Y223066D01*
X211813Y222017D01*
X215967D01*
Y226171D01*
D02*
G37*
G36*
X222121Y220017D02*
X217967D01*
Y215863D01*
X219016Y216072D01*
X220752Y217232D01*
X221912Y218969D01*
X222121Y220017D01*
D02*
G37*
G36*
X215967D02*
X211813D01*
X212022Y218969D01*
X213182Y217232D01*
X214919Y216072D01*
X215967Y215863D01*
Y220017D01*
D02*
G37*
G36*
X191000Y236843D02*
X189147Y236474D01*
X187575Y235424D01*
X186526Y233853D01*
X186157Y232000D01*
X186526Y230147D01*
X187575Y228575D01*
X189147Y227526D01*
X189846Y227386D01*
X196922Y220311D01*
Y215922D01*
X195802Y215323D01*
X195575Y215474D01*
X193722Y215843D01*
X191868Y215474D01*
X190297Y214425D01*
X189247Y212853D01*
X188878Y211000D01*
X189247Y209147D01*
X190297Y207575D01*
X191868Y206526D01*
X193722Y206157D01*
X195575Y206526D01*
X195802Y206677D01*
X196922Y206078D01*
Y154689D01*
X188431Y146199D01*
X187543Y146022D01*
X185972Y144972D01*
X184922Y143401D01*
X184554Y141548D01*
X184922Y139694D01*
X185972Y138123D01*
X187543Y137073D01*
X189397Y136705D01*
X191250Y137073D01*
X192821Y138123D01*
X193871Y139694D01*
X193973Y140205D01*
X203884Y150116D01*
X203884Y150116D01*
X204768Y151439D01*
X205078Y153000D01*
X205078Y153000D01*
Y222000D01*
X204768Y223561D01*
X203884Y224884D01*
X203884Y224884D01*
X195613Y233154D01*
X195474Y233853D01*
X194425Y235424D01*
X192853Y236474D01*
X191000Y236843D01*
D02*
G37*
G36*
X472258Y224878D02*
X470208Y224608D01*
X468299Y223817D01*
X466659Y222558D01*
X465401Y220919D01*
X464610Y219009D01*
X464340Y216960D01*
X464610Y214911D01*
X465401Y213001D01*
X466659Y211361D01*
X468299Y210103D01*
X470208Y209312D01*
X472258Y209042D01*
X474307Y209312D01*
X476217Y210103D01*
X477856Y211361D01*
X479115Y213001D01*
X479906Y214911D01*
X480175Y216960D01*
X479906Y219009D01*
X479115Y220919D01*
X477856Y222558D01*
X476217Y223817D01*
X474307Y224608D01*
X472258Y224878D01*
D02*
G37*
G36*
X420950D02*
X418900Y224608D01*
X416991Y223817D01*
X415351Y222558D01*
X414093Y220919D01*
X413302Y219009D01*
X413032Y216960D01*
X413302Y214911D01*
X414093Y213001D01*
X415351Y211361D01*
X416991Y210103D01*
X418900Y209312D01*
X420950Y209042D01*
X422999Y209312D01*
X424908Y210103D01*
X426548Y211361D01*
X427807Y213001D01*
X428598Y214911D01*
X428867Y216960D01*
X428598Y219009D01*
X427807Y220919D01*
X426548Y222558D01*
X424908Y223817D01*
X422999Y224608D01*
X420950Y224878D01*
D02*
G37*
G36*
X226000Y207154D02*
Y203000D01*
X230154D01*
X229945Y204048D01*
X228785Y205785D01*
X227048Y206945D01*
X226000Y207154D01*
D02*
G37*
G36*
X224000D02*
X222952Y206945D01*
X221215Y205785D01*
X220055Y204048D01*
X219846Y203000D01*
X224000D01*
Y207154D01*
D02*
G37*
G36*
X53000Y203154D02*
Y199000D01*
X57154D01*
X56945Y200048D01*
X55785Y201785D01*
X54048Y202945D01*
X53000Y203154D01*
D02*
G37*
G36*
X51000D02*
X49952Y202945D01*
X48215Y201785D01*
X47055Y200048D01*
X46846Y199000D01*
X51000D01*
Y203154D01*
D02*
G37*
G36*
X230154Y201000D02*
X226000D01*
Y196846D01*
X227048Y197055D01*
X228785Y198215D01*
X229945Y199952D01*
X230154Y201000D01*
D02*
G37*
G36*
X224000D02*
X219846D01*
X220055Y199952D01*
X221215Y198215D01*
X222952Y197055D01*
X224000Y196846D01*
Y201000D01*
D02*
G37*
G36*
X57154Y197000D02*
X53000D01*
Y192846D01*
X54048Y193055D01*
X55785Y194215D01*
X56945Y195952D01*
X57154Y197000D01*
D02*
G37*
G36*
X51000D02*
X46846D01*
X47055Y195952D01*
X48215Y194215D01*
X49952Y193055D01*
X51000Y192846D01*
Y197000D01*
D02*
G37*
G36*
X170140Y199541D02*
X168287Y199172D01*
X166716Y198123D01*
X165666Y196551D01*
X165298Y194698D01*
X165666Y192845D01*
X166716Y191273D01*
X168287Y190224D01*
X170140Y189855D01*
X171994Y190224D01*
X173565Y191273D01*
X174615Y192845D01*
X174984Y194698D01*
X174615Y196551D01*
X173565Y198123D01*
X171994Y199172D01*
X170140Y199541D01*
D02*
G37*
G36*
X461000Y178154D02*
Y174000D01*
X465154D01*
X464945Y175048D01*
X463785Y176785D01*
X462048Y177945D01*
X461000Y178154D01*
D02*
G37*
G36*
X459000D02*
X457952Y177945D01*
X456215Y176785D01*
X455055Y175048D01*
X454846Y174000D01*
X459000D01*
Y178154D01*
D02*
G37*
G36*
X465154Y172000D02*
X461000D01*
Y167846D01*
X462048Y168055D01*
X463785Y169215D01*
X464945Y170952D01*
X465154Y172000D01*
D02*
G37*
G36*
X459000D02*
X454846D01*
X455055Y170952D01*
X456215Y169215D01*
X457952Y168055D01*
X459000Y167846D01*
Y172000D01*
D02*
G37*
G36*
X38000Y164154D02*
Y160000D01*
X42154D01*
X41945Y161048D01*
X40785Y162785D01*
X39048Y163945D01*
X38000Y164154D01*
D02*
G37*
G36*
X36000D02*
X34952Y163945D01*
X33215Y162785D01*
X32055Y161048D01*
X31846Y160000D01*
X36000D01*
Y164154D01*
D02*
G37*
G36*
X272000Y163843D02*
X270147Y163474D01*
X268575Y162425D01*
X267526Y160853D01*
X267157Y159000D01*
X267526Y157147D01*
X268575Y155576D01*
X270147Y154526D01*
X272000Y154157D01*
X273853Y154526D01*
X275424Y155576D01*
X276474Y157147D01*
X276843Y159000D01*
X276474Y160853D01*
X275424Y162425D01*
X273853Y163474D01*
X272000Y163843D01*
D02*
G37*
G36*
X42154Y158000D02*
X38000D01*
Y153846D01*
X39048Y154055D01*
X40785Y155215D01*
X41945Y156952D01*
X42154Y158000D01*
D02*
G37*
G36*
X36000D02*
X31846D01*
X32055Y156952D01*
X33215Y155215D01*
X34952Y154055D01*
X36000Y153846D01*
Y158000D01*
D02*
G37*
G36*
X461000Y153154D02*
Y149000D01*
X465154D01*
X464945Y150048D01*
X463785Y151785D01*
X462048Y152945D01*
X461000Y153154D01*
D02*
G37*
G36*
X459000D02*
X457952Y152945D01*
X456215Y151785D01*
X455055Y150048D01*
X454846Y149000D01*
X459000D01*
Y153154D01*
D02*
G37*
G36*
X465154Y147000D02*
X461000D01*
Y142846D01*
X462048Y143055D01*
X463785Y144215D01*
X464945Y145952D01*
X465154Y147000D01*
D02*
G37*
G36*
X459000D02*
X454846D01*
X455055Y145952D01*
X456215Y144215D01*
X457952Y143055D01*
X459000Y142846D01*
Y147000D01*
D02*
G37*
G36*
X461000Y139154D02*
Y135000D01*
X465154D01*
X464945Y136048D01*
X463785Y137785D01*
X462048Y138945D01*
X461000Y139154D01*
D02*
G37*
G36*
X459000D02*
X457952Y138945D01*
X456215Y137785D01*
X455055Y136048D01*
X454846Y135000D01*
X459000D01*
Y139154D01*
D02*
G37*
G36*
X29874Y139112D02*
X21254D01*
Y130492D01*
X29874D01*
Y139112D01*
D02*
G37*
G36*
X19254D02*
X10634D01*
Y130492D01*
X19254D01*
Y139112D01*
D02*
G37*
G36*
X465154Y133000D02*
X461000D01*
Y128846D01*
X462048Y129055D01*
X463785Y130215D01*
X464945Y131952D01*
X465154Y133000D01*
D02*
G37*
G36*
X459000D02*
X454846D01*
X455055Y131952D01*
X456215Y130215D01*
X457952Y129055D01*
X459000Y128846D01*
Y133000D01*
D02*
G37*
G36*
X358000Y132154D02*
Y128000D01*
X362154D01*
X361945Y129048D01*
X360785Y130785D01*
X359048Y131945D01*
X358000Y132154D01*
D02*
G37*
G36*
X356000D02*
X354952Y131945D01*
X353215Y130785D01*
X352055Y129048D01*
X351846Y128000D01*
X356000D01*
Y132154D01*
D02*
G37*
G36*
X341000D02*
Y128000D01*
X345154D01*
X344945Y129048D01*
X343785Y130785D01*
X342048Y131945D01*
X341000Y132154D01*
D02*
G37*
G36*
X339000D02*
X337952Y131945D01*
X336215Y130785D01*
X335055Y129048D01*
X334846Y128000D01*
X339000D01*
Y132154D01*
D02*
G37*
G36*
X75000Y131154D02*
Y127000D01*
X79154D01*
X78945Y128048D01*
X77785Y129785D01*
X76048Y130945D01*
X75000Y131154D01*
D02*
G37*
G36*
X73000D02*
X71952Y130945D01*
X70215Y129785D01*
X69055Y128048D01*
X68846Y127000D01*
X73000D01*
Y131154D01*
D02*
G37*
G36*
X362154Y126000D02*
X358000D01*
Y121846D01*
X359048Y122055D01*
X360785Y123215D01*
X361945Y124952D01*
X362154Y126000D01*
D02*
G37*
G36*
X356000D02*
X351846D01*
X352055Y124952D01*
X353215Y123215D01*
X354952Y122055D01*
X356000Y121846D01*
Y126000D01*
D02*
G37*
G36*
X345154D02*
X341000D01*
Y121846D01*
X342048Y122055D01*
X343785Y123215D01*
X344945Y124952D01*
X345154Y126000D01*
D02*
G37*
G36*
X339000D02*
X334846D01*
X335055Y124952D01*
X336215Y123215D01*
X337952Y122055D01*
X339000Y121846D01*
Y126000D01*
D02*
G37*
G36*
X79154Y125000D02*
X75000D01*
Y120846D01*
X76048Y121055D01*
X77785Y122215D01*
X78945Y123952D01*
X79154Y125000D01*
D02*
G37*
G36*
X73000D02*
X68846D01*
X69055Y123952D01*
X70215Y122215D01*
X71952Y121055D01*
X73000Y120846D01*
Y125000D01*
D02*
G37*
G36*
X29874Y128492D02*
X21254D01*
Y119872D01*
X29874D01*
Y128492D01*
D02*
G37*
G36*
X19254D02*
X10634D01*
Y119872D01*
X19254D01*
Y128492D01*
D02*
G37*
G36*
X460080Y126763D02*
X458227Y126394D01*
X456655Y125345D01*
X455606Y123773D01*
X455237Y121920D01*
X455606Y120067D01*
X456655Y118495D01*
X458227Y117446D01*
X460080Y117077D01*
X461933Y117446D01*
X463505Y118495D01*
X464554Y120067D01*
X464923Y121920D01*
X464554Y123773D01*
X463505Y125345D01*
X461933Y126394D01*
X460080Y126763D01*
D02*
G37*
G36*
X92000Y116843D02*
X90147Y116474D01*
X88575Y115425D01*
X87526Y113853D01*
X87157Y112000D01*
X87526Y110147D01*
X88575Y108575D01*
X90147Y107526D01*
X92000Y107157D01*
X93853Y107526D01*
X95424Y108575D01*
X96474Y110147D01*
X96843Y112000D01*
X96474Y113853D01*
X95424Y115425D01*
X93853Y116474D01*
X92000Y116843D01*
D02*
G37*
G36*
X20254Y113291D02*
X17873Y112977D01*
X15655Y112058D01*
X13750Y110597D01*
X12288Y108691D01*
X11369Y106473D01*
X11055Y104092D01*
X11369Y101711D01*
X12288Y99493D01*
X13750Y97587D01*
X15655Y96126D01*
X17873Y95207D01*
X20254Y94893D01*
X22635Y95207D01*
X24853Y96126D01*
X26758Y97587D01*
X28220Y99493D01*
X29139Y101711D01*
X29453Y104092D01*
X29139Y106473D01*
X28220Y108691D01*
X26758Y110597D01*
X24853Y112058D01*
X22635Y112977D01*
X20254Y113291D01*
D02*
G37*
G36*
X22000Y162843D02*
X20147Y162474D01*
X18576Y161425D01*
X17526Y159853D01*
X17157Y158000D01*
X17526Y156147D01*
X18576Y154575D01*
X20147Y153526D01*
X21296Y153297D01*
X29296Y145296D01*
X30537Y144468D01*
X32000Y144177D01*
X38416D01*
X40177Y142416D01*
Y102636D01*
X40468Y101173D01*
X41296Y99932D01*
X43932Y97296D01*
X45173Y96468D01*
X46636Y96177D01*
X53645D01*
X54009Y95267D01*
X54084Y94907D01*
X52967Y93234D01*
X52758Y92186D01*
X63066D01*
X62914Y92950D01*
X63418Y93871D01*
X63726Y94221D01*
X75655D01*
X76259Y92951D01*
X75526Y91853D01*
X75157Y90000D01*
X75526Y88147D01*
X76575Y86575D01*
X78147Y85526D01*
X80000Y85157D01*
X81853Y85526D01*
X83425Y86575D01*
X84474Y88147D01*
X84843Y90000D01*
X84474Y91853D01*
X83741Y92951D01*
X84345Y94221D01*
X118330D01*
X119305Y93570D01*
X121158Y93201D01*
X123011Y93570D01*
X124583Y94619D01*
X125632Y96191D01*
X126001Y98044D01*
X125632Y99897D01*
X124583Y101469D01*
X123011Y102518D01*
X121158Y102887D01*
X119305Y102518D01*
X118330Y101867D01*
X63951D01*
X63115Y102704D01*
X61875Y103532D01*
X60412Y103823D01*
X48220D01*
X47823Y104220D01*
Y144000D01*
X47532Y145463D01*
X46704Y146704D01*
X42704Y150704D01*
X41463Y151532D01*
X40000Y151823D01*
X33584D01*
X26703Y158704D01*
X26474Y159853D01*
X25425Y161425D01*
X23853Y162474D01*
X22000Y162843D01*
D02*
G37*
G36*
X63066Y90186D02*
X58912D01*
Y86032D01*
X59960Y86241D01*
X61697Y87401D01*
X62857Y89138D01*
X63066Y90186D01*
D02*
G37*
G36*
X56912D02*
X52758D01*
X52967Y89138D01*
X54127Y87401D01*
X55864Y86241D01*
X56912Y86032D01*
Y90186D01*
D02*
G37*
G36*
X481000Y79571D02*
Y71000D01*
X489571D01*
X489372Y72511D01*
X488403Y74851D01*
X486861Y76861D01*
X484851Y78403D01*
X482511Y79372D01*
X481000Y79571D01*
D02*
G37*
G36*
X479000D02*
X477489Y79372D01*
X475149Y78403D01*
X473139Y76861D01*
X471597Y74851D01*
X470628Y72511D01*
X470429Y71000D01*
X479000D01*
Y79571D01*
D02*
G37*
G36*
X20254Y87891D02*
X17873Y87577D01*
X15655Y86658D01*
X13750Y85197D01*
X12288Y83291D01*
X11369Y81073D01*
X11055Y78692D01*
X11369Y76311D01*
X12288Y74093D01*
X13750Y72188D01*
X15655Y70726D01*
X17873Y69807D01*
X20254Y69493D01*
X22635Y69807D01*
X24853Y70726D01*
X26758Y72188D01*
X28220Y74093D01*
X29139Y76311D01*
X29453Y78692D01*
X29139Y81073D01*
X28220Y83291D01*
X26758Y85197D01*
X24853Y86658D01*
X22635Y87577D01*
X20254Y87891D01*
D02*
G37*
G36*
X489571Y69000D02*
X481000D01*
Y60429D01*
X482511Y60628D01*
X484851Y61597D01*
X486861Y63139D01*
X488403Y65149D01*
X489372Y67489D01*
X489571Y69000D01*
D02*
G37*
G36*
X479000D02*
X470429D01*
X470628Y67489D01*
X471597Y65149D01*
X473139Y63139D01*
X475149Y61597D01*
X477489Y60628D01*
X479000Y60429D01*
Y69000D01*
D02*
G37*
G36*
X191509Y61533D02*
Y57379D01*
X195663D01*
X195454Y58428D01*
X194294Y60164D01*
X192557Y61325D01*
X191509Y61533D01*
D02*
G37*
G36*
X189509D02*
X188460Y61325D01*
X186724Y60164D01*
X185564Y58428D01*
X185355Y57379D01*
X189509D01*
Y61533D01*
D02*
G37*
G36*
X331031Y59618D02*
Y55464D01*
X335185D01*
X334977Y56512D01*
X333816Y58249D01*
X332080Y59409D01*
X331031Y59618D01*
D02*
G37*
G36*
X329031D02*
X327983Y59409D01*
X326246Y58249D01*
X325086Y56512D01*
X324878Y55464D01*
X329031D01*
Y59618D01*
D02*
G37*
G36*
X345000Y64843D02*
X343147Y64474D01*
X341575Y63425D01*
X340526Y61853D01*
X340157Y60000D01*
X340526Y58147D01*
X341575Y56575D01*
X343147Y55526D01*
X345000Y55157D01*
X346853Y55526D01*
X348425Y56575D01*
X349474Y58147D01*
X349843Y60000D01*
X349474Y61853D01*
X348425Y63425D01*
X346853Y64474D01*
X345000Y64843D01*
D02*
G37*
G36*
X205000D02*
X203147Y64474D01*
X201575Y63425D01*
X200526Y61853D01*
X200157Y60000D01*
X200526Y58147D01*
X201575Y56575D01*
X203147Y55526D01*
X205000Y55157D01*
X206853Y55526D01*
X208425Y56575D01*
X209474Y58147D01*
X209843Y60000D01*
X209474Y61853D01*
X208425Y63425D01*
X206853Y64474D01*
X205000Y64843D01*
D02*
G37*
G36*
X195663Y55379D02*
X191509D01*
Y51225D01*
X192557Y51434D01*
X194294Y52594D01*
X195454Y54331D01*
X195663Y55379D01*
D02*
G37*
G36*
X189509D02*
X185355D01*
X185564Y54331D01*
X186724Y52594D01*
X188460Y51434D01*
X189509Y51225D01*
Y55379D01*
D02*
G37*
G36*
X335185Y53464D02*
X331031D01*
Y49310D01*
X332080Y49518D01*
X333816Y50679D01*
X334977Y52415D01*
X335185Y53464D01*
D02*
G37*
G36*
X329031D02*
X324878D01*
X325086Y52415D01*
X326246Y50679D01*
X327983Y49518D01*
X329031Y49310D01*
Y53464D01*
D02*
G37*
G36*
X481000Y54571D02*
Y46000D01*
X489571D01*
X489372Y47511D01*
X488403Y49851D01*
X486861Y51861D01*
X484851Y53403D01*
X482511Y54372D01*
X481000Y54571D01*
D02*
G37*
G36*
X479000D02*
X477489Y54372D01*
X475149Y53403D01*
X473139Y51861D01*
X471597Y49851D01*
X470628Y47511D01*
X470429Y46000D01*
X479000D01*
Y54571D01*
D02*
G37*
G36*
X20254Y62491D02*
X17873Y62177D01*
X15655Y61258D01*
X13750Y59797D01*
X12288Y57891D01*
X11369Y55673D01*
X11055Y53292D01*
X11369Y50911D01*
X12288Y48693D01*
X13750Y46788D01*
X15655Y45326D01*
X17873Y44407D01*
X20254Y44093D01*
X22635Y44407D01*
X24853Y45326D01*
X26758Y46788D01*
X28220Y48693D01*
X29139Y50911D01*
X29453Y53292D01*
X29139Y55673D01*
X28220Y57891D01*
X26758Y59797D01*
X24853Y61258D01*
X22635Y62177D01*
X20254Y62491D01*
D02*
G37*
G36*
X489571Y44000D02*
X481000D01*
Y35429D01*
X482511Y35628D01*
X484851Y36597D01*
X486861Y38139D01*
X488403Y40149D01*
X489372Y42489D01*
X489571Y44000D01*
D02*
G37*
G36*
X479000D02*
X470429D01*
X470628Y42489D01*
X471597Y40149D01*
X473139Y38139D01*
X475149Y36597D01*
X477489Y35628D01*
X479000Y35429D01*
Y44000D01*
D02*
G37*
G36*
X414000Y31154D02*
Y27000D01*
X418154D01*
X417945Y28048D01*
X416785Y29785D01*
X415048Y30945D01*
X414000Y31154D01*
D02*
G37*
G36*
X412000D02*
X410952Y30945D01*
X409215Y29785D01*
X408055Y28048D01*
X407846Y27000D01*
X412000D01*
Y31154D01*
D02*
G37*
G36*
X396000D02*
Y27000D01*
X400154D01*
X399945Y28048D01*
X398785Y29785D01*
X397048Y30945D01*
X396000Y31154D01*
D02*
G37*
G36*
X394000D02*
X392952Y30945D01*
X391215Y29785D01*
X390055Y28048D01*
X389846Y27000D01*
X394000D01*
Y31154D01*
D02*
G37*
G36*
X291882Y28374D02*
Y24220D01*
X296036D01*
X295828Y25268D01*
X294667Y27005D01*
X292931Y28165D01*
X291882Y28374D01*
D02*
G37*
G36*
X289882D02*
X288834Y28165D01*
X287097Y27005D01*
X285937Y25268D01*
X285728Y24220D01*
X289882D01*
Y28374D01*
D02*
G37*
G36*
X154618D02*
Y24220D01*
X158772D01*
X158563Y25268D01*
X157403Y27005D01*
X155666Y28165D01*
X154618Y28374D01*
D02*
G37*
G36*
X152618D02*
X151569Y28165D01*
X149833Y27005D01*
X148673Y25268D01*
X148464Y24220D01*
X152618D01*
Y28374D01*
D02*
G37*
G36*
X243000Y28154D02*
Y24000D01*
X247154D01*
X246945Y25048D01*
X245785Y26785D01*
X244048Y27945D01*
X243000Y28154D01*
D02*
G37*
G36*
X241000D02*
X239952Y27945D01*
X238215Y26785D01*
X237055Y25048D01*
X236846Y24000D01*
X241000D01*
Y28154D01*
D02*
G37*
G36*
X103000D02*
Y24000D01*
X107154D01*
X106945Y25048D01*
X105785Y26785D01*
X104048Y27945D01*
X103000Y28154D01*
D02*
G37*
G36*
X101000D02*
X99952Y27945D01*
X98215Y26785D01*
X97055Y25048D01*
X96846Y24000D01*
X101000D01*
Y28154D01*
D02*
G37*
G36*
X418154Y25000D02*
X414000D01*
Y20846D01*
X415048Y21055D01*
X416785Y22215D01*
X417945Y23952D01*
X418154Y25000D01*
D02*
G37*
G36*
X412000D02*
X407846D01*
X408055Y23952D01*
X409215Y22215D01*
X410952Y21055D01*
X412000Y20846D01*
Y25000D01*
D02*
G37*
G36*
X400154D02*
X396000D01*
Y20846D01*
X397048Y21055D01*
X398785Y22215D01*
X399945Y23952D01*
X400154Y25000D01*
D02*
G37*
G36*
X394000D02*
X389846D01*
X390055Y23952D01*
X391215Y22215D01*
X392952Y21055D01*
X394000Y20846D01*
Y25000D01*
D02*
G37*
G36*
X296036Y22220D02*
X291882D01*
Y18066D01*
X292931Y18275D01*
X294667Y19435D01*
X295828Y21172D01*
X296036Y22220D01*
D02*
G37*
G36*
X289882D02*
X285728D01*
X285937Y21172D01*
X287097Y19435D01*
X288834Y18275D01*
X289882Y18066D01*
Y22220D01*
D02*
G37*
G36*
X158772D02*
X154618D01*
Y18066D01*
X155666Y18275D01*
X157403Y19435D01*
X158563Y21172D01*
X158772Y22220D01*
D02*
G37*
G36*
X152618D02*
X148464D01*
X148673Y21172D01*
X149833Y19435D01*
X151569Y18275D01*
X152618Y18066D01*
Y22220D01*
D02*
G37*
G36*
X247154Y22000D02*
X243000D01*
Y17846D01*
X244048Y18055D01*
X245785Y19215D01*
X246945Y20952D01*
X247154Y22000D01*
D02*
G37*
G36*
X241000D02*
X236846D01*
X237055Y20952D01*
X238215Y19215D01*
X239952Y18055D01*
X241000Y17846D01*
Y22000D01*
D02*
G37*
G36*
X107154D02*
X103000D01*
Y17846D01*
X104048Y18055D01*
X105785Y19215D01*
X106945Y20952D01*
X107154Y22000D01*
D02*
G37*
G36*
X101000D02*
X96846D01*
X97055Y20952D01*
X98215Y19215D01*
X99952Y18055D01*
X101000Y17846D01*
Y22000D01*
D02*
G37*
%LPD*%
D62*
X472240Y332831D02*
D03*
X420925D02*
D03*
X317000Y293000D02*
D03*
X340000Y292000D02*
D03*
X420950Y216960D02*
D03*
X472258D02*
D03*
D66*
X20254Y469492D02*
D03*
Y559402D02*
D03*
Y129492D02*
D03*
X378000Y359600D02*
D03*
D67*
X20254Y444092D02*
D03*
X447099Y295795D02*
D03*
X421699D02*
D03*
X322400Y423000D02*
D03*
X20254Y534002D02*
D03*
Y508602D02*
D03*
Y104092D02*
D03*
Y78692D02*
D03*
Y53292D02*
D03*
X378000Y410400D02*
D03*
Y385000D02*
D03*
X472499Y255155D02*
D03*
X447099D02*
D03*
X480000Y70000D02*
D03*
Y45000D02*
D03*
D68*
X472499Y295795D02*
D03*
X297000Y423000D02*
D03*
X421699Y255155D02*
D03*
D69*
X20285Y407985D02*
D03*
Y337985D02*
D03*
D70*
X47285Y347985D02*
D03*
Y397985D02*
D03*
D73*
X168148Y307086D02*
X168529Y307467D01*
Y331343D01*
X168910Y331724D01*
D74*
X191000Y232000D02*
X201000Y222000D01*
X355000Y307000D02*
Y379000D01*
X340000Y292000D02*
X355000Y307000D01*
X201000Y153000D02*
Y222000D01*
X189548Y141548D02*
X201000Y153000D01*
X189397Y141548D02*
X189548D01*
D75*
X474643Y350357D02*
X490982Y334018D01*
Y275597D02*
Y334018D01*
X472499Y257114D02*
X490982Y275597D01*
X470012Y350357D02*
X474643D01*
X454764D02*
X470012D01*
X457739Y240396D02*
X472499Y255155D01*
X353990Y227022D02*
X367364Y240396D01*
X457739D01*
X472499Y255155D02*
Y257114D01*
X454725Y350396D02*
X454764Y350357D01*
X436402Y350396D02*
X454725D01*
X414994Y350426D02*
X435581D01*
D77*
X99443Y503863D02*
Y512364D01*
X99347Y512460D02*
X99443Y512364D01*
X90424Y497807D02*
X98552Y489679D01*
X95000Y188541D02*
X98552Y192093D01*
X104750Y218629D02*
X112813Y210566D01*
X104750Y218629D02*
Y498556D01*
X98552Y192093D02*
Y489679D01*
X99443Y503863D02*
X104750Y498556D01*
X107304Y545000D02*
X111000Y541304D01*
Y255000D02*
X137922Y228078D01*
X111000Y255000D02*
Y541304D01*
X383848Y439068D02*
X387496Y442717D01*
X239068Y439068D02*
X313500D01*
X387496Y442717D02*
X395715D01*
X410000Y385098D02*
Y581542D01*
Y385098D02*
X410098Y385000D01*
X397000Y532434D02*
X403098Y526336D01*
Y291222D02*
Y526336D01*
X395715Y442717D02*
X396098Y443099D01*
X335538Y223662D02*
X403098Y291222D01*
X313500Y439068D02*
X383848D01*
X417000Y400000D02*
Y410912D01*
X405000Y586542D02*
X410000Y581542D01*
X405000Y586542D02*
Y587000D01*
X418338Y412250D02*
Y583364D01*
X417000Y410912D02*
X418338Y412250D01*
X415000Y586702D02*
Y587000D01*
Y586702D02*
X418338Y583364D01*
X404000Y712000D02*
X438843D01*
X456000Y694843D01*
X436569Y700000D02*
X456184Y680385D01*
Y679958D02*
Y680385D01*
X404000Y700000D02*
X436569D01*
X386209Y585960D02*
Y595501D01*
X385826Y670826D02*
X405000Y690000D01*
X385826Y595884D02*
X386209Y595501D01*
X386250Y580250D02*
Y585919D01*
X385826Y595884D02*
Y670826D01*
X386209Y585960D02*
X386250Y585919D01*
X137922Y223578D02*
Y228078D01*
X136781Y214251D02*
Y222437D01*
X136398Y213868D02*
X136781Y214251D01*
X136398Y91602D02*
Y213868D01*
X136781Y222437D02*
X137922Y223578D01*
X136398Y91602D02*
X137797Y90203D01*
X60412Y100000D02*
X62368Y98044D01*
X121158D01*
X44000Y102636D02*
X46636Y100000D01*
X60412D01*
X90424Y497807D02*
Y498348D01*
X95000Y188000D02*
Y188541D01*
X22000Y158000D02*
X32000Y148000D01*
X40000D01*
X44000Y144000D01*
X137797Y90203D02*
X144000Y84000D01*
X322000D01*
X20856Y508000D02*
X43000D01*
X20254Y508602D02*
X20856Y508000D01*
X43000D02*
X72000Y479000D01*
Y461400D02*
Y479000D01*
X197000Y284000D02*
X207500Y294500D01*
Y407500D01*
X374000Y568000D02*
X386250Y580250D01*
X397000Y532434D02*
Y624000D01*
X370189Y387055D02*
X375945D01*
X331250Y387250D02*
X369994D01*
X370189Y387055D01*
X375945D02*
X378000Y385000D01*
X310178Y366178D02*
X331250Y387250D01*
X243226Y366178D02*
X310178D01*
X118000Y266315D02*
X190823Y193491D01*
X118000Y266315D02*
Y544000D01*
X80250Y476491D02*
X80380Y476620D01*
X80250Y209750D02*
Y476491D01*
X139440Y300918D02*
Y336600D01*
X143670Y340830D01*
X463000Y584000D02*
X492000Y555000D01*
Y537000D02*
Y555000D01*
X207500Y407500D02*
X239068Y439068D01*
X44000Y102636D02*
Y144000D01*
X455750Y503000D02*
Y630000D01*
X445000Y650000D02*
X445983Y649017D01*
Y488967D02*
Y649017D01*
D81*
X168148Y307086D02*
D03*
X118000Y544000D02*
D03*
X72000Y461400D02*
D03*
X360201Y300730D02*
D03*
X342246Y272845D02*
D03*
X190823Y193491D02*
D03*
X92000Y112000D02*
D03*
X111750Y235750D02*
D03*
X90000Y485000D02*
D03*
X205000Y60000D02*
D03*
X345000D02*
D03*
X460080Y121920D02*
D03*
X272000Y159000D02*
D03*
X62000Y108000D02*
D03*
Y123000D02*
D03*
X360000Y273000D02*
D03*
X80250Y209750D02*
D03*
X95000Y188000D02*
D03*
X80380Y476620D02*
D03*
X322000Y84000D02*
D03*
X22000Y158000D02*
D03*
X87884Y651764D02*
D03*
X456184Y679958D02*
D03*
X456000Y694843D02*
D03*
X385826Y595884D02*
D03*
X136398Y213868D02*
D03*
X112813Y210566D02*
D03*
X121158Y98044D02*
D03*
X90424Y498348D02*
D03*
X116378Y700574D02*
D03*
X243226Y366178D02*
D03*
X397000Y624000D02*
D03*
X415000Y587000D02*
D03*
X366000Y542000D02*
D03*
Y532000D02*
D03*
X109000Y688000D02*
D03*
X92845Y704155D02*
D03*
X404000Y700000D02*
D03*
X374000Y568000D02*
D03*
X405000Y690000D02*
D03*
X492000Y537000D02*
D03*
X355000Y379000D02*
D03*
X197000Y284000D02*
D03*
X191000Y232000D02*
D03*
X193722Y211000D02*
D03*
X90000Y472000D02*
D03*
X87739Y235759D02*
D03*
X33000Y397000D02*
D03*
X143670Y340830D02*
D03*
X170140Y194698D02*
D03*
X380000Y530000D02*
D03*
X40574Y461872D02*
D03*
X60000Y480000D02*
D03*
Y630000D02*
D03*
X480000D02*
D03*
X450000Y750000D02*
D03*
X480000Y780000D02*
D03*
X110000Y740000D02*
D03*
X95000Y780000D02*
D03*
X40000Y700000D02*
D03*
X20000Y720000D02*
D03*
X100000Y760000D02*
D03*
X20000D02*
D03*
X105000Y710000D02*
D03*
X313500Y439068D02*
D03*
X107304Y545000D02*
D03*
X189397Y141548D02*
D03*
X405000Y587000D02*
D03*
X463000Y584000D02*
D03*
X404000Y712000D02*
D03*
X139440Y300918D02*
D03*
X445983Y488967D02*
D03*
X335538Y223662D02*
D03*
X353990Y227022D02*
D03*
X414994Y350426D02*
D03*
X454725Y350396D02*
D03*
X435648Y350359D02*
D03*
X470012Y350357D02*
D03*
X100000Y695000D02*
D03*
X380000Y540000D02*
D03*
X75230Y776000D02*
D03*
X83961D02*
D03*
X410000Y760000D02*
D03*
X255000Y210000D02*
D03*
X250000Y235000D02*
D03*
X295000Y310000D02*
D03*
X270000D02*
D03*
X245000Y335000D02*
D03*
X220000D02*
D03*
X130000Y410000D02*
D03*
X135000Y370000D02*
D03*
X185000Y365000D02*
D03*
X445000Y650000D02*
D03*
X455750Y630000D02*
D03*
Y503000D02*
D03*
X40000Y50000D02*
D03*
X80000Y90000D02*
D03*
X60000Y440000D02*
D03*
X350000Y260000D02*
D03*
X340000Y310000D02*
D03*
X360000Y290000D02*
D03*
X250000Y200000D02*
D03*
X210000Y230000D02*
D03*
X270000Y210000D02*
D03*
X450000Y190000D02*
D03*
X390000Y210000D02*
D03*
X260000Y130000D02*
D03*
X340000Y140000D02*
D03*
X460000Y80000D02*
D03*
Y30000D02*
D03*
X480000Y90000D02*
D03*
X330000Y30000D02*
D03*
X270000Y60000D02*
D03*
X210000Y30000D02*
D03*
X57000Y22000D02*
D03*
X150000Y150000D02*
D03*
X120000D02*
D03*
X60000Y180000D02*
D03*
X270000Y330000D02*
D03*
X180000Y390000D02*
D03*
X150000Y420000D02*
D03*
X450000Y450000D02*
D03*
X480000Y480000D02*
D03*
X390000Y510000D02*
D03*
X417000Y400000D02*
D03*
X396098Y443099D02*
D03*
X410098Y385000D02*
D03*
X168910Y331724D02*
D03*
X99347Y512460D02*
D03*
X233172Y365760D02*
D03*
X167000Y298000D02*
D03*
X177800Y323596D02*
D03*
X233680Y271426D02*
D03*
X346202Y465328D02*
D03*
X354838Y473456D02*
D03*
X148887Y323276D02*
D03*
X57912Y91186D02*
D03*
X61976Y376936D02*
D03*
X117348Y678434D02*
D03*
X102108Y727964D02*
D03*
X180000Y189000D02*
D03*
X90000Y330000D02*
D03*
X354000Y194000D02*
D03*
X273088Y137088D02*
D03*
X190509Y56379D02*
D03*
X330031Y54464D02*
D03*
X433566Y649566D02*
D03*
X113000Y719000D02*
D03*
X52000Y198000D02*
D03*
X37000Y159000D02*
D03*
X237000Y289000D02*
D03*
X460000Y148000D02*
D03*
Y134000D02*
D03*
X71674Y490394D02*
D03*
X109409Y554525D02*
D03*
X20000Y613000D02*
D03*
Y661000D02*
D03*
X369000Y471000D02*
D03*
X312000Y347000D02*
D03*
X296000Y324000D02*
D03*
X102000Y23000D02*
D03*
X153618Y23220D02*
D03*
X242000Y23000D02*
D03*
X290882Y23220D02*
D03*
X395000Y26000D02*
D03*
X413000D02*
D03*
X74000Y126000D02*
D03*
X340000Y127000D02*
D03*
X357000D02*
D03*
X307000Y240000D02*
D03*
X144000Y265000D02*
D03*
X157000D02*
D03*
X61000Y360000D02*
D03*
X113000Y780000D02*
D03*
Y764000D02*
D03*
Y772000D02*
D03*
X362000Y781000D02*
D03*
X360269Y773270D02*
D03*
X460000Y173000D02*
D03*
X216967Y221017D02*
D03*
X79488Y626512D02*
D03*
X21000Y323000D02*
D03*
X32000Y290000D02*
D03*
X61000Y240000D02*
D03*
X66000Y259000D02*
D03*
X179000Y298000D02*
D03*
X365000Y400000D02*
D03*
X77500Y520696D02*
D03*
X314000Y261000D02*
D03*
X225000Y202000D02*
D03*
X460000Y395000D02*
D03*
Y410000D02*
D03*
X428500Y512696D02*
D03*
M02*
