G04*
G04 #@! TF.GenerationSoftware,Altium Limited,Altium Designer,22.4.2 (48)*
G04*
G04 Layer_Color=8388736*
%FSLAX44Y44*%
%MOMM*%
G71*
G04*
G04 #@! TF.SameCoordinates,FFC21B23-D813-4AC5-8D0E-201BBD69237A*
G04*
G04*
G04 #@! TF.FilePolarity,Negative*
G04*
G01*
G75*
%ADD21R,0.8128X0.9144*%
%ADD22R,0.9144X0.8128*%
%ADD23R,0.9000X0.8000*%
%ADD24R,1.3000X0.7000*%
%ADD25R,0.9652X0.8636*%
%ADD26R,0.9500X0.5500*%
%ADD27R,0.6500X0.8500*%
%ADD28R,0.8500X0.6500*%
G04:AMPARAMS|DCode=29|XSize=0.95mm|YSize=0.8mm|CornerRadius=0.1mm|HoleSize=0mm|Usage=FLASHONLY|Rotation=0.000|XOffset=0mm|YOffset=0mm|HoleType=Round|Shape=RoundedRectangle|*
%AMROUNDEDRECTD29*
21,1,0.9500,0.6000,0,0,0.0*
21,1,0.7500,0.8000,0,0,0.0*
1,1,0.2000,0.3750,-0.3000*
1,1,0.2000,-0.3750,-0.3000*
1,1,0.2000,-0.3750,0.3000*
1,1,0.2000,0.3750,0.3000*
%
%ADD29ROUNDEDRECTD29*%
G04:AMPARAMS|DCode=30|XSize=0.95mm|YSize=0.8mm|CornerRadius=0.08mm|HoleSize=0mm|Usage=FLASHONLY|Rotation=0.000|XOffset=0mm|YOffset=0mm|HoleType=Round|Shape=RoundedRectangle|*
%AMROUNDEDRECTD30*
21,1,0.9500,0.6400,0,0,0.0*
21,1,0.7900,0.8000,0,0,0.0*
1,1,0.1600,0.3950,-0.3200*
1,1,0.1600,-0.3950,-0.3200*
1,1,0.1600,-0.3950,0.3200*
1,1,0.1600,0.3950,0.3200*
%
%ADD30ROUNDEDRECTD30*%
%ADD31R,1.8000X1.2000*%
%ADD32R,1.5500X0.6000*%
%ADD33R,2.5400X0.6350*%
G04:AMPARAMS|DCode=34|XSize=2.54mm|YSize=0.635mm|CornerRadius=0.1588mm|HoleSize=0mm|Usage=FLASHONLY|Rotation=180.000|XOffset=0mm|YOffset=0mm|HoleType=Round|Shape=RoundedRectangle|*
%AMROUNDEDRECTD34*
21,1,2.5400,0.3175,0,0,180.0*
21,1,2.2225,0.6350,0,0,180.0*
1,1,0.3175,-1.1113,0.1588*
1,1,0.3175,1.1113,0.1588*
1,1,0.3175,1.1113,-0.1588*
1,1,0.3175,-1.1113,-0.1588*
%
%ADD34ROUNDEDRECTD34*%
%ADD35R,0.8000X2.7000*%
G04:AMPARAMS|DCode=37|XSize=0.8mm|YSize=1.6mm|CornerRadius=0.4mm|HoleSize=0mm|Usage=FLASHONLY|Rotation=0.000|XOffset=0mm|YOffset=0mm|HoleType=Round|Shape=RoundedRectangle|*
%AMROUNDEDRECTD37*
21,1,0.8000,0.8000,0,0,0.0*
21,1,0.0000,1.6000,0,0,0.0*
1,1,0.8000,0.0000,-0.4000*
1,1,0.8000,0.0000,-0.4000*
1,1,0.8000,0.0000,0.4000*
1,1,0.8000,0.0000,0.4000*
%
%ADD37ROUNDEDRECTD37*%
G04:AMPARAMS|DCode=38|XSize=1.6mm|YSize=0.8mm|CornerRadius=0.4mm|HoleSize=0mm|Usage=FLASHONLY|Rotation=0.000|XOffset=0mm|YOffset=0mm|HoleType=Round|Shape=RoundedRectangle|*
%AMROUNDEDRECTD38*
21,1,1.6000,0.0000,0,0,0.0*
21,1,0.8000,0.8000,0,0,0.0*
1,1,0.8000,0.4000,0.0000*
1,1,0.8000,-0.4000,0.0000*
1,1,0.8000,-0.4000,0.0000*
1,1,0.8000,0.4000,0.0000*
%
%ADD38ROUNDEDRECTD38*%
%ADD39R,1.0668X0.5588*%
%ADD40R,0.5080X0.6990*%
%ADD41R,1.1684X0.3556*%
%ADD42R,0.7620X0.8128*%
%ADD43R,0.8000X0.8000*%
%ADD44R,0.8128X0.7620*%
%ADD45R,0.8000X0.8000*%
%ADD46R,0.4500X0.8500*%
%ADD47R,3.2000X1.0000*%
%ADD48R,1.2954X1.5494*%
%ADD49R,1.5494X1.2954*%
%ADD50R,0.5080X1.4732*%
%ADD51R,1.4732X0.5080*%
%ADD52R,0.6500X1.0600*%
%ADD53R,0.6000X1.0600*%
%ADD54R,0.7000X0.2500*%
%ADD56R,1.3208X1.7018*%
%ADD57R,0.8500X0.4500*%
%ADD59R,1.3462X0.4064*%
%ADD60R,1.0600X0.6500*%
%ADD61R,5.0000X5.0000*%
%ADD62C,1.2700*%
%ADD63R,0.6400X1.3700*%
%ADD64R,1.9050X1.4986*%
%ADD65C,2.0000*%
%ADD66R,1.5240X1.5240*%
%ADD67C,1.5240*%
%ADD68R,1.5240X1.5240*%
%ADD69O,1.9050X0.9910*%
%ADD70C,1.4500*%
G36*
X54587Y347985D02*
X54338Y349875D01*
X53608Y351636D01*
X52448Y353148D01*
X50936Y354308D01*
X49175Y355038D01*
X47285Y355286D01*
X45395Y355038D01*
X43634Y354308D01*
X42122Y353148D01*
X40962Y351636D01*
X40232Y349875D01*
X39983Y347985D01*
D01*
X40232Y346095D01*
X40962Y344334D01*
X42122Y342822D01*
X43634Y341662D01*
X45395Y340932D01*
X47285Y340684D01*
X49175Y340932D01*
X50936Y341662D01*
X52448Y342822D01*
X53608Y344334D01*
X54338Y346095D01*
X54587Y347985D01*
D01*
D02*
G37*
G36*
Y397985D02*
X54338Y399875D01*
X53608Y401636D01*
X52448Y403148D01*
X50936Y404308D01*
X49175Y405038D01*
X47285Y405286D01*
X45395Y405038D01*
X43634Y404308D01*
X42122Y403148D01*
X40962Y401636D01*
X40232Y399875D01*
X39983Y397985D01*
D01*
X40232Y396095D01*
X40962Y394334D01*
X42122Y392822D01*
X43634Y391662D01*
X45395Y390932D01*
X47285Y390684D01*
X49175Y390932D01*
X50936Y391662D01*
X52448Y392822D01*
X53608Y394334D01*
X54338Y396095D01*
X54587Y397985D01*
D01*
D02*
G37*
D21*
X33226Y317500D02*
D03*
X46180D02*
D03*
X366967Y203090D02*
D03*
X354013D02*
D03*
X102848Y626512D02*
D03*
X89894D02*
D03*
X215477Y211000D02*
D03*
X202523D02*
D03*
D22*
X89640Y715240D02*
D03*
Y728194D02*
D03*
X370153Y496029D02*
D03*
Y483075D02*
D03*
X330200Y69723D02*
D03*
Y82677D02*
D03*
X190500Y69723D02*
D03*
Y82677D02*
D03*
X52007Y82660D02*
D03*
Y69706D02*
D03*
D23*
X166186Y248612D02*
D03*
Y264612D02*
D03*
X135122Y248838D02*
D03*
Y264838D02*
D03*
D24*
X299790Y273430D02*
D03*
Y256430D02*
D03*
X301720Y371720D02*
D03*
Y354720D02*
D03*
X88000Y300500D02*
D03*
Y317500D02*
D03*
D25*
X262290Y256929D02*
D03*
Y272931D02*
D03*
X263620Y355219D02*
D03*
Y371221D02*
D03*
D26*
X189000Y298000D02*
D03*
Y314000D02*
D03*
D27*
X66250Y761750D02*
D03*
Y776250D02*
D03*
X57750D02*
D03*
Y761750D02*
D03*
D28*
X257750Y167750D02*
D03*
X272250D02*
D03*
Y176250D02*
D03*
X257750D02*
D03*
D29*
X98000Y235750D02*
D03*
D30*
Y222250D02*
D03*
D31*
X13320Y243620D02*
D03*
Y279620D02*
D03*
D32*
X52070Y256620D02*
D03*
Y266620D02*
D03*
D33*
X432140Y435400D02*
D03*
X477860D02*
D03*
X432140Y422700D02*
D03*
X477860D02*
D03*
X432140Y410000D02*
D03*
X477860D02*
D03*
X432140Y397300D02*
D03*
X477860D02*
D03*
X432140Y384600D02*
D03*
X431800Y121920D02*
D03*
X477520Y134620D02*
D03*
X431800D02*
D03*
X477520Y147320D02*
D03*
X431800D02*
D03*
X477520Y160020D02*
D03*
X431800D02*
D03*
X477520Y172720D02*
D03*
X431800D02*
D03*
X427140Y664600D02*
D03*
X472860Y677300D02*
D03*
X427140D02*
D03*
X472860Y690000D02*
D03*
X427140D02*
D03*
X472860Y702700D02*
D03*
X427140D02*
D03*
X472860Y715400D02*
D03*
X427140D02*
D03*
Y524600D02*
D03*
X472860Y537300D02*
D03*
X427140D02*
D03*
X472860Y550000D02*
D03*
X427140D02*
D03*
X472860Y562700D02*
D03*
X427140D02*
D03*
X472860Y575400D02*
D03*
X427140D02*
D03*
D34*
X477860Y384600D02*
D03*
X477520Y121920D02*
D03*
X472860Y664600D02*
D03*
Y524600D02*
D03*
D35*
X246000Y307000D02*
D03*
X224000D02*
D03*
X245000Y404000D02*
D03*
X223000D02*
D03*
D37*
X287840Y470000D02*
D03*
X311840D02*
D03*
X335840D02*
D03*
X275840D02*
D03*
X251840D02*
D03*
X215840D02*
D03*
X227840D02*
D03*
X167840D02*
D03*
X191840D02*
D03*
X323840D02*
D03*
X299840D02*
D03*
X263840D02*
D03*
X239840D02*
D03*
X203840D02*
D03*
X179840D02*
D03*
X155840D02*
D03*
X143840D02*
D03*
D38*
X129840Y712000D02*
D03*
Y676000D02*
D03*
Y628000D02*
D03*
Y652000D02*
D03*
Y592000D02*
D03*
Y568000D02*
D03*
Y556000D02*
D03*
Y616000D02*
D03*
Y508000D02*
D03*
Y532000D02*
D03*
Y700000D02*
D03*
Y688000D02*
D03*
Y664000D02*
D03*
Y640000D02*
D03*
Y604000D02*
D03*
Y580000D02*
D03*
Y544000D02*
D03*
Y520000D02*
D03*
Y496000D02*
D03*
Y484000D02*
D03*
X349840Y772000D02*
D03*
Y736000D02*
D03*
Y712000D02*
D03*
Y652000D02*
D03*
Y628000D02*
D03*
Y676000D02*
D03*
Y616000D02*
D03*
Y556000D02*
D03*
Y568000D02*
D03*
Y592000D02*
D03*
Y532000D02*
D03*
Y508000D02*
D03*
Y784000D02*
D03*
Y760000D02*
D03*
Y748000D02*
D03*
Y724000D02*
D03*
Y700000D02*
D03*
Y688000D02*
D03*
Y664000D02*
D03*
Y640000D02*
D03*
Y604000D02*
D03*
Y580000D02*
D03*
Y544000D02*
D03*
Y520000D02*
D03*
Y496000D02*
D03*
Y484000D02*
D03*
X129840Y760000D02*
D03*
Y772000D02*
D03*
Y784000D02*
D03*
D39*
X99430Y535475D02*
D03*
Y554525D02*
D03*
X76570Y545000D02*
D03*
D40*
X27940Y217370D02*
D03*
Y194110D02*
D03*
X38040D02*
D03*
Y217370D02*
D03*
X17840D02*
D03*
Y194110D02*
D03*
X140280Y331960D02*
D03*
Y355220D02*
D03*
X160480D02*
D03*
Y331960D02*
D03*
X150380D02*
D03*
Y355220D02*
D03*
D41*
X93172Y385950D02*
D03*
Y379450D02*
D03*
Y372950D02*
D03*
X73614D02*
D03*
Y379450D02*
D03*
Y385950D02*
D03*
X76291Y266720D02*
D03*
Y260220D02*
D03*
Y253720D02*
D03*
X95849D02*
D03*
Y260220D02*
D03*
Y266720D02*
D03*
D42*
X32126Y302087D02*
D03*
X47620D02*
D03*
X216027Y132080D02*
D03*
X200533D02*
D03*
Y147320D02*
D03*
X216027D02*
D03*
X200533Y162560D02*
D03*
X216027D02*
D03*
X215900Y177800D02*
D03*
X200406D02*
D03*
X295747Y240000D02*
D03*
X280253D02*
D03*
X296640Y337820D02*
D03*
X281146D02*
D03*
D43*
X352490Y218090D02*
D03*
X368490D02*
D03*
X455099Y319751D02*
D03*
X439099D02*
D03*
X88371Y642362D02*
D03*
X104371D02*
D03*
X313500Y448263D02*
D03*
X329500D02*
D03*
X100000Y520000D02*
D03*
X84000D02*
D03*
X216000Y193000D02*
D03*
X200000D02*
D03*
X22000Y178000D02*
D03*
X38000D02*
D03*
X52960Y217306D02*
D03*
X68960D02*
D03*
Y205059D02*
D03*
X52960D02*
D03*
X22000Y165924D02*
D03*
X38000D02*
D03*
X455099Y229755D02*
D03*
X439099D02*
D03*
X355000Y400000D02*
D03*
X339000D02*
D03*
D44*
X72196Y713970D02*
D03*
Y729464D02*
D03*
X37350Y729160D02*
D03*
Y713666D02*
D03*
X54756Y713970D02*
D03*
Y729464D02*
D03*
X279790Y257183D02*
D03*
Y272677D02*
D03*
X123000Y317747D02*
D03*
Y302253D02*
D03*
X345000Y377747D02*
D03*
Y362253D02*
D03*
X281400Y355473D02*
D03*
Y370967D02*
D03*
X68040Y299593D02*
D03*
Y315087D02*
D03*
X190437Y248689D02*
D03*
Y264183D02*
D03*
D45*
X273250Y147000D02*
D03*
X256750D02*
D03*
X345440Y84200D02*
D03*
Y68200D02*
D03*
X205740Y84200D02*
D03*
Y68200D02*
D03*
X68580Y68200D02*
D03*
Y84200D02*
D03*
D46*
X316505Y273185D02*
D03*
X331505D02*
D03*
D47*
X319000Y167000D02*
D03*
Y127000D02*
D03*
X379000D02*
D03*
Y167000D02*
D03*
X433860Y25720D02*
D03*
Y65720D02*
D03*
X373860D02*
D03*
Y25720D02*
D03*
D48*
X65500Y597250D02*
D03*
X20500D02*
D03*
Y676750D02*
D03*
X65500D02*
D03*
D49*
X306450Y23220D02*
D03*
Y68220D02*
D03*
X226950D02*
D03*
Y23220D02*
D03*
X87250D02*
D03*
Y68220D02*
D03*
X166750D02*
D03*
Y23220D02*
D03*
D50*
X161810Y194698D02*
D03*
X153810D02*
D03*
X145810D02*
D03*
X137810D02*
D03*
X129810D02*
D03*
X121810D02*
D03*
X113810D02*
D03*
X105810D02*
D03*
Y112402D02*
D03*
X113810D02*
D03*
X121810D02*
D03*
X129810D02*
D03*
X137810D02*
D03*
X145810D02*
D03*
X153810D02*
D03*
X161810D02*
D03*
D51*
X92662Y181550D02*
D03*
Y173550D02*
D03*
Y165550D02*
D03*
Y157550D02*
D03*
Y149550D02*
D03*
Y141550D02*
D03*
Y133550D02*
D03*
Y125550D02*
D03*
X174958D02*
D03*
Y133550D02*
D03*
Y141550D02*
D03*
Y149550D02*
D03*
Y157550D02*
D03*
Y165550D02*
D03*
Y173550D02*
D03*
Y181550D02*
D03*
D52*
X233680Y256540D02*
D03*
Y278540D02*
D03*
X243180D02*
D03*
Y256540D02*
D03*
X224180D02*
D03*
X233140Y354760D02*
D03*
Y376760D02*
D03*
X242640D02*
D03*
Y354760D02*
D03*
X223640D02*
D03*
D53*
X224180Y278540D02*
D03*
X223640Y376760D02*
D03*
D54*
X157940Y319080D02*
D03*
Y314580D02*
D03*
Y310080D02*
D03*
Y305580D02*
D03*
X139440D02*
D03*
Y310080D02*
D03*
Y319080D02*
D03*
Y314580D02*
D03*
D56*
X135322Y228550D02*
D03*
X166310D02*
D03*
D57*
X101380Y483872D02*
D03*
Y490372D02*
D03*
Y496872D02*
D03*
X80380Y483872D02*
D03*
Y490372D02*
D03*
Y496872D02*
D03*
D59*
X47035Y359985D02*
D03*
Y366485D02*
D03*
Y372985D02*
D03*
Y379485D02*
D03*
Y385985D02*
D03*
D60*
X299000Y211000D02*
D03*
X321000Y220500D02*
D03*
Y201500D02*
D03*
D61*
X231840Y577000D02*
D03*
D62*
X381160Y784200D02*
D03*
X437000Y781000D02*
D03*
X472240Y332831D02*
D03*
X420925D02*
D03*
X317000Y293000D02*
D03*
X340000Y292000D02*
D03*
X420950Y216960D02*
D03*
X472258D02*
D03*
D63*
X148690Y312330D02*
D03*
D64*
X20285Y362985D02*
D03*
Y382985D02*
D03*
D65*
X20000Y780000D02*
D03*
X480000Y20000D02*
D03*
X20000D02*
D03*
D66*
X20254Y469492D02*
D03*
Y559402D02*
D03*
Y129492D02*
D03*
X378000Y359600D02*
D03*
D67*
X20254Y444092D02*
D03*
X447099Y295795D02*
D03*
X421699D02*
D03*
X322400Y423000D02*
D03*
X20254Y534002D02*
D03*
Y508602D02*
D03*
Y104092D02*
D03*
Y78692D02*
D03*
Y53292D02*
D03*
X378000Y410400D02*
D03*
Y385000D02*
D03*
X472499Y255155D02*
D03*
X447099D02*
D03*
X480000Y70000D02*
D03*
Y45000D02*
D03*
D68*
X472499Y295795D02*
D03*
X297000Y423000D02*
D03*
X421699Y255155D02*
D03*
D69*
X20285Y407985D02*
D03*
Y337985D02*
D03*
D70*
X47285Y347985D02*
D03*
Y397985D02*
D03*
M02*
