G04*
G04 #@! TF.GenerationSoftware,Altium Limited,Altium Designer,22.4.2 (48)*
G04*
G04 Layer_Color=16711935*
%FSLAX44Y44*%
%MOMM*%
G71*
G04*
G04 #@! TF.SameCoordinates,FFC21B23-D813-4AC5-8D0E-201BBD69237A*
G04*
G04*
G04 #@! TF.FilePolarity,Positive*
G04*
G01*
G75*
%ADD16C,0.1524*%
%ADD84C,0.0500*%
D16*
X113400Y530395D02*
X111495Y531495D01*
Y529295D01*
X113400Y530395D01*
X82207Y390245D02*
X84578D01*
X84885Y271015D02*
X87255D01*
X60526Y637000D02*
X60339Y639552D01*
X59783Y642049D01*
X58869Y644439D01*
X57617Y646670D01*
X56053Y648695D01*
X54211Y650471D01*
X52130Y651960D01*
X49854Y653130D01*
X47433Y653956D01*
X44917Y654421D01*
X42360Y654514D01*
X39817Y654234D01*
X37341Y653587D01*
X34986Y652587D01*
X32802Y651254D01*
X30836Y649617D01*
X29128Y647711D01*
X27717Y645577D01*
X26630Y643261D01*
X25893Y640811D01*
X25521Y638279D01*
Y635721D01*
X25893Y633189D01*
X26630Y630739D01*
X27717Y628422D01*
X29128Y626288D01*
X30836Y624383D01*
X32802Y622746D01*
X34986Y621413D01*
X37341Y620413D01*
X39817Y619766D01*
X42360Y619486D01*
X44917Y619579D01*
X47433Y620044D01*
X49854Y620870D01*
X52130Y622040D01*
X54211Y623529D01*
X56053Y625305D01*
X57617Y627330D01*
X58869Y629561D01*
X59783Y631951D01*
X60339Y634448D01*
X60526Y637000D01*
X284226Y45720D02*
X284039Y48272D01*
X283483Y50769D01*
X282569Y53159D01*
X281317Y55390D01*
X279753Y57415D01*
X277911Y59191D01*
X275830Y60680D01*
X273554Y61850D01*
X271133Y62676D01*
X268617Y63141D01*
X266060Y63234D01*
X263517Y62955D01*
X261041Y62307D01*
X258686Y61307D01*
X256502Y59974D01*
X254536Y58337D01*
X252828Y56431D01*
X251416Y54297D01*
X250330Y51981D01*
X249593Y49531D01*
X249221Y46999D01*
Y44441D01*
X249593Y41909D01*
X250330Y39459D01*
X251416Y37142D01*
X252828Y35008D01*
X254536Y33103D01*
X256502Y31466D01*
X258686Y30133D01*
X261041Y29133D01*
X263517Y28486D01*
X266060Y28206D01*
X268617Y28299D01*
X271133Y28764D01*
X273554Y29590D01*
X275830Y30760D01*
X277911Y32249D01*
X279753Y34025D01*
X281317Y36050D01*
X282569Y38281D01*
X283483Y40671D01*
X284039Y43168D01*
X284226Y45720D01*
X144526D02*
X144339Y48272D01*
X143783Y50769D01*
X142869Y53159D01*
X141617Y55390D01*
X140053Y57415D01*
X138211Y59191D01*
X136130Y60680D01*
X133855Y61850D01*
X131433Y62676D01*
X128917Y63141D01*
X126360Y63234D01*
X123817Y62955D01*
X121341Y62307D01*
X118986Y61307D01*
X116802Y59974D01*
X114836Y58337D01*
X113128Y56431D01*
X111716Y54297D01*
X110630Y51981D01*
X109893Y49531D01*
X109521Y46999D01*
Y44441D01*
X109893Y41909D01*
X110630Y39459D01*
X111716Y37142D01*
X113128Y35008D01*
X114836Y33103D01*
X116802Y31466D01*
X118986Y30133D01*
X121341Y29133D01*
X123817Y28486D01*
X126360Y28206D01*
X128917Y28299D01*
X131433Y28764D01*
X133855Y29590D01*
X136130Y30760D01*
X138211Y32249D01*
X140053Y34025D01*
X141617Y36050D01*
X142869Y38281D01*
X143783Y40671D01*
X144339Y43168D01*
X144526Y45720D01*
X31194Y312928D02*
X48212D01*
X31194D02*
Y322072D01*
X48212D01*
Y312928D02*
Y322072D01*
X26622Y324612D02*
X52784D01*
X26622Y310388D02*
Y324612D01*
Y310388D02*
X52784D01*
Y324612D01*
X351981Y207662D02*
X368999D01*
Y198518D02*
Y207662D01*
X351981Y198518D02*
X368999D01*
X351981D02*
Y207662D01*
X347409Y195978D02*
X373571D01*
Y210202D01*
X347409D02*
X373571D01*
X347409Y195978D02*
Y210202D01*
X94212Y713208D02*
Y730226D01*
X85068Y713208D02*
X94212D01*
X85068D02*
Y730226D01*
X94212D01*
X82528Y708636D02*
Y734798D01*
Y708636D02*
X96752D01*
Y734798D01*
X82528D02*
X96752D01*
X365580Y481043D02*
Y498061D01*
X374725D01*
Y481043D02*
Y498061D01*
X365580Y481043D02*
X374725D01*
X377265Y476471D02*
Y502633D01*
X363041D02*
X377265D01*
X363041Y476471D02*
Y502633D01*
Y476471D02*
X377265D01*
X87862Y631084D02*
X104880D01*
Y621940D02*
Y631084D01*
X87862Y621940D02*
X104880D01*
X87862D02*
Y631084D01*
X83290Y619400D02*
X109452D01*
Y633624D01*
X83290D02*
X109452D01*
X83290Y619400D02*
Y633624D01*
X222081Y203888D02*
Y218112D01*
X195919Y203888D02*
X222081D01*
X195919D02*
Y218112D01*
X222081D01*
X217509Y206428D02*
Y215572D01*
X200491D02*
X217509D01*
X200491Y206428D02*
Y215572D01*
Y206428D02*
X217509D01*
X323088Y63119D02*
X337312D01*
X323088D02*
Y89281D01*
X337312D01*
Y63119D02*
Y89281D01*
X325628Y67691D02*
X334772D01*
Y84709D01*
X325628D02*
X334772D01*
X325628Y67691D02*
Y84709D01*
X183388Y63119D02*
X197612D01*
X183388D02*
Y89281D01*
X197612D01*
Y63119D02*
Y89281D01*
X185928Y67691D02*
X195072D01*
Y84709D01*
X185928D02*
X195072D01*
X185928Y67691D02*
Y84709D01*
X44895Y89264D02*
X59119D01*
Y63102D02*
Y89264D01*
X44895Y63102D02*
X59119D01*
X44895D02*
Y89264D01*
X47435Y84692D02*
X56579D01*
X47435Y67674D02*
Y84692D01*
Y67674D02*
X56579D01*
Y84692D01*
X254924Y250071D02*
X269656D01*
X254924D02*
Y279789D01*
X269656D01*
Y250071D02*
Y279789D01*
X256254Y348361D02*
X270986D01*
X256254D02*
Y378079D01*
X270986D01*
Y348361D02*
Y378079D01*
X78475Y527220D02*
X97525D01*
X78475D02*
Y539666D01*
X68696D02*
X78475D01*
X68696D02*
Y550334D01*
X78475D01*
Y562780D01*
X97525D01*
Y559859D02*
Y562780D01*
Y527220D02*
Y530141D01*
Y559859D02*
X107304D01*
X97525Y530141D02*
X107304D01*
Y559859D01*
X81015Y529760D02*
Y560240D01*
X94985D01*
Y529760D02*
Y560240D01*
X81015Y529760D02*
X94985D01*
X76280Y390245D02*
X90505D01*
X76280Y368655D02*
Y390245D01*
X90505Y368655D02*
Y390245D01*
X76280Y368655D02*
X90505D01*
X65231Y366115D02*
X101553D01*
Y392785D01*
X65231D02*
X101553D01*
X65231Y366115D02*
Y392785D01*
X67909Y246885D02*
Y273555D01*
X104231D01*
Y246885D02*
Y273555D01*
X67909Y246885D02*
X104231D01*
X78958Y249425D02*
X93182D01*
Y271015D01*
X78958Y249425D02*
Y271015D01*
X93182D01*
X25776Y295483D02*
Y308692D01*
X53970D01*
Y295483D02*
Y308692D01*
X25776Y295483D02*
X53970D01*
X31872Y298023D02*
Y306152D01*
Y298023D02*
X47874D01*
Y306152D01*
X31872D02*
X47874D01*
X65592Y707620D02*
X78800D01*
X65592D02*
Y735814D01*
X78800D01*
Y707620D02*
Y735814D01*
X68132Y713716D02*
X76260D01*
Y729718D01*
X68132D02*
X76260D01*
X68132Y713716D02*
Y729718D01*
X30746Y735510D02*
X43954D01*
Y707316D02*
Y735510D01*
X30746Y707316D02*
X43954D01*
X30746D02*
Y735510D01*
X33286Y729414D02*
X41414D01*
X33286Y713412D02*
Y729414D01*
Y713412D02*
X41414D01*
Y729414D01*
X48152Y707620D02*
X61360D01*
X48152D02*
Y735814D01*
X61360D01*
Y707620D02*
Y735814D01*
X50692Y713716D02*
X58820D01*
Y729718D01*
X50692D02*
X58820D01*
X50692Y713716D02*
Y729718D01*
X222377Y125476D02*
Y138684D01*
X194183Y125476D02*
X222377D01*
X194183D02*
Y138684D01*
X222377D01*
X216281Y128016D02*
Y136144D01*
X200279D02*
X216281D01*
X200279Y128016D02*
Y136144D01*
Y128016D02*
X216281D01*
X194183Y140716D02*
Y153924D01*
X222377D01*
Y140716D02*
Y153924D01*
X194183Y140716D02*
X222377D01*
X200279Y143256D02*
Y151384D01*
Y143256D02*
X216281D01*
Y151384D01*
X200279D02*
X216281D01*
X194183Y155956D02*
Y169164D01*
X222377D01*
Y155956D02*
Y169164D01*
X194183Y155956D02*
X222377D01*
X200279Y158496D02*
Y166624D01*
Y158496D02*
X216281D01*
Y166624D01*
X200279D02*
X216281D01*
X222250Y171196D02*
Y184404D01*
X194056Y171196D02*
X222250D01*
X194056D02*
Y184404D01*
X222250D01*
X216154Y173736D02*
Y181864D01*
X200152D02*
X216154D01*
X200152Y173736D02*
Y181864D01*
Y173736D02*
X216154D01*
X273186Y250833D02*
X286394D01*
X273186D02*
Y279027D01*
X286394D01*
Y250833D02*
Y279027D01*
X275726Y256929D02*
X283854D01*
Y272931D01*
X275726D02*
X283854D01*
X275726Y256929D02*
Y272931D01*
X302097Y233396D02*
Y246604D01*
X273903Y233396D02*
X302097D01*
X273903D02*
Y246604D01*
X302097D01*
X296001Y235936D02*
Y244064D01*
X279999D02*
X296001D01*
X279999Y235936D02*
Y244064D01*
Y235936D02*
X296001D01*
X118936Y301999D02*
Y318001D01*
X127064D01*
Y301999D02*
Y318001D01*
X118936Y301999D02*
X127064D01*
X129604Y295903D02*
Y324097D01*
X116396D02*
X129604D01*
X116396Y295903D02*
Y324097D01*
Y295903D02*
X129604D01*
X340936Y361999D02*
Y378001D01*
X349064D01*
Y361999D02*
Y378001D01*
X340936Y361999D02*
X349064D01*
X351604Y355903D02*
Y384097D01*
X338396D02*
X351604D01*
X338396Y355903D02*
Y384097D01*
Y355903D02*
X351604D01*
X274796Y349123D02*
X288004D01*
X274796D02*
Y377317D01*
X288004D01*
Y349123D02*
Y377317D01*
X277336Y355219D02*
X285464D01*
Y371221D01*
X277336D02*
X285464D01*
X277336Y355219D02*
Y371221D01*
X61436Y293243D02*
X74644D01*
X61436D02*
Y321437D01*
X74644D01*
Y293243D02*
Y321437D01*
X63976Y299339D02*
X72104D01*
Y315341D01*
X63976D02*
X72104D01*
X63976Y299339D02*
Y315341D01*
X302990Y331216D02*
Y344424D01*
X274796Y331216D02*
X302990D01*
X274796D02*
Y344424D01*
X302990D01*
X296894Y333756D02*
Y341884D01*
X280892D02*
X296894D01*
X280892Y333756D02*
Y341884D01*
Y333756D02*
X296894D01*
X13028Y607028D02*
Y666972D01*
X72972Y607028D02*
Y666972D01*
X13028Y607028D02*
X72972D01*
X13028Y666972D02*
X72972D01*
X10488Y669512D02*
X11483D01*
X10488Y604488D02*
Y669512D01*
Y604488D02*
X11483D01*
X74517D02*
X75512D01*
Y669512D01*
X74517D02*
X75512D01*
X11483D02*
Y687037D01*
Y586963D02*
Y604488D01*
Y586963D02*
X74517D01*
Y604488D01*
Y669512D02*
Y687037D01*
X11483D02*
X74517D01*
X316737Y14203D02*
Y77237D01*
X299212Y14203D02*
X316737D01*
X216663D02*
X234188D01*
X216663D02*
Y77237D01*
X234188D01*
X299212D02*
X316737D01*
X299212Y13208D02*
Y14203D01*
X234188Y13208D02*
X299212D01*
X234188D02*
Y14203D01*
Y77237D02*
Y78232D01*
X299212D01*
Y77237D02*
Y78232D01*
X296672Y15748D02*
Y75692D01*
X236728Y15748D02*
Y75692D01*
Y15748D02*
X296672D01*
X236728Y75692D02*
X296672D01*
X97028D02*
X156972D01*
X97028Y15748D02*
X156972D01*
X97028D02*
Y75692D01*
X156972Y15748D02*
Y75692D01*
X159512Y77237D02*
Y78232D01*
X94488D02*
X159512D01*
X94488Y77237D02*
Y78232D01*
Y13208D02*
Y14203D01*
Y13208D02*
X159512D01*
Y14203D01*
Y77237D02*
X177037D01*
X76963D02*
X94488D01*
X76963Y14203D02*
Y77237D01*
Y14203D02*
X94488D01*
X159512D02*
X177037D01*
Y77237D01*
D84*
X73380Y476872D02*
Y503872D01*
Y476872D02*
X108380D01*
Y503872D01*
X73380D02*
X108380D01*
M02*
