G04*
G04 #@! TF.GenerationSoftware,Altium Limited,Altium Designer,22.4.2 (48)*
G04*
G04 Layer_Color=16711935*
%FSLAX44Y44*%
%MOMM*%
G71*
G04*
G04 #@! TF.SameCoordinates,FFC21B23-D813-4AC5-8D0E-201BBD69237A*
G04*
G04*
G04 #@! TF.FilePolarity,Positive*
G04*
G01*
G75*
%ADD12C,0.2000*%
%ADD18C,0.1000*%
%ADD84C,0.0500*%
D12*
X129840Y470000D02*
Y800000D01*
X349840D01*
X129840Y470000D02*
X349840D01*
Y800000D01*
D18*
X272999Y142999D02*
Y150998D01*
X256998Y142999D02*
X272999D01*
X256998D02*
Y150998D01*
X272999D01*
X161186Y247612D02*
Y265612D01*
X171186Y247612D02*
Y265612D01*
X161186Y247612D02*
X171186D01*
X161186Y265612D02*
X171186D01*
X130122Y247838D02*
Y265838D01*
X140122Y247838D02*
Y265838D01*
X130122Y247838D02*
X140122D01*
X130122Y265838D02*
X140122D01*
X184500Y297500D02*
X193500D01*
X184500Y314500D02*
X193500D01*
X184500Y297500D02*
Y314500D01*
X193500Y297500D02*
Y314500D01*
X93250Y237750D02*
X102750D01*
X93250Y220250D02*
X102750D01*
Y237750D01*
X93250Y220250D02*
Y237750D01*
X409507Y283349D02*
X485707D01*
X409507D02*
Y308749D01*
X485707D01*
Y283349D02*
Y308749D01*
X32700Y496410D02*
Y572610D01*
X7300Y496410D02*
X32700D01*
X7300D02*
Y572610D01*
X32700D01*
X365554Y346392D02*
X390954D01*
Y422592D01*
X365554D02*
X390954D01*
X365554Y346392D02*
Y422592D01*
X408491Y242201D02*
Y267601D01*
Y242201D02*
X484691D01*
Y267601D01*
X408491D02*
X484691D01*
X219500Y291500D02*
X250500D01*
Y322500D01*
X219750D02*
X250500D01*
X219500Y322750D02*
X219750Y322500D01*
X219500Y291500D02*
Y322750D01*
X218500Y388500D02*
X249500D01*
Y419500D01*
X218750D02*
X249500D01*
X218500Y419750D02*
X218750Y419500D01*
X218500Y388500D02*
Y419750D01*
X352490Y222090D02*
X368490D01*
X352490Y214090D02*
X368490D01*
X352490D02*
Y222090D01*
X368490Y214090D02*
Y222090D01*
X455099Y315751D02*
Y323751D01*
X439099Y315751D02*
Y323751D01*
Y315751D02*
X455099D01*
X439099Y323751D02*
X455099D01*
X88371Y646362D02*
X104371D01*
X88371Y638362D02*
X104371D01*
X88371D02*
Y646362D01*
X104371Y638362D02*
Y646362D01*
X313500Y444263D02*
Y452263D01*
X329500Y444263D02*
Y452263D01*
X313500D02*
X329500D01*
X313500Y444263D02*
X329500D01*
X84000Y516000D02*
X100000D01*
X84000Y524000D02*
X100000D01*
Y516000D02*
Y524000D01*
X84000Y516000D02*
Y524000D01*
X341440Y84200D02*
X349440D01*
X341440Y68200D02*
X349440D01*
Y84200D01*
X341440Y68200D02*
Y84200D01*
X201740D02*
X209740D01*
X201740Y68200D02*
X209740D01*
Y84200D01*
X201740Y68200D02*
Y84200D01*
X216000Y189000D02*
Y197000D01*
X200000Y189000D02*
Y197000D01*
Y189000D02*
X216000D01*
X200000Y197000D02*
X216000D01*
X64580Y68200D02*
X72580D01*
X64580Y84200D02*
X72580D01*
X64580Y68200D02*
Y84200D01*
X72580Y68200D02*
Y84200D01*
X22000Y182000D02*
X38000D01*
X22000Y174000D02*
X38000D01*
X22000D02*
Y182000D01*
X38000Y174000D02*
Y182000D01*
X52960Y221306D02*
X68960D01*
X52960Y213307D02*
X68960D01*
X52960D02*
Y221306D01*
X68960Y213307D02*
Y221306D01*
X315505Y268685D02*
Y277685D01*
X332505Y268685D02*
Y277685D01*
X315505D02*
X332505D01*
X315505Y268685D02*
X332505D01*
X52960Y201059D02*
X68960D01*
X52960Y209059D02*
X68960D01*
Y201059D02*
Y209059D01*
X52960Y201059D02*
Y209059D01*
X22000Y169923D02*
X38000D01*
X22000Y161924D02*
X38000D01*
X22000D02*
Y169923D01*
X38000Y161924D02*
Y169923D01*
X439099Y225755D02*
X455099D01*
X439099Y233755D02*
X455099D01*
Y225755D02*
Y233755D01*
X439099Y225755D02*
Y233755D01*
X316000Y117000D02*
X382000D01*
X316000Y177000D02*
X382000D01*
Y117000D02*
Y177000D01*
X316000Y117000D02*
Y177000D01*
X370860Y75720D02*
X436860D01*
X370860Y15720D02*
X436860D01*
X370860D02*
Y75720D01*
X436860Y15720D02*
Y75720D01*
X248680Y251540D02*
Y283540D01*
X218680Y251540D02*
X248680D01*
X218680D02*
Y283540D01*
X248680D01*
X138690Y302330D02*
X158690D01*
Y322330D01*
X138690D02*
X158690D01*
X138690Y302330D02*
Y322330D01*
X248140Y349760D02*
Y381760D01*
X218140Y349760D02*
X248140D01*
X218140D02*
Y381760D01*
X248140D01*
X326000Y196000D02*
Y226000D01*
X294000D02*
X326000D01*
X294000Y196000D02*
Y226000D01*
Y196000D02*
X326000D01*
X355000Y396000D02*
Y404000D01*
X339000Y396000D02*
Y404000D01*
Y396000D02*
X355000D01*
X339000Y404000D02*
X355000D01*
D84*
X15240Y193040D02*
Y218440D01*
Y193040D02*
X40640D01*
Y218440D01*
X15240D02*
X40640D01*
X137680Y356290D02*
X163080D01*
Y330890D02*
Y356290D01*
X137680Y330890D02*
X163080D01*
X137680D02*
Y356290D01*
M02*
