G04*
G04 #@! TF.GenerationSoftware,Altium Limited,Altium Designer,22.4.2 (48)*
G04*
G04 Layer_Color=16711935*
%FSLAX44Y44*%
%MOMM*%
G71*
G04*
G04 #@! TF.SameCoordinates,FFC21B23-D813-4AC5-8D0E-201BBD69237A*
G04*
G04*
G04 #@! TF.FilePolarity,Positive*
G04*
G01*
G75*
%ADD10C,0.2540*%
%ADD12C,0.2000*%
%ADD82C,0.0254*%
G36*
X44067Y-15217D02*
X44166D01*
X44279Y-15231D01*
X44546Y-15287D01*
X44843Y-15358D01*
X45153Y-15470D01*
X45463Y-15640D01*
X45618Y-15738D01*
X45759Y-15851D01*
X45773Y-15865D01*
X45787Y-15879D01*
X45829Y-15921D01*
X45872Y-15964D01*
X45942Y-16034D01*
X45999Y-16119D01*
X46154Y-16316D01*
X46309Y-16570D01*
X46450Y-16880D01*
X46576Y-17233D01*
X46661Y-17627D01*
X45463Y-17726D01*
Y-17712D01*
X45449Y-17698D01*
X45435Y-17613D01*
X45392Y-17486D01*
X45336Y-17331D01*
X45280Y-17162D01*
X45195Y-16993D01*
X45096Y-16838D01*
X44998Y-16711D01*
X44969Y-16683D01*
X44913Y-16626D01*
X44814Y-16542D01*
X44673Y-16443D01*
X44490Y-16358D01*
X44293Y-16274D01*
X44053Y-16218D01*
X43799Y-16189D01*
X43701D01*
X43588Y-16204D01*
X43461Y-16232D01*
X43292Y-16274D01*
X43123Y-16330D01*
X42954Y-16401D01*
X42784Y-16514D01*
X42756Y-16528D01*
X42686Y-16584D01*
X42587Y-16683D01*
X42460Y-16824D01*
X42319Y-16993D01*
X42164Y-17190D01*
X42023Y-17444D01*
X41882Y-17726D01*
Y-17740D01*
X41868Y-17768D01*
X41854Y-17810D01*
X41826Y-17867D01*
X41812Y-17952D01*
X41783Y-18050D01*
X41755Y-18163D01*
X41727Y-18304D01*
X41685Y-18459D01*
X41657Y-18628D01*
X41628Y-18811D01*
X41614Y-19009D01*
X41586Y-19234D01*
X41572Y-19460D01*
X41558Y-19714D01*
Y-19967D01*
X41572Y-19953D01*
X41628Y-19869D01*
X41727Y-19756D01*
X41854Y-19615D01*
X41995Y-19446D01*
X42178Y-19291D01*
X42376Y-19136D01*
X42601Y-18995D01*
X42615D01*
X42629Y-18981D01*
X42714Y-18938D01*
X42841Y-18896D01*
X43010Y-18826D01*
X43207Y-18769D01*
X43433Y-18727D01*
X43672Y-18685D01*
X43926Y-18670D01*
X44039D01*
X44124Y-18685D01*
X44236Y-18699D01*
X44349Y-18713D01*
X44490Y-18741D01*
X44631Y-18783D01*
X44955Y-18882D01*
X45125Y-18952D01*
X45294Y-19051D01*
X45463Y-19150D01*
X45646Y-19262D01*
X45815Y-19404D01*
X45970Y-19559D01*
X45984Y-19573D01*
X46013Y-19601D01*
X46055Y-19643D01*
X46097Y-19714D01*
X46168Y-19812D01*
X46238Y-19911D01*
X46309Y-20038D01*
X46393Y-20179D01*
X46478Y-20334D01*
X46548Y-20503D01*
X46619Y-20700D01*
X46689Y-20898D01*
X46732Y-21109D01*
X46774Y-21349D01*
X46802Y-21588D01*
X46816Y-21842D01*
Y-21856D01*
Y-21885D01*
Y-21927D01*
Y-21997D01*
X46802Y-22082D01*
Y-22167D01*
X46760Y-22392D01*
X46718Y-22660D01*
X46647Y-22942D01*
X46548Y-23252D01*
X46407Y-23548D01*
Y-23562D01*
X46393Y-23576D01*
X46365Y-23619D01*
X46337Y-23675D01*
X46252Y-23816D01*
X46125Y-23999D01*
X45970Y-24197D01*
X45787Y-24394D01*
X45561Y-24591D01*
X45322Y-24760D01*
X45308D01*
X45294Y-24774D01*
X45251Y-24803D01*
X45195Y-24817D01*
X45054Y-24887D01*
X44871Y-24958D01*
X44631Y-25042D01*
X44363Y-25099D01*
X44067Y-25155D01*
X43743Y-25169D01*
X43672D01*
X43602Y-25155D01*
X43489D01*
X43362Y-25141D01*
X43221Y-25113D01*
X43052Y-25071D01*
X42883Y-25028D01*
X42686Y-24972D01*
X42488Y-24901D01*
X42291Y-24817D01*
X42080Y-24704D01*
X41882Y-24577D01*
X41685Y-24436D01*
X41487Y-24267D01*
X41304Y-24070D01*
X41290Y-24056D01*
X41262Y-24013D01*
X41220Y-23957D01*
X41163Y-23858D01*
X41079Y-23731D01*
X41008Y-23590D01*
X40924Y-23407D01*
X40839Y-23210D01*
X40740Y-22970D01*
X40656Y-22702D01*
X40585Y-22406D01*
X40515Y-22082D01*
X40444Y-21715D01*
X40402Y-21321D01*
X40374Y-20898D01*
X40360Y-20447D01*
Y-20433D01*
Y-20419D01*
Y-20376D01*
Y-20320D01*
X40374Y-20179D01*
Y-19981D01*
X40388Y-19756D01*
X40416Y-19488D01*
X40444Y-19192D01*
X40487Y-18868D01*
X40543Y-18544D01*
X40613Y-18191D01*
X40698Y-17853D01*
X40797Y-17514D01*
X40924Y-17190D01*
X41065Y-16880D01*
X41220Y-16584D01*
X41403Y-16330D01*
X41417Y-16316D01*
X41445Y-16288D01*
X41502Y-16232D01*
X41572Y-16147D01*
X41657Y-16063D01*
X41769Y-15978D01*
X41910Y-15865D01*
X42051Y-15767D01*
X42221Y-15668D01*
X42404Y-15555D01*
X42615Y-15470D01*
X42827Y-15372D01*
X43066Y-15301D01*
X43320Y-15245D01*
X43588Y-15217D01*
X43870Y-15203D01*
X43983D01*
X44067Y-15217D01*
D02*
G37*
G36*
X96846Y-15090D02*
X96945D01*
X97213Y-15118D01*
X97509Y-15160D01*
X97819Y-15231D01*
X98157Y-15315D01*
X98468Y-15428D01*
X98482D01*
X98510Y-15442D01*
X98552Y-15470D01*
X98609Y-15499D01*
X98750Y-15569D01*
X98933Y-15696D01*
X99144Y-15837D01*
X99356Y-16020D01*
X99553Y-16232D01*
X99736Y-16471D01*
Y-16485D01*
X99750Y-16500D01*
X99779Y-16542D01*
X99807Y-16584D01*
X99877Y-16725D01*
X99962Y-16908D01*
X100061Y-17134D01*
X100131Y-17402D01*
X100202Y-17684D01*
X100230Y-17994D01*
X98989Y-18092D01*
Y-18078D01*
Y-18050D01*
X98975Y-18008D01*
X98961Y-17937D01*
X98919Y-17782D01*
X98862Y-17571D01*
X98778Y-17345D01*
X98651Y-17120D01*
X98496Y-16908D01*
X98298Y-16711D01*
X98270Y-16697D01*
X98200Y-16640D01*
X98059Y-16556D01*
X97875Y-16471D01*
X97636Y-16387D01*
X97354Y-16302D01*
X97001Y-16246D01*
X96607Y-16232D01*
X96409D01*
X96325Y-16246D01*
X96212Y-16260D01*
X95958Y-16288D01*
X95676Y-16344D01*
X95394Y-16415D01*
X95127Y-16528D01*
X95014Y-16598D01*
X94901Y-16669D01*
X94873Y-16683D01*
X94816Y-16739D01*
X94732Y-16838D01*
X94647Y-16951D01*
X94549Y-17106D01*
X94464Y-17275D01*
X94408Y-17472D01*
X94379Y-17698D01*
Y-17726D01*
Y-17782D01*
X94394Y-17881D01*
X94422Y-17994D01*
X94464Y-18135D01*
X94535Y-18276D01*
X94619Y-18417D01*
X94746Y-18558D01*
X94760Y-18572D01*
X94831Y-18614D01*
X94887Y-18656D01*
X94943Y-18685D01*
X95028Y-18727D01*
X95127Y-18783D01*
X95253Y-18826D01*
X95394Y-18882D01*
X95549Y-18938D01*
X95733Y-19009D01*
X95930Y-19065D01*
X96156Y-19136D01*
X96409Y-19192D01*
X96691Y-19262D01*
X96705D01*
X96762Y-19277D01*
X96846Y-19291D01*
X96945Y-19319D01*
X97072Y-19347D01*
X97227Y-19389D01*
X97382Y-19432D01*
X97551Y-19474D01*
X97918Y-19573D01*
X98270Y-19671D01*
X98439Y-19728D01*
X98594Y-19784D01*
X98735Y-19826D01*
X98848Y-19883D01*
X98862D01*
X98890Y-19897D01*
X98933Y-19925D01*
X98989Y-19953D01*
X99144Y-20038D01*
X99327Y-20151D01*
X99539Y-20306D01*
X99750Y-20475D01*
X99948Y-20672D01*
X100117Y-20884D01*
X100131Y-20912D01*
X100187Y-20982D01*
X100244Y-21109D01*
X100328Y-21278D01*
X100399Y-21476D01*
X100469Y-21715D01*
X100512Y-21983D01*
X100526Y-22265D01*
Y-22279D01*
Y-22293D01*
Y-22336D01*
Y-22392D01*
X100498Y-22547D01*
X100469Y-22745D01*
X100413Y-22970D01*
X100342Y-23210D01*
X100230Y-23463D01*
X100075Y-23731D01*
Y-23745D01*
X100061Y-23760D01*
X99990Y-23844D01*
X99891Y-23971D01*
X99750Y-24112D01*
X99567Y-24281D01*
X99342Y-24464D01*
X99088Y-24634D01*
X98792Y-24788D01*
X98778D01*
X98750Y-24803D01*
X98707Y-24817D01*
X98651Y-24845D01*
X98566Y-24873D01*
X98468Y-24915D01*
X98242Y-24972D01*
X97974Y-25042D01*
X97650Y-25113D01*
X97297Y-25155D01*
X96917Y-25169D01*
X96691D01*
X96579Y-25155D01*
X96452D01*
X96311Y-25141D01*
X96142Y-25127D01*
X95789Y-25071D01*
X95423Y-25014D01*
X95056Y-24915D01*
X94704Y-24788D01*
X94690D01*
X94661Y-24774D01*
X94619Y-24746D01*
X94563Y-24718D01*
X94394Y-24634D01*
X94196Y-24507D01*
X93971Y-24337D01*
X93731Y-24140D01*
X93505Y-23900D01*
X93294Y-23633D01*
Y-23619D01*
X93266Y-23590D01*
X93252Y-23548D01*
X93209Y-23492D01*
X93181Y-23421D01*
X93139Y-23337D01*
X93040Y-23125D01*
X92942Y-22857D01*
X92857Y-22561D01*
X92801Y-22223D01*
X92772Y-21871D01*
X93985Y-21758D01*
Y-21772D01*
Y-21786D01*
X93999Y-21828D01*
Y-21885D01*
X94027Y-22011D01*
X94069Y-22195D01*
X94126Y-22378D01*
X94182Y-22589D01*
X94281Y-22787D01*
X94379Y-22970D01*
X94394Y-22984D01*
X94436Y-23040D01*
X94506Y-23139D01*
X94619Y-23238D01*
X94760Y-23365D01*
X94915Y-23492D01*
X95127Y-23619D01*
X95352Y-23731D01*
X95366D01*
X95380Y-23745D01*
X95423Y-23760D01*
X95465Y-23774D01*
X95606Y-23816D01*
X95789Y-23872D01*
X96015Y-23929D01*
X96268Y-23971D01*
X96550Y-23999D01*
X96861Y-24013D01*
X96987D01*
X97128Y-23999D01*
X97297Y-23985D01*
X97495Y-23957D01*
X97720Y-23929D01*
X97946Y-23872D01*
X98157Y-23802D01*
X98186Y-23788D01*
X98256Y-23760D01*
X98355Y-23703D01*
X98482Y-23647D01*
X98609Y-23548D01*
X98750Y-23449D01*
X98890Y-23337D01*
X99003Y-23196D01*
X99017Y-23182D01*
X99045Y-23125D01*
X99088Y-23055D01*
X99144Y-22942D01*
X99201Y-22829D01*
X99243Y-22688D01*
X99271Y-22533D01*
X99285Y-22364D01*
Y-22350D01*
Y-22279D01*
X99271Y-22195D01*
X99257Y-22082D01*
X99215Y-21969D01*
X99172Y-21828D01*
X99102Y-21687D01*
X99003Y-21560D01*
X98989Y-21546D01*
X98947Y-21504D01*
X98890Y-21448D01*
X98792Y-21363D01*
X98679Y-21278D01*
X98524Y-21180D01*
X98341Y-21081D01*
X98129Y-20996D01*
X98115Y-20982D01*
X98045Y-20968D01*
X97932Y-20926D01*
X97861Y-20912D01*
X97763Y-20884D01*
X97664Y-20841D01*
X97537Y-20813D01*
X97396Y-20771D01*
X97227Y-20729D01*
X97058Y-20686D01*
X96861Y-20630D01*
X96635Y-20573D01*
X96395Y-20517D01*
X96381D01*
X96339Y-20503D01*
X96268Y-20489D01*
X96184Y-20461D01*
X96071Y-20433D01*
X95944Y-20404D01*
X95662Y-20320D01*
X95352Y-20221D01*
X95028Y-20122D01*
X94746Y-20024D01*
X94619Y-19967D01*
X94506Y-19911D01*
X94492D01*
X94478Y-19897D01*
X94394Y-19841D01*
X94267Y-19770D01*
X94126Y-19657D01*
X93956Y-19530D01*
X93787Y-19375D01*
X93618Y-19192D01*
X93477Y-18995D01*
X93463Y-18966D01*
X93421Y-18896D01*
X93364Y-18783D01*
X93308Y-18642D01*
X93252Y-18459D01*
X93195Y-18247D01*
X93153Y-18022D01*
X93139Y-17782D01*
Y-17768D01*
Y-17754D01*
Y-17712D01*
Y-17656D01*
X93167Y-17514D01*
X93195Y-17331D01*
X93238Y-17120D01*
X93308Y-16880D01*
X93407Y-16640D01*
X93548Y-16401D01*
Y-16387D01*
X93562Y-16373D01*
X93632Y-16288D01*
X93731Y-16175D01*
X93858Y-16034D01*
X94027Y-15879D01*
X94238Y-15710D01*
X94492Y-15555D01*
X94774Y-15414D01*
X94788D01*
X94816Y-15400D01*
X94859Y-15386D01*
X94915Y-15358D01*
X94986Y-15330D01*
X95084Y-15301D01*
X95296Y-15245D01*
X95564Y-15188D01*
X95874Y-15132D01*
X96198Y-15090D01*
X96564Y-15076D01*
X96748D01*
X96846Y-15090D01*
D02*
G37*
G36*
X77040Y-19883D02*
X80691Y-25000D01*
X79098D01*
X76631Y-21532D01*
X76617Y-21518D01*
X76589Y-21476D01*
X76561Y-21419D01*
X76504Y-21349D01*
X76378Y-21151D01*
X76237Y-20940D01*
X76223Y-20954D01*
X76180Y-21010D01*
X76124Y-21095D01*
X76053Y-21208D01*
X75898Y-21433D01*
X75828Y-21532D01*
X75771Y-21617D01*
X73304Y-25000D01*
X71754D01*
X75518Y-19953D01*
X72191Y-15245D01*
X73727D01*
X75504Y-17754D01*
Y-17768D01*
X75532Y-17782D01*
X75560Y-17825D01*
X75602Y-17881D01*
X75687Y-18022D01*
X75814Y-18191D01*
X75940Y-18389D01*
X76067Y-18586D01*
X76180Y-18769D01*
X76279Y-18938D01*
X76293Y-18910D01*
X76335Y-18854D01*
X76406Y-18741D01*
X76504Y-18600D01*
X76617Y-18445D01*
X76758Y-18247D01*
X76899Y-18050D01*
X77068Y-17839D01*
X79014Y-15245D01*
X80423D01*
X77040Y-19883D01*
D02*
G37*
G36*
X36187Y-15217D02*
X36370Y-15245D01*
X36596Y-15287D01*
X36850Y-15358D01*
X37103Y-15442D01*
X37357Y-15555D01*
X37371D01*
X37385Y-15569D01*
X37470Y-15611D01*
X37597Y-15696D01*
X37738Y-15795D01*
X37907Y-15936D01*
X38076Y-16091D01*
X38245Y-16274D01*
X38386Y-16485D01*
X38400Y-16514D01*
X38442Y-16584D01*
X38499Y-16711D01*
X38569Y-16866D01*
X38640Y-17049D01*
X38696Y-17261D01*
X38739Y-17500D01*
X38753Y-17740D01*
Y-17768D01*
Y-17853D01*
X38739Y-17966D01*
X38710Y-18121D01*
X38668Y-18304D01*
X38598Y-18501D01*
X38513Y-18699D01*
X38400Y-18896D01*
X38386Y-18924D01*
X38344Y-18981D01*
X38259Y-19079D01*
X38147Y-19192D01*
X38005Y-19319D01*
X37836Y-19460D01*
X37639Y-19587D01*
X37399Y-19714D01*
X37413D01*
X37442Y-19728D01*
X37484Y-19742D01*
X37540Y-19756D01*
X37695Y-19812D01*
X37893Y-19897D01*
X38118Y-20010D01*
X38344Y-20151D01*
X38555Y-20334D01*
X38753Y-20545D01*
X38767Y-20573D01*
X38823Y-20658D01*
X38908Y-20799D01*
X38992Y-20982D01*
X39077Y-21208D01*
X39162Y-21476D01*
X39218Y-21786D01*
X39232Y-22124D01*
Y-22138D01*
Y-22181D01*
Y-22251D01*
X39218Y-22336D01*
X39204Y-22448D01*
X39176Y-22575D01*
X39147Y-22716D01*
X39119Y-22871D01*
X39006Y-23210D01*
X38922Y-23393D01*
X38837Y-23562D01*
X38725Y-23745D01*
X38598Y-23929D01*
X38457Y-24112D01*
X38287Y-24281D01*
X38273Y-24295D01*
X38245Y-24323D01*
X38189Y-24366D01*
X38118Y-24422D01*
X38034Y-24492D01*
X37921Y-24563D01*
X37794Y-24648D01*
X37639Y-24718D01*
X37484Y-24803D01*
X37301Y-24887D01*
X37117Y-24958D01*
X36906Y-25028D01*
X36680Y-25085D01*
X36441Y-25127D01*
X36201Y-25155D01*
X35933Y-25169D01*
X35806D01*
X35722Y-25155D01*
X35609Y-25141D01*
X35482Y-25127D01*
X35341Y-25099D01*
X35186Y-25071D01*
X34848Y-24986D01*
X34495Y-24845D01*
X34312Y-24760D01*
X34143Y-24662D01*
X33974Y-24535D01*
X33805Y-24408D01*
X33791Y-24394D01*
X33762Y-24366D01*
X33720Y-24323D01*
X33678Y-24267D01*
X33607Y-24197D01*
X33537Y-24098D01*
X33452Y-23999D01*
X33368Y-23872D01*
X33283Y-23731D01*
X33198Y-23590D01*
X33043Y-23252D01*
X32917Y-22857D01*
X32874Y-22646D01*
X32846Y-22420D01*
X34044Y-22265D01*
Y-22279D01*
X34058Y-22308D01*
X34072Y-22364D01*
X34086Y-22434D01*
X34101Y-22519D01*
X34129Y-22618D01*
X34199Y-22829D01*
X34298Y-23083D01*
X34425Y-23323D01*
X34566Y-23548D01*
X34735Y-23745D01*
X34763Y-23760D01*
X34820Y-23816D01*
X34932Y-23886D01*
X35073Y-23957D01*
X35243Y-24041D01*
X35454Y-24112D01*
X35694Y-24168D01*
X35947Y-24182D01*
X36032D01*
X36088Y-24168D01*
X36243Y-24154D01*
X36441Y-24112D01*
X36666Y-24041D01*
X36906Y-23943D01*
X37146Y-23802D01*
X37371Y-23604D01*
X37399Y-23576D01*
X37470Y-23492D01*
X37554Y-23365D01*
X37667Y-23196D01*
X37780Y-22984D01*
X37864Y-22745D01*
X37935Y-22462D01*
X37963Y-22152D01*
Y-22138D01*
Y-22110D01*
Y-22068D01*
X37949Y-22011D01*
X37935Y-21856D01*
X37893Y-21673D01*
X37836Y-21448D01*
X37738Y-21222D01*
X37597Y-20996D01*
X37413Y-20785D01*
X37385Y-20757D01*
X37315Y-20700D01*
X37202Y-20616D01*
X37047Y-20517D01*
X36850Y-20419D01*
X36610Y-20334D01*
X36342Y-20278D01*
X36046Y-20249D01*
X35919D01*
X35821Y-20263D01*
X35694Y-20278D01*
X35553Y-20306D01*
X35384Y-20334D01*
X35200Y-20376D01*
X35341Y-19319D01*
X35412D01*
X35468Y-19333D01*
X35651D01*
X35806Y-19305D01*
X35990Y-19277D01*
X36201Y-19234D01*
X36441Y-19164D01*
X36666Y-19065D01*
X36906Y-18938D01*
X36920D01*
X36934Y-18924D01*
X37005Y-18868D01*
X37103Y-18769D01*
X37216Y-18642D01*
X37329Y-18459D01*
X37427Y-18247D01*
X37498Y-18008D01*
X37526Y-17867D01*
Y-17712D01*
Y-17698D01*
Y-17684D01*
Y-17599D01*
X37498Y-17486D01*
X37470Y-17331D01*
X37413Y-17162D01*
X37343Y-16979D01*
X37230Y-16796D01*
X37075Y-16626D01*
X37061Y-16612D01*
X36990Y-16556D01*
X36892Y-16485D01*
X36765Y-16401D01*
X36596Y-16330D01*
X36398Y-16260D01*
X36173Y-16204D01*
X35919Y-16189D01*
X35806D01*
X35680Y-16218D01*
X35510Y-16246D01*
X35327Y-16302D01*
X35144Y-16373D01*
X34946Y-16485D01*
X34763Y-16626D01*
X34749Y-16640D01*
X34693Y-16711D01*
X34608Y-16810D01*
X34509Y-16951D01*
X34411Y-17134D01*
X34312Y-17359D01*
X34227Y-17627D01*
X34171Y-17937D01*
X32973Y-17726D01*
Y-17712D01*
X32987Y-17670D01*
X33001Y-17613D01*
X33015Y-17529D01*
X33043Y-17430D01*
X33086Y-17317D01*
X33170Y-17049D01*
X33311Y-16739D01*
X33480Y-16429D01*
X33692Y-16133D01*
X33960Y-15865D01*
X33974Y-15851D01*
X34002Y-15837D01*
X34044Y-15809D01*
X34101Y-15767D01*
X34171Y-15710D01*
X34270Y-15654D01*
X34369Y-15597D01*
X34495Y-15527D01*
X34777Y-15414D01*
X35101Y-15301D01*
X35482Y-15231D01*
X35680Y-15203D01*
X36032D01*
X36187Y-15217D01*
D02*
G37*
G36*
X199177Y-17782D02*
X199261D01*
X199374Y-17796D01*
X199642Y-17839D01*
X199938Y-17909D01*
X200248Y-18022D01*
X200558Y-18163D01*
X200854Y-18360D01*
X200868D01*
X200882Y-18389D01*
X200967Y-18473D01*
X201094Y-18600D01*
X201249Y-18783D01*
X201404Y-19009D01*
X201559Y-19291D01*
X201700Y-19615D01*
X201799Y-19996D01*
X200629Y-20179D01*
Y-20165D01*
X200614Y-20151D01*
X200600Y-20066D01*
X200558Y-19939D01*
X200487Y-19784D01*
X200417Y-19615D01*
X200304Y-19432D01*
X200177Y-19262D01*
X200036Y-19122D01*
X200022Y-19108D01*
X199966Y-19065D01*
X199867Y-19009D01*
X199755Y-18938D01*
X199599Y-18868D01*
X199430Y-18811D01*
X199233Y-18769D01*
X199021Y-18755D01*
X198937D01*
X198866Y-18769D01*
X198711Y-18783D01*
X198500Y-18840D01*
X198274Y-18910D01*
X198021Y-19023D01*
X197781Y-19192D01*
X197668Y-19291D01*
X197555Y-19404D01*
Y-19418D01*
X197527Y-19432D01*
X197499Y-19474D01*
X197471Y-19530D01*
X197428Y-19601D01*
X197372Y-19685D01*
X197330Y-19784D01*
X197273Y-19897D01*
X197217Y-20038D01*
X197175Y-20193D01*
X197118Y-20362D01*
X197076Y-20545D01*
X197048Y-20743D01*
X197020Y-20968D01*
X196992Y-21208D01*
Y-21462D01*
Y-21476D01*
Y-21518D01*
Y-21603D01*
X197006Y-21687D01*
Y-21814D01*
X197020Y-21941D01*
X197062Y-22251D01*
X197118Y-22589D01*
X197217Y-22942D01*
X197344Y-23252D01*
X197428Y-23407D01*
X197527Y-23534D01*
X197555Y-23562D01*
X197626Y-23633D01*
X197753Y-23731D01*
X197908Y-23844D01*
X198119Y-23971D01*
X198359Y-24070D01*
X198641Y-24140D01*
X198796Y-24154D01*
X198951Y-24168D01*
X198979D01*
X199064Y-24154D01*
X199205Y-24140D01*
X199360Y-24112D01*
X199543Y-24070D01*
X199740Y-23985D01*
X199938Y-23886D01*
X200121Y-23745D01*
X200149Y-23731D01*
X200191Y-23661D01*
X200276Y-23562D01*
X200375Y-23407D01*
X200473Y-23224D01*
X200586Y-22998D01*
X200671Y-22716D01*
X200727Y-22406D01*
X201911Y-22561D01*
Y-22575D01*
X201897Y-22618D01*
X201883Y-22674D01*
X201869Y-22759D01*
X201841Y-22871D01*
X201813Y-22984D01*
X201714Y-23266D01*
X201587Y-23562D01*
X201404Y-23886D01*
X201178Y-24197D01*
X201051Y-24337D01*
X200910Y-24478D01*
X200896Y-24492D01*
X200868Y-24507D01*
X200826Y-24535D01*
X200770Y-24577D01*
X200699Y-24634D01*
X200600Y-24690D01*
X200487Y-24746D01*
X200375Y-24817D01*
X200093Y-24944D01*
X199755Y-25042D01*
X199388Y-25127D01*
X199177Y-25141D01*
X198965Y-25155D01*
X198824D01*
X198725Y-25141D01*
X198598Y-25127D01*
X198458Y-25099D01*
X198302Y-25071D01*
X198133Y-25042D01*
X197753Y-24929D01*
X197570Y-24845D01*
X197372Y-24760D01*
X197175Y-24648D01*
X196992Y-24521D01*
X196808Y-24380D01*
X196639Y-24211D01*
X196625Y-24197D01*
X196597Y-24168D01*
X196555Y-24112D01*
X196498Y-24041D01*
X196442Y-23943D01*
X196357Y-23816D01*
X196287Y-23675D01*
X196202Y-23520D01*
X196117Y-23337D01*
X196047Y-23125D01*
X195962Y-22914D01*
X195906Y-22660D01*
X195850Y-22406D01*
X195807Y-22110D01*
X195779Y-21814D01*
X195765Y-21490D01*
Y-21476D01*
Y-21433D01*
Y-21377D01*
Y-21293D01*
X195779Y-21194D01*
Y-21081D01*
X195793Y-20954D01*
X195807Y-20813D01*
X195850Y-20503D01*
X195920Y-20165D01*
X196005Y-19826D01*
X196132Y-19488D01*
Y-19474D01*
X196146Y-19446D01*
X196174Y-19404D01*
X196202Y-19347D01*
X196287Y-19192D01*
X196413Y-19009D01*
X196583Y-18797D01*
X196780Y-18586D01*
X197020Y-18374D01*
X197288Y-18205D01*
X197302D01*
X197330Y-18191D01*
X197372Y-18163D01*
X197428Y-18135D01*
X197499Y-18107D01*
X197584Y-18064D01*
X197795Y-17980D01*
X198035Y-17909D01*
X198331Y-17839D01*
X198641Y-17782D01*
X198979Y-17768D01*
X199092D01*
X199177Y-17782D01*
D02*
G37*
G36*
X167346D02*
X167430D01*
X167543Y-17796D01*
X167811Y-17839D01*
X168107Y-17909D01*
X168417Y-18022D01*
X168727Y-18163D01*
X169023Y-18360D01*
X169037D01*
X169051Y-18389D01*
X169136Y-18473D01*
X169263Y-18600D01*
X169418Y-18783D01*
X169573Y-19009D01*
X169728Y-19291D01*
X169869Y-19615D01*
X169967Y-19996D01*
X168797Y-20179D01*
Y-20165D01*
X168783Y-20151D01*
X168769Y-20066D01*
X168727Y-19939D01*
X168657Y-19784D01*
X168586Y-19615D01*
X168473Y-19432D01*
X168346Y-19262D01*
X168205Y-19122D01*
X168191Y-19108D01*
X168135Y-19065D01*
X168036Y-19009D01*
X167924Y-18938D01*
X167768Y-18868D01*
X167599Y-18811D01*
X167402Y-18769D01*
X167190Y-18755D01*
X167106D01*
X167035Y-18769D01*
X166880Y-18783D01*
X166669Y-18840D01*
X166443Y-18910D01*
X166189Y-19023D01*
X165950Y-19192D01*
X165837Y-19291D01*
X165724Y-19404D01*
Y-19418D01*
X165696Y-19432D01*
X165668Y-19474D01*
X165640Y-19530D01*
X165597Y-19601D01*
X165541Y-19685D01*
X165499Y-19784D01*
X165442Y-19897D01*
X165386Y-20038D01*
X165344Y-20193D01*
X165287Y-20362D01*
X165245Y-20545D01*
X165217Y-20743D01*
X165189Y-20968D01*
X165161Y-21208D01*
Y-21462D01*
Y-21476D01*
Y-21518D01*
Y-21603D01*
X165175Y-21687D01*
Y-21814D01*
X165189Y-21941D01*
X165231Y-22251D01*
X165287Y-22589D01*
X165386Y-22942D01*
X165513Y-23252D01*
X165597Y-23407D01*
X165696Y-23534D01*
X165724Y-23562D01*
X165795Y-23633D01*
X165922Y-23731D01*
X166077Y-23844D01*
X166288Y-23971D01*
X166528Y-24070D01*
X166810Y-24140D01*
X166965Y-24154D01*
X167120Y-24168D01*
X167148D01*
X167233Y-24154D01*
X167374Y-24140D01*
X167529Y-24112D01*
X167712Y-24070D01*
X167909Y-23985D01*
X168107Y-23886D01*
X168290Y-23745D01*
X168318Y-23731D01*
X168361Y-23661D01*
X168445Y-23562D01*
X168544Y-23407D01*
X168642Y-23224D01*
X168755Y-22998D01*
X168840Y-22716D01*
X168896Y-22406D01*
X170080Y-22561D01*
Y-22575D01*
X170066Y-22618D01*
X170052Y-22674D01*
X170038Y-22759D01*
X170010Y-22871D01*
X169982Y-22984D01*
X169883Y-23266D01*
X169756Y-23562D01*
X169573Y-23886D01*
X169347Y-24197D01*
X169220Y-24337D01*
X169079Y-24478D01*
X169065Y-24492D01*
X169037Y-24507D01*
X168995Y-24535D01*
X168938Y-24577D01*
X168868Y-24634D01*
X168769Y-24690D01*
X168657Y-24746D01*
X168544Y-24817D01*
X168262Y-24944D01*
X167924Y-25042D01*
X167557Y-25127D01*
X167346Y-25141D01*
X167134Y-25155D01*
X166993D01*
X166894Y-25141D01*
X166768Y-25127D01*
X166626Y-25099D01*
X166472Y-25071D01*
X166302Y-25042D01*
X165922Y-24929D01*
X165738Y-24845D01*
X165541Y-24760D01*
X165344Y-24648D01*
X165161Y-24521D01*
X164977Y-24380D01*
X164808Y-24211D01*
X164794Y-24197D01*
X164766Y-24168D01*
X164723Y-24112D01*
X164667Y-24041D01*
X164611Y-23943D01*
X164526Y-23816D01*
X164456Y-23675D01*
X164371Y-23520D01*
X164286Y-23337D01*
X164216Y-23125D01*
X164131Y-22914D01*
X164075Y-22660D01*
X164019Y-22406D01*
X163976Y-22110D01*
X163948Y-21814D01*
X163934Y-21490D01*
Y-21476D01*
Y-21433D01*
Y-21377D01*
Y-21293D01*
X163948Y-21194D01*
Y-21081D01*
X163962Y-20954D01*
X163976Y-20813D01*
X164019Y-20503D01*
X164089Y-20165D01*
X164174Y-19826D01*
X164300Y-19488D01*
Y-19474D01*
X164315Y-19446D01*
X164343Y-19404D01*
X164371Y-19347D01*
X164456Y-19192D01*
X164583Y-19009D01*
X164752Y-18797D01*
X164949Y-18586D01*
X165189Y-18374D01*
X165457Y-18205D01*
X165471D01*
X165499Y-18191D01*
X165541Y-18163D01*
X165597Y-18135D01*
X165668Y-18107D01*
X165753Y-18064D01*
X165964Y-17980D01*
X166204Y-17909D01*
X166500Y-17839D01*
X166810Y-17782D01*
X167148Y-17768D01*
X167261D01*
X167346Y-17782D01*
D02*
G37*
G36*
X142507Y-22068D02*
X138799D01*
Y-20870D01*
X142507D01*
Y-22068D01*
D02*
G37*
G36*
X130383D02*
X126676D01*
Y-20870D01*
X130383D01*
Y-22068D01*
D02*
G37*
G36*
X12166D02*
X8458D01*
Y-20870D01*
X12166D01*
Y-22068D01*
D02*
G37*
G36*
X91109Y-25000D02*
X89868D01*
Y-16838D01*
X87021Y-25000D01*
X85865D01*
X83045Y-16697D01*
Y-25000D01*
X81805D01*
Y-15245D01*
X83736D01*
X86048Y-22167D01*
Y-22181D01*
X86062Y-22209D01*
X86076Y-22251D01*
X86104Y-22322D01*
X86161Y-22491D01*
X86231Y-22702D01*
X86302Y-22942D01*
X86386Y-23182D01*
X86457Y-23407D01*
X86513Y-23604D01*
X86527Y-23576D01*
X86542Y-23506D01*
X86584Y-23379D01*
X86640Y-23210D01*
X86711Y-22984D01*
X86809Y-22716D01*
X86908Y-22406D01*
X87035Y-22040D01*
X89375Y-15245D01*
X91109D01*
Y-25000D01*
D02*
G37*
G36*
X22894D02*
X21653D01*
Y-16838D01*
X18805Y-25000D01*
X17649D01*
X14830Y-16697D01*
Y-25000D01*
X13590D01*
Y-15245D01*
X15521D01*
X17833Y-22167D01*
Y-22181D01*
X17847Y-22209D01*
X17861Y-22251D01*
X17889Y-22322D01*
X17945Y-22491D01*
X18016Y-22702D01*
X18087Y-22942D01*
X18171Y-23182D01*
X18241Y-23407D01*
X18298Y-23604D01*
X18312Y-23576D01*
X18326Y-23506D01*
X18368Y-23379D01*
X18425Y-23210D01*
X18495Y-22984D01*
X18594Y-22716D01*
X18693Y-22406D01*
X18820Y-22040D01*
X21160Y-15245D01*
X22894D01*
Y-25000D01*
D02*
G37*
G36*
X182852Y-15259D02*
X183134Y-15273D01*
X183416Y-15301D01*
X183698Y-15344D01*
X183938Y-15386D01*
X183952D01*
X183980Y-15400D01*
X184022D01*
X184079Y-15428D01*
X184234Y-15470D01*
X184431Y-15541D01*
X184657Y-15640D01*
X184896Y-15767D01*
X185136Y-15907D01*
X185361Y-16091D01*
X185375Y-16105D01*
X185390Y-16119D01*
X185432Y-16161D01*
X185488Y-16204D01*
X185629Y-16344D01*
X185798Y-16542D01*
X185982Y-16781D01*
X186179Y-17063D01*
X186362Y-17388D01*
X186517Y-17754D01*
Y-17768D01*
X186532Y-17796D01*
X186560Y-17853D01*
X186574Y-17937D01*
X186616Y-18036D01*
X186644Y-18149D01*
X186672Y-18276D01*
X186715Y-18431D01*
X186757Y-18586D01*
X186785Y-18769D01*
X186856Y-19164D01*
X186898Y-19601D01*
X186912Y-20080D01*
Y-20094D01*
Y-20122D01*
Y-20193D01*
Y-20263D01*
X186898Y-20362D01*
Y-20475D01*
X186884Y-20743D01*
X186842Y-21053D01*
X186799Y-21377D01*
X186729Y-21715D01*
X186644Y-22054D01*
Y-22068D01*
X186630Y-22096D01*
X186616Y-22138D01*
X186602Y-22195D01*
X186546Y-22350D01*
X186461Y-22547D01*
X186376Y-22773D01*
X186264Y-22998D01*
X186123Y-23238D01*
X185982Y-23463D01*
X185968Y-23492D01*
X185911Y-23562D01*
X185827Y-23661D01*
X185714Y-23788D01*
X185587Y-23929D01*
X185432Y-24070D01*
X185277Y-24225D01*
X185094Y-24351D01*
X185065Y-24366D01*
X185009Y-24408D01*
X184910Y-24464D01*
X184769Y-24535D01*
X184600Y-24619D01*
X184403Y-24690D01*
X184177Y-24774D01*
X183924Y-24845D01*
X183895D01*
X183853Y-24859D01*
X183811Y-24873D01*
X183670Y-24887D01*
X183472Y-24915D01*
X183247Y-24944D01*
X182979Y-24972D01*
X182683Y-24986D01*
X182359Y-25000D01*
X178849D01*
Y-15245D01*
X182598D01*
X182852Y-15259D01*
D02*
G37*
G36*
X159564D02*
X159804Y-15273D01*
X160057Y-15287D01*
X160297Y-15315D01*
X160508Y-15344D01*
X160537D01*
X160635Y-15372D01*
X160762Y-15400D01*
X160931Y-15442D01*
X161115Y-15513D01*
X161312Y-15597D01*
X161523Y-15696D01*
X161707Y-15809D01*
X161735Y-15823D01*
X161791Y-15865D01*
X161876Y-15950D01*
X161989Y-16048D01*
X162115Y-16175D01*
X162242Y-16344D01*
X162383Y-16528D01*
X162496Y-16739D01*
X162510Y-16767D01*
X162538Y-16838D01*
X162595Y-16965D01*
X162651Y-17134D01*
X162694Y-17331D01*
X162750Y-17557D01*
X162778Y-17810D01*
X162792Y-18078D01*
Y-18092D01*
Y-18135D01*
Y-18191D01*
X162778Y-18290D01*
X162764Y-18389D01*
X162750Y-18515D01*
X162722Y-18656D01*
X162694Y-18811D01*
X162595Y-19136D01*
X162538Y-19305D01*
X162454Y-19488D01*
X162355Y-19671D01*
X162257Y-19841D01*
X162130Y-20010D01*
X161989Y-20179D01*
X161975Y-20193D01*
X161946Y-20221D01*
X161904Y-20263D01*
X161834Y-20306D01*
X161749Y-20376D01*
X161636Y-20447D01*
X161495Y-20531D01*
X161340Y-20602D01*
X161157Y-20686D01*
X160945Y-20771D01*
X160720Y-20841D01*
X160452Y-20898D01*
X160170Y-20954D01*
X159860Y-20996D01*
X159508Y-21025D01*
X159141Y-21039D01*
X156646D01*
Y-25000D01*
X155349D01*
Y-15245D01*
X159353D01*
X159564Y-15259D01*
D02*
G37*
G36*
X153108Y-25000D02*
X151740D01*
Y-23633D01*
X153108D01*
Y-25000D01*
D02*
G37*
G36*
X134824Y-15217D02*
X134937Y-15231D01*
X135077Y-15245D01*
X135232Y-15273D01*
X135388Y-15301D01*
X135754Y-15400D01*
X136121Y-15541D01*
X136304Y-15625D01*
X136487Y-15724D01*
X136656Y-15851D01*
X136811Y-15992D01*
X136826Y-16006D01*
X136854Y-16020D01*
X136882Y-16077D01*
X136938Y-16133D01*
X137009Y-16204D01*
X137079Y-16302D01*
X137150Y-16401D01*
X137234Y-16528D01*
X137375Y-16796D01*
X137516Y-17134D01*
X137573Y-17303D01*
X137601Y-17500D01*
X137629Y-17698D01*
X137643Y-17909D01*
Y-17937D01*
Y-18008D01*
X137629Y-18121D01*
X137615Y-18276D01*
X137587Y-18445D01*
X137530Y-18642D01*
X137474Y-18854D01*
X137389Y-19065D01*
X137375Y-19093D01*
X137347Y-19164D01*
X137291Y-19277D01*
X137206Y-19432D01*
X137093Y-19601D01*
X136952Y-19812D01*
X136783Y-20024D01*
X136586Y-20263D01*
X136558Y-20292D01*
X136487Y-20376D01*
X136417Y-20447D01*
X136346Y-20517D01*
X136262Y-20602D01*
X136149Y-20714D01*
X136036Y-20827D01*
X135895Y-20954D01*
X135754Y-21095D01*
X135585Y-21250D01*
X135402Y-21405D01*
X135204Y-21588D01*
X134979Y-21772D01*
X134753Y-21969D01*
X134739Y-21983D01*
X134711Y-22011D01*
X134655Y-22054D01*
X134584Y-22110D01*
X134500Y-22195D01*
X134401Y-22279D01*
X134175Y-22462D01*
X133936Y-22674D01*
X133710Y-22885D01*
X133513Y-23069D01*
X133428Y-23139D01*
X133358Y-23210D01*
X133343Y-23224D01*
X133301Y-23266D01*
X133245Y-23323D01*
X133174Y-23407D01*
X133104Y-23506D01*
X133019Y-23604D01*
X132850Y-23844D01*
X137657D01*
Y-25000D01*
X131187D01*
Y-24986D01*
Y-24929D01*
Y-24845D01*
X131201Y-24732D01*
X131215Y-24605D01*
X131243Y-24464D01*
X131271Y-24323D01*
X131328Y-24168D01*
Y-24154D01*
X131342Y-24140D01*
X131370Y-24056D01*
X131426Y-23929D01*
X131511Y-23760D01*
X131624Y-23562D01*
X131765Y-23337D01*
X131920Y-23111D01*
X132117Y-22871D01*
Y-22857D01*
X132145Y-22843D01*
X132216Y-22759D01*
X132343Y-22632D01*
X132526Y-22448D01*
X132737Y-22237D01*
X133005Y-21983D01*
X133329Y-21701D01*
X133682Y-21405D01*
X133696Y-21391D01*
X133752Y-21349D01*
X133837Y-21278D01*
X133936Y-21194D01*
X134062Y-21081D01*
X134218Y-20954D01*
X134373Y-20813D01*
X134556Y-20658D01*
X134908Y-20320D01*
X135261Y-19981D01*
X135430Y-19812D01*
X135585Y-19643D01*
X135726Y-19488D01*
X135839Y-19333D01*
Y-19319D01*
X135867Y-19305D01*
X135895Y-19262D01*
X135923Y-19206D01*
X136022Y-19051D01*
X136135Y-18868D01*
X136233Y-18642D01*
X136332Y-18403D01*
X136389Y-18135D01*
X136417Y-17881D01*
Y-17867D01*
Y-17853D01*
X136403Y-17768D01*
X136389Y-17627D01*
X136346Y-17472D01*
X136290Y-17275D01*
X136191Y-17077D01*
X136064Y-16880D01*
X135895Y-16683D01*
X135867Y-16655D01*
X135796Y-16598D01*
X135698Y-16528D01*
X135543Y-16429D01*
X135345Y-16344D01*
X135120Y-16260D01*
X134852Y-16204D01*
X134556Y-16189D01*
X134471D01*
X134415Y-16204D01*
X134246Y-16218D01*
X134048Y-16260D01*
X133837Y-16316D01*
X133597Y-16415D01*
X133372Y-16542D01*
X133160Y-16711D01*
X133132Y-16739D01*
X133076Y-16810D01*
X132991Y-16922D01*
X132907Y-17092D01*
X132808Y-17289D01*
X132723Y-17543D01*
X132667Y-17825D01*
X132639Y-18149D01*
X131412Y-18022D01*
Y-18008D01*
X131426Y-17966D01*
Y-17895D01*
X131440Y-17796D01*
X131469Y-17684D01*
X131497Y-17557D01*
X131539Y-17402D01*
X131581Y-17247D01*
X131694Y-16908D01*
X131863Y-16570D01*
X131962Y-16401D01*
X132089Y-16232D01*
X132216Y-16077D01*
X132357Y-15936D01*
X132371Y-15921D01*
X132399Y-15907D01*
X132441Y-15865D01*
X132512Y-15823D01*
X132596Y-15767D01*
X132695Y-15710D01*
X132808Y-15640D01*
X132949Y-15569D01*
X133104Y-15499D01*
X133273Y-15428D01*
X133456Y-15372D01*
X133654Y-15315D01*
X133865Y-15273D01*
X134091Y-15231D01*
X134330Y-15217D01*
X134584Y-15203D01*
X134725D01*
X134824Y-15217D01*
D02*
G37*
G36*
X122432Y-15259D02*
X122672Y-15273D01*
X122926Y-15287D01*
X123166Y-15315D01*
X123377Y-15344D01*
X123405D01*
X123504Y-15372D01*
X123631Y-15400D01*
X123800Y-15442D01*
X123983Y-15513D01*
X124180Y-15597D01*
X124392Y-15696D01*
X124575Y-15809D01*
X124603Y-15823D01*
X124660Y-15865D01*
X124744Y-15950D01*
X124857Y-16048D01*
X124984Y-16175D01*
X125111Y-16344D01*
X125252Y-16528D01*
X125365Y-16739D01*
X125379Y-16767D01*
X125407Y-16838D01*
X125463Y-16965D01*
X125520Y-17134D01*
X125562Y-17331D01*
X125618Y-17557D01*
X125647Y-17810D01*
X125661Y-18078D01*
Y-18092D01*
Y-18135D01*
Y-18191D01*
X125647Y-18290D01*
X125632Y-18389D01*
X125618Y-18515D01*
X125590Y-18656D01*
X125562Y-18811D01*
X125463Y-19136D01*
X125407Y-19305D01*
X125322Y-19488D01*
X125224Y-19671D01*
X125125Y-19841D01*
X124998Y-20010D01*
X124857Y-20179D01*
X124843Y-20193D01*
X124815Y-20221D01*
X124773Y-20263D01*
X124702Y-20306D01*
X124618Y-20376D01*
X124505Y-20447D01*
X124364Y-20531D01*
X124209Y-20602D01*
X124025Y-20686D01*
X123814Y-20771D01*
X123588Y-20841D01*
X123321Y-20898D01*
X123039Y-20954D01*
X122729Y-20996D01*
X122376Y-21025D01*
X122009Y-21039D01*
X119514D01*
Y-25000D01*
X118217D01*
Y-15245D01*
X122221D01*
X122432Y-15259D01*
D02*
G37*
G36*
X111874Y-23844D02*
X116681D01*
Y-25000D01*
X110577D01*
Y-15245D01*
X111874D01*
Y-23844D01*
D02*
G37*
G36*
X109294Y-16401D02*
X106080D01*
Y-25000D01*
X104783D01*
Y-16401D01*
X101569D01*
Y-15245D01*
X109294D01*
Y-16401D01*
D02*
G37*
G36*
X70739D02*
X64973D01*
Y-19375D01*
X70372D01*
Y-20531D01*
X64973D01*
Y-23844D01*
X70964D01*
Y-25000D01*
X63676D01*
Y-15245D01*
X70739D01*
Y-16401D01*
D02*
G37*
G36*
X51468Y-15217D02*
X51581Y-15231D01*
X51722Y-15245D01*
X51877Y-15273D01*
X52032Y-15301D01*
X52399Y-15400D01*
X52765Y-15541D01*
X52948Y-15625D01*
X53132Y-15724D01*
X53301Y-15851D01*
X53456Y-15992D01*
X53470Y-16006D01*
X53498Y-16020D01*
X53526Y-16077D01*
X53583Y-16133D01*
X53653Y-16204D01*
X53724Y-16302D01*
X53794Y-16401D01*
X53879Y-16528D01*
X54020Y-16796D01*
X54161Y-17134D01*
X54217Y-17303D01*
X54245Y-17500D01*
X54273Y-17698D01*
X54288Y-17909D01*
Y-17937D01*
Y-18008D01*
X54273Y-18121D01*
X54259Y-18276D01*
X54231Y-18445D01*
X54175Y-18642D01*
X54118Y-18854D01*
X54034Y-19065D01*
X54020Y-19093D01*
X53991Y-19164D01*
X53935Y-19277D01*
X53850Y-19432D01*
X53738Y-19601D01*
X53597Y-19812D01*
X53428Y-20024D01*
X53230Y-20263D01*
X53202Y-20292D01*
X53132Y-20376D01*
X53061Y-20447D01*
X52991Y-20517D01*
X52906Y-20602D01*
X52793Y-20714D01*
X52681Y-20827D01*
X52540Y-20954D01*
X52399Y-21095D01*
X52229Y-21250D01*
X52046Y-21405D01*
X51849Y-21588D01*
X51623Y-21772D01*
X51398Y-21969D01*
X51384Y-21983D01*
X51355Y-22011D01*
X51299Y-22054D01*
X51228Y-22110D01*
X51144Y-22195D01*
X51045Y-22279D01*
X50820Y-22462D01*
X50580Y-22674D01*
X50354Y-22885D01*
X50157Y-23069D01*
X50072Y-23139D01*
X50002Y-23210D01*
X49988Y-23224D01*
X49946Y-23266D01*
X49889Y-23323D01*
X49819Y-23407D01*
X49748Y-23506D01*
X49664Y-23604D01*
X49495Y-23844D01*
X54302D01*
Y-25000D01*
X47831D01*
Y-24986D01*
Y-24929D01*
Y-24845D01*
X47845Y-24732D01*
X47859Y-24605D01*
X47888Y-24464D01*
X47916Y-24323D01*
X47972Y-24168D01*
Y-24154D01*
X47986Y-24140D01*
X48014Y-24056D01*
X48071Y-23929D01*
X48155Y-23760D01*
X48268Y-23562D01*
X48409Y-23337D01*
X48564Y-23111D01*
X48762Y-22871D01*
Y-22857D01*
X48790Y-22843D01*
X48860Y-22759D01*
X48987Y-22632D01*
X49170Y-22448D01*
X49382Y-22237D01*
X49650Y-21983D01*
X49974Y-21701D01*
X50326Y-21405D01*
X50340Y-21391D01*
X50397Y-21349D01*
X50481Y-21278D01*
X50580Y-21194D01*
X50707Y-21081D01*
X50862Y-20954D01*
X51017Y-20813D01*
X51200Y-20658D01*
X51553Y-20320D01*
X51905Y-19981D01*
X52074Y-19812D01*
X52229Y-19643D01*
X52370Y-19488D01*
X52483Y-19333D01*
Y-19319D01*
X52511Y-19305D01*
X52540Y-19262D01*
X52568Y-19206D01*
X52666Y-19051D01*
X52779Y-18868D01*
X52878Y-18642D01*
X52976Y-18403D01*
X53033Y-18135D01*
X53061Y-17881D01*
Y-17867D01*
Y-17853D01*
X53047Y-17768D01*
X53033Y-17627D01*
X52991Y-17472D01*
X52934Y-17275D01*
X52836Y-17077D01*
X52709Y-16880D01*
X52540Y-16683D01*
X52511Y-16655D01*
X52441Y-16598D01*
X52342Y-16528D01*
X52187Y-16429D01*
X51990Y-16344D01*
X51764Y-16260D01*
X51496Y-16204D01*
X51200Y-16189D01*
X51116D01*
X51059Y-16204D01*
X50890Y-16218D01*
X50693Y-16260D01*
X50481Y-16316D01*
X50242Y-16415D01*
X50016Y-16542D01*
X49805Y-16711D01*
X49777Y-16739D01*
X49720Y-16810D01*
X49636Y-16922D01*
X49551Y-17092D01*
X49452Y-17289D01*
X49368Y-17543D01*
X49311Y-17825D01*
X49283Y-18149D01*
X48057Y-18022D01*
Y-18008D01*
X48071Y-17966D01*
Y-17895D01*
X48085Y-17796D01*
X48113Y-17684D01*
X48141Y-17557D01*
X48183Y-17402D01*
X48226Y-17247D01*
X48339Y-16908D01*
X48508Y-16570D01*
X48607Y-16401D01*
X48733Y-16232D01*
X48860Y-16077D01*
X49001Y-15936D01*
X49015Y-15921D01*
X49043Y-15907D01*
X49086Y-15865D01*
X49156Y-15823D01*
X49241Y-15767D01*
X49339Y-15710D01*
X49452Y-15640D01*
X49593Y-15569D01*
X49748Y-15499D01*
X49917Y-15428D01*
X50101Y-15372D01*
X50298Y-15315D01*
X50510Y-15273D01*
X50735Y-15231D01*
X50975Y-15217D01*
X51228Y-15203D01*
X51370D01*
X51468Y-15217D01*
D02*
G37*
G36*
X31986Y-16401D02*
X28772D01*
Y-25000D01*
X27475D01*
Y-16401D01*
X24261D01*
Y-15245D01*
X31986D01*
Y-16401D01*
D02*
G37*
G36*
X4215Y-15259D02*
X4455Y-15273D01*
X4708Y-15287D01*
X4948Y-15315D01*
X5160Y-15344D01*
X5188D01*
X5286Y-15372D01*
X5413Y-15400D01*
X5582Y-15442D01*
X5766Y-15513D01*
X5963Y-15597D01*
X6174Y-15696D01*
X6358Y-15809D01*
X6386Y-15823D01*
X6442Y-15865D01*
X6527Y-15950D01*
X6640Y-16048D01*
X6767Y-16175D01*
X6893Y-16344D01*
X7034Y-16528D01*
X7147Y-16739D01*
X7161Y-16767D01*
X7189Y-16838D01*
X7246Y-16965D01*
X7302Y-17134D01*
X7344Y-17331D01*
X7401Y-17557D01*
X7429Y-17810D01*
X7443Y-18078D01*
Y-18092D01*
Y-18135D01*
Y-18191D01*
X7429Y-18290D01*
X7415Y-18389D01*
X7401Y-18515D01*
X7373Y-18656D01*
X7344Y-18811D01*
X7246Y-19136D01*
X7189Y-19305D01*
X7105Y-19488D01*
X7006Y-19671D01*
X6908Y-19841D01*
X6781Y-20010D01*
X6640Y-20179D01*
X6626Y-20193D01*
X6597Y-20221D01*
X6555Y-20263D01*
X6485Y-20306D01*
X6400Y-20376D01*
X6287Y-20447D01*
X6146Y-20531D01*
X5991Y-20602D01*
X5808Y-20686D01*
X5597Y-20771D01*
X5371Y-20841D01*
X5103Y-20898D01*
X4821Y-20954D01*
X4511Y-20996D01*
X4159Y-21025D01*
X3792Y-21039D01*
X1297D01*
Y-25000D01*
X0D01*
Y-15245D01*
X4004D01*
X4215Y-15259D01*
D02*
G37*
G36*
X191635Y-17782D02*
X191761Y-17796D01*
X191903Y-17825D01*
X192057Y-17853D01*
X192241Y-17881D01*
X192621Y-18008D01*
X192819Y-18078D01*
X193016Y-18177D01*
X193214Y-18276D01*
X193411Y-18417D01*
X193594Y-18558D01*
X193777Y-18727D01*
X193792Y-18741D01*
X193820Y-18769D01*
X193862Y-18826D01*
X193918Y-18896D01*
X193989Y-18995D01*
X194073Y-19122D01*
X194158Y-19262D01*
X194243Y-19418D01*
X194327Y-19587D01*
X194412Y-19798D01*
X194496Y-20010D01*
X194567Y-20249D01*
X194623Y-20503D01*
X194666Y-20771D01*
X194694Y-21053D01*
X194708Y-21363D01*
Y-21377D01*
Y-21419D01*
Y-21490D01*
Y-21588D01*
X194694Y-21701D01*
X194680Y-21842D01*
Y-21983D01*
X194651Y-22138D01*
X194609Y-22491D01*
X194524Y-22843D01*
X194426Y-23196D01*
X194285Y-23520D01*
Y-23534D01*
X194271Y-23548D01*
X194243Y-23590D01*
X194214Y-23647D01*
X194116Y-23788D01*
X193989Y-23957D01*
X193820Y-24154D01*
X193608Y-24351D01*
X193368Y-24549D01*
X193087Y-24732D01*
X193072D01*
X193058Y-24746D01*
X193016Y-24774D01*
X192946Y-24803D01*
X192875Y-24831D01*
X192791Y-24859D01*
X192579Y-24944D01*
X192339Y-25014D01*
X192043Y-25085D01*
X191733Y-25141D01*
X191395Y-25155D01*
X191254D01*
X191141Y-25141D01*
X191014Y-25127D01*
X190873Y-25099D01*
X190704Y-25071D01*
X190535Y-25042D01*
X190154Y-24929D01*
X189943Y-24845D01*
X189746Y-24760D01*
X189548Y-24648D01*
X189351Y-24521D01*
X189168Y-24380D01*
X188984Y-24211D01*
X188970Y-24197D01*
X188942Y-24168D01*
X188900Y-24112D01*
X188843Y-24027D01*
X188773Y-23929D01*
X188702Y-23816D01*
X188618Y-23675D01*
X188533Y-23506D01*
X188449Y-23323D01*
X188364Y-23111D01*
X188294Y-22885D01*
X188223Y-22646D01*
X188167Y-22378D01*
X188125Y-22096D01*
X188096Y-21786D01*
X188082Y-21462D01*
Y-21433D01*
Y-21377D01*
X188096Y-21278D01*
Y-21137D01*
X188110Y-20982D01*
X188139Y-20785D01*
X188167Y-20588D01*
X188223Y-20362D01*
X188279Y-20136D01*
X188350Y-19897D01*
X188435Y-19643D01*
X188547Y-19404D01*
X188660Y-19178D01*
X188815Y-18952D01*
X188970Y-18741D01*
X189168Y-18558D01*
X189182Y-18544D01*
X189210Y-18529D01*
X189266Y-18487D01*
X189337Y-18431D01*
X189421Y-18374D01*
X189534Y-18304D01*
X189647Y-18233D01*
X189788Y-18163D01*
X189943Y-18092D01*
X190112Y-18022D01*
X190493Y-17895D01*
X190930Y-17796D01*
X191155Y-17782D01*
X191395Y-17768D01*
X191536D01*
X191635Y-17782D01*
D02*
G37*
G36*
X172279Y-18727D02*
X172293Y-18713D01*
X172308Y-18685D01*
X172350Y-18642D01*
X172420Y-18572D01*
X172491Y-18501D01*
X172575Y-18417D01*
X172688Y-18332D01*
X172801Y-18247D01*
X173083Y-18064D01*
X173407Y-17923D01*
X173591Y-17853D01*
X173788Y-17810D01*
X173999Y-17782D01*
X174211Y-17768D01*
X174324D01*
X174450Y-17782D01*
X174605Y-17796D01*
X174789Y-17839D01*
X175000Y-17881D01*
X175226Y-17952D01*
X175437Y-18036D01*
X175465Y-18050D01*
X175536Y-18078D01*
X175649Y-18149D01*
X175776Y-18233D01*
X175931Y-18332D01*
X176086Y-18459D01*
X176255Y-18614D01*
X176396Y-18783D01*
X176410Y-18797D01*
X176452Y-18868D01*
X176523Y-18966D01*
X176607Y-19093D01*
X176706Y-19262D01*
X176805Y-19460D01*
X176903Y-19685D01*
X176988Y-19925D01*
Y-19939D01*
X177002Y-19953D01*
X177016Y-19996D01*
X177030Y-20038D01*
X177058Y-20179D01*
X177101Y-20362D01*
X177143Y-20573D01*
X177185Y-20813D01*
X177199Y-21081D01*
X177213Y-21363D01*
Y-21377D01*
Y-21448D01*
Y-21532D01*
X177199Y-21659D01*
X177185Y-21814D01*
X177171Y-21983D01*
X177143Y-22181D01*
X177101Y-22392D01*
X176988Y-22843D01*
X176917Y-23083D01*
X176833Y-23308D01*
X176734Y-23548D01*
X176607Y-23760D01*
X176466Y-23971D01*
X176311Y-24168D01*
X176297Y-24182D01*
X176269Y-24211D01*
X176227Y-24253D01*
X176156Y-24323D01*
X176057Y-24394D01*
X175959Y-24478D01*
X175846Y-24563D01*
X175705Y-24662D01*
X175550Y-24746D01*
X175395Y-24845D01*
X175014Y-25000D01*
X174817Y-25071D01*
X174605Y-25113D01*
X174380Y-25141D01*
X174154Y-25155D01*
X174098D01*
X174028Y-25141D01*
X173943D01*
X173844Y-25127D01*
X173717Y-25099D01*
X173435Y-25028D01*
X173280Y-24972D01*
X173125Y-24901D01*
X172956Y-24817D01*
X172801Y-24718D01*
X172632Y-24591D01*
X172477Y-24450D01*
X172336Y-24295D01*
X172195Y-24112D01*
Y-25000D01*
X171081D01*
Y-15245D01*
X172279D01*
Y-18727D01*
D02*
G37*
G36*
X146947Y-15217D02*
X147130Y-15245D01*
X147342Y-15287D01*
X147567Y-15344D01*
X147807Y-15414D01*
X148033Y-15527D01*
X148047D01*
X148061Y-15541D01*
X148131Y-15583D01*
X148244Y-15654D01*
X148385Y-15752D01*
X148540Y-15893D01*
X148709Y-16048D01*
X148864Y-16232D01*
X149019Y-16443D01*
X149033Y-16471D01*
X149090Y-16542D01*
X149146Y-16669D01*
X149245Y-16852D01*
X149330Y-17063D01*
X149442Y-17303D01*
X149541Y-17585D01*
X149626Y-17895D01*
Y-17909D01*
X149640Y-17937D01*
X149654Y-17980D01*
X149668Y-18050D01*
X149682Y-18135D01*
X149696Y-18233D01*
X149724Y-18360D01*
X149738Y-18501D01*
X149767Y-18656D01*
X149781Y-18826D01*
X149795Y-19023D01*
X149823Y-19220D01*
X149837Y-19446D01*
Y-19671D01*
X149851Y-19925D01*
Y-20193D01*
Y-20207D01*
Y-20263D01*
Y-20362D01*
Y-20475D01*
X149837Y-20630D01*
Y-20799D01*
X149823Y-20982D01*
X149809Y-21180D01*
X149767Y-21631D01*
X149696Y-22096D01*
X149612Y-22547D01*
X149555Y-22759D01*
X149485Y-22970D01*
Y-22984D01*
X149471Y-23012D01*
X149442Y-23069D01*
X149414Y-23139D01*
X149386Y-23238D01*
X149330Y-23337D01*
X149217Y-23576D01*
X149076Y-23830D01*
X148892Y-24112D01*
X148681Y-24366D01*
X148427Y-24605D01*
X148413D01*
X148399Y-24634D01*
X148357Y-24662D01*
X148300Y-24690D01*
X148230Y-24732D01*
X148160Y-24788D01*
X147948Y-24887D01*
X147694Y-24986D01*
X147398Y-25085D01*
X147046Y-25141D01*
X146665Y-25169D01*
X146524D01*
X146426Y-25155D01*
X146313Y-25141D01*
X146172Y-25113D01*
X146017Y-25085D01*
X145848Y-25042D01*
X145678Y-24986D01*
X145495Y-24929D01*
X145312Y-24845D01*
X145129Y-24746D01*
X144945Y-24634D01*
X144762Y-24492D01*
X144593Y-24337D01*
X144438Y-24168D01*
X144424Y-24154D01*
X144396Y-24112D01*
X144353Y-24041D01*
X144283Y-23929D01*
X144212Y-23802D01*
X144142Y-23633D01*
X144043Y-23435D01*
X143959Y-23210D01*
X143874Y-22956D01*
X143789Y-22660D01*
X143705Y-22336D01*
X143634Y-21969D01*
X143564Y-21574D01*
X143522Y-21151D01*
X143493Y-20686D01*
X143479Y-20193D01*
Y-20179D01*
Y-20122D01*
Y-20024D01*
Y-19911D01*
X143493Y-19756D01*
Y-19587D01*
X143507Y-19404D01*
X143522Y-19192D01*
X143564Y-18755D01*
X143634Y-18290D01*
X143719Y-17825D01*
X143775Y-17613D01*
X143832Y-17402D01*
Y-17388D01*
X143846Y-17359D01*
X143874Y-17303D01*
X143902Y-17233D01*
X143930Y-17134D01*
X143987Y-17035D01*
X144100Y-16796D01*
X144241Y-16542D01*
X144424Y-16274D01*
X144635Y-16006D01*
X144889Y-15781D01*
X144903D01*
X144917Y-15752D01*
X144959Y-15724D01*
X145016Y-15696D01*
X145086Y-15640D01*
X145171Y-15597D01*
X145382Y-15484D01*
X145636Y-15386D01*
X145932Y-15287D01*
X146285Y-15231D01*
X146665Y-15203D01*
X146792D01*
X146947Y-15217D01*
D02*
G37*
G36*
X59052D02*
X59236Y-15245D01*
X59447Y-15287D01*
X59673Y-15344D01*
X59912Y-15414D01*
X60138Y-15527D01*
X60152D01*
X60166Y-15541D01*
X60237Y-15583D01*
X60349Y-15654D01*
X60490Y-15752D01*
X60645Y-15893D01*
X60814Y-16048D01*
X60970Y-16232D01*
X61125Y-16443D01*
X61139Y-16471D01*
X61195Y-16542D01*
X61252Y-16669D01*
X61350Y-16852D01*
X61435Y-17063D01*
X61547Y-17303D01*
X61646Y-17585D01*
X61731Y-17895D01*
Y-17909D01*
X61745Y-17937D01*
X61759Y-17980D01*
X61773Y-18050D01*
X61787Y-18135D01*
X61801Y-18233D01*
X61829Y-18360D01*
X61844Y-18501D01*
X61872Y-18656D01*
X61886Y-18826D01*
X61900Y-19023D01*
X61928Y-19220D01*
X61942Y-19446D01*
Y-19671D01*
X61956Y-19925D01*
Y-20193D01*
Y-20207D01*
Y-20263D01*
Y-20362D01*
Y-20475D01*
X61942Y-20630D01*
Y-20799D01*
X61928Y-20982D01*
X61914Y-21180D01*
X61872Y-21631D01*
X61801Y-22096D01*
X61717Y-22547D01*
X61660Y-22759D01*
X61590Y-22970D01*
Y-22984D01*
X61576Y-23012D01*
X61547Y-23069D01*
X61519Y-23139D01*
X61491Y-23238D01*
X61435Y-23337D01*
X61322Y-23576D01*
X61181Y-23830D01*
X60998Y-24112D01*
X60786Y-24366D01*
X60532Y-24605D01*
X60518D01*
X60504Y-24634D01*
X60462Y-24662D01*
X60406Y-24690D01*
X60335Y-24732D01*
X60265Y-24788D01*
X60053Y-24887D01*
X59799Y-24986D01*
X59503Y-25085D01*
X59151Y-25141D01*
X58770Y-25169D01*
X58629D01*
X58531Y-25155D01*
X58418Y-25141D01*
X58277Y-25113D01*
X58122Y-25085D01*
X57953Y-25042D01*
X57784Y-24986D01*
X57600Y-24929D01*
X57417Y-24845D01*
X57234Y-24746D01*
X57051Y-24634D01*
X56867Y-24492D01*
X56698Y-24337D01*
X56543Y-24168D01*
X56529Y-24154D01*
X56501Y-24112D01*
X56459Y-24041D01*
X56388Y-23929D01*
X56318Y-23802D01*
X56247Y-23633D01*
X56148Y-23435D01*
X56064Y-23210D01*
X55979Y-22956D01*
X55895Y-22660D01*
X55810Y-22336D01*
X55739Y-21969D01*
X55669Y-21574D01*
X55627Y-21151D01*
X55599Y-20686D01*
X55585Y-20193D01*
Y-20179D01*
Y-20122D01*
Y-20024D01*
Y-19911D01*
X55599Y-19756D01*
Y-19587D01*
X55613Y-19404D01*
X55627Y-19192D01*
X55669Y-18755D01*
X55739Y-18290D01*
X55824Y-17825D01*
X55880Y-17613D01*
X55937Y-17402D01*
Y-17388D01*
X55951Y-17359D01*
X55979Y-17303D01*
X56007Y-17233D01*
X56036Y-17134D01*
X56092Y-17035D01*
X56205Y-16796D01*
X56346Y-16542D01*
X56529Y-16274D01*
X56740Y-16006D01*
X56994Y-15781D01*
X57008D01*
X57022Y-15752D01*
X57065Y-15724D01*
X57121Y-15696D01*
X57192Y-15640D01*
X57276Y-15597D01*
X57488Y-15484D01*
X57741Y-15386D01*
X58037Y-15287D01*
X58390Y-15231D01*
X58770Y-15203D01*
X58897D01*
X59052Y-15217D01*
D02*
G37*
%LPC*%
G36*
X43687Y-19728D02*
X43602D01*
X43546Y-19742D01*
X43405Y-19756D01*
X43207Y-19798D01*
X42996Y-19869D01*
X42756Y-19981D01*
X42531Y-20122D01*
X42305Y-20320D01*
X42277Y-20348D01*
X42221Y-20419D01*
X42122Y-20545D01*
X42023Y-20729D01*
X41925Y-20940D01*
X41826Y-21208D01*
X41769Y-21504D01*
X41741Y-21842D01*
Y-21871D01*
Y-21941D01*
X41755Y-22068D01*
X41769Y-22223D01*
X41798Y-22406D01*
X41854Y-22603D01*
X41910Y-22815D01*
X41995Y-23026D01*
X42009Y-23055D01*
X42051Y-23125D01*
X42108Y-23224D01*
X42192Y-23351D01*
X42291Y-23477D01*
X42418Y-23633D01*
X42559Y-23760D01*
X42728Y-23886D01*
X42756Y-23900D01*
X42813Y-23929D01*
X42911Y-23985D01*
X43038Y-24027D01*
X43179Y-24084D01*
X43348Y-24140D01*
X43531Y-24168D01*
X43729Y-24182D01*
X43799D01*
X43856Y-24168D01*
X43997Y-24154D01*
X44180Y-24112D01*
X44377Y-24027D01*
X44603Y-23929D01*
X44829Y-23774D01*
X44941Y-23689D01*
X45040Y-23576D01*
Y-23562D01*
X45068Y-23548D01*
X45125Y-23463D01*
X45209Y-23323D01*
X45322Y-23139D01*
X45420Y-22899D01*
X45505Y-22618D01*
X45561Y-22293D01*
X45590Y-21913D01*
Y-21899D01*
Y-21871D01*
Y-21814D01*
X45576Y-21744D01*
Y-21659D01*
X45561Y-21560D01*
X45519Y-21335D01*
X45463Y-21081D01*
X45364Y-20813D01*
X45223Y-20559D01*
X45040Y-20320D01*
X45012Y-20292D01*
X44941Y-20221D01*
X44829Y-20136D01*
X44673Y-20024D01*
X44476Y-19911D01*
X44250Y-19826D01*
X43983Y-19756D01*
X43687Y-19728D01*
D02*
G37*
G36*
X182401Y-16401D02*
X180146D01*
Y-23844D01*
X182458D01*
X182556Y-23830D01*
X182768Y-23816D01*
X183007Y-23802D01*
X183261Y-23774D01*
X183515Y-23731D01*
X183726Y-23675D01*
X183754Y-23661D01*
X183825Y-23647D01*
X183924Y-23604D01*
X184050Y-23548D01*
X184191Y-23463D01*
X184332Y-23379D01*
X184473Y-23280D01*
X184614Y-23167D01*
X184628Y-23139D01*
X184685Y-23083D01*
X184769Y-22984D01*
X184868Y-22843D01*
X184981Y-22660D01*
X185108Y-22448D01*
X185221Y-22209D01*
X185319Y-21941D01*
Y-21927D01*
X185333Y-21899D01*
X185347Y-21856D01*
X185361Y-21800D01*
X185375Y-21730D01*
X185404Y-21631D01*
X185432Y-21532D01*
X185460Y-21419D01*
X185502Y-21137D01*
X185545Y-20813D01*
X185573Y-20447D01*
X185587Y-20052D01*
Y-20038D01*
Y-19981D01*
Y-19911D01*
X185573Y-19798D01*
Y-19671D01*
X185559Y-19530D01*
X185545Y-19361D01*
X185531Y-19192D01*
X185460Y-18811D01*
X185375Y-18417D01*
X185249Y-18050D01*
X185164Y-17867D01*
X185079Y-17712D01*
Y-17698D01*
X185051Y-17670D01*
X185023Y-17627D01*
X184995Y-17571D01*
X184882Y-17430D01*
X184741Y-17261D01*
X184558Y-17077D01*
X184347Y-16894D01*
X184107Y-16739D01*
X183853Y-16612D01*
X183825Y-16598D01*
X183754Y-16584D01*
X183627Y-16542D01*
X183444Y-16500D01*
X183219Y-16471D01*
X182937Y-16429D01*
X182768Y-16415D01*
X182584D01*
X182401Y-16401D01*
D02*
G37*
G36*
X159437D02*
X156646D01*
Y-19883D01*
X159268D01*
X159367Y-19869D01*
X159465D01*
X159578Y-19855D01*
X159846Y-19826D01*
X160142Y-19770D01*
X160438Y-19685D01*
X160706Y-19573D01*
X160833Y-19502D01*
X160931Y-19418D01*
X160959Y-19389D01*
X161016Y-19333D01*
X161101Y-19220D01*
X161199Y-19079D01*
X161298Y-18896D01*
X161383Y-18670D01*
X161439Y-18417D01*
X161467Y-18121D01*
Y-18107D01*
Y-18092D01*
Y-18022D01*
X161453Y-17895D01*
X161425Y-17754D01*
X161397Y-17599D01*
X161340Y-17416D01*
X161256Y-17247D01*
X161157Y-17077D01*
X161143Y-17063D01*
X161101Y-17007D01*
X161030Y-16937D01*
X160945Y-16838D01*
X160819Y-16739D01*
X160678Y-16655D01*
X160522Y-16570D01*
X160339Y-16500D01*
X160325D01*
X160269Y-16485D01*
X160184Y-16471D01*
X160071Y-16443D01*
X159902Y-16429D01*
X159691Y-16415D01*
X159437Y-16401D01*
D02*
G37*
G36*
X122306D02*
X119514D01*
Y-19883D01*
X122136D01*
X122235Y-19869D01*
X122334D01*
X122446Y-19855D01*
X122714Y-19826D01*
X123010Y-19770D01*
X123307Y-19685D01*
X123574Y-19573D01*
X123701Y-19502D01*
X123800Y-19418D01*
X123828Y-19389D01*
X123884Y-19333D01*
X123969Y-19220D01*
X124068Y-19079D01*
X124166Y-18896D01*
X124251Y-18670D01*
X124307Y-18417D01*
X124335Y-18121D01*
Y-18107D01*
Y-18092D01*
Y-18022D01*
X124321Y-17895D01*
X124293Y-17754D01*
X124265Y-17599D01*
X124209Y-17416D01*
X124124Y-17247D01*
X124025Y-17077D01*
X124011Y-17063D01*
X123969Y-17007D01*
X123898Y-16937D01*
X123814Y-16838D01*
X123687Y-16739D01*
X123546Y-16655D01*
X123391Y-16570D01*
X123208Y-16500D01*
X123194D01*
X123137Y-16485D01*
X123053Y-16471D01*
X122940Y-16443D01*
X122771Y-16429D01*
X122559Y-16415D01*
X122306Y-16401D01*
D02*
G37*
G36*
X4088D02*
X1297D01*
Y-19883D01*
X3919D01*
X4018Y-19869D01*
X4116D01*
X4229Y-19855D01*
X4497Y-19826D01*
X4793Y-19770D01*
X5089Y-19685D01*
X5357Y-19573D01*
X5484Y-19502D01*
X5582Y-19418D01*
X5611Y-19389D01*
X5667Y-19333D01*
X5752Y-19220D01*
X5850Y-19079D01*
X5949Y-18896D01*
X6033Y-18670D01*
X6090Y-18417D01*
X6118Y-18121D01*
Y-18107D01*
Y-18092D01*
Y-18022D01*
X6104Y-17895D01*
X6076Y-17754D01*
X6048Y-17599D01*
X5991Y-17416D01*
X5907Y-17247D01*
X5808Y-17077D01*
X5794Y-17063D01*
X5752Y-17007D01*
X5681Y-16937D01*
X5597Y-16838D01*
X5470Y-16739D01*
X5329Y-16655D01*
X5174Y-16570D01*
X4990Y-16500D01*
X4976D01*
X4920Y-16485D01*
X4835Y-16471D01*
X4723Y-16443D01*
X4553Y-16429D01*
X4342Y-16415D01*
X4088Y-16401D01*
D02*
G37*
G36*
X191395Y-18755D02*
X191310D01*
X191240Y-18769D01*
X191085Y-18783D01*
X190873Y-18840D01*
X190634Y-18924D01*
X190380Y-19037D01*
X190140Y-19206D01*
X190014Y-19319D01*
X189901Y-19432D01*
Y-19446D01*
X189872Y-19460D01*
X189844Y-19502D01*
X189802Y-19559D01*
X189760Y-19629D01*
X189717Y-19714D01*
X189661Y-19826D01*
X189605Y-19939D01*
X189548Y-20080D01*
X189492Y-20221D01*
X189450Y-20390D01*
X189407Y-20573D01*
X189365Y-20771D01*
X189337Y-20982D01*
X189323Y-21222D01*
X189309Y-21462D01*
Y-21476D01*
Y-21518D01*
Y-21588D01*
X189323Y-21687D01*
Y-21800D01*
X189337Y-21927D01*
X189379Y-22223D01*
X189450Y-22561D01*
X189562Y-22899D01*
X189703Y-23224D01*
X189802Y-23365D01*
X189901Y-23506D01*
X189915D01*
X189929Y-23534D01*
X190014Y-23604D01*
X190140Y-23717D01*
X190310Y-23830D01*
X190521Y-23957D01*
X190775Y-24070D01*
X191071Y-24140D01*
X191226Y-24154D01*
X191395Y-24168D01*
X191480D01*
X191550Y-24154D01*
X191705Y-24126D01*
X191917Y-24084D01*
X192142Y-23999D01*
X192396Y-23886D01*
X192635Y-23717D01*
X192762Y-23604D01*
X192875Y-23492D01*
X192889Y-23477D01*
X192903Y-23463D01*
X192931Y-23421D01*
X192974Y-23365D01*
X193016Y-23294D01*
X193072Y-23210D01*
X193129Y-23097D01*
X193185Y-22984D01*
X193242Y-22843D01*
X193284Y-22688D01*
X193340Y-22519D01*
X193383Y-22336D01*
X193425Y-22124D01*
X193453Y-21913D01*
X193481Y-21673D01*
Y-21419D01*
Y-21405D01*
Y-21363D01*
Y-21293D01*
X193467Y-21208D01*
Y-21095D01*
X193453Y-20968D01*
X193411Y-20672D01*
X193340Y-20362D01*
X193228Y-20024D01*
X193072Y-19714D01*
X192988Y-19559D01*
X192875Y-19432D01*
Y-19418D01*
X192847Y-19404D01*
X192762Y-19319D01*
X192635Y-19220D01*
X192466Y-19093D01*
X192255Y-18966D01*
X192001Y-18854D01*
X191719Y-18783D01*
X191564Y-18769D01*
X191395Y-18755D01*
D02*
G37*
G36*
X174239D02*
X174028D01*
X173971Y-18769D01*
X173816Y-18797D01*
X173633Y-18840D01*
X173421Y-18924D01*
X173196Y-19051D01*
X173083Y-19122D01*
X172970Y-19220D01*
X172857Y-19319D01*
X172745Y-19446D01*
Y-19460D01*
X172716Y-19474D01*
X172688Y-19516D01*
X172660Y-19573D01*
X172618Y-19643D01*
X172561Y-19728D01*
X172519Y-19826D01*
X172463Y-19939D01*
X172406Y-20080D01*
X172364Y-20221D01*
X172308Y-20390D01*
X172265Y-20559D01*
X172237Y-20757D01*
X172209Y-20968D01*
X172181Y-21180D01*
Y-21419D01*
Y-21433D01*
Y-21476D01*
Y-21546D01*
Y-21631D01*
X172195Y-21730D01*
Y-21856D01*
X172223Y-22124D01*
X172265Y-22420D01*
X172322Y-22730D01*
X172406Y-23012D01*
X172463Y-23139D01*
X172519Y-23252D01*
Y-23266D01*
X172547Y-23294D01*
X172575Y-23337D01*
X172618Y-23393D01*
X172745Y-23548D01*
X172928Y-23703D01*
X173139Y-23872D01*
X173407Y-24027D01*
X173548Y-24084D01*
X173717Y-24126D01*
X173872Y-24154D01*
X174056Y-24168D01*
X174126D01*
X174182Y-24154D01*
X174338Y-24126D01*
X174521Y-24084D01*
X174732Y-23999D01*
X174958Y-23886D01*
X175183Y-23717D01*
X175296Y-23604D01*
X175409Y-23492D01*
Y-23477D01*
X175437Y-23463D01*
X175465Y-23421D01*
X175494Y-23365D01*
X175550Y-23294D01*
X175592Y-23210D01*
X175649Y-23097D01*
X175705Y-22984D01*
X175747Y-22843D01*
X175804Y-22702D01*
X175860Y-22533D01*
X175902Y-22350D01*
X175931Y-22152D01*
X175959Y-21941D01*
X175987Y-21701D01*
Y-21462D01*
Y-21448D01*
Y-21405D01*
Y-21335D01*
X175973Y-21236D01*
Y-21123D01*
X175959Y-20982D01*
X175917Y-20686D01*
X175860Y-20362D01*
X175761Y-20010D01*
X175620Y-19699D01*
X175536Y-19545D01*
X175437Y-19418D01*
Y-19404D01*
X175409Y-19389D01*
X175338Y-19319D01*
X175226Y-19206D01*
X175071Y-19079D01*
X174873Y-18966D01*
X174648Y-18854D01*
X174380Y-18783D01*
X174239Y-18755D01*
D02*
G37*
G36*
X146651Y-16189D02*
X146566D01*
X146510Y-16204D01*
X146355Y-16232D01*
X146172Y-16274D01*
X145960Y-16358D01*
X145735Y-16485D01*
X145622Y-16570D01*
X145509Y-16655D01*
X145411Y-16767D01*
X145312Y-16894D01*
Y-16908D01*
X145284Y-16937D01*
X145255Y-16993D01*
X145213Y-17063D01*
X145171Y-17176D01*
X145114Y-17303D01*
X145072Y-17458D01*
X145016Y-17641D01*
X144959Y-17853D01*
X144903Y-18092D01*
X144847Y-18360D01*
X144804Y-18656D01*
X144762Y-18995D01*
X144734Y-19361D01*
X144720Y-19756D01*
X144706Y-20193D01*
Y-20221D01*
Y-20292D01*
Y-20419D01*
X144720Y-20588D01*
Y-20771D01*
X144734Y-20996D01*
X144748Y-21236D01*
X144776Y-21490D01*
X144847Y-22040D01*
X144889Y-22308D01*
X144945Y-22561D01*
X145002Y-22801D01*
X145086Y-23026D01*
X145171Y-23224D01*
X145270Y-23393D01*
Y-23407D01*
X145298Y-23421D01*
X145368Y-23520D01*
X145495Y-23647D01*
X145650Y-23788D01*
X145862Y-23929D01*
X146101Y-24056D01*
X146369Y-24154D01*
X146510Y-24168D01*
X146665Y-24182D01*
X146750D01*
X146806Y-24168D01*
X146947Y-24140D01*
X147144Y-24084D01*
X147356Y-23985D01*
X147596Y-23844D01*
X147708Y-23760D01*
X147821Y-23647D01*
X147934Y-23534D01*
X148047Y-23393D01*
Y-23379D01*
X148075Y-23351D01*
X148103Y-23308D01*
X148131Y-23238D01*
X148188Y-23139D01*
X148230Y-23012D01*
X148286Y-22871D01*
X148343Y-22702D01*
X148385Y-22491D01*
X148441Y-22265D01*
X148498Y-21997D01*
X148540Y-21715D01*
X148568Y-21377D01*
X148596Y-21025D01*
X148625Y-20630D01*
Y-20193D01*
Y-20179D01*
Y-20165D01*
Y-20094D01*
Y-19967D01*
X148611Y-19798D01*
Y-19615D01*
X148596Y-19389D01*
X148582Y-19150D01*
X148554Y-18882D01*
X148484Y-18346D01*
X148441Y-18078D01*
X148385Y-17825D01*
X148329Y-17585D01*
X148244Y-17359D01*
X148160Y-17162D01*
X148061Y-16993D01*
Y-16979D01*
X148033Y-16965D01*
X148004Y-16922D01*
X147962Y-16866D01*
X147835Y-16739D01*
X147680Y-16584D01*
X147469Y-16443D01*
X147229Y-16316D01*
X147102Y-16260D01*
X146961Y-16218D01*
X146806Y-16204D01*
X146651Y-16189D01*
D02*
G37*
G36*
X58756D02*
X58672D01*
X58615Y-16204D01*
X58460Y-16232D01*
X58277Y-16274D01*
X58066Y-16358D01*
X57840Y-16485D01*
X57727Y-16570D01*
X57614Y-16655D01*
X57516Y-16767D01*
X57417Y-16894D01*
Y-16908D01*
X57389Y-16937D01*
X57361Y-16993D01*
X57318Y-17063D01*
X57276Y-17176D01*
X57220Y-17303D01*
X57177Y-17458D01*
X57121Y-17641D01*
X57065Y-17853D01*
X57008Y-18092D01*
X56952Y-18360D01*
X56910Y-18656D01*
X56867Y-18995D01*
X56839Y-19361D01*
X56825Y-19756D01*
X56811Y-20193D01*
Y-20221D01*
Y-20292D01*
Y-20419D01*
X56825Y-20588D01*
Y-20771D01*
X56839Y-20996D01*
X56853Y-21236D01*
X56881Y-21490D01*
X56952Y-22040D01*
X56994Y-22308D01*
X57051Y-22561D01*
X57107Y-22801D01*
X57192Y-23026D01*
X57276Y-23224D01*
X57375Y-23393D01*
Y-23407D01*
X57403Y-23421D01*
X57474Y-23520D01*
X57600Y-23647D01*
X57755Y-23788D01*
X57967Y-23929D01*
X58207Y-24056D01*
X58474Y-24154D01*
X58615Y-24168D01*
X58770Y-24182D01*
X58855D01*
X58911Y-24168D01*
X59052Y-24140D01*
X59250Y-24084D01*
X59461Y-23985D01*
X59701Y-23844D01*
X59814Y-23760D01*
X59926Y-23647D01*
X60039Y-23534D01*
X60152Y-23393D01*
Y-23379D01*
X60180Y-23351D01*
X60208Y-23308D01*
X60237Y-23238D01*
X60293Y-23139D01*
X60335Y-23012D01*
X60392Y-22871D01*
X60448Y-22702D01*
X60490Y-22491D01*
X60547Y-22265D01*
X60603Y-21997D01*
X60645Y-21715D01*
X60673Y-21377D01*
X60702Y-21025D01*
X60730Y-20630D01*
Y-20193D01*
Y-20179D01*
Y-20165D01*
Y-20094D01*
Y-19967D01*
X60716Y-19798D01*
Y-19615D01*
X60702Y-19389D01*
X60688Y-19150D01*
X60659Y-18882D01*
X60589Y-18346D01*
X60547Y-18078D01*
X60490Y-17825D01*
X60434Y-17585D01*
X60349Y-17359D01*
X60265Y-17162D01*
X60166Y-16993D01*
Y-16979D01*
X60138Y-16965D01*
X60110Y-16922D01*
X60067Y-16866D01*
X59940Y-16739D01*
X59785Y-16584D01*
X59574Y-16443D01*
X59334Y-16316D01*
X59207Y-16260D01*
X59066Y-16218D01*
X58911Y-16204D01*
X58756Y-16189D01*
D02*
G37*
%LPD*%
D10*
X67130Y662400D02*
X65225Y663500D01*
Y661300D01*
X67130Y662400D01*
X293370Y22860D02*
X291465Y23960D01*
Y21760D01*
X293370Y22860D01*
X153670D02*
X151765Y23960D01*
Y21760D01*
X153670Y22860D01*
D12*
X500000Y800000D02*
X500000Y0D01*
X0Y800000D02*
X500000D01*
X0Y0D02*
X500000D01*
X0D02*
Y800000D01*
D82*
X93715Y532300D02*
X91810Y533400D01*
Y531200D01*
X93715Y532300D01*
X80344Y390245D02*
X81237Y388090D01*
X83392Y387197D01*
X85548Y388090D01*
X86440Y390245D01*
X83022Y271015D02*
X83915Y268860D01*
X86070Y267967D01*
X88225Y268860D01*
X89118Y271015D01*
X60526Y637000D02*
X60339Y639552D01*
X59783Y642049D01*
X58869Y644439D01*
X57617Y646670D01*
X56053Y648695D01*
X54211Y650471D01*
X52130Y651960D01*
X49854Y653130D01*
X47433Y653956D01*
X44917Y654421D01*
X42360Y654514D01*
X39817Y654234D01*
X37341Y653587D01*
X34986Y652587D01*
X32802Y651254D01*
X30836Y649617D01*
X29128Y647711D01*
X27717Y645577D01*
X26630Y643261D01*
X25893Y640811D01*
X25521Y638279D01*
Y635721D01*
X25893Y633189D01*
X26630Y630739D01*
X27717Y628422D01*
X29128Y626288D01*
X30836Y624383D01*
X32802Y622746D01*
X34986Y621413D01*
X37341Y620413D01*
X39817Y619766D01*
X42360Y619486D01*
X44917Y619579D01*
X47433Y620044D01*
X49854Y620870D01*
X52130Y622040D01*
X54211Y623529D01*
X56053Y625305D01*
X57617Y627330D01*
X58869Y629561D01*
X59783Y631951D01*
X60339Y634448D01*
X60526Y637000D01*
X284226Y45720D02*
X284039Y48272D01*
X283483Y50769D01*
X282569Y53159D01*
X281317Y55390D01*
X279753Y57415D01*
X277911Y59191D01*
X275830Y60680D01*
X273554Y61850D01*
X271133Y62676D01*
X268617Y63141D01*
X266060Y63234D01*
X263517Y62955D01*
X261041Y62307D01*
X258686Y61307D01*
X256502Y59974D01*
X254536Y58337D01*
X252828Y56431D01*
X251416Y54297D01*
X250330Y51981D01*
X249593Y49531D01*
X249221Y46999D01*
Y44441D01*
X249593Y41909D01*
X250330Y39459D01*
X251416Y37142D01*
X252828Y35008D01*
X254536Y33103D01*
X256502Y31466D01*
X258686Y30133D01*
X261041Y29133D01*
X263517Y28486D01*
X266060Y28206D01*
X268617Y28299D01*
X271133Y28764D01*
X273554Y29590D01*
X275830Y30760D01*
X277911Y32249D01*
X279753Y34025D01*
X281317Y36050D01*
X282569Y38281D01*
X283483Y40671D01*
X284039Y43168D01*
X284226Y45720D01*
X144526D02*
X144339Y48272D01*
X143783Y50769D01*
X142869Y53159D01*
X141617Y55390D01*
X140053Y57415D01*
X138211Y59191D01*
X136130Y60680D01*
X133855Y61850D01*
X131433Y62676D01*
X128917Y63141D01*
X126360Y63234D01*
X123817Y62955D01*
X121341Y62307D01*
X118986Y61307D01*
X116802Y59974D01*
X114836Y58337D01*
X113128Y56431D01*
X111716Y54297D01*
X110630Y51981D01*
X109893Y49531D01*
X109521Y46999D01*
Y44441D01*
X109893Y41909D01*
X110630Y39459D01*
X111716Y37142D01*
X113128Y35008D01*
X114836Y33103D01*
X116802Y31466D01*
X118986Y30133D01*
X121341Y29133D01*
X123817Y28486D01*
X126360Y28206D01*
X128917Y28299D01*
X131433Y28764D01*
X133855Y29590D01*
X136130Y30760D01*
X138211Y32249D01*
X140053Y34025D01*
X141617Y36050D01*
X142869Y38281D01*
X143783Y40671D01*
X144339Y43168D01*
X144526Y45720D01*
X165802Y228550D02*
X164278D01*
X165802D01*
X48212Y312928D02*
Y322072D01*
X31194Y312928D02*
X48212D01*
X31194D02*
Y322072D01*
X48212D01*
X31194Y312928D02*
X37290D01*
X31194D02*
Y322072D01*
X37290D01*
Y312928D02*
Y322072D01*
X42116D02*
X48212D01*
Y312928D02*
Y322072D01*
X42116Y312928D02*
X48212D01*
X42116D02*
Y322072D01*
X351981Y198518D02*
Y207662D01*
X368999D01*
Y198518D02*
Y207662D01*
X351981Y198518D02*
X368999D01*
X362903Y207662D02*
X368999D01*
Y198518D02*
Y207662D01*
X362903Y198518D02*
X368999D01*
X362903D02*
Y207662D01*
X351981Y198518D02*
X358077D01*
X351981D02*
Y207662D01*
X358077D01*
Y198518D02*
Y207662D01*
X85068Y730226D02*
X94212D01*
Y713208D02*
Y730226D01*
X85068Y713208D02*
X94212D01*
X85068D02*
Y730226D01*
X94212Y713208D02*
Y719304D01*
X85068Y713208D02*
X94212D01*
X85068D02*
Y719304D01*
X94212D01*
X85068Y724130D02*
Y730226D01*
X94212D01*
Y724130D02*
Y730226D01*
X85068Y724130D02*
X94212D01*
X365580Y481043D02*
X374725D01*
X365580D02*
Y498061D01*
X374725D01*
Y481043D02*
Y498061D01*
X365580Y491965D02*
Y498061D01*
X374725D01*
Y491965D02*
Y498061D01*
X365580Y491965D02*
X374725D01*
Y481043D02*
Y487139D01*
X365580Y481043D02*
X374725D01*
X365580D02*
Y487139D01*
X374725D01*
X87862Y621940D02*
Y631084D01*
X104880D01*
Y621940D02*
Y631084D01*
X87862Y621940D02*
X104880D01*
X98784Y631084D02*
X104880D01*
Y621940D02*
Y631084D01*
X98784Y621940D02*
X104880D01*
X98784D02*
Y631084D01*
X87862Y621940D02*
X93958D01*
X87862D02*
Y631084D01*
X93958D01*
Y621940D02*
Y631084D01*
X211413Y206428D02*
Y215572D01*
Y206428D02*
X217509D01*
Y215572D01*
X211413D02*
X217509D01*
X206587Y206428D02*
Y215572D01*
X200491D02*
X206587D01*
X200491Y206428D02*
Y215572D01*
Y206428D02*
X206587D01*
X200491Y215572D02*
X217509D01*
X200491Y206428D02*
Y215572D01*
Y206428D02*
X217509D01*
Y215572D01*
X325628Y73787D02*
X334772D01*
X325628Y67691D02*
Y73787D01*
Y67691D02*
X334772D01*
Y73787D01*
X325628Y78613D02*
X334772D01*
Y84709D01*
X325628D02*
X334772D01*
X325628Y78613D02*
Y84709D01*
X334772Y67691D02*
Y84709D01*
X325628D02*
X334772D01*
X325628Y67691D02*
Y84709D01*
Y67691D02*
X334772D01*
X185928Y73787D02*
X195072D01*
X185928Y67691D02*
Y73787D01*
Y67691D02*
X195072D01*
Y73787D01*
X185928Y78613D02*
X195072D01*
Y84709D01*
X185928D02*
X195072D01*
X185928Y78613D02*
Y84709D01*
X195072Y67691D02*
Y84709D01*
X185928D02*
X195072D01*
X185928Y67691D02*
Y84709D01*
Y67691D02*
X195072D01*
X47435Y78596D02*
X56579D01*
Y84692D01*
X47435D02*
X56579D01*
X47435Y78596D02*
Y84692D01*
Y73770D02*
X56579D01*
X47435Y67674D02*
Y73770D01*
Y67674D02*
X56579D01*
Y73770D01*
X47435Y67674D02*
Y84692D01*
Y67674D02*
X56579D01*
Y84692D01*
X47435D02*
X56579D01*
X257464Y261247D02*
X267116D01*
X257464Y256167D02*
Y261247D01*
Y256167D02*
X267116D01*
Y261247D01*
X257464Y268613D02*
X267116D01*
Y273693D01*
X257464D02*
X267116D01*
X257464Y268613D02*
Y273693D01*
X267116D01*
X257464Y256167D02*
X267116D01*
X258794Y359537D02*
X268446D01*
X258794Y354457D02*
Y359537D01*
Y354457D02*
X268446D01*
Y359537D01*
X258794Y366903D02*
X268446D01*
Y371983D01*
X258794D02*
X268446D01*
X258794Y366903D02*
Y371983D01*
X268446D01*
X258794Y354457D02*
X268446D01*
X94985Y532935D02*
Y538015D01*
Y532935D02*
X101208D01*
Y538015D01*
X94985D02*
X101208D01*
X94985Y551985D02*
Y557065D01*
Y551985D02*
X101208D01*
Y557065D01*
X94985D02*
X101208D01*
X81015Y542460D02*
Y547540D01*
X74792D02*
X81015D01*
X74792Y542460D02*
Y547540D01*
Y542460D02*
X81015D01*
X94985Y529760D02*
Y560240D01*
X81015D02*
X94985D01*
X81015Y529760D02*
Y560240D01*
Y529760D02*
X94985D01*
X76280Y368655D02*
Y390245D01*
X90505D01*
Y368655D02*
Y390245D01*
X76280Y368655D02*
X90505D01*
Y387474D02*
X95457D01*
Y384426D02*
Y387474D01*
X90505Y384426D02*
X95457D01*
X90505D02*
Y387474D01*
Y380974D02*
X95457D01*
Y377926D02*
Y380974D01*
X90505Y377926D02*
X95457D01*
X90505D02*
Y380974D01*
Y374474D02*
X95457D01*
Y371426D02*
Y374474D01*
X90505Y371426D02*
X95457D01*
X90505D02*
Y374474D01*
X71328Y371426D02*
X76280D01*
X71328D02*
Y374474D01*
X76280D01*
Y371426D02*
Y374474D01*
X71328Y377926D02*
X76280D01*
X71328D02*
Y380974D01*
X76280D01*
Y377926D02*
Y380974D01*
X71328Y384426D02*
X76280D01*
X71328D02*
Y387474D01*
X76280D01*
Y384426D02*
Y387474D01*
X78958Y265196D02*
Y268244D01*
X74005D02*
X78958D01*
X74005Y265196D02*
Y268244D01*
Y265196D02*
X78958D01*
Y258696D02*
Y261744D01*
X74005D02*
X78958D01*
X74005Y258696D02*
Y261744D01*
Y258696D02*
X78958D01*
Y252196D02*
Y255244D01*
X74005D02*
X78958D01*
X74005Y252196D02*
Y255244D01*
Y252196D02*
X78958D01*
X93182D02*
Y255244D01*
Y252196D02*
X98135D01*
Y255244D01*
X93182D02*
X98135D01*
X93182Y258696D02*
Y261744D01*
Y258696D02*
X98135D01*
Y261744D01*
X93182D02*
X98135D01*
X93182Y265196D02*
Y268244D01*
Y265196D02*
X98135D01*
Y268244D01*
X93182D02*
X98135D01*
X78958Y249425D02*
X93182D01*
Y271015D01*
X78958D02*
X93182D01*
X78958Y249425D02*
Y271015D01*
X35936Y298023D02*
Y306152D01*
X31872D02*
X35936D01*
X31872Y298023D02*
Y306152D01*
Y298023D02*
X35936D01*
X43810D02*
Y306152D01*
Y298023D02*
X47874D01*
Y306152D01*
X43810D02*
X47874D01*
X31872Y298023D02*
X47874D01*
Y306152D01*
X31872D02*
X47874D01*
X31872Y298023D02*
Y306152D01*
X68132Y717780D02*
X76260D01*
X68132Y713716D02*
Y717780D01*
Y713716D02*
X76260D01*
Y717780D01*
X68132Y725654D02*
X76260D01*
Y729718D01*
X68132D02*
X76260D01*
X68132Y725654D02*
Y729718D01*
X76260Y713716D02*
Y729718D01*
X68132D02*
X76260D01*
X68132Y713716D02*
Y729718D01*
Y713716D02*
X76260D01*
X33286Y725350D02*
X41414D01*
Y729414D01*
X33286D02*
X41414D01*
X33286Y725350D02*
Y729414D01*
Y717476D02*
X41414D01*
X33286Y713412D02*
Y717476D01*
Y713412D02*
X41414D01*
Y717476D01*
X33286Y713412D02*
Y729414D01*
Y713412D02*
X41414D01*
Y729414D01*
X33286D02*
X41414D01*
X50692Y717780D02*
X58820D01*
X50692Y713716D02*
Y717780D01*
Y713716D02*
X58820D01*
Y717780D01*
X50692Y725654D02*
X58820D01*
Y729718D01*
X50692D02*
X58820D01*
X50692Y725654D02*
Y729718D01*
X58820Y713716D02*
Y729718D01*
X50692D02*
X58820D01*
X50692Y713716D02*
Y729718D01*
Y713716D02*
X58820D01*
X212217Y128016D02*
Y136144D01*
Y128016D02*
X216281D01*
Y136144D01*
X212217D02*
X216281D01*
X204343Y128016D02*
Y136144D01*
X200279D02*
X204343D01*
X200279Y128016D02*
Y136144D01*
Y128016D02*
X204343D01*
X200279Y136144D02*
X216281D01*
X200279Y128016D02*
Y136144D01*
Y128016D02*
X216281D01*
Y136144D01*
X204343Y143256D02*
Y151384D01*
X200279D02*
X204343D01*
X200279Y143256D02*
Y151384D01*
Y143256D02*
X204343D01*
X212217D02*
Y151384D01*
Y143256D02*
X216281D01*
Y151384D01*
X212217D02*
X216281D01*
X200279Y143256D02*
X216281D01*
Y151384D01*
X200279D02*
X216281D01*
X200279Y143256D02*
Y151384D01*
X204343Y158496D02*
Y166624D01*
X200279D02*
X204343D01*
X200279Y158496D02*
Y166624D01*
Y158496D02*
X204343D01*
X212217D02*
Y166624D01*
Y158496D02*
X216281D01*
Y166624D01*
X212217D02*
X216281D01*
X200279Y158496D02*
X216281D01*
Y166624D01*
X200279D02*
X216281D01*
X200279Y158496D02*
Y166624D01*
X212090Y173736D02*
Y181864D01*
Y173736D02*
X216154D01*
Y181864D01*
X212090D02*
X216154D01*
X204216Y173736D02*
Y181864D01*
X200152D02*
X204216D01*
X200152Y173736D02*
Y181864D01*
Y173736D02*
X204216D01*
X200152Y181864D02*
X216154D01*
X200152Y173736D02*
Y181864D01*
Y173736D02*
X216154D01*
Y181864D01*
X275726Y260993D02*
X283854D01*
X275726Y256929D02*
Y260993D01*
Y256929D02*
X283854D01*
Y260993D01*
X275726Y268867D02*
X283854D01*
Y272931D01*
X275726D02*
X283854D01*
X275726Y268867D02*
Y272931D01*
X283854Y256929D02*
Y272931D01*
X275726D02*
X283854D01*
X275726Y256929D02*
Y272931D01*
Y256929D02*
X283854D01*
X291937Y235936D02*
Y244064D01*
Y235936D02*
X296001D01*
Y244064D01*
X291937D02*
X296001D01*
X284063Y235936D02*
Y244064D01*
X279999D02*
X284063D01*
X279999Y235936D02*
Y244064D01*
Y235936D02*
X284063D01*
X279999Y244064D02*
X296001D01*
X279999Y235936D02*
Y244064D01*
Y235936D02*
X296001D01*
Y244064D01*
X118936Y301999D02*
X127064D01*
X118936D02*
Y318001D01*
X127064D01*
Y301999D02*
Y318001D01*
X118936Y313937D02*
Y318001D01*
X127064D01*
Y313937D02*
Y318001D01*
X118936Y313937D02*
X127064D01*
Y301999D02*
Y306063D01*
X118936Y301999D02*
X127064D01*
X118936D02*
Y306063D01*
X127064D01*
X340936Y361999D02*
X349064D01*
X340936D02*
Y378001D01*
X349064D01*
Y361999D02*
Y378001D01*
X340936Y373937D02*
Y378001D01*
X349064D01*
Y373937D02*
Y378001D01*
X340936Y373937D02*
X349064D01*
Y361999D02*
Y366063D01*
X340936Y361999D02*
X349064D01*
X340936D02*
Y366063D01*
X349064D01*
X277336Y359283D02*
X285464D01*
X277336Y355219D02*
Y359283D01*
Y355219D02*
X285464D01*
Y359283D01*
X277336Y367157D02*
X285464D01*
Y371221D01*
X277336D02*
X285464D01*
X277336Y367157D02*
Y371221D01*
X285464Y355219D02*
Y371221D01*
X277336D02*
X285464D01*
X277336Y355219D02*
Y371221D01*
Y355219D02*
X285464D01*
X63976Y303403D02*
X72104D01*
X63976Y299339D02*
Y303403D01*
Y299339D02*
X72104D01*
Y303403D01*
X63976Y311277D02*
X72104D01*
Y315341D01*
X63976D02*
X72104D01*
X63976Y311277D02*
Y315341D01*
X72104Y299339D02*
Y315341D01*
X63976D02*
X72104D01*
X63976Y299339D02*
Y315341D01*
Y299339D02*
X72104D01*
X292830Y333756D02*
Y341884D01*
Y333756D02*
X296894D01*
Y341884D01*
X292830D02*
X296894D01*
X284956Y333756D02*
Y341884D01*
X280892D02*
X284956D01*
X280892Y333756D02*
Y341884D01*
Y333756D02*
X284956D01*
X280892Y341884D02*
X296894D01*
X280892Y333756D02*
Y341884D01*
Y333756D02*
X296894D01*
Y341884D01*
X13028Y666972D02*
X72972D01*
Y607028D02*
Y666972D01*
X13028Y607028D02*
X72972D01*
X13028D02*
Y666972D01*
X236728Y75692D02*
X296672D01*
X236728Y15748D02*
Y75692D01*
Y15748D02*
X296672D01*
Y75692D01*
X156972Y15748D02*
Y75692D01*
X97028Y15748D02*
X156972D01*
X97028D02*
Y75692D01*
X156972D01*
X167326Y220549D02*
Y236551D01*
X134306Y220549D02*
X167326D01*
X134306D02*
Y236551D01*
X167326D01*
X134306Y220549D02*
X141926D01*
X134306D02*
Y236551D01*
X141926D01*
Y220549D02*
Y236551D01*
X159706D02*
X167326D01*
Y220549D02*
Y236551D01*
X159706Y220549D02*
X167326D01*
X159706D02*
Y236551D01*
X186373Y252499D02*
X194501D01*
X186373Y248435D02*
Y252499D01*
Y248435D02*
X194501D01*
Y252499D01*
X186373Y260373D02*
X194501D01*
Y264437D01*
X186373D02*
X194501D01*
X186373Y260373D02*
Y264437D01*
X194501Y248435D02*
Y264437D01*
X186373D02*
X194501D01*
X186373Y248435D02*
Y264437D01*
Y248435D02*
X194501D01*
M02*
