M48
;Layer_Color=9474304
;FILE_FORMAT=4:4
METRIC,LZ
;TYPE=PLATED
T1F00S00C0.3000
T3F00S00C0.7620
T4F00S00C0.8500
T5F00S00C0.9000
T6F00S00C1.0160
%
T01
X000525Y0003
X000675Y0006
X000375
X00062Y00108
Y00123
X000675Y0012
X00077Y00101431
X00092Y00112
X00118Y00088
X001275Y0006
X001425Y0003
X001125
X002025
X00205Y0006
X001875Y0006
X001725Y0009
X001875Y0012
X00189Y0014
X002175Y0012
X002475
X002775
X00272Y00159
X002925Y0015
X003225
X003525
X003825
X003675Y0018
X003375
X003075
X003225Y0021
X002925
X002625
X002325
X002475Y0024
X002175
X001875
X00193001Y002032
X00191103Y00190991
X0018Y00189
X0017014Y00194698
X001575Y0018
X001275
X00137797Y00208841
X00117Y00209
X0011175Y0023575
X00087739Y00235759
X000675Y0024
X0008025Y0020975
X00095Y00188
X001125Y0015
X00022Y00158
X0001Y00312
X000525Y0033
X0009Y0033
X00088Y00348
X0014367Y0034083
X0014867Y00324624
X00161613Y00325181
X00173Y00327
X00165751Y00308782
X001575Y003
X0013944Y00299515
X0023368Y0029083
X00234Y00271
X002325Y0033
X002625
X002775Y003
X003075
X00312Y00339
X003225Y0033
Y0039
X002925
X002325
X0023524Y0036576
X00243Y00368
X00223Y00366
X001875Y0036
X001725Y0039
X00354727Y00390228
X00355Y00379
X00377Y00343
X00360201Y0030073
X0036Y00273
X00342246Y00272845
X003375Y0024
X00353Y00226
X003825Y0021
Y0027
X003075Y0024
X002925Y0009
X002625
X002325
X002475Y0006
X002775
X002925Y0003
X003225
X003525
X00345Y0006
X003375Y0006
X00322Y00084
X003825Y0009
X002625Y0003
X004125
X004725
X004875Y0006
X004575
X004725Y0009
X0046008Y0012192
X004575Y0018
X004275
X003975
X004125Y0021
X004425
X00461722Y00275278
X00466859Y00270141
X00454Y00347062
X004575Y0036
X004875
X004275
X00413Y003935
X00405Y00389425
X00396Y00296
X004125Y0015
Y0009
X004575Y0042
X004425Y0045
X004575Y0048
X004875
Y0054
Y006
Y0066
Y0072
X004725Y0075
X004125
X00396Y00715
X00408Y00688
X00411Y00676
X004125Y0063
X00397Y00585
X00405Y00569
X00413Y00559
X00391Y00554
Y00503527
X0039725Y00509777
X003825Y0051
X00375Y00529
X00367Y00537
X003375Y0054
X003075
X002775
X002475
X002175
X001875
X001575
X00118Y00544
X00107304Y00545
X001125Y0057
X001425
X001725
X002025
X001875Y006
X001575
X001725Y0063
X002025
X002325
X002625
X002925
X003225
X003375Y0066
X003075
X002775
X002475
X002175
X001875
X001575
X001725Y0069
X002025
X002325
X002625
X002925
X003225
X003375Y0072
X003075
X002775
X002475
X002175
X001875
X001575
X001425Y0075
X001125
X000825
X00076569Y00776
X000225Y0075
Y0069
X000525
X000675Y0066
X00088Y00651
X00118Y00676
X00111Y00691
X00105Y00704
X001425Y0069
Y0063
X000525
X000225
X000375Y0066
Y006
X000525Y0057
X000825
X000675Y0054
X000525Y0051
X000375Y0048
X000525Y0045
X00072Y004614
X0008038Y0047662
X0009Y00472
Y00485
X00091849Y00496838
X00099Y0051425
X001425Y0051
X001725
X002025
X002325
X002625
X002925
X003225
Y0057
X002925
X002625
X002775Y006
X003075
X003375
X00365Y0064
X003825Y0063
X00377Y00708
X003825Y0075
X00383Y00467
X00359Y00468
X00349Y00459
X003675Y0048
Y0042
X00313Y00435
X002925Y0045
X002625
X002775Y0042
X001875
X001575
X001275
X000675
X000375
X00033Y00397
T03
X0048Y00045
Y0007
T04
X00047285Y00347985
Y00397985
T05
X00317Y00293
X0034Y00292
X00420925Y00332831
X0047224
X00472258Y0021696
X0042095
T06
X00020254Y00053292
Y00078692
Y00104092
Y00129492
X00378Y003596
Y00385
X00421699Y00295795
X00447099
X00472499
Y00255155
X00447099
X00421699
X00432427Y004917
Y005171
X00457827
Y004917
Y005425
X00432427
Y005679
X00432173Y00592792
X00457827Y005933
Y005679
Y006492
Y006746
Y007
Y007254
Y007508
X00432173Y00750292
X00432427Y007254
Y007
Y006746
Y006492
X00378Y004104
X003224Y00423
X00297
X00020254Y00444092
Y00469492
Y00508602
Y00534002
Y00559402
M30
